<?xml version="1.0" standalone="no"?>
<!DOCTYPE svg PUBLIC "-//W3C//DTD SVG 1.1//EN" "http://www.w3.org/Graphics/SVG/1.1/DTD/svg11.dtd" >
<svg xmlns="http://www.w3.org/2000/svg">
<metadata></metadata>
<defs>
<font id="kunderabold" horiz-adv-x="1705" >
<font-face units-per-em="2048" ascent="1536" descent="-512" />
<missing-glyph horiz-adv-x="589" />
<glyph horiz-adv-x="0" />
<glyph unicode="&#xd;" horiz-adv-x="589" />
<glyph horiz-adv-x="0" />
<glyph horiz-adv-x="0" />
<glyph horiz-adv-x="0" />
<glyph unicode=" "  horiz-adv-x="589" />
<glyph unicode="&#x09;" horiz-adv-x="589" />
<glyph unicode="&#xa0;" horiz-adv-x="589" />
<glyph unicode="!" horiz-adv-x="497" d="M133 504l-65 815q39 35 82 62.5t96 27.5q59 0 102 -27.5t82 -62.5l-72 -815h-225zM420 147q0 -20 -18.5 -47.5t-43.5 -52.5t-51 -43t-49 -18q-20 0 -48 18.5t-52 42.5q-25 25 -43.5 52.5t-18.5 47.5t18.5 48t43.5 53t51.5 43t48.5 18q16 0 46 -18.5t54 -42.5 q25 -25 43.5 -53t18.5 -48z" />
<glyph unicode="&#x22;" horiz-adv-x="714" d="M51 1528q39 16 75 28.5t60 12.5q35 0 67 -7.5t69 -25.5l-68 -586h-203v578zM403 1528q39 16 75 28.5t61 12.5q35 0 66.5 -7.5t68.5 -25.5l-68 -586h-203v578z" />
<glyph unicode="#" horiz-adv-x="1193" d="M682 268h-217l-19 -313h-200l18 313h-205v166h211l15 246h-207v160h215l20 331h201l-20 -331h217l20 331h199l-21 -331h193v-160h-201l-12 -246h188v-166h-196l-19 -313h-198zM473 434h215l12 246h-215z" />
<glyph unicode="$" horiz-adv-x="860" d="M324 -12q-78 10 -148 31.5t-131 62.5v205q39 -25 95.5 -56.5t110.5 -60.5t100 -48.5t69 -19.5q59 0 93 44t34 102q0 41 -17.5 73.5t-54.5 51.5l-254 127q-86 43 -126 108.5t-40 130.5q0 117 75 191t194 104v303h202v-288q125 -18 236 -68q-12 -49 -26.5 -94t-28.5 -92 q-47 25 -99.5 50t-97.5 44.5t-79 33t-44 13.5q-41 0 -72.5 -34t-31.5 -93q0 -31 14 -61.5t43 -47.5l293 -149q86 -45 127 -102.5t41 -116.5q0 -63 -21.5 -115.5t-58.5 -93.5t-87 -69.5t-108 -47.5v-272h-202v254z" />
<glyph unicode="%" horiz-adv-x="1345" d="M1026 1114l154 -135l-854 -956l-150 135zM61 879q0 55 21.5 107t63.5 93t101.5 65.5t135.5 24.5q61 0 116.5 -17t96.5 -49t64.5 -80t23.5 -110q0 -53 -23.5 -103t-65.5 -90t-101.5 -64.5t-133.5 -24.5q-125 0 -211 65.5t-88 182.5zM301 897q0 -66 18.5 -118t53.5 -52 q37 0 55 52t18 118q0 70 -18 124t-55 54q-35 0 -53.5 -54t-18.5 -124zM668 205q0 55 21.5 107.5t62.5 94.5t100 66.5t135 24.5q61 0 116.5 -17.5t96.5 -50.5t64.5 -81t23.5 -109q0 -53 -23.5 -103.5t-65.5 -90.5t-101.5 -64.5t-132.5 -24.5q-125 0 -210 65.5t-87 182.5z M905 225q0 -68 18.5 -120t55.5 -52q35 0 53.5 52.5t18.5 119.5q0 68 -18.5 122t-53.5 54q-37 0 -55.5 -54t-18.5 -122z" />
<glyph unicode="&#x26;" horiz-adv-x="1245" d="M838 0l-117 170q-57 -61 -109.5 -98t-98.5 -55.5t-87 -24.5t-76 -6q-68 0 -124 23.5t-96 64.5t-62.5 96t-22.5 117q0 135 79 240.5t208 203.5l-88 129q-74 106 -74 209q0 68 26.5 128t77 107.5t123 75t162.5 27.5q72 0 116 -12.5t85 -28.5l117 25v-293q-59 -47 -111 -47 q-51 0 -80 32.5t-49.5 72.5t-42 73t-57.5 33q-47 0 -70 -34t-23 -75q0 -23 6.5 -44.5t18.5 -37.5l115 -170h596v-188h-119q-41 -84 -78 -155t-74 -130l295 -428h-366zM426 197q12 0 30.5 3t42 15t54.5 35.5t68 64.5l-197 283q-47 -49 -77 -112.5t-30 -129.5q0 -31 6.5 -59.5 t18.5 -51t32.5 -35.5t51.5 -13zM715 713l90 -131q16 29 33.5 61.5t38.5 69.5h-162z" />
<glyph unicode="'" horiz-adv-x="382" d="M51 1528q43 18 80 29.5t66 11.5q35 0 70.5 -12.5t74.5 -30.5l-68 -617h-223v619z" />
<glyph unicode="(" horiz-adv-x="684" d="M528 -395q-217 250 -328.5 486.5t-111.5 465.5q0 221 107.5 462t336.5 511l82 -107q-123 -246 -178 -465t-55 -417q0 -223 62.5 -428t179.5 -412z" />
<glyph unicode=")" horiz-adv-x="714" d="M82 -299q115 207 178.5 411.5t63.5 428.5q0 199 -55.5 417t-182.5 465l86 107q229 -270 337.5 -511t108.5 -462q0 -229 -112.5 -465.5t-329.5 -486.5z" />
<glyph unicode="*" horiz-adv-x="845" d="M426 1018q-25 -41 -53.5 -91t-53.5 -91q-29 0 -57.5 3t-50.5 19q-16 12 -30.5 41t-26.5 62l143 153l-217 47q-4 23 -7 44.5t-3 27.5q0 8 1 16t5 21q10 27 30.5 49t43.5 39l194 -88l-22 221q25 14 52 25.5t54 11.5t53.5 -11.5t55.5 -27.5l-23 -215l193 84q53 -37 69 -80 q12 -29 12 -43q-4 -4 -7 -23.5t-5 -35.5q0 -8 -2 -15l-215 -47l139 -156q-8 -27 -20 -54t-25 -40q-29 -18 -59.5 -23t-58.5 -5z" />
<glyph unicode="+" horiz-adv-x="1226" d="M494 756v383h204v-383h437v-193h-437v-440h-204v440h-437v193h437z" />
<glyph unicode="," horiz-adv-x="458" d="M391 147q0 -82 -31.5 -146t-71.5 -111.5t-77 -76t-49 -34.5l-56 67q25 25 52.5 67t40.5 81q-18 8 -42 27.5t-43.5 42t-32.5 44t-13 35.5q0 23 19 52.5t42 52.5q20 20 49 40.5t51 20.5q18 0 46 -17.5t53.5 -43t44 -53.5t18.5 -48z" />
<glyph unicode="-" horiz-adv-x="774" d="M702 700v-202h-663v202h663z" />
<glyph unicode="." horiz-adv-x="458" d="M391 147q0 -20 -18.5 -47.5t-42.5 -52.5q-25 -25 -51.5 -43t-49.5 -18q-20 0 -47.5 18.5t-52.5 42.5q-25 25 -43 52.5t-18 47.5t18 48t43 53t51.5 43t48.5 18q16 0 46 -18.5t55 -42.5q25 -25 43 -53t18 -48z" />
<glyph unicode="/" horiz-adv-x="796" d="M281 -86h-244l473 1569h242z" />
<glyph unicode="0" horiz-adv-x="1257" d="M66 653q0 129 31.5 262.5t100 243t177 179t264.5 69.5q133 0 234.5 -55.5t169 -148.5t101.5 -218t34 -264q0 -127 -34 -258t-104.5 -236.5t-181 -173t-262.5 -67.5q-133 0 -231.5 53t-164 145t-99 213t-35.5 256zM393 692q0 -96 12.5 -194.5t40 -176t72.5 -127t111 -49.5 t108.5 49.5t68 127t36 176t10.5 194.5q0 94 -10.5 194.5t-36 183.5t-69.5 135t-113 52q-68 0 -112 -52t-70.5 -135t-37 -183.5t-10.5 -194.5z" />
<glyph unicode="1" horiz-adv-x="808" d="M596 1368v-1223q35 -8 73 -19t79 -28v-98h-625v96q88 39 156 51v1002l-222 -59v127l416 217z" />
<glyph unicode="2" horiz-adv-x="1032" d="M106 0l-59 156q45 37 103.5 94t121 130t122 153.5t107.5 165.5t76.5 167t28.5 156q0 41 -4 84t-19.5 77t-43 55.5t-72.5 21.5q-53 0 -77.5 -37t-43 -80t-43 -80t-78.5 -37q-25 0 -52.5 11.5t-66.5 33.5v225q94 51 192.5 81t197.5 30q203 0 313.5 -85t110.5 -271 q0 -94 -49.5 -204t-125 -219.5t-168 -212t-178.5 -182.5h320q14 49 36.5 92.5t45.5 71.5h149v-397h-844z" />
<glyph unicode="3" horiz-adv-x="1036" d="M289 748q55 23 110.5 49t99.5 64t72.5 88t28.5 120q0 74 -34 132.5t-99 58.5q-35 0 -56.5 -17.5t-37 -43t-26.5 -56.5t-26.5 -56.5t-38 -43t-57.5 -17.5q-25 0 -52.5 11.5t-63.5 33.5v225q94 51 191 81t196 30q102 0 179 -27.5t127 -72.5t74.5 -103.5t24.5 -120.5 q0 -88 -47 -172t-139 -143q137 -45 201.5 -141.5t64.5 -206.5q0 -80 -34 -158t-97.5 -139.5t-156.5 -99t-210 -37.5q-127 0 -236.5 50t-201.5 142l154 174q49 -100 117.5 -146t134.5 -46q92 0 148 65.5t56 186.5q0 43 -9 83t-28.5 73.5t-51 55t-77.5 27.5l-157 -61z" />
<glyph unicode="4" horiz-adv-x="972" d="M657 1446l148 -78v-737h119l-43 -146h-76v-485h-313v471l-451 -18l-39 143zM492 631v250l8 84l-246 -334h238z" />
<glyph unicode="5" horiz-adv-x="1009" d="M125 793l72 600h704v-228h-481q-10 -39 -18.5 -68.5t-16.5 -58t-17.5 -60.5t-19.5 -75q49 6 90 6q135 0 233.5 -36.5t162 -98t94 -139.5t30.5 -160q0 -88 -33.5 -176t-98 -157.5t-158 -112.5t-209.5 -43q-127 0 -236.5 50t-202.5 142l154 174q53 -100 118.5 -146 t131.5 -46q96 0 155.5 73.5t59.5 200.5q0 74 -21.5 130.5t-58.5 95t-87 59t-107 20.5q-94 0 -189 -49z" />
<glyph unicode="6" horiz-adv-x="1048" d="M424 860q100 31 172 31q86 0 158.5 -26.5t127 -80t85 -133.5t30.5 -186q0 -100 -33.5 -188.5t-96 -153t-153.5 -101t-204 -36.5q-121 0 -211 51t-149.5 136t-89 196.5t-29.5 232.5q0 143 40 286.5t118.5 258.5t195.5 187.5t268 72.5q49 0 101.5 -10.5t124.5 -32.5 l-56 -133q-55 16 -89 22.5t-52 6.5q-96 0 -161.5 -70t-105.5 -176.5t-56.5 -233.5t-16.5 -239q0 -98 15.5 -172t40 -122t56 -72.5t64.5 -24.5q31 0 60.5 13t53 46t38 87t14.5 136q0 141 -37 219t-115 78q-47 0 -108 -31v162z" />
<glyph unicode="7" horiz-adv-x="917" d="M881 1303l-488 -1303h-315l526 1149h-561v244h784z" />
<glyph unicode="8" horiz-adv-x="999" d="M371 545q-59 -88 -60 -170q0 -57 16.5 -100.5t44 -72t61.5 -43t69 -14.5q72 0 109.5 45.5t37.5 108.5q0 59 -29.5 119.5t-109.5 113.5l-209 142q-109 72 -162 160t-53 182q0 74 27.5 144.5t81 125.5t129 88t174.5 33q86 0 155.5 -27.5t119.5 -75t78 -107.5t28 -124 q0 -96 -50.5 -185t-144.5 -151l29 -20q119 -86 178 -173t59 -186q0 -74 -29.5 -141t-89 -118.5t-146.5 -82t-202 -30.5t-199.5 29.5t-141 80.5t-84 115.5t-27.5 136.5t44 152t130 162zM367 1071q0 -39 5 -78t19 -49l152 -104q33 41 56.5 97t23.5 120q0 104 -42 153.5 t-92 49.5q-31 0 -54 -16.5t-38.5 -43t-22.5 -60.5t-7 -69z" />
<glyph unicode="9" horiz-adv-x="1058" d="M604 532q-102 -31 -172 -30q-86 0 -158.5 26.5t-127 80t-85 133t-30.5 186.5q0 100 33.5 188t96 152.5t152.5 101.5t205 37q121 0 211 -51t149.5 -136t89 -197t29.5 -232q0 -143 -39.5 -287t-118.5 -259.5t-196 -187t-268 -71.5q-49 0 -101.5 10t-123.5 33l55 133 q55 -16 89 -22.5t52 -6.5q96 0 161.5 69.5t105.5 176t56.5 232.5t16.5 241q0 98 -15.5 172t-40 122t-56 72.5t-64.5 24.5q-31 0 -60.5 -13t-53 -46t-38 -87.5t-14.5 -135.5q0 -141 37 -219t115 -78q47 0 108 30v-162z" />
<glyph unicode=":" horiz-adv-x="458" d="M391 147q0 -20 -18.5 -47.5t-42.5 -52.5q-25 -25 -51.5 -43t-49.5 -18q-20 0 -47.5 18.5t-52.5 42.5q-25 25 -43 52.5t-18 47.5t18 48t43 53t51.5 43t48.5 18q16 0 46 -18.5t55 -42.5q25 -25 43 -53t18 -48zM391 862q0 -20 -18.5 -48t-42.5 -52q-25 -25 -51.5 -43.5 t-49.5 -18.5q-20 0 -47.5 18.5t-52.5 43.5t-43 52.5t-18 47.5t18 48t43 53t51.5 43t48.5 18q16 0 46 -18.5t55 -42.5q25 -25 43 -53t18 -48z" />
<glyph unicode=";" horiz-adv-x="458" d="M391 147q0 -82 -31.5 -146t-71.5 -111.5t-77 -76t-49 -34.5l-56 67q25 25 52.5 67t40.5 81q-18 8 -42 27.5t-43.5 42t-32.5 44t-13 35.5q0 23 19 52.5t42 52.5q20 20 49 40.5t51 20.5q18 0 46 -17.5t53.5 -43t44 -53.5t18.5 -48zM391 862q0 -20 -18.5 -48t-42.5 -52 q-25 -25 -51.5 -43.5t-49.5 -18.5q-20 0 -47.5 18.5t-52.5 43.5t-43 52.5t-18 47.5t18 48t43 53t51.5 43t48.5 18q16 0 46 -18.5t55 -42.5q25 -25 43 -53t18 -48z" />
<glyph unicode="&#x3c;" horiz-adv-x="1247" d="M61 618l973 420l84 -184l-704 -297l704 -297l-84 -184l-973 420v122z" />
<glyph unicode="=" horiz-adv-x="1175" d="M1083 846v-193h-1026v193h1026zM1083 561v-192h-1026v192h1026z" />
<glyph unicode="&#x3e;" horiz-adv-x="1247" d="M1145 500l-1000 -461l-84 184l732 338l-732 338l84 184l1000 -460v-123z" />
<glyph unicode="?" horiz-adv-x="802" d="M272 408q-47 47 -68.5 87t-21.5 78q0 41 39 118t90 169q27 49 55.5 101.5t50 99.5t36 90t14.5 74q0 29 -16 28q-25 0 -64 -12t-85 -32.5t-97 -46t-101 -52.5l-63 223q74 31 166 53.5t176 22.5q66 0 133.5 -12.5t122.5 -42t91 -76.5t36 -117q0 -43 -18.5 -87t-49 -90 t-69.5 -91t-78 -88q-55 -59 -97 -116.5t-44 -104.5l73 -101zM530 147q0 -20 -18 -47.5t-43 -52.5t-51.5 -43t-48.5 -18q-20 0 -48 18.5t-53 42.5q-25 25 -43 52.5t-18 47.5t18.5 48t42.5 53q25 25 51.5 43t49.5 18q16 0 45.5 -18.5t54.5 -42.5q25 -25 43 -53t18 -48z" />
<glyph unicode="@" horiz-adv-x="1624" d="M1393 -37q-152 -119 -328 -184.5t-344 -65.5q-137 0 -261 48.5t-218.5 135.5t-149.5 209.5t-55 272.5q0 182 67.5 337.5t187.5 270.5t280.5 180.5t349.5 65.5q141 0 271 -50t216 -147q66 -72 99.5 -171t33.5 -210q0 -109 -40 -212t-111.5 -185t-172 -131t-221.5 -49 q-70 0 -112.5 22.5t-71.5 73.5q-68 -41 -144.5 -68.5t-127.5 -27.5q-49 0 -82 20.5t-52.5 53t-27.5 74.5t-8 85q0 98 43 215t119.5 216.5t183 166t231.5 66.5q98 0 230 -60l-134 -645q-2 -10 -2 -24q0 -31 29 -31q61 0 110.5 40t84 103.5t54 138t19.5 146.5 q0 100 -26.5 187.5t-80.5 150.5t-136 99t-193 36q-137 0 -256 -64.5t-206 -168t-137 -234.5t-50 -264q0 -104 32.5 -197.5t98.5 -162t167 -109.5t236 -41q115 0 250.5 45t278.5 133zM936 854q-78 0 -142.5 -62.5t-111.5 -150.5t-73.5 -180t-26.5 -152q0 -39 19.5 -53 t49.5 -14q43 0 94.5 25.5t75.5 54.5z" />
<glyph unicode="A" horiz-adv-x="1445" d="M856 395h-342l-78 -256q25 -8 53.5 -17t61.5 -24v-98h-518v96q43 18 84 32.5t71 23.5l435 1241h208l443 -1252q33 -8 66.5 -17t66.5 -24v-100h-557v94q29 16 55.5 25.5t38.5 13.5zM561 553h242l-125 379z" />
<glyph unicode="B" horiz-adv-x="1212" d="M72 0v100q37 14 67.5 23.5t53.5 15.5v1114q-27 8 -57 17.5t-64 25.5v97h551q223 0 346 -90.5t123 -255.5q0 -90 -43 -157t-129 -120q135 -43 206.5 -131t71.5 -223q0 -92 -41 -168t-115.5 -131.5t-179 -86t-229.5 -30.5h-561zM510 162h12q172 0 267.5 55t95.5 195 q0 76 -24.5 126t-64.5 77.5t-91.5 39t-104.5 11.5h-90v-504zM510 1235v-418h12q86 0 138.5 21.5t80 54.5t36.5 73t9 76q0 59 -21.5 96.5t-56 59t-77.5 29.5t-88 8h-33z" />
<glyph unicode="C" horiz-adv-x="1187" d="M1114 1061q-35 -39 -71.5 -48t-57.5 -9q-41 0 -66.5 18t-42 45t-29.5 59.5t-30.5 59t-43 45t-66.5 18.5q-80 0 -144.5 -36.5t-110.5 -104.5t-72 -164t-26 -215q0 -111 23.5 -209t67.5 -172t110 -117t152 -43q61 0 156 38t224 122l54 -129q-109 -123 -234 -178t-248 -55 q-152 0 -267.5 58t-193 153.5t-117.5 218.5t-40 252q0 143 42 276t127 236.5t214 165t305 61.5q68 0 123 -13.5t115 -33.5l147 31v-330v0z" />
<glyph unicode="D" horiz-adv-x="1331" d="M72 0v100q37 14 67.5 23.5t53.5 15.5v1114q-27 8 -57 17.5t-64 25.5v97h522q184 0 318.5 -55.5t223.5 -147.5t132 -212t43 -247q0 -133 -52.5 -264t-150.5 -234.5t-238.5 -168t-314.5 -64.5h-483zM997 721q0 98 -27.5 190.5t-87 164t-151.5 114.5t-221 45v-1073h16 q106 0 193.5 44t149 118.5t95 177t33.5 219.5z" />
<glyph unicode="E" horiz-adv-x="1136" d="M72 100q37 14 67.5 23.5t53.5 15.5v1114q-27 8 -57 17.5t-64 25.5v97h954v-402h-149q-29 35 -61 100.5t-46 143.5h-260v-467h209q8 37 22.5 79t30.5 85h166v-461h-164q-35 82 -51 143h-213v-452h311q14 74 45 135t58 96h147v-393h-999v100z" />
<glyph unicode="F" horiz-adv-x="1091" d="M774 471q-35 82 -51 143h-213v-471q37 -8 76 -18t78 -27v-98h-592v100q37 14 67.5 23.5t53.5 15.5v1114q-27 8 -57 17.5t-64 25.5v97h954v-402h-149q-29 35 -61 100.5t-46 143.5h-260v-467h209q8 37 22.5 79t30.5 85h166v-461h-164z" />
<glyph unicode="G" horiz-adv-x="1234" d="M1114 1061q-35 -39 -71.5 -48t-57.5 -9q-41 0 -66.5 18t-42 45t-29.5 59.5t-30.5 59t-43 45t-66.5 18.5q-80 0 -145.5 -37.5t-112 -105.5t-71 -164t-24.5 -213q0 -98 20.5 -194.5t64.5 -174t115 -126t171 -48.5q25 0 58.5 5.5t76.5 19.5v283q-35 8 -73.5 20t-79.5 29v98 h464v-428q-53 -55 -116.5 -97t-131 -72t-135 -44t-129.5 -14q-152 0 -267.5 58t-193 153.5t-117.5 218.5t-40 252q0 143 42 276t127 236.5t214 165t305 61.5q68 0 123 -13.5t115 -33.5l147 31v-330v0z" />
<glyph unicode="H" horiz-adv-x="1456" d="M629 0h-557v100q35 14 65.5 23.5t52.5 15.5v1114q-27 8 -56.5 17.5t-61.5 25.5v97h557v-97q-35 -16 -69 -27.5t-52 -15.5v-479h440v479q-27 8 -56.5 17.5t-64.5 25.5v97h557v-97q-35 -16 -67.5 -27.5t-52.5 -15.5v-1116q29 -8 57.5 -17t62.5 -22v-98h-557v100 q70 27 121 39v479h-440v-481q29 -8 57.5 -17t63.5 -22v-98z" />
<glyph unicode="I" horiz-adv-x="700" d="M629 0h-557v100q35 14 65.5 23.5t52.5 15.5v1114q-27 8 -56.5 17.5t-61.5 25.5v97h557v-97q-35 -16 -69 -27.5t-52 -15.5v-1116q29 -8 57.5 -17t63.5 -22v-98z" />
<glyph unicode="J" horiz-adv-x="651" d="M606 1296q-35 -16 -67.5 -27.5t-53.5 -15.5v-1181q0 -111 -54 -203t-132 -166t-164 -126t-151 -83l-62 148l164 165q35 35 58.5 79t23.5 110v1257q-27 8 -55.5 17.5t-63.5 25.5v97h557v-97z" />
<glyph unicode="K" horiz-adv-x="1402" d="M1307 1294q-35 -14 -68 -25.5t-65 -19.5l-379 -510q29 -16 62.5 -42.5t60.5 -63.5l354 -496q31 -8 63.5 -18t61.5 -21v-98h-391l-428 608h-68v-473q31 -8 60.5 -17t58.5 -20v-98h-557v98q29 10 59.5 19.5t61.5 17.5v1120q-31 8 -62 17.5t-59 21.5v99h557v-99 q-29 -12 -58.5 -21t-60.5 -18v-499l57 8l330 491q-27 8 -54.5 17.5t-54.5 21.5v99h519v-99z" />
<glyph unicode="L" horiz-adv-x="1136" d="M72 100q37 14 67.5 23.5t53.5 15.5v1114q-27 8 -57 17.5t-64 25.5v97h592v-99q-39 -18 -79 -30.5t-75 -18.5v-1083h311q14 74 45 136t58 97h147v-395h-999v100z" />
<glyph unicode="M" d="M543 0h-518v98q37 16 72.5 28.5t64.5 20.5l117 1108q-25 8 -52.5 17.5t-58.5 23.5v97h414l286 -803l291 803h418v-97q-33 -14 -64.5 -25t-48.5 -16l88 -1116q66 -16 125 -39v-100h-557v98q35 12 63.5 22.5t47.5 14.5l-35 549v131l-283 -790h-182l-274 784v-135l-51 -529 q31 -8 66.5 -19t70.5 -28v-98z" />
<glyph unicode="N" horiz-adv-x="1411" d="M1346 1296q-47 -20 -80 -31.5t-60 -17.5v-1190l-211 -71l-542 866v-707q31 -8 67.5 -19t71.5 -28v-98h-518v98q41 18 75.5 29.5t63.5 17.5v1100q-33 10 -68.5 22.5t-72.5 28.5v97h415l480 -770v624q-31 8 -65 19.5t-75 29.5v97h519v-97z" />
<glyph unicode="O" horiz-adv-x="1370" d="M51 653q0 137 41 271.5t122 242t203 174t283 66.5q141 0 256 -52t195 -144.5t124 -217.5t44 -272q0 -135 -43 -266t-127 -235.5t-207 -169t-283 -64.5q-139 0 -250.5 51t-190.5 140t-122 211t-45 265zM385 692q0 -104 18.5 -202.5t57.5 -173t96 -120.5t135 -46t133.5 46 t91 121.5t53 174t17.5 200.5q0 100 -16.5 200.5t-52 179.5t-93 128t-139.5 49q-80 0 -137 -49t-93 -128t-53.5 -179.5t-17.5 -200.5z" />
<glyph unicode="P" horiz-adv-x="1169" d="M561 676q59 2 109.5 22.5t87.5 58.5t57.5 95t20.5 137q0 111 -76 178.5t-250 67.5v-1092q37 -8 76 -18t78 -27v-98h-592v100q37 14 67.5 23.5t53.5 15.5v1114q-27 8 -57 17.5t-64 25.5v97h522q125 0 227.5 -29t175 -81t112.5 -128t40 -170q0 -86 -37 -168t-105.5 -144.5 t-169 -101.5t-225.5 -39h-51v144z" />
<glyph unicode="Q" horiz-adv-x="1388" d="M1040 98q51 -49 105.5 -94t110 -80t107.5 -56.5t101 -21.5l15 -108q-139 -37 -232 -37q-70 0 -142.5 20.5t-125.5 75.5q-57 57 -99 107.5t-75 95.5q-35 -6 -71 -10t-75 -4q-139 0 -251.5 51t-191.5 140t-122 211t-43 265q0 137 41 271.5t122 242t203 174t283 66.5 q141 0 256 -52t195 -144.5t124 -217.5t44 -272q0 -88 -18.5 -175t-55.5 -167t-90 -150.5t-123 -122.5q2 -6 8 -8zM385 692q0 -141 31 -260q45 20 85 28.5t74 8.5q49 0 92.5 -16.5t81 -44t71.5 -64.5t69 -76q51 78 74.5 189.5t23.5 234.5q0 100 -16.5 200.5t-52 179.5 t-93 128t-139.5 49q-80 0 -137 -49t-93 -128t-53.5 -179.5t-17.5 -200.5zM713 150q-23 41 -39.5 72.5t-33.5 53t-36.5 32.5t-48.5 11q-18 0 -38.5 -4t-49.5 -12q39 -72 94 -112.5t131 -40.5h21z" />
<glyph unicode="R" horiz-adv-x="1366" d="M629 0h-557v100q37 14 67.5 23.5t53.5 15.5v1114q-27 8 -57 17.5t-64 25.5v97h522q125 0 227.5 -25t175 -74t112.5 -121.5t40 -168.5q0 -113 -62.5 -210.5t-179.5 -158.5q27 -25 43 -49l281 -447q29 -8 61.5 -18t63.5 -21v-100h-400l-352 569h-94v-432q27 -8 55.5 -17 t63.5 -22v-98zM836 1008q0 111 -76 169t-250 58v-522h31q63 0 117.5 15t94.5 50t61.5 91.5t21.5 138.5z" />
<glyph unicode="S" horiz-adv-x="1024" d="M315 307q12 -31 26.5 -59.5t35 -50t49.5 -34.5t70 -13q51 0 89 16t61.5 44t34.5 62.5t11 71.5q0 51 -26.5 98t-85.5 76l-301 146q-59 27 -100.5 66.5t-68 85.5t-39 94t-12.5 94q0 82 34 155.5t94.5 128.5t143.5 87t181 32q59 0 119.5 -11.5t122.5 -35.5q16 4 37.5 8t43 9 t39 8.5t25.5 5.5v-347q-35 -20 -70.5 -30t-56.5 -10q-61 0 -91 38.5t-52.5 85t-50 85t-84.5 38.5q-39 0 -67 -18.5t-46.5 -48t-26.5 -65.5t-8 -70q0 -41 21.5 -79t74.5 -65l293 -143q82 -41 130 -85t75 -89t35 -90t8 -86q0 -94 -41 -173t-109.5 -135.5t-160.5 -87 t-195 -30.5q-135 0 -270 53l-154 -49v377q37 23 80 32t60 9q61 0 84.5 -30t37.5 -71z" />
<glyph unicode="T" horiz-adv-x="1288" d="M1223 1393v-422h-148q-31 35 -62.5 107.5t-41.5 156.5h-168v-1098q29 -8 57.5 -17t63.5 -22v-98h-557v100q35 14 65.5 23.5t52.5 15.5v1096h-168q-16 -78 -45.5 -153.5t-56.5 -110.5h-149v422h1157z" />
<glyph unicode="U" horiz-adv-x="1323" d="M1305 1296q-47 -20 -80 -31.5t-60 -17.5v-743q0 -147 -43 -247.5t-115.5 -160t-167 -85t-194.5 -25.5q-94 0 -184 28.5t-162 85t-116 138t-44 188.5v827q-27 8 -56.5 17.5t-64.5 25.5v97h557v-97q-35 -16 -67.5 -27.5t-50.5 -15.5v-770q0 -72 23.5 -129t60.5 -97 t84 -61.5t94 -21.5q39 0 77 16.5t66.5 51t46 86t17.5 123.5v796q-31 8 -65 19.5t-75 29.5v97h519v-97z" />
<glyph unicode="V" horiz-adv-x="1431" d="M1411 1298q-90 -43 -149 -55l-439 -1243h-172l-479 1249q-35 8 -68.5 18.5t-72.5 28.5v97h596v-99q-31 -12 -60.5 -22t-48.5 -15l252 -714l240 710q-27 8 -56.5 17.5t-60.5 25.5v97h518v-95z" />
<glyph unicode="W" horiz-adv-x="2021" d="M2007 1294q-43 -18 -82 -30.5t-65 -18.5l-398 -1245h-174l-270 748l-242 -748h-174l-450 1251q-29 8 -66 18.5t-72 26.5v97h596v-99l-114 -39l227 -684l164 543l-49 137q-31 8 -67 18.5t-71 26.5v97h596v-99l-114 -39l225 -684l207 678q-29 8 -60.5 19.5t-64.5 25.5v99 h518v-99z" />
<glyph unicode="X" horiz-adv-x="1380" d="M1352 0h-578v98q20 8 42 15.5t44 13.5l-215 352l-203 -346q27 -6 52.5 -15t52.5 -20v-98h-518v98q35 14 67.5 24.5t67.5 20.5l348 557l-328 551q-39 8 -75.5 18.5t-67.5 24.5v99h596v-99q-23 -10 -48.5 -17t-53.5 -15l174 -306l172 304q-47 12 -97 34v99h519v-99 q-41 -16 -81 -28.5t-81 -22.5l-305 -500l370 -604q80 -16 146 -41v-98z" />
<glyph unicode="Y" horiz-adv-x="1372" d="M989 0h-557v100q37 14 67.5 23.5t53.5 15.5v371l-379 735q-35 8 -75 20.5t-81 30.5v97h596v-99q-47 -20 -62 -25t-34 -9l232 -467l204 460q-25 8 -54.5 18.5t-57.5 24.5v97h518v-99q-45 -18 -86 -33.5t-78 -21.5l-326 -682v-420q27 -8 55.5 -17t63.5 -22v-98z" />
<glyph unicode="Z" horiz-adv-x="1136" d="M1038 1393l23 -109l-645 -1114h401q12 78 43 146.5t60 103.5h149v-420h-997v168l618 1067h-330q-12 -84 -43.5 -146.5t-60.5 -97.5h-150v402h932z" />
<glyph unicode="[" horiz-adv-x="626" d="M561 -440h-448v1908h448v-131h-180v-1646h180v-131z" />
<glyph unicode="\" horiz-adv-x="800" d="M33 1483h243l472 -1569h-244z" />
<glyph unicode="]" horiz-adv-x="626" d="M66 -309h180v1646h-180v131h448v-1908h-448v131z" />
<glyph unicode="^" horiz-adv-x="917" d="M547 1454l305 -659h-246l-155 356l-154 -356h-246l305 659h191z" />
<glyph unicode="_" horiz-adv-x="925" d="M51 -39h823v-168h-823v168z" />
<glyph unicode="`" horiz-adv-x="583" d="M389 1034q-113 88 -200 178.5t-156 178.5q25 55 79 90t152 63q12 -35 36 -83t56.5 -101t76.5 -109.5t97 -109.5z" />
<glyph unicode="a" horiz-adv-x="1062" d="M1026 98l-242 -112q-53 0 -101 29.5t-83 74.5q-68 -53 -143.5 -78.5t-139.5 -25.5q-57 0 -108 22.5t-90 60t-61.5 86t-22.5 101.5q0 106 49 175t126 112t170 65.5t181 34.5v152q0 63 -30.5 85.5t-63.5 22.5q-41 0 -69.5 -23.5t-55.5 -52t-56.5 -52t-72.5 -23.5 q-37 0 -66.5 19.5t-48.5 35.5v178q20 6 61.5 15.5t92.5 17.5t105.5 14t101.5 6q86 0 160.5 -19.5t130 -59t86 -99t30.5 -137.5v-539h125zM561 508q-43 -10 -88 -27.5t-81 -44t-59.5 -63.5t-23.5 -84q0 -57 33 -87t66 -30q37 0 79.5 19.5t73.5 56.5v260z" />
<glyph unicode="b" horiz-adv-x="1099" d="M459 1010q86 27 149 26q92 0 171 -35.5t138.5 -102.5t93 -162t33.5 -212q0 -121 -44 -219t-117.5 -168.5t-170 -109.5t-200.5 -39t-210.5 29.5t-211.5 101.5v1210h-78l-43 111l424 96v-1374q14 -8 35 -17q39 -14 86 -14q55 0 97 35t70 91t42 127t14 144q0 66 -11 127.5 t-35.5 108.5t-60.5 75.5t-85 28.5q-41 0 -86 -14v156z" />
<glyph unicode="c" horiz-adv-x="983" d="M928 164q-88 -92 -188.5 -135t-198.5 -43q-127 0 -221.5 43t-158 113.5t-95 161.5t-31.5 188q0 106 34.5 204.5t104.5 174t175.5 121.5t244.5 46q61 0 141 -14t172 -39v-176q-18 -23 -55 -41t-64 -18q-43 0 -70.5 21.5t-50 46t-47 46t-61.5 21.5q-104 0 -162.5 -80 t-58.5 -266q0 -182 73.5 -274.5t190.5 -92.5q125 0 270 104z" />
<glyph unicode="d" horiz-adv-x="1175" d="M985 184h125l35 -86l-242 -112q-47 0 -90 22.5t-76 59.5q-68 -43 -134 -61.5t-136 -18.5q-92 0 -171 35.5t-138.5 102.5t-93 162t-33.5 212q0 121 44 219t118.5 168.5t171 109.5t200.5 39q29 0 58.5 -2t58.5 -10v305h-113v113l416 94v-1352zM528 156q47 0 84 18.5 t70 42.5v625q-14 14 -45 32.5t-76 18.5q-59 0 -101 -33t-70 -86t-40 -120.5t-12 -139.5t8 -136.5t29.5 -113.5t58.5 -78.5t94 -29.5z" />
<glyph unicode="e" horiz-adv-x="997" d="M35 477q0 98 29.5 198.5t90 180.5t152.5 131t219 51q117 0 195 -44t125 -111.5t66.5 -150.5t19.5 -161h-594v-32q2 -182 75.5 -274.5t190.5 -92.5q127 0 273 107l51 -115q-88 -92 -188.5 -135t-198.5 -43q-94 0 -184.5 31.5t-162 93t-115.5 153.5t-44 213zM666 713 q0 96 -38 139t-87 43q-57 0 -111.5 -48t-77.5 -134h314z" />
<glyph unicode="f" horiz-adv-x="780" d="M461 127q39 -8 75.5 -17.5t69.5 -23.5v-86h-567v86q29 12 58.5 21.5t60.5 17.5v756h-88l-33 110l121 19v43q0 109 27.5 197.5t77.5 152t121 98.5t159 35q47 0 111.5 -12.5t136.5 -40.5v-148q-18 -23 -49 -41t-64 -18q-35 0 -57.5 17.5t-40 39t-33 40t-35.5 18.5 t-35.5 -16.5t-15.5 -33.5v-317h244v-143h-244v-754z" />
<glyph unicode="g" horiz-adv-x="1103" d="M59 612q0 80 31 156t89.5 136.5t142.5 96t188 35.5q70 0 132.5 -16t115.5 -45q61 29 143 45t154 20l-13 -202h-149q20 -39 31.5 -82t11.5 -94q0 -78 -33 -153t-93 -133.5t-144 -93t-187 -34.5q-41 0 -77.5 5t-71.5 15l-56 -67q0 -35 37 -35h361q111 0 182.5 -34 t113.5 -82t58 -102t16 -98q0 -109 -44 -188.5t-122.5 -131.5t-185 -77.5t-229.5 -25.5q-94 0 -181 23.5t-154 66.5t-106.5 106.5t-39.5 143.5q0 72 46 124t109 91q-55 35 -86 92t-31 131l160 143q-53 47 -85 112.5t-34 151.5zM408 -66q-35 0 -58.5 -16t-39 -40.5 t-22.5 -52.5t-7 -48q0 -104 61 -154.5t162 -50.5q55 0 104 16.5t85 44t57.5 65.5t21.5 81q0 27 -7 55.5t-22.5 50t-43 35.5t-66.5 14h-225zM365 641q0 -51 9 -97t26.5 -82t43 -57.5t56.5 -21.5t55.5 21.5t41.5 57.5t26.5 82t9.5 97t-9.5 98t-26.5 84t-42 58.5t-55 21.5 q-31 0 -56.5 -21.5t-43 -58.5t-26.5 -84t-9 -98z" />
<glyph unicode="h" horiz-adv-x="1265" d="M469 125q29 -8 59.5 -17.5t59.5 -21.5v-86h-541v86q29 12 58.5 21.5t60.5 17.5v1204h-113v113l416 94v-618q59 45 145 82.5t170 37.5q57 0 110.5 -14t94.5 -46t65.5 -82t24.5 -120v-649q39 -8 76 -17.5t70 -23.5v-86h-568v86q29 12 58.5 21.5t60.5 17.5v590 q0 80 -27.5 110.5t-68.5 30.5q-25 0 -53.5 -8t-56 -22.5t-54.5 -31t-47 -30.5v-639z" />
<glyph unicode="i" horiz-adv-x="651" d="M465 127q39 -8 76 -17.5t69 -23.5v-86h-567v86q29 12 58.5 21.5t60.5 17.5v725h-113v113l416 94v-930zM498 1319q0 -25 -20.5 -56.5t-50.5 -61.5t-62.5 -50.5t-57.5 -20.5t-56.5 20.5t-61 50.5t-50 61.5t-20.5 56.5t20.5 57.5t49 62t61.5 50t57 20.5q25 0 57.5 -20.5 t62.5 -50t50.5 -62t20.5 -57.5z" />
<glyph unicode="j" horiz-adv-x="540" d="M414 6q0 -98 -41 -185t-105.5 -160t-141.5 -130t-146 -94l-58 129l152 182q27 31 32 66.5t5 89.5v946h-113v113l416 94v-1051zM449 1319q0 -25 -20.5 -56.5t-50.5 -61.5t-62.5 -50.5t-57.5 -20.5t-56.5 20.5t-61 50.5t-50 61.5t-20.5 56.5t20.5 57.5t49 62t61 50 t57.5 20.5t57.5 -20.5t62.5 -50t50.5 -62t20.5 -57.5z" />
<glyph unicode="k" horiz-adv-x="1157" d="M993 821l-184 -76l-152 -194q31 -14 64 -35.5t55 -50.5l373 -465h-330l-332 436h-18v-311q29 -8 59.5 -17.5t59.5 -21.5v-86h-541v86q29 12 58.5 21.5t60.5 17.5v1204h-113v113l416 94v-963l33 5q29 39 63.5 99t79.5 126t75 109.5t64.5 71.5t87 40t144.5 14z" />
<glyph unicode="l" horiz-adv-x="659" d="M47 86q29 12 59.5 21.5t59.5 17.5v1204h-113v113l416 94v-1407q39 -8 78 -18.5t71 -24.5v-86h-571v86z" />
<glyph unicode="m" horiz-adv-x="1880" d="M649 0v86q29 12 58.5 21.5t60.5 17.5v590q0 80 -26.5 111.5t-67.5 31.5q-47 0 -102.5 -29.5t-102.5 -64.5v-639q29 -8 59.5 -17.5t59.5 -21.5v-86h-541v86q29 12 58.5 21.5t60.5 17.5v725h-113v113l416 94v-139q59 45 141 82.5t166 37.5q86 0 158 -31.5t108 -103.5 q35 27 78 51.5t90 43t95.5 28.5t93.5 10q59 0 112.5 -14t94.5 -46t64.5 -81t23.5 -119v-649q39 -8 75.5 -17.5t69.5 -23.5v-86h-567v86q29 12 58.5 21.5t60.5 17.5v590q0 80 -30 111.5t-77 31.5q-51 0 -108.5 -28.5t-104.5 -67.5v-637q29 -8 59.5 -17.5t59.5 -21.5v-86h-541 z" />
<glyph unicode="n" horiz-adv-x="1265" d="M469 918q59 45 145 82.5t170 37.5q57 0 110.5 -14t94.5 -46t65.5 -82t24.5 -120v-649q39 -8 76 -17.5t70 -23.5v-86h-568v86q29 12 58.5 21.5t60.5 17.5v590q0 80 -27.5 110.5t-68.5 30.5q-25 0 -53.5 -8t-56 -22.5t-54.5 -31t-47 -30.5v-639q29 -8 59.5 -17.5 t59.5 -21.5v-86h-541v86q29 12 58.5 21.5t60.5 17.5v725h-113v113l416 94v-139z" />
<glyph unicode="o" horiz-adv-x="1099" d="M35 481q0 100 32.5 200.5t98 179.5t163 128t224.5 49q113 0 203 -38.5t154.5 -106.5t99 -161t34.5 -202q0 -98 -34.5 -196t-101 -175t-164 -125t-222.5 -48q-111 0 -200 37.5t-152.5 104.5t-98 157t-36.5 196zM543 895q-51 0 -89 -32t-63.5 -86t-39 -122.5t-13.5 -142.5 t12 -141.5t38 -118.5t65 -82t90 -31t90 31t64.5 83t38 118.5t12.5 140.5t-13.5 143.5t-39 122.5t-63.5 85t-89 32z" />
<glyph unicode="p" horiz-adv-x="1153" d="M446 -444q39 -8 76 -18.5t70 -24.5v-86h-567v86q29 12 58.5 22t59.5 16v1295h-112v115l415 92v-68q53 27 107.5 39t108.5 12q92 0 170.5 -35.5t138 -102.5t93.5 -162t34 -212q0 -121 -44 -219t-119 -168.5t-171 -109.5t-201 -39q-59 0 -117 12v-444zM600 868 q-47 0 -84 -18.5t-70 -42.5v-633q0 -2 29 -22.5t92 -20.5q59 0 101.5 33t70 86t40 120.5t12.5 139.5t-8.5 136.5t-30 113.5t-58.5 78.5t-94 29.5z" />
<glyph unicode="q" horiz-adv-x="1138" d="M541 -573v86q31 14 68.5 24t76.5 19v483q-109 -51 -215 -51q-92 0 -171 35.5t-138.5 102.5t-93 162t-33.5 212q0 121 44 219t117.5 168.5t170 109.5t200.5 39q55 0 112.5 -12t115.5 -41l55 53h139v-1485q29 -6 59.5 -16t59.5 -22v-86h-567zM532 156q45 0 82 18.5t72 42.5 v633q-2 4 -30.5 23.5t-92.5 19.5q-59 0 -100 -33t-68.5 -86t-40 -120.5t-12.5 -139.5t8 -136.5t29.5 -113.5t58.5 -78.5t94 -29.5z" />
<glyph unicode="r" horiz-adv-x="964" d="M913 811q-18 -23 -55 -41t-63 -18q-25 0 -39.5 16t-28.5 35.5t-31.5 36t-46.5 16.5t-54.5 -17.5t-49 -45t-43 -65.5t-33.5 -77v-524q39 -8 76 -17.5t69 -23.5v-86h-567v86q29 12 58.5 21.5t60.5 17.5v725h-113v113l416 94v-176q55 70 124 113.5t146 43.5q41 0 84 -13 t90 -46v-168z" />
<glyph unicode="s" horiz-adv-x="854" d="M606 573q43 -20 80 -43.5t65.5 -54.5t45 -70.5t16.5 -93.5q0 -86 -34 -147.5t-92 -101t-136 -58t-166 -18.5q-86 0 -172 26.5t-162 77.5v150q45 55 109 55q45 0 76.5 -25.5t61.5 -55.5t61.5 -55.5t76.5 -25.5q47 0 76 38t29 81q0 29 -14.5 54.5t-45.5 41.5l-243 119 q-86 41 -127 115.5t-41 142.5q0 57 23.5 113.5t68.5 101.5t107.5 71.5t142.5 26.5q59 0 145 -19.5t178 -57.5v-154q-53 -55 -110 -55q-39 0 -70 22.5t-57.5 48t-49 48t-47.5 22.5q-41 0 -61.5 -31t-20.5 -69q0 -31 12.5 -59.5t37.5 -43.5z" />
<glyph unicode="t" horiz-adv-x="727" d="M117 881h-82l-19 96l115 33l145 231h144v-217h231v-143h-231v-633q0 -35 19.5 -49.5t47.5 -14.5q41 0 90.5 17.5t81.5 34.5l48 -105q-33 -23 -81 -47.5t-101.5 -47t-111 -36.5t-108.5 -14q-80 0 -134 47t-54 168v680z" />
<glyph unicode="u" horiz-adv-x="1226" d="M944 -14q-57 0 -115.5 38.5t-87.5 96.5q-68 -53 -152.5 -94t-170.5 -41q-59 0 -112.5 15t-93.5 47t-64.5 81t-24.5 119v602h-113v113l416 94v-748q0 -78 25.5 -110.5t64.5 -32.5q47 0 105.5 42t101.5 101v541h-111v113l414 94v-873h125l35 -86l-242 -112v0z" />
<glyph unicode="v" horiz-adv-x="1089" d="M530 455l162 440q-31 8 -63.5 17.5t-65.5 25.5v86h500v-86q-35 -16 -67.5 -26.5t-63.5 -18.5l-354 -893h-164l-371 895q-70 16 -131 43v86h537v-86q-43 -20 -95 -33z" />
<glyph unicode="w" horiz-adv-x="1652" d="M1624 1024v-86q-35 -16 -67.5 -26.5t-63.5 -18.5l-352 -893h-166l-199 524l-209 -524h-168l-346 901q-57 12 -108 37v86h536v-86q-29 -12 -58.5 -21.5t-57.5 -17.5l161 -473l211 598h162l203 -598l162 465q-66 14 -140 47v86h500z" />
<glyph unicode="x" horiz-adv-x="1191" d="M20 0v86q39 16 74 27.5t68 19.5l280 365l-290 399q-31 8 -63 17.5t-60 23.5v86h536v-86q-39 -18 -84 -31l148 -202l127 198q-23 6 -46.5 15.5t-47.5 19.5v86h479v-86q-96 -41 -174 -55l-236 -318l320 -442q31 -8 61.5 -17.5t56.5 -19.5v-86h-536v86q43 18 86 31l-172 235 l-141 -231q23 -8 46 -16.5t48 -18.5v-86h-480z" />
<glyph unicode="y" horiz-adv-x="1128" d="M555 311l174 584q-31 8 -63.5 18.5t-65.5 24.5v86h500v-86q-39 -16 -76 -27.5t-72 -19.5l-381 -1110q-23 -68 -61.5 -128.5t-78.5 -108.5t-74.5 -78.5t-49.5 -38.5l-162 223q45 23 91.5 50.5t111.5 90.5l96 209h-61l-326 899q-31 6 -60.5 16.5t-57.5 22.5v86h536v-86 q-51 -25 -108 -37z" />
<glyph unicode="z" horiz-adv-x="946" d="M31 0v150l526 653h-287q-10 -23 -31.5 -54.5t-62.5 -72.5l-129 24l39 324h770l25 -90l-533 -711h281q16 39 48 86t73 90l145 -22l-66 -377h-798z" />
<glyph unicode="{" horiz-adv-x="684" d="M643 -342q-70 0 -147.5 16.5t-142 51t-107.5 92t-43 137.5l26 399q0 41 -13 70t-34.5 48.5t-48.5 29.5t-51 16v103q51 12 98 48t49 113l-26 400q0 82 42 138t105.5 92t140 52.5t148.5 16.5v-97q-35 -4 -67.5 -17t-58.5 -30.5t-42 -36t-16 -30.5l26 -412q0 -61 -15 -107 t-40 -81t-53.5 -59.5t-55.5 -41.5q27 -16 56.5 -41.5t53.5 -61.5t39 -82t15 -105l-26 -408q0 -12 16 -30.5t42 -37t59.5 -32t70.5 -17.5v-96z" />
<glyph unicode="|" horiz-adv-x="417" d="M102 -512v1989h213v-1989h-213z" />
<glyph unicode="}" horiz-adv-x="684" d="M41 -246q37 4 69.5 17.5t59.5 32t43 37t16 30.5l-26 408q0 59 15 105t39 82t52.5 61.5t57.5 41.5q-27 16 -55.5 41t-53.5 60t-40 81t-15 107l26 412q0 12 -16 30.5t-42 36t-58.5 30.5t-67.5 17v97q70 0 147.5 -16.5t141 -52.5t105.5 -92t42 -138l-26 -400 q2 -78 49 -113.5t98 -47.5v-103q-25 -6 -51.5 -16t-48 -29.5t-34.5 -48.5t-13 -70l26 -399q0 -80 -43 -137.5t-107.5 -92t-142 -51t-147.5 -16.5v96z" />
<glyph unicode="~" horiz-adv-x="1239" d="M408 721q57 0 110 -16.5t106.5 -36t108.5 -38t115 -24.5l260 82l63 -88q-31 -33 -66.5 -65.5t-77.5 -59t-90 -43t-103 -16.5q-59 0 -112.5 15t-108 34.5t-108.5 37t-112 23.5l-260 -77l-65 88q33 33 69.5 65.5t78.5 59t89.5 43t102.5 16.5z" />
<glyph unicode="&#xa3;" horiz-adv-x="1101" d="M152 668h157l29 176q12 78 51 138t95.5 100t127 60.5t146.5 20.5q115 0 260 -57l-66 -205q-27 18 -61.5 45t-70.5 49.5t-69.5 39t-54.5 16.5q-41 0 -67.5 -44t-42.5 -153l-21 -135q-4 -14 -5 -26.5t-3 -24.5h320v-127h-340q-20 -113 -43 -218.5t-54 -197.5l244 14 q55 4 116.5 36t119.5 73l47 -129q-18 -18 -43 -40t-61 -39t-84 -28.5t-113 -11.5h-621v68q37 16 75 26t73 19q25 84 48 191.5t46 236.5h-135v127z" />
<glyph unicode="&#xa9;" horiz-adv-x="1198" d="M795 707q-25 -23 -47 -23q-23 0 -37.5 17.5t-29.5 38t-33.5 38t-51.5 17.5q-92 0 -148.5 -72t-56.5 -195q0 -55 14.5 -105t41 -88t64.5 -59.5t85 -21.5q37 0 86 14.5t104 50.5l25 -53q-55 -57 -116.5 -84.5t-123.5 -27.5q-78 0 -135 28.5t-95 76.5t-57.5 110.5 t-19.5 130.5q0 72 20.5 139.5t63.5 119.5t107.5 82.5t152.5 30.5q31 0 61.5 -8t59.5 -18l66 14v-153zM51 518q0 111 42 208t114 169t169 114t208 42t208 -42t168.5 -114t113.5 -169t42 -208t-42 -208t-113.5 -168.5t-169 -113.5t-207.5 -42q-111 0 -208 42t-169 113.5 t-114 168.5t-42 208zM158 518q0 -88 33.5 -166t91 -135t135.5 -91t166 -34t165.5 34t135 91t91.5 135t34 166t-34 166t-91.5 135.5t-135 91t-165.5 33.5t-166 -33.5t-135.5 -91t-91 -135.5t-33.5 -166z" />
<glyph unicode="&#xab;" horiz-adv-x="974" d="M33 512l438 483l109 -65q-12 -35 -39 -87t-62 -110.5t-73.5 -117t-77.5 -105.5q37 -47 76.5 -106.5t73.5 -118t61.5 -109.5t40.5 -84l-109 -65zM410 512l372 418l99 -62q-12 -33 -35 -79t-52.5 -95t-63.5 -98t-66 -86q33 -41 66.5 -89t63 -97.5t53 -93.5t36.5 -72 l-103 -62z" />
<glyph unicode="&#xad;" horiz-adv-x="774" d="M702 700v-202h-663v202h663z" />
<glyph unicode="&#xae;" horiz-adv-x="1024" d="M55 1090q0 94 36 177t98.5 144.5t145.5 97t177 35.5t177 -35.5t144.5 -97t97.5 -144.5t36 -177t-36 -177.5t-97.5 -145.5t-144.5 -98t-177 -36t-177 36t-145.5 98t-98.5 145.5t-36 177.5zM164 1090q0 -72 27.5 -134.5t75.5 -109.5t110.5 -75t134.5 -28q70 0 133.5 28 t110.5 75t74.5 109.5t27.5 134.5q0 70 -27.5 133t-74.5 110t-110.5 75t-133.5 28q-72 0 -134.5 -28t-110.5 -75t-75.5 -110t-27.5 -133zM457 1049v-197h-103v438q-10 2 -20 5t-21 8v40h176q98 0 142.5 -41.5t44.5 -95.5q0 -41 -23.5 -77.5t-70.5 -59.5q8 -6 13 -13t13 -18 l56 -86q16 -29 35.5 -40t35.5 -15l-6 -49q-18 0 -38.5 1t-42 6t-41 16.5t-32.5 31.5l-92 146h-8h-18zM457 1106h18q53 0 78 26.5t25 65.5q0 88 -95 88h-26v-180z" />
<glyph unicode="&#xb4;" horiz-adv-x="649" d="M27 1307q121 92 218 199.5t183 224.5l188 -218q-109 -90 -236.5 -177t-275.5 -152z" />
<glyph unicode="&#xbb;" horiz-adv-x="999" d="M483 27l-110 65q14 35 40.5 86t60.5 108.5t73 116t80 107.5q-41 47 -80 105.5t-73 115.5t-59.5 109.5t-39.5 89.5l108 65l435 -483zM170 94l-98 60q12 31 35.5 74.5t52 93t62.5 98.5t69 90q-33 39 -67 89t-63.5 99.5t-52 93.5t-34.5 74l96 62l373 -416z" />
<glyph unicode="&#x401;" horiz-adv-x="1136" d="M516 1599q0 -20 -17.5 -46.5t-42 -51t-51 -41t-47.5 -16.5q-18 0 -44.5 17.5t-51 42t-42 51t-17.5 44.5q0 20 16.5 47t41 51.5t51 42t46.5 17.5t47 -17.5t51.5 -42t42 -51.5t17.5 -47zM926 1599q0 -20 -17.5 -46.5t-42 -51t-51.5 -41t-47 -16.5q-18 0 -45 17.5t-51.5 42 t-42 51t-17.5 44.5q0 20 16.5 47t41 51.5t51.5 42t47 17.5t47 -17.5t51.5 -42t42 -51.5t17.5 -47zM72 100q37 14 67.5 23.5t53.5 15.5v1114q-27 8 -57 17.5t-64 25.5v97h954v-402h-149q-29 35 -61 100.5t-46 143.5h-260v-467h209q8 37 22.5 79t30.5 85h166v-461h-164 q-35 82 -51 143h-213v-452h311q14 74 45 135t58 96h147v-393h-999v100z" />
<glyph unicode="&#x403;" horiz-adv-x="1101" d="M451 1499q117 98 186.5 192.5t95.5 149.5q43 -16 69.5 -40.5t43.5 -67.5q-76 -80 -159 -156t-171 -133zM664 0h-592v98q29 10 59.5 19.5t61.5 17.5v1120q-31 8 -62 17.5t-59 21.5v99h962v-402h-149q-25 31 -50.5 94.5t-39.5 149.5h-285v-1094q41 -8 81 -18t73 -25v-98z " />
<glyph unicode="&#x405;" />
<glyph unicode="&#x406;" />
<glyph unicode="&#x40c;" horiz-adv-x="1402" d="M451 1499q117 98 186.5 192.5t95.5 149.5q43 -16 69.5 -40.5t43.5 -67.5q-76 -80 -159 -156t-171 -133zM1307 1294q-35 -14 -68 -25.5t-65 -19.5l-379 -510q29 -16 62.5 -42.5t60.5 -63.5l354 -496q31 -8 63.5 -18t61.5 -21v-98h-391l-428 608h-68v-473q31 -8 60.5 -17 t58.5 -20v-98h-557v98q29 10 59.5 19.5t61.5 17.5v1120q-31 8 -62 17.5t-59 21.5v99h557v-99q-29 -12 -58.5 -21t-60.5 -18v-499l57 8l330 491q-27 8 -54.5 17.5t-54.5 21.5v99h519v-99z" />
<glyph unicode="&#x410;" horiz-adv-x="1445" d="M856 395h-342l-78 -256q25 -8 53.5 -17t61.5 -24v-98h-518v96q43 18 84 32.5t71 23.5l435 1241h208l443 -1252q33 -8 66.5 -17t66.5 -24v-100h-557v94q29 16 55.5 25.5t38.5 13.5zM561 553h242l-125 379z" />
<glyph unicode="&#x411;" horiz-adv-x="1183" d="M621 858q133 0 234 -32.5t170 -89t103.5 -132.5t34.5 -162q0 -94 -35.5 -175t-105.5 -140t-173.5 -93t-236.5 -34h-540v100q37 14 67.5 23.5t53.5 15.5v1114q-27 8 -57 17.5t-64 25.5v97h975v-402h-148q-29 35 -61.5 98.5t-42.5 145.5h-285v-377h111zM510 162 q340 2 340 276q0 80 -25.5 131.5t-67.5 82t-98.5 43t-117.5 12.5h-31v-545z" />
<glyph unicode="&#x412;" horiz-adv-x="1212" d="M72 0v100q37 14 67.5 23.5t53.5 15.5v1114q-27 8 -57 17.5t-64 25.5v97h551q223 0 346 -90.5t123 -255.5q0 -90 -43 -157t-129 -120q135 -43 206.5 -131t71.5 -223q0 -92 -41 -168t-115.5 -131.5t-179 -86t-229.5 -30.5h-561zM510 162h12q172 0 267.5 55t95.5 195 q0 76 -24.5 126t-64.5 77.5t-91.5 39t-104.5 11.5h-90v-504zM510 1235v-418h12q86 0 138.5 21.5t80 54.5t36.5 73t9 76q0 59 -21.5 96.5t-56 59t-77.5 29.5t-88 8h-33z" />
<glyph unicode="&#x413;" horiz-adv-x="1101" d="M664 0h-592v98q29 10 59.5 19.5t61.5 17.5v1120q-31 8 -62 17.5t-59 21.5v99h962v-402h-149q-25 31 -50.5 94.5t-39.5 149.5h-285v-1094q41 -8 81 -18t73 -25v-98z" />
<glyph unicode="&#x414;" horiz-adv-x="1394" d="M1262 1296q-35 -16 -68 -27.5t-53 -15.5v-1087h217v-535h-160q-31 43 -65.5 140.5t-55.5 228.5h-819q-20 -131 -54 -228.5t-63 -140.5h-161v535h172q49 55 90 154.5t69.5 235.5t44 308t15.5 373v16q-63 16 -121 41v99h1012v-97zM602 1223q0 -219 -16.5 -390t-43 -300.5 t-60 -219.5t-66.5 -147h409v1069h-223v-12z" />
<glyph unicode="&#x415;" horiz-adv-x="1136" d="M72 100q37 14 67.5 23.5t53.5 15.5v1114q-27 8 -57 17.5t-64 25.5v97h954v-402h-149q-29 35 -61 100.5t-46 143.5h-260v-467h209q8 37 22.5 79t30.5 85h166v-461h-164q-35 82 -51 143h-213v-452h311q14 74 45 135t58 96h147v-393h-999v100z" />
<glyph unicode="&#x416;" horiz-adv-x="2078" d="M1964 1294q-70 -29 -131 -43l-371 -508q29 -16 64 -43.5t63 -66.5l344 -498q66 -16 121 -37v-98h-391l-416 608h-65v-473q31 -8 60.5 -17t57.5 -20v-98h-557v98q29 10 60 19.5t61 17.5v473h-65l-416 -608h-391v98q29 10 59.5 19.5t61.5 17.5l344 498q27 39 62.5 66.5 t64.5 43.5l-371 508q-70 16 -131 43v99h518v-99q-31 -12 -61.5 -22t-61.5 -19l322 -497l65 -8v507q-31 8 -61.5 17.5t-59.5 21.5v99h557v-99q-29 -12 -58.5 -21t-59.5 -18v-507l63 8l322 497q-63 16 -121 41v99h518v-99z" />
<glyph unicode="&#x417;" horiz-adv-x="1083" d="M137 340q86 -80 173 -121t161 -41q55 0 98 18.5t72 49t43 70.5t14 83q0 45 -16 88t-49 76t-83 52.5t-118 19.5h-209v166h180q115 0 174.5 70.5t59.5 181.5q0 80 -35 138t-113 58q-33 0 -53 -18.5t-35.5 -45t-28 -59t-29.5 -59.5t-40.5 -45t-60.5 -18q-20 0 -57.5 10 t-73.5 30v347l143 -31q47 18 106.5 32.5t118.5 14.5q86 0 168 -21.5t146.5 -65.5t104.5 -110.5t40 -158.5q0 -98 -42 -174t-128 -127q104 -41 174 -124t70 -216q0 -111 -42 -191t-112 -132t-160 -76.5t-184 -24.5q-61 0 -128 12t-132.5 36.5t-123.5 59.5t-103 80z" />
<glyph unicode="&#x418;" horiz-adv-x="1458" d="M629 0h-557v100q37 14 67.5 23.5t53.5 15.5v1114q-27 8 -57 17.5t-64 25.5v97h557v-97q-35 -16 -68 -27.5t-51 -15.5v-675l438 653v22q-27 8 -56.5 17.5t-62.5 25.5v97h557v-97q-35 -16 -68.5 -27.5t-51.5 -15.5v-1116q29 -8 57.5 -17t62.5 -22v-98h-557v100 q35 14 66 23.5t53 15.5v707l-438 -656v-53q29 -8 57.5 -17t61.5 -22v-98z" />
<glyph unicode="&#x419;" horiz-adv-x="1458" d="M702 1509q-82 0 -169 21.5t-173 60.5v140q20 23 49 44t74 21q43 0 70 -21.5t48.5 -48t43 -48t55.5 -21.5q37 0 57.5 21.5t39 48t43 48t71.5 21.5q45 0 74 -21.5t49 -43.5v-140q-90 -39 -173 -60.5t-159 -21.5zM629 98q-33 12 -61.5 21.5t-57.5 17.5v53l438 656v-707 q-23 -6 -53.5 -15t-65.5 -24v-100h557v98q-35 12 -63.5 21.5t-56.5 17.5v1116q18 4 52 15.5t68 27.5v97h-557v-97q33 -16 63 -25t56 -18v-22l-438 -653v675q18 4 51 15.5t68 27.5v97h-557v-97q35 -16 64.5 -25t56.5 -18v-1114q-23 -6 -53.5 -15t-67.5 -24v-100h557v98z" />
<glyph unicode="&#x41a;" horiz-adv-x="1402" d="M1307 1294q-35 -14 -68 -25.5t-65 -19.5l-379 -510q29 -16 62.5 -42.5t60.5 -63.5l354 -496q31 -8 63.5 -18t61.5 -21v-98h-391l-428 608h-68v-473q31 -8 60.5 -17t58.5 -20v-98h-557v98q29 10 59.5 19.5t61.5 17.5v1120q-31 8 -62 17.5t-59 21.5v99h557v-99 q-29 -12 -58.5 -21t-60.5 -18v-499l57 8l330 491q-27 8 -54.5 17.5t-54.5 21.5v99h519v-99z" />
<glyph unicode="&#x41b;" horiz-adv-x="1331" d="M1260 1296q-35 -16 -68 -27.5t-51 -15.5v-1118q31 -8 60.5 -17t58.5 -20v-98h-558v98q29 10 60 19.5t61 17.5v1100h-239q0 -31 1 -61.5t1 -59.5q0 -324 -38 -536.5t-106.5 -343t-165 -188.5t-210.5 -73l-31 256l196 121q18 29 42 86.5t44.5 160.5t35 259t14.5 381v16 q-27 8 -59 17.5t-62 23.5v99h1014v-97z" />
<glyph unicode="&#x41c;" d="M543 0h-518v98q37 16 72.5 28.5t64.5 20.5l117 1108q-25 8 -52.5 17.5t-58.5 23.5v97h414l286 -803l291 803h418v-97q-33 -14 -64.5 -25t-48.5 -16l88 -1116q66 -16 125 -39v-100h-557v98q35 12 63.5 22.5t47.5 14.5l-35 549v131l-283 -790h-182l-274 784v-135l-51 -529 q31 -8 66.5 -19t70.5 -28v-98z" />
<glyph unicode="&#x41d;" horiz-adv-x="1456" d="M629 0h-557v100q35 14 65.5 23.5t52.5 15.5v1114q-27 8 -56.5 17.5t-61.5 25.5v97h557v-97q-35 -16 -69 -27.5t-52 -15.5v-465h440v465q-27 8 -56.5 17.5t-64.5 25.5v97h557v-97q-35 -16 -67.5 -27.5t-52.5 -15.5v-1116q29 -8 57.5 -17t62.5 -22v-98h-557v100 q70 27 121 39v494h-440v-496q29 -8 57.5 -17t63.5 -22v-98z" />
<glyph unicode="&#x41e;" horiz-adv-x="1370" d="M51 653q0 137 41 271.5t122 242t203 174t283 66.5q141 0 256 -52t195 -144.5t124 -217.5t44 -272q0 -135 -43 -266t-127 -235.5t-207 -169t-283 -64.5q-139 0 -250.5 51t-190.5 140t-122 211t-45 265zM385 692q0 -104 18.5 -202.5t57.5 -173t96 -120.5t135 -46t133.5 46 t91 121.5t53 174t17.5 200.5q0 100 -16.5 200.5t-52 179.5t-93 128t-139.5 49q-80 0 -137 -49t-93 -128t-53.5 -179.5t-17.5 -200.5z" />
<glyph unicode="&#x41f;" horiz-adv-x="1447" d="M629 0h-557v98q29 10 59.5 19.5t61.5 17.5v1120q-31 8 -62 17.5t-59 21.5v99h1304v-99q-29 -12 -59.5 -21t-61.5 -18v-1120q66 -16 121 -37v-98h-557v98q29 10 58.5 19.5t60.5 17.5v1100h-428v-1100q31 -8 60.5 -17t58.5 -20v-98z" />
<glyph unicode="&#x420;" horiz-adv-x="1169" d="M561 676q59 2 109.5 22.5t87.5 58.5t57.5 95t20.5 137q0 111 -76 178.5t-250 67.5v-1092q37 -8 76 -18t78 -27v-98h-592v100q37 14 67.5 23.5t53.5 15.5v1114q-27 8 -57 17.5t-64 25.5v97h522q125 0 227.5 -29t175 -81t112.5 -128t40 -170q0 -86 -37 -168t-105.5 -144.5 t-169 -101.5t-225.5 -39h-51v144z" />
<glyph unicode="&#x421;" horiz-adv-x="1187" d="M1114 1061q-35 -39 -71.5 -48t-57.5 -9q-41 0 -66.5 18t-42 45t-29.5 59.5t-30.5 59t-43 45t-66.5 18.5q-80 0 -144.5 -36.5t-110.5 -104.5t-72 -164t-26 -215q0 -111 23.5 -209t67.5 -172t110 -117t152 -43q61 0 156 38t224 122l54 -129q-109 -123 -234 -178t-248 -55 q-152 0 -267.5 58t-193 153.5t-117.5 218.5t-40 252q0 143 42 276t127 236.5t214 165t305 61.5q68 0 123 -13.5t115 -33.5l147 31v-330v0z" />
<glyph unicode="&#x422;" horiz-adv-x="1288" d="M1223 1393v-422h-148q-31 35 -62.5 107.5t-41.5 156.5h-168v-1098q29 -8 57.5 -17t63.5 -22v-98h-557v100q35 14 65.5 23.5t52.5 15.5v1096h-168q-16 -78 -45.5 -153.5t-56.5 -110.5h-149v422h1157z" />
<glyph unicode="&#x423;" horiz-adv-x="1339" d="M1296 1294q-35 -14 -67.5 -24t-67.5 -21l-401 -1071q-35 -92 -71 -156.5t-71.5 -109.5t-70.5 -71.5t-68 -43.5l-133 197l174 153l51 105l-415 999q-35 8 -71 18.5t-69 24.5v99h557v-99q-25 -10 -50 -18t-52 -14l236 -635l202 622q-35 8 -66.5 19.5t-64.5 25.5v99h518v-99 z" />
<glyph unicode="&#x424;" horiz-adv-x="1480" d="M1008 0h-557v98q29 10 59.5 19.5t60.5 17.5v58q-139 8 -242.5 54t-171 116.5t-101 159.5t-33.5 184q0 92 35.5 181t105 163.5t172 129t235.5 76.5v95q-31 8 -61.5 17t-58.5 22v98h557v-98q-29 -12 -58.5 -21.5t-60.5 -17.5v-86q139 -10 241.5 -56.5t170 -117 t101.5 -158.5t34 -180q0 -90 -36 -180.5t-104.5 -165t-171 -130t-235.5 -75.5v-68q31 -8 60.5 -17t58.5 -20v-98zM334 725q0 -57 14 -112.5t44 -103.5t75 -87t104 -64v742q-59 -23 -103 -63t-73.5 -90t-45 -107.5t-15.5 -114.5zM1120 727q0 59 -14 116.5t-44 107.5t-73 89 t-100 64v-752q57 20 100 59.5t73 89.5t44 108.5t14 117.5z" />
<glyph unicode="&#x425;" horiz-adv-x="1380" d="M1352 0h-578v98q20 8 42 15.5t44 13.5l-215 352l-203 -346q27 -6 52.5 -15t52.5 -20v-98h-518v98q35 14 67.5 24.5t67.5 20.5l348 557l-328 551q-39 8 -75.5 18.5t-67.5 24.5v99h596v-99q-23 -10 -48.5 -17t-53.5 -15l174 -306l172 304q-47 12 -97 34v99h519v-99 q-41 -16 -81 -28.5t-81 -22.5l-305 -500l370 -604q80 -16 146 -41v-98z" />
<glyph unicode="&#x426;" horiz-adv-x="1490" d="M629 1294q-29 -12 -58.5 -21t-60.5 -18v-1089h412v1089q-31 8 -62 17.5t-59 21.5v99h557v-99q-29 -12 -58.5 -21t-60.5 -18v-1089h215v-535h-160q-31 43 -65.5 140.5t-54.5 228.5h-1102v98q29 10 59.5 19.5t61.5 17.5v1120q-31 8 -62 17.5t-59 21.5v99h557v-99z" />
<glyph unicode="&#x427;" horiz-adv-x="1277" d="M567 1294q-29 -12 -58.5 -21t-59.5 -18v-462q0 -41 36.5 -70t112.5 -29q90 0 170 25v536q-31 8 -60.5 17.5t-58.5 21.5v99h557v-99q-29 -12 -59.5 -21t-61.5 -18v-1120q66 -16 121 -37v-98h-557v98q29 10 58.5 19.5t60.5 17.5v420q-96 -29 -184 -29q-76 0 -156 11.5 t-146.5 40t-108.5 78t-42 126.5v473q-31 8 -61.5 17.5t-59.5 21.5v99h557v-99z" />
<glyph unicode="&#x428;" horiz-adv-x="1953" d="M72 98q29 10 59.5 19.5t61.5 17.5v1120q-31 8 -62 17.5t-59 21.5v99h557v-99q-29 -12 -58.5 -21t-60.5 -18v-1089h309v1089q-31 8 -61.5 17.5t-59.5 21.5v99h557v-99q-29 -12 -58.5 -21t-59.5 -18v-1089h309v1089q-31 8 -61.5 17.5t-59.5 21.5v99h557v-99 q-29 -12 -58.5 -21t-60.5 -18v-1120q31 -8 60.5 -17t58.5 -20v-98h-1810v98z" />
<glyph unicode="&#x429;" horiz-adv-x="2035" d="M1882 1294q-29 -12 -58.5 -21t-60.5 -18v-1089h236v-535h-160q-31 43 -65.5 140.5t-55.5 228.5h-1646v98q29 10 59.5 19.5t61.5 17.5v1120q-31 8 -62 17.5t-59 21.5v99h557v-99q-29 -12 -58.5 -21t-60.5 -18v-1089h309v1089q-31 8 -61.5 17.5t-59.5 21.5v99h557v-99 q-29 -12 -58.5 -21t-59.5 -18v-1089h309v1089q-31 8 -61.5 17.5t-59.5 21.5v99h557v-99z" />
<glyph unicode="&#x42a;" horiz-adv-x="1345" d="M684 858h92q133 0 235.5 -32.5t172 -89t105.5 -132.5t36 -162q0 -94 -37 -175t-108.5 -140t-175 -93t-236.5 -34h-520v98q25 10 54.5 19.5t64.5 15.5v1102h-86q-16 -86 -45 -149.5t-54 -94.5h-149v402h651v-535zM684 162q158 0 243 73.5t85 202.5q0 80 -27 132.5t-72 83 t-101 42t-116 11.5h-12v-545z" />
<glyph unicode="&#x42b;" horiz-adv-x="1783" d="M602 858q133 0 235.5 -32.5t171 -89t104.5 -132.5t36 -162q0 -94 -37 -175t-108.5 -140t-175 -93t-236.5 -34h-520v100q37 14 67.5 23.5t53.5 15.5v1114q-27 8 -57 17.5t-64 25.5v97h557v-97q-35 -16 -68 -27.5t-51 -15.5v-395h92zM1712 0h-557v98q29 10 59.5 19.5 t61.5 17.5v1120q-31 8 -61.5 17.5t-59.5 21.5v99h557v-99q-29 -12 -59.5 -21t-61.5 -18v-1120q31 -8 61.5 -17t59.5 -20v-98zM510 162q158 0 243 73.5t85 202.5q0 80 -27 132.5t-72 83t-101 42t-116 11.5h-12v-545z" />
<glyph unicode="&#x42c;" horiz-adv-x="1169" d="M602 858q133 0 235.5 -32.5t171 -89t104.5 -132.5t36 -162q0 -94 -37 -175t-108.5 -140t-175 -93t-236.5 -34h-520v100q37 14 67.5 23.5t53.5 15.5v1114q-27 8 -57 17.5t-64 25.5v97h557v-97q-35 -16 -68 -27.5t-51 -15.5v-395h92zM510 162q158 0 243 73.5t85 202.5 q0 80 -27 132.5t-72 83t-101 42t-116 11.5h-12v-545z" />
<glyph unicode="&#x42d;" horiz-adv-x="1179" d="M203 786h608q-6 104 -31.5 190.5t-67.5 147t-95.5 93t-114.5 32.5q-63 0 -98 -39t-63 -85t-57.5 -83.5t-80.5 -37.5q-18 0 -54 10t-75 30v347l147 -31q49 16 108.5 31.5t129.5 15.5q176 0 303 -55.5t208 -151.5t119.5 -224t38.5 -271q0 -150 -48 -281t-132 -228.5 t-199.5 -153.5t-252.5 -56q-113 0 -229.5 49t-235.5 155l57 168q98 -88 196.5 -131t188.5 -43q70 0 131.5 27t107.5 81t72.5 136t30.5 193h-612v165z" />
<glyph unicode="&#x42e;" horiz-adv-x="1992" d="M629 0h-557v98q29 10 59.5 19.5t61.5 17.5v1120q-31 8 -62 17.5t-59 21.5v99h557v-99q-29 -12 -59.5 -21t-61.5 -18v-491l174 16q16 121 65.5 233.5t129 201t191.5 140.5t255 52q141 0 256 -52t194.5 -144.5t124 -217.5t44.5 -272q0 -135 -43.5 -266t-127 -235.5 t-206.5 -169t-283 -64.5q-135 0 -244.5 48t-188.5 134t-124 202.5t-51 254.5h-166v-490q31 -8 61.5 -17t59.5 -20v-98zM1008 692q0 -104 18 -202.5t57 -173t96.5 -120.5t135.5 -46t133 46t91 121.5t53.5 174t17.5 200.5q0 100 -16.5 200.5t-52.5 179.5t-93 128t-139 49 q-80 0 -137.5 -49t-93.5 -128t-53 -179.5t-17 -200.5z" />
<glyph unicode="&#x42f;" horiz-adv-x="1290" d="M1219 0h-557v98q29 10 58.5 19.5t59.5 17.5v412h-49l-342 -547h-401v98q31 12 64.5 22.5t66.5 18.5l219 348q16 27 45 51.5t61 47.5q-72 27 -128 70.5t-94 97t-57.5 115t-19.5 124.5q0 92 39 166t112 126t174 80t226 28h523v-99q-51 -20 -121 -37v-1122q66 -16 121 -37 v-98zM780 1235h-14q-307 0 -307 -238q0 -154 76.5 -223t214.5 -69h30v530z" />
<glyph unicode="&#x430;" horiz-adv-x="1062" d="M1026 98l-242 -112q-53 0 -101 29.5t-83 74.5q-68 -53 -143.5 -78.5t-139.5 -25.5q-57 0 -108 22.5t-90 60t-61.5 86t-22.5 101.5q0 106 49 175t126 112t170 65.5t181 34.5v152q0 63 -30.5 85.5t-63.5 22.5q-41 0 -69.5 -23.5t-55.5 -52t-56.5 -52t-72.5 -23.5 q-37 0 -66.5 19.5t-48.5 35.5v178q20 6 61.5 15.5t92.5 17.5t105.5 14t101.5 6q86 0 160.5 -19.5t130 -59t86 -99t30.5 -137.5v-539h125zM561 508q-43 -10 -88 -27.5t-81 -44t-59.5 -63.5t-23.5 -84q0 -57 33 -87t66 -30q37 0 79.5 19.5t73.5 56.5v260z" />
<glyph unicode="&#x431;" horiz-adv-x="1087" d="M543 836q-29 0 -60.5 -13.5t-60.5 -51.5t-47.5 -104.5t-18.5 -172.5q0 -102 16.5 -172t42 -112t56.5 -60.5t57 -18.5q51 0 88 31t58.5 83t32 118.5t10.5 138.5q0 150 -42 242t-132 92zM799 1157q-35 -10 -84 -17t-98.5 -11.5t-94.5 -5.5t-73 -1q-29 -12 -67 -58t-56 -132 q53 18 123.5 34.5t128.5 16.5q100 0 184 -28.5t143.5 -84t93 -139.5t33.5 -194q0 -123 -37 -223.5t-103.5 -173t-158.5 -112.5t-203 -40q-248 0 -363.5 150.5t-115.5 449.5q0 266 80 441t221 267q47 16 101.5 30.5t107.5 25.5q39 8 75 17t72.5 27.5t75.5 49.5t82 80l119 -80 q-12 -41 -29.5 -88t-41 -88t-52 -72t-63.5 -41z" />
<glyph unicode="&#x432;" horiz-adv-x="1060" d="M45 0v86q29 12 58.5 21.5t60.5 17.5v774q-31 6 -60.5 16.5t-58.5 22.5v86h442q109 0 195 -13.5t145.5 -43t91 -78.5t31.5 -121q0 -143 -131 -213q86 -29 140.5 -88t54.5 -164q0 -160 -126 -231.5t-378 -71.5h-465zM467 139h57q102 0 146.5 51.5t44.5 118.5 q0 61 -46 111.5t-132 50.5h-70v-332zM467 606h49q76 0 108.5 41t32.5 98q0 53 -32.5 98.5t-108.5 45.5h-49v-283z" />
<glyph unicode="&#x433;" horiz-adv-x="925" d="M874 682h-147q-29 35 -48.5 91t-29.5 110h-182v-756q39 -8 76 -17.5t69 -23.5v-86h-567v86q29 12 58.5 21.5t60.5 17.5v774q-31 6 -60.5 16.5t-58.5 22.5v86h829v-342z" />
<glyph unicode="&#x434;" horiz-adv-x="1226" d="M170 150q27 31 56.5 87t55 147t44 218t22.5 297q-31 6 -59.5 16.5t-57.5 22.5v86h883v-86q-29 -12 -59.5 -22.5t-59.5 -16.5v-749h191v-431h-150q-18 25 -34.5 60t-30 73.5t-22.5 77.5t-15 70h-664q-6 -33 -15 -72t-21.5 -76.5t-29 -72.5t-34.5 -60h-150v431h150z M526 883q-6 -246 -47 -434.5t-100 -298.5h313v733h-166z" />
<glyph unicode="&#x435;" horiz-adv-x="997" d="M35 477q0 98 29.5 198.5t90 180.5t152.5 131t219 51q117 0 195 -44t125 -111.5t66.5 -150.5t19.5 -161h-594v-32q2 -182 75.5 -274.5t190.5 -92.5q127 0 273 107l51 -115q-88 -92 -188.5 -135t-198.5 -43q-94 0 -184.5 31.5t-162 93t-115.5 153.5t-44 213zM666 713 q0 96 -38 139t-87 43q-57 0 -111.5 -48t-77.5 -134h314z" />
<glyph unicode="&#x436;" horiz-adv-x="1744" d="M1606 821l-205 -84l-162 -188q33 -16 64.5 -38t54.5 -46l387 -465h-338l-340 436h-43v-311q29 -8 59.5 -17.5t59.5 -21.5v-86h-541v86q29 12 58.5 21.5t60.5 17.5v311h-45l-338 -436h-338l387 465q20 25 53 46t64 38l-160 188l-205 84l-22 217q92 -2 148.5 -14t97 -40 t74.5 -72t79 -109q51 -78 92 -147.5t70 -102.5l43 -4v350q-31 6 -60.5 16.5t-58.5 22.5v86h541v-86q-29 -12 -59.5 -22.5t-59.5 -16.5v-350l43 4q29 35 69 103.5t93 146.5q45 66 78.5 109.5t74.5 71.5t97.5 40t148.5 14z" />
<glyph unicode="&#x437;" horiz-adv-x="880" d="M123 262q55 -47 124.5 -77.5t117.5 -30.5q63 0 113 35.5t52 123.5q0 59 -44 103.5t-130 44.5h-178v141h156q78 0 114.5 44t36.5 104q0 78 -35.5 110.5t-70.5 32.5q-33 0 -54.5 -15.5t-41 -35t-41 -34.5t-56.5 -15q-29 0 -53 18t-43 43v115q61 31 131 50t150 19 q72 0 144.5 -14t129.5 -46t93 -84t36 -126q0 -72 -34.5 -125t-96.5 -88q80 -29 135.5 -88t55.5 -164q0 -82 -36 -142.5t-92.5 -99t-130 -57t-151.5 -18.5q-51 0 -107.5 10t-111.5 30.5t-104.5 49t-86.5 63.5z" />
<glyph unicode="&#x438;" horiz-adv-x="1257" d="M467 475q74 104 157 202.5t160 205.5v16q-31 6 -60.5 16.5t-57.5 22.5v86h540v-86q-29 -12 -59.5 -22.5t-59.5 -16.5v-774q29 -8 60 -17.5t59 -21.5v-86h-540v86q29 12 58.5 21.5t59.5 17.5v426q-74 -104 -156.5 -202.5t-160.5 -207.5v-16q29 -8 59.5 -17.5t59.5 -21.5 v-86h-541v86q29 12 58.5 21.5t60.5 17.5v774q-31 6 -60.5 16.5t-58.5 22.5v86h541v-86q-29 -12 -59.5 -22.5t-59.5 -16.5v-424v0z" />
<glyph unicode="&#x439;" horiz-adv-x="1257" d="M586 1270q39 0 61.5 21.5t42 48t44 48t71.5 21.5q43 0 71.5 -21.5t51.5 -44.5v-133q-86 -39 -172 -59.5t-168 -20.5t-167 20.5t-171 59.5v133q20 23 49 44.5t74 21.5t69.5 -21.5t43 -48t40 -48t60.5 -21.5zM467 475v424q29 6 59.5 16.5t59.5 22.5v86h-541v-86 q29 -12 58.5 -22.5t60.5 -16.5v-774q-31 -8 -60.5 -17.5t-58.5 -21.5v-86h541v86q-29 12 -59.5 21.5t-59.5 17.5v16q78 109 161 207t156 203v-426q-31 -8 -60.5 -17.5t-57.5 -21.5v-86h540v86q-29 12 -59.5 21.5t-59.5 17.5v774q29 6 60 16.5t59 22.5v86h-540v-86 q29 -12 58.5 -22.5t59.5 -16.5v-16q-78 -106 -160.5 -205t-156.5 -203z" />
<glyph unicode="&#x43a;" horiz-adv-x="1155" d="M991 821l-184 -76l-152 -194q31 -14 64 -35.5t55 -50.5l373 -465h-330l-332 436h-18v-311q29 -8 59.5 -17.5t59.5 -21.5v-86h-541v86q29 12 58.5 21.5t60.5 17.5v774q-31 6 -60.5 16.5t-58.5 22.5v86h541v-86q-29 -12 -59.5 -22.5t-59.5 -16.5v-326l33 5q29 39 63.5 99 t79.5 126t75 109.5t64.5 71.5t87 40t144.5 14z" />
<glyph unicode="&#x43b;" horiz-adv-x="1128" d="M1077 1024v-86q-29 -12 -59.5 -22.5t-59.5 -16.5v-774q29 -8 60 -17.5t59 -21.5v-86h-540v86q29 12 58.5 21.5t59.5 17.5v758h-184q0 -428 -96 -648.5t-328 -257.5l-29 216l148 83q14 20 34.5 57.5t39 106t32 179t15.5 280.5q-31 6 -60.5 16.5t-58.5 22.5v86h909z" />
<glyph unicode="&#x43c;" horiz-adv-x="1527" d="M31 0v86q33 14 65.5 24.5t63.5 18.5l90 774q-27 8 -52.5 16.5t-47.5 18.5v86h372l244 -561l238 561h395v-86q-29 -12 -57.5 -21.5t-57.5 -17.5l90 -772q61 -14 127 -41v-86h-540v86q51 23 104 35l-41 442l-213 -543h-164l-221 525l-37 -414q35 -8 70 -18.5t71 -26.5v-86 h-499z" />
<glyph unicode="&#x43d;" horiz-adv-x="1259" d="M467 125q29 -8 59.5 -17.5t59.5 -21.5v-86h-541v86q29 12 58.5 21.5t60.5 17.5v774q-31 6 -60.5 16.5t-58.5 22.5v86h541v-86q-29 -12 -59.5 -22.5t-59.5 -16.5v-272h317v272q-31 6 -59.5 16.5t-56.5 22.5v86h540v-86q-63 -27 -121 -41v-772q31 -8 62 -17.5t59 -21.5v-86 h-540v86q29 12 57.5 21.5t58.5 17.5v348h-317v-348z" />
<glyph unicode="&#x43e;" horiz-adv-x="1099" d="M35 481q0 100 32.5 200.5t98 179.5t163 128t224.5 49q113 0 203 -38.5t154.5 -106.5t99 -161t34.5 -202q0 -98 -34.5 -196t-101 -175t-164 -125t-222.5 -48q-111 0 -200 37.5t-152.5 104.5t-98 157t-36.5 196zM543 895q-51 0 -89 -32t-63.5 -86t-39 -122.5t-13.5 -142.5 t12 -141.5t38 -118.5t65 -82t90 -31t90 31t64.5 83t38 118.5t12.5 140.5t-13.5 143.5t-39 122.5t-63.5 85t-89 32z" />
<glyph unicode="&#x43f;" horiz-adv-x="1257" d="M467 125q29 -8 59.5 -17.5t59.5 -21.5v-86h-541v86q29 12 58.5 21.5t60.5 17.5v774q-31 6 -60.5 16.5t-58.5 22.5v86h1161v-86q-29 -12 -59.5 -22.5t-59.5 -16.5v-774q29 -8 60 -17.5t59 -21.5v-86h-540v86q29 12 58.5 21.5t59.5 17.5v758h-317v-758z" />
<glyph unicode="&#x440;" horiz-adv-x="1153" d="M446 -444q39 -8 76 -18.5t70 -24.5v-86h-567v86q29 12 58.5 22t59.5 16v1295h-112v115l415 92v-68q53 27 107.5 39t108.5 12q92 0 170.5 -35.5t138 -102.5t93.5 -162t34 -212q0 -121 -44 -219t-119 -168.5t-171 -109.5t-201 -39q-59 0 -117 12v-444zM600 868 q-47 0 -84 -18.5t-70 -42.5v-633q0 -2 29 -22.5t92 -20.5q59 0 101.5 33t70 86t40 120.5t12.5 139.5t-8.5 136.5t-30 113.5t-58.5 78.5t-94 29.5z" />
<glyph unicode="&#x441;" horiz-adv-x="983" d="M928 164q-88 -92 -188.5 -135t-198.5 -43q-127 0 -221.5 43t-158 113.5t-95 161.5t-31.5 188q0 106 34.5 204.5t104.5 174t175.5 121.5t244.5 46q61 0 141 -14t172 -39v-176q-18 -23 -55 -41t-64 -18q-43 0 -70.5 21.5t-50 46t-47 46t-61.5 21.5q-104 0 -162.5 -80 t-58.5 -266q0 -182 73.5 -274.5t190.5 -92.5q125 0 270 104z" />
<glyph unicode="&#x442;" horiz-adv-x="1040" d="M989 1024v-342h-135q-37 45 -55.5 100.5t-28.5 100.5h-98v-758q31 -8 61.5 -17.5t59.5 -21.5v-86h-541v86q29 12 57.5 21.5t59.5 17.5v758h-97q-10 -47 -29.5 -103.5t-52.5 -97.5h-139v342h938z" />
<glyph unicode="&#x443;" horiz-adv-x="1128" d="M555 311l174 584q-31 8 -63.5 18.5t-65.5 24.5v86h500v-86q-39 -16 -76 -27.5t-72 -19.5l-381 -1110q-23 -68 -61.5 -128.5t-78.5 -108.5t-74.5 -78.5t-49.5 -38.5l-162 223q45 23 91.5 50.5t111.5 90.5l96 209h-61l-326 899q-31 6 -60.5 16.5t-57.5 22.5v86h536v-86 q-51 -25 -108 -37z" />
<glyph unicode="&#x444;" horiz-adv-x="1402" d="M430 -530l117 129v391q-106 10 -198.5 47t-161 99.5t-107.5 150.5t-39 200q0 115 38 207t104.5 162t159.5 114t204 60v223h-111v115l414 92v-424q102 -8 194.5 -44t163 -98.5t112.5 -152.5t42 -204q0 -115 -40 -208t-109.5 -162t-163 -113t-199.5 -60v-391l147 -133h-567 zM1069 516q0 147 -55.5 244.5t-163.5 124.5q0 -96 1 -186.5t1 -179.5t1 -181t1 -191q94 27 154.5 128.5t60.5 240.5zM332 516q0 -147 58.5 -242.5t156.5 -123.5v733q-96 -27 -155.5 -123.5t-59.5 -243.5z" />
<glyph unicode="&#x445;" horiz-adv-x="1191" d="M20 0v86q39 16 74 27.5t68 19.5l280 365l-290 399q-31 8 -63 17.5t-60 23.5v86h536v-86q-39 -18 -84 -31l148 -202l127 198q-23 6 -46.5 15.5t-47.5 19.5v86h479v-86q-96 -41 -174 -55l-236 -318l320 -442q31 -8 61.5 -17.5t56.5 -19.5v-86h-536v86q43 18 86 31l-172 235 l-141 -231q23 -8 46 -16.5t48 -18.5v-86h-480z" />
<glyph unicode="&#x446;" horiz-adv-x="1294" d="M1206 938q-29 -12 -59.5 -22.5t-59.5 -16.5v-749h195v-431h-147q-18 25 -35 60t-30 73.5t-22.5 77.5t-15.5 70h-987v86q29 12 58.5 21.5t60.5 17.5v774q-31 6 -60.5 16.5t-58.5 22.5v86h541v-86q-29 -12 -59.5 -22.5t-59.5 -16.5v-749h317v749q-31 6 -60.5 16.5 t-57.5 22.5v86h540v-86z" />
<glyph unicode="&#x447;" horiz-adv-x="1193" d="M1149 1024v-86q-29 -12 -59.5 -22.5t-59.5 -16.5v-774q29 -8 59.5 -17.5t59.5 -21.5v-86h-541v86q29 12 58.5 21.5t60.5 17.5v297q-43 -10 -95 -15.5t-100 -5.5q-78 0 -148.5 13.5t-124.5 42t-87 75t-33 113.5v254q-31 6 -60.5 16.5t-58.5 22.5v86h531v-86 q-53 -25 -109 -37v-291q0 -29 47.5 -42t106.5 -13q70 0 131 12v334q-57 12 -109 37v86h531z" />
<glyph unicode="&#x448;" horiz-adv-x="1794" d="M45 86q29 12 58.5 21.5t60.5 17.5v774q-31 6 -60.5 16.5t-58.5 22.5v86h530v-86q-53 -25 -108 -37v-751h274v751q-57 12 -108 37v86h520v-86q-53 -25 -109 -37v-751h275v751q-57 12 -109 37v86h531v-86q-29 -12 -59.5 -22.5t-59.5 -16.5v-774q31 -8 61.5 -17.5 t59.5 -21.5v-86h-1698v86z" />
<glyph unicode="&#x449;" horiz-adv-x="1861" d="M45 86q29 12 58.5 21.5t60.5 17.5v774q-31 6 -60.5 16.5t-58.5 22.5v86h530v-86q-53 -25 -108 -37v-751h274v751q-57 12 -108 37v86h520v-86q-53 -25 -109 -37v-751h275v751q-57 12 -109 37v86h531v-86q-29 -12 -59.5 -22.5t-59.5 -16.5v-749h227v-431h-149 q-18 25 -34.5 60t-30 73.5t-22.5 77.5t-16 70h-1552v86z" />
<glyph unicode="&#x44a;" horiz-adv-x="1206" d="M29 1024h735v-86q-29 -12 -59.5 -22.5t-59.5 -16.5v-254h41q133 0 227.5 -24.5t152.5 -68.5t85 -103.5t27 -126.5q0 -154 -133.5 -238t-368.5 -84h-453v86q29 12 58.5 21.5t60.5 17.5v758h-94q-10 -47 -28.5 -103.5t-53.5 -97.5h-137v342zM645 143h60q45 0 76.5 16.5 t52 42t30.5 58.5t10 68q0 31 -10 61.5t-29.5 55t-49 40t-68.5 15.5h-72v-357z" />
<glyph unicode="&#x44b;" horiz-adv-x="1607" d="M586 938q-29 -12 -59.5 -22.5t-59.5 -16.5v-254h39q133 0 227 -24.5t153.5 -68.5t86 -103.5t26.5 -126.5q0 -154 -134 -238t-367 -84h-453v86q29 12 58.5 21.5t60.5 17.5v774q-31 6 -60.5 16.5t-58.5 22.5v86h541v-86zM1556 938q-29 -12 -59.5 -22.5t-58.5 -16.5v-774 q29 -8 59.5 -17.5t58.5 -21.5v-86h-540v86q29 12 58.5 21.5t60.5 17.5v774q-31 6 -61 16.5t-58 22.5v86h540v-86zM467 143h57q45 0 78 16.5t53.5 42t30.5 58.5t10 68q0 31 -10 61.5t-29.5 55t-50.5 40t-69 15.5h-70v-357z" />
<glyph unicode="&#x44c;" horiz-adv-x="1028" d="M45 0v86q29 12 58.5 21.5t60.5 17.5v774q-31 6 -60.5 16.5t-58.5 22.5v86h541v-86q-29 -12 -59.5 -22.5t-59.5 -16.5v-254h39q133 0 227 -24.5t153.5 -68.5t86 -103.5t26.5 -126.5q0 -154 -134 -238t-367 -84h-453zM467 143h57q45 0 78 16.5t53.5 42t30.5 58.5t10 68 q0 31 -10 61.5t-29.5 55t-50.5 40t-69 15.5h-70v-357z" />
<glyph unicode="&#x44d;" horiz-adv-x="999" d="M100 289q88 -47 168 -83t135 -36t95.5 21.5t68 59.5t44 87t24.5 104h-447v150h451q-6 53 -21.5 105.5t-42 94.5t-65.5 67.5t-90 25.5q-37 0 -62.5 -21.5t-49 -46t-50.5 -46t-68 -21.5q-27 0 -63.5 18t-54.5 41v176q92 25 172 39t141 14q152 0 258.5 -44t173 -117.5 t97 -171t30.5 -203.5t-40 -199.5t-107.5 -164t-157.5 -111.5t-193 -41q-98 0 -195 40t-196 124z" />
<glyph unicode="&#x44e;" horiz-adv-x="1660" d="M45 0v86q29 12 58.5 21.5t60.5 17.5v774q-31 6 -60.5 16.5t-58.5 22.5v86h541v-86q-29 -12 -59.5 -22.5t-59.5 -16.5v-303l141 12q18 84 59.5 162t105 137.5t148.5 95t193 35.5q113 0 203 -38.5t154.5 -106.5t99.5 -161t35 -202q0 -98 -35 -196t-101.5 -175t-164 -125 t-222.5 -48q-106 0 -194 35.5t-150.5 98t-99.5 149.5t-43 190h-129v-334q29 -8 59.5 -17.5t59.5 -21.5v-86h-541zM1104 895q-51 0 -89 -32t-63.5 -86t-39 -122.5t-13.5 -142.5t12.5 -141.5t38 -118.5t64.5 -82t90 -31t90 31t64.5 83t38 118.5t12.5 140.5t-13.5 143.5 t-39 122.5t-63.5 85t-89 32z" />
<glyph unicode="&#x44f;" horiz-adv-x="1093" d="M129 707q0 92 39 152.5t100.5 97t136 52t144.5 15.5h500v-86q-29 -12 -60 -22.5t-59 -16.5v-774q29 -8 59.5 -17.5t59.5 -21.5v-86h-541v86q29 12 58.5 21.5t60.5 17.5v278h-39l-246 -403h-342l238 315q23 33 54.5 60.5t59.5 48.5q-100 27 -161.5 93.5t-61.5 189.5z M627 883h-58q-76 0 -110.5 -50.5t-34.5 -119.5q0 -66 31.5 -119t105.5 -55h66v344z" />
<glyph unicode="&#x451;" horiz-adv-x="997" d="M467 1253q0 -20 -16.5 -45.5t-40 -49t-50 -40t-45.5 -16.5q-18 0 -44.5 16.5t-50 40t-40 50t-16.5 44.5t16.5 45t40 51.5t49 41t45.5 16.5q18 0 45 -16.5t50.5 -41t40 -51.5t16.5 -45zM836 1253q0 -20 -16.5 -45.5t-40 -49t-50.5 -40t-45 -16.5t-45 16.5t-50.5 40t-40 50 t-16.5 44.5t16.5 45t40 51.5t49.5 41t46 16.5q18 0 45 -16.5t50.5 -41t40 -51.5t16.5 -45zM35 477q0 98 29.5 198.5t90 180.5t152.5 131t219 51q117 0 195 -44t125 -111.5t66.5 -150.5t19.5 -161h-594v-32q2 -182 75.5 -274.5t190.5 -92.5q127 0 273 107l51 -115 q-88 -92 -188.5 -135t-198.5 -43q-94 0 -184.5 31.5t-162 93t-115.5 153.5t-44 213zM666 713q0 96 -38 139t-87 43q-57 0 -111.5 -48t-77.5 -134h314z" />
<glyph unicode="&#x453;" horiz-adv-x="925" d="M328 1159q117 98 186.5 192.5t95.5 149.5q43 -16 70 -40.5t43 -67.5q-76 -80 -159 -156t-171 -133zM874 682h-147q-29 35 -48.5 91t-29.5 110h-182v-756q39 -8 76 -17.5t69 -23.5v-86h-567v86q29 12 58.5 21.5t60.5 17.5v774q-31 6 -60.5 16.5t-58.5 22.5v86h829v-342z " />
<glyph unicode="&#x455;" />
<glyph unicode="&#x456;" />
<glyph unicode="&#x45c;" horiz-adv-x="1157" d="M410 1159q117 98 186.5 192.5t95.5 149.5q43 -16 69.5 -40.5t43.5 -67.5q-76 -80 -159 -156t-171 -133zM993 821l-184 -76l-152 -194q31 -14 64 -35.5t55 -50.5l373 -465h-330l-332 436h-18v-311q29 -8 59.5 -17.5t59.5 -21.5v-86h-541v86q29 12 58.5 21.5t60.5 17.5v774 q-31 6 -60.5 16.5t-58.5 22.5v86h541v-86q-29 -12 -59.5 -22.5t-59.5 -16.5v-326l33 5q29 39 63.5 99t79.5 126t75 109.5t64.5 71.5t87 40t144.5 14z" />
<glyph unicode="&#x2000;" horiz-adv-x="920" />
<glyph unicode="&#x2001;" horiz-adv-x="1841" />
<glyph unicode="&#x2002;" horiz-adv-x="920" />
<glyph unicode="&#x2003;" horiz-adv-x="1841" />
<glyph unicode="&#x2004;" horiz-adv-x="613" />
<glyph unicode="&#x2005;" horiz-adv-x="460" />
<glyph unicode="&#x2006;" horiz-adv-x="306" />
<glyph unicode="&#x2007;" horiz-adv-x="306" />
<glyph unicode="&#x2008;" horiz-adv-x="230" />
<glyph unicode="&#x2009;" horiz-adv-x="368" />
<glyph unicode="&#x200a;" horiz-adv-x="102" />
<glyph unicode="&#x2010;" horiz-adv-x="774" d="M702 700v-202h-663v202h663z" />
<glyph unicode="&#x2011;" horiz-adv-x="774" d="M702 700v-202h-663v202h663z" />
<glyph unicode="&#x2012;" horiz-adv-x="774" d="M702 700v-202h-663v202h663z" />
<glyph unicode="&#x2013;" horiz-adv-x="1116" d="M57 659h967v-163h-967v163z" />
<glyph unicode="&#x2014;" horiz-adv-x="1521" d="M57 659h1373v-163h-1373v163z" />
<glyph unicode="&#x2018;" horiz-adv-x="397" d="M37 1024q0 82 31.5 146.5t71.5 111.5t77 75.5t49 35.5l56 -68q-25 -25 -52.5 -66.5t-40.5 -80.5q18 -10 42 -29t43.5 -41.5t32.5 -44t13 -35.5q0 -23 -19 -52.5t-42 -51.5q-20 -20 -49 -41t-51 -21q-18 0 -46 17.5t-53.5 43t-44 53.5t-18.5 48z" />
<glyph unicode="&#x2019;" horiz-adv-x="397" d="M360 1231q0 -82 -31.5 -146.5t-71.5 -111.5t-77 -76t-49 -35l-55 68q25 25 52.5 66.5t39.5 80.5q-18 8 -42 27.5t-43.5 42t-32.5 44t-13 36.5q0 23 19.5 52.5t41.5 51.5q20 20 49 41t52 21q18 0 45.5 -17.5t53.5 -43t44 -53.5t18 -48z" />
<glyph unicode="&#x201c;" horiz-adv-x="765" d="M406 1024q0 82 31.5 146.5t71.5 111.5t77 75.5t49 35.5l55 -68q-25 -25 -52.5 -66.5t-39.5 -80.5q18 -10 42 -29t43 -41.5t32.5 -44t13.5 -35.5q0 -23 -19.5 -52.5t-41.5 -51.5q-20 -20 -49 -41t-52 -21q-18 0 -45.5 17.5t-53.5 43t-44 53.5t-18 48zM37 1024 q0 82 31.5 146.5t71.5 111.5t77 75.5t49 35.5l56 -68q-25 -25 -52.5 -66.5t-40.5 -80.5q18 -10 42 -29t43.5 -41.5t32.5 -44t13 -35.5q0 -23 -19 -52.5t-42 -51.5q-20 -20 -49 -41t-51 -21q-18 0 -46 17.5t-53.5 43t-44 53.5t-18.5 48z" />
<glyph unicode="&#x201d;" horiz-adv-x="765" d="M360 1231q0 -82 -31.5 -146.5t-71.5 -111.5t-77 -76t-49 -35l-55 68q25 25 52.5 66.5t39.5 80.5q-18 8 -42 27.5t-43.5 42t-32.5 44t-13 36.5q0 23 19.5 52.5t41.5 51.5q20 20 49 41t52 21q18 0 45.5 -17.5t53.5 -43t44 -53.5t18 -48zM729 1231q0 -82 -31.5 -146.5 t-71.5 -111.5t-77 -76t-49 -35l-56 68q25 25 52.5 66.5t40.5 80.5q-18 8 -42 27.5t-43.5 42t-32.5 44t-13 36.5q0 23 19 52.5t42 51.5q20 20 49 41t51 21q18 0 46 -17.5t53.5 -43t44 -53.5t18.5 -48z" />
<glyph unicode="&#x201e;" horiz-adv-x="827" d="M391 147q0 -82 -31.5 -146t-71.5 -111.5t-77 -76t-49 -34.5l-56 67q25 25 52.5 67t40.5 81q-18 8 -42 27.5t-43.5 42t-32.5 44t-13 35.5q0 23 19 52.5t42 52.5q20 20 49 40.5t51 20.5q18 0 46 -17.5t53.5 -43t44 -53.5t18.5 -48zM760 147q0 -82 -32 -146t-72 -111.5 t-76.5 -76t-49.5 -34.5l-55 67q25 25 52.5 67t39.5 81q-18 8 -41.5 27.5t-43 42t-33 44t-13.5 35.5q0 23 19.5 52.5t42.5 52.5q20 20 48.5 40.5t51.5 20.5q18 0 46 -17.5t53.5 -43t44 -53.5t18.5 -48z" />
<glyph unicode="&#x2022;" horiz-adv-x="808" d="M68 657q0 68 24.5 128.5t68.5 105.5t103.5 71.5t126.5 26.5q68 0 127.5 -26.5t102.5 -71.5t67.5 -105.5t24.5 -128.5t-24.5 -128t-67.5 -105t-102.5 -70.5t-127.5 -25.5t-127 25.5t-103 70.5t-68.5 105t-24.5 128z" />
<glyph unicode="&#x2026;" horiz-adv-x="1161" d="M360 131q0 -16 -16 -42t-39 -48q-23 -23 -47.5 -39t-44.5 -16q-16 0 -42 16t-48 39q-23 23 -39 48.5t-16 41.5q0 18 16 44t39 48q23 23 47.5 39.5t42.5 16.5q16 0 43 -16.5t49 -39.5q23 -23 39 -48.5t16 -43.5zM727 131q0 -16 -16.5 -42t-38.5 -48q-23 -23 -47.5 -39 t-44.5 -16q-16 0 -42 16t-49 39t-39 48.5t-16 41.5q0 18 16.5 44t38.5 48q23 23 47.5 39.5t43.5 16.5q16 0 42.5 -16.5t49.5 -39.5t39 -48.5t16 -43.5zM1094 131q0 -16 -16.5 -42t-39.5 -48q-23 -23 -47 -39t-43 -16q-18 0 -43.5 16t-48.5 39t-39 48.5t-16 41.5 q0 18 16.5 44t38.5 48q23 23 47.5 39.5t44.5 16.5q16 0 42 -16.5t48 -39.5q23 -23 39.5 -48.5t16.5 -43.5z" />
<glyph unicode="&#x202f;" horiz-adv-x="368" />
<glyph unicode="&#x205f;" horiz-adv-x="460" />
<glyph unicode="&#x20ac;" horiz-adv-x="980" d="M342 561v-59h459l-39 -131h-406q23 -98 101 -158.5t188 -60.5q53 0 121 22.5t152 69.5l45 -90q-86 -86 -180.5 -127t-186.5 -41q-100 0 -179 30.5t-138.5 83t-97.5 123t-54 148.5h-111v131h99v28.5t2 30.5h-101v133h127q25 76 69 141.5t107.5 114.5t146.5 77t187 28 q59 0 131 -13.5t158 -35.5l-59 -222q-35 23 -74 47.5t-77 46t-77 36t-73 14.5q-41 0 -76 -18.5t-62.5 -51.5t-48 -75t-33.5 -89h494l-39 -133h-475z" />
<glyph unicode="&#x2122;" horiz-adv-x="1323" d="M559 829l66 695h135l147 -408l150 408h133l61 -695h-151l-33 414l-145 -403h-72l-145 395l-33 -406h-113zM238 829v594h-197v101h541v-101h-197v-594h-147z" />
<glyph unicode="&#x25fc;" horiz-adv-x="1024" d="M0 1024h1024v-1024h-1024v1024z" />
</font>
</defs>
</svg>
