<?xml version="1.0" standalone="no"?>
<!DOCTYPE svg PUBLIC "-//W3C//DTD SVG 1.1//EN" "http://www.w3.org/Graphics/SVG/1.1/DTD/svg11.dtd" >
<svg xmlns="http://www.w3.org/2000/svg">
<metadata></metadata>
<defs>
<font id="kunderaitalic" horiz-adv-x="720" >
<font-face units-per-em="2048" ascent="1536" descent="-512" />
<missing-glyph horiz-adv-x="512" />
<glyph horiz-adv-x="0" />
<glyph unicode="&#xd;" horiz-adv-x="512" />
<glyph horiz-adv-x="0" />
<glyph horiz-adv-x="0" />
<glyph unicode=" "  horiz-adv-x="512" />
<glyph unicode="&#x09;" horiz-adv-x="512" />
<glyph unicode="&#xa0;" horiz-adv-x="512" />
<glyph unicode="!" horiz-adv-x="548" d="M223 532l105 816q35 25 66.5 44t66.5 19q37 0 61.5 -19.5t46.5 -43.5l-243 -816h-103zM307 115q-2 -16 -19.5 -39t-41 -43.5t-48 -33.5t-40.5 -13t-34 12t-31 29.5t-22.5 37t-9.5 35.5q0 23 15.5 46.5t38 42t48 30.5t48.5 12q16 0 33.5 -12t31 -30.5t22.5 -39t9 -34.5z " />
<glyph unicode="&#x22;" horiz-adv-x="620" d="M258 1559q25 10 45.5 15t40.5 5q41 0 76 -20l-193 -596h-96zM512 1559q25 10 45.5 15t40.5 5q41 0 76 -20l-193 -596h-96z" />
<glyph unicode="#" horiz-adv-x="1157" d="M666 281h-289l-86 -328h-119l86 328h-213l25 116h219l82 308h-215l24 116h221l93 342h118l-92 -342h289l92 342h119l-92 -342h198l-24 -116h-205l-82 -308h201l-25 -116h-207l-86 -328h-118zM408 397h288l82 308h-289z" />
<glyph unicode="$" horiz-adv-x="831" d="M725 852q-29 16 -63.5 35.5t-67.5 36t-59.5 27t-38.5 10.5q-27 0 -54.5 -12.5t-50 -33t-37 -48t-14.5 -58.5q0 -27 14.5 -49.5t40.5 -46.5l221 -203q102 -92 103 -199q0 -72 -31 -128t-80 -97t-112.5 -65.5t-130.5 -30.5l-56 -262h-110l55 262q-55 8 -112.5 27.5 t-104.5 45.5l31 144q16 -10 51 -33.5t74.5 -48.5t77.5 -43.5t63 -18.5q33 0 69.5 12.5t67.5 34t50.5 52.5t19.5 67q0 41 -20.5 71t-53.5 62l-184 181q-47 45 -73 86t-26 92q0 72 23.5 126t63.5 92t93.5 60.5t112.5 32.5l64 301h110l-63 -297q43 -4 100 -15t103 -30z" />
<glyph unicode="%" horiz-adv-x="1210" d="M1141 1069l69 -78l-1030 -934l-67 78zM166 836q0 61 27.5 119.5t73.5 104.5t107.5 73.5t127.5 27.5q92 0 150.5 -47t58.5 -135q0 -61 -28 -119.5t-75 -103.5t-107.5 -72t-127.5 -27q-92 0 -149.5 46.5t-57.5 132.5zM485 1120q-47 0 -81.5 -28.5t-59.5 -71.5t-37 -93 t-12 -91q0 -59 24.5 -98.5t75.5 -39.5q47 0 83 29t59.5 71t36 91t12.5 90q0 59 -25 100t-76 41zM578 133q0 61 27.5 119.5t73.5 104.5t107.5 74t126.5 28q92 0 150.5 -47t58.5 -136q0 -61 -27.5 -119.5t-74.5 -103.5t-107.5 -71.5t-128.5 -26.5q-92 0 -149 46t-57 132z M897 418q-47 0 -82 -29t-59.5 -72t-36.5 -93t-12 -91q0 -59 24.5 -98t75.5 -39q47 0 83 28.5t59.5 70.5t35.5 91.5t12 89.5q0 59 -24.5 100.5t-75.5 41.5z" />
<glyph unicode="&#x26;" horiz-adv-x="1247" d="M827 0l-114 236q-84 -84 -151.5 -133.5t-123 -75t-99.5 -33.5t-79 -8q-86 0 -142.5 49t-56.5 155q0 92 36 169t94.5 143.5t133 122t150.5 104.5l-78 164q-31 63 -30 131q0 78 34.5 147.5t93 122t133 83t156.5 30.5q70 0 107 -14.5t78 -32.5l63 14l-51 -241 q-27 -14 -37 -15q-12 0 -14 14.5t-2 36.5q0 72 -32 118t-114 46q-41 0 -83 -14t-75.5 -40t-54 -63.5t-20.5 -85.5q0 -33 8 -59l107 -227l63 39h520l-26 -131h-107q-72 -104 -130 -187.5t-116 -154.5l197 -410h-238zM383 127q20 0 46 5t60.5 23.5t81.5 53.5t109 94l-172 359 q-47 -33 -91 -74t-80 -88t-57.5 -103.5t-21.5 -120.5q0 -78 36 -113.5t89 -35.5zM709 752l129 -277q47 55 98 124t115 153h-342z" />
<glyph unicode="'" horiz-adv-x="493" d="M332 1559q25 10 45 15t41 5q41 0 76 -20l-193 -596h-96z" />
<glyph unicode="(" horiz-adv-x="569" d="M328 -375q-115 172 -173.5 344t-58.5 353q0 170 50.5 327.5t136.5 304t199.5 280.5t240.5 257l20 -35q-96 -133 -182 -278.5t-151.5 -302t-104.5 -322.5t-39 -340q0 -143 26.5 -280.5t74.5 -274.5z" />
<glyph unicode=")" horiz-adv-x="573" d="M-123 -342q100 131 186.5 273.5t149.5 296t100 317.5t37 340q0 135 -20.5 276.5t-65.5 294.5l33 35q117 -182 173 -359.5t56 -351.5q0 -170 -50 -326.5t-135 -301t-198.5 -276.5t-240.5 -251z" />
<glyph unicode="*" horiz-adv-x="911" d="M502 1143l-195 -248q-14 0 -27.5 3t-27.5 13q-10 10 -15.5 24.5t-7.5 29.5l236 213l-270 59v16.5t2 18.5q6 29 21 45t38 31l236 -115l32 285q16 8 31.5 14t32.5 6q18 0 31.5 -6t25.5 -14l-92 -285l285 115q29 -25 28 -60q0 -12 -4 -25.5t-8 -25.5l-297 -59l145 -213 q-8 -14 -18 -28.5t-27 -25.5q-18 -10 -34.5 -13t-30.5 -3z" />
<glyph unicode="+" horiz-adv-x="1181" d="M573 719l86 405h129l-86 -405h435l-27 -123h-434l-98 -465h-129l98 465h-434l26 123h434z" />
<glyph unicode="," horiz-adv-x="425" d="M311 119q-16 -80 -54 -140.5t-78 -102.5t-74.5 -65.5t-45.5 -29.5l-18 31q33 27 74 70.5t61 103.5q-18 0 -37.5 11t-36 28.5t-26.5 38t-10 38.5q0 20 15 43t38.5 42.5t49.5 31.5t46 12q16 0 32.5 -12t30 -28.5t22.5 -37t11 -34.5z" />
<glyph unicode="-" d="M684 643l-31 -133h-563l29 133h565z" />
<glyph unicode="." horiz-adv-x="378" d="M307 115q-2 -16 -19.5 -39t-41 -43.5t-48 -33.5t-40.5 -13t-34 12t-31 29.5t-22.5 37t-9.5 35.5q0 23 15.5 46.5t38 42t48 30.5t48.5 12q16 0 33.5 -12t31 -30.5t22.5 -39t9 -34.5z" />
<glyph unicode="/" horiz-adv-x="755" d="M70 -90h-111l811 1579h109z" />
<glyph unicode="0" horiz-adv-x="1218" d="M102 438q0 90 21.5 197.5t63.5 215t103.5 208t141.5 178.5t177.5 124t211.5 46q98 0 170 -35t118 -96.5t68.5 -145t22.5 -182.5q0 -92 -21.5 -200.5t-64.5 -215t-105.5 -206t-142.5 -175t-179 -120.5t-214 -45q-96 0 -166.5 33.5t-116 94t-67 143.5t-21.5 181zM788 1331 q-80 0 -147.5 -46t-120.5 -122t-94 -173t-67.5 -198.5t-40 -199.5t-13.5 -174q0 -72 11.5 -135.5t38 -110.5t68.5 -73.5t103 -26.5q82 0 148.5 47t120 125t92.5 176t65.5 201.5t39 203t12.5 176.5q0 68 -10.5 128.5t-36 105.5t-67 70.5t-102.5 25.5z" />
<glyph unicode="1" horiz-adv-x="770" d="M715 1393l-279 -1315q41 -8 79 -17.5t71 -23.5l-6 -37h-519l7 37q39 14 85 24.5t91 16.5l245 1161l-247 -63l10 55l410 192z" />
<glyph unicode="2" horiz-adv-x="985" d="M8 117q63 47 148.5 116.5t173.5 155.5t174 182.5t153.5 196.5t108.5 201.5t41 197.5q0 70 -36 118t-136 48q-76 0 -126 -39t-84 -85t-56.5 -85t-42.5 -39q-14 0 -50 23l46 207q88 43 179 67.5t181 24.5q154 0 234.5 -58.5t80.5 -181.5q0 -86 -36.5 -178t-98 -183 t-142.5 -180t-168 -170t-176 -153t-165 -127h498q16 63 58 127t77 98h33l-84 -401h-764l-21 117v0z" />
<glyph unicode="3" horiz-adv-x="960" d="M401 745q70 25 139.5 60t125 84t90.5 114.5t35 153.5q0 74 -40 125t-126 51q-76 0 -126 -39t-84 -85t-56.5 -85t-43.5 -39q-14 0 -49 23l45 207q88 43 179.5 67.5t181.5 24.5q78 0 134 -19.5t92 -51t53.5 -74.5t17.5 -93q0 -70 -27 -132t-73 -116.5t-106.5 -95.5 t-125.5 -67q143 -18 206.5 -94t63.5 -179q0 -100 -47 -190t-125 -158.5t-177 -109.5t-204 -41q-115 0 -201.5 42t-146.5 119l96 89q41 -78 103.5 -113t134.5 -35q74 0 139.5 32t115.5 84t80 121.5t30 145.5q0 84 -47.5 147.5t-159.5 73.5l-90 -26z" />
<glyph unicode="4" horiz-adv-x="937" d="M905 1423l53 -30l-172 -807h115l-37 -72l-94 -4l-106 -510h-193l107 502l-490 -21l-6 105zM594 586l111 522l-510 -522h399z" />
<glyph unicode="5" horiz-adv-x="1015" d="M481 1393h606l-32 -158h-502l-188 -410q37 12 94 23.5t98 11.5q106 0 182 -25.5t124 -69.5t70.5 -102.5t22.5 -123.5q0 -104 -46 -203.5t-123.5 -177.5t-180 -125t-215.5 -47q-115 0 -202 42t-146 119l96 89q41 -78 103.5 -113t134.5 -35q80 0 148.5 34t118.5 90t79 130 t29 154q0 113 -65.5 189.5t-199.5 76.5q-59 0 -103 -10.5t-85 -22.5l-23 47z" />
<glyph unicode="6" horiz-adv-x="1028" d="M969 1319q-49 14 -99 14q-90 0 -172 -48t-150.5 -127t-123.5 -180t-94 -211t-59.5 -217.5t-20.5 -197.5q0 -139 52 -207.5t128 -68.5q88 0 151.5 46t104.5 115.5t61.5 153.5t20.5 162q0 102 -42 158.5t-128 56.5q-88 0 -225 -78l28 88q78 43 147.5 63.5t131.5 20.5 q125 0 203 -70.5t78 -213.5q0 -109 -41 -215.5t-115 -190.5t-177.5 -135t-226.5 -51q-86 0 -148.5 31.5t-102 86t-58 129t-18.5 160.5q0 96 25.5 209t73.5 225.5t117.5 217t157 185.5t190.5 129t220 48q43 0 78 -5t74 -20z" />
<glyph unicode="7" horiz-adv-x="888" d="M1012 1335l-783 -1335h-184l805 1217h-604l37 176h708z" />
<glyph unicode="8" horiz-adv-x="978" d="M410 635q-41 -29 -78 -67t-66.5 -82t-47 -94t-17.5 -105q0 -53 18.5 -94t49 -68t70.5 -40t83 -13q55 0 106.5 22.5t90 60.5t62.5 90t24 111q0 55 -33 100.5t-99 98.5l-186 150q-70 53 -103.5 119.5t-33.5 138.5q0 84 37 163.5t98 141t143 99.5t172 38q63 0 114.5 -19.5 t86.5 -53.5t53.5 -79t18.5 -96q0 -68 -26.5 -128t-69.5 -113.5t-98.5 -97.5t-112.5 -77l69 -55q156 -129 156 -278q0 -94 -44 -172t-114.5 -133.5t-162 -86t-185.5 -30.5q-88 0 -152.5 21.5t-106.5 57t-62.5 85t-20.5 104.5q0 70 25.5 132.5t68.5 115.5t99.5 98t117.5 82z M678 1333q-57 0 -105.5 -27.5t-83 -71.5t-54 -100.5t-19.5 -111.5q0 -31 7 -56.5t23 -39.5l175 -148q43 31 82.5 71t71.5 88t50.5 102.5t18.5 113.5q0 92 -49 136t-117 44z" />
<glyph unicode="9" horiz-adv-x="995" d="M121 74q49 -14 100 -15q90 0 172 48.5t150.5 127t124 180t94.5 210t59.5 216t20.5 197.5q0 141 -53.5 210t-129.5 69q-88 0 -151.5 -46t-104.5 -117t-60 -156t-19 -160q0 -100 41 -156.5t127 -56.5q90 0 225 77l-29 -88q-150 -84 -276 -84q-125 0 -204 72t-79 217 q0 109 42 214.5t116.5 188.5t177 134t225.5 51q86 0 147.5 -30.5t101.5 -86t58.5 -129.5t18.5 -160q0 -96 -25.5 -208.5t-74 -225t-117 -218t-155.5 -186.5t-190.5 -129t-220.5 -48q-43 0 -77.5 5t-73.5 19z" />
<glyph unicode=":" horiz-adv-x="454" d="M307 115q-2 -16 -19.5 -39t-41 -43.5t-48 -33.5t-40.5 -13t-34 12t-31 29.5t-22.5 37t-9.5 35.5q0 23 15.5 46.5t38 42t48 30.5t48.5 12q16 0 33.5 -12t31 -30.5t22.5 -39t9 -34.5zM475 907q-2 -16 -19.5 -38.5t-41 -43t-48 -34t-40.5 -13.5t-34 12.5t-31 30t-22.5 37 t-9.5 35.5q0 23 15.5 46.5t38 41.5t48 30.5t48.5 12.5q16 0 33.5 -12.5t31 -30.5t22.5 -39t9 -35z" />
<glyph unicode=";" horiz-adv-x="491" d="M469 907q-2 -16 -19.5 -38.5t-41 -43t-48 -34t-41.5 -13.5q-16 0 -33.5 12.5t-30.5 30t-22.5 37t-9.5 35.5q0 23 15.5 46.5t38 41.5t48 30.5t48.5 12.5q16 0 33.5 -12.5t31 -30.5t22.5 -39t9 -35zM301 119q-16 -80 -54 -140.5t-78 -102.5t-75 -65.5t-45 -29.5l-18 31 q33 27 73.5 70.5t61.5 103.5q-18 0 -37.5 11t-36 28.5t-27 38t-10.5 38.5q0 20 15.5 43t39 42.5t49 31.5t46.5 12q16 0 32.5 -12t30 -28.5t22.5 -37t11 -34.5z" />
<glyph unicode="&#x3c;" horiz-adv-x="1208" d="M123 600l1036 438l29 -112l-885 -373l725 -373l-74 -110l-852 436z" />
<glyph unicode="=" horiz-adv-x="1177" d="M1133 813l-27 -123h-942l26 123h943zM1081 573l-26 -122h-942l26 122h942z" />
<glyph unicode="&#x3e;" horiz-adv-x="1222" d="M1147 506l-1036 -436l-29 110l885 373l-725 373l73 112l852 -438z" />
<glyph unicode="?" horiz-adv-x="743" d="M215 446q-29 31 -29 80q0 37 32 91.5t80 120t106.5 137t110.5 142t91 137.5t51 120q0 53 -75 53q-33 0 -74 -9t-84 -24.5t-88 -35t-84 -39.5l-10 135q59 23 134 39t152 16q51 0 103.5 -9t93.5 -29.5t67.5 -54.5t26.5 -85q0 -66 -32.5 -122t-83 -109.5t-113 -104.5 t-121.5 -102.5t-108.5 -105.5t-75.5 -114l51 -86zM328 115q-2 -16 -19.5 -39t-41 -43.5t-48 -33.5t-41.5 -13q-16 0 -33.5 12t-31 29.5t-22.5 37t-9 35.5q0 23 15.5 46.5t38 42t48 30.5t47.5 12q16 0 34 -12t31 -30.5t22.5 -39t9.5 -34.5z" />
<glyph unicode="@" horiz-adv-x="1605" d="M1329 -37q-154 -113 -326 -172t-335 -59q-125 0 -221.5 32.5t-167.5 92.5q-102 84 -149.5 202.5t-47.5 251.5q0 92 22.5 186.5t65.5 183.5t104.5 169t137.5 143q135 115 302 174.5t328 59.5q135 0 253 -49.5t192 -145.5q47 -59 72.5 -135t25.5 -168q0 -141 -57.5 -276.5 t-173.5 -233.5q-76 -66 -168 -102.5t-191 -36.5q-27 0 -53.5 7t-48 21.5t-35.5 37t-14 55.5q0 10 4 30q-41 -35 -87 -63.5t-90 -48t-83 -29.5t-70 -10q-55 0 -76.5 48t-21.5 110q0 70 23.5 150.5t65.5 160.5t99.5 153.5t127 130t147.5 90t159 33.5q86 0 172 -43l-210 -657 q-4 -10 -6.5 -19.5t-2.5 -25.5q0 -47 66 -47q74 0 138.5 40t117.5 105q66 86 100.5 193.5t34.5 224.5q0 145 -66 250q-53 84 -146 133t-222 49q-137 0 -281.5 -59.5t-261.5 -171.5q-109 -104 -172 -253t-63 -317q0 -127 45 -238.5t145 -187.5q121 -92 318 -92q133 0 276 42 t279 120zM1051 877q-14 8 -33 11t-35 3q-57 0 -108.5 -33t-95.5 -87t-78.5 -121.5t-60.5 -138.5t-39 -137.5t-13 -117.5q0 -27 7 -43t23 -16q61 0 131 30.5t115 75.5z" />
<glyph unicode="A" horiz-adv-x="1218" d="M1200 0h-446l8 43q27 10 56.5 17.5t60.5 13.5l-54 377h-422l-202 -373q57 -12 110 -35l-8 -43h-405l8 43q41 16 83 26.5t83 16.5l749 1307h72l192 -1315q33 -6 65 -15.5t58 -19.5zM449 535h364l-65 546z" />
<glyph unicode="B" horiz-adv-x="1179" d="M20 0l9 43q63 23 135 35l262 1237q-33 6 -63.5 14t-55.5 21l8 43h502q176 0 269.5 -64.5t93.5 -185.5q0 -139 -80 -230.5t-230 -150.5q135 -27 209 -94.5t74 -182.5q0 -106 -49 -195t-133 -153.5t-196.5 -100.5t-242.5 -36h-512zM358 90h76q117 0 214 21.5t167 67.5 t109 120t39 178q0 68 -27 112t-71 69.5t-100 36t-118 10.5h-158zM616 1309l-110 -527h76q123 0 202.5 31t126.5 80t66.5 109.5t19.5 121.5q0 55 -24.5 91t-64.5 56.5t-91 29t-104 8.5h-97z" />
<glyph unicode="C" horiz-adv-x="1105" d="M1194 1081q-20 -10 -39.5 -14t-30.5 -4q-18 0 -28.5 12t-15.5 32.5t-10 47.5t-13 53q-8 20 -18.5 42t-30 37.5t-49 25.5t-74.5 10q-125 0 -232.5 -66.5t-187.5 -177t-126 -252t-46 -290.5q0 -90 20.5 -167t62.5 -133.5t104.5 -88t148.5 -31.5q78 0 175 29.5t214 95.5 l10 -49q-117 -109 -240.5 -158t-236.5 -49q-119 0 -205 40t-142.5 107.5t-84 157.5t-27.5 192q0 113 26.5 225.5t78 215t125 190.5t167 153.5t204 102.5t235.5 37q63 0 117.5 -15.5t113.5 -37.5l96 20l-61 -293v0z" />
<glyph unicode="D" horiz-adv-x="1296" d="M20 0l9 43q63 23 135 35l262 1237q-33 6 -63.5 14t-55.5 21l8 43h482q147 0 253.5 -40t175 -108.5t101.5 -160t33 -193.5q0 -182 -69.5 -344t-191.5 -283t-286 -192.5t-352 -71.5h-441zM616 1307l-258 -1217h91q145 0 276 58.5t230.5 162t157.5 245.5t58 312 q0 90 -27.5 170t-87 139.5t-152.5 94.5t-224 35h-64z" />
<glyph unicode="E" horiz-adv-x="1093" d="M1100 1051h-64q-14 23 -25.5 68.5t-11.5 111.5v37.5t5 40.5h-388l-122 -578h329q14 41 37 86t47 88h68l-86 -405h-68q-6 29 -8 57.5t-2 58.5v35h-334l-119 -561h439q29 90 67.5 152.5t67.5 91.5h63l-69 -334h-906l9 43q63 23 135 35l262 1237q-33 6 -63.5 14t-55.5 21 l8 43h856z" />
<glyph unicode="F" horiz-adv-x="1093" d="M426 1315q-33 6 -63.5 14t-55.5 21l8 43h856l-71 -342h-64q-14 23 -25.5 68.5t-11.5 111.5v37.5t5 40.5h-388l-122 -578h329q14 41 37 86t47 88h68l-86 -405h-68q-6 29 -8 57.5t-2 58.5v35h-334l-121 -571q41 -6 84 -15.5t72 -21.5l-8 -43h-484l9 43q29 10 64.5 19.5 t70.5 15.5z" />
<glyph unicode="G" horiz-adv-x="1153" d="M1063 193q-59 -51 -125 -90.5t-133.5 -65t-133 -38.5t-120.5 -13q-119 0 -205 40t-142.5 107.5t-84 157.5t-27.5 192q0 113 26.5 225.5t78 215t125 190.5t167 153.5t204 102.5t235.5 37q63 0 117.5 -15.5t113.5 -37.5l96 20l-61 -293q-20 -10 -39.5 -14t-30.5 -4 q-18 0 -28.5 12t-15.5 32.5t-10 47.5t-13 53q-8 20 -18.5 42t-30 37.5t-49 25.5t-74.5 10q-127 0 -234.5 -67.5t-187.5 -178t-125 -253t-45 -292.5q0 -84 18.5 -159.5t60.5 -133t109.5 -91t165.5 -33.5q43 0 100.5 11t122.5 34l74 352q-39 6 -79 15.5t-72 25.5l8 43h348z " />
<glyph unicode="H" horiz-adv-x="1417" d="M467 0h-447l9 43q63 23 135 35l262 1237q-33 6 -63.5 14t-55.5 21l8 43h447l-8 -43q-31 -12 -66 -20.5t-70 -14.5l-120 -561h585l121 561q-33 6 -63.5 14t-55.5 21l9 43h446l-8 -43q-31 -12 -65.5 -20.5t-69.5 -14.5l-262 -1237q31 -6 62.5 -15.5t55.5 -19.5l-8 -43h-446 l8 43q63 23 135 35l125 592h-586l-125 -592q31 -6 63 -15.5t56 -19.5z" />
<glyph unicode="I" horiz-adv-x="638" d="M467 0h-447l9 43q63 23 135 35l262 1237q-33 6 -63.5 14t-55.5 21l8 43h447l-8 -43q-31 -12 -66 -20.5t-70 -14.5l-262 -1237q31 -6 63 -15.5t56 -19.5z" />
<glyph unicode="J" horiz-adv-x="651" d="M766 1350q-31 -12 -65.5 -20.5t-69.5 -14.5l-273 -1280q-23 -111 -86 -199t-142 -154.5t-161 -112.5t-139 -73l-16 80l182 154q51 47 94 98t60 127l288 1360q-33 6 -63.5 14t-55.5 21l9 43h446z" />
<glyph unicode="K" horiz-adv-x="1232" d="M1384 1350q-33 -12 -66.5 -21.5t-66.5 -15.5l-573 -586q14 -6 52 -31.5t67 -74.5l301 -545q31 -6 60.5 -14.5t53.5 -18.5l-8 -43h-305l-344 645h-80l-119 -567q31 -6 63 -15.5t56 -19.5l-8 -43h-447l9 43q63 23 135 35l262 1237q-33 6 -63.5 14t-55.5 21l8 43h447l-8 -43 q-31 -12 -66 -21.5t-70 -15.5l-126 -592l77 12l531 578q-31 6 -61.5 15t-59.5 24l8 43h406z" />
<glyph unicode="L" horiz-adv-x="1077" d="M29 43q63 23 135 35l262 1237q-33 6 -63.5 14t-55.5 21l8 43h484l-8 -43q-35 -12 -81 -22.5t-94 -16.5l-258 -1221h439q29 90 67.5 153.5t67.5 92.5h63l-69 -336h-906z" />
<glyph unicode="M" horiz-adv-x="1691" d="M385 0h-405l8 43q76 29 151 41l389 1231q-63 12 -110 35l8 43h309l137 -996l578 996h313l-8 -43q-29 -10 -62.5 -19.5t-66.5 -15.5l-164 -1237q61 -12 121 -35l-8 -43h-447l9 43q29 10 61.5 18.5t63.5 14.5l149 1046l-625 -1095h-77l-146 1075l-309 -1018q74 -12 139 -41 z" />
<glyph unicode="N" horiz-adv-x="1345" d="M1481 1350q-41 -16 -80 -25.5t-78 -15.5l-268 -1270l-117 -53l-453 1130l-4 -2l-26 -180l-181 -850q74 -12 140 -41l-8 -43h-406l8 43q80 29 156 41l260 1223q-35 6 -72 16t-67 27l8 43h319l408 -1028l6 2l35 223l151 719q-35 6 -70.5 15t-66.5 26l8 43h406z" />
<glyph unicode="O" horiz-adv-x="1314" d="M92 473q0 100 26.5 207.5t76 212t120 198t158.5 164t192.5 111.5t223.5 41q111 0 195.5 -36t143 -101.5t88.5 -155.5t30 -201q0 -102 -27 -209.5t-77 -211t-120.5 -195.5t-161 -160.5t-196 -109.5t-223.5 -41q-109 0 -193 35.5t-141 100t-86 153.5t-29 198zM854 1323 q-90 0 -167 -41t-137.5 -109.5t-106.5 -156.5t-77.5 -183.5t-47 -188.5t-15.5 -171q0 -84 16.5 -156.5t52.5 -126t90 -84t132 -30.5q92 0 169 42t137.5 110.5t104.5 157.5t73.5 184.5t44 189.5t14.5 174t-15.5 151.5t-49.5 124t-87 83t-131 30.5z" />
<glyph unicode="P" horiz-adv-x="1128" d="M356 80q41 -6 84 -15.5t72 -21.5l-8 -43h-484l9 43q29 10 64.5 19.5t70.5 15.5l262 1237q-33 6 -63.5 14t-55.5 21l8 43h471q205 0 323 -81t118 -229q0 -98 -49.5 -192t-134.5 -167t-197.5 -117t-237.5 -44h-57l14 70h13q86 0 168.5 29.5t147 86t104.5 139.5t40 189 t-86 169t-282 63h-54z" />
<glyph unicode="Q" horiz-adv-x="1314" d="M881 33q45 -53 93 -103.5t95 -89.5t93 -61.5t89 -22.5l-4 -51q-94 -23 -172 -22q-59 0 -116.5 18t-98.5 72q-51 68 -94 124t-82 105q-35 -8 -70.5 -12t-72.5 -4q-109 0 -193 35.5t-141 100t-86 154t-29 197.5q0 100 26.5 207.5t76 212t120 198t158.5 164t192.5 111.5 t223.5 41q111 0 195.5 -36t143 -101.5t88.5 -155.5t30 -201q0 -117 -35 -240.5t-99.5 -238.5t-155.5 -211t-204 -157zM854 1323q-90 0 -167 -41t-137.5 -109.5t-106.5 -156.5t-77.5 -183.5t-47 -188.5t-15.5 -171q0 -31 2 -60.5t6 -58.5q27 6 70 6q102 0 204.5 -61 t202.5 -166q88 55 154 151.5t109 209t64.5 228.5t21.5 212q0 80 -15.5 151.5t-49.5 124t-87 83t-131 30.5zM623 76q-90 109 -156 160t-127 51h-12q29 -96 93 -153.5t173 -57.5h29z" />
<glyph unicode="R" horiz-adv-x="1232" d="M467 0h-447l9 43q29 10 64.5 19.5t70.5 15.5l262 1237q-33 6 -63.5 14t-55.5 21l8 43h469q205 0 326 -74t121 -219q0 -78 -28.5 -148.5t-79 -130t-120 -106.5t-149.5 -76q16 -14 32.5 -33.5t28.5 -48.5l207 -481q31 -6 58.5 -14.5t52.5 -18.5l-8 -43h-303l-254 602h-201 l-111 -524q66 -14 119 -35zM481 672h92q86 0 171 24.5t151 76.5t106.5 132t40.5 191q0 104 -88 158.5t-286 54.5h-52z" />
<glyph unicode="S" horiz-adv-x="1009" d="M254 184q27 -55 92.5 -80.5t140.5 -25.5q113 0 185.5 55t72.5 146q0 41 -21.5 89t-68.5 99l-274 313q-53 59 -93 123t-40 135q0 94 37 163t96 115t137 68.5t162 22.5q131 0 250 -53l96 20l-61 -293q-41 -18 -58 -18q-18 0 -28.5 12t-15.5 32.5t-10 47.5t-13 53 q-23 61 -76 90t-113 29q-41 0 -80 -12t-68.5 -37t-47 -61.5t-17.5 -86.5q0 -35 20.5 -72.5t55.5 -76.5l295 -328q53 -59 96 -130.5t43 -157.5q0 -92 -46 -163t-117.5 -119t-159.5 -72.5t-172 -24.5q-74 0 -148 15t-139 48l-105 -31l68 314q37 18 57 18t29.5 -16.5t13.5 -42 t8.5 -54t16.5 -53.5z" />
<glyph unicode="T" horiz-adv-x="1144" d="M1245 1051h-43q-14 23 -25.5 68.5t-11.5 111.5v36.5t4 39.5h-295l-260 -1229q31 -6 63 -15.5t56 -19.5l-8 -43h-446l8 43q63 23 135 35l260 1229h-295q-31 -94 -71 -161t-68 -95h-43l71 342h1041z" />
<glyph unicode="U" horiz-adv-x="1216" d="M1427 1350q-41 -16 -79.5 -25.5t-77.5 -15.5l-172 -815q-33 -152 -87.5 -250.5t-128 -155.5t-165.5 -79.5t-199 -22.5q-76 0 -145.5 21.5t-122.5 63.5t-85 104.5t-32 143.5q0 6 1 17.5t7 44.5t18.5 94.5t35 170t57.5 271t84 398.5q-33 6 -63.5 14t-55.5 21l8 43h447 l-8 -43q-31 -12 -66 -20.5t-70 -14.5q-47 -217 -78.5 -369.5t-53 -253t-33 -158t-16.5 -88t-6 -41t-1 -16.5q0 -68 23.5 -121t61.5 -90t89 -56.5t107 -19.5q55 0 111 19.5t103.5 59.5t84 103.5t55.5 151.5l184 873q-35 6 -69.5 15t-67.5 26l8 43h406z" />
<glyph unicode="V" horiz-adv-x="1255" d="M1493 1350q-41 -16 -80 -25.5t-78 -15.5l-727 -1309h-67l-226 1313q-37 6 -71.5 15t-59.5 22l9 43h487l-8 -43q-29 -10 -64 -18.5t-69 -14.5l145 -973l524 967q-31 6 -61.5 15t-59.5 24l9 43h405z" />
<glyph unicode="W" horiz-adv-x="1882" d="M2120 1350q-78 -29 -156 -41l-686 -1309h-68l-151 967l-506 -967h-68l-194 1315q-35 6 -70 15t-57 20l8 43h487l-8 -43q-59 -23 -137 -35l117 -967l403 791l-26 176q-35 6 -70 15t-57 20l8 43h487l-8 -43q-59 -23 -137 -35l125 -967l489 961q-68 12 -131 41l8 43h406z " />
<glyph unicode="X" horiz-adv-x="1185" d="M1182 0h-467l8 43q49 20 106 29l-194 503l-387 -499q53 -12 104 -33l-8 -43h-405l8 43q76 29 151 41l496 602l-225 627q-37 6 -73 15t-60 22l8 43h487l-8 -43q-29 -10 -59.5 -18.5t-65.5 -14.5l154 -467l346 461q-33 6 -61.5 16t-57.5 23l8 43h406l-9 -43 q-76 -29 -151 -41l-442 -559l264 -672q37 -6 71.5 -15.5t63.5 -19.5z" />
<glyph unicode="Y" horiz-adv-x="1216" d="M784 0h-446l8 43q29 10 64.5 19.5t70.5 15.5l90 424l-243 811q-39 6 -77 15t-65 22l9 43h487l-8 -43q-27 -10 -58.5 -17.5t-66.5 -13.5l190 -672l428 664q-33 6 -61.5 16t-56.5 23l8 43h405l-8 -43q-43 -16 -86 -27.5t-84 -15.5l-514 -772l-96 -457q66 -14 119 -35z" />
<glyph unicode="Z" horiz-adv-x="1064" d="M1176 1321l-934 -1215h536q8 31 24.5 69t37 74t41 66.5t39.5 46.5h59l-76 -362h-887l15 135l903 1168h-473q-10 -31 -26.5 -69t-36 -73t-40 -64.5t-36.5 -45.5h-60l72 342h837z" />
<glyph unicode="[" horiz-adv-x="591" d="M344 -467h-332l412 1940h332l-13 -58h-190l-387 -1825h190z" />
<glyph unicode="\" horiz-adv-x="575" d="M184 1489h109l139 -1579h-110z" />
<glyph unicode="]" horiz-adv-x="589" d="M-49 -410h188l387 1825h-190l12 58h332l-412 -1940h-329z" />
<glyph unicode="^" horiz-adv-x="786" d="M633 1458l153 -616h-112l-113 506l-325 -506h-113l416 616h94z" />
<glyph unicode="_" horiz-adv-x="813" d="M20 -123h725l-20 -96h-725z" />
<glyph unicode="`" horiz-adv-x="411" d="M401 1120q-70 66 -128 148t-109 168q27 41 60.5 64.5t80.5 35.5q8 -59 49 -159.5t125 -205.5z" />
<glyph unicode="a" horiz-adv-x="993" d="M592 174q-37 -35 -90 -68.5t-109.5 -60.5t-109 -43t-88.5 -16q-39 0 -65 24.5t-41 63.5t-21.5 86t-6.5 94q0 129 40 267t117 254t190.5 189.5t259.5 73.5q74 0 147.5 -13t136.5 -36l-184 -870h143l9 -39l-215 -94q-41 0 -79 38.5t-38 104.5q0 8 1 22.5t3 22.5zM756 938 q-45 10 -81 18.5t-67 8.5q-70 0 -123 -37t-93 -97.5t-66.5 -137.5t-44 -156.5t-24.5 -154.5t-7 -130q0 -49 9 -87t38 -38q35 0 79 12.5t89 31.5t84 45t63 50z" />
<glyph unicode="b" horiz-adv-x="999" d="M348 1415h-98l-10 53l323 68l-135 -627q74 59 160 94t164 35q94 0 157.5 -62.5t63.5 -205.5q0 -133 -39 -271.5t-118 -253t-196.5 -187t-273.5 -72.5q-76 0 -147.5 28.5t-128.5 85.5zM262 119q14 -10 34.5 -20.5t43 -17.5t43 -12.5t37.5 -5.5q70 0 123 37t94 97.5 t68.5 136.5t45 154.5t25.5 152.5t8 131q0 61 -19.5 109.5t-45.5 48.5q-35 0 -77 -9.5t-85 -23.5t-81 -32.5t-64 -39.5z" />
<glyph unicode="c" horiz-adv-x="815" d="M61 254q0 131 35 270.5t105.5 253t179 187t260.5 73.5q51 0 112.5 -9t123.5 -30l-33 -159q-12 -12 -32.5 -21.5t-33.5 -9.5q-27 0 -37 22.5t-24.5 50t-44 50t-92.5 22.5q-49 0 -93.5 -37.5t-80 -98t-65.5 -137.5t-49.5 -154.5t-30.5 -150.5t-11 -124q0 -18 1 -37.5t3 -37 t4 -29t6 -13.5q18 -6 43 -6q43 0 98.5 18.5t110.5 43t103.5 50t76.5 42.5l19 -66q-27 -18 -82 -56t-122 -77t-137.5 -68.5t-127.5 -29.5t-93 24.5t-56.5 63.5t-28 86t-7.5 94z" />
<glyph unicode="d" horiz-adv-x="1003" d="M768 119h143l9 -39l-215 -94q-41 0 -79 38.5t-38 104.5q0 8 1 23.5t3 21.5q-37 -33 -80 -65.5t-89 -60.5t-92 -45t-87 -17q-78 0 -130.5 60t-52.5 208q0 129 40 267t117 254t190.5 189.5t259.5 73.5q27 0 53.5 -2t52.5 -6l82 385h-98l-10 53l321 68zM754 938 q-45 10 -80 18.5t-66 8.5q-70 0 -123 -37t-93 -97.5t-67.5 -137.5t-45 -156.5t-24.5 -154.5t-7 -130q0 -14 1 -32.5t4 -36t6 -31t7 -17.5q18 -10 51 -10q37 0 80 16.5t83 39t75 46t57 39.5z" />
<glyph unicode="e" horiz-adv-x="839" d="M61 254q0 119 34 256t102.5 255t176 195.5t255.5 77.5q47 0 92 -14t81 -45t57.5 -78t21.5 -113q0 -27 -38 -63.5t-114 -74.5t-186.5 -72.5t-255.5 -55.5q-20 -82 -28.5 -154.5t-8.5 -115.5q0 -47 5 -81t9 -36q18 -6 41 -6q43 0 100.5 18.5t112.5 43t103.5 50t74.5 42.5 l19 -66q-27 -18 -82 -56t-122 -77t-137.5 -68.5t-127.5 -29.5t-93 24.5t-56.5 63.5t-28 86t-7.5 94zM621 954q-59 0 -108.5 -30.5t-87.5 -80.5t-67.5 -114.5t-50.5 -132.5q55 8 130 26.5t141.5 47t113.5 71.5t47 103q0 45 -33.5 77.5t-84.5 32.5z" />
<glyph unicode="f" horiz-adv-x="673" d="M18 -309q8 31 19.5 75t23 96t23.5 109.5t25 114.5l184 864h-105l-4 47l123 23l17 76q20 100 66 182t107.5 139.5t134.5 88t150 30.5q41 0 101.5 -9t107.5 -30l-28 -131q-10 -12 -26.5 -21.5t-29.5 -9.5q-29 0 -42 19.5t-28.5 43t-41 43t-76.5 19.5t-97.5 -29.5 t-56.5 -80.5l-67 -326h264l-17 -74h-264l-184 -864q-10 -47 -19.5 -100.5t-17.5 -104.5t-12 -94t-4 -70q0 -20 2 -26h-228z" />
<glyph unicode="g" horiz-adv-x="997" d="M598 176q-37 -35 -91 -68.5t-110.5 -61.5t-108.5 -44t-89 -16q-39 0 -64.5 24.5t-41 63.5t-21.5 86t-6 94q0 129 39.5 267t116.5 254t190.5 189.5t259.5 73.5q74 0 147.5 -13t136.5 -36l-249 -1169q-18 -82 -69.5 -154t-122.5 -125t-155 -83.5t-163 -30.5q-72 0 -124.5 9 t-86.5 21q-41 12 -70 31l41 150q25 -10 58.5 -27t73.5 -31t84 -24.5t89 -10.5q41 0 81 13.5t74 44t61.5 84t43.5 133.5zM758 938q-45 10 -80 18.5t-66 8.5q-70 0 -123 -37t-93 -97.5t-66.5 -137.5t-44 -156.5t-24.5 -154.5t-7 -130q0 -49 9 -87t38 -38q35 0 78 12.5t86 31.5 t82 45t63 50z" />
<glyph unicode="h" horiz-adv-x="1069" d="M686 160q51 238 80 374t43 206.5t17 93t3 34.5q0 61 -43 62q-25 0 -76 -20.5t-107 -50.5t-105 -63.5t-70 -60.5l-72 -340q-10 -47 -19 -100t-16.5 -104.5t-12.5 -94.5t-5 -69q0 -20 6 -27h-227q8 31 17.5 74t19.5 93t22.5 106.5t24.5 113.5l217 1028h-98l-11 53l324 68 l-152 -711q31 39 74 77t94.5 68.5t110.5 49t125 18.5q76 0 122 -33.5t46 -121.5l-1 -9q-1 -8 -5 -33.5t-14.5 -74.5t-27 -134t-43 -211t-63.5 -302h144l8 -39l-215 -94q-53 4 -86 48t-33 95q0 11 4 31z" />
<glyph unicode="i" horiz-adv-x="524" d="M582 1292q-4 -16 -23.5 -38.5t-44.5 -43t-51.5 -35t-42.5 -14.5t-33.5 12.5t-33 31t-26 40t-10.5 37.5v10q2 16 21.5 40t44.5 44.5t50.5 34.5t41.5 14t34.5 -13t35 -31.5t27 -40t10.5 -40.5v-8zM477 973q0 -4 -8 -42t-20.5 -98.5t-29 -136t-32.5 -155.5l-90 -422h147 l9 -39l-215 -94q-14 0 -35 8t-40.5 25.5t-32.5 45t-13 64.5q0 10 1 16.5t3 14.5l160 758h-99l-12 53q72 29 132 48t101 19q35 0 54.5 -15t19.5 -50z" />
<glyph unicode="j" horiz-adv-x="555" d="M508 973q0 -10 -9.5 -58.5t-24.5 -120t-33.5 -161.5t-37.5 -182q-45 -217 -104 -486q-23 -102 -74 -187t-117.5 -152.5t-140 -118t-137.5 -80.5l-14 57l174 176q25 25 40 46.5t25.5 44t17.5 48t13 56.5l225 1063h-96l-12 53q72 29 131 48t100 19q35 0 54.5 -15t19.5 -50z M616 1292q-4 -16 -23.5 -38.5t-44 -43t-51 -35t-42.5 -14.5t-34 12.5t-33 31t-25.5 40t-10.5 37.5v10q2 16 21.5 40t44 44.5t50.5 34.5t42 14t34.5 -13t35 -31.5t26.5 -40t10 -40.5v-8z" />
<glyph unicode="k" horiz-adv-x="985" d="M389 551l78 4q35 27 80 89.5t94 133t96 133t88 88.5q27 16 62 26.5t88 12.5l-49 -170l-166 -77l-191 -240q18 -16 38 -36.5t34 -45.5l201 -375h104l12 -53q-33 -20 -69.5 -37.5t-87.5 -17.5q-43 0 -84 19.5t-74 82.5l-209 406h-57l-21 -99q-10 -47 -19 -100t-16.5 -104.5 t-12.5 -94.5t-5 -69q0 -20 6 -27h-227q8 31 17.5 74t19.5 93t22.5 106.5t24.5 113.5l217 1028h-98l-11 53l324 68z" />
<glyph unicode="l" horiz-adv-x="567" d="M381 395q-10 -47 -19.5 -100t-17.5 -104.5t-12 -94.5t-4 -69q0 -20 6 -27h-232q8 31 17.5 74t20 93t22.5 106.5t24 113.5l217 1028h-98l-10 53l328 68z" />
<glyph unicode="m" horiz-adv-x="1611" d="M451 836q33 37 73.5 72.5t90 64t104.5 47t117 18.5q76 0 122 -33.5t46 -119.5q0 -2 -2.5 -19.5t-4.5 -29.5q31 37 73 72.5t93 65.5t108.5 47t121.5 17q76 0 122 -33.5t46 -121.5l-1 -9q-1 -8 -5.5 -33.5t-14.5 -74.5t-26.5 -134t-43 -211t-63.5 -302h143l9 -39l-216 -94 q-53 4 -85.5 48t-32.5 95q0 10 4 31q51 238 79.5 374t43 206.5t17.5 93t3 34.5q0 61 -43 62q-23 0 -69 -17.5t-98 -44t-100 -57.5t-77 -57l-76 -359q-10 -47 -19 -100t-16.5 -104.5t-12.5 -94.5t-5 -69q0 -20 4 -27h-227l86 383q35 154 54.5 245t28.5 140t11 68.5t2 31.5 q0 61 -43 62q-23 0 -68 -17.5t-95 -44t-98 -57.5t-77 -57l-76 -359q-10 -47 -19 -100t-16.5 -104.5t-12.5 -94.5t-5 -69q0 -20 4 -27h-227q8 31 18.5 74t20.5 93t22.5 106.5t24.5 113.5l113 531h-99l-12 53q72 29 131 48t100 19q35 0 55.5 -15t20.5 -50q0 -4 -1 -10.5 t-4 -20.5t-8 -38.5t-13 -67.5z" />
<glyph unicode="n" horiz-adv-x="1064" d="M682 160q51 238 80 374t43 206.5t17 93t3 34.5q0 61 -43 62q-25 0 -75 -20.5t-105 -50.5t-104 -63.5t-70 -60.5l-72 -340q-10 -47 -19 -100t-16.5 -104.5t-12.5 -94.5t-5 -69q0 -20 6 -27h-227q8 31 17.5 74t19.5 93t22.5 106.5t24.5 113.5l113 531h-99l-12 53 q72 29 131 48t100 19q35 0 55.5 -15t20.5 -50q0 -4 -1 -10.5t-4 -21.5t-9 -43t-15 -73q31 39 73 77t92.5 68.5t109.5 49t125 18.5q76 0 122 -33.5t46 -121.5l-1 -9q-1 -8 -5 -33.5t-14.5 -74.5t-27 -134t-43 -211t-63.5 -302h144l8 -39l-215 -94q-53 4 -86 48t-33 95 q0 11 4 31z" />
<glyph unicode="o" horiz-adv-x="944" d="M61 305q4 131 38 262t101.5 235.5t169 170t242.5 65.5q86 0 145.5 -23.5t94.5 -67.5t50.5 -107.5t15.5 -143.5q0 -121 -34 -247.5t-103.5 -229t-173 -168t-245.5 -65.5q-160 0 -230.5 87t-70.5 232zM563 967q-68 0 -118 -40t-85.5 -104.5t-57 -145.5t-34 -165t-16.5 -163 t-4 -136q0 -27 2 -54.5t10 -37.5q14 -16 44 -34.5t102 -18.5t125 38.5t89.5 101t59 142.5t36 163t17.5 160t4 136q0 47 -3 70.5t-11 33.5q-12 16 -54.5 35t-105.5 19z" />
<glyph unicode="p" horiz-adv-x="1011" d="M166 971q72 29 130 48t99 19q35 0 56.5 -15t21.5 -52q0 -8 -1 -17.5t-3 -19.5l-18 -88q39 37 90 70.5t103 61.5t100.5 44t84.5 16q78 0 130.5 -60t52.5 -208q0 -133 -39 -271.5t-118 -253t-196.5 -187t-273.5 -72.5q-53 0 -113 16l-36 -178q-10 -47 -19.5 -100.5 t-16.5 -104.5t-12.5 -95t-5.5 -71q0 -20 2 -26h-225q8 29 18.5 70.5t20.5 90.5l283 1330h-103zM299 115q14 -10 35.5 -19.5t45 -17.5t45 -12.5t38.5 -4.5q70 0 123 37t94 97.5t68.5 137.5t45 155.5t24.5 152.5t7 131q0 35 -5 70t-13 47q-16 10 -47 10q-41 0 -92.5 -17.5 t-99.5 -40t-85 -47t-49 -36.5z" />
<glyph unicode="q" horiz-adv-x="983" d="M702 -180q-10 -47 -19 -100.5t-17.5 -104.5t-12.5 -94t-4 -70q0 -18 2 -24h-223q18 61 42 168.5t48 224.5l76 354q-37 -35 -83 -68.5t-92 -60.5t-92 -43t-83 -16q-78 0 -130.5 60t-52.5 208q0 76 16.5 163t48.5 174t80 168t110.5 143.5t139 99t167.5 36.5 q59 0 114.5 -20.5t102.5 -46.5l82 67h41zM750 915q-29 23 -70 36.5t-72 13.5q-70 0 -123 -37t-93 -97.5t-67.5 -137.5t-45 -156.5t-24.5 -154.5t-7 -130q0 -45 7 -79t11 -38q25 -10 47 -10q35 0 76 15.5t82 37t78 46t63 42.5z" />
<glyph unicode="r" horiz-adv-x="817" d="M473 973q0 -6 -5 -38t-15 -79q72 94 137 138t143 44t135 -39l-32 -159q-12 -12 -33 -21.5t-33 -9.5q-25 0 -34 17.5t-17 39t-21.5 39t-44.5 17.5q-57 0 -113.5 -54.5t-109.5 -122.5q-12 -61 -25.5 -122.5t-23.5 -112.5q-12 -59 -25 -115q-10 -47 -19 -100t-16.5 -104.5 t-12.5 -94.5t-5 -69q0 -20 6 -27h-227q8 31 17.5 74t19.5 93t22.5 106.5t24.5 113.5l113 531h-99l-12 53q72 29 131 48t100 19q35 0 54.5 -15t19.5 -50z" />
<glyph unicode="s" horiz-adv-x="776" d="M606 510q102 -92 103 -199q0 -84 -40 -145.5t-103.5 -101t-143.5 -59t-158 -19.5t-131 21.5t-106 62.5l28 141q31 27 54 27q27 0 38 -28t26 -59.5t46 -59.5t96 -28q35 0 73 11.5t69.5 32t52 51t20.5 71.5t-20.5 71t-52.5 62l-185 181q-47 45 -72.5 86t-25.5 92 q0 61 25.5 118.5t71.5 101.5t109.5 70.5t141.5 26.5q57 0 107.5 -15t115.5 -44l-30 -141q-27 -27 -51 -27q-23 0 -38.5 23.5t-33 52t-40 52.5t-58.5 24q-27 0 -55.5 -11.5t-53.5 -32t-40 -49t-15 -61.5q0 -27 14 -49.5t41 -46.5z" />
<glyph unicode="t" horiz-adv-x="657" d="M207 950l-2 39l110 31l197 219h39l-45 -215h233l-16 -74h-234q-43 -197 -71.5 -332t-47 -224t-28.5 -138t-14 -72.5t-5 -28.5t-1 -8q0 -29 16 -39t43 -10q14 0 36.5 3t46 8.5t46 11.5t39.5 10l10 -47q-41 -20 -85 -37.5t-86 -31t-81 -21.5t-65 -8q-39 0 -77 28.5 t-38 98.5q0 4 1 11t6 32.5t15.5 78t30 143.5t49 230.5t72.5 341.5h-94z" />
<glyph unicode="u" horiz-adv-x="1069" d="M844 997l194 41l-194 -919h143l8 -39l-215 -94q-47 2 -82.5 43t-35.5 98q0 23 12 70q-31 -39 -74 -77t-94 -67.5t-110.5 -48t-125.5 -18.5q-76 0 -122 33.5t-46 121.5l4 23q3 22 18 101t47 232.5t89 420.5h-98l-15 53q72 29 133.5 48t102.5 19q70 0 70 -65v-12.5 t-3.5 -21.5t-8.5 -42t-15 -72q-47 -215 -72.5 -342t-40 -196.5t-17.5 -96t-3 -43.5q0 -53 41 -53q25 0 76 20.5t106 49.5t104.5 62.5t71.5 60.5z" />
<glyph unicode="v" horiz-adv-x="897" d="M475 219q45 59 86 130t76 142.5t61.5 141t38.5 129.5l-22 219l149 57q33 -41 33 -108q0 -100 -48 -225t-122 -253t-163 -247t-171 -205h-74l-114 918h-101l-12 53q72 29 129.5 48t97.5 19q35 0 50.5 -15t19.5 -50z" />
<glyph unicode="w" horiz-adv-x="1292" d="M891 227q45 59 83 128t67.5 139.5t52 139t34.5 128.5l-22 219l149 57q33 -41 33 -108q0 -100 -44 -227.5t-113.5 -256.5t-155.5 -246.5t-168 -199.5h-74l-51 496q-72 -141 -164 -273.5t-184 -222.5h-74l-94 918h-100l-13 53q72 29 129.5 48t98.5 19q63 0 69 -65l68 -746 q43 59 81 129t68.5 140.5t53 140.5t34.5 129l-16 152h-104l-13 53q72 29 129.5 48t98.5 19q63 0 69 -65z" />
<glyph unicode="x" horiz-adv-x="911" d="M434 391l-149 -227l-66 -164h-158l-20 47l354 445l-159 426h-105l-12 53q72 29 126 48t95 19q29 0 42 -12t24 -37l135 -360l166 190l-17 172l131 47q18 -16 25.5 -35.5t7.5 -41.5q0 -49 -31.5 -105.5t-76 -114t-92.5 -109.5t-81 -93l164 -433h105l12 -53 q-72 -29 -125 -48t-94 -19q-29 0 -42 12t-24 37z" />
<glyph unicode="y" horiz-adv-x="880" d="M180 918h-102l-12 53q72 29 128 48t97 19q61 0 67 -49l99 -751l4 -86h4l10 36l234 576l-23 217l150 57q18 -23 25 -50t7 -56q0 -51 -14 -101.5t-37 -97.5l-401 -911q-43 -96 -81 -165t-72 -116t-61.5 -74.5t-47.5 -39.5l-93 174q41 31 78 63q31 29 62.5 58.5t48.5 56.5 l147 221h-84z" />
<glyph unicode="z" horiz-adv-x="899" d="M188 821q0 47 9.5 100.5t31.5 94.5q72 10 147 16t152 6q84 0 170 -9t174 -36l2 -53l-645 -778q53 -29 103.5 -68t102.5 -74.5t106.5 -61.5t115.5 -26q51 0 105.5 18.5t109.5 35.5l13 -47q-53 -33 -95 -55.5t-78 -36t-70 -19.5t-71 -6q-49 0 -107 23.5t-124 54 t-139.5 58.5t-155.5 38l-8 -2l-29 92l672 791q-20 2 -38.5 2h-37.5q-84 0 -150.5 -10.5t-116.5 -25t-87 -27.5t-62 -19v24z" />
<glyph unicode="{" horiz-adv-x="653" d="M393 -362q-47 0 -96 12t-90 37.5t-67.5 67.5t-26.5 102q0 25 6 55q45 166 69.5 259t37 140t14.5 60.5t2 19.5q0 70 -38 101.5t-81 42.5l12 55q27 6 57.5 19.5t58.5 36t49.5 58t33.5 87.5l61 421q16 74 60.5 126.5t100.5 85t117.5 48t112.5 15.5l-4 -37 q-39 -4 -77.5 -21.5t-70.5 -39t-53.5 -46t-25.5 -43.5l-61 -432q-16 -78 -50 -131t-72 -88t-75 -54.5t-59 -27.5l-13 -8l11 -2q16 -8 39.5 -22.5t45 -40t37 -62.5t15.5 -90q0 -10 -3 -26.5t-15.5 -68.5t-39 -153.5t-73.5 -279.5q0 -18 12 -41t33.5 -43.5t52.5 -36t66 -19.5z " />
<glyph unicode="|" horiz-adv-x="483" d="M0 -543l430 2024h125l-430 -2024h-125z" />
<glyph unicode="}" horiz-adv-x="577" d="M-98 -326q39 4 76.5 21.5t69.5 39t52.5 46t24.5 43.5l63 432q16 78 50 131t72 88t74 53.5t58 28.5l15 2l-13 8q-16 8 -38.5 22.5t-44 40t-37 62.5t-15.5 90q0 35 10 86q45 164 70 253t36 131t13 50.5t2 10.5q0 18 -12 40.5t-34.5 42t-52.5 35t-65 19.5l13 37 q45 0 95 -12.5t90 -38t66.5 -67.5t26.5 -99q0 -10 -2 -24.5t-13 -60.5t-35.5 -137.5t-70.5 -256.5q-4 -16 -6 -31t-2 -29q0 -70 38 -100.5t83 -40.5l-12 -55q-29 -6 -59.5 -19.5t-58.5 -36t-49.5 -58.5t-31.5 -87l-63 -422q-16 -74 -59.5 -126t-99.5 -85t-116.5 -48 t-111.5 -15z" />
<glyph unicode="~" horiz-adv-x="1191" d="M428 692q63 0 117.5 -18.5t105.5 -42t103.5 -42t115.5 -18.5q25 2 61 12.5t71.5 20.5t68.5 21.5t53 17.5l23 -47q-63 -55 -144 -105.5t-172 -50.5q-66 0 -120 18.5t-104 40t-102 40t-116 18.5q-27 -6 -61.5 -15.5t-70.5 -18.5t-67.5 -18t-54.5 -16l-22 48q33 27 69.5 54 t76.5 50t82 37t87 14z" />
<glyph unicode="&#xa3;" horiz-adv-x="1048" d="M188 635h172q20 53 39 108.5t39 114.5q61 147 181 222t262 75q115 0 219 -45l-76 -133q-59 47 -122.5 75.5t-98.5 28.5q-33 0 -60.5 -20.5t-50 -51t-41 -69.5t-33.5 -76l-83 -229h319l-14 -72h-332q-55 -147 -110.5 -276t-108.5 -217l303 24q74 6 130 27.5t97 48.5 l10 -70q-18 -14 -41.5 -31.5t-57.5 -33t-79 -25.5t-104 -10h-598l4 23q80 31 160 43q47 84 104 207.5t119 289.5h-162z" />
<glyph unicode="&#xa9;" horiz-adv-x="1263" d="M866 657q-10 0 -15 10.5t-9 27t-10.5 35t-16.5 36.5q-12 23 -36.5 38t-71.5 15q-104 0 -166 -81t-62 -220q0 -63 14.5 -120.5t44 -100.5t71.5 -68.5t98 -25.5q41 0 88 15t100 50l12 -26q-49 -55 -107.5 -81t-117.5 -26q-74 0 -130 30t-94 79t-57.5 111.5t-19.5 129.5 q0 74 20.5 143.5t63.5 123t106.5 85t149.5 31.5q33 0 61.5 -8t63.5 -20l47 12v-182q-19 -13 -27 -13zM143 512q0 109 42 204t114 166.5t167 113.5t204 42t204 -42t166.5 -113.5t113.5 -166.5t42 -204t-42 -204t-113.5 -166.5t-167 -113.5t-203.5 -42q-109 0 -204 42 t-167 113.5t-114 166.5t-42 204zM211 512q0 -94 36 -178t98.5 -146.5t146 -98.5t178.5 -36q94 0 178 36t146.5 98.5t98 146.5t35.5 178t-35.5 178t-98 146.5t-146.5 98.5t-178 36t-178 -36t-146.5 -98.5t-98.5 -146.5t-36 -178z" />
<glyph unicode="&#xab;" horiz-adv-x="940" d="M446 121q-78 102 -131 171.5t-86.5 116t-53 71t-28 35.5t-9.5 14l-1 3q0 4 2 7l484 407l53 -24q-20 -37 -53 -83t-74 -96.5t-90 -103.5t-105 -104q66 -104 104 -211t50 -179zM735 186q-98 129 -151.5 199t-77 102.5t-27.5 38.5l-4 6q0 4 2 7l406 342l45 -21 q-37 -61 -107.5 -150t-163.5 -175q55 -88 86 -178.5t41 -149.5z" />
<glyph unicode="&#xad;" d="M684 643l-31 -133h-563l29 133h565z" />
<glyph unicode="&#xae;" horiz-adv-x="1064" d="M205 1106q0 88 33.5 165t91 134t134.5 91t165 34t164.5 -34t134 -91t91.5 -134t34 -165t-34 -165t-91.5 -134t-134 -91t-164.5 -34t-165 34t-134.5 91t-91 134t-33.5 165zM268 1106q0 -74 29 -139.5t78 -114.5t114.5 -78t139.5 -29t139.5 29t114.5 78t77.5 114.5 t28.5 139.5t-28.5 139.5t-77.5 114.5t-115 77.5t-139 28.5q-74 0 -139.5 -28.5t-114.5 -77.5t-78 -114.5t-29 -139.5zM612 1356q78 0 125 -31t47 -94q0 -43 -27.5 -79t-76.5 -50q6 -6 14 -14.5t19 -24.5l61 -98q6 -10 25.5 -34t38.5 -28l-4 -16q-27 0 -63 9t-52 38l-101 160 h-59v-203h-65v444l-41 13v8h159zM559 1114h35q55 0 92 26.5t37 92.5q0 47 -32 73.5t-111 26.5h-21v-219z" />
<glyph unicode="&#xb4;" horiz-adv-x="688" d="M195 1337q137 90 239.5 178.5t188.5 180.5l88 -131q-121 -86 -247 -164t-243 -125z" />
<glyph unicode="&#xbb;" horiz-adv-x="958" d="M563 946q78 -102 131.5 -171.5t87 -116t53 -71t27.5 -35.5t9 -14l1 -3q0 -4 -2 -7l-483 -407l-53 24q20 37 53 83t74 96.5t90 103.5t104 104q-66 104 -103.5 211t-49.5 179zM274 881q98 -129 151.5 -199t77 -102.5t27.5 -38.5l5 -6q0 -4 -3 -7l-405 -342l-45 21 q37 61 107.5 150t162.5 175q-55 88 -85.5 178.5t-41.5 149.5z" />
<glyph unicode="&#x401;" horiz-adv-x="1093" d="M756 1597q0 -18 -18.5 -40.5t-43 -43t-51.5 -35t-43 -14.5q-14 0 -30.5 12.5t-31 30t-24.5 37t-10 35.5q4 18 22.5 42t41 44.5t46 34.5t39.5 14q14 0 33 -12t34 -29.5t25.5 -38.5t10.5 -37zM1124 1597q0 -18 -18.5 -40.5t-43 -43t-51 -35t-42.5 -14.5q-14 0 -30.5 12.5 t-31 30t-25 37t-10.5 35.5q4 18 22.5 42t41 44.5t46.5 34.5t40 14q14 0 32.5 -12t34 -29.5t25.5 -38.5t10 -37zM1100 1051h-64q-14 23 -25.5 68.5t-11.5 111.5v37.5t5 40.5h-388l-122 -578h329q14 41 37 86t47 88h68l-86 -405h-68q-6 29 -8 57.5t-2 58.5v35h-334l-119 -561 h439q29 90 67.5 152.5t67.5 91.5h63l-69 -334h-906l9 43q63 23 135 35l262 1237q-33 6 -63.5 14t-55.5 21l8 43h856z" />
<glyph unicode="&#x403;" horiz-adv-x="960" d="M768 1499q137 98 227 192.5t129 149.5q39 -16 60.5 -40.5t27.5 -67.5q-92 -80 -191 -156t-200 -133zM541 0h-484l9 43q63 23 135 35l262 1237q-33 6 -63.5 14t-55.5 21l8 43h852l-71 -342h-43q-12 20 -21.5 61t-9.5 98q0 23 1 47.5t5 51.5h-412l-260 -1229 q43 -6 85 -15.5t71 -21.5z" />
<glyph unicode="&#x405;" horiz-adv-x="1705" />
<glyph unicode="&#x40c;" horiz-adv-x="1243" d="M768 1499q137 98 227 192.5t129 149.5q39 -16 60.5 -40.5t27.5 -67.5q-92 -80 -191 -156t-200 -133zM1395 1350q-33 -12 -67 -21.5t-66 -15.5l-574 -586q14 -6 52 -31.5t67 -74.5l301 -545q31 -6 60.5 -14.5t54.5 -18.5l-9 -43h-305l-344 645h-90l-119 -567 q31 -6 63 -15.5t56 -19.5l-8 -43h-447l9 43q63 23 135 35l262 1237q-33 6 -63.5 14t-55.5 21l8 43h447l-8 -43q-31 -12 -66 -21.5t-70 -15.5l-126 -592l88 12l530 578q-31 6 -61.5 15t-59.5 24l8 43h406z" />
<glyph unicode="&#x410;" horiz-adv-x="1220" d="M1200 0h-446l8 43q27 10 56.5 17.5t60.5 13.5l-54 377h-422l-202 -373q57 -12 110 -35l-8 -43h-405l8 43q41 16 83 26.5t83 16.5l749 1307h72l192 -1315q33 -6 65 -15.5t58 -19.5zM449 535h364l-65 546z" />
<glyph unicode="&#x411;" horiz-adv-x="1128" d="M696 827q106 0 187.5 -24.5t133.5 -66.5t78.5 -100t26.5 -126q0 -109 -46 -202t-127 -161.5t-193.5 -107.5t-243.5 -39h-492l9 43q29 10 64.5 19.5t70.5 15.5l262 1237q-33 6 -63.5 14t-55.5 21l8 43h877l-72 -342h-43q-14 23 -25.5 68.5t-11.5 111.5v37.5t4 40.5h-428 l-102 -482h182zM358 90h56q248 0 384 106.5t136 317.5q0 68 -26.5 113t-73 71.5t-108.5 38t-132 11.5h-96z" />
<glyph unicode="&#x412;" horiz-adv-x="1179" d="M20 0l9 43q63 23 135 35l262 1237q-33 6 -63.5 14t-55.5 21l8 43h502q176 0 269.5 -64.5t93.5 -185.5q0 -139 -80 -230.5t-230 -150.5q135 -27 209 -94.5t74 -182.5q0 -106 -49 -195t-133 -153.5t-196.5 -100.5t-242.5 -36h-512zM358 90h76q117 0 214 21.5t167 67.5 t109 120t39 178q0 68 -27 112t-71 69.5t-100 36t-118 10.5h-158zM616 1309l-110 -527h76q123 0 202.5 31t126.5 80t66.5 109.5t19.5 121.5q0 55 -24.5 91t-64.5 56.5t-91 29t-104 8.5h-97z" />
<glyph unicode="&#x413;" horiz-adv-x="1024" d="M504 0h-484l9 43q63 23 135 35l262 1237q-33 6 -63.5 14t-55.5 21l8 43h852l-71 -342h-64q-12 20 -21.5 61t-9.5 98q0 23 1.5 47.5t5.5 51.5h-392l-260 -1229q43 -6 85 -15.5t71 -21.5z" />
<glyph unicode="&#x414;" horiz-adv-x="1271" d="M76 96q74 57 145.5 169t139 267.5t128 353t107.5 429.5q-70 12 -119 35l8 43h899l-8 -43q-31 -12 -65.5 -20.5t-69.5 -14.5l-262 -1221h209l-105 -485h-67q-14 29 -20.5 90t-6.5 131q0 47 3 91t7 79h-901q-45 -143 -96 -246.5t-86 -144.5h-80l105 487h135zM705 1309 q-59 -285 -123 -494t-125.5 -355.5t-116.5 -234.5t-94 -131h540l261 1215h-342z" />
<glyph unicode="&#x415;" horiz-adv-x="1093" d="M1100 1051h-64q-14 23 -25.5 68.5t-11.5 111.5v37.5t5 40.5h-388l-122 -578h329q14 41 37 86t47 88h68l-86 -405h-68q-6 29 -8 57.5t-2 58.5v35h-334l-119 -561h439q29 90 67.5 152.5t67.5 91.5h63l-69 -334h-906l9 43q63 23 135 35l262 1237q-33 6 -63.5 14t-55.5 21 l8 43h856z" />
<glyph unicode="&#x416;" horiz-adv-x="1939" d="M2038 1350q-33 -12 -67 -21.5t-66 -15.5l-562 -586q14 -6 45 -28.5t56 -67.5l303 -555q31 -6 60.5 -14.5t54.5 -18.5l-9 -43h-301l-335 645h-76l-119 -567q31 -6 62.5 -15.5t56.5 -19.5l-8 -43h-447l8 43q63 23 135 35l119 567h-74l-569 -645h-346l12 43q29 10 63 18.5 t64 14.5l498 545q23 25 51.5 43t55 31.5t49 20.5t32.5 11l-305 584q-68 12 -123 39l9 43h405l-8 -43q-37 -14 -74 -23.5t-72 -15.5l279 -578l70 -12l127 594q-33 6 -64 14t-55 21l8 43h446l-8 -43q-31 -12 -65.5 -21.5t-69.5 -15.5l-127 -592l80 12l516 578q-31 6 -61.5 15 t-59.5 24l8 43h406z" />
<glyph unicode="&#x417;" horiz-adv-x="1015" d="M92 231q53 -61 131 -93t172 -32q86 0 154.5 29t118 76t76 107.5t26.5 125.5q0 45 -17.5 87t-54 75t-93 51.5t-134.5 18.5h-139l20 88h121q78 0 144.5 30.5t115.5 83t78 123t29 150.5q0 82 -49.5 128t-114.5 46q-76 0 -141 -59q-29 -27 -50.5 -62t-41 -66.5t-38 -53 t-40.5 -21.5q-12 0 -31 4t-33 14l61 293l89 -20q53 23 111.5 38t117.5 15q68 0 131 -16.5t112.5 -49t78 -83t28.5 -117.5q0 -133 -88 -236.5t-229 -159.5q51 -10 96 -36.5t79 -66.5t53.5 -91t19.5 -107q0 -121 -50.5 -207.5t-129.5 -142t-176 -82t-191 -26.5 q-57 0 -114.5 11t-110 31.5t-96.5 50.5t-75 68z" />
<glyph unicode="&#x418;" horiz-adv-x="1429" d="M1257 0h-446l8 43q63 23 135 35l207 981l-784 -879l-21 -102q31 -6 63 -15.5t56 -19.5l-8 -43h-447l9 43q63 23 135 35l262 1237q-33 6 -63.5 14t-55.5 21l8 43h447l-8 -43q-31 -12 -66 -20.5t-70 -14.5l-198 -932l784 872l13 60q-33 6 -64 14t-55 21l8 43h446l-8 -43 q-31 -12 -65.5 -20.5t-69.5 -14.5l-262 -1237q31 -6 62.5 -15.5t56.5 -19.5z" />
<glyph unicode="&#x419;" horiz-adv-x="1429" d="M1364 1737q-80 -129 -170 -186.5t-188 -57.5q-106 0 -222 59l27 127q12 12 28.5 23.5t34.5 11.5q31 0 51.5 -15.5t42 -34.5t48 -34.5t67.5 -15.5q18 0 43 4t55.5 18.5t68.5 42t83 74.5zM1266 43q-25 10 -56.5 19.5t-62.5 15.5l262 1237q35 6 69.5 14t65.5 21l8 43h-446 l-8 -43q25 -12 55.5 -20.5t63.5 -14.5l-13 -60l-784 -872l198 932q35 6 70 14t66 21l8 43h-447l-8 -43q25 -12 55.5 -20.5t63.5 -14.5l-262 -1237q-72 -12 -135 -35l-9 -43h447l8 43q-25 10 -56.5 19.5t-62.5 15.5l21 102l784 879l-207 -981q-72 -12 -135 -35l-8 -43h446z " />
<glyph unicode="&#x41a;" horiz-adv-x="1243" d="M1395 1350q-33 -12 -67 -21.5t-66 -15.5l-574 -586q14 -6 52 -31.5t67 -74.5l301 -545q31 -6 60.5 -14.5t54.5 -18.5l-9 -43h-305l-344 645h-90l-119 -567q31 -6 63 -15.5t56 -19.5l-8 -43h-447l9 43q63 23 135 35l262 1237q-33 6 -63.5 14t-55.5 21l8 43h447l-8 -43 q-31 -12 -66 -21.5t-70 -15.5l-126 -592l88 12l530 578q-31 6 -61.5 15t-59.5 24l8 43h406z" />
<glyph unicode="&#x41b;" horiz-adv-x="1294" d="M1122 0h-446l8 43q63 23 135 35l260 1231h-334q-74 -344 -147.5 -586t-158.5 -398.5t-184 -237.5t-224 -101l18 204l195 105q82 80 148.5 211t115.5 275.5t82 286.5t47 247q-31 6 -62.5 15t-54.5 20l8 43h889l-8 -43q-31 -12 -65.5 -20.5t-69.5 -14.5l-262 -1237 q31 -6 62.5 -15.5t55.5 -19.5z" />
<glyph unicode="&#x41c;" horiz-adv-x="1691" d="M385 0h-405l8 43q76 29 151 41l389 1231q-63 12 -110 35l8 43h309l137 -996l578 996h313l-8 -43q-29 -10 -62.5 -19.5t-66.5 -15.5l-164 -1237q61 -12 121 -35l-8 -43h-447l9 43q29 10 61.5 18.5t63.5 14.5l149 1046l-625 -1095h-77l-146 1075l-309 -1018q74 -12 139 -41 z" />
<glyph unicode="&#x41d;" horiz-adv-x="1417" d="M467 0h-447l9 43q63 23 135 35l262 1237q-33 6 -63.5 14t-55.5 21l8 43h447l-8 -43q-31 -12 -66 -20.5t-70 -14.5l-120 -561h585l121 561q-33 6 -63.5 14t-55.5 21l9 43h446l-8 -43q-31 -12 -65.5 -20.5t-69.5 -14.5l-262 -1237q31 -6 62.5 -15.5t55.5 -19.5l-8 -43h-446 l8 43q63 23 135 35l125 592h-586l-125 -592q31 -6 63 -15.5t56 -19.5z" />
<glyph unicode="&#x41e;" horiz-adv-x="1314" d="M92 473q0 100 26.5 207.5t76 212t120 198t158.5 164t192.5 111.5t223.5 41q111 0 195.5 -36t143 -101.5t88.5 -155.5t30 -201q0 -102 -27 -209.5t-77 -211t-120.5 -195.5t-161 -160.5t-196 -109.5t-223.5 -41q-109 0 -193 35.5t-141 100t-86 153.5t-29 198zM854 1323 q-90 0 -167 -41t-137.5 -109.5t-106.5 -156.5t-77.5 -183.5t-47 -188.5t-15.5 -171q0 -84 16.5 -156.5t52.5 -126t90 -84t132 -30.5q92 0 169 42t137.5 110.5t104.5 157.5t73.5 184.5t44 189.5t14.5 174t-15.5 151.5t-49.5 124t-87 83t-131 30.5z" />
<glyph unicode="&#x41f;" horiz-adv-x="1417" d="M1245 0h-446l8 43q63 23 135 35l260 1229h-586l-260 -1229q31 -6 63 -15.5t56 -19.5l-8 -43h-447l9 43q63 23 135 35l262 1237q-33 6 -63.5 14t-55.5 21l8 43h1225l-8 -43q-31 -12 -65.5 -20.5t-69.5 -14.5l-262 -1237q31 -6 62.5 -15.5t55.5 -19.5z" />
<glyph unicode="&#x420;" horiz-adv-x="1128" d="M356 80q41 -6 84 -15.5t72 -21.5l-8 -43h-484l9 43q29 10 64.5 19.5t70.5 15.5l262 1237q-33 6 -63.5 14t-55.5 21l8 43h471q205 0 323 -81t118 -229q0 -98 -49.5 -192t-134.5 -167t-197.5 -117t-237.5 -44h-57l14 70h13q86 0 168.5 29.5t147 86t104.5 139.5t40 189 t-86 169t-282 63h-54z" />
<glyph unicode="&#x421;" horiz-adv-x="1105" d="M1194 1081q-20 -10 -39.5 -14t-30.5 -4q-18 0 -28.5 12t-15.5 32.5t-10 47.5t-13 53q-8 20 -18.5 42t-30 37.5t-49 25.5t-74.5 10q-125 0 -232.5 -66.5t-187.5 -177t-126 -252t-46 -290.5q0 -90 20.5 -167t62.5 -133.5t104.5 -88t148.5 -31.5q78 0 175 29.5t214 95.5 l10 -49q-117 -109 -240.5 -158t-236.5 -49q-119 0 -205 40t-142.5 107.5t-84 157.5t-27.5 192q0 113 26.5 225.5t78 215t125 190.5t167 153.5t204 102.5t235.5 37q63 0 117.5 -15.5t113.5 -37.5l96 20l-61 -293v0z" />
<glyph unicode="&#x422;" horiz-adv-x="1144" d="M1245 1051h-63q-14 23 -25.5 68.5t-11.5 111.5v36.5t4 39.5h-275l-260 -1229q31 -6 63 -15.5t56 -19.5l-8 -43h-446l8 43q63 23 135 35l260 1229h-274q-31 -94 -71 -161t-69 -95h-63l71 342h1041z" />
<glyph unicode="&#x423;" horiz-adv-x="1132" d="M1399 1350q-35 -14 -72 -23.5t-72 -15.5l-673 -1149q-43 -74 -85 -130.5t-76 -94t-58.5 -59t-32.5 -23.5l-99 153l203 144l84 108l-190 1053q-35 6 -68 15t-59 22l8 43h446l-8 -43q-29 -10 -60.5 -18.5t-64.5 -14.5l142 -832l458 824q-70 12 -129 41l8 43h406z" />
<glyph unicode="&#x424;" horiz-adv-x="1406" d="M1151 1405q-31 -12 -65.5 -20.5t-69.5 -14.5l-23 -106q119 -4 205 -38t142.5 -87.5t83 -124t26.5 -148.5q0 -133 -56.5 -246.5t-150.5 -200.5t-218 -142.5t-257 -69.5l-27 -129q31 -6 63 -15.5t56 -19.5l-8 -43h-446l8 43q63 23 135 35l26 125q-117 2 -202.5 34.5 t-141 87t-82 125t-26.5 148.5q0 131 56.5 244.5t149.5 199.5t215 142.5t255 72.5l24 113q-33 6 -63.5 14.5t-54.5 20.5l8 43h446zM1247 840q0 63 -16.5 120.5t-49 103.5t-83.5 79t-121 45l-195 -914q100 8 185.5 60.5t148 131.5t97 176.5t34.5 197.5zM322 602 q0 -123 63.5 -214t204.5 -114l194 916q-98 -12 -183 -68.5t-147.5 -138.5t-97 -182.5t-34.5 -198.5z" />
<glyph unicode="&#x425;" horiz-adv-x="1185" d="M1182 0h-467l8 43q49 20 106 29l-194 503l-387 -499q53 -12 104 -33l-8 -43h-405l8 43q76 29 151 41l496 602l-225 627q-37 6 -73 15t-60 22l8 43h487l-8 -43q-29 -10 -59.5 -18.5t-65.5 -14.5l154 -467l346 461q-33 6 -61.5 16t-57.5 23l8 43h406l-9 -43 q-76 -29 -151 -41l-442 -559l264 -672q37 -6 71.5 -15.5t63.5 -19.5z" />
<glyph unicode="&#x426;" horiz-adv-x="1380" d="M20 0l9 43q63 23 135 35l262 1237q-33 6 -63.5 14t-55.5 21l8 43h447l-8 -43q-31 -12 -66 -20.5t-70 -14.5l-260 -1221h572l258 1221q-33 6 -63.5 14t-55.5 21l8 43h447l-8 -43q-31 -12 -66 -20.5t-70 -14.5l-258 -1221h221l-102 -485h-70q-12 29 -19 92t-7 135 q0 41 3 83t7 81h-1135z" />
<glyph unicode="&#x427;" horiz-adv-x="1249" d="M688 1350q-31 -12 -65.5 -20.5t-69.5 -14.5l-119 -565q0 -20 21.5 -37t55.5 -29t76 -18.5t83 -6.5q59 0 124.5 8.5t108.5 20.5l133 627q-33 6 -63.5 14t-54.5 21l8 43h446l-8 -43q-31 -12 -65.5 -20.5t-69.5 -14.5l-262 -1237q31 -6 62.5 -15.5t55.5 -19.5l-8 -43h-446 l8 43q63 23 135 35l115 540q-57 -29 -135 -45t-148 -16q-63 0 -127.5 9t-117 30.5t-85 58.5t-32.5 93q0 4 2 17t12 68.5t33.5 167t66.5 314.5q-31 6 -61.5 15t-54.5 20l8 43h446z" />
<glyph unicode="&#x428;" horiz-adv-x="1802" d="M1630 0h-1610l9 43q63 23 135 35l262 1237q-33 6 -63.5 14t-55.5 21l8 43h447l-8 -43q-31 -12 -66 -20.5t-70 -14.5l-260 -1221h390l260 1221q-33 6 -64 14t-55 21l8 43h446l-8 -43q-31 -12 -65.5 -20.5t-69.5 -14.5l-260 -1221h389l260 1221q-33 6 -63.5 14t-55.5 21 l9 43h446l-8 -43q-31 -12 -65.5 -20.5t-69.5 -14.5l-262 -1237q31 -6 62.5 -15.5t55.5 -19.5z" />
<glyph unicode="&#x429;" horiz-adv-x="1781" d="M1917 1350q-31 -12 -65.5 -20.5t-69.5 -14.5l-260 -1221h239l-102 -485h-70q-12 29 -19 92t-7 135q0 41 3 83t7 81h-1553l9 43q63 23 135 35l262 1237q-33 6 -63.5 14t-55.5 21l8 43h447l-8 -43q-31 -12 -66 -20.5t-70 -14.5l-260 -1221h390l260 1221q-33 6 -64 14 t-55 21l8 43h446l-8 -43q-31 -12 -65.5 -20.5t-69.5 -14.5l-260 -1221h389l260 1221q-33 6 -63.5 14t-55.5 21l9 43h446z" />
<glyph unicode="&#x42a;" horiz-adv-x="1284" d="M915 1393l-8 -43q-31 -12 -65.5 -20.5t-69.5 -14.5l-106 -498h159q217 0 322.5 -86t105.5 -221q0 -115 -52 -209t-137 -160.5t-194.5 -103.5t-226.5 -37h-469l8 43q63 23 135 35l261 1229h-189q-31 -94 -70.5 -161t-68.5 -95h-64l72 342h657zM653 752l-145 -680h33 q106 0 201.5 24.5t167 77.5t113.5 138t42 206q0 68 -25.5 113t-70.5 71.5t-107.5 38t-134.5 11.5h-74z" />
<glyph unicode="&#x42b;" horiz-adv-x="1679" d="M754 1350q-31 -12 -66 -20.5t-70 -14.5l-106 -498h160q217 0 322.5 -86t105.5 -221q0 -115 -52.5 -209t-137.5 -160.5t-194.5 -103.5t-226.5 -37h-469l9 43q63 23 135 35l262 1237q-33 6 -63.5 14t-55.5 21l8 43h447zM1507 0h-446l8 43q63 23 135 35l262 1237 q-33 6 -63.5 14t-54.5 21l8 43h446l-8 -43q-31 -12 -65.5 -20.5t-69.5 -14.5l-262 -1237q31 -6 62.5 -15.5t56.5 -19.5zM500 752l-146 -680h33q106 0 201.5 24.5t167 77.5t113.5 138t42 206q0 68 -25.5 113t-70.5 71.5t-107.5 38t-134.5 11.5h-73z" />
<glyph unicode="&#x42c;" horiz-adv-x="1130" d="M754 1350q-31 -12 -66 -20.5t-70 -14.5l-106 -498h160q217 0 322.5 -86t105.5 -221q0 -115 -52.5 -209t-137.5 -160.5t-194.5 -103.5t-226.5 -37h-469l9 43q63 23 135 35l262 1237q-33 6 -63.5 14t-55.5 21l8 43h447zM500 752l-146 -680h33q106 0 201.5 24.5t167 77.5 t113.5 138t42 206q0 68 -25.5 113t-70.5 71.5t-107.5 38t-134.5 11.5h-73z" />
<glyph unicode="&#x42d;" horiz-adv-x="1134" d="M311 653l21 99h631q4 41 8 79.5t4 79.5q0 180 -75 291t-228 111q-66 0 -111 -18.5t-76.5 -46t-53 -59.5t-40 -59.5t-37 -46t-45.5 -18.5q-25 0 -47 16l62 293l88 -20q70 23 131 38t125 15q133 0 229 -40t157.5 -108.5t91.5 -160.5t30 -197q0 -170 -60.5 -335t-163 -294 t-242 -207.5t-294.5 -78.5q-102 0 -196.5 43t-180.5 137l41 76q72 -66 154.5 -98.5t168.5 -32.5q113 0 203 45t157.5 120.5t112 174t68.5 202.5h-633z" />
<glyph unicode="&#x42e;" horiz-adv-x="1828" d="M467 0h-447l9 43q63 23 135 35l262 1237q-33 6 -63.5 14t-55.5 21l8 43h447l-8 -43q-31 -12 -66 -20.5t-70 -14.5l-122 -578l168 13q39 125 108.5 242.5t165.5 209.5t215 148.5t256 56.5q111 0 195 -36t140 -100.5t86 -154.5t30 -198q0 -102 -26 -210t-75 -212.5 t-119.5 -196.5t-159.5 -161.5t-194.5 -110.5t-224.5 -41q-109 0 -192 34.5t-138 99t-84 152.5t-29 197q0 47 5.5 95t15.5 98h-160l-123 -584q31 -6 63 -15.5t56 -19.5zM1374 1323q-92 0 -168 -42t-136 -110.5t-105 -158.5t-75 -185.5t-45.5 -188.5t-15.5 -171 q0 -82 16.5 -153.5t50.5 -124t88 -83t130 -30.5q92 0 168 42t136.5 112.5t104.5 160.5t72.5 186.5t43 191.5t14.5 173q0 80 -14.5 148.5t-48.5 121t-87 82t-129 29.5z" />
<glyph unicode="&#x42f;" horiz-adv-x="1257" d="M1085 0h-446l8 43q63 23 135 35l107 502h-174l-486 -580h-303l8 43q66 23 134 35l362 432q25 29 53.5 52.5t57.5 41.5q-117 39 -174.5 127t-57.5 193q0 106 47 193t128 148.5t187.5 94.5t227.5 33h481l-8 -43q-31 -12 -65.5 -20.5t-69.5 -14.5l-262 -1237 q31 -6 62.5 -15.5t56.5 -19.5zM1042 1309h-88q-244 0 -352 -108.5t-108 -293.5q0 -119 77.5 -184.5t229.5 -65.5h104z" />
<glyph unicode="&#x430;" horiz-adv-x="993" d="M588 129q0 8 1 23.5t3 21.5q-37 -33 -80 -65.5t-89 -60.5t-92 -45t-87 -17q-78 0 -130.5 60t-52.5 208q0 129 40 267t117 254t190.5 189.5t259.5 73.5q74 0 147.5 -13t136.5 -36l-184 -870h143l9 -39l-215 -94q-41 0 -79 38.5t-38 104.5zM756 938q-45 10 -81 18.5 t-67 8.5q-70 0 -123 -37t-93 -97.5t-67.5 -137.5t-45 -156.5t-24.5 -154.5t-7 -130q0 -14 1 -32.5t4 -36t6 -31t7 -17.5q20 -10 51 -10q37 0 79 16.5t83 39t76 46t57 39.5z" />
<glyph unicode="&#x431;" horiz-adv-x="950" d="M950 770q0 -84 -17.5 -175t-51 -178t-83.5 -165t-118 -137.5t-151 -94t-183 -34.5q-53 0 -99 14t-81 47t-55.5 87t-20.5 134q0 111 19.5 226.5t54.5 225t81 211t97 182.5t106.5 137.5t108.5 78.5q86 29 149.5 43t117 31.5t103.5 46.5t111 88l33 -25q-20 -39 -45 -84 t-51.5 -84.5t-54 -68.5t-52.5 -35q-80 -23 -135 -29t-108 -6q-43 0 -94.5 -45t-99.5 -112.5t-86 -143.5t-56 -137q43 72 101.5 123t123 84t130 48t124.5 15q78 0 130 -60.5t52 -207.5zM698 897q-100 0 -171.5 -35t-120 -94t-77 -136t-44 -162t-19.5 -171t-4 -164 q20 -25 55 -44t84 -19q70 0 124.5 35.5t94 95t67.5 134.5t45.5 152.5t24.5 151.5t7 131q0 49 -7 81t-12 36q-14 8 -47 8z" />
<glyph unicode="&#x432;" horiz-adv-x="868" d="M799 352q0 -78 -45 -144.5t-116 -115.5t-156 -77.5t-165 -28.5q-86 0 -137 16t-78 47q-25 29 -33 88.5t-8 116.5q0 76 14.5 163t43 174t74 168t107.5 143.5t141 99t177 36.5q111 0 170.5 -44t59.5 -120q0 -33 -12.5 -71.5t-41 -81.5t-78.5 -88t-124 -88 q86 -12 146.5 -63.5t60.5 -129.5zM492 512q-59 -16 -104.5 -27.5t-102.5 -21.5q-18 -76 -29.5 -161t-11.5 -202q31 -20 60.5 -27t57.5 -7q55 0 103.5 24.5t84.5 64.5t56.5 88t20.5 95q0 127 -135 174zM713 844q0 59 -29 84.5t-70 25.5q-63 0 -114 -45t-90 -109.5t-67 -136 t-42 -126.5q55 8 127 28.5t134.5 57t106.5 90t44 131.5z" />
<glyph unicode="&#x433;" horiz-adv-x="772" d="M502 623q31 20 51 77.5t20 126.5q0 41 -4 72t-22 47q-14 8 -39 8q-31 0 -70 -10t-76.5 -23.5t-72.5 -26.5t-56 -22l-22 66q59 37 139 68.5t164 31.5q51 0 97 -12t81 -41t56.5 -75t21.5 -113q0 -47 -15.5 -84t-42 -67t-60.5 -56.5t-72 -52.5l-213 -148q-51 -35 -72 -77 t-21 -93q0 -39 8.5 -64.5t18.5 -35.5q27 -14 64 -15q43 0 94 16.5t98 40t88 47t66 40.5l32 -45q-43 -39 -88 -78t-95 -69.5t-107.5 -50t-124.5 -19.5q-53 0 -101.5 12t-85.5 37.5t-58.5 64.5t-21.5 90q0 78 58.5 150t152.5 131z" />
<glyph unicode="&#x434;" horiz-adv-x="983" d="M61 305q6 111 37 239t93.5 237.5t160 183t236.5 73.5q94 0 166 -53q0 55 -6.5 119.5t-17.5 123t-26.5 104.5t-33.5 63q-27 25 -85.5 33t-107.5 8q-47 0 -94 -9.5t-90 -19.5l-14 53q80 35 152.5 54.5t133.5 19.5q82 0 149.5 -24.5t102.5 -65.5q20 -25 44 -77t43.5 -122.5 t31.5 -154.5t12 -175q0 -86 -11 -188t-37 -205.5t-70 -200t-108.5 -171t-153.5 -119.5t-206 -45q-160 0 -230.5 87t-70.5 232zM563 958q-68 0 -118 -38.5t-85.5 -102t-57 -144.5t-34 -164t-16.5 -161t-4 -135q0 -27 2 -54.5t10 -37.5q14 -16 44 -34.5t102 -18.5 q68 0 120 37.5t91.5 100t66.5 141.5t44 160t24.5 157.5t7.5 136.5q0 47 -3 70.5t-12 33.5q-12 16 -65.5 34.5t-116.5 18.5z" />
<glyph unicode="&#x435;" horiz-adv-x="839" d="M61 254q0 119 34 256t102.5 255t176 195.5t255.5 77.5q47 0 92 -14t81 -45t57.5 -78t21.5 -113q0 -27 -38 -63.5t-114 -74.5t-186.5 -72.5t-255.5 -55.5q-20 -82 -28.5 -154.5t-8.5 -115.5q0 -47 5 -81t9 -36q18 -6 41 -6q43 0 100.5 18.5t112.5 43t103.5 50t74.5 42.5 l19 -66q-27 -18 -82 -56t-122 -77t-137.5 -68.5t-127.5 -29.5t-93 24.5t-56.5 63.5t-28 86t-7.5 94zM621 954q-59 0 -108.5 -30.5t-87.5 -80.5t-67.5 -114.5t-50.5 -132.5q55 8 130 26.5t141.5 47t113.5 71.5t47 103q0 45 -33.5 77.5t-84.5 32.5z" />
<glyph unicode="&#x436;" horiz-adv-x="1476" d="M920 494h-48l-20 -99q-10 -47 -19.5 -100t-16.5 -104.5t-12 -94.5t-5 -69q0 -20 6 -27h-227q8 31 17 74t19.5 93t22.5 106.5t25 113.5l22 107h-53l-316 -406q-45 -57 -102 -79.5t-100 -22.5q-51 0 -83 17t-61 38l23 53h104l301 367q16 23 39 41t41 35q23 18 43 34 l-110 220l-150 77l-14 170q53 -2 86 -12t55 -27q33 -27 65.5 -90t64.5 -133.5t61.5 -134t58.5 -88.5l59 -2l95 446l196 41l-102 -487l67 4q33 27 78 89.5t93 133t95.5 133t88.5 88.5q27 16 61.5 26.5t87.5 12.5l-49 -170l-166 -77l-186 -240l36.5 -36.5t34.5 -45.5l195 -375 h104l13 -53q-33 -20 -70 -37.5t-88 -17.5q-43 0 -85 20.5t-73 81.5z" />
<glyph unicode="&#x437;" horiz-adv-x="749" d="M57 164q35 -35 88.5 -57.5t118.5 -22.5q51 0 97.5 17.5t80 50t53 78.5t19.5 102q0 29 -10 57.5t-31.5 52t-55.5 38t-83 14.5h-103l17 79h78q117 0 179 77t62 190q0 31 -4 62.5t-14 41.5t-31.5 15.5t-44.5 5.5q-49 0 -78.5 -16.5t-51 -36t-39 -36t-42.5 -16.5 q-12 0 -27.5 9.5t-21.5 21.5l20 94q51 23 112 38t134 15q115 0 187.5 -52t72.5 -144q0 -55 -21.5 -102.5t-58 -84.5t-85 -63.5t-101.5 -42.5q43 -6 84 -23.5t71.5 -45t49 -65.5t18.5 -87q0 -74 -33.5 -137.5t-90 -108.5t-128 -70.5t-147.5 -25.5q-94 0 -171 33.5t-126 91.5z " />
<glyph unicode="&#x438;" horiz-adv-x="1069" d="M844 997l194 41l-194 -919h143l8 -39l-215 -94q-47 2 -82.5 43t-35.5 98q0 23 12 70q-31 -39 -74 -77t-94 -67.5t-110.5 -48t-125.5 -18.5q-76 0 -122 33.5t-46 121.5l4 23q3 22 18 101t47 232.5t89 420.5h-98l-15 53q72 29 133.5 48t102.5 19q70 0 70 -65v-12.5 t-3.5 -21.5t-8.5 -42t-15 -72q-47 -215 -72.5 -342t-40 -196.5t-17.5 -96t-3 -43.5q0 -53 41 -53q25 0 76 20.5t106 49.5t104.5 62.5t71.5 60.5z" />
<glyph unicode="&#x439;" horiz-adv-x="1071" d="M1040 1415q-78 -125 -163.5 -179t-180.5 -54q-53 0 -97 15t-97 44l24 117q14 12 29.5 23.5t34.5 11.5q29 0 48 -15.5t36.5 -33t39 -33t56.5 -15.5q18 0 42 3.5t53.5 17.5t66.5 40.5t82 74.5zM844 997l194 41l-194 -919h143l8 -39l-215 -94q-47 2 -82.5 43t-35.5 98 q0 23 12 70q-31 -39 -74 -77t-94 -67.5t-110.5 -48t-125.5 -18.5q-76 0 -122 33.5t-46 121.5l4 23q3 22 18 101t47 232.5t89 420.5h-98l-15 53q72 29 133.5 48t102.5 19q70 0 70 -65v-12.5t-3.5 -21.5t-8.5 -42t-15 -72q-47 -215 -72.5 -342t-40 -196.5t-17.5 -96t-3 -43.5 q0 -53 41 -53q25 0 76 20.5t106 49.5t104.5 62.5t71.5 60.5z" />
<glyph unicode="&#x43a;" horiz-adv-x="985" d="M356 395q-10 -47 -19 -100t-16.5 -104.5t-12.5 -94.5t-5 -69q0 -20 6 -27h-227q8 31 17.5 74t19.5 93t22.5 106.5t24.5 113.5l113 531h-99l-12 53q72 29 131 48t100 19q35 0 54.5 -15t19.5 -50v-10.5t-3 -21.5t-8 -43t-16 -73l-57 -274l78 4q35 27 80 89.5t94 133t96 133 t88 88.5q27 16 62 26.5t88 12.5l-49 -170l-166 -77l-191 -240q18 -16 38 -36.5t34 -45.5l201 -375h104l12 -53q-33 -20 -69.5 -37.5t-87.5 -17.5q-43 0 -84 19.5t-74 82.5l-209 406h-57z" />
<glyph unicode="&#x43b;" horiz-adv-x="929" d="M727 1038l10 -919h144l8 -39l-217 -94q-53 4 -86 48t-33 99l-2 778q-92 -176 -150.5 -291.5t-93.5 -188.5t-49 -111.5t-16 -59.5l-11 -211l-168 -63q-8 33 -8 77q0 57 18.5 124t47.5 132.5t61.5 128t63.5 113.5l252 428z" />
<glyph unicode="&#x43c;" horiz-adv-x="1394" d="M649 1038l35 -778l258 729l221 49l31 -919h152l8 -39l-217 -94q-53 4 -85 48t-34 99l-21 750l-286 -832l-179 -67l-38 923q-82 -182 -130.5 -297.5t-75 -186.5t-35.5 -106.5t-11 -56.5l-11 -211l-168 -63q-8 33 -8 77q0 57 18.5 123t45 131.5t57.5 128t57 115.5l207 428z " />
<glyph unicode="&#x43d;" horiz-adv-x="1085" d="M1055 1038l-195 -919h144l8 -39l-215 -94q-47 2 -82 42t-37 99q0 12 4 33l80 370q-84 -2 -184.5 -15t-204.5 -36l-17 -84q-10 -47 -19 -100t-16.5 -104.5t-12.5 -94.5t-5 -69q0 -20 6 -27h-227q8 31 17.5 74t19.5 93t22.5 106.5t24.5 113.5l113 531h-99l-12 53 q72 29 131 48t100 19q35 0 54.5 -15t19.5 -50v-10.5t-3 -21.5t-8 -43t-16 -73l-57 -270q88 23 186.5 42t206.5 30l80 370z" />
<glyph unicode="&#x43e;" horiz-adv-x="944" d="M61 305q4 131 38 262t101.5 235.5t169 170t242.5 65.5q86 0 145.5 -23.5t94.5 -67.5t50.5 -107.5t15.5 -143.5q0 -121 -34 -247.5t-103.5 -229t-173 -168t-245.5 -65.5q-160 0 -230.5 87t-70.5 232zM563 967q-68 0 -118 -40t-85.5 -104.5t-57 -145.5t-34 -165t-16.5 -163 t-4 -136q0 -27 2 -54.5t10 -37.5q14 -16 44 -34.5t102 -18.5t125 38.5t89.5 101t59 142.5t36 163t17.5 160t4 136q0 47 -3 70.5t-11 33.5q-12 16 -54.5 35t-105.5 19z" />
<glyph unicode="&#x43f;" horiz-adv-x="1064" d="M682 160q51 238 80 374t43 206.5t17 93t3 34.5q0 61 -43 62q-25 0 -75 -20.5t-105 -50.5t-104 -63.5t-70 -60.5l-72 -340q-10 -47 -19 -100t-16.5 -104.5t-12.5 -94.5t-5 -69q0 -20 6 -27h-227q8 31 17.5 74t19.5 93t22.5 106.5t24.5 113.5l113 531h-99l-12 53 q72 29 131 48t100 19q35 0 55.5 -15t20.5 -50q0 -4 -1 -10.5t-4 -21.5t-9 -43t-15 -73q31 39 73 77t92.5 68.5t109.5 49t125 18.5q76 0 122 -33.5t46 -121.5l-1 -9q-1 -8 -5 -33.5t-14.5 -74.5t-27 -134t-43 -211t-63.5 -302h144l8 -39l-215 -94q-53 4 -86 48t-33 95 q0 11 4 31z" />
<glyph unicode="&#x440;" horiz-adv-x="1011" d="M166 971q72 29 130 48t99 19q35 0 56.5 -15t21.5 -52q0 -8 -1 -17.5t-3 -19.5l-18 -88q39 37 90 70.5t103 61.5t100.5 44t84.5 16q78 0 130.5 -60t52.5 -208q0 -133 -39 -271.5t-118 -253t-196.5 -187t-273.5 -72.5q-53 0 -113 16l-36 -178q-10 -47 -19.5 -100.5 t-16.5 -104.5t-12.5 -95t-5.5 -71q0 -20 2 -26h-225q8 29 18.5 70.5t20.5 90.5l283 1330h-103zM299 115q14 -10 35.5 -19.5t45 -17.5t45 -12.5t38.5 -4.5q70 0 123 37t94 97.5t68.5 137.5t45 155.5t24.5 152.5t7 131q0 35 -5 70t-13 47q-16 10 -47 10q-41 0 -92.5 -17.5 t-99.5 -40t-85 -47t-49 -36.5z" />
<glyph unicode="&#x441;" horiz-adv-x="815" d="M61 254q0 131 35 270.5t105.5 253t179 187t260.5 73.5q51 0 112.5 -9t123.5 -30l-33 -159q-12 -12 -32.5 -21.5t-33.5 -9.5q-27 0 -37 22.5t-24.5 50t-44 50t-92.5 22.5q-49 0 -93.5 -37.5t-80 -98t-65.5 -137.5t-49.5 -154.5t-30.5 -150.5t-11 -124q0 -18 1 -37.5t3 -37 t4 -29t6 -13.5q18 -6 43 -6q43 0 98.5 18.5t110.5 43t103.5 50t76.5 42.5l19 -66q-27 -18 -82 -56t-122 -77t-137.5 -68.5t-127.5 -29.5t-93 24.5t-56.5 63.5t-28 86t-7.5 94z" />
<glyph unicode="&#x442;" horiz-adv-x="1611" d="M451 836q33 37 73.5 72.5t90 64t104.5 47t117 18.5q76 0 122 -33.5t46 -119.5q0 -2 -2.5 -19.5t-4.5 -29.5q31 37 73 72.5t93 65.5t108.5 47t121.5 17q76 0 122 -33.5t46 -121.5l-1 -9q-1 -8 -5.5 -33.5t-14.5 -74.5t-26.5 -134t-43 -211t-63.5 -302h143l9 -39l-216 -94 q-53 4 -85.5 48t-32.5 95q0 10 4 31q51 238 79.5 374t43 206.5t17.5 93t3 34.5q0 61 -43 62q-23 0 -69 -17.5t-98 -44t-100 -57.5t-77 -57l-76 -359q-10 -47 -19 -100t-16.5 -104.5t-12.5 -94.5t-5 -69q0 -20 4 -27h-227l86 383q35 154 54.5 245t28.5 140t11 68.5t2 31.5 q0 61 -43 62q-23 0 -68 -17.5t-95 -44t-98 -57.5t-77 -57l-76 -359q-10 -47 -19 -100t-16.5 -104.5t-12.5 -94.5t-5 -69q0 -20 4 -27h-227q8 31 18.5 74t20.5 93t22.5 106.5t24.5 113.5l113 531h-99l-12 53q72 29 131 48t100 19q35 0 55.5 -15t20.5 -50q0 -4 -1 -10.5 t-4 -20.5t-8 -38.5t-13 -67.5z" />
<glyph unicode="&#x443;" horiz-adv-x="880" d="M180 918h-102l-12 53q72 29 128 48t97 19q61 0 67 -49l99 -751l4 -86h4l10 36l234 576l-23 217l150 57q18 -23 25 -50t7 -56q0 -51 -14 -101.5t-37 -97.5l-401 -911q-43 -96 -81 -165t-72 -116t-61.5 -74.5t-47.5 -39.5l-93 174q41 31 78 63q31 29 62.5 58.5t48.5 56.5 l147 221h-84z" />
<glyph unicode="&#x444;" horiz-adv-x="1273" d="M856 1038q174 -4 278.5 -93t104.5 -249q0 -121 -35 -245.5t-108.5 -227t-188 -169t-274.5 -68.5l-35 -164q-10 -47 -18.5 -100.5t-16.5 -104.5t-12 -94t-4 -70q0 -20 6 -26h-231q6 31 15 73.5t20.5 93t22.5 106.5t23 114l37 172q-74 2 -142.5 26.5t-120.5 67.5t-84 100.5 t-32 124.5q0 123 32 250t103.5 231.5t186.5 173t281 76.5l79 379h-98l-10 53l328 68zM1040 913q-10 16 -65 35t-133 19l-193 -899h17q88 0 151.5 38.5t107.5 101t70.5 142.5t41 163t19.5 160t5 136q0 47 -5.5 69.5t-15.5 34.5zM266 131q6 -10 27.5 -19.5t49.5 -17.5 t58.5 -15t55.5 -11l190 897q-86 -8 -148.5 -51.5t-106.5 -108t-72.5 -144t-44 -159.5t-21.5 -155t-6 -130q0 -27 5 -51.5t13 -34.5z" />
<glyph unicode="&#x445;" horiz-adv-x="911" d="M434 391l-149 -227l-66 -164h-158l-20 47l354 445l-159 426h-105l-12 53q72 29 126 48t95 19q29 0 42 -12t24 -37l135 -360l166 190l-17 172l131 47q18 -16 25.5 -35.5t7.5 -41.5q0 -49 -31.5 -105.5t-76 -114t-92.5 -109.5t-81 -93l164 -433h105l12 -53 q-72 -29 -125 -48t-94 -19q-29 0 -42 12t-24 37z" />
<glyph unicode="&#x446;" horiz-adv-x="1107" d="M778 -14q-47 2 -83 43t-36 98q0 23 13 70q-31 -39 -74 -77t-93 -67.5t-109.5 -48t-125.5 -18.5q-76 0 -122 33.5t-46 121.5l4 23q3 22 18 101t47 232.5t89 420.5h-98l-15 53q72 29 133.5 48t102.5 19q70 0 70 -65v-12.5t-3.5 -21.5t-8.5 -42t-15 -72q-47 -215 -72.5 -342 t-40 -196.5t-17.5 -96t-3 -43.5q0 -53 41 -53q25 0 75 20.5t105 49.5t104.5 62.5t71.5 60.5l152 710l194 41l-194 -919h215l-82 -387h-64q-14 31 -21 87t-7 113q0 29 2 55.5t6 47.5z" />
<glyph unicode="&#x447;" horiz-adv-x="940" d="M909 1038l-194 -919h143l8 -39l-215 -94q-47 2 -81.5 42t-37.5 99q0 12 5 33l65 307q-72 -55 -158 -94t-157 -39q-70 0 -123 29.5t-53 97.5q0 2 1 12t10 54t28.5 135.5t54.5 255.5h-99l-14 53q72 29 134.5 48t103.5 19q70 0 69 -65v-12.5t-3 -21.5t-8 -42t-15 -72 l-72 -342q0 -53 41 -53q39 0 116 27.5t163 93.5l94 446z" />
<glyph unicode="&#x448;" horiz-adv-x="1552" d="M1325 997l195 41l-195 -919h143l9 -39l-215 -94q-47 0 -83 42t-36 99q0 23 12 70q-31 -39 -66.5 -77t-79.5 -67.5t-96.5 -48t-117.5 -18.5q-76 0 -122 33.5t-46 121.5l12 56q-31 -39 -69 -77t-82 -67.5t-98 -48t-120 -18.5q-76 0 -122 33.5t-46 121.5l4 23q3 22 18 101 t47 232.5t89 420.5h-98l-15 53q72 29 133.5 48t102.5 19q70 0 70 -65v-12.5t-3.5 -21.5t-8.5 -42t-15 -72q-47 -215 -72.5 -342t-40 -196.5t-17.5 -96t-3 -43.5q0 -53 41 -53q25 0 70 19.5t94 48t93 61.5t66 62l152 712l195 41q-41 -195 -76 -354.5t-59.5 -276t-38 -184 t-13.5 -76.5q0 -53 41 -53q25 0 69 20.5t92 49.5t90 62.5t65 60.5z" />
<glyph unicode="&#x449;" horiz-adv-x="1591" d="M1262 -14q-47 0 -83 42t-36 99q0 23 12 70q-31 -39 -66.5 -77t-79.5 -67.5t-96.5 -48t-117.5 -18.5q-76 0 -122 33.5t-46 121.5l12 56q-31 -39 -69 -77t-82 -67.5t-98 -48t-120 -18.5q-76 0 -122 33.5t-46 121.5l4 23q3 22 18 101t47 232.5t89 420.5h-98l-15 53 q72 29 133.5 48t102.5 19q70 0 70 -65v-12.5t-3.5 -21.5t-8.5 -42t-15 -72q-47 -215 -72.5 -342t-40 -196.5t-17.5 -96t-3 -43.5q0 -53 41 -53q25 0 70 19.5t94 48t93 61.5t66 62l152 712l195 41q-41 -195 -76 -354.5t-59.5 -276t-38 -184t-13.5 -76.5q0 -53 41 -53 q25 0 69 20.5t92 49.5t90 62.5t65 60.5l151 710l195 41l-195 -919h215l-82 -387h-63q-14 31 -21.5 87t-7.5 113q0 29 2 55.5t6 47.5z" />
<glyph unicode="&#x44a;" horiz-adv-x="978" d="M92 838q0 43 9.5 92t29.5 88q66 8 135.5 14t141.5 6q78 0 157.5 -10t161.5 -33q-39 -31 -83 -72.5t-84 -93t-68.5 -109.5t-36.5 -122q188 115 309 115q86 0 130 -58.5t44 -195.5q0 -102 -45 -189.5t-115.5 -150t-155.5 -98t-165 -35.5q-86 0 -137.5 16t-77.5 47 q-25 29 -33 88.5t-8 116.5q0 90 24.5 183t67.5 180.5t104.5 166t134.5 140.5h-20q-78 0 -146.5 -14.5t-122 -33t-92 -36t-59.5 -25.5v23zM754 604q-8 8 -27.5 11t-30.5 3q-33 0 -72.5 -12t-77.5 -29.5t-67.5 -35t-42.5 -27.5q-18 -76 -35.5 -186.5t-17.5 -227.5 q31 -20 60.5 -27t58.5 -7q61 0 113.5 31.5t91 83.5t61.5 121t23 140q0 57 -10.5 100.5t-26.5 61.5z" />
<glyph unicode="&#x44b;" horiz-adv-x="1280" d="M354 598q188 115 310 115q86 0 130 -58.5t44 -195.5q0 -102 -45 -189.5t-116 -150t-156 -98t-165 -35.5q-86 0 -137 16t-78 47q-23 29 -31 72t-8 84q0 37 6.5 90t21.5 135t40 201t61 287h-98l-12 53q72 29 131 48t100 19q35 0 54.5 -15t19.5 -50v-10.5t-3 -21.5t-8 -43 t-16 -73zM653 604q-8 8 -27.5 11t-29.5 3q-33 0 -73 -12t-77.5 -29.5t-67.5 -35t-42 -27.5q-18 -76 -35.5 -186.5t-17.5 -227.5q31 -20 60.5 -27t57.5 -7q61 0 113.5 31.5t91.5 83.5t61.5 121t22.5 140q0 57 -10.5 100.5t-26.5 61.5zM1249 1038l-194 -919h143l8 -39 l-215 -94q-47 2 -82 42t-37 99q0 12 5 33l180 837z" />
<glyph unicode="&#x44c;" horiz-adv-x="878" d="M354 598q188 115 310 115q86 0 130 -58.5t44 -195.5q0 -102 -45 -189.5t-116 -150t-156 -98t-165 -35.5q-86 0 -137 16t-78 47q-23 29 -31 72t-8 84q0 37 6.5 90t21.5 135t40 201t61 287h-98l-12 53q72 29 131 48t100 19q35 0 54.5 -15t19.5 -50v-10.5t-3 -21.5t-8 -43 t-16 -73zM653 604q-8 8 -27.5 11t-29.5 3q-33 0 -73 -12t-77.5 -29.5t-67.5 -35t-42 -27.5q-18 -76 -35.5 -186.5t-17.5 -227.5q31 -20 60.5 -27t57.5 -7q61 0 113.5 31.5t91.5 83.5t61.5 121t22.5 140q0 57 -10.5 100.5t-26.5 61.5z" />
<glyph unicode="&#x44d;" horiz-adv-x="851" d="M49 172q57 -51 110.5 -70.5t112.5 -19.5q61 0 120 25.5t106 77t79.5 125t47.5 171.5h-412l20 97l402 -23q2 12 5 41t5 65.5t4 75.5t2 72v21.5t-2 33t-5 31.5t-9 20q-12 12 -50 31t-89 19q-59 0 -97.5 -25t-66 -53.5t-49 -53t-47.5 -24.5q-12 0 -27.5 9t-22.5 22l33 159 q84 16 160 27.5t141 11.5q70 0 127.5 -16t98 -55t63 -104.5t22.5 -164.5q0 -117 -33.5 -242.5t-101 -230t-169 -172t-238.5 -67.5q-78 0 -139.5 29.5t-131.5 101.5z" />
<glyph unicode="&#x44e;" horiz-adv-x="1396" d="M389 555q78 23 162 37q27 92 72 173t107.5 141.5t143 96t183.5 35.5q86 0 145.5 -23.5t94 -67.5t50 -107.5t15.5 -143.5q0 -121 -34 -247.5t-103.5 -229t-173 -168t-244.5 -65.5q-160 0 -230.5 87t-70.5 232q0 51 7 101.5t17 101.5q-39 -6 -77.5 -13.5t-79.5 -15.5 l-17 -84q-10 -47 -19 -100t-16.5 -104.5t-12.5 -94.5t-5 -69q0 -20 6 -27h-227q8 31 17.5 74t19.5 93t22.5 106.5t24.5 113.5l113 531h-99l-12 53q72 29 131 48t100 19q35 0 54.5 -15t19.5 -50v-10.5t-3 -21.5t-8 -43t-16 -73zM1008 967q-70 0 -119 -40t-85 -104.5 t-57.5 -145.5t-34 -165t-16.5 -163t-4 -136q0 -27 2 -54.5t11 -37.5q14 -16 43.5 -34.5t101.5 -18.5t125 38.5t90 101t59.5 142.5t36 163t17.5 160t4 136q0 47 -3 70.5t-12 33.5q-12 16 -54 35t-105 19z" />
<glyph unicode="&#x44f;" horiz-adv-x="991" d="M766 948q-63 20 -119 21q-53 0 -98 -23q-33 -18 -56.5 -52t-38 -77t-21.5 -89t-7 -87q0 -70 43 -119t139 -51h58zM596 406h-23.5t-25.5 2l-225 -320q-37 -53 -76 -77.5t-82 -24.5q-51 0 -88 17t-68 38l15 53h104l176 242q23 33 52.5 55.5t47.5 38.5q-51 8 -81.5 29.5 t-47 49.5t-21.5 57.5t-5 56.5q0 90 34.5 166.5t96 132t143.5 86t178 30.5q66 0 131.5 -14t129.5 -45l-183 -860h144l8 -39l-217 -94q-53 4 -86 48t-33 99q0 6 9 49t20 92l28 132h-55z" />
<glyph unicode="&#x451;" horiz-adv-x="839" d="M61 254q0 119 34 256t102.5 255t176 195.5t255.5 77.5q47 0 92 -14t81 -45t57.5 -78t21.5 -113q0 -27 -38 -63.5t-114 -74.5t-186.5 -72.5t-255.5 -55.5q-20 -82 -28.5 -154.5t-8.5 -115.5q0 -47 5 -81t9 -36q18 -6 41 -6q43 0 100.5 18.5t112.5 43t103.5 50t74.5 42.5 l19 -66q-27 -18 -82 -56t-122 -77t-137.5 -68.5t-127.5 -29.5t-93 24.5t-56.5 63.5t-28 86t-7.5 94zM621 954q-59 0 -108.5 -30.5t-87.5 -80.5t-67.5 -114.5t-50.5 -132.5q55 8 130 26.5t141.5 47t113.5 71.5t47 103q0 45 -33.5 77.5t-84.5 32.5zM662 1294 q0 -18 -16.5 -39.5t-40 -41t-48.5 -33t-41 -13.5q-14 0 -30.5 11.5t-31 29t-23.5 36t-9 34.5t16.5 38.5t39 42t48 34t41.5 14.5q14 0 30.5 -11.5t31 -28.5t24 -37t9.5 -36zM995 1294q-4 -18 -20.5 -40.5t-40 -41t-47 -32t-37.5 -13.5t-30.5 11.5t-31 29t-23.5 36t-9 34.5 q2 18 19.5 40.5t41 42t46 33t38.5 13.5q14 0 30.5 -11.5t31 -28.5t23.5 -37t9 -36z" />
<glyph unicode="&#x453;" horiz-adv-x="1019" d="M573 1159q137 98 227.5 192.5t127.5 149.5q41 -16 62.5 -40.5t27.5 -67.5q-92 -80 -191.5 -156t-199.5 -133zM502 623q31 20 51 77.5t20 126.5q0 41 -4 72t-22 47q-14 8 -39 8q-31 0 -70 -10t-76.5 -23.5t-72.5 -26.5t-56 -22l-22 66q59 37 139 68.5t164 31.5 q51 0 97 -12t81 -41t56.5 -75t21.5 -113q0 -47 -15.5 -84t-42 -67t-60.5 -56.5t-72 -52.5l-213 -148q-51 -35 -72 -77t-21 -93q0 -39 8.5 -64.5t18.5 -35.5q27 -14 64 -15q43 0 94 16.5t98 40t88 47t66 40.5l32 -45q-43 -39 -88 -78t-95 -69.5t-107.5 -50t-124.5 -19.5 q-53 0 -101.5 12t-85.5 37.5t-58.5 64.5t-21.5 90q0 78 58.5 150t152.5 131z" />
<glyph unicode="&#x456;" horiz-adv-x="1705" />
<glyph unicode="&#x45c;" horiz-adv-x="985" d="M655 1159q137 98 227.5 192.5t127.5 149.5q41 -16 62.5 -40.5t27.5 -67.5q-92 -80 -191.5 -156t-199.5 -133zM356 395q-10 -47 -19 -100t-16.5 -104.5t-12.5 -94.5t-5 -69q0 -20 6 -27h-227q8 31 17.5 74t19.5 93t22.5 106.5t24.5 113.5l113 531h-99l-12 53q72 29 131 48 t100 19q35 0 54.5 -15t19.5 -50v-10.5t-3 -21.5t-8 -43t-16 -73l-57 -274l78 4q35 27 80 89.5t94 133t96 133t88 88.5q27 16 62 26.5t88 12.5l-49 -170l-166 -77l-191 -240q18 -16 38 -36.5t34 -45.5l201 -375h104l12 -53q-33 -20 -69.5 -37.5t-87.5 -17.5q-43 0 -84 19.5 t-74 82.5l-209 406h-57z" />
<glyph unicode="&#x2000;" horiz-adv-x="920" />
<glyph unicode="&#x2001;" horiz-adv-x="1841" />
<glyph unicode="&#x2002;" horiz-adv-x="920" />
<glyph unicode="&#x2003;" horiz-adv-x="1841" />
<glyph unicode="&#x2004;" horiz-adv-x="613" />
<glyph unicode="&#x2005;" horiz-adv-x="460" />
<glyph unicode="&#x2006;" horiz-adv-x="306" />
<glyph unicode="&#x2007;" horiz-adv-x="306" />
<glyph unicode="&#x2008;" horiz-adv-x="230" />
<glyph unicode="&#x2009;" horiz-adv-x="368" />
<glyph unicode="&#x200a;" horiz-adv-x="102" />
<glyph unicode="&#x2010;" d="M684 643l-31 -133h-563l29 133h565z" />
<glyph unicode="&#x2011;" d="M684 643l-31 -133h-563l29 133h565z" />
<glyph unicode="&#x2012;" d="M684 643l-31 -133h-563l29 133h565z" />
<glyph unicode="&#x2013;" horiz-adv-x="1116" d="M131 616h940l-18 -92h-940z" />
<glyph unicode="&#x2014;" horiz-adv-x="1546" d="M131 616h1370l-18 -92h-1370z" />
<glyph unicode="&#x2018;" horiz-adv-x="362" d="M154 1055q16 80 54 140t78 102t74.5 65.5t45.5 30.5l18 -31q-33 -27 -74 -71t-61 -103q18 0 37.5 -11.5t36 -29t26.5 -37.5t10 -39q0 -20 -16 -42.5t-38.5 -42t-48.5 -32t-46 -12.5q-16 0 -32.5 12.5t-30 28.5t-22.5 36t-11 36z" />
<glyph unicode="&#x2019;" horiz-adv-x="507" d="M500 1280q-16 -80 -54 -140.5t-78 -102.5t-75 -65.5t-45 -29.5l-19 31q33 27 74 70.5t62 103.5q-18 0 -38 11t-36.5 28.5t-26.5 38t-10 39.5q0 20 15.5 42.5t39 42t49 32t45.5 12.5q16 0 33 -12.5t30 -29t22.5 -37t11.5 -34.5z" />
<glyph unicode="&#x201c;" horiz-adv-x="665" d="M154 1055q16 80 54 140t78 102t74.5 65.5t45.5 30.5l18 -31q-33 -27 -74 -71t-61 -103q18 0 37.5 -11.5t36 -29t26.5 -37.5t10 -39q0 -20 -16 -42.5t-38.5 -42t-48.5 -32t-46 -12.5q-16 0 -32.5 12.5t-30 28.5t-22.5 36t-11 36zM457 1055q16 80 54 140t78 102t74.5 65.5 t45.5 30.5l18 -31q-33 -27 -74 -71t-61 -103q18 0 37.5 -11.5t36 -29t26.5 -37.5t10 -39q0 -20 -16 -42.5t-38.5 -42t-48.5 -32t-46 -12.5q-16 0 -32.5 12.5t-30 28.5t-22.5 36t-11 36z" />
<glyph unicode="&#x201d;" horiz-adv-x="808" d="M778 1280q-16 -80 -54 -140.5t-78 -102.5t-74.5 -65.5t-45.5 -29.5l-18 31q33 27 74 70.5t61 103.5q-18 0 -37.5 11t-36 28.5t-27 38t-10.5 39.5q0 20 15.5 42.5t39 42t49.5 32t46 12.5q16 0 32.5 -12.5t30 -29t22.5 -37t11 -34.5zM475 1280q-16 -80 -54 -140.5 t-78 -102.5t-75 -65.5t-45 -29.5l-18 31q33 27 73.5 70.5t61.5 103.5q-18 0 -37.5 11t-36 28.5t-27 38t-10.5 39.5q0 20 15.5 42.5t39 42t49 32t46.5 12.5q16 0 32.5 -12.5t30 -29t22.5 -37t11 -34.5z" />
<glyph unicode="&#x201e;" horiz-adv-x="729" d="M614 119q-16 -80 -54 -140.5t-78 -102.5t-74.5 -65.5t-45.5 -29.5l-18 31q33 27 74 70.5t61 103.5q-18 0 -37.5 11t-36 28.5t-26.5 38t-10 38.5q0 20 15 43t38.5 42.5t49.5 31.5t46 12q16 0 32.5 -12t30 -28.5t22.5 -37t11 -34.5zM311 119q-16 -80 -54 -140.5t-78 -102.5 t-74.5 -65.5t-45.5 -29.5l-18 31q33 27 74 70.5t61 103.5q-18 0 -37.5 11t-36 28.5t-26.5 38t-10 38.5q0 20 15 43t38.5 42.5t49.5 31.5t46 12q16 0 32.5 -12t30 -28.5t22.5 -37t11 -34.5z" />
<glyph unicode="&#x2022;" horiz-adv-x="851" d="M154 586q0 70 29.5 137.5t80.5 121.5t119 87t145 33q111 0 176.5 -70t65.5 -174q0 -70 -29.5 -136.5t-81 -119.5t-120 -86t-144.5 -33q-111 0 -176 68t-65 172z" />
<glyph unicode="&#x2026;" horiz-adv-x="1075" d="M307 115q-2 -16 -19.5 -39t-41 -43.5t-48 -33.5t-40.5 -13t-34 12t-31 29.5t-22.5 37t-9.5 35.5q0 23 15.5 46.5t38 42t48 30.5t48.5 12q16 0 33.5 -12t31 -30.5t22.5 -39t9 -34.5zM655 115q-2 -16 -19.5 -39t-41 -43.5t-48 -33.5t-40.5 -13t-33.5 12t-31 29.5t-22.5 37 t-9 35.5q0 23 15 46.5t37.5 42t48.5 30.5t48 12q16 0 33.5 -12t31 -30.5t22.5 -39t9 -34.5zM1004 115q-2 -16 -19.5 -39t-41 -43.5t-48.5 -33.5t-41 -13t-33.5 12t-31 29.5t-22.5 37t-9 35.5q0 23 15 46.5t38 42t48.5 30.5t47.5 12q16 0 33.5 -12t31 -30.5t23 -39t9.5 -34.5 z" />
<glyph unicode="&#x202f;" horiz-adv-x="368" />
<glyph unicode="&#x205f;" horiz-adv-x="460" />
<glyph unicode="&#x20ac;" horiz-adv-x="1118" d="M86 664h125q39 78 95 146.5t130 118.5t164 79.5t195 29.5q63 0 125.5 -10t128.5 -29l-82 -161q-35 20 -71 40.5t-70.5 38t-65.5 28.5t-55 11q-53 0 -101.5 -24.5t-90.5 -65.5t-77 -93t-59 -109h514l-43 -86h-500q-16 -49 -20 -107h467l-45 -86h-426q8 -125 69.5 -203 t188.5 -78q121 0 290 80l13 -45q-92 -80 -189.5 -116.5t-187.5 -36.5q-98 0 -169 30.5t-116 83t-65.5 121t-20.5 146.5v18h-110l18 86h102q4 35 11.5 60.5t15.5 46.5h-106z" />
<glyph unicode="&#x2122;" horiz-adv-x="1429" d="M639 866l207 664h90l72 -483l280 483h90l-82 -664h-96l72 549l-305 -538h-35l-78 522l-158 -533h-57zM301 866l131 615h-205l11 49h503l-10 -49h-207l-131 -615h-92z" />
<glyph unicode="&#x25fc;" horiz-adv-x="1034" d="M0 1034h1034v-1034h-1034v1034z" />
</font>
</defs>
</svg>
