<svg xmlns="http://www.w3.org/2000/svg">
<defs>
<font id="UniversLTCYR-65BoldOblique" horiz-adv-x="556" >
  <font-face 
    font-family="Univers LT CYR 45 Light"
    font-weight="700"
    font-style="oblique"
    font-stretch="normal"
    units-per-em="1000"
    panose-1="2 11 7 3 3 5 2 9 2 4"
    ascent="724"
    descent="-276"
    x-height="505"
    cap-height="722"
    bbox="-172 -270 1169 1057"
    underline-thickness="50"
    underline-position="-50"
    slope="-12"
    unicode-range="U+000D-U+FB04"
  />
<missing-glyph horiz-adv-x="512" 
d="M278 117h-56v67h56v-67zM271 234h-46l-2 17q0 56 13 81q15 28 46 59q30 28 40 45.5t10 37.5q0 36 -22.5 60.5t-53.5 24.5q-71 0 -82 -95l-50 8q6 69 42 103t93 34q55 0 89.5 -36t34.5 -95q0 -34 -13 -60t-50 -60q-37 -33 -43 -52q-6 -20 -6 -72zM50 50h412v617h-412v-617
zM0 718h512v-718h-512v718z" />
    <glyph glyph-name="IJ" unicode="IJ" horiz-adv-x="822" 
d="M60 0l154 725h155l-154 -725h-155zM325 234h152q-14 -58 -1 -93t59 -35q62 0 91 61q9 22 31 113l94 443h157l-95 -444q-19 -91 -56.5 -153.5t-109.5 -101.5q-58 -31 -146 -31q-65 0 -107 19t-64 69q-24 53 -5 153z" />
    <glyph glyph-name="ij" unicode="ij" horiz-adv-x="549" 
d="M186 593l27 129h158l-27 -129h-158zM65 0l108 506h148l-108 -506h-148zM228 -194l21 100q23 -1 40 8t26 25t12.5 27.5t6.5 25.5l110 515h148l-118 -552q-16 -76 -61.5 -114.5t-135.5 -38.5q-28 0 -49 4zM457 593l27 129h158l-27 -129h-158z" />
    <glyph glyph-name="napostrophe" unicode="&#x22;n" horiz-adv-x="611" 
d="M67 0l88 415q5 11 17 92h142l-12 -76q69 88 182 88q66 0 97.5 -30t36.5 -65q6 -38 -18 -151l-58 -273h-151l67 314q8 40 3 55q-12 43 -62 43q-52 0 -86 -39q-24 -28 -34 -77l-63 -296h-149zM202 722h106l-113 -159h-67z" />
    <glyph glyph-name="f_f" unicode="ff" horiz-adv-x="653" 
d="M76 0l85 400h-76l22 105h76l15 69q15 76 61 118.5t146 42.5q39 0 79 -5l-22 -103q-23 3 -31 3q-26 0 -44 -6t-27 -18t-12 -20t-6 -22l-12 -59h73l-22 -105h-73l-85 -400h-147zM395 0l85 400h-65l22 105h65l15 69q15 76 61.5 118.5t146.5 42.5q38 0 79 -5l-22 -103
q-23 3 -31 3q-27 0 -45 -6t-27 -18t-12 -20t-6 -22l-12 -59h94l-22 -105h-94l-85 -400h-147z" />
    <glyph glyph-name="fi" unicode="fi" horiz-adv-x="611" 
d="M78 0l85 400h-76l22 105h76l15 69q16 76 61.5 118.5t145.5 42.5q39 0 79 -5l-22 -103q-21 3 -30 3q-26 0 -44 -6t-27 -18t-12 -20.5t-6 -21.5l-13 -59h93l-22 -105h-93l-85 -400h-147zM519 593l27 129h158l-27 -129h-158zM398 0l108 506h148l-108 -506h-148z" />
    <glyph glyph-name="fl" unicode="fl" horiz-adv-x="611" 
d="M80 0l85 400h-75l22 105h75l15 69q16 76 62 118.5t146 42.5q38 0 78 -5l-22 -103q-19 3 -29 3q-27 0 -45 -6t-27 -18t-12 -20.5t-6 -21.5l-13 -59h94l-22 -105h-94l-85 -400h-147zM398 0l154 723h148l-154 -723h-148z" />
    <glyph glyph-name="f_f_i" unicode="ffi" horiz-adv-x="928" 
d="M76 0l85 400h-76l22 105h76l15 69q15 76 61 118.5t146 42.5q39 0 79 -5l-22 -103q-23 3 -31 3q-26 0 -44 -6t-27 -18t-12 -20t-6 -22l-12 -59h73l-22 -105h-73l-85 -400h-147zM395 0l85 400h-65l22 105h65l15 69q15 76 61.5 118.5t146.5 42.5q38 0 79 -5l-22 -103
q-23 3 -31 3q-27 0 -45 -6t-27 -18t-12 -20t-6 -22l-12 -59h94l-22 -105h-94l-85 -400h-147zM836 593l27 129h158l-27 -129h-158zM715 0l107 506h148l-107 -506h-148z" />
    <glyph glyph-name="f_f_l" unicode="ffl" horiz-adv-x="926" 
d="M76 0l85 400h-76l22 105h76l15 69q15 76 61 118.5t146 42.5q39 0 79 -5l-22 -103q-23 3 -31 3q-26 0 -44 -6t-27 -18t-12 -20t-6 -22l-12 -59h73l-22 -105h-73l-85 -400h-147zM395 0l85 400h-65l22 105h65l15 69q15 76 61.5 118.5t146.5 42.5q38 0 79 -5l-22 -103
q-23 3 -31 3q-27 0 -45 -6t-27 -18t-12 -20t-6 -22l-12 -59h94l-22 -105h-94l-85 -400h-147zM713 0l153 723h148l-153 -723h-148z" />
    <glyph glyph-name=".notdef" horiz-adv-x="512" 
d="M278 117h-56v67h56v-67zM271 234h-46l-2 17q0 56 13 81q15 28 46 59q30 28 40 45.5t10 37.5q0 36 -22.5 60.5t-53.5 24.5q-71 0 -82 -95l-50 8q6 69 42 103t93 34q55 0 89.5 -36t34.5 -95q0 -34 -13 -60t-50 -60q-37 -33 -43 -52q-6 -20 -6 -72zM50 50h412v617h-412v-617
zM0 718h512v-718h-512v718z" />
    <glyph glyph-name=".null" horiz-adv-x="500" 
 />
    <glyph glyph-name="nonmarkingreturn" horiz-adv-x="333" 
 />
    <glyph glyph-name="CR" unicode="&#xd;" horiz-adv-x="0" 
 />
    <glyph glyph-name="space" unicode=" " horiz-adv-x="278" 
 />
    <glyph glyph-name="exclam" unicode="!" horiz-adv-x="389" 
d="M286 197h-103l94 526h134zM129 0l28 133h127l-28 -133h-127z" />
    <glyph glyph-name="quotedbl" unicode="&#x22;" horiz-adv-x="474" 
d="M221 697h133l-80 -248h-79zM413 697h132l-79 -248h-79z" />
    <glyph glyph-name="numbersign" unicode="#" 
d="M28 175l24 110h103l47 121h-82l24 110h103l71 181h128l-71 -181h95l71 181h129l-72 -181h83l-24 -110h-103l-47 -121h82l-24 -110h-103l-69 -175h-128l70 175h-96l-69 -175h-129l69 175h-82zM283 285h95l48 121h-95z" />
    <glyph glyph-name="dollar" unicode="$" 
d="M70 215h136q-9 -30 -5.5 -50t10 -32t19 -18.5t21 -8.5t16.5 -2l38 177q-21 6 -37 12l-35 13.5t-32 16.5t-26.5 20.5t-21 25.5t-13 31t-5 38.5t5.5 46.5q17 77 79 132q32 28 71 45t56.5 20t49.5 6l18 84h55l-17 -82q106 -8 147 -60q25 -31 27 -74t-6 -63h-134
q9 51 -6.5 69.5t-52.5 22.5l-37 -178q21 -5 35.5 -9.5t33 -11t31 -13t27 -16t23 -20t16.5 -25t11.5 -30.5t3 -36.5t-5.5 -43.5q-21 -100 -119 -161q-62 -38 -150 -43l-22 -100h-53l22 100q-100 -3 -153 59q-42 48 -21 158zM340 422l34 161q-38 -2 -62 -23.5t-31 -54.5
q-8 -38 8 -55t51 -28zM356 270l-35 -168q34 3 62.5 25t36.5 60q7 32 -8 51.5t-56 31.5z" />
    <glyph glyph-name="percent" unicode="%" horiz-adv-x="889" 
d="M171 569q5 24 10 41t20.5 48.5t36 51.5t57.5 36t84 16q50 0 80.5 -14.5t41 -42.5t10.5 -57.5t-8 -68.5l-10 -41t-20.5 -50t-37 -54.5t-58.5 -37.5t-86 -17q-160 0 -120 190zM280 573q-13 -58 -6.5 -85t37.5 -27q28 0 48.5 25t34.5 92q23 106 -32 106q-60 0 -82 -111z
M549 182l6.5 27t10.5 32.5t16.5 37.5t25 35t36 31.5t49 20t63.5 8.5q40 0 67.5 -10.5t42 -26.5t20 -41t4 -49.5t-8.5 -54.5q-5 -25 -10 -42t-21 -50t-37 -54t-59.5 -38t-86.5 -17q-159 0 -118 191zM656 185q-13 -57 -5.5 -84.5t38.5 -27.5q28 0 48 25t34 92q23 106 -32 106
q-58 0 -83 -111zM756 769h75l-546 -781h-75z" />
    <glyph glyph-name="ampersand" unicode="&#x26;" horiz-adv-x="778" 
d="M654 449h148q-19 -91 -51.5 -159.5t-92.5 -139.5l115 -152h-187l-42 67q-38 -25 -64 -39t-79 -29.5t-109 -15.5q-121 0 -184.5 58t-42.5 160q18 78 82 142q42 41 117 84q-47 50 -55 95q-6 28 1 58q3 16 10.5 34t27 42t46 43t71.5 32t101 13q53 0 91.5 -11.5t56.5 -29
t28.5 -39t8.5 -42t-3 -36.5q-8 -39 -30 -72t-54.5 -56.5t-51 -34.5t-44.5 -24l115 -147q31 53 44 92t27 107zM408 475q84 53 95 105q7 29 -9 47.5t-49 18.5t-56.5 -17.5t-29.5 -46.5q-4 -20 7.5 -46.5t22 -39t19.5 -21.5zM470 145l-143 185q-89 -52 -103 -119
q-12 -55 18.5 -87.5t82.5 -32.5q67 0 145 54z" />
    <glyph glyph-name="quotesingle" unicode="'" horiz-adv-x="238" 
d="M173 449l26 248h133l-80 -248h-79z" />
    <glyph glyph-name="parenleft" unicode="(" horiz-adv-x="333" 
d="M325 757h109l-66.5 -125t-60.5 -139t-55 -177q-20 -93 -20 -179.5t14 -259.5h-109q-49 245 -9 434q39 184 197 446z" />
    <glyph glyph-name="parenright" unicode=")" horiz-adv-x="333" 
d="M143 -123h-109l66.5 125t60.5 139t55 177q14 65 17 133.5t0.5 125t-11.5 180.5h109q50 -244 9 -433q-39 -183 -197 -447z" />
    <glyph glyph-name="asterisk" unicode="*" 
d="M166 465l22 106l148 -22l-69 119l104 51l26 -138l89 141l82 -55l-123 -118l157 18l-25 -106l-144 23l68 -123l-104 -51l-28 141l-88 -142l-79 54l119 122z" />
    <glyph glyph-name="plus" unicode="+" horiz-adv-x="584" 
d="M225 0v202h-199l-1 129h199v202h134v-202h199l1 -129h-199v-202h-134z" />
    <glyph glyph-name="comma" unicode="," horiz-adv-x="278" 
d="M130 133h148l-171 -246h-103z" />
    <glyph glyph-name="hyphen" unicode="-" horiz-adv-x="333" 
d="M88 208l24 113h248l-24 -113h-248z" />
    <glyph glyph-name="period" unicode="." horiz-adv-x="278" 
d="M74 0l28 133h127l-28 -133h-127z" />
    <glyph glyph-name="slash" unicode="/" horiz-adv-x="444" 
d="M453 718h115l-422 -718h-117z" />
    <glyph glyph-name="zero" unicode="0" 
d="M112 347q8 37 19 74t37.5 92t59 95.5t86.5 70t117 29.5q66 0 106 -27.5t57 -64.5q43 -92 9 -252q-11 -54 -26.5 -101.5t-42.5 -99.5t-61 -89t-85 -61t-111 -24q-52 0 -89.5 19.5t-57.5 52.5t-28.5 79.5t-5 97.5t15.5 109zM448 339q23 112 19 172q0 10 -1.5 21t-7 26
t-18.5 24.5t-32 9.5q-48 0 -82 -60q-44 -82 -64 -195q-50 -230 44 -230t142 232z" />
    <glyph glyph-name="one" unicode="1" 
d="M191 454l30 139q107 42 207 105h129l-148 -698h-151l115 543q-72 -48 -182 -89z" />
    <glyph glyph-name="two" unicode="2" 
d="M25 0l30 141l216 165q85 65 128 106q36 34 50 55t19 46q8 40 -9 64.5t-55 24.5q-79 0 -110 -102h-153q17 80 69 131q78 76 215 76q111 0 162.5 -53t33.5 -137q-7 -32 -23 -61.5t-57 -77t-125.5 -115t-211.5 -154.5q40 1 94.5 2t98.5 2q129 2 143 3l-25 -116h-490z" />
    <glyph glyph-name="three" unicode="3" 
d="M62 190h152q-13 -93 71 -93q41 0 71 26.5t39 68.5q6 30 -1.5 50.5t-20 30.5t-39 15.5t-43 6t-46.5 0.5l25 117q30 1 46 2t45.5 7t46.5 16t34 30t23 49q8 39 -12.5 61t-56.5 22q-35 0 -64.5 -23t-38.5 -64h-153q22 75 66 118q80 77 210 77q51 0 90 -12.5t60 -32.5
t34.5 -45.5t13.5 -51t-3 -48.5q-25 -119 -168 -158q48 -16 74 -43q47 -48 31 -125q-19 -88 -103.5 -147t-193.5 -59q-110 0 -158 47q-53 53 -31 158z" />
    <glyph glyph-name="four" unicode="4" 
d="M328 152h-280l29 135l367 411h149l-92 -431h95l-25 -115h-95l-32 -152h-148zM418 525l-234 -261h176l39 184q10 43 19 77z" />
    <glyph glyph-name="five" unicode="5" 
d="M68 172h148q-7 -21 6.5 -49.5t58.5 -28.5q44 0 80.5 33t50.5 98q11 55 -4.5 90t-62.5 35q-68 0 -103 -70l-145 4l104 413h423l-24 -114h-291l-46 -173q68 50 143 50q87 0 133.5 -60t25.5 -162q-10 -47 -33.5 -90t-60 -80.5t-91 -60t-118.5 -22.5q-131 0 -179 76
q-28 45 -15 111z" />
    <glyph glyph-name="six" unicode="6" 
d="M631 525h-148q6 34 -13 53q-16 16 -46 16q-21 0 -39 -7.5t-30.5 -18t-24.5 -29.5t-19 -33.5t-14.5 -38t-10.5 -35.5t-8 -34q71 56 148 56q81 0 128.5 -57t25.5 -164q-25 -114 -113 -182q-83 -65 -192 -65q-39 0 -70 8.5t-51.5 21.5t-34.5 34.5t-21.5 40t-10 46.5
t-2.5 46.5t3.5 46.5t6 40t6.5 33q58 272 189 355q76 49 171 49q86 0 136.5 -46t33.5 -136zM308 98q38 0 73 30t49 95q12 56 -6.5 88t-57.5 32q-18 0 -39.5 -7t-49.5 -37t-38 -79q-13 -61 8 -91.5t61 -30.5z" />
    <glyph glyph-name="seven" unicode="7" 
d="M160 581l25 116h473l-26 -124l-362 -573h-167l378 581h-321z" />
    <glyph glyph-name="eight" unicode="8" 
d="M252 366q-20 7 -34 14t-36 23.5t-30.5 45t-0.5 66.5q17 74 91.5 134.5t191.5 60.5q104 0 159 -53.5t38 -135.5q-13 -60 -62.5 -102t-107.5 -51q72 -21 97 -72q22 -44 10 -104q-20 -93 -106 -148t-193 -55q-105 0 -160 59t-37 144q15 72 77 122q39 31 103 52zM371 423
q40 0 72 24.5t41 65.5t-13.5 64t-60.5 23q-39 0 -70.5 -24t-39.5 -63q-8 -38 11.5 -64t59.5 -26zM301 96q38 0 74 26.5t48 79.5q9 46 -14.5 73.5t-64.5 27.5q-43 0 -77.5 -29.5t-43.5 -73.5q-11 -50 13.5 -77t64.5 -27z" />
    <glyph glyph-name="nine" unicode="9" 
d="M69 170h151q-3 -32 12 -50q16 -18 47 -18q37 0 64.5 17.5t44.5 49.5t26.5 63.5t16.5 73.5q-64 -48 -136 -48q-49 0 -85 15t-53.5 38.5t-27.5 52.5t-8 58t5 55q22 100 102.5 164.5t193.5 64.5q50 0 86.5 -13.5t57.5 -33.5t32.5 -52t15 -59.5t0.5 -65.5t-7 -61.5t-11 -54.5
q-45 -211 -130 -295t-220 -84q-167 0 -181 113q-4 31 4 70zM346 373q50 0 80.5 34.5t40.5 79.5q9 48 -9 77t-62 29q-49 0 -80 -32.5t-40 -77.5q-3 -14 -3.5 -28.5t3.5 -35t22 -33.5t48 -13z" />
    <glyph glyph-name="colon" unicode=":" horiz-adv-x="278" 
d="M76 0l28 134h126l-28 -134h-126zM155 370l28 135h126l-28 -135h-126z" />
    <glyph glyph-name="semicolon" unicode=";" horiz-adv-x="278" 
d="M159 370l28 135h126l-28 -135h-126zM115 133h148l-171 -246h-103z" />
    <glyph glyph-name="less" unicode="&#x3c;" horiz-adv-x="584" 
d="M26 200v134l532 206l-1 -140l-371 -133l371 -133l1 -141z" />
    <glyph glyph-name="equal" unicode="=" horiz-adv-x="584" 
d="M26 318l-1 129h532l1 -129h-532zM25 86l1 129h532l-1 -129h-532z" />
    <glyph glyph-name="greater" unicode="&#x3e;" horiz-adv-x="584" 
d="M559 200l-533 -207l-1 141l373 133l-373 133l1 140l533 -206v-134z" />
    <glyph glyph-name="question" unicode="?" horiz-adv-x="500" 
d="M290 162h-114l20 93q3 15 6.5 24t16 26.5t33.5 37.5l54 49q95 86 107 145q2 10 2.5 20t-3.5 25t-13.5 26t-31 19.5t-53.5 8.5q-45 0 -138 -24l22 104q80 20 173 20q46 0 85 -10.5t69 -32t42.5 -59t2.5 -85.5q-11 -54 -49 -96q-39 -43 -65 -63l-68 -51
q-46 -35 -60.5 -52.5t-19.5 -43.5zM139 0l26 120h120l-26 -120h-120z" />
    <glyph glyph-name="at" unicode="@" horiz-adv-x="975" 
d="M802 135l24 -45q-171 -108 -328 -108q-170 0 -255 103t-50 267q25 116 99.5 205t175 135t208.5 46q142 0 223 -79.5t51 -221.5q-23 -107 -98 -182.5t-161 -75.5q-51 0 -69 32q-11 21 -7 47q-63 -85 -151 -85q-59 0 -88 41t-14 112q19 91 93 164t157 73q52 0 76 -27
q12 -14 16 -34l22 45h99l-104 -206q-22 -41 -25 -61q-4 -17 4 -26t22 -9q42 0 92 56t68 141q13 63 -1 111t-48.5 74.5t-77.5 39.5t-93 13q-91 0 -173.5 -37.5t-146 -114t-85.5 -180.5q-30 -142 42.5 -225t215.5 -83t287 95zM477 311q-13 -66 36 -66q39 0 80 60q18 26 34 60
t24 55t8 24q4 19 -6 33t-33 14q-40 0 -84.5 -56.5t-58.5 -123.5z" />
    <glyph glyph-name="A" unicode="A" horiz-adv-x="722" 
d="M420 723h184l97 -723h-156l-19 156h-286l-87 -156h-148zM305 273h207l-35 308z" />
    <glyph glyph-name="B" unicode="B" horiz-adv-x="667" 
d="M68 0l153 722h270q123 0 171 -34q69 -51 49 -154q-15 -70 -65 -108q-42 -36 -93 -49v-2q74 -14 101 -63.5t14 -112.5q-13 -60 -52 -103.5t-90 -66.5q-62 -29 -188 -29h-270zM346 611l-39 -183h108q24 0 39.5 2t40 9.5t41 28t23.5 53.5q3 13 3 24.5t-2.5 19.5t-5.5 15
t-10 11.5l-12.5 8t-15 5.5t-16 3.5t-17 2t-16.5 0.5h-16h-105zM283 316l-42 -200h105q29 0 44 0.5t40 5.5t39.5 14.5t28 29t19.5 47.5q3 15 3.5 28t-3 22.5t-8 17t-13 13t-15.5 9.5t-19.5 6.5t-21 4t-23 2t-22.5 0.5h-23h-89z" />
    <glyph glyph-name="C" unicode="C" horiz-adv-x="667" 
d="M738 487h-158q10 127 -90 127q-82 0 -138.5 -74.5t-82.5 -194.5q-3 -16 -5.5 -28t-5 -39.5t-2 -48.5t6.5 -47.5t17.5 -43.5t34 -29t53.5 -12q53 0 97.5 34.5t61.5 102.5h163q-9 -31 -16.5 -51.5t-30 -55.5t-54.5 -63q-96 -81 -229 -81q-72 0 -125 21t-82.5 55t-44 82
t-13.5 98.5t13 106.5q36 172 148 276.5t264 104.5q119 0 179.5 -66t38.5 -174z" />
    <glyph glyph-name="D" unicode="D" horiz-adv-x="722" 
d="M65 0l153 721l239 -1q161 0 235 -65q54 -47 68.5 -128.5t-5.5 -155.5q-33 -157 -125.5 -250t-207.5 -113q-45 -8 -132 -8h-225zM350 604l-103 -485q34 -2 61 -2q59 0 100 9.5t78 40.5q77 63 109 204q10 53 8.5 97.5t-25.5 78.5t-68 47q-50 15 -160 10z" />
    <glyph glyph-name="E" unicode="E" horiz-adv-x="611" 
d="M74 0l154 723h484l-25 -118h-329l-37 -172h308l-25 -118h-308l-41 -195h340l-26 -120h-495z" />
    <glyph glyph-name="F" unicode="F" 
d="M69 0l153 722h466l-24 -116h-311l-38 -178h290l-26 -120h-290l-65 -308h-155z" />
    <glyph glyph-name="G" unicode="G" horiz-adv-x="778" 
d="M821 501h-161q9 43 -4 73q-23 56 -109 56q-62 0 -112 -26.5t-81 -70.5t-49 -87t-28 -91q-27 -131 19 -194q43 -62 157 -62q71 0 121 14l32 152h-140l26 120h295l-77 -361q-128 -40 -272 -40q-210 0 -287 96q-76 94 -39 270q40 187 167 290t296 103q165 0 227 -91
q38 -58 19 -151z" />
    <glyph glyph-name="H" unicode="H" horiz-adv-x="722" 
d="M67 0l154 723h155l-62 -289h273l62 289h157l-154 -723h-155l67 317h-275l-67 -317h-155z" />
    <glyph glyph-name="I" unicode="I" horiz-adv-x="278" 
d="M60 0l154 725h155l-154 -725h-155z" />
    <glyph glyph-name="J" unicode="J" 
d="M59 234h152q-14 -58 -1 -93t59 -35q62 0 91 61q9 22 31 113l94 443h157l-95 -444q-19 -91 -56.5 -153.5t-109.5 -101.5q-58 -31 -146 -31q-65 0 -107 19t-64 69q-24 53 -5 153z" />
    <glyph glyph-name="K" unicode="K" horiz-adv-x="667" 
d="M67 0l153 721h155l-66 -311l309 313h181l-334 -324l203 -399h-193l-175 368l-78 -368h-155z" />
    <glyph glyph-name="L" unicode="L" 
d="M69 0l153 722h158l-127 -599h310l-26 -123h-468z" />
    <glyph glyph-name="M" unicode="M" horiz-adv-x="944" 
d="M60 0l154 723h253l41 -526l277 526h246l-154 -723h-154l132 620l-329 -620h-128l-61 620l-132 -620h-145z" />
    <glyph glyph-name="N" unicode="N" horiz-adv-x="778" 
d="M72 0l154 723h224l150 -569l121 569h144l-154 -723h-213l-152 600l-128 -600h-146z" />
    <glyph glyph-name="O" unicode="O" horiz-adv-x="778" 
d="M117 351q16 76 48 142t83 122.5t127.5 89.5t170.5 33q167 0 233 -98q69 -105 34 -272q-17 -81 -57.5 -158t-93.5 -125q-113 -103 -279 -103q-160 0 -235 99q-68 94 -31 270zM280 356q-28 -131 11 -202q29 -58 118 -58q92 0 150 67q64 75 93 207q16 79 9 129
q-16 128 -138 128q-85 0 -146 -61q-67 -66 -97 -210z" />
    <glyph glyph-name="P" unicode="P" horiz-adv-x="611" 
d="M65 0l153 721h223q93 0 148.5 -15t85.5 -64q34 -53 16 -135q-13 -63 -48.5 -113.5t-84.5 -78.5q-60 -34 -171 -34h-105l-60 -281h-157zM346 604l-44 -208h62q22 0 35 0.5t37.5 6.5t40.5 16.5t31.5 33t22.5 53.5q7 34 -1 56t-30 30t-37 10t-39 2h-78z" />
    <glyph glyph-name="Q" unicode="Q" horiz-adv-x="778" 
d="M785 111l-24 -113q-90 2 -178 2q-8 0 -26 -1t-46 -2t-46 -2q-100 -6 -115 -6q-56 0 -99.5 14.5t-70.5 38t-45.5 55.5t-26 65.5t-9 70t1.5 66t9 57.5q16 76 51 143t87 121t127 85.5t164 31.5q145 0 215 -95.5t33 -268.5q-36 -167 -166 -269q66 12 164 7zM272 365
q-9 -44 -10.5 -85.5t7 -84t40 -68.5t83.5 -26q54 0 97 25.5t70.5 69t44 86.5t27.5 93q25 117 -6 185q-11 26 -40 46.5t-76 20.5q-65 0 -115.5 -39.5t-78.5 -95.5t-43 -127z" />
    <glyph glyph-name="R" unicode="R" horiz-adv-x="667" 
d="M60 0l154 723h277q52 1 81.5 -1t67 -13.5t59.5 -34.5q52 -55 34 -139q-29 -134 -189 -177q51 -5 74 -26.5t23.5 -56.5t-2.5 -83q-9 -113 -8 -140q1 -28 11 -52h-171q1 11 5.5 72.5t7.5 114t1 64.5q-2 14 -8.5 23.5t-18.5 12.5t-20 4t-22 1h-136l-62 -292h-158zM342 609
l-42 -202h125q54 0 83 20q47 31 58 84q12 57 -21 81q-10 8 -25.5 12t-29.5 4.5t-44 0.5h-104z" />
    <glyph glyph-name="S" unicode="S" horiz-adv-x="667" 
d="M84 231h158q-4 -18 -5.5 -28.5t0.5 -34t11.5 -37t33.5 -25.5t62 -12q63 0 105.5 27.5t52.5 73.5q10 44 -15 61t-101 36q-131 35 -184.5 82.5t-34.5 136.5q20 97 105.5 160.5t227.5 63.5q151 0 200 -85q30 -52 13 -134h-149q13 110 -94 110q-54 0 -92 -27t-48 -71
q-5 -24 0.5 -40t24 -27t42.5 -19t63 -18q3 -1 5 -1q21 -5 35.5 -9t34 -10t33 -12l29.5 -13.5t26 -16.5l21 -19.5t17 -23.5t10 -28.5t3 -33.5t-5 -39q-21 -102 -117 -168.5t-241 -66.5q-57 0 -100 10.5t-68.5 25.5t-41 40t-21.5 44.5t-5.5 48.5t3 43z" />
    <glyph glyph-name="T" unicode="T" horiz-adv-x="611" 
d="M229 0l128 603h-215l26 120h586l-26 -120h-215l-128 -603h-156z" />
    <glyph glyph-name="U" unicode="U" horiz-adv-x="778" 
d="M225 721h155l-93 -440l-6.5 -35t-3.5 -34.5t2 -34t11.5 -29t23 -24.5t38 -15t54.5 -6q99 0 153 63q31 34 49 123l92 432h151l-96 -451q-16 -77 -56.5 -134.5t-95 -88.5t-110.5 -46t-115 -15q-32 0 -63.5 4.5t-68.5 16.5t-67 39t-46 65q-11 26 -13 57.5t1 55.5t12 65z" />
    <glyph glyph-name="V" unicode="V" horiz-adv-x="722" 
d="M165 720h169l69 -567l310 567h153l-419 -720h-169z" />
    <glyph glyph-name="W" unicode="W" horiz-adv-x="1000" 
d="M168 720h160l-3 -541l256 541h175l12 -541l232 541h148l-337 -722h-172l-14 552l-258 -552h-176z" />
    <glyph glyph-name="X" unicode="X" horiz-adv-x="722" 
d="M184 723h191l93 -246l209 246h166l-312 -348l172 -375h-190l-103 272l-231 -272h-166l333 374z" />
    <glyph glyph-name="Y" unicode="Y" horiz-adv-x="667" 
d="M169 720h181l79 -329l222 329h159l-341 -457l-56 -263h-153l56 265z" />
    <glyph glyph-name="Z" unicode="Z" horiz-adv-x="611" 
d="M27 0l28 132l479 473l-356 -3l25 118h523l-29 -137l-477 -470l386 6l-25 -119h-554z" />
    <glyph glyph-name="bracketleft" unicode="[" horiz-adv-x="333" 
d="M447 752l-20 -92h-109l-146 -690h109l-20 -93h-229l186 875h229z" />
    <glyph glyph-name="backslash" unicode="\" horiz-adv-x="278" 
d="M182 718h115l118 -718h-117z" />
    <glyph glyph-name="bracketright" unicode="]" horiz-adv-x="333" 
d="M186 660l20 92h229l-186 -875h-229l20 93h109l146 690h-109z" />
    <glyph glyph-name="asciicircum" unicode="^" horiz-adv-x="584" 
d="M50 264l181 433h117l181 -433h-138l-102 272l-101 -272h-138z" />
    <glyph glyph-name="underscore" unicode="_" horiz-adv-x="500" 
d="M-27 -125l11 50h500l-11 -50h-500z" />
    <glyph glyph-name="grave" unicode="`" horiz-adv-x="278" 
d="M283 730l53 -145h-85l-108 145h140z" />
    <glyph glyph-name="a" unicode="a" 
d="M502 0h-134q3 42 10 69q-74 -81 -169 -81q-83 0 -117 40q-35 44 -20 111q8 41 40 84.5t100 72.5q68 28 206 28q9 45 7 67q-6 42 -57 42q-37 0 -62 -28q-15 -17 -20 -45h-145q18 79 82 119q66 41 162 41q123 0 166 -65q26 -42 8 -124l-42 -203q-15 -72 -15 -128zM400 238
q-72 6 -121.5 -16t-59.5 -66q-6 -28 8.5 -50t48.5 -22q38 0 69 29q23 22 33.5 49.5t21.5 75.5z" />
    <glyph glyph-name="b" unicode="b" horiz-adv-x="611" 
d="M60 0l153 721h148l-59 -277q66 68 158 68q95 0 142 -71.5t21 -195.5q-28 -131 -103 -193t-162 -62q-105 0 -135 81q-10 -40 -20 -71h-143zM471 240q3 14 5 27t4 35t-1.5 39.5t-11 35t-25.5 27t-43 9.5q-38 0 -66.5 -18.5t-43.5 -49t-21.5 -49.5t-10.5 -39
q-18 -83 4.5 -126.5t74.5 -43.5q100 0 135 153z" />
    <glyph glyph-name="c" unicode="c" horiz-adv-x="500" 
d="M546 326h-145q10 93 -45 93q-77 0 -112 -161q-25 -114 4 -155q12 -17 36 -17q12 0 25 4.5t33 28t31 64.5h146q-25 -98 -97 -149q-64 -47 -154 -47q-113 0 -158 67q-47 73 -21 199q14 65 43 115t61 77t70 43.5t65.5 21.5t51.5 5q81 0 133 -47t33 -142z" />
    <glyph glyph-name="d" unicode="d" horiz-adv-x="611" 
d="M493 443l59 279h149l-136 -640q-9 -46 -13 -82h-150l12 73q-29 -38 -64 -57q-46 -26 -103 -26q-101 0 -144 66t-18 185q27 124 104 197.5t177 73.5q92 0 127 -69zM236 245q-17 -63 -0.5 -111t68.5 -48q31 0 60 16.5t46 40.5q32 43 50 119q16 73 -5.5 113t-72.5 40
q-35 0 -62.5 -18.5t-44 -48.5t-25.5 -54t-14 -49z" />
    <glyph glyph-name="e" unicode="e" 
d="M569 215h-339q-29 -135 74 -135q70 0 103 70h135q-19 -65 -71 -110q-70 -59 -190 -59q-117 0 -165 63q-50 69 -23 197q37 167 156 239q73 42 151 42q62 0 111 -28.5t67 -93.5q20 -73 -9 -185zM254 308h183q3 15 4 28.5t-1.5 35.5t-19.5 35.5t-47 13.5q-46 0 -76 -32
t-43 -81z" />
    <glyph glyph-name="f" unicode="f" horiz-adv-x="333" 
d="M75 0l85 400h-75l22 105h75l15 69q16 76 62 118.5t146 42.5q38 0 79 -5l-22 -103q-21 3 -30 3q-27 0 -45 -6t-27 -18t-12 -20.5t-6 -21.5l-13 -59h94l-22 -105h-94l-85 -400h-147z" />
    <glyph glyph-name="g" unicode="g" horiz-adv-x="611" 
d="M512 503h139q-21 -64 -34 -125l-79 -373q-43 -204 -295 -204q-28 0 -50 2t-53 11t-50 25.5t-30.5 48t-4.5 75.5h142q0 -29 7 -41q15 -29 66 -29q35 0 63.5 17t42.5 49q10 20 33 120q-67 -69 -151 -69q-102 0 -141.5 74t-18.5 174q22 103 94 176.5t175 73.5q32 0 56 -7.5
t38 -21.5t19.5 -21.5t12.5 -21.5zM246 258q-29 -147 68 -147q29 0 53 13.5t38 30.5t24 40t13.5 36t5.5 24q32 154 -68 154q-45 0 -81.5 -37t-52.5 -114z" />
    <glyph glyph-name="h" unicode="h" horiz-adv-x="611" 
d="M69 0l153 722h147l-60 -286q70 76 162 76q95 0 132 -68q23 -45 4 -137l-65 -307h-147l64 302q23 110 -59 110q-38 0 -72 -24.5t-45 -78.5l-65 -309h-149z" />
    <glyph glyph-name="i" unicode="i" horiz-adv-x="278" 
d="M186 593l27 129h158l-27 -129h-158zM65 0l108 506h148l-108 -506h-148z" />
    <glyph glyph-name="j" unicode="j" horiz-adv-x="278" 
d="M-43 -194l21 100q23 -1 40 8t26 25t12.5 27.5t6.5 25.5l110 515h148l-118 -552q-16 -76 -61.5 -114.5t-135.5 -38.5q-28 0 -49 4zM186 593l27 129h158l-27 -129h-158z" />
    <glyph glyph-name="k" unicode="k" 
d="M67 0l154 723h147l-91 -426l198 211h167l-220 -220l123 -288h-175l-98 275l-58 -275h-147z" />
    <glyph glyph-name="l" unicode="l" horiz-adv-x="278" 
d="M65 0l154 723h148l-154 -723h-148z" />
    <glyph glyph-name="m" unicode="m" horiz-adv-x="944" 
d="M68 0l87 410q11 49 15 95h143l-8 -65q69 76 172 76q122 0 138 -95q70 94 182 94q36 0 63 -9.5t42 -24.5t21.5 -25.5t10.5 -21.5q3 -7 5 -15t2.5 -17t1 -16t-0.5 -18.5t-1.5 -16.5t-3 -18t-3 -16t-3.5 -17t-3 -15l-61 -285h-149l63 297q5 28 6.5 53.5t-15 43t-52.5 17.5
q-26 0 -46 -10t-31.5 -23t-21.5 -37.5t-14.5 -41.5t-10.5 -46l-54 -253h-149l64 300q4 21 5.5 35t-1.5 34t-19 31t-45 11q-33 0 -56 -12t-35 -33.5t-17 -35t-9 -33.5l-63 -297h-149z" />
    <glyph glyph-name="n" unicode="n" horiz-adv-x="611" 
d="M67 0l88 415q5 11 17 92h142l-12 -76q69 88 182 88q66 0 97.5 -30t36.5 -65q6 -38 -18 -151l-58 -273h-151l67 314q8 40 3 55q-12 43 -62 43q-52 0 -86 -39q-24 -28 -34 -77l-63 -296h-149z" />
    <glyph glyph-name="o" unicode="o" horiz-adv-x="611" 
d="M95 248q10 49 33 94t60.5 85.5t95.5 65t129 24.5q130 0 180 -75.5t26 -189.5q-25 -115 -109 -192.5t-214 -77.5q-113 0 -170.5 69t-30.5 197zM247 247q-36 -162 76 -162q53 0 89 39t57 134q33 160 -77 160q-112 0 -145 -171z" />
    <glyph glyph-name="p" unicode="p" horiz-adv-x="611" 
d="M167 505h144l-11 -72q64 82 171 82q98 0 140 -68t17 -184q-24 -114 -98 -192t-179 -78q-90 0 -128 65l-53 -252h-151zM333 90q51 0 89 45t55 122q5 27 6.5 51.5t-3 51.5t-22.5 43.5t-49 16.5q-45 0 -88.5 -40t-63.5 -132q-4 -19 -6 -38.5t0.5 -50.5t23 -50t58.5 -19z" />
    <glyph glyph-name="q" unicode="q" horiz-adv-x="611" 
d="M515 506h146q0 -1 -11 -43t-13 -54l-128 -601h-152l54 251q-70 -66 -154 -66q-88 0 -141 66.5t-25 199.5t104.5 195t163.5 62q102 0 135 -83zM241 255q-18 -84 6 -128q18 -36 70 -36q34 0 60.5 16.5t43 44t25 51t14.5 49.5q5 26 6 50t-4 53t-26 46.5t-57 17.5
q-103 0 -138 -164z" />
    <glyph glyph-name="r" unicode="r" horiz-adv-x="389" 
d="M65 0l81 381q14 66 20 126h139l-18 -97q19 29 36.5 47.5t59.5 36t97 14.5l-28 -133q-52 5 -88.5 -4t-55.5 -31t-27.5 -42t-14.5 -49l-53 -249h-148z" />
    <glyph glyph-name="s" unicode="s" horiz-adv-x="500" 
d="M60 146h139q-4 -28 11.5 -48.5t57.5 -20.5q38 0 62 18t29 42q4 19 -7.5 32.5t-50.5 24.5l-86 25q-22 7 -36 13.5t-35 21.5t-28.5 42t0.5 63q16 73 86 115.5t169 42.5q82 0 127.5 -38t32.5 -111h-135q5 37 -18 51q-15 9 -41 9q-31 0 -53.5 -13.5t-27.5 -36.5t8 -32.5
t50 -20.5l86 -25q126 -37 105 -141q-16 -71 -87 -122.5t-182 -51.5q-113 0 -160 62q-27 36 -16 99z" />
    <glyph glyph-name="t" unicode="t" horiz-adv-x="389" 
d="M384 104l-21 -97q-62 -16 -118 -16q-42 0 -70 11t-39.5 24.5t-14.5 35.5t-1.5 34t5.5 31l59 277h-97l21 98h97l21 99l158 54l-32 -153h120l-21 -98h-120l-49 -228q-4 -23 -5 -40t12 -26t44 -9q24 0 51 3z" />
    <glyph glyph-name="u" unicode="u" horiz-adv-x="611" 
d="M167 505h150l-64 -301q-4 -19 -5.5 -29t-1 -28t6 -28t19.5 -18t37 -8q34 0 57 11t36.5 37t19.5 46.5t15 62.5l54 255h152l-70 -333q-10 -47 -15.5 -78.5t-7.5 -42t-3 -14.5q-3 -19 -4 -37h-144l9 67q-69 -80 -166 -80q-49 0 -85 19.5t-52 48.5q-26 43 -4 136z" />
    <glyph glyph-name="v" unicode="v" 
d="M114 505h158l41 -343l189 343h143l-289 -505h-164z" />
    <glyph glyph-name="w" unicode="w" horiz-adv-x="889" 
d="M112 505h157l12 -381l188 381h163l25 -381l180 381h147l-280 -505h-161l-25 374l-185 -374h-163z" />
    <glyph glyph-name="x" unicode="x" 
d="M123 505h175l60 -165l134 165h154l-216 -246l114 -259h-175l-63 185l-142 -185h-155l227 271z" />
    <glyph glyph-name="y" unicode="y" 
d="M121 505h160l37 -350l187 350h147l-296 -496l-104 -201h-149l105 190z" />
    <glyph glyph-name="z" unicode="z" horiz-adv-x="500" 
d="M32 0l28 130l314 276h-249l21 99h414l-27 -127l-314 -276h266l-22 -102h-431z" />
    <glyph glyph-name="braceleft" unicode="{" horiz-adv-x="333" 
d="M198 449l8 35q7 35 13 56t19.5 51.5t33.5 49.5t50 38.5t75.5 30t104.5 13.5l-18 -82q-32 -3 -57 -14t-38.5 -24t-24 -36.5t-14.5 -37.5t-9 -39l-8 -36q-16 -78 -59.5 -126.5t-136.5 -56.5q79 -10 106 -48q33 -40 13 -135l-8 -37q-5 -25 -7.5 -39t-2 -37.5t9 -36.5t28 -24
t51.5 -13l-17 -82q-135 6 -182 63q-22 24 -25.5 55.5t12.5 120.5l8 35q5 21 6.5 32.5t-0.5 31.5t-11 31.5t-30.5 23t-54.5 16.5l19 86q51 5 90 34q24 18 36 40.5t20 60.5z" />
    <glyph glyph-name="bar" unicode="|" horiz-adv-x="455" 
d="M252 811h106v-1081h-106v1081z" />
    <glyph glyph-name="braceright" unicode="}" horiz-adv-x="333" 
d="M250 93l-8 -35q-6 -30 -10.5 -48t-15.5 -45t-23.5 -44t-34.5 -37t-50 -32t-69 -21t-92 -12l17 82q32 2 56.5 13t38.5 24t24.5 36t14.5 37.5t9 39.5l8 37q18 92 69 135q45 38 128 48q-24 2 -38 4.5t-35 15t-35 33.5q-15 23 -18.5 47t6.5 83l8 36q4 21 6 32.5t3.5 31.5
t-3 32t-13.5 25t-27.5 20.5t-44.5 9.5l18 82q68 -3 112 -19.5t64.5 -36.5t26.5 -54.5t3 -60.5t-12 -68l-8 -35q-14 -69 11 -100q23 -28 79 -35l-19 -86q-42 -7 -70.5 -21t-43.5 -35.5t-20.5 -37t-11.5 -41.5z" />
    <glyph glyph-name="asciitilde" unicode="~" horiz-adv-x="584" 
d="M139 173h-84q24 87 78 138.5t117 51.5q23 0 101 -25q76 -25 97 -31t40 -6q48 0 71 60h85q-10 -33 -25 -63.5t-38 -61t-58 -48.5t-76 -18q-32 0 -169 47q-51 17 -67 17q-50 0 -72 -61z" />
    <glyph glyph-name="uni00A0" unicode="&#xa0;" horiz-adv-x="278" 
 />
    <glyph glyph-name="exclamdown" unicode="&#xa1;" horiz-adv-x="389" 
d="M221 337h103l-93 -527h-134zM378 534l-29 -134h-127l29 134h127z" />
    <glyph glyph-name="cent" unicode="&#xa2;" 
d="M573 637l-66 -143q94 -39 67 -168h-144q0 11 3 32t-9 41t-38 20t-47.5 -18.5t-35 -48.5t-20.5 -51.5t-12 -44.5q-6 -31 -8 -59.5t1 -54.5t15 -41t33 -15q13 0 27.5 5.5t33 29t29.5 62.5h146q-10 -32 -17.5 -52.5t-38.5 -58.5t-76 -59q-67 -32 -145 -25l-62 -136h-68
l68 149q-53 16 -84 80.5t-9 168.5q26 119 103.5 191.5t193.5 72.5q19 0 33 -2l58 125h69z" />
    <glyph glyph-name="sterling" unicode="&#xa3;" 
d="M30 0l25 116h73l44 207h-84l23 112h85l19 88q23 109 107 159q71 43 167 43q39 0 68.5 -7t47.5 -17t30 -27.5t17 -31.5t6 -36t0 -34.5t-3 -32.5h-150q6 34 1 52q-9 33 -49 33q-64 0 -86 -87l-22 -102h169l-23 -112h-169l-44 -207h264l-25 -116h-491z" />
    <glyph glyph-name="currency" unicode="&#xa4;" 
d="M56 169l81 67q-20 55 -8 112q12 56 56 113l-54 67l95 78l53 -67q68 31 117 31q54 0 108 -32l81 67l60 -77l-80 -67q19 -59 7 -113q-12 -58 -55 -113l53 -66l-95 -78l-52 67q-62 -31 -119 -31t-106 31l-82 -67zM373 454q-44 0 -81 -31t-47 -75q-9 -44 15 -75t68 -31
t82 31.5t47 74.5q10 44 -15 75t-69 31z" />
    <glyph glyph-name="yen" unicode="&#xa5;" 
d="M204 0l29 137h-163l16 74h163l15 71h-163l16 74h125l-89 364h181l38 -329l181 329h160l-241 -364h119l-16 -74h-159l-15 -70h159l-16 -74h-158l-30 -138h-152z" />
    <glyph glyph-name="brokenbar" unicode="&#xa6;" horiz-adv-x="456" 
d="M252 730h106v-378h-106v378zM252 189h106v-377h-106v377z" />
    <glyph glyph-name="section" unicode="&#xa7;" 
d="M92 10l27 112q72 -43 134 -43q84 0 95 53q2 12 -0.5 21t-12 15t-15.5 9t-19 8l-81 31q-48 18 -65 55t-9 79q8 38 38 73t80 53q-69 33 -52 112q13 65 74 102.5t148 37.5q74 0 147 -30l-25 -103q-81 39 -137 39q-30 0 -47 -12q-17 -13 -20 -31q-7 -32 34 -51l82 -29
q95 -34 74 -129q-19 -87 -109 -125q75 -44 58 -120q-15 -70 -80 -113.5t-154 -43.5q-81 0 -165 30zM329 292q39 13 60 36t26 45q12 54 -59 67q-76 -20 -87 -74q-10 -50 60 -74z" />
    <glyph glyph-name="dieresis" unicode="&#xa8;" horiz-adv-x="278" 
d="M299 599l25 118h102l-25 -118h-102zM127 599l25 118h102l-25 -118h-102z" />
    <glyph glyph-name="copyright" unicode="&#xa9;" horiz-adv-x="800" 
d="M399 738q156 0 267 -110t111 -268q0 -157 -110.5 -267.5t-267.5 -110.5q-156 0 -266.5 110.5t-110.5 267.5q0 158 111 268t266 110zM399 676q-130 0 -223 -92.5t-93 -223.5t92.5 -223.5t223.5 -92.5q132 0 224.5 93t92.5 223q0 131 -93 223.5t-224 92.5zM582 439h-102
q-1 14 -4.5 28t-22 31.5t-48.5 17.5t-51.5 -14.5t-31.5 -32.5t-15.5 -44.5t-6 -39t-0.5 -27.5q0 -19 2 -36.5t10 -48.5t31 -50t58 -19q31 0 55 20.5t25 61.5h105q-6 -68 -45 -105q-50 -46 -132 -46q-110 0 -161 63t-51 156q0 104 57.5 167t154.5 63q76 0 124 -39.5
t49 -105.5z" />
    <glyph glyph-name="ordfeminine" unicode="&#xaa;" horiz-adv-x="334" 
d="M401 392h-87q2 24 6 42q-44 -49 -108 -49q-59 0 -79 27.5t-13 62.5q7 33 34.5 60.5t66.5 38.5q47 12 123 12q8 20 3 43t-36 23q-44 0 -54 -44h-94q8 37 36.5 59.5t58 29.5t62.5 7q76 0 101.5 -30.5t14.5 -82.5l-26 -122q-9 -41 -9 -77zM333 535q-46 3 -78.5 -9.5
t-38.5 -40.5q-4 -18 7 -30t32 -12q59 0 78 92z" />
    <glyph glyph-name="guillemotleft" unicode="&#xab;" 
d="M149 56l-67 196l149 190h132l-135 -190l53 -196h-132zM392 56l-67 196l149 190h132l-135 -190l53 -196h-132z" />
    <glyph glyph-name="logicalnot" unicode="&#xac;" horiz-adv-x="584" 
d="M24 318l-1 130h533v-363h-134l1 233h-399z" />
    <glyph glyph-name="uni00AD" unicode="&#xad;" horiz-adv-x="333" 
d="M88 208l24 113h248l-24 -113h-248z" />
    <glyph glyph-name="registered" unicode="&#xae;" horiz-adv-x="400" 
d="M199 738q77 0 133 -55t56 -134q0 -78 -55.5 -133.5t-133.5 -55.5t-133.5 55.5t-55.5 133.5q0 79 56 134t133 55zM198 707q-65 0 -111.5 -46t-46.5 -112t46.5 -112.5t111.5 -46.5q66 0 112.5 47t46.5 112q0 66 -46.5 112t-112.5 46zM128 443v212h73q19 0 31.5 -1.5
t27.5 -15t15 -39.5q0 -39 -40 -52q20 -1 25.5 -11.5t9.5 -36.5q6 -47 11 -56h-45q0 4 -2 20.5t-4 31t-2 15.5q-4 18 -22 18h-37v-85h-41zM168 621v-59h33q32 0 32 30q0 29 -31 29h-34z" />
    <glyph glyph-name="macron" unicode="&#xaf;" horiz-adv-x="278" 
d="M439 624h-342l14 68h342z" />
    <glyph glyph-name="degree" unicode="&#xb0;" horiz-adv-x="400" 
d="M348 708q70 0 109.5 -49.5t24.5 -119.5t-74.5 -119.5t-130.5 -49.5q-70 0 -109 49.5t-24 119.5t75 119.5t129 49.5zM327 605q-27 0 -51 -19.5t-29 -46.5q-6 -28 9.5 -47t42.5 -19q28 0 51.5 19.5t29.5 46.5q5 27 -10 46.5t-43 19.5z" />
    <glyph glyph-name="plusminus" unicode="&#xb1;" horiz-adv-x="584" 
d="M225 131v149h-199l-1 130h199v156h134v-156h199l1 -130h-199v-149h-134zM26 -33v130h532v-130h-532z" />
    <glyph glyph-name="twosuperior" unicode="&#xb2;" horiz-adv-x="360" 
d="M240 584h-99q8 47 42 78q49 46 141 46q70 0 104.5 -31.5t23.5 -82.5q-7 -36 -31.5 -64.5t-90.5 -79.5q-50 -40 -144 -101q183 4 218 4l-15 -69h-318l18 84l138 99q63 43 99 81q22 23 28 46q5 22 -7 36.5t-35 14.5q-28 0 -46.5 -17.5t-25.5 -43.5z" />
    <glyph glyph-name="threesuperior" unicode="&#xb3;" horiz-adv-x="360" 
d="M95 394h99q-9 -56 47 -56q24 0 44 14t26 43q2 9 2 16.5t-2 13.5t-5 10.5t-8.5 8t-10.5 6t-13 3.5t-13.5 2t-15.5 1.5t-15.5 0.5h-15.5l15 70q23 0 39.5 2t36 8t32.5 19t17 33q5 24 -9 37t-38 13t-42.5 -14.5t-23.5 -37.5h-99q12 45 41 71q53 46 138 46q72 0 104 -35
t23 -79q-15 -70 -107 -95q86 -26 69 -100q-11 -54 -65.5 -89t-124.5 -35q-88 0 -115 42q-21 31 -10 81z" />
    <glyph glyph-name="acute" unicode="&#xb4;" horiz-adv-x="278" 
d="M444 730l-168 -145h-80l114 145h134z" />
    <glyph glyph-name="mu" unicode="&#xb5;" horiz-adv-x="611" 
d="M25 -212l153 717h128l-52 -244q-8 -41 -10.5 -66t1.5 -49.5t21.5 -36t48.5 -11.5q27 0 48.5 11t34.5 25t23.5 39t15 41.5t10.5 43.5l52 247h129l-107 -505h-110l13 60q-17 -19 -29 -30.5t-40 -25t-60 -13.5q-29 0 -49.5 10t-26.5 18t-14 22l-54 -253h-126z" />
    <glyph glyph-name="paragraph" unicode="&#xb6;" 
d="M700 609h-51l-169 -796h-125l169 796h-95l-169 -796h-125l91 425q-80 7 -117 49q-57 63 -33 175q22 102 103.5 176t213.5 74h329z" />
    <glyph glyph-name="periodcentered" unicode="&#xb7;" horiz-adv-x="278" 
d="M119 213l29 133h127l-29 -133h-127z" />
    <glyph glyph-name="cedilla" unicode="&#xb8;" horiz-adv-x="278" 
d="M-26 -195l29 42q38 -18 67 -18q25 0 42 10.5t21 27.5q3 13 -5 25t-31 12q-18 0 -43 -9l-16 21l83 90h47l-61 -64q22 4 36 4q44 0 59 -23t9 -49q-7 -34 -34.5 -55.5t-55 -28.5t-55.5 -7q-52 0 -92 22z" />
    <glyph glyph-name="onesuperior" unicode="&#xb9;" horiz-adv-x="360" 
d="M175 552l18 84q73 26 133 63h84l-89 -419h-98l69 326q-62 -36 -117 -54z" />
    <glyph glyph-name="ordmasculine" unicode="&#xba;" horiz-adv-x="367" 
d="M129 541q16 74 70.5 117.5t133.5 43.5q83 0 117.5 -44.5t18.5 -114.5q-14 -69 -68.5 -115.5t-137.5 -46.5q-45 0 -76.5 14.5t-44 37.5t-17 51.5t3.5 56.5zM228 540q-21 -97 50 -97q73 0 94 102q21 98 -50 98q-73 0 -94 -103z" />
    <glyph glyph-name="guillemotright" unicode="&#xbb;" 
d="M176 56h-132l135 189l-53 197h132l67 -197zM419 56h-132l135 189l-53 197h132l67 -197z" />
    <glyph glyph-name="onequarter" unicode="&#xbc;" horiz-adv-x="834" 
d="M126 552l18 84q73 26 133 63h84l-89 -419h-98l69 326q-62 -36 -117 -54zM129 -28l576 753h82l-576 -753h-82zM650 92h-190l17 81l239 247h100l-55 -259h47l-15 -69h-47l-19 -91h-96zM704 316l-159 -157h123l24 111q6 29 12 46z" />
    <glyph glyph-name="onehalf" unicode="&#xbd;" horiz-adv-x="834" 
d="M135 552l18 84q73 26 133 63h84l-89 -419h-98l69 326q-62 -36 -117 -54zM138 -28l576 753h82l-576 -753h-82zM656 300h-99q12 51 43 78q49 46 141 46q70 0 104 -31.5t23 -82.5q-7 -36 -31 -64.5t-90 -79.5q-59 -46 -145 -101q195 4 218 4l-14 -69h-318l17 84l138 99
q62 43 100 81q23 24 27 46q5 22 -7 36.5t-35 14.5q-55 0 -72 -61z" />
    <glyph glyph-name="threequarters" unicode="&#xbe;" horiz-adv-x="834" 
d="M110 394h99q-9 -56 47 -56q24 0 44 14t26 43q2 9 2 16.5t-2 13.5t-5 10.5t-8.5 8t-10.5 6t-13 3.5t-13.5 2t-15.5 1.5t-15.5 0.5h-15.5l15 70q23 0 39.5 2t36 8t32.5 19t17 33q5 24 -9 37t-38 13t-42.5 -14.5t-23.5 -37.5h-99q12 45 41 71q53 46 138 46q72 0 104 -35
t23 -79q-15 -70 -107 -95q86 -26 69 -100q-11 -54 -65.5 -89t-124.5 -35q-88 0 -115 42q-21 31 -10 81zM183 -28l576 753h82l-576 -753h-82zM684 92h-190l17 81l239 247h100l-55 -259h47l-15 -69h-47l-19 -91h-96zM738 316l-159 -157h123l24 111q6 29 12 46z" />
    <glyph glyph-name="questiondown" unicode="&#xbf;" horiz-adv-x="500" 
d="M317 366h113l-20 -93q-3 -15 -6.5 -24t-16 -26.5t-33.5 -37.5l-54 -49q-94 -87 -107 -145q-5 -9 -2.5 -25.5t8.5 -33t30 -28.5t63 -12q45 0 138 24l-22 -105q-82 -19 -172 -19q-99 0 -158.5 46.5t-39.5 140.5q12 57 47 95q40 44 66 64l67 51q47 35 62 53t20 43zM467 528
l-25 -120h-120l25 120h120z" />
    <glyph glyph-name="Agrave" unicode="&#xc0;" horiz-adv-x="706" 
d="M419 722h184l98 -722h-156l-19 156h-286l-87 -156h-148zM305 273h207l-35 308zM545 918l53 -145h-85l-108 145h140z" />
    <glyph glyph-name="Aacute" unicode="&#xc1;" horiz-adv-x="706" 
d="M706 918l-168 -145h-80l114 145h134zM419 722h184l98 -722h-156l-19 156h-286l-87 -156h-148zM305 273h207l-35 308z" />
    <glyph glyph-name="Acircumflex" unicode="&#xc2;" horiz-adv-x="706" 
d="M364 773l141 145h103l73 -145h-89l-50 85l-88 -85h-90zM419 722h184l98 -722h-156l-19 156h-286l-87 -156h-148zM305 273h207l-35 308z" />
    <glyph glyph-name="Atilde" unicode="&#xc3;" horiz-adv-x="706" 
d="M398 781h-52q20 56 59.5 89.5t84.5 33.5q9 0 20.5 -2.5t18.5 -5t8 -3.5l53 -22q10 -6 32 -6q37 0 57 46h51q-21 -63 -60 -93q-37 -29 -78 -29q-19 0 -49 11l-40 16q-27 10 -43 10q-38 0 -62 -45zM419 722h184l98 -722h-156l-19 156h-286l-87 -156h-148zM305 273h207
l-35 308z" />
    <glyph glyph-name="Adieresis" unicode="&#xc4;" horiz-adv-x="706" 
d="M559 777l25 118h102l-25 -118h-102zM387 777l25 118h102l-25 -118h-102zM419 722h184l98 -722h-156l-19 156h-286l-87 -156h-148zM305 273h207l-35 308z" />
    <glyph glyph-name="Aring" unicode="&#xc5;" horiz-adv-x="706" 
d="M419 722h184l98 -722h-156l-19 156h-286l-87 -156h-148zM305 273h207l-35 308zM560 938q43 0 65 -29.5t14 -72.5q-8 -42 -43.5 -72t-78.5 -30q-41 0 -65.5 30t-14.5 72q8 42 44.5 72t78.5 30zM550 890q-22 0 -41 -15.5t-24 -38.5q-5 -22 7.5 -37.5t34.5 -15.5
q23 0 41.5 15.5t23.5 37.5t-7 38t-35 16z" />
    <glyph glyph-name="AE" unicode="&#xc6;" horiz-adv-x="1000" 
d="M-8 0l553 721h547l-25 -117h-335l-11 -178h291l-25 -116h-275l-12 -190h274l-26 -120h-416l11 157h-272l-112 -157h-167zM357 271h196l24 314z" />
    <glyph glyph-name="Ccedilla" unicode="&#xc7;" horiz-adv-x="667" 
d="M527 234h163q-8 -28 -15 -46.5t-24 -50.5t-46.5 -60t-69.5 -51q-78 -43 -174 -43l-43 -45q22 4 37 4q44 0 58.5 -22.5t8.5 -49.5q-7 -34 -34.5 -55.5t-55 -28.5t-55.5 -7q-52 0 -92 22l30 42q40 -18 66 -18q25 0 42.5 10.5t21.5 27.5q3 13 -5.5 25t-31.5 12q-18 0 -43 -9
l-16 21l68 74q-125 12 -179 91q-67 101 -30 269q36 172 148 276.5t264 104.5q119 0 179.5 -66t38.5 -174h-158q10 127 -90 127q-82 0 -138.5 -74.5t-82.5 -194.5q-3 -16 -5.5 -28t-5 -39.5t-2 -48.5t6.5 -47.5t17.5 -43.5t34 -29t53.5 -12q53 0 97.5 34.5t61.5 102.5z" />
    <glyph glyph-name="Egrave" unicode="&#xc8;" horiz-adv-x="603" 
d="M66 0l153 722h484l-25 -117h-329l-36 -172h308l-26 -118h-308l-41 -195h340l-25 -120h-495zM482 918l53 -145h-85l-108 145h140z" />
    <glyph glyph-name="Eacute" unicode="&#xc9;" horiz-adv-x="603" 
d="M66 0l153 722h484l-25 -117h-329l-36 -172h308l-26 -118h-308l-41 -195h340l-25 -120h-495zM643 918l-168 -145h-80l114 145h134z" />
    <glyph glyph-name="Ecircumflex" unicode="&#xca;" horiz-adv-x="603" 
d="M66 0l153 722h484l-25 -117h-329l-36 -172h308l-26 -118h-308l-41 -195h340l-25 -120h-495zM301 773l141 145h103l73 -145h-89l-50 85l-88 -85h-90z" />
    <glyph glyph-name="Edieresis" unicode="&#xcb;" horiz-adv-x="603" 
d="M66 0l153 722h484l-25 -117h-329l-36 -172h308l-26 -118h-308l-41 -195h340l-25 -120h-495zM496 777l25 118h102l-25 -118h-102zM324 777l25 118h102l-25 -118h-102z" />
    <glyph glyph-name="Igrave" unicode="&#xcc;" horiz-adv-x="289" 
d="M323 918l53 -145h-85l-108 145h140zM67 0l153 722h155l-153 -722h-155z" />
    <glyph glyph-name="Iacute" unicode="&#xcd;" horiz-adv-x="289" 
d="M484 918l-168 -145h-80l114 145h134zM67 0l153 722h155l-153 -722h-155z" />
    <glyph glyph-name="Icircumflex" unicode="&#xce;" horiz-adv-x="289" 
d="M151 773l141 145h103l73 -145h-89l-50 85l-88 -85h-90zM67 0l153 722h155l-153 -722h-155z" />
    <glyph glyph-name="Idieresis" unicode="&#xcf;" horiz-adv-x="289" 
d="M344 777l25 118h102l-25 -118h-102zM172 777l25 118h102l-25 -118h-102zM67 0l153 722h155l-153 -722h-155z" />
    <glyph glyph-name="Eth" unicode="&#xd0;" horiz-adv-x="722" 
d="M65 0l75 353h-65l19 87h65l59 281l239 -1q161 0 235 -65q54 -47 68.5 -128.5t-5.5 -155.5q-33 -157 -125.5 -250t-207.5 -113q-45 -8 -132 -8h-225zM297 353l-50 -234q34 -2 61 -2q59 0 100 9.5t78 40.5q77 63 109 204q10 53 8.5 97.5t-25.5 78.5t-68 47q-50 15 -160 10
l-34 -164h145l-19 -87h-145z" />
    <glyph glyph-name="Ntilde" unicode="&#xd1;" horiz-adv-x="773" 
d="M67 0l153 722h224l150 -568l121 568h144l-153 -722h-213l-153 600l-127 -600h-146zM421 781h-52q20 56 59.5 89.5t84.5 33.5q9 0 20.5 -2.5t18.5 -5t8 -3.5l53 -22q10 -6 32 -6q37 0 57 46h51q-21 -63 -60 -93q-37 -29 -78 -29q-19 0 -49 11l-40 16q-28 10 -43 10
q-38 0 -62 -45z" />
    <glyph glyph-name="Ograve" unicode="&#xd2;" horiz-adv-x="778" 
d="M116 351q16 76 48.5 142t83 122.5t127.5 89.5t170 33q169 0 234 -98q71 -107 34 -272q-19 -82 -58.5 -157.5t-92.5 -125.5q-114 -103 -279 -103q-162 0 -235 99q-67 91 -32 270zM279 356q-28 -131 11 -202q30 -58 119 -58q92 0 149 67q65 73 93 207q16 72 10 129
q-17 128 -138 128q-85 0 -146 -61q-64 -63 -98 -210zM573 918l53 -145h-85l-108 145h140z" />
    <glyph glyph-name="Oacute" unicode="&#xd3;" horiz-adv-x="778" 
d="M116 351q16 76 48.5 142t83 122.5t127.5 89.5t170 33q169 0 234 -98q71 -107 34 -272q-19 -82 -58.5 -157.5t-92.5 -125.5q-114 -103 -279 -103q-162 0 -235 99q-67 91 -32 270zM279 356q-28 -131 11 -202q30 -58 119 -58q92 0 149 67q65 73 93 207q16 72 10 129
q-17 128 -138 128q-85 0 -146 -61q-64 -63 -98 -210zM734 918l-168 -145h-80l114 145h134z" />
    <glyph glyph-name="Ocircumflex" unicode="&#xd4;" horiz-adv-x="778" 
d="M116 351q16 76 48.5 142t83 122.5t127.5 89.5t170 33q169 0 234 -98q71 -107 34 -272q-19 -82 -58.5 -157.5t-92.5 -125.5q-114 -103 -279 -103q-162 0 -235 99q-67 91 -32 270zM279 356q-28 -131 11 -202q30 -58 119 -58q92 0 149 67q65 73 93 207q16 72 10 129
q-17 128 -138 128q-85 0 -146 -61q-64 -63 -98 -210zM392 773l141 145h103l73 -145h-89l-50 85l-88 -85h-90z" />
    <glyph glyph-name="Otilde" unicode="&#xd5;" horiz-adv-x="778" 
d="M116 351q16 76 48.5 142t83 122.5t127.5 89.5t170 33q169 0 234 -98q71 -107 34 -272q-19 -82 -58.5 -157.5t-92.5 -125.5q-114 -103 -279 -103q-162 0 -235 99q-67 91 -32 270zM279 356q-28 -131 11 -202q30 -58 119 -58q92 0 149 67q65 73 93 207q16 72 10 129
q-17 128 -138 128q-85 0 -146 -61q-64 -63 -98 -210zM426 781h-52q20 56 59.5 89.5t84.5 33.5q9 0 20.5 -2.5t18.5 -5t8 -3.5l53 -22q10 -6 32 -6q37 0 57 46h51q-21 -63 -60 -93q-37 -29 -78 -29q-19 0 -49 11l-40 16q-27 10 -43 10q-38 0 -62 -45z" />
    <glyph glyph-name="Odieresis" unicode="&#xd6;" horiz-adv-x="778" 
d="M116 351q16 76 48.5 142t83 122.5t127.5 89.5t170 33q169 0 234 -98q71 -107 34 -272q-19 -82 -58.5 -157.5t-92.5 -125.5q-114 -103 -279 -103q-162 0 -235 99q-67 91 -32 270zM279 356q-28 -131 11 -202q30 -58 119 -58q92 0 149 67q65 73 93 207q16 72 10 129
q-17 128 -138 128q-85 0 -146 -61q-64 -63 -98 -210zM587 777l25 118h102l-25 -118h-102zM415 777l25 118h102l-25 -118h-102z" />
    <glyph glyph-name="multiply" unicode="&#xd7;" horiz-adv-x="584" 
d="M32 99l168 167l-168 168l93 92l166 -168l168 168l91 -92l-166 -168l166 -167l-92 -92l-167 168l-167 -168z" />
    <glyph glyph-name="Oslash" unicode="&#xd8;" horiz-adv-x="778" 
d="M757 664l116 101l37 -47l-117 -104q49 -95 18 -249q-40 -187 -157 -285t-270 -98q-146 0 -221 79l-123 -108l-38 47l127 111q-46 90 -14 240q11 52 29.5 101t54 102.5t81 93t114 65t150.5 25.5q143 0 213 -74zM268 235l375 329q-35 66 -122 66q-49 0 -95 -24.5t-79 -71.5
q-46 -66 -68 -178q-17 -77 -11 -121zM661 499l-378 -333q32 -71 125 -71q183 0 242 278q16 75 11 126z" />
    <glyph glyph-name="Ugrave" unicode="&#xd9;" horiz-adv-x="746" 
d="M213 721h155l-94 -440l-6.5 -35.5t-3.5 -34.5t2 -34t11.5 -28.5t22.5 -24.5t37.5 -15t55.5 -6q99 0 154 63q29 34 49 123l92 432h151l-96 -451q-16 -77 -56.5 -134.5t-95 -89t-110.5 -46t-115 -14.5q-32 0 -63.5 4.5t-68.5 16.5t-67.5 39t-46.5 65q-11 27 -13 57.5
t1.5 55.5t12.5 65zM561 918l53 -145h-85l-108 145h140z" />
    <glyph glyph-name="Uacute" unicode="&#xda;" horiz-adv-x="746" 
d="M213 721h155l-94 -440l-6.5 -35.5t-3.5 -34.5t2 -34t11.5 -28.5t22.5 -24.5t37.5 -15t55.5 -6q99 0 154 63q29 34 49 123l92 432h151l-96 -451q-16 -77 -56.5 -134.5t-95 -89t-110.5 -46t-115 -14.5q-32 0 -63.5 4.5t-68.5 16.5t-67.5 39t-46.5 65q-11 27 -13 57.5
t1.5 55.5t12.5 65zM722 918l-168 -145h-80l114 145h134z" />
    <glyph glyph-name="Ucircumflex" unicode="&#xdb;" horiz-adv-x="746" 
d="M213 721h155l-94 -440l-6.5 -35.5t-3.5 -34.5t2 -34t11.5 -28.5t22.5 -24.5t37.5 -15t55.5 -6q99 0 154 63q29 34 49 123l92 432h151l-96 -451q-16 -77 -56.5 -134.5t-95 -89t-110.5 -46t-115 -14.5q-32 0 -63.5 4.5t-68.5 16.5t-67.5 39t-46.5 65q-11 27 -13 57.5
t1.5 55.5t12.5 65zM380 773l141 145h103l73 -145h-89l-50 85l-88 -85h-90z" />
    <glyph glyph-name="Udieresis" unicode="&#xdc;" horiz-adv-x="746" 
d="M213 721h155l-94 -440l-6.5 -35.5t-3.5 -34.5t2 -34t11.5 -28.5t22.5 -24.5t37.5 -15t55.5 -6q99 0 154 63q29 34 49 123l92 432h151l-96 -451q-16 -77 -56.5 -134.5t-95 -89t-110.5 -46t-115 -14.5q-32 0 -63.5 4.5t-68.5 16.5t-67.5 39t-46.5 65q-11 27 -13 57.5
t1.5 55.5t12.5 65zM575 777l25 118h102l-25 -118h-102zM403 777l25 118h102l-25 -118h-102z" />
    <glyph glyph-name="Yacute" unicode="&#xdd;" horiz-adv-x="667" 
d="M169 720h181l79 -329l222 329h159l-342 -457l-55 -263h-153l56 265zM679 918l-168 -145h-80l114 145h134z" />
    <glyph glyph-name="Thorn" unicode="&#xde;" horiz-adv-x="611" 
d="M65 0l153 721h153l-23 -110h70q86 0 140 -12.5t85 -53.5q44 -56 24 -151q-12 -58 -46.5 -108.5t-86.5 -81.5q-56 -34 -178 -34h-98l-36 -170h-157zM323 493l-44 -208h62q69 0 97 15q54 28 69 96q3 14 3.5 26t-2.5 21t-6.5 16.5t-10.5 12.5l-13 9t-15.5 6t-16 3.5t-16.5 2
t-15 0.5h-14h-78z" />
    <glyph glyph-name="germandbls" unicode="&#xdf;" horiz-adv-x="667" 
d="M59 0l115 539q8 40 25.5 73t38.5 52.5t33 28.5t24 15q66 34 168 34q59 0 106.5 -14.5t76 -49.5t17.5 -86q-8 -37 -33 -65t-86 -63q-12 -7 -18 -11t-13.5 -13.5t-9.5 -22.5q-5 -25 36 -52l68 -47q13 -9 21.5 -16t20 -20.5t15 -28t6.5 -38t-5 -49.5q-38 -182 -239 -182
q-24 0 -41.5 2t-41.5 11t-38 25t-21.5 47.5t-0.5 74.5h131q-7 -29 6 -46q10 -15 33 -15q22 0 42.5 18t28.5 53q12 55 -38 89l-68 47q-40 27 -53.5 48.5t-5.5 59.5q7 33 28 61.5t73 64.5q48 35 54 64q6 26 -10.5 44t-53.5 18q-59 0 -98 -43q-27 -29 -36 -82l-112 -525h-145z
" />
    <glyph glyph-name="agrave" unicode="&#xe0;" 
d="M502 0h-134q1 29 9 69q-73 -81 -168 -81q-84 0 -118 40q-33 45 -20 111q8 41 40.5 84.5t99.5 72.5q69 28 206 28q11 50 8 67q-3 23 -22 32.5t-35 9.5q-37 0 -62 -28q-14 -15 -21 -45h-145l2 8q3 8 4 11t4 11t5 12.5l6 13t8 13.5l10 12.5t12 13.5t14 12.5t17 11.5
q66 41 162 41q125 0 166 -65q26 -43 9 -124l-42 -203q-16 -77 -15 -128zM399 238q-71 6 -121.5 -16t-58.5 -66q-7 -28 7.5 -50t48.5 -22q36 0 70 29q36 36 54 125zM422 730l53 -145h-85l-108 145h140z" />
    <glyph glyph-name="aacute" unicode="&#xe1;" 
d="M502 0h-134q1 29 9 69q-73 -81 -168 -81q-84 0 -118 40q-33 45 -20 111q8 41 40.5 84.5t99.5 72.5q69 28 206 28q11 50 8 67q-3 23 -22 32.5t-35 9.5q-37 0 -62 -28q-14 -15 -21 -45h-145l2 8q3 8 4 11t4 11t5 12.5l6 13t8 13.5l10 12.5t12 13.5t14 12.5t17 11.5
q66 41 162 41q125 0 166 -65q26 -43 9 -124l-42 -203q-16 -77 -15 -128zM399 238q-71 6 -121.5 -16t-58.5 -66q-7 -28 7.5 -50t48.5 -22q36 0 70 29q36 36 54 125zM583 730l-168 -145h-80l114 145h134z" />
    <glyph glyph-name="acircumflex" unicode="&#xe2;" 
d="M502 0h-134q1 29 9 69q-73 -81 -168 -81q-84 0 -118 40q-33 45 -20 111q8 41 40.5 84.5t99.5 72.5q69 28 206 28q11 50 8 67q-3 23 -22 32.5t-35 9.5q-37 0 -62 -28q-14 -15 -21 -45h-145l2 8q3 8 4 11t4 11t5 12.5l6 13t8 13.5l10 12.5t12 13.5t14 12.5t17 11.5
q66 41 162 41q125 0 166 -65q26 -43 9 -124l-42 -203q-16 -77 -15 -128zM399 238q-71 6 -121.5 -16t-58.5 -66q-7 -28 7.5 -50t48.5 -22q36 0 70 29q36 36 54 125zM241 585l141 145h103l73 -145h-89l-50 85l-88 -85h-90z" />
    <glyph glyph-name="atilde" unicode="&#xe3;" 
d="M502 0h-134q1 29 9 69q-73 -81 -168 -81q-84 0 -118 40q-33 45 -20 111q8 41 40.5 84.5t99.5 72.5q69 28 206 28q11 50 8 67q-3 23 -22 32.5t-35 9.5q-37 0 -62 -28q-14 -15 -21 -45h-145l2 8q3 8 4 11t4 11t5 12.5l6 13t8 13.5l10 12.5t12 13.5t14 12.5t17 11.5
q66 41 162 41q125 0 166 -65q26 -43 9 -124l-42 -203q-16 -77 -15 -128zM399 238q-71 6 -121.5 -16t-58.5 -66q-7 -28 7.5 -50t48.5 -22q36 0 70 29q36 36 54 125zM275 593h-52q20 56 59.5 89.5t84.5 33.5q9 0 20.5 -2.5t18.5 -5t8 -3.5l53 -22q10 -6 32 -6q37 0 57 46h51
q-19 -61 -60 -93q-37 -29 -78 -29q-19 0 -49 11l-40 16q-28 10 -43 10q-38 0 -62 -45z" />
    <glyph glyph-name="adieresis" unicode="&#xe4;" 
d="M502 0h-134q1 29 9 69q-73 -81 -168 -81q-84 0 -118 40q-33 45 -20 111q8 41 40.5 84.5t99.5 72.5q69 28 206 28q11 50 8 67q-3 23 -22 32.5t-35 9.5q-37 0 -62 -28q-14 -15 -21 -45h-145l2 8q3 8 4 11t4 11t5 12.5l6 13t8 13.5l10 12.5t12 13.5t14 12.5t17 11.5
q66 41 162 41q125 0 166 -65q26 -43 9 -124l-42 -203q-16 -77 -15 -128zM399 238q-71 6 -121.5 -16t-58.5 -66q-7 -28 7.5 -50t48.5 -22q36 0 70 29q36 36 54 125zM438 599l25 118h102l-25 -118h-102zM266 599l25 118h102l-25 -118h-102z" />
    <glyph glyph-name="aring" unicode="&#xe5;" 
d="M502 0h-134q1 29 9 69q-73 -81 -168 -81q-84 0 -118 40q-33 45 -20 111q8 41 40.5 84.5t99.5 72.5q69 28 206 28q11 50 8 67q-3 23 -22 32.5t-35 9.5q-37 0 -62 -28q-14 -15 -21 -45h-145l2 8q3 8 4 11t4 11t5 12.5l6 13t8 13.5l10 12.5t12 13.5t14 12.5t17 11.5
q66 41 162 41q125 0 166 -65q26 -43 9 -124l-42 -203q-16 -77 -15 -128zM399 238q-71 6 -121.5 -16t-58.5 -66q-7 -28 7.5 -50t48.5 -22q36 0 70 29q36 36 54 125zM439 760q43 0 65 -29.5t14 -72.5q-8 -42 -43.5 -72t-78.5 -30q-41 0 -65.5 30t-14.5 72q8 42 44.5 72
t78.5 30zM429 712q-22 0 -41 -15.5t-24 -38.5q-5 -22 7.5 -37.5t34.5 -15.5q23 0 41.5 15.5t23.5 37.5t-7 38t-35 16z" />
    <glyph glyph-name="ae" unicode="&#xe6;" horiz-adv-x="889" 
d="M732 156h139q-21 -63 -65 -105q-69 -66 -182 -66q-133 0 -173 93q-30 -29 -53.5 -46t-70 -34t-99.5 -17q-95 0 -135.5 43.5t-24.5 114.5q20 102 118 145q33 15 83 22.5t79 8.5t89 2q31 117 -59 117q-31 0 -57 -16.5t-36 -54.5h-143q47 157 237 157q41 0 71.5 -8t49 -23.5
t26.5 -24.5t16 -23q82 79 195 79q125 0 166 -98q26 -63 -3 -191h-338q-14 -66 -4 -99q7 -26 28.5 -39t46.5 -13q66 0 99 76zM579 317h186q4 16 5 30t-1.5 36t-19 35.5t-46.5 13.5q-87 0 -124 -115zM418 231q-13 2 -43 2q-144 0 -163 -87q-7 -32 12.5 -51t50.5 -19
q25 0 53.5 13t47.5 40q23 32 42 102z" />
    <glyph glyph-name="ccedilla" unicode="&#xe7;" horiz-adv-x="500" 
d="M373 183h146q-27 -100 -97 -149q-59 -43 -141 -47l-46 -49q22 4 37 4q44 0 58.5 -22.5t8.5 -49.5q-7 -34 -34.5 -55.5t-55 -28.5t-55.5 -7q-52 0 -92 22l30 42q40 -18 66 -18q25 0 42.5 10.5t21.5 27.5q3 13 -5.5 25t-31.5 12q-19 0 -42 -9l-17 21l69 76q-88 11 -125 66
q-48 73 -21 199q14 65 43 115t61 77t70 43.5t65.5 21.5t51.5 5q81 0 133 -47t33 -142h-145q10 93 -45 93q-77 0 -112 -161q-25 -114 4 -155q12 -17 36 -17q12 0 25 4.5t33 28t31 64.5z" />
    <glyph glyph-name="egrave" unicode="&#xe8;" 
d="M568 215h-339q-5 -19 -6 -36t2 -42.5t23 -41t56 -15.5q68 0 102 70h135q-19 -64 -71 -110q-68 -59 -190 -59q-119 0 -164 63q-50 67 -23 197q32 166 156 239q68 42 150 42q62 0 111 -29t68 -93q19 -71 -10 -185zM254 308h183q3 15 4 28.5t-1.5 35.5t-19.5 35.5t-47 13.5
q-46 0 -76 -32t-43 -81zM422 730l53 -145h-85l-108 145h140z" />
    <glyph glyph-name="eacute" unicode="&#xe9;" 
d="M568 215h-339q-5 -19 -6 -36t2 -42.5t23 -41t56 -15.5q68 0 102 70h135q-19 -64 -71 -110q-68 -59 -190 -59q-119 0 -164 63q-50 67 -23 197q32 166 156 239q68 42 150 42q62 0 111 -29t68 -93q19 -71 -10 -185zM254 308h183q3 15 4 28.5t-1.5 35.5t-19.5 35.5t-47 13.5
q-46 0 -76 -32t-43 -81zM583 730l-168 -145h-80l114 145h134z" />
    <glyph glyph-name="ecircumflex" unicode="&#xea;" 
d="M568 215h-339q-5 -19 -6 -36t2 -42.5t23 -41t56 -15.5q68 0 102 70h135q-19 -64 -71 -110q-68 -59 -190 -59q-119 0 -164 63q-50 67 -23 197q32 166 156 239q68 42 150 42q62 0 111 -29t68 -93q19 -71 -10 -185zM254 308h183q3 15 4 28.5t-1.5 35.5t-19.5 35.5t-47 13.5
q-46 0 -76 -32t-43 -81zM241 585l141 145h103l73 -145h-89l-50 85l-88 -85h-90z" />
    <glyph glyph-name="edieresis" unicode="&#xeb;" 
d="M568 215h-339q-5 -19 -6 -36t2 -42.5t23 -41t56 -15.5q68 0 102 70h135q-19 -64 -71 -110q-68 -59 -190 -59q-119 0 -164 63q-50 67 -23 197q32 166 156 239q68 42 150 42q62 0 111 -29t68 -93q19 -71 -10 -185zM254 308h183q3 15 4 28.5t-1.5 35.5t-19.5 35.5t-47 13.5
q-46 0 -76 -32t-43 -81zM438 599l25 118h102l-25 -118h-102zM266 599l25 118h102l-25 -118h-102z" />
    <glyph glyph-name="igrave" unicode="&#xec;" horiz-adv-x="278" 
d="M65 0l107 506h148l-107 -506h-148zM283 730l53 -145h-85l-108 145h140z" />
    <glyph glyph-name="iacute" unicode="&#xed;" horiz-adv-x="278" 
d="M65 0l107 506h148l-107 -506h-148zM444 730l-168 -145h-80l114 145h134z" />
    <glyph glyph-name="icircumflex" unicode="&#xee;" horiz-adv-x="278" 
d="M65 0l107 506h148l-107 -506h-148zM102 585l141 145h103l73 -145h-89l-50 85l-88 -85h-90z" />
    <glyph glyph-name="idieresis" unicode="&#xef;" horiz-adv-x="278" 
d="M65 0l107 506h148l-107 -506h-148zM299 599l25 118h102l-25 -118h-102zM127 599l25 118h102l-25 -118h-102z" />
    <glyph glyph-name="eth" unicode="&#xf0;" horiz-adv-x="611" 
d="M244 564l98 59q-45 25 -88 44l98 90q64 -32 112 -63l90 54l37 -34l-87 -51q19 -17 33.5 -32t34.5 -40.5t32.5 -55.5t22 -68t9 -86.5t-12.5 -102.5q-28 -133 -108.5 -212.5t-213.5 -79.5q-107 0 -158 46q-75 65 -45 204q12 54 36 97.5t54 71t65 46.5t67.5 26.5t62.5 7.5
q73 0 122 -46q-33 89 -119 154l-105 -63zM326 81q108 0 143 165q33 154 -75 154t-146 -164q-32 -155 78 -155z" />
    <glyph glyph-name="ntilde" unicode="&#xf1;" horiz-adv-x="611" 
d="M67 0l88 415q0 1 3 16t7 38t6 38h142l-12 -76q69 88 183 88q66 0 97.5 -30t36.5 -65q4 -41 -18 -151l-58 -273h-151l66 314q9 38 4 55q-13 43 -63 43q-51 0 -85 -39q-23 -25 -35 -77l-62 -296h-149zM303 593h-52q20 56 59.5 89.5t84.5 33.5q9 0 20.5 -2.5t18.5 -5t8 -3.5
l53 -22q10 -6 32 -6q37 0 57 46h51q-19 -61 -60 -93q-37 -29 -78 -29q-19 0 -49 11l-40 16q-27 10 -43 10q-38 0 -62 -45z" />
    <glyph glyph-name="ograve" unicode="&#xf2;" horiz-adv-x="611" 
d="M94 248q10 49 33 94t60.5 85.5t95.5 65t129 24.5q130 0 180 -75t26 -190t-108 -192.5t-214 -77.5q-113 0 -171 69t-31 197zM246 247q-34 -162 77 -162q53 0 88.5 38.5t56.5 134.5q38 160 -77 160q-31 0 -56 -14.5t-38.5 -31t-26 -47t-15.5 -42t-9 -36.5zM450 730l53 -145
h-85l-108 145h140z" />
    <glyph glyph-name="oacute" unicode="&#xf3;" horiz-adv-x="611" 
d="M94 248q10 49 33 94t60.5 85.5t95.5 65t129 24.5q130 0 180 -75t26 -190t-108 -192.5t-214 -77.5q-113 0 -171 69t-31 197zM246 247q-34 -162 77 -162q53 0 88.5 38.5t56.5 134.5q38 160 -77 160q-31 0 -56 -14.5t-38.5 -31t-26 -47t-15.5 -42t-9 -36.5zM611 730
l-168 -145h-80l114 145h134z" />
    <glyph glyph-name="ocircumflex" unicode="&#xf4;" horiz-adv-x="611" 
d="M94 248q10 49 33 94t60.5 85.5t95.5 65t129 24.5q130 0 180 -75t26 -190t-108 -192.5t-214 -77.5q-113 0 -171 69t-31 197zM246 247q-34 -162 77 -162q53 0 88.5 38.5t56.5 134.5q38 160 -77 160q-31 0 -56 -14.5t-38.5 -31t-26 -47t-15.5 -42t-9 -36.5zM269 585l141 145
h103l73 -145h-89l-50 85l-88 -85h-90z" />
    <glyph glyph-name="otilde" unicode="&#xf5;" horiz-adv-x="611" 
d="M94 248q10 49 33 94t60.5 85.5t95.5 65t129 24.5q130 0 180 -75t26 -190t-108 -192.5t-214 -77.5q-113 0 -171 69t-31 197zM246 247q-34 -162 77 -162q53 0 88.5 38.5t56.5 134.5q38 160 -77 160q-31 0 -56 -14.5t-38.5 -31t-26 -47t-15.5 -42t-9 -36.5zM303 593h-52
q20 56 59.5 89.5t84.5 33.5q9 0 20.5 -2.5t18.5 -5t8 -3.5l53 -22q10 -6 32 -6q37 0 57 46h51q-19 -61 -60 -93q-37 -29 -78 -29q-19 0 -49 11l-40 16q-27 10 -43 10q-38 0 -62 -45z" />
    <glyph glyph-name="odieresis" unicode="&#xf6;" horiz-adv-x="611" 
d="M94 248q10 49 33 94t60.5 85.5t95.5 65t129 24.5q130 0 180 -75t26 -190t-108 -192.5t-214 -77.5q-113 0 -171 69t-31 197zM246 247q-34 -162 77 -162q53 0 88.5 38.5t56.5 134.5q38 160 -77 160q-31 0 -56 -14.5t-38.5 -31t-26 -47t-15.5 -42t-9 -36.5zM466 599l25 118
h102l-25 -118h-102zM294 599l25 118h102l-25 -118h-102z" />
    <glyph glyph-name="divide" unicode="&#xf7;" horiz-adv-x="584" 
d="M21 202l-1 129h533l1 -129h-533zM213 4l-1 147h149l1 -147h-149zM212 382v147h149v-147h-149z" />
    <glyph glyph-name="oslash" unicode="&#xf8;" horiz-adv-x="611" 
d="M656 547l34 -35l-92 -78q42 -72 18 -183q-25 -117 -106.5 -192t-209.5 -75q-114 0 -166 58l-92 -78l-33 34l98 86q-33 70 -13 163q26 124 111.5 196.5t205.5 72.5q99 0 155 -45zM239 195l225 190q-23 33 -72 33q-108 0 -144 -164q-7 -31 -9 -59zM476 330l-231 -195
q17 -50 75 -50q36 0 62.5 14.5t42.5 41.5t24.5 50.5t15.5 55.5q11 55 11 83z" />
    <glyph glyph-name="ugrave" unicode="&#xf9;" horiz-adv-x="611" 
d="M167 505h150l-64 -301q-11 -61 -2 -82q12 -29 57 -29q34 0 56.5 11t36.5 37.5t20.5 46.5t15.5 62l54 255h152l-71 -333l-26 -135q-3 -15 -3 -37h-144l9 67l-9 -9l-12.5 -12.5t-14.5 -12.5t-19 -14t-21.5 -12t-26 -10.5t-29 -6.5t-34.5 -3q-49 0 -85.5 19.5t-52.5 48.5
q-24 40 -4 136zM450 730l53 -145h-85l-108 145h140z" />
    <glyph glyph-name="uacute" unicode="&#xfa;" horiz-adv-x="611" 
d="M167 505h150l-64 -301q-11 -61 -2 -82q12 -29 57 -29q34 0 56.5 11t36.5 37.5t20.5 46.5t15.5 62l54 255h152l-71 -333l-26 -135q-3 -15 -3 -37h-144l9 67l-9 -9l-12.5 -12.5t-14.5 -12.5t-19 -14t-21.5 -12t-26 -10.5t-29 -6.5t-34.5 -3q-49 0 -85.5 19.5t-52.5 48.5
q-24 40 -4 136zM611 730l-168 -145h-80l114 145h134z" />
    <glyph glyph-name="ucircumflex" unicode="&#xfb;" horiz-adv-x="611" 
d="M167 505h150l-64 -301q-11 -61 -2 -82q12 -29 57 -29q34 0 56.5 11t36.5 37.5t20.5 46.5t15.5 62l54 255h152l-71 -333l-26 -135q-3 -15 -3 -37h-144l9 67l-9 -9l-12.5 -12.5t-14.5 -12.5t-19 -14t-21.5 -12t-26 -10.5t-29 -6.5t-34.5 -3q-49 0 -85.5 19.5t-52.5 48.5
q-24 40 -4 136zM269 585l141 145h103l73 -145h-89l-50 85l-88 -85h-90z" />
    <glyph glyph-name="udieresis" unicode="&#xfc;" horiz-adv-x="611" 
d="M167 505h150l-64 -301q-11 -61 -2 -82q12 -29 57 -29q34 0 56.5 11t36.5 37.5t20.5 46.5t15.5 62l54 255h152l-71 -333l-26 -135q-3 -15 -3 -37h-144l9 67l-9 -9l-12.5 -12.5t-14.5 -12.5t-19 -14t-21.5 -12t-26 -10.5t-29 -6.5t-34.5 -3q-49 0 -85.5 19.5t-52.5 48.5
q-24 40 -4 136zM466 599l25 118h102l-25 -118h-102zM294 599l25 118h102l-25 -118h-102z" />
    <glyph glyph-name="yacute" unicode="&#xfd;" 
d="M121 505h160l36 -350l188 350h147l-297 -496l-103 -201h-149l104 190zM583 730l-168 -145h-80l114 145h134z" />
    <glyph glyph-name="thorn" unicode="&#xfe;" horiz-adv-x="611" 
d="M196 723h150l-62 -290q63 82 169 82q99 0 140 -69t17 -184q-24 -114 -99 -191.5t-177 -77.5q-96 0 -130 65l-53 -252h-150zM315 90q33 0 59.5 18t43 46.5t25.5 53t15 49.5q5 22 6.5 44.5t-1.5 52t-22 48t-52 18.5q-51 0 -89 -41q-42 -44 -61 -131q-33 -158 76 -158z" />
    <glyph glyph-name="ydieresis" unicode="&#xff;" 
d="M121 505h160l36 -350l188 350h147l-297 -496l-103 -201h-149l104 190zM438 599l25 118h102l-25 -118h-102zM266 599l25 118h102l-25 -118h-102z" />
    <glyph glyph-name="Amacron" unicode="&#x100;" horiz-adv-x="706" 
d="M420 723h184l97 -723h-156l-19 156h-286l-87 -156h-148zM305 273h207l-35 308zM697 812h-342l15 68h342z" />
    <glyph glyph-name="amacron" unicode="&#x101;" 
d="M502 0h-134q3 42 10 69q-74 -81 -169 -81q-83 0 -117 40q-35 44 -20 111q8 41 40 84.5t100 72.5q68 28 206 28q9 45 7 67q-6 42 -57 42q-37 0 -62 -28q-15 -17 -20 -45h-145q18 79 82 119q66 41 162 41q123 0 166 -65q26 -42 8 -124l-42 -203q-15 -72 -15 -128zM400 238
q-72 6 -121.5 -16t-59.5 -66q-6 -28 8.5 -50t48.5 -22q38 0 69 29q23 22 33.5 49.5t21.5 75.5zM592 624h-342l14 68h342z" />
    <glyph glyph-name="Abreve" unicode="&#x102;" horiz-adv-x="706" 
d="M420 723h184l97 -723h-156l-19 156h-286l-87 -156h-148zM305 273h207l-35 308zM396 918h61q-3 -45 19 -62.5t53 -17.5q25 0 44.5 7.5t32.5 23t19 24.5t14 25h61q-17 -63 -66.5 -104t-119.5 -41q-80 0 -111 55q-18 30 -7 90z" />
    <glyph glyph-name="abreve" unicode="&#x103;" 
d="M502 0h-134q3 42 10 69q-74 -81 -169 -81q-83 0 -117 40q-35 44 -20 111q8 41 40 84.5t100 72.5q68 28 206 28q9 45 7 67q-6 42 -57 42q-37 0 -62 -28q-15 -17 -20 -45h-145q18 79 82 119q66 41 162 41q123 0 166 -65q26 -42 8 -124l-42 -203q-15 -72 -15 -128zM400 238
q-72 6 -121.5 -16t-59.5 -66q-6 -28 8.5 -50t48.5 -22q38 0 69 29q23 22 33.5 49.5t21.5 75.5zM290 730h61q-3 -45 19 -62.5t53 -17.5q25 0 44.5 7.5t32.5 23t19 24.5t14 25h61q-17 -63 -66.5 -104t-119.5 -41q-81 0 -110 55q-18 31 -8 90z" />
    <glyph glyph-name="Aogonek" unicode="&#x104;" horiz-adv-x="706" 
d="M596 -147l-9 -44q-50 -26 -99 -26q-46 0 -66.5 21t-13.5 54q9 44 49 81t99 61h-11l-19 156h-286l-87 -156h-148l414 722h184l98 -722h-102q-43 -26 -65.5 -46.5t-28.5 -50.5q-4 -21 1 -35t16 -19t18 -6.5t13 -1.5q22 0 43 12zM305 273h207l-35 308z" />
    <glyph glyph-name="aogonek" unicode="&#x105;" 
d="M445 -147l-9 -44q-50 -26 -99 -26q-46 0 -66.5 21t-13.5 54q9 44 49 81t99 61h-37q1 29 9 69q-73 -81 -168 -81q-84 0 -118 40q-33 45 -20 111q8 41 40.5 84.5t99.5 72.5q69 28 206 28q11 50 8 67q-3 23 -22 32.5t-35 9.5q-37 0 -62 -28q-14 -15 -21 -45h-145l2 8
q3 8 4 11t4 11t5 12.5l6 13t8 13.5l10 12.5t12 13.5t14 12.5t17 11.5q66 41 162 41q125 0 166 -65q26 -43 9 -124l-42 -203q-16 -77 -15 -128h-54q-43 -26 -65.5 -46.5t-28.5 -50.5q-4 -21 1 -35t16 -19t18 -6.5t13 -1.5q22 0 43 12zM399 238q-71 6 -121.5 -16t-58.5 -66
q-7 -28 7.5 -50t48.5 -22q36 0 70 29q36 36 54 125z" />
    <glyph glyph-name="Cacute" unicode="&#x106;" horiz-adv-x="667" 
d="M738 487h-158q10 127 -90 127q-82 0 -138.5 -74.5t-82.5 -194.5q-3 -16 -5.5 -28t-5 -39.5t-2 -48.5t6.5 -47.5t17.5 -43.5t34 -29t53.5 -12q53 0 97.5 34.5t61.5 102.5h163q-9 -31 -16.5 -51.5t-30 -55.5t-54.5 -63q-96 -81 -229 -81q-72 0 -125 21t-82.5 55t-44 82
t-13.5 98.5t13 106.5q36 172 148 276.5t264 104.5q119 0 179.5 -66t38.5 -174zM703 918l-168 -145h-80l114 145h134z" />
    <glyph glyph-name="cacute" unicode="&#x107;" horiz-adv-x="500" 
d="M546 326h-145q10 93 -45 93q-77 0 -112 -161q-25 -114 4 -155q12 -17 36 -17q12 0 25 4.5t33 28t31 64.5h146q-25 -98 -97 -149q-64 -47 -154 -47q-113 0 -158 67q-47 73 -21 199q14 65 43 115t61 77t70 43.5t65.5 21.5t51.5 5q81 0 133 -47t33 -142zM592 730l-168 -145
h-80l114 145h134z" />
    <glyph glyph-name="Ccircumflex" unicode="&#x108;" horiz-adv-x="667" 
d="M738 487h-158q10 127 -90 127q-82 0 -138.5 -74.5t-82.5 -194.5q-3 -16 -5.5 -28t-5 -39.5t-2 -48.5t6.5 -47.5t17.5 -43.5t34 -29t53.5 -12q53 0 97.5 34.5t61.5 102.5h163q-9 -31 -16.5 -51.5t-30 -55.5t-54.5 -63q-96 -81 -229 -81q-72 0 -125 21t-82.5 55t-44 82
t-13.5 98.5t13 106.5q36 172 148 276.5t264 104.5q119 0 179.5 -66t38.5 -174zM365 773l141 145h103l73 -145h-89l-50 85l-88 -85h-90z" />
    <glyph glyph-name="ccircumflex" unicode="&#x109;" horiz-adv-x="500" 
d="M546 326h-145q10 93 -45 93q-77 0 -112 -161q-25 -114 4 -155q12 -17 36 -17q12 0 25 4.5t33 28t31 64.5h146q-25 -98 -97 -149q-64 -47 -154 -47q-113 0 -158 67q-47 73 -21 199q14 65 43 115t61 77t70 43.5t65.5 21.5t51.5 5q81 0 133 -47t33 -142zM234 585l141 145
h103l73 -145h-89l-50 85l-88 -85h-90z" />
    <glyph glyph-name="Cdotaccent" unicode="&#x10a;" horiz-adv-x="667" 
d="M738 487h-158q10 127 -90 127q-82 0 -138.5 -74.5t-82.5 -194.5q-3 -16 -5.5 -28t-5 -39.5t-2 -48.5t6.5 -47.5t17.5 -43.5t34 -29t53.5 -12q53 0 97.5 34.5t61.5 102.5h163q-9 -31 -16.5 -51.5t-30 -55.5t-54.5 -63q-96 -81 -229 -81q-72 0 -125 21t-82.5 55t-44 82
t-13.5 98.5t13 106.5q36 172 148 276.5t264 104.5q119 0 179.5 -66t38.5 -174zM471 787l25 118h102l-25 -118h-102z" />
    <glyph glyph-name="cdotaccent" unicode="&#x10b;" horiz-adv-x="500" 
d="M546 326h-145q10 93 -45 93q-77 0 -112 -161q-25 -114 4 -155q12 -17 36 -17q12 0 25 4.5t33 28t31 64.5h146q-25 -98 -97 -149q-64 -47 -154 -47q-113 0 -158 67q-47 73 -21 199q14 65 43 115t61 77t70 43.5t65.5 21.5t51.5 5q81 0 133 -47t33 -142zM345 599l25 118h102
l-25 -118h-102z" />
    <glyph glyph-name="Ccaron" unicode="&#x10c;" horiz-adv-x="667" 
d="M738 487h-158q10 127 -90 127q-82 0 -138.5 -74.5t-82.5 -194.5q-3 -16 -5.5 -28t-5 -39.5t-2 -48.5t6.5 -47.5t17.5 -43.5t34 -29t53.5 -12q53 0 97.5 34.5t61.5 102.5h163q-9 -31 -16.5 -51.5t-30 -55.5t-54.5 -63q-96 -81 -229 -81q-72 0 -125 21t-82.5 55t-44 82
t-13.5 98.5t13 106.5q36 172 148 276.5t264 104.5q119 0 179.5 -66t38.5 -174zM622 918h93l-137 -145h-117l-73 145h94l50 -91z" />
    <glyph glyph-name="ccaron" unicode="&#x10d;" horiz-adv-x="500" 
d="M546 326h-145q10 93 -45 93q-77 0 -112 -161q-25 -114 4 -155q12 -17 36 -17q12 0 25 4.5t33 28t31 64.5h146q-25 -98 -97 -149q-64 -47 -154 -47q-113 0 -158 67q-47 73 -21 199q14 65 43 115t61 77t70 43.5t65.5 21.5t51.5 5q81 0 133 -47t33 -142zM498 730h93
l-137 -145h-117l-73 145h94l50 -91z" />
    <glyph glyph-name="Dcaron" unicode="&#x10e;" horiz-adv-x="722" 
d="M65 0l153 721l239 -1q161 0 235 -65q54 -47 68.5 -128.5t-5.5 -155.5q-33 -157 -125.5 -250t-207.5 -113q-45 -8 -132 -8h-225zM350 604l-103 -485q34 -2 61 -2q59 0 100 9.5t78 40.5q77 63 109 204q10 53 8.5 97.5t-25.5 78.5t-68 47q-50 15 -160 10zM603 918h93
l-137 -145h-117l-73 145h94l50 -91z" />
    <glyph glyph-name="dcaron" unicode="&#x10f;" horiz-adv-x="611" 
d="M493 443l59 279h149l-136 -640q-9 -46 -13 -82h-150l12 73q-29 -38 -64 -57q-46 -26 -103 -26q-101 0 -144 66t-18 185q27 124 104 197.5t177 73.5q92 0 127 -69zM236 245q-17 -63 -0.5 -111t68.5 -48q31 0 60 16.5t46 40.5q32 43 50 119q16 73 -5.5 113t-72.5 40
q-35 0 -62.5 -18.5t-44 -48.5t-25.5 -54t-14 -49zM772 722h106l-113 -159h-67z" />
    <glyph glyph-name="Dcroat" unicode="&#x110;" horiz-adv-x="722" 
d="M65 0l75 353h-65l18 87h65l60 282h239q156 0 235 -67q101 -89 62 -284q-34 -157 -126 -250.5t-207 -112.5q-46 -8 -131 -8h-225zM297 353l-50 -234q34 -2 60 -2q59 0 100 9.5t79 40.5q76 62 108 204q39 187 -84 223q-52 14 -160 10l-35 -164h145l-18 -87h-145z" />
    <glyph glyph-name="dcroat" unicode="&#x111;" horiz-adv-x="611" 
d="M723 568h-55l-103 -486q0 -1 -13 -82h-150l11 73q-30 -38 -63 -57q-47 -26 -104 -26q-102 0 -144.5 66t-16.5 185q25 124 102.5 197.5t177.5 73.5q90 0 128 -69l26 125h-141l11 53h141l22 101h149l-22 -101h55zM236 245q-17 -63 -0.5 -111t68.5 -48q31 0 59.5 16t46.5 41
q35 48 49 119q16 74 -4.5 113.5t-72.5 39.5q-35 0 -62.5 -18.5t-44 -48.5t-25.5 -54t-14 -49z" />
    <glyph glyph-name="Emacron" unicode="&#x112;" horiz-adv-x="603" 
d="M74 0l154 723h484l-25 -118h-329l-37 -172h308l-25 -118h-308l-41 -195h340l-26 -120h-495zM662 812h-342l15 68h342z" />
    <glyph glyph-name="emacron" unicode="&#x113;" 
d="M569 215h-339q-29 -135 74 -135q70 0 103 70h135q-19 -65 -71 -110q-70 -59 -190 -59q-117 0 -165 63q-50 69 -23 197q37 167 156 239q73 42 151 42q62 0 111 -28.5t67 -93.5q20 -73 -9 -185zM254 308h183q3 15 4 28.5t-1.5 35.5t-19.5 35.5t-47 13.5q-46 0 -76 -32
t-43 -81zM592 624h-342l14 68h342z" />
    <glyph glyph-name="Ebreve" unicode="&#x114;" horiz-adv-x="603" 
d="M74 0l154 723h484l-25 -118h-329l-37 -172h308l-25 -118h-308l-41 -195h340l-26 -120h-495zM365 918h61q-3 -45 19 -62.5t53 -17.5q25 0 44.5 7.5t32.5 23t19 24.5t14 25h61q-17 -63 -66.5 -104t-119.5 -41q-80 0 -111 55q-18 30 -7 90z" />
    <glyph glyph-name="ebreve" unicode="&#x115;" 
d="M569 215h-339q-29 -135 74 -135q70 0 103 70h135q-19 -65 -71 -110q-70 -59 -190 -59q-117 0 -165 63q-50 69 -23 197q37 167 156 239q73 42 151 42q62 0 111 -28.5t67 -93.5q20 -73 -9 -185zM254 308h183q3 15 4 28.5t-1.5 35.5t-19.5 35.5t-47 13.5q-46 0 -76 -32
t-43 -81zM288 730h61q-3 -45 19 -62.5t53 -17.5q25 0 44.5 7.5t32.5 23t19 24.5t14 25h61q-17 -63 -66.5 -104t-119.5 -41q-81 0 -110 55q-18 31 -8 90z" />
    <glyph glyph-name="Edotaccent" unicode="&#x116;" horiz-adv-x="603" 
d="M74 0l154 723h484l-25 -118h-329l-37 -172h308l-25 -118h-308l-41 -195h340l-26 -120h-495zM446 787l25 118h102l-25 -118h-102z" />
    <glyph glyph-name="edotaccent" unicode="&#x117;" 
d="M569 215h-339q-29 -135 74 -135q70 0 103 70h135q-19 -65 -71 -110q-70 -59 -190 -59q-117 0 -165 63q-50 69 -23 197q37 167 156 239q73 42 151 42q62 0 111 -28.5t67 -93.5q20 -73 -9 -185zM254 308h183q3 15 4 28.5t-1.5 35.5t-19.5 35.5t-47 13.5q-46 0 -76 -32
t-43 -81zM368 599l25 118h102l-25 -118h-102z" />
    <glyph glyph-name="Eogonek" unicode="&#x118;" horiz-adv-x="603" 
d="M66 0l153 722h484l-25 -117h-329l-36 -172h308l-26 -118h-308l-41 -195h340l-25 -120h-38q-43 -26 -65.5 -46.5t-28.5 -50.5q-4 -21 1 -35t16 -19t18 -6.5t13 -1.5q22 0 43 12l-9 -44q-50 -26 -99 -26q-46 0 -66.5 21t-13.5 54q9 44 49 81t99 61h-414z" />
    <glyph glyph-name="eogonek" unicode="&#x119;" 
d="M369 -147l-9 -44q-50 -26 -99 -26q-46 0 -66.5 21t-13.5 54q17 72 108 123h-9q-119 0 -164 63q-50 67 -23 197q32 166 156 239q68 42 150 42q62 0 111 -29t68 -93q19 -71 -10 -185h-339q-5 -19 -6 -36t2 -42.5t23 -41t56 -15.5q68 0 102 70h135q-19 -64 -71 -110
q-43 -38 -118 -52q-64 -39 -74 -85q-4 -21 1 -35t16 -19t18 -6.5t13 -1.5q22 0 43 12zM254 308h183q3 15 4 28.5t-1.5 35.5t-19.5 35.5t-47 13.5q-46 0 -76 -32t-43 -81z" />
    <glyph glyph-name="Ecaron" unicode="&#x11a;" horiz-adv-x="603" 
d="M74 0l154 723h484l-25 -118h-329l-37 -172h308l-25 -118h-308l-41 -195h340l-26 -120h-495zM589 918h93l-137 -145h-117l-73 145h94l50 -91z" />
    <glyph glyph-name="ecaron" unicode="&#x11b;" 
d="M569 215h-339q-29 -135 74 -135q70 0 103 70h135q-19 -65 -71 -110q-70 -59 -190 -59q-117 0 -165 63q-50 69 -23 197q37 167 156 239q73 42 151 42q62 0 111 -28.5t67 -93.5q20 -73 -9 -185zM254 308h183q3 15 4 28.5t-1.5 35.5t-19.5 35.5t-47 13.5q-46 0 -76 -32
t-43 -81zM516 730h93l-137 -145h-117l-73 145h94l50 -91z" />
    <glyph glyph-name="Gcircumflex" unicode="&#x11c;" horiz-adv-x="778" 
d="M821 501h-161q9 43 -4 73q-23 56 -109 56q-62 0 -112 -26.5t-81 -70.5t-49 -87t-28 -91q-27 -131 19 -194q43 -62 157 -62q71 0 121 14l32 152h-140l26 120h295l-77 -361q-128 -40 -272 -40q-210 0 -287 96q-76 94 -39 270q40 187 167 290t296 103q165 0 227 -91
q38 -58 19 -151zM405 773l141 145h103l73 -145h-89l-50 85l-88 -85h-90z" />
    <glyph glyph-name="gcircumflex" unicode="&#x11d;" horiz-adv-x="611" 
d="M512 503h139q-21 -64 -34 -125l-79 -373q-43 -204 -295 -204q-28 0 -50 2t-53 11t-50 25.5t-30.5 48t-4.5 75.5h142q0 -29 7 -41q15 -29 66 -29q35 0 63.5 17t42.5 49q10 20 33 120q-67 -69 -151 -69q-102 0 -141.5 74t-18.5 174q22 103 94 176.5t175 73.5q32 0 56 -7.5
t38 -21.5t19.5 -21.5t12.5 -21.5zM246 258q-29 -147 68 -147q29 0 53 13.5t38 30.5t24 40t13.5 36t5.5 24q32 154 -68 154q-45 0 -81.5 -37t-52.5 -114zM268 585l141 145h103l73 -145h-89l-50 85l-88 -85h-90z" />
    <glyph glyph-name="Gbreve" unicode="&#x11e;" horiz-adv-x="778" 
d="M821 501h-161q9 43 -4 73q-23 56 -109 56q-62 0 -112 -26.5t-81 -70.5t-49 -87t-28 -91q-27 -131 19 -194q43 -62 157 -62q71 0 121 14l32 152h-140l26 120h295l-77 -361q-128 -40 -272 -40q-210 0 -287 96q-76 94 -39 270q40 187 167 290t296 103q165 0 227 -91
q38 -58 19 -151zM444 918h61q-3 -45 19 -62.5t53 -17.5q25 0 44.5 7.5t32.5 23t19 24.5t14 25h61q-17 -63 -66.5 -104t-119.5 -41q-80 0 -111 55q-18 30 -7 90z" />
    <glyph glyph-name="gbreve" unicode="&#x11f;" horiz-adv-x="611" 
d="M512 503h139q-21 -64 -34 -125l-79 -373q-43 -204 -295 -204q-28 0 -50 2t-53 11t-50 25.5t-30.5 48t-4.5 75.5h142q0 -29 7 -41q15 -29 66 -29q35 0 63.5 17t42.5 49q10 20 33 120q-67 -69 -151 -69q-102 0 -141.5 74t-18.5 174q22 103 94 176.5t175 73.5q32 0 56 -7.5
t38 -21.5t19.5 -21.5t12.5 -21.5zM246 258q-29 -147 68 -147q29 0 53 13.5t38 30.5t24 40t13.5 36t5.5 24q32 154 -68 154q-45 0 -81.5 -37t-52.5 -114zM315 730h61q-3 -45 19 -62.5t53 -17.5q25 0 44.5 7.5t32.5 23t19 24.5t14 25h61q-17 -63 -66.5 -104t-119.5 -41
q-81 0 -110 55q-18 31 -8 90z" />
    <glyph glyph-name="Gdotaccent" unicode="&#x120;" horiz-adv-x="778" 
d="M821 501h-161q9 43 -4 73q-23 56 -109 56q-62 0 -112 -26.5t-81 -70.5t-49 -87t-28 -91q-27 -131 19 -194q43 -62 157 -62q71 0 121 14l32 152h-140l26 120h295l-77 -361q-128 -40 -272 -40q-210 0 -287 96q-76 94 -39 270q40 187 167 290t296 103q165 0 227 -91
q38 -58 19 -151zM529 787l25 118h102l-25 -118h-102z" />
    <glyph glyph-name="gdotaccent" unicode="&#x121;" horiz-adv-x="611" 
d="M512 503h139q-21 -64 -34 -125l-79 -373q-43 -204 -295 -204q-28 0 -50 2t-53 11t-50 25.5t-30.5 48t-4.5 75.5h142q0 -29 7 -41q15 -29 66 -29q35 0 63.5 17t42.5 49q10 20 33 120q-67 -69 -151 -69q-102 0 -141.5 74t-18.5 174q22 103 94 176.5t175 73.5q32 0 56 -7.5
t38 -21.5t19.5 -21.5t12.5 -21.5zM246 258q-29 -147 68 -147q29 0 53 13.5t38 30.5t24 40t13.5 36t5.5 24q32 154 -68 154q-45 0 -81.5 -37t-52.5 -114zM379 599l25 118h102l-25 -118h-102z" />
    <glyph glyph-name="Gcommaaccent" unicode="&#x122;" horiz-adv-x="778" 
d="M821 501h-161q9 43 -4 73q-23 56 -109 56q-62 0 -112 -26.5t-81 -70.5t-49 -87t-28 -91q-27 -131 19 -194q43 -62 157 -62q71 0 121 14l32 152h-140l26 120h295l-77 -361q-128 -40 -272 -40q-210 0 -287 96q-76 94 -39 270q40 187 167 290t296 103q165 0 227 -91
q38 -58 19 -151zM362 -66h106l-112 -159h-67z" />
    <glyph glyph-name="gcommaaccent" unicode="&#x123;" horiz-adv-x="611" 
d="M512 503h139q-21 -64 -34 -125l-79 -373q-43 -204 -295 -204q-28 0 -50 2t-53 11t-50 25.5t-30.5 48t-4.5 75.5h142q0 -29 7 -41q15 -29 66 -29q35 0 63.5 17t42.5 49q10 20 33 120q-67 -69 -151 -69q-102 0 -141.5 74t-18.5 174q22 103 94 176.5t175 73.5q32 0 56 -7.5
t38 -21.5t19.5 -21.5t12.5 -21.5zM246 258q-29 -147 68 -147q29 0 53 13.5t38 30.5t24 40t13.5 36t5.5 24q32 154 -68 154q-45 0 -81.5 -37t-52.5 -114zM473 585h-106l113 159h67z" />
    <glyph glyph-name="Hcircumflex" unicode="&#x124;" horiz-adv-x="722" 
d="M67 0l154 723h155l-62 -289h273l62 289h157l-154 -723h-155l67 317h-275l-67 -317h-155zM368 773l141 145h103l73 -145h-89l-50 85l-88 -85h-90z" />
    <glyph glyph-name="hcircumflex" unicode="&#x125;" horiz-adv-x="611" 
d="M69 0l153 722h147l-60 -286q70 76 162 76q95 0 132 -68q23 -45 4 -137l-65 -307h-147l64 302q23 110 -59 110q-38 0 -72 -24.5t-45 -78.5l-65 -309h-149zM141 761l141 145h103l73 -145h-89l-50 85l-88 -85h-90z" />
    <glyph glyph-name="Hbar" unicode="&#x126;" horiz-adv-x="722" 
d="M67 0l153 722h155l-24 -115h273l24 115h157l-153 -722h-155l67 317h-275l-67 -317h-155zM314 434h273l22 105h-273z" />
    <glyph glyph-name="hbar" unicode="&#x127;" horiz-adv-x="611" 
d="M69 0l120 568h-55l11 53h55l22 101h147l-22 -101h143l-11 -53h-143l-28 -132q70 76 162 76q94 0 133 -68q24 -47 4 -137l-65 -307h-147l64 302q12 67 -9 91q-16 19 -51 19q-37 0 -71.5 -24.5t-45.5 -78.5l-64 -309h-149z" />
    <glyph glyph-name="Itilde" unicode="&#x128;" horiz-adv-x="289" 
d="M60 0l154 725h155l-154 -725h-155zM177 781h-52q20 56 59.5 89.5t84.5 33.5q9 0 20.5 -2.5t18.5 -5t8 -3.5l53 -22q10 -6 32 -6q37 0 57 46h51q-21 -63 -60 -93q-37 -29 -78 -29q-19 0 -49 11l-40 16q-27 10 -43 10q-38 0 -62 -45z" />
    <glyph glyph-name="itilde" unicode="&#x129;" horiz-adv-x="278" 
d="M65 0l108 506h148l-108 -506h-148zM140 593h-52q20 56 59.5 89.5t84.5 33.5q26 0 48 -11l52 -22q18 -6 33 -6q37 0 57 46h51q-21 -62 -60 -93q-35 -29 -78 -29q-23 0 -50 11l-40 16q-27 10 -42 10q-38 0 -63 -45z" />
    <glyph glyph-name="Imacron" unicode="&#x12a;" horiz-adv-x="289" 
d="M60 0l154 725h155l-154 -725h-155zM479 812h-342l15 68h342z" />
    <glyph glyph-name="imacron" unicode="&#x12b;" horiz-adv-x="278" 
d="M65 0l107 506h148l-107 -506h-148zM404 624h-262l15 68h262z" />
    <glyph glyph-name="Ibreve" unicode="&#x12c;" horiz-adv-x="278" 
d="M60 0l154 725h155l-154 -725h-155zM182 918h61q-3 -45 19 -62.5t53 -17.5q25 0 44.5 7.5t32.5 23t19 24.5t14 25h61q-17 -63 -66.5 -104t-119.5 -41q-80 0 -111 55q-18 30 -7 90z" />
    <glyph glyph-name="ibreve" unicode="&#x12d;" horiz-adv-x="278" 
d="M65 0l108 506h148l-108 -506h-148zM142 730h61q-3 -45 19 -62.5t53 -17.5q25 0 44.5 7.5t32.5 23t19 24.5t14 25h61q-17 -63 -66.5 -104t-119.5 -41q-81 0 -110 55q-18 31 -8 90z" />
    <glyph glyph-name="Iogonek" unicode="&#x12e;" horiz-adv-x="289" 
d="M67 0l153 722h155l-153 -722h-37q-43 -26 -65.5 -46.5t-28.5 -50.5q-4 -21 1 -35t16 -19t18 -6.5t13 -1.5q22 0 43 12l-9 -44q-50 -26 -99 -26q-46 0 -66 20.5t-13 54.5q9 43 48.5 80.5t98.5 61.5h-75z" />
    <glyph glyph-name="iogonek" unicode="&#x12f;" horiz-adv-x="278" 
d="M65 0l107 506h148l-107 -506h-46q-43 -26 -65.5 -46.5t-28.5 -50.5q-4 -21 1 -35t16 -19t18 -6.5t13 -1.5q22 0 43 12l-9 -44q-50 -26 -99 -26q-45 0 -65.5 21t-13.5 54q9 44 49 81t98 61h-59zM186 593l27 129h158l-27 -129h-158z" />
    <glyph glyph-name="Idotaccent" unicode="&#x130;" horiz-adv-x="289" 
d="M60 0l154 725h155l-154 -725h-155zM255 787l25 118h102l-25 -118h-102z" />
    <glyph glyph-name="dotlessi" unicode="&#x131;" horiz-adv-x="278" 
d="M65 0l108 506h148l-108 -506h-148z" />
    <glyph glyph-name="Jcircumflex" unicode="&#x134;" horiz-adv-x="548" 
d="M59 234h152q-14 -58 -1 -93t59 -35q62 0 91 61q9 22 31 113l94 443h157l-95 -444q-19 -91 -56.5 -153.5t-109.5 -101.5q-58 -31 -146 -31q-65 0 -107 19t-64 69q-24 53 -5 153zM407 773l141 145h103l73 -145h-89l-50 85l-88 -85h-90z" />
    <glyph glyph-name="jcircumflex" unicode="&#x135;" horiz-adv-x="278" 
d="M-43 -194l22 100q22 -1 39 7.5t25.5 24.5t12.5 28t7 26l109 515h148l-117 -552q-17 -76 -62.5 -114.5t-135.5 -38.5q-27 0 -48 4zM103 585l141 145h103l73 -145h-89l-50 85l-88 -85h-90z" />
    <glyph glyph-name="Kcommaaccent" unicode="&#x136;" horiz-adv-x="667" 
d="M67 0l153 721h155l-66 -311l309 313h181l-334 -324l203 -399h-193l-175 368l-78 -368h-155zM267 -66h106l-112 -159h-67z" />
    <glyph glyph-name="kcommaaccent" unicode="&#x137;" 
d="M67 0l154 723h147l-91 -426l198 211h167l-220 -220l123 -288h-175l-98 275l-58 -275h-147zM215 -66h106l-112 -159h-67z" />
    <glyph glyph-name="kgreenlandic" unicode="&#x138;" 
d="M67 0l107 505h147l-44 -208l197 211h167l-219 -220l123 -288h-175l-98 275l-58 -275h-147z" />
    <glyph glyph-name="Lacute" unicode="&#x139;" 
d="M69 0l153 722h158l-127 -599h310l-26 -123h-468zM512 918l-168 -145h-80l114 145h134z" />
    <glyph glyph-name="lacute" unicode="&#x13a;" horiz-adv-x="278" 
d="M65 0l154 723h148l-154 -723h-148zM487 903l-168 -145h-80l114 145h134z" />
    <glyph glyph-name="Lcommaaccent" unicode="&#x13b;" 
d="M69 0l153 722h158l-127 -599h310l-26 -123h-468zM233 -66h106l-112 -159h-67z" />
    <glyph glyph-name="lcommaaccent" unicode="&#x13c;" horiz-adv-x="278" 
d="M65 0l154 723h148l-154 -723h-148zM75 -66h106l-112 -159h-67z" />
    <glyph glyph-name="Lcaron" unicode="&#x13d;" 
d="M69 0l153 722h158l-127 -599h310l-26 -123h-468zM561 722h106l-113 -159h-67z" />
    <glyph glyph-name="lcaron" unicode="&#x13e;" horiz-adv-x="278" 
d="M65 0l154 723h148l-154 -723h-148zM439 722h106l-113 -159h-67z" />
    <glyph glyph-name="Ldot" unicode="&#x13f;" 
d="M69 0l153 722h158l-127 -599h310l-26 -123h-468zM452 374l25 118h102l-25 -118h-102z" />
    <glyph glyph-name="ldot" unicode="&#x140;" horiz-adv-x="389" 
d="M65 0l154 723h148l-154 -723h-148zM347 332l25 118h102l-25 -118h-102z" />
    <glyph glyph-name="Lslash" unicode="&#x141;" 
d="M69 0l61 289l-74 -38l22 101l75 40l69 330h158l-51 -241l197 102l-22 -104l-197 -101l-54 -255h310l-26 -123h-468z" />
    <glyph glyph-name="lslash" unicode="&#x142;" horiz-adv-x="278" 
d="M65 0l62 293l-60 -32l22 103l60 33l70 326h148l-50 -236l60 33l-23 -105l-60 -32l-81 -383h-148z" />
    <glyph glyph-name="Nacute" unicode="&#x143;" horiz-adv-x="773" 
d="M72 0l154 723h224l150 -569l121 569h144l-154 -723h-213l-152 600l-128 -600h-146zM747 918l-168 -145h-80l114 145h134z" />
    <glyph glyph-name="nacute" unicode="&#x144;" horiz-adv-x="611" 
d="M67 0l88 415q5 11 17 92h142l-12 -76q69 88 182 88q66 0 97.5 -30t36.5 -65q6 -38 -18 -151l-58 -273h-151l67 314q8 40 3 55q-12 43 -62 43q-52 0 -86 -39q-24 -28 -34 -77l-63 -296h-149zM632 730l-168 -145h-80l114 145h134z" />
    <glyph glyph-name="Ncommaaccent" unicode="&#x145;" horiz-adv-x="773" 
d="M72 0l154 723h224l150 -569l121 569h144l-154 -723h-213l-152 600l-128 -600h-146zM320 -66h106l-112 -159h-67z" />
    <glyph glyph-name="ncommaaccent" unicode="&#x146;" horiz-adv-x="611" 
d="M67 0l88 415q5 11 17 92h142l-12 -76q69 88 182 88q66 0 97.5 -30t36.5 -65q6 -38 -18 -151l-58 -273h-151l67 314q8 40 3 55q-12 43 -62 43q-52 0 -86 -39q-24 -28 -34 -77l-63 -296h-149zM239 -66h106l-112 -159h-67z" />
    <glyph glyph-name="Ncaron" unicode="&#x147;" horiz-adv-x="773" 
d="M72 0l154 723h224l150 -569l121 569h144l-154 -723h-213l-152 600l-128 -600h-146zM659 918h93l-137 -145h-117l-73 145h94l50 -91z" />
    <glyph glyph-name="ncaron" unicode="&#x148;" horiz-adv-x="611" 
d="M67 0l88 415q5 11 17 92h142l-12 -76q69 88 182 88q66 0 97.5 -30t36.5 -65q6 -38 -18 -151l-58 -273h-151l67 314q8 40 3 55q-12 43 -62 43q-52 0 -86 -39q-24 -28 -34 -77l-63 -296h-149zM533 730h93l-137 -145h-117l-73 145h94l50 -91z" />
    <glyph glyph-name="Eng" unicode="&#x14a;" horiz-adv-x="752" 
d="M393 -194l22 100q48 -2 73 7.5t39 38.5l-188 620l-121 -572h-146l153 723h224l141 -517l104 517h144l-163 -768q-16 -76 -59.5 -114.5t-133.5 -38.5q-68 0 -89 4z" />
    <glyph glyph-name="eng" unicode="&#x14b;" horiz-adv-x="602" 
d="M251 -194l22 100q34 -1 57 6t34.5 22t16 26.5t8.5 31.5l68 322q9 38 4 55q-12 43 -63 43t-85 -39q-23 -25 -35 -77l-62 -296h-149l88 415l3 15l7 39t6 38h142l-12 -76q73 88 183 88q66 0 97 -29.5t37 -65.5q5 -41 -18 -151l-68 -318q-16 -75 -63.5 -114t-138.5 -39
q-57 0 -79 4z" />
    <glyph glyph-name="Omacron" unicode="&#x14c;" horiz-adv-x="778" 
d="M117 351q16 76 48 142t83 122.5t127.5 89.5t170.5 33q167 0 233 -98q69 -105 34 -272q-17 -81 -57.5 -158t-93.5 -125q-113 -103 -279 -103q-160 0 -235 99q-68 94 -31 270zM280 356q-28 -131 11 -202q29 -58 118 -58q92 0 150 67q64 75 93 207q16 79 9 129
q-16 128 -138 128q-85 0 -146 -61q-67 -66 -97 -210zM732 812h-342l15 68h342z" />
    <glyph glyph-name="omacron" unicode="&#x14d;" horiz-adv-x="611" 
d="M95 248q10 49 33 94t60.5 85.5t95.5 65t129 24.5q130 0 180 -75.5t26 -189.5q-25 -115 -109 -192.5t-214 -77.5q-113 0 -170.5 69t-30.5 197zM247 247q-36 -162 76 -162q53 0 89 39t57 134q33 160 -77 160q-112 0 -145 -171zM609 624h-342l14 68h342z" />
    <glyph glyph-name="Obreve" unicode="&#x14e;" horiz-adv-x="778" 
d="M117 351q16 76 48 142t83 122.5t127.5 89.5t170.5 33q167 0 233 -98q69 -105 34 -272q-17 -81 -57.5 -158t-93.5 -125q-113 -103 -279 -103q-160 0 -235 99q-68 94 -31 270zM280 356q-28 -131 11 -202q29 -58 118 -58q92 0 150 67q64 75 93 207q16 79 9 129
q-16 128 -138 128q-85 0 -146 -61q-67 -66 -97 -210zM430 918h61q-3 -45 19 -62.5t53 -17.5q25 0 44.5 7.5t32.5 23t19 24.5t14 25h61q-17 -63 -66.5 -104t-119.5 -41q-80 0 -111 55q-18 30 -7 90z" />
    <glyph glyph-name="obreve" unicode="&#x14f;" horiz-adv-x="611" 
d="M95 248q10 49 33 94t60.5 85.5t95.5 65t129 24.5q130 0 180 -75.5t26 -189.5q-25 -115 -109 -192.5t-214 -77.5q-113 0 -170.5 69t-30.5 197zM247 247q-36 -162 76 -162q53 0 89 39t57 134q33 160 -77 160q-112 0 -145 -171zM308 730h61q-3 -45 19 -62.5t53 -17.5
q25 0 44.5 7.5t32.5 23t19 24.5t14 25h61q-17 -63 -66.5 -104t-119.5 -41q-81 0 -110 55q-18 31 -8 90z" />
    <glyph glyph-name="Ohungarumlaut" unicode="&#x150;" horiz-adv-x="778" 
d="M117 351q16 76 48 142t83 122.5t127.5 89.5t170.5 33q167 0 233 -98q69 -105 34 -272q-17 -81 -57.5 -158t-93.5 -125q-113 -103 -279 -103q-160 0 -235 99q-68 94 -31 270zM280 356q-28 -131 11 -202q29 -58 118 -58q92 0 150 67q64 75 93 207q16 79 9 129
q-16 128 -138 128q-85 0 -146 -61q-67 -66 -97 -210zM635 918l-169 -145h-80l115 145h134zM820 918l-169 -145h-80l115 145h134z" />
    <glyph glyph-name="ohungarumlaut" unicode="&#x151;" horiz-adv-x="611" 
d="M95 248q10 49 33 94t60.5 85.5t95.5 65t129 24.5q130 0 180 -75.5t26 -189.5q-25 -115 -109 -192.5t-214 -77.5q-113 0 -170.5 69t-30.5 197zM247 247q-36 -162 76 -162q53 0 89 39t57 134q33 160 -77 160q-112 0 -145 -171zM524 730l-169 -145h-80l115 145h134zM709 730
l-169 -145h-80l115 145h134z" />
    <glyph glyph-name="OE" unicode="&#x152;" horiz-adv-x="1000" 
d="M1104 722l-24 -116h-295l-38 -180h286l-25 -116h-287l-40 -190h308l-26 -120h-491q-53 0 -80 0.5t-71 5.5t-70.5 14t-56 27t-50.5 45q-30 37 -40.5 92.5t-7.5 93.5t11 75q27 127 103.5 223.5t185.5 124.5q57 15 97 18t132 3h479zM524 111l107 503q-88 0 -129 -4.5
t-79 -21.5q-116 -49 -157 -239q-15 -70 -7 -118.5t33.5 -71.5t63 -36t81 -12t87.5 0z" />
    <glyph glyph-name="oe" unicode="&#x153;" horiz-adv-x="944" 
d="M793 156h139q-31 -84 -97 -129q-67 -44 -158 -44q-41 0 -70.5 7.5t-48.5 23.5t-28 27.5t-22 33.5q-54 -52 -105.5 -72.5t-112.5 -20.5q-69 0 -115.5 24t-64.5 62.5t-23 86t8 95.5q16 76 53.5 131.5t84.5 83.5t90.5 40t84.5 12q124 0 174 -93q81 95 204 95q133 0 175 -102
q23 -59 -7 -198h-335q-5 -32 -6.5 -64t18 -55.5t59.5 -23.5q70 0 103 80zM638 311h188l5 26.5t1.5 29t-6.5 30t-22 20.5t-40 9q-89 0 -126 -115zM322 80q39 0 67.5 17t45.5 47.5t26 56t16 59.5q35 161 -82 161q-113 0 -150 -171q-37 -170 77 -170z" />
    <glyph glyph-name="Racute" unicode="&#x154;" horiz-adv-x="667" 
d="M60 0l154 723h277q52 1 81.5 -1t67 -13.5t59.5 -34.5q52 -55 34 -139q-29 -134 -189 -177q51 -5 74 -26.5t23.5 -56.5t-2.5 -83q-9 -113 -8 -140q1 -28 11 -52h-171q1 11 5.5 72.5t7.5 114t1 64.5q-2 14 -8.5 23.5t-18.5 12.5t-20 4t-22 1h-136l-62 -292h-158zM342 609
l-42 -202h125q54 0 83 20q47 31 58 84q12 57 -21 81q-10 8 -25.5 12t-29.5 4.5t-44 0.5h-104zM662 918l-168 -145h-80l114 145h134z" />
    <glyph glyph-name="racute" unicode="&#x155;" horiz-adv-x="389" 
d="M65 0l81 381q14 66 20 126h139l-18 -97q19 29 36.5 47.5t59.5 36t97 14.5l-28 -133q-52 5 -88.5 -4t-55.5 -31t-27.5 -42t-14.5 -49l-53 -249h-148zM461 730l-168 -145h-80l114 145h134z" />
    <glyph glyph-name="Rcommaaccent" unicode="&#x156;" horiz-adv-x="667" 
d="M60 0l154 723h277q52 1 81.5 -1t67 -13.5t59.5 -34.5q52 -55 34 -139q-29 -134 -189 -177q51 -5 74 -26.5t23.5 -56.5t-2.5 -83q-9 -113 -8 -140q1 -28 11 -52h-171q1 11 5.5 72.5t7.5 114t1 64.5q-2 14 -8.5 23.5t-18.5 12.5t-20 4t-22 1h-136l-62 -292h-158zM342 609
l-42 -202h125q54 0 83 20q47 31 58 84q12 57 -21 81q-10 8 -25.5 12t-29.5 4.5t-44 0.5h-104zM278 -66h106l-112 -159h-67z" />
    <glyph glyph-name="rcommaaccent" unicode="&#x157;" horiz-adv-x="389" 
d="M65 0l81 381q14 66 20 126h139l-18 -97q19 29 36.5 47.5t59.5 36t97 14.5l-28 -133q-52 5 -88.5 -4t-55.5 -31t-27.5 -42t-14.5 -49l-53 -249h-148zM76 -66h106l-112 -159h-67z" />
    <glyph glyph-name="Rcaron" unicode="&#x158;" horiz-adv-x="667" 
d="M60 0l154 723h277q52 1 81.5 -1t67 -13.5t59.5 -34.5q52 -55 34 -139q-29 -134 -189 -177q51 -5 74 -26.5t23.5 -56.5t-2.5 -83q-9 -113 -8 -140q1 -28 11 -52h-171q1 11 5.5 72.5t7.5 114t1 64.5q-2 14 -8.5 23.5t-18.5 12.5t-20 4t-22 1h-136l-62 -292h-158zM342 609
l-42 -202h125q54 0 83 20q47 31 58 84q12 57 -21 81q-10 8 -25.5 12t-29.5 4.5t-44 0.5h-104zM598 918h93l-137 -145h-117l-73 145h94l50 -91z" />
    <glyph glyph-name="rcaron" unicode="&#x159;" horiz-adv-x="389" 
d="M65 0l81 381q14 66 20 126h139l-18 -97q19 29 36.5 47.5t59.5 36t97 14.5l-28 -133q-52 5 -88.5 -4t-55.5 -31t-27.5 -42t-14.5 -49l-53 -249h-148zM416 730h93l-137 -145h-117l-73 145h94l50 -91z" />
    <glyph glyph-name="Sacute" unicode="&#x15a;" horiz-adv-x="667" 
d="M84 231h158q-4 -18 -5.5 -28.5t0.5 -34t11.5 -37t33.5 -25.5t62 -12q63 0 105.5 27.5t52.5 73.5q10 44 -15 61t-101 36q-131 35 -184.5 82.5t-34.5 136.5q20 97 105.5 160.5t227.5 63.5q151 0 200 -85q30 -52 13 -134h-149q13 110 -94 110q-54 0 -92 -27t-48 -71
q-5 -24 0.5 -40t24 -27t42.5 -19t63 -18q3 -1 5 -1q21 -5 35.5 -9t34 -10t33 -12l29.5 -13.5t26 -16.5l21 -19.5t17 -23.5t10 -28.5t3 -33.5t-5 -39q-21 -102 -117 -168.5t-241 -66.5q-57 0 -100 10.5t-68.5 25.5t-41 40t-21.5 44.5t-5.5 48.5t3 43zM692 918l-168 -145h-80
l114 145h134z" />
    <glyph glyph-name="sacute" unicode="&#x15b;" horiz-adv-x="500" 
d="M60 146h139q-4 -28 11.5 -48.5t57.5 -20.5q38 0 62 18t29 42q4 19 -7.5 32.5t-50.5 24.5l-86 25q-22 7 -36 13.5t-35 21.5t-28.5 42t0.5 63q16 73 86 115.5t169 42.5q82 0 127.5 -38t32.5 -111h-135q5 37 -18 51q-15 9 -41 9q-31 0 -53.5 -13.5t-27.5 -36.5t8 -32.5
t50 -20.5l86 -25q126 -37 105 -141q-16 -71 -87 -122.5t-182 -51.5q-113 0 -160 62q-27 36 -16 99zM574 730l-168 -145h-80l114 145h134z" />
    <glyph glyph-name="Scircumflex" unicode="&#x15c;" horiz-adv-x="667" 
d="M84 231h158q-4 -18 -5.5 -28.5t0.5 -34t11.5 -37t33.5 -25.5t62 -12q63 0 105.5 27.5t52.5 73.5q10 44 -15 61t-101 36q-131 35 -184.5 82.5t-34.5 136.5q20 97 105.5 160.5t227.5 63.5q151 0 200 -85q30 -52 13 -134h-149q13 110 -94 110q-54 0 -92 -27t-48 -71
q-5 -24 0.5 -40t24 -27t42.5 -19t63 -18q3 -1 5 -1q21 -5 35.5 -9t34 -10t33 -12l29.5 -13.5t26 -16.5l21 -19.5t17 -23.5t10 -28.5t3 -33.5t-5 -39q-21 -102 -117 -168.5t-241 -66.5q-57 0 -100 10.5t-68.5 25.5t-41 40t-21.5 44.5t-5.5 48.5t3 43zM332 773l141 145h103
l73 -145h-89l-50 85l-88 -85h-90z" />
    <glyph glyph-name="scircumflex" unicode="&#x15d;" horiz-adv-x="500" 
d="M60 146h139q-4 -28 11.5 -48.5t57.5 -20.5q38 0 62 18t29 42q4 19 -7.5 32.5t-50.5 24.5l-86 25q-22 7 -36 13.5t-35 21.5t-28.5 42t0.5 63q16 73 86 115.5t169 42.5q82 0 127.5 -38t32.5 -111h-135q5 37 -18 51q-15 9 -41 9q-31 0 -53.5 -13.5t-27.5 -36.5t8 -32.5
t50 -20.5l86 -25q126 -37 105 -141q-16 -71 -87 -122.5t-182 -51.5q-113 0 -160 62q-27 36 -16 99zM223 585l141 145h103l73 -145h-89l-50 85l-88 -85h-90z" />
    <glyph glyph-name="Scedilla" unicode="&#x15e;" horiz-adv-x="667" 
d="M173 -195l30 42q34 -18 66 -18q56 0 63 38q3 13 -5 25t-31 12q-18 0 -43 -9l-15 21l62 68q-272 4 -216 247h158q-31 -137 101 -137q63 0 106 27.5t53 73.5q9 44 -16 61.5t-100 35.5q-131 34 -185 82t-35 137q19 96 105.5 160t228.5 64q149 0 200 -85q29 -53 12 -134h-149
q13 110 -93 110q-54 0 -92.5 -26.5t-47.5 -71.5q-11 -45 17 -63t109 -40q5 -1 8 -2q21 -5 35.5 -9t34 -10t33 -11.5t29.5 -13.5t26.5 -16.5t21 -19.5t16.5 -24t10 -28t3.5 -33.5t-4.5 -39.5q-20 -95 -106 -160.5t-217 -73.5l-40 -42q16 4 36 4q44 0 59 -22.5t10 -49.5
q-7 -34 -35 -55.5t-55.5 -28.5t-55.5 -7q-54 0 -92 22z" />
    <glyph glyph-name="scedilla" unicode="&#x15f;" horiz-adv-x="500" 
d="M98 -195l30 42q34 -18 66 -18q56 0 63 38q3 13 -5 25t-31 12q-18 0 -43 -9l-15 21l63 69q-109 5 -151 62q-27 39 -15 99h139q-4 -28 11.5 -48.5t57.5 -20.5q38 0 61.5 17.5t29.5 42.5q4 19 -8 32.5t-50 24.5l-87 25q-21 6 -36 13t-35 22t-27 42t0 63q16 73 85.5 115.5
t168.5 42.5q83 0 128 -38t33 -111h-135q9 60 -60 60q-30 0 -52.5 -13.5t-27.5 -36.5q-3 -13 -1 -21t12 -14t18.5 -9t28.5 -9l85 -25q127 -38 105 -141q-13 -65 -73.5 -114t-156.5 -58l-43 -45q16 4 36 4q44 0 59 -22.5t10 -49.5q-7 -34 -35 -55.5t-55.5 -28.5t-55.5 -7
q-54 0 -92 22z" />
    <glyph glyph-name="Scaron" unicode="&#x160;" horiz-adv-x="667" 
d="M84 231h158q-4 -18 -5.5 -28.5t0.5 -34t11.5 -37t33.5 -25.5t62 -12q63 0 105.5 27.5t52.5 73.5q10 44 -15 61t-101 36q-131 35 -184.5 82.5t-34.5 136.5q20 97 105.5 160.5t227.5 63.5q151 0 200 -85q30 -52 13 -134h-149q13 110 -94 110q-54 0 -92 -27t-48 -71
q-5 -24 0.5 -40t24 -27t42.5 -19t63 -18q3 -1 5 -1q21 -5 35.5 -9t34 -10t33 -12l29.5 -13.5t26 -16.5l21 -19.5t17 -23.5t10 -28.5t3 -33.5t-5 -39q-21 -102 -117 -168.5t-241 -66.5q-57 0 -100 10.5t-68.5 25.5t-41 40t-21.5 44.5t-5.5 48.5t3 43zM601 918h93l-137 -145
h-117l-73 145h94l51 -91z" />
    <glyph glyph-name="scaron" unicode="&#x161;" horiz-adv-x="500" 
d="M60 146h139q-4 -28 11.5 -48.5t57.5 -20.5q38 0 61.5 17.5t29.5 42.5q4 19 -8 32.5t-50 24.5l-87 25q-21 6 -36 13t-35 22t-27 42t0 63q16 73 85.5 115.5t168.5 42.5q83 0 128 -38t33 -111h-135q9 60 -60 60q-30 0 -52.5 -13.5t-27.5 -36.5q-3 -13 -1 -21t12 -14t18.5 -9
t28.5 -9l85 -25q127 -38 105 -141q-15 -71 -86 -122.5t-183 -51.5q-113 0 -160 62q-27 39 -15 99zM477 730h93l-137 -145h-117l-73 145h94l50 -91z" />
    <glyph glyph-name="Tcommaaccent" unicode="&#x162;" horiz-adv-x="611" 
d="M229 0l128 603h-215l26 120h586l-26 -120h-215l-128 -603h-156zM258 -66h106l-112 -159h-67z" />
    <glyph glyph-name="tcommaaccent" unicode="&#x163;" horiz-adv-x="389" 
d="M384 104l-21 -97q-62 -16 -118 -16q-42 0 -70 11t-39.5 24.5t-14.5 35.5t-1.5 34t5.5 31l59 277h-97l21 98h97l21 99l158 54l-32 -153h120l-21 -98h-120l-49 -228q-4 -23 -5 -40t12 -26t44 -9q24 0 51 3zM140 -66h106l-112 -159h-67z" />
    <glyph glyph-name="Tcaron" unicode="&#x164;" horiz-adv-x="611" 
d="M229 0l128 603h-215l26 120h586l-26 -120h-215l-128 -603h-156zM573 918h93l-137 -145h-117l-73 145h94l50 -91z" />
    <glyph glyph-name="tcaron" unicode="&#x165;" horiz-adv-x="389" 
d="M384 104l-21 -97q-62 -16 -118 -16q-42 0 -70 11t-39.5 24.5t-14.5 35.5t-1.5 34t5.5 31l59 277h-97l21 98h97l21 99l158 54l-32 -153h120l-21 -98h-120l-49 -228q-4 -23 -5 -40t12 -26t44 -9q24 0 51 3zM513 722h106l-113 -159h-67z" />
    <glyph glyph-name="Tbar" unicode="&#x166;" horiz-adv-x="611" 
d="M579 389h-112l-82 -389h-156l82 389h-116l14 64h116l32 150h-215l25 120h586l-25 -120h-215l-32 -150h112z" />
    <glyph glyph-name="tbar" unicode="&#x167;" horiz-adv-x="389" 
d="M384 104l-21 -97q-63 -16 -118 -16q-42 0 -70 11t-39.5 24t-15 36t-2 34t5.5 31l27 124h-86l11 53h86l21 100h-97l21 98h97l21 99l159 54l-33 -153h120l-21 -98h-120l-21 -100h112l-11 -53h-112l-16 -75q-4 -23 -5 -40t12 -26t44 -9q32 0 51 3z" />
    <glyph glyph-name="Utilde" unicode="&#x168;" horiz-adv-x="746" 
d="M225 721h155l-93 -440l-6.5 -35t-3.5 -34.5t2 -34t11.5 -29t23 -24.5t38 -15t54.5 -6q99 0 153 63q31 34 49 123l92 432h151l-96 -451q-16 -77 -56.5 -134.5t-95 -88.5t-110.5 -46t-115 -15q-32 0 -63.5 4.5t-68.5 16.5t-67 39t-46 65q-11 26 -13 57.5t1 55.5t12 65z
M449 781h-52q20 56 59.5 89.5t84.5 33.5q9 0 20.5 -2.5t18.5 -5t8 -3.5l53 -22q10 -6 32 -6q37 0 57 46h51q-21 -63 -60 -93q-37 -29 -78 -29q-19 0 -49 11l-40 16q-28 10 -43 10q-38 0 -62 -45z" />
    <glyph glyph-name="utilde" unicode="&#x169;" horiz-adv-x="611" 
d="M167 505h150l-64 -301q-4 -19 -5.5 -29t-1 -28t6 -28t19.5 -18t37 -8q34 0 57 11t36.5 37t19.5 46.5t15 62.5l54 255h152l-70 -333q-10 -47 -15.5 -78.5t-7.5 -42t-3 -14.5q-3 -19 -4 -37h-144l9 67q-69 -80 -166 -80q-49 0 -85 19.5t-52 48.5q-26 43 -4 136zM313 593
h-52q20 56 59.5 89.5t84.5 33.5q26 0 48 -11l52 -22q18 -6 33 -6q37 0 57 46h51q-21 -62 -60 -93q-35 -29 -78 -29q-22 0 -50 11l-40 16q-28 10 -42 10q-38 0 -63 -45z" />
    <glyph glyph-name="Umacron" unicode="&#x16a;" horiz-adv-x="746" 
d="M225 721h155l-93 -440l-6.5 -35t-3.5 -34.5t2 -34t11.5 -29t23 -24.5t38 -15t54.5 -6q99 0 153 63q31 34 49 123l92 432h151l-96 -451q-16 -77 -56.5 -134.5t-95 -88.5t-110.5 -46t-115 -15q-32 0 -63.5 4.5t-68.5 16.5t-67 39t-46 65q-11 26 -13 57.5t1 55.5t12 65z
M737 812h-342l15 68h342z" />
    <glyph glyph-name="umacron" unicode="&#x16b;" horiz-adv-x="611" 
d="M167 505h150l-64 -301q-4 -19 -5.5 -29t-1 -28t6 -28t19.5 -18t37 -8q34 0 57 11t36.5 37t19.5 46.5t15 62.5l54 255h152l-70 -333q-10 -47 -15.5 -78.5t-7.5 -42t-3 -14.5q-3 -19 -4 -37h-144l9 67q-69 -80 -166 -80q-49 0 -85 19.5t-52 48.5q-26 43 -4 136zM604 624
h-342l14 68h342z" />
    <glyph glyph-name="Ubreve" unicode="&#x16c;" horiz-adv-x="746" 
d="M225 721h155l-93 -440l-6.5 -35t-3.5 -34.5t2 -34t11.5 -29t23 -24.5t38 -15t54.5 -6q99 0 153 63q31 34 49 123l92 432h151l-96 -451q-16 -77 -56.5 -134.5t-95 -88.5t-110.5 -46t-115 -15q-32 0 -63.5 4.5t-68.5 16.5t-67 39t-46 65q-11 26 -13 57.5t1 55.5t12 65z
M439 918h61q-3 -45 19 -62.5t53 -17.5q25 0 44.5 7.5t32.5 23t19 24.5t14 25h61q-17 -63 -66.5 -104t-119.5 -41q-80 0 -111 55q-18 30 -7 90z" />
    <glyph glyph-name="ubreve" unicode="&#x16d;" horiz-adv-x="611" 
d="M167 505h150l-64 -301q-4 -19 -5.5 -29t-1 -28t6 -28t19.5 -18t37 -8q34 0 57 11t36.5 37t19.5 46.5t15 62.5l54 255h152l-70 -333q-10 -47 -15.5 -78.5t-7.5 -42t-3 -14.5q-3 -19 -4 -37h-144l9 67q-69 -80 -166 -80q-49 0 -85 19.5t-52 48.5q-26 43 -4 136zM306 730h61
q-3 -45 19 -62.5t53 -17.5q25 0 44.5 7.5t32.5 23t19 24.5t14 25h61q-17 -63 -66.5 -104t-119.5 -41q-81 0 -110 55q-18 31 -8 90z" />
    <glyph glyph-name="Uring" unicode="&#x16e;" horiz-adv-x="746" 
d="M225 721h155l-93 -440l-6.5 -35t-3.5 -34.5t2 -34t11.5 -29t23 -24.5t38 -15t54.5 -6q99 0 153 63q31 34 49 123l92 432h151l-96 -451q-16 -77 -56.5 -134.5t-95 -88.5t-110.5 -46t-115 -15q-32 0 -63.5 4.5t-68.5 16.5t-67 39t-46 65q-11 26 -13 57.5t1 55.5t12 65z
M594 948q43 0 65 -29.5t14 -72.5q-8 -42 -43.5 -72t-78.5 -30q-41 0 -65.5 30t-14.5 72q8 42 44.5 72t78.5 30zM584 900q-22 0 -41 -15.5t-24 -38.5q-5 -22 7.5 -37.5t34.5 -15.5q23 0 41.5 15.5t23.5 37.5t-7 38t-35 16z" />
    <glyph glyph-name="uring" unicode="&#x16f;" horiz-adv-x="611" 
d="M167 505h150l-64 -301q-4 -19 -5.5 -29t-1 -28t6 -28t19.5 -18t37 -8q34 0 57 11t36.5 37t19.5 46.5t15 62.5l54 255h152l-70 -333q-10 -47 -15.5 -78.5t-7.5 -42t-3 -14.5q-3 -19 -4 -37h-144l9 67q-69 -80 -166 -80q-49 0 -85 19.5t-52 48.5q-26 43 -4 136zM459 760
q43 0 65 -29.5t14 -72.5q-8 -42 -43.5 -72t-78.5 -30q-41 0 -65.5 30t-14.5 72q8 42 44.5 72t78.5 30zM449 712q-22 0 -41 -15.5t-24 -38.5q-5 -22 7.5 -37.5t34.5 -15.5q23 0 41.5 15.5t23.5 37.5t-7 38t-35 16z" />
    <glyph glyph-name="Uhungarumlaut" unicode="&#x170;" horiz-adv-x="746" 
d="M225 721h155l-93 -440l-6.5 -35t-3.5 -34.5t2 -34t11.5 -29t23 -24.5t38 -15t54.5 -6q99 0 153 63q31 34 49 123l92 432h151l-96 -451q-16 -77 -56.5 -134.5t-95 -88.5t-110.5 -46t-115 -15q-32 0 -63.5 4.5t-68.5 16.5t-67 39t-46 65q-11 26 -13 57.5t1 55.5t12 65z
M664 918l-169 -145h-80l115 145h134zM849 918l-169 -145h-80l115 145h134z" />
    <glyph glyph-name="uhungarumlaut" unicode="&#x171;" horiz-adv-x="611" 
d="M167 505h150l-64 -301q-4 -19 -5.5 -29t-1 -28t6 -28t19.5 -18t37 -8q34 0 57 11t36.5 37t19.5 46.5t15 62.5l54 255h152l-70 -333q-10 -47 -15.5 -78.5t-7.5 -42t-3 -14.5q-3 -19 -4 -37h-144l9 67q-69 -80 -166 -80q-49 0 -85 19.5t-52 48.5q-26 43 -4 136zM525 730
l-169 -145h-80l115 145h134zM710 730l-169 -145h-80l115 145h134z" />
    <glyph glyph-name="Uogonek" unicode="&#x172;" horiz-adv-x="746" 
d="M448 -147l-9 -44q-50 -26 -99 -26q-46 0 -66.5 21t-13.5 54q16 75 118 128h-12q-32 0 -63.5 4.5t-68.5 16.5t-67.5 39t-46.5 65q-11 27 -13 57.5t1.5 55.5t12.5 65l92 432h155l-94 -440l-6.5 -35.5t-3.5 -34.5t2 -34t11.5 -28.5t22.5 -24.5t37.5 -15t55.5 -6q99 0 154 63
q29 34 49 123l92 432h151l-96 -451q-28 -125 -112.5 -193.5t-193.5 -84.5q-71 -43 -80 -89q-4 -21 1 -35t16 -19t18 -6.5t13 -1.5q22 0 43 12z" />
    <glyph glyph-name="uogonek" unicode="&#x173;" horiz-adv-x="611" 
d="M473 -147l-9 -44q-50 -26 -99 -26q-46 0 -66.5 21t-13.5 54q9 44 49 81t99 61h-34l9 67l-9 -9l-12.5 -12.5t-14.5 -12.5t-19 -14t-21.5 -12t-26 -10.5t-29 -6.5t-34.5 -3q-49 0 -85.5 19.5t-52.5 48.5q-24 40 -4 136l67 314h150l-64 -301q-11 -61 -2 -82q12 -29 57 -29
q34 0 56.5 11t36.5 37.5t20.5 46.5t15.5 62l54 255h152l-71 -333l-26 -135q-3 -15 -3 -37h-67q-43 -26 -65.5 -46.5t-28.5 -50.5q-4 -21 1 -35t16 -19t18 -6.5t13 -1.5q22 0 43 12z" />
    <glyph glyph-name="Wcircumflex" unicode="&#x174;" horiz-adv-x="1000" 
d="M168 720h160l-3 -541l256 541h175l12 -541l232 541h148l-337 -722h-172l-14 552l-258 -552h-176zM521 773l141 145h103l73 -145h-89l-50 85l-88 -85h-90z" />
    <glyph glyph-name="wcircumflex" unicode="&#x175;" horiz-adv-x="889" 
d="M112 505h157l12 -381l188 381h163l25 -381l180 381h147l-280 -505h-161l-25 374l-185 -374h-163zM409 585l141 145h103l73 -145h-89l-50 85l-88 -85h-90z" />
    <glyph glyph-name="Ycircumflex" unicode="&#x176;" horiz-adv-x="667" 
d="M169 720h181l79 -329l222 329h159l-341 -457l-56 -263h-153l56 265zM357 773l141 145h103l73 -145h-89l-50 85l-88 -85h-90z" />
    <glyph glyph-name="ycircumflex" unicode="&#x177;" 
d="M121 505h160l37 -350l187 350h147l-296 -496l-104 -201h-149l105 190zM249 585l141 145h103l73 -145h-89l-50 85l-88 -85h-90z" />
    <glyph glyph-name="Ydieresis" unicode="&#x178;" horiz-adv-x="667" 
d="M169 720h181l79 -329l222 329h159l-342 -457l-55 -263h-153l56 265zM532 777l25 118h102l-25 -118h-102zM360 777l25 118h102l-25 -118h-102z" />
    <glyph glyph-name="Zacute" unicode="&#x179;" horiz-adv-x="611" 
d="M27 0l28 132l479 473l-356 -3l25 118h523l-29 -137l-477 -470l386 6l-25 -119h-554zM677 918l-168 -145h-80l114 145h134z" />
    <glyph glyph-name="zacute" unicode="&#x17a;" horiz-adv-x="500" 
d="M32 0l28 130l314 276h-249l21 99h414l-27 -127l-314 -276h266l-22 -102h-431zM555 730l-168 -145h-80l114 145h134z" />
    <glyph glyph-name="Zdotaccent" unicode="&#x17b;" horiz-adv-x="611" 
d="M27 0l28 132l479 473l-356 -3l25 118h523l-29 -137l-477 -470l386 6l-25 -119h-554zM427 787l25 118h102l-25 -118h-102z" />
    <glyph glyph-name="zdotaccent" unicode="&#x17c;" horiz-adv-x="500" 
d="M32 0l28 130l314 276h-249l21 99h414l-27 -127l-314 -276h266l-22 -102h-431zM333 599l25 118h102l-25 -118h-102z" />
    <glyph glyph-name="Zcaron" unicode="&#x17d;" horiz-adv-x="611" 
d="M27 0l28 132l478 473l-356 -3l26 118h523l-30 -137l-476 -470l386 6l-25 -119h-554zM573 918h93l-137 -145h-117l-73 145h94l50 -91z" />
    <glyph glyph-name="zcaron" unicode="&#x17e;" horiz-adv-x="500" 
d="M32 0l27 130l315 276h-249l21 99h414l-27 -127l-315 -276h266l-21 -102h-431zM477 730h93l-137 -145h-117l-73 145h94l50 -91z" />
    <glyph glyph-name="florin" unicode="&#x192;" 
d="M-3 -155l45 113q12 -2 19 -2q27 0 39.5 12t20.5 32l143 350h-65l41 101h66l23 57q22 52 38 82t40.5 58t57 40t77.5 12q34 0 80 -7l-45 -110q-26 4 -43.5 0.5t-29.5 -17t-18 -25t-16 -36.5l-22 -54h72l-37 -101h-76l-154 -375q-12 -28 -18 -40.5t-21.5 -32t-34.5 -30.5
q-55 -32 -123 -32q-30 0 -59 5z" />
    <glyph glyph-name="Aringacute" unicode="&#x1fa;" horiz-adv-x="722" 
d="M549 887q44 0 66 -29.5t13 -72.5q-7 -35 -34 -62h9l98 -723h-156l-19 156h-286l-87 -156h-148l414 723h14q-14 27 -7 62q9 42 45 72t78 30zM305 273h207l-35 308zM743 1057l-168 -145h-80l114 145h134zM539 839q-22 0 -41 -15.5t-24 -38.5q-5 -22 7.5 -37.5t34.5 -15.5
q23 0 41.5 15.5t23.5 37.5t-7 38t-35 16z" />
    <glyph glyph-name="aringacute" unicode="&#x1fb;" 
d="M502 0h-134q3 42 10 69q-74 -81 -169 -81q-83 0 -117 40q-35 44 -20 111q8 41 40 84.5t100 72.5q68 28 206 28q9 45 7 67q-6 42 -57 42q-37 0 -62 -28q-15 -17 -20 -45h-145q18 79 82 119q66 41 162 41q123 0 166 -65q26 -42 8 -124l-42 -203q-15 -72 -15 -128zM400 238
q-72 6 -121.5 -16t-59.5 -66q-6 -28 8.5 -50t48.5 -22q38 0 69 29q23 22 33.5 49.5t21.5 75.5zM439 760q43 0 65 -29.5t14 -72.5q-8 -42 -43.5 -72t-78.5 -30q-41 0 -65.5 30t-14.5 72q8 42 44.5 72t78.5 30zM429 712q-22 0 -41 -15.5t-24 -38.5q-5 -22 7.5 -37.5
t34.5 -15.5q23 0 41.5 15.5t23.5 37.5t-7 38t-35 16zM607 930l-168 -145h-80l114 145h134z" />
    <glyph glyph-name="AEacute" unicode="&#x1fc;" horiz-adv-x="1000" 
d="M-8 0l553 721h547l-25 -117h-335l-11 -178h291l-25 -116h-275l-12 -190h274l-26 -120h-416l11 157h-272l-112 -157h-167zM357 271h196l24 314zM924 918l-168 -145h-80l114 145h134z" />
    <glyph glyph-name="aeacute" unicode="&#x1fd;" horiz-adv-x="889" 
d="M732 156h139q-21 -63 -65 -105q-69 -66 -182 -66q-133 0 -173 93q-30 -29 -53.5 -46t-70 -34t-99.5 -17q-95 0 -135.5 43.5t-24.5 114.5q20 102 118 145q33 15 83 22.5t79 8.5t89 2q31 117 -59 117q-31 0 -57 -16.5t-36 -54.5h-143q47 157 237 157q41 0 71.5 -8t49 -23.5
t26.5 -24.5t16 -23q82 79 195 79q125 0 166 -98q26 -63 -3 -191h-338q-14 -66 -4 -99q7 -26 28.5 -39t46.5 -13q66 0 99 76zM579 317h186q4 16 5 30t-1.5 36t-19 35.5t-46.5 13.5q-87 0 -124 -115zM418 231q-13 2 -43 2q-144 0 -163 -87q-7 -32 12.5 -51t50.5 -19
q25 0 53.5 13t47.5 40q23 32 42 102zM783 730l-168 -145h-80l114 145h134z" />
    <glyph glyph-name="Oslashacute" unicode="&#x1fe;" horiz-adv-x="778" 
d="M757 664l116 101l37 -47l-117 -104q49 -95 18 -249q-40 -187 -157 -285t-270 -98q-146 0 -221 79l-123 -108l-38 47l127 111q-46 90 -14 240q11 52 29.5 101t54 102.5t81 93t114 65t150.5 25.5q143 0 213 -74zM268 235l375 329q-35 66 -122 66q-49 0 -95 -24.5t-79 -71.5
q-46 -66 -68 -178q-17 -77 -11 -121zM661 499l-378 -333q32 -71 125 -71q183 0 242 278q16 75 11 126zM733 918l-168 -145h-80l114 145h134z" />
    <glyph glyph-name="oslashacute" unicode="&#x1ff;" horiz-adv-x="611" 
d="M656 547l34 -35l-92 -78q42 -72 18 -183q-25 -117 -106.5 -192t-209.5 -75q-114 0 -166 58l-92 -78l-33 34l98 86q-33 70 -13 163q26 124 111.5 196.5t205.5 72.5q99 0 155 -45zM239 195l225 190q-23 33 -72 33q-108 0 -144 -164q-7 -31 -9 -59zM476 330l-231 -195
q17 -50 75 -50q36 0 62.5 14.5t42.5 41.5t24.5 50.5t15.5 55.5q11 55 11 83zM611 730l-168 -145h-80l114 145h134z" />
    <glyph glyph-name="Scommaaccent" unicode="&#x218;" horiz-adv-x="667" 
d="M84 231h158q-4 -18 -5.5 -28.5t0.5 -34t11.5 -37t33.5 -25.5t62 -12q63 0 105.5 27.5t52.5 73.5q10 44 -15 61t-101 36q-131 35 -184.5 82.5t-34.5 136.5q20 97 105.5 160.5t227.5 63.5q151 0 200 -85q30 -52 13 -134h-149q13 110 -94 110q-54 0 -92 -27t-48 -71
q-5 -24 0.5 -40t24 -27t42.5 -19t63 -18q3 -1 5 -1q21 -5 35.5 -9t34 -10t33 -12l29.5 -13.5t26 -16.5l21 -19.5t17 -23.5t10 -28.5t3 -33.5t-5 -39q-21 -102 -117 -168.5t-241 -66.5q-57 0 -100 10.5t-68.5 25.5t-41 40t-21.5 44.5t-5.5 48.5t3 43zM266 -66h106l-112 -159
h-67z" />
    <glyph glyph-name="scommaaccent" unicode="&#x219;" horiz-adv-x="500" 
d="M60 146h139q-4 -28 11.5 -48.5t57.5 -20.5q38 0 62 18t29 42q4 19 -7.5 32.5t-50.5 24.5l-86 25q-22 7 -36 13.5t-35 21.5t-28.5 42t0.5 63q16 73 86 115.5t169 42.5q82 0 127.5 -38t32.5 -111h-135q5 37 -18 51q-15 9 -41 9q-31 0 -53.5 -13.5t-27.5 -36.5t8 -32.5
t50 -20.5l86 -25q126 -37 105 -141q-16 -71 -87 -122.5t-182 -51.5q-113 0 -160 62q-27 36 -16 99zM196 -66h106l-112 -159h-67z" />
    <glyph glyph-name="uni021A" unicode="&#x21a;" horiz-adv-x="611" 
d="M229 0l128 603h-215l26 120h586l-26 -120h-215l-128 -603h-156zM258 -66h106l-112 -159h-67z" />
    <glyph glyph-name="uni021B" unicode="&#x21b;" horiz-adv-x="389" 
d="M384 104l-21 -97q-62 -16 -118 -16q-42 0 -70 11t-39.5 24.5t-14.5 35.5t-1.5 34t5.5 31l59 277h-97l21 98h97l21 99l158 54l-32 -153h120l-21 -98h-120l-49 -228q-4 -23 -5 -40t12 -26t44 -9q24 0 51 3zM140 -66h106l-112 -159h-67z" />
    <glyph glyph-name="dotlessj" unicode="&#x237;" horiz-adv-x="278" 
d="M-43 -194l22 100q22 -1 39 7.5t25.5 24.5t12.5 28t7 26l109 515h148l-117 -552q-17 -76 -62.5 -114.5t-135.5 -38.5q-27 0 -48 4z" />
    <glyph glyph-name="circumflex" unicode="&#x2c6;" horiz-adv-x="278" 
d="M102 585l141 145h103l73 -145h-89l-50 85l-88 -85h-90z" />
    <glyph glyph-name="caron" unicode="&#x2c7;" horiz-adv-x="278" 
d="M366 730h93l-137 -145h-117l-73 145h94l50 -91z" />
    <glyph glyph-name="uni02C9" unicode="&#x2c9;" horiz-adv-x="278" 
d="M438 624h-342l15 68h342z" />
    <glyph glyph-name="breve" unicode="&#x2d8;" horiz-adv-x="278" 
d="M141 730h61q-3 -45 19 -62.5t53 -17.5q25 0 44.5 7.5t32.5 23t19 24.5t14 25h61q-17 -63 -66.5 -104t-119.5 -41q-81 0 -110 55q-18 31 -8 90z" />
    <glyph glyph-name="dotaccent" unicode="&#x2d9;" horiz-adv-x="278" 
d="M215 599l25 118h102l-25 -118h-102z" />
    <glyph glyph-name="ring" unicode="&#x2da;" horiz-adv-x="278" 
d="M300 760q43 0 65 -29.5t14 -72.5q-8 -42 -43.5 -72t-78.5 -30q-41 0 -65.5 30t-14.5 72q8 42 44.5 72t78.5 30zM290 712q-22 0 -41 -15.5t-24 -38.5q-5 -22 7.5 -37.5t34.5 -15.5q23 0 41.5 15.5t23.5 37.5t-7 38t-35 16z" />
    <glyph glyph-name="ogonek" unicode="&#x2db;" horiz-adv-x="278" 
d="M200 -147l-9 -44q-50 -26 -99 -26q-46 0 -66.5 21t-13.5 54q9 44 50 81.5t100 61.5h43q-30 -18 -45.5 -29t-31 -29.5t-19.5 -39.5t1 -35t16 -19t18 -6.5t13 -1.5q22 0 43 12z" />
    <glyph glyph-name="tilde" unicode="&#x2dc;" horiz-adv-x="278" 
d="M136 593h-52q20 56 59.5 89.5t84.5 33.5q26 0 48 -11l52 -22q18 -6 33 -6q37 0 57 46h51q-21 -62 -60 -93q-35 -29 -78 -29q-23 0 -50 11l-40 16q-28 10 -42 10q-38 0 -63 -45z" />
    <glyph glyph-name="hungarumlaut" unicode="&#x2dd;" 
d="M491 730l-169 -145h-80l115 145h134zM676 730l-169 -145h-80l115 145h134z" />
    <glyph glyph-name="uni0394" unicode="&#x394;" horiz-adv-x="698" 
d="M689 0h-680l418 710h128zM526 125l-72 417l-240 -417h312z" />
    <glyph glyph-name="uni03A9" unicode="&#x3a9;" horiz-adv-x="765" 
d="M710 0h-283l43 204q73 16 122 70q49 52 64 127q18 84 -25 140.5t-123 56.5q-82 0 -149 -56t-85 -142q-16 -74 10.5 -126t89.5 -70l-43 -204h-283l26 125h170l5 21q-78 28 -107 97q-29 68 -9 161q20 92 80 165t144 112.5t175 39.5q141 0 217.5 -87.5t46.5 -226.5
q-21 -97 -78 -166.5t-147 -94.5l-5 -21h170z" />
    <glyph glyph-name="uni03BC" unicode="&#x3bc;" horiz-adv-x="611" 
d="M24 -212l154 717h128l-52 -244q-9 -39 -11.5 -65t1.5 -50.5t21.5 -36t48.5 -11.5q34 0 58.5 14.5t39 41t21.5 49.5t13 55l53 247h129l-107 -505h-110l12 60q-17 -19 -28 -30t-39.5 -25t-60.5 -14q-29 0 -49.5 10t-27.5 18.5t-14 21.5l-54 -253h-126z" />
    <glyph glyph-name="pi" unicode="&#x3c0;" horiz-adv-x="593" 
d="M599 93l-17 -80q-48 -20 -99 -20q-114 0 -86 131l59 279h-173l-85 -403h-127l85 403h-60l22 102h566l-22 -102h-79l-56 -262q-7 -21 -3 -39.5t29 -18.5q22 0 46 10z" />
    <glyph glyph-name="uni0400" unicode="&#x400;" horiz-adv-x="611" 
d="M74 0l153 722h484l-25 -118h-329l-36 -171h308l-25 -118h-308l-41 -195h340l-26 -120h-495zM491 918l53 -145h-85l-108 145h140z" />
    <glyph glyph-name="afii10023" unicode="&#x401;" horiz-adv-x="611" 
d="M643 942l-25 -119h-102l25 119h102zM471 942l-25 -119h-102l25 119h102zM711 722l-25 -118h-329l-36 -171h308l-25 -118h-308l-41 -195h340l-26 -120h-495l153 722h484z" />
    <glyph glyph-name="afii10051" unicode="&#x402;" horiz-adv-x="809" 
d="M474 430q4 1 25 7.5t38 11t46.5 8.5t58.5 4q70 0 123.5 -43.5t53.5 -130.5q0 -137 -90.5 -241t-225.5 -104q-26 0 -54 5l26 122q26 -4 34 -4q70 0 108 59.5t38 133.5q0 81 -86 81q-46 0 -121 -33l-65 -306h-155l128 604h-215l25 118h585l-25 -118h-215z" />
    <glyph glyph-name="afii10052" unicode="&#x403;" horiz-adv-x="540" 
d="M224 0h-155l153 722h458l-25 -120h-303zM524 942h134l-167 -144h-80z" />
    <glyph glyph-name="afii10053" unicode="&#x404;" horiz-adv-x="667" 
d="M691 237q-22 -82 -59 -128q-100 -126 -272 -126q-127 0 -195 67t-68 189q0 90 30.5 178.5t84 160t135 115.5t175.5 44q104 0 164 -50.5t60 -135.5q0 -25 -6 -54h-158q2 20 2 28q0 99 -92 99q-64 0 -117 -54.5t-84 -148.5h225l-24 -115h-229q-5 -40 -5 -65
q0 -144 111 -144q57 0 100.5 38.5t58.5 101.5h163z" />
    <glyph glyph-name="afii10054" unicode="&#x405;" horiz-adv-x="667" 
d="M84 231h158q-7 -37 -7 -49q0 -88 110 -88q60 0 109.5 31t49.5 88q0 25 -18 42.5t-40 25.5t-50 15q-7 1 -10 2q-97 26 -146 53q-78 42 -78 126q0 67 29 118.5t77 81.5t104.5 45t118.5 15q106 0 167 -44t61 -122q0 -25 -6 -52v-3h-149q1 8 1 23q0 89 -95 89
q-55 0 -98.5 -32.5t-43.5 -85.5q0 -52 79 -72q137 -35 203 -73q64 -37 64 -112q0 -67 -32 -120.5t-84 -85t-112.5 -48t-122.5 -16.5q-46 0 -86.5 7.5t-79 24.5t-61 51.5t-22.5 81.5q0 35 10 83z" />
    <glyph glyph-name="afii10055" unicode="&#x406;" horiz-adv-x="278" 
d="M60 0l153 722h155l-153 -722h-155z" />
    <glyph glyph-name="afii10056" unicode="&#x407;" horiz-adv-x="278" 
d="M60 0l153 722h155l-153 -722h-155zM279 823h-102l25 119h102zM451 823h-102l25 119h102z" />
    <glyph glyph-name="afii10057" unicode="&#x408;" 
d="M58 224h152q-6 -31 -6 -55q0 -38 15.5 -55.5t49.5 -17.5q45 0 71 31t41 102l103 493h157l-95 -453q-11 -53 -20.5 -84t-33 -71t-58.5 -69q-43 -34 -87.5 -48t-111.5 -14q-185 0 -185 165q0 33 8 76z" />
    <glyph glyph-name="afii10058" unicode="&#x409;" horiz-adv-x="1069" 
d="M660 120h132q56 0 90 36.5t34 92.5q0 36 -22 55.5t-63 19.5h-128zM607 604h-164l-31 -147q-40 -190 -77.5 -281.5t-94.5 -142.5q-48 -43 -136 -43q-48 0 -75 11l26 119q13 -10 41 -10q26 0 45 17q34 31 59.5 107t68.5 281l44 207h474l-59 -278h143q46 0 81.5 -7.5
t65.5 -25t46 -50.5t16 -81q0 -97 -53.5 -170t-146.5 -97q-50 -13 -148 -13h-253z" />
    <glyph glyph-name="afii10059" unicode="&#x40a;" horiz-adv-x="1069" 
d="M916 249q0 36 -22 55.5t-63 19.5h-128l-43 -204h132q56 0 90 36.5t34 92.5zM880 13q-50 -13 -148 -13h-253l69 324h-255l-69 -324h-155l153 722h155l-59 -278h255l59 278h155l-59 -278h143q46 0 81.5 -7.5t65.5 -25t46 -50.5t16 -81q0 -97 -53.5 -170t-146.5 -97z" />
    <glyph glyph-name="afii10060" unicode="&#x40b;" horiz-adv-x="809" 
d="M383 0h-155l128 604h-215l25 118h585l-25 -118h-215l-34 -161q86 20 154 20q95 0 141 -39t46 -123q0 -43 -12 -98l-43 -203h-155l43 200q9 44 9 71q0 39 -19.5 55.5t-62.5 16.5q-46 0 -126 -20z" />
    <glyph glyph-name="afii10061" unicode="&#x40c;" horiz-adv-x="667" 
d="M584 942h134l-167 -144h-80zM67 0l153 722h155l-66 -313l302 313h187l-339 -334l209 -388h-180l-188 367l-78 -367h-155z" />
    <glyph glyph-name="uni040D" unicode="&#x40d;" horiz-adv-x="722" 
d="M234 0h-165l153 722h148l-108 -511h3l375 511h167l-153 -722h-148l109 513h-3zM541 918l53 -145h-85l-108 145h140z" />
    <glyph glyph-name="afii10062" unicode="&#x40e;" horiz-adv-x="722" 
d="M709 930q-19 -70 -65 -109t-114 -39q-59 0 -89.5 29t-30.5 83q0 16 3 36h69q0 -2 -0.5 -4t-0.5 -4q0 -64 65 -64q68 0 94 72h69zM164 722h164l98 -371l261 371h182l-395 -520l-147 -202h-184l175 213z" />
    <glyph glyph-name="afii10145" unicode="&#x40f;" horiz-adv-x="722" 
d="M289 0h-220l153 722h155l-127 -602h275l127 602h155l-153 -722h-210l-32 -151h-155z" />
    <glyph glyph-name="afii10017" unicode="&#x410;" horiz-adv-x="722" 
d="M519 273l-35 307l-172 -307h207zM419 722h184l98 -722h-149l-19 156h-286l-87 -156h-155z" />
    <glyph glyph-name="afii10018" unicode="&#x411;" horiz-adv-x="667" 
d="M249 120h121q72 0 109.5 29.5t37.5 99.5q0 34 -25 48.5t-82 14.5h-121zM315 432h171q94 0 145.5 -43t51.5 -120q0 -71 -26.5 -124.5t-73.5 -84.5t-105 -45.5t-127 -14.5h-283l153 722h484l-24 -117h-329z" />
    <glyph glyph-name="afii10019" unicode="&#x412;" horiz-adv-x="667" 
d="M241 116h105q39 0 66.5 4t54 16.5t40.5 38.5t14 66q0 26 -12 42.5t-37.5 23t-45 8t-54.5 1.5h-89zM307 428h108q147 0 147 118q0 39 -29 51.5t-82 12.5h-105zM68 0l153 722h270q86 0 136 -16q41 -13 64.5 -48.5t23.5 -82.5q0 -74 -43.5 -123.5t-118.5 -74.5v-2
q57 -10 88.5 -45.5t31.5 -88.5q0 -54 -27 -103.5t-72 -81.5q-44 -31 -96.5 -43.5t-139.5 -12.5h-270z" />
    <glyph glyph-name="afii10020" unicode="&#x413;" horiz-adv-x="540" 
d="M224 0h-155l153 722h458l-25 -120h-303z" />
    <glyph glyph-name="afii10021" unicode="&#x414;" horiz-adv-x="722" 
d="M506 120l103 485h-161l-15 -70q-23 -107 -68 -223t-104 -192h245zM674 -151h-155l32 151h-385l-32 -151h-155l58 271h51q89 111 133.5 231.5t77.5 281.5l18 89h471l-127 -602h71z" />
    <glyph glyph-name="afii10022" unicode="&#x415;" horiz-adv-x="611" 
d="M74 0l153 722h484l-25 -118h-329l-36 -171h308l-25 -118h-308l-41 -195h340l-26 -120h-495z" />
    <glyph glyph-name="afii10024" unicode="&#x416;" horiz-adv-x="1050" 
d="M1039 0h-181l-183 368h-2l-78 -368h-150l78 368h-2l-320 -368h-200l376 410l-200 312h169l184 -312h2l66 312h150l-66 -312h2l298 312h187l-337 -337z" />
    <glyph glyph-name="afii10025" unicode="&#x417;" horiz-adv-x="667" 
d="M356 429h49q40 0 61 7q38 12 64 45.5t26 73.5q0 33 -23.5 51.5t-65.5 18.5q-56 0 -89.5 -24t-52.5 -79h-149q33 107 114.5 161t198.5 54q103 0 166.5 -43.5t63.5 -118.5q0 -71 -49.5 -128.5t-120.5 -70.5l-1 -2q107 -27 107 -129q0 -84 -51 -145t-124 -88.5t-154 -27.5
q-42 0 -82.5 8.5t-78 27t-60 52t-22.5 78.5q0 22 9 69h158q-6 -26 -6 -40q0 -39 26 -60.5t74 -21.5q58 0 101 36.5t43 93.5q0 58 -46 79q-26 12 -67 12h-42z" />
    <glyph glyph-name="afii10026" unicode="&#x418;" horiz-adv-x="722" 
d="M234 0h-165l153 722h148l-108 -511h3l375 511h167l-153 -722h-148l109 513h-3z" />
    <glyph glyph-name="afii10027" unicode="&#x419;" horiz-adv-x="722" 
d="M234 0h-165l153 722h148l-108 -511h3l375 511h167l-153 -722h-148l109 513h-3zM711 940q-19 -70 -65 -109t-114 -39q-59 0 -89.5 29t-30.5 83q0 16 3 36h69v-8q0 -64 64 -64q68 0 94 72h69z" />
    <glyph glyph-name="afii10028" unicode="&#x41a;" horiz-adv-x="667" 
d="M67 0l153 722h155l-66 -313l302 313h187l-339 -334l209 -388h-180l-188 367l-78 -367h-155z" />
    <glyph glyph-name="afii10029" unicode="&#x41b;" horiz-adv-x="722" 
d="M654 0h-155l128 604h-184l-31 -147q-40 -190 -77 -282t-94 -142q-48 -43 -137 -43q-48 0 -75 11l26 119q13 -10 41 -10q26 0 45 17q34 31 59.5 107t68.5 281l44 207h494z" />
    <glyph glyph-name="afii10030" unicode="&#x41c;" horiz-adv-x="944" 
d="M60 0l153 722h244l42 -525l276 525h255l-153 -722h-154l132 619l-329 -619h-128l-61 619l-132 -619h-145z" />
    <glyph glyph-name="afii10031" unicode="&#x41d;" horiz-adv-x="722" 
d="M69 0l153 722h155l-61 -288h275l61 288h155l-153 -722h-155l67 315h-275l-67 -315h-155z" />
    <glyph glyph-name="afii10032" unicode="&#x41e;" horiz-adv-x="778" 
d="M268 252q0 -156 141 -156q63 0 114 36.5t80 93.5t44.5 119t15.5 121q0 161 -140 161q-64 0 -115.5 -36.5t-80.5 -94.5t-44 -121t-15 -123zM546 737q137 0 208 -72t71 -196q0 -127 -52.5 -237t-155.5 -179.5t-234 -69.5q-134 0 -206.5 69t-72.5 194q0 96 31 184
t86.5 156.5t140 109.5t184.5 41z" />
    <glyph glyph-name="afii10033" unicode="&#x41f;" horiz-adv-x="722" 
d="M224 0h-155l153 722h585l-153 -722h-155l128 604h-275z" />
    <glyph glyph-name="afii10034" unicode="&#x420;" horiz-adv-x="611" 
d="M302 397h62q170 0 170 140q0 40 -29 54t-80 14h-78zM65 0l153 722h223q42 0 72 -2t67.5 -11.5t60.5 -26t39.5 -47.5t16.5 -75q0 -61 -29.5 -122.5t-76.5 -99.5q-43 -35 -91.5 -45.5t-112.5 -10.5h-105l-60 -282h-157z" />
    <glyph glyph-name="afii10035" unicode="&#x421;" horiz-adv-x="667" 
d="M738 487h-158q1 10 1 28q0 49 -26 79t-71 30q-57 0 -103 -41t-72 -102.5t-39.5 -125t-13.5 -117.5q0 -141 113 -141q57 0 99.5 37t58.5 100h163q-21 -77 -59 -125q-98 -126 -272 -126q-128 0 -196 66t-68 187q0 73 17 144t52 135.5t84 114t118 78.5t148 29q103 0 166 -55
t63 -141q0 -30 -5 -54z" />
    <glyph glyph-name="afii10036" unicode="&#x422;" horiz-adv-x="611" 
d="M229 0l128 604h-215l25 118h586l-25 -118h-215l-128 -604h-156z" />
    <glyph glyph-name="afii10037" unicode="&#x423;" horiz-adv-x="722" 
d="M164 722h164l98 -371l261 371h182l-395 -520l-147 -202h-184l175 213z" />
    <glyph glyph-name="afii10038" unicode="&#x424;" horiz-adv-x="833" 
d="M385 197l76 356q-94 0 -141.5 -73.5t-47.5 -172.5q0 -110 113 -110zM723 446q0 107 -113 107l-76 -356q63 0 107.5 39t63 93.5t18.5 116.5zM511 90l-19 -90h-149l19 90q-115 0 -183 53t-68 156q0 161 104.5 261t267.5 100l13 62h149l-13 -62q118 0 185 -51.5t67 -153.5
q0 -161 -105 -263t-268 -102z" />
    <glyph glyph-name="afii10039" unicode="&#x425;" horiz-adv-x="722" 
d="M188 722h179l97 -246l201 246h177l-313 -353l170 -369h-178l-106 271l-224 -271h-178l334 382z" />
    <glyph glyph-name="afii10040" unicode="&#x426;" horiz-adv-x="744" 
d="M565 0h-496l153 722h155l-127 -602h275l127 602h155l-127 -602h66l-58 -271h-155z" />
    <glyph glyph-name="afii10041" unicode="&#x427;" horiz-adv-x="667" 
d="M509 307q-80 -18 -156 -18q-93 0 -138 40.5t-45 125.5q0 41 13 104l34 163h155l-36 -170q-9 -43 -9 -72q0 -39 19.5 -55t64.5 -16q63 0 123 15l63 298h155l-153 -722h-155z" />
    <glyph glyph-name="afii10042" unicode="&#x428;" horiz-adv-x="1075" 
d="M1006 0h-937l153 722h155l-127 -602h236l127 602h155l-127 -602h236l127 602h155z" />
    <glyph glyph-name="afii10043" unicode="&#x429;" horiz-adv-x="1096" 
d="M1040 -151h-155l32 151h-848l153 722h155l-127 -602h236l127 602h155l-127 -602h236l127 602h155l-127 -602h66z" />
    <glyph glyph-name="afii10044" unicode="&#x42a;" horiz-adv-x="767" 
d="M619 249q0 36 -22 55.5t-63 19.5h-128l-43 -204h132q56 0 90 36.5t34 92.5zM583 13q-50 -13 -148 -13h-253l128 604h-169l25 118h324l-59 -278h143q46 0 81.5 -7.5t65.5 -25t46 -50.5t16 -81q0 -97 -53.5 -170t-146.5 -97z" />
    <glyph glyph-name="afii10045" unicode="&#x42b;" horiz-adv-x="900" 
d="M246 120h132q56 0 90 36.5t34 92.5q0 36 -22 55.5t-63 19.5h-128zM314 444h143q46 0 81.5 -7.5t65.5 -25t46 -50.5t16 -81q0 -97 -53.5 -170t-146.5 -97q-50 -13 -148 -13h-253l153 722h155zM832 722h155l-153 -722h-155z" />
    <glyph glyph-name="afii10046" unicode="&#x42c;" horiz-adv-x="650" 
d="M246 120h132q56 0 90 36.5t34 92.5q0 36 -22 55.5t-63 19.5h-128zM314 444h143q46 0 81.5 -7.5t65.5 -25t46 -50.5t16 -81q0 -97 -53.5 -170t-146.5 -97q-50 -13 -148 -13h-253l153 722h155z" />
    <glyph glyph-name="afii10047" unicode="&#x42d;" horiz-adv-x="667" 
d="M325 -17q-62 0 -116 19.5t-91 63.5t-37 105q0 23 6 63h163q-3 -18 -3 -34q0 -48 27 -75.5t76 -27.5q67 0 117 54t78 155h-229l24 115h226q2 26 2 38q0 78 -29.5 121.5t-86.5 43.5q-104 0 -144 -127h-158q23 107 111.5 173.5t208.5 66.5q123 0 191.5 -75t68.5 -202
q0 -93 -26.5 -177.5t-76 -152t-128 -107.5t-174.5 -40z" />
    <glyph glyph-name="afii10048" unicode="&#x42e;" horiz-adv-x="1028" 
d="M911 466q0 161 -140 161q-64 0 -115.5 -36.5t-80.5 -94.5t-44 -121t-15 -123q0 -156 141 -156q63 0 114 36.5t80 93.5t44.5 119t15.5 121zM358 314h-67l-67 -314h-155l153 722h155l-61 -289h71q51 145 157 224.5t250 79.5q137 0 208 -69.5t71 -192.5q0 -95 -31.5 -183.5
t-87 -157t-140 -110t-183.5 -41.5q-135 0 -207 67.5t-72 191.5q0 34 6 72z" />
    <glyph glyph-name="afii10049" unicode="&#x42f;" horiz-adv-x="667" 
d="M530 410l41 194h-130q-57 0 -94 -32t-37 -81q0 -81 90 -81h130zM598 0h-155l62 293h-156q-55 0 -86 -99l-12 -39q-22 -68 -32 -95l-24 -60h-179l20 27q10 15 22.5 43.5t20 50l20 59l15.5 46.5q16 47 41 80q31 39 111 50v2q-55 15 -86 51.5t-31 90.5q0 75 44.5 127
t109 73.5t141.5 21.5h307z" />
    <glyph glyph-name="afii10065" unicode="&#x430;" 
d="M400 238q-24 2 -27 2q-36 0 -68.5 -8t-60 -32t-27.5 -61q0 -24 16 -39.5t43 -15.5q35 0 63 23.5t41 59.5q12 32 20 71zM502 0h-134q1 20 9 64l1 5q-42 -43 -79.5 -62t-90.5 -19q-65 0 -103 28t-38 83q0 50 25.5 95.5t67.5 73.5q37 25 86 38t83.5 15.5t88.5 2.5q7 40 7 52
q0 57 -57 57q-31 0 -53 -19.5t-29 -53.5h-145q42 160 243 160q182 0 182 -134q0 -20 -7 -55l-42 -203q-3 -14 -3.5 -18t-1.5 -13.5t-5 -31.5q-5 -28 -5 -56v-9z" />
    <glyph glyph-name="afii10066" unicode="&#x431;" horiz-adv-x="611" 
d="M479 321q0 92 -85 92q-53 0 -89.5 -41.5t-50 -92.5t-13.5 -103q0 -91 85 -91q52 0 88.5 41t50.5 92.5t14 102.5zM303 -15q-97 0 -153.5 52.5t-56.5 142.5q0 108 50.5 244t122.5 196q68 57 189 76q73 11 88 26h155q-40 -125 -179 -143q-10 -1 -41.5 -5t-42.5 -5.5t-37 -7
t-37.5 -11.5l-32 -17.5t-33 -26.5t-26.5 -36.5t-26 -48.5l3 -1q74 84 180 84q101 0 152.5 -46t51.5 -132q0 -142 -92.5 -241.5t-234.5 -99.5z" />
    <glyph glyph-name="afii10067" unicode="&#x432;" 
d="M224 96h117q29 0 49.5 22t20.5 52q0 44 -49 44h-113zM269 306h101q29 0 47 19t18 48q0 38 -38 38h-106zM469 263q38 -4 62 -29.5t24 -63.5q0 -80 -63 -125t-146 -45h-286l107 504h294q60 0 91.5 -28t31.5 -72q0 -48 -33.5 -88t-81.5 -51v-2z" />
    <glyph glyph-name="afii10068" unicode="&#x433;" horiz-adv-x="444" 
d="M516 400h-215l-85 -400h-150l107 504h365z" />
    <glyph glyph-name="afii10069" unicode="&#x434;" horiz-adv-x="611" 
d="M409 102l65 305h-105q-34 -134 -65 -201q-31 -68 -65 -104h170zM566 -141h-140l30 141h-305l-30 -141h-140l52 243h53q46 48 69 90q49 88 80 239l15 73h388l-85 -402h65z" />
    <glyph glyph-name="afii10070" unicode="&#x435;" 
d="M437 308q5 22 5 39q0 33 -17 53.5t-52 20.5q-43 0 -74 -29.5t-45 -83.5h183zM569 215h-339q-7 -32 -7 -53q0 -82 82 -82q69 0 102 70h135q-52 -167 -261 -167q-197 0 -197 175q0 142 88 252t228 110q89 0 138 -49t49 -138q0 -50 -18 -118z" />
    <glyph glyph-name="afii10072" unicode="&#x436;" horiz-adv-x="797" 
d="M797 0h-165l-106 251h-2l-53 -251h-144l53 251h-2l-198 -251h-179l243 277l-125 227h157l108 -227h2l48 227h144l-48 -227h2l190 227h171l-226 -250z" />
    <glyph glyph-name="afii10073" unicode="&#x437;" horiz-adv-x="500" 
d="M442 268q31 -7 49 -33t18 -58q0 -64 -40 -109.5t-95.5 -64.5t-117.5 -19q-34 0 -65.5 5.5t-63.5 18.5t-51.5 38.5t-19.5 61.5q0 20 6 46h137v-5q0 -34 15.5 -49t52.5 -15q38 0 63 19t25 55q0 52 -69 52h-42l21 100h46q34 0 61 16.5t27 48.5q0 40 -59 40q-64 0 -87 -60
h-135q21 84 85.5 122.5t173.5 38.5q80 0 124.5 -30.5t44.5 -86.5q0 -44 -31 -83t-73 -47v-2z" />
    <glyph glyph-name="afii10074" unicode="&#x438;" horiz-adv-x="611" 
d="M546 0h-141l73 343h-3l-239 -343h-170l107 504h141l-73 -345h2l240 345h170z" />
    <glyph glyph-name="afii10075" unicode="&#x439;" horiz-adv-x="611" 
d="M546 0h-141l73 343h-3l-239 -343h-170l107 504h141l-73 -345h2l240 345h170zM610 722q-18 -70 -64 -108.5t-114 -38.5q-60 0 -90.5 28.5t-30.5 82.5q0 16 3 36h69v-8q0 -63 65 -63q67 0 93 71h69z" />
    <glyph glyph-name="afii10076" unicode="&#x43a;" 
d="M324 504l-48 -227h2l190 227h173l-227 -248l131 -256h-167l-106 251h-2l-53 -251h-150l107 504h150z" />
    <glyph glyph-name="afii10077" unicode="&#x43b;" horiz-adv-x="600" 
d="M642 504l-107 -504h-150l86 403h-118l-16 -76q-40 -188 -99 -262.5t-160 -74.5q-24 0 -60 9l-4 1l22 104q8 -3 18 -3q52 0 82.5 58.5t67.5 234.5l23 110h415z" />
    <glyph glyph-name="afii10078" unicode="&#x43c;" horiz-adv-x="737" 
d="M600 346l-182 -346h-99l-34 347h-3l-75 -347h-142l107 504h202l25 -349h2l173 349h204l-107 -504h-142l74 346h-3z" />
    <glyph glyph-name="afii10079" unicode="&#x43d;" horiz-adv-x="611" 
d="M546 0h-150l45 211h-180l-45 -211h-150l107 504h150l-39 -183h180l39 183h150z" />
    <glyph glyph-name="afii10080" unicode="&#x43e;" horiz-adv-x="611" 
d="M238 177q0 -92 85 -92q52 0 89 42t51 93.5t14 103.5q0 94 -85 94q-52 0 -89 -42.5t-51 -94.5t-14 -104zM413 517q102 0 158 -51.5t56 -141.5q0 -142 -94.5 -242t-236.5 -100q-98 0 -153.5 54t-55.5 146q0 140 92 237.5t234 97.5z" />
    <glyph glyph-name="afii10081" unicode="&#x43f;" horiz-adv-x="611" 
d="M546 0h-150l85 400h-180l-85 -400h-150l107 504h480z" />
    <glyph glyph-name="afii10082" unicode="&#x440;" horiz-adv-x="611" 
d="M333 90q48 0 84.5 41.5t52 93t15.5 99.5q0 96 -76 96q-50 0 -88 -40.5t-55 -92.5t-17 -101q0 -96 84 -96zM167 504h144l-11 -71q65 82 171 82q80 0 123 -45.5t43 -127.5t-33.5 -161t-101 -133.5t-151.5 -54.5q-91 0 -128 65l-53 -251h-151z" />
    <glyph glyph-name="afii10083" unicode="&#x441;" horiz-adv-x="500" 
d="M546 326h-145q2 11 2 29q0 64 -47 64q-31 0 -56 -28t-39 -69.5t-21 -81.5t-7 -71q0 -83 51 -83q29 0 52.5 25.5t36.5 71.5h146q-21 -91 -88.5 -143.5t-164.5 -52.5q-95 0 -141 48.5t-46 133.5q0 88 35 166t105.5 129t160.5 51q80 0 125.5 -39.5t45.5 -106.5q0 -18 -5 -43
z" />
    <glyph glyph-name="afii10084" unicode="&#x442;" horiz-adv-x="500" 
d="M567 400h-155l-85 -400h-150l85 400h-155l22 104h460z" />
    <glyph glyph-name="afii10085" unicode="&#x443;" 
d="M208 -2l-87 506h151l38 -346l181 346h161l-296 -495l-104 -201h-155z" />
    <glyph glyph-name="afii10086" unicode="&#x444;" horiz-adv-x="804" 
d="M359 114l60 283q-15 23 -56 23q-31 0 -55.5 -28t-38.5 -69t-21 -81t-7 -70q0 -83 54 -83q39 0 64 25zM679 340q0 80 -53 80q-38 0 -66 -23l-60 -283q16 -25 54 -25q40 0 70 49t42.5 104.5t12.5 97.5zM563 -7q-55 0 -80 31l-46 -217h-145l46 217q-37 -31 -92 -31
q-70 0 -112 56.5t-42 137.5q0 71 30 145t90 128.5t134 54.5q25 0 52 -10.5t36 -26.5l52 244h147l-52 -244q15 16 46 26.5t56 10.5q71 0 108.5 -50t37.5 -123q0 -75 -31.5 -154t-95 -137t-139.5 -58z" />
    <glyph glyph-name="afii10087" unicode="&#x445;" 
d="M314 186l-140 -186h-165l230 274l-113 230h158l68 -165l129 165h165l-220 -249l117 -257l-161 2z" />
    <glyph glyph-name="afii10088" unicode="&#x446;" horiz-adv-x="625" 
d="M471 0h-405l107 504h150l-85 -402h180l85 402h150l-85 -402h65l-52 -243h-140z" />
    <glyph glyph-name="afii10089" unicode="&#x447;" 
d="M389 204q-64 -16 -122 -16q-71 0 -109 31.5t-38 90.5q0 22 6 47l31 147h150l-28 -132q-3 -16 -3 -29q0 -60 58 -60q30 0 74 9l45 212h150l-107 -504h-150z" />
    <glyph glyph-name="afii10090" unicode="&#x448;" horiz-adv-x="867" 
d="M66 0l107 504h150l-85 -402h143l85 402h150l-85 -402h143l85 402h150l-107 -504h-736z" />
    <glyph glyph-name="afii10091" unicode="&#x449;" horiz-adv-x="881" 
d="M66 0l107 504h150l-85 -402h143l85 402h150l-85 -402h143l85 402h150l-85 -402h65l-52 -243h-140l30 141h-661z" />
    <glyph glyph-name="afii10092" unicode="&#x44a;" horiz-adv-x="656" 
d="M505 184q0 43 -52 43h-89l-26 -125h94q33 0 53 24.5t20 57.5zM443 0h-277l85 400h-144l22 104h294l-37 -173h119q74 0 115.5 -34.5t41.5 -94.5q0 -91 -63 -146.5t-156 -55.5z" />
    <glyph glyph-name="afii10093" unicode="&#x44b;" horiz-adv-x="778" 
d="M385 184q0 43 -52 43h-79l-26 -125h84q33 0 53 24.5t20 57.5zM323 0h-267l107 504h150l-37 -173h109q74 0 115.5 -34.5t41.5 -94.5q0 -91 -63 -146.5t-156 -55.5zM714 0h-150l107 504h150z" />
    <glyph glyph-name="afii10094" unicode="&#x44c;" 
d="M405 184q0 43 -52 43h-89l-26 -125h94q33 0 53 24.5t20 57.5zM343 0h-277l107 504h150l-37 -173h119q74 0 115.5 -34.5t41.5 -94.5q0 -91 -63 -146.5t-156 -55.5z" />
    <glyph glyph-name="afii10095" unicode="&#x44d;" horiz-adv-x="500" 
d="M243 -13q-76 0 -128 36.5t-52 109.5q0 19 3 40h146q-2 -16 -2 -21q0 -31 13.5 -48.5t37.5 -17.5q65 0 102 126h-121l20 96h121q2 22 2 31q0 80 -54 80q-26 0 -48.5 -22t-34.5 -61h-145q17 78 86 128.5t154 50.5q93 0 143 -52t50 -137q0 -137 -79.5 -238t-213.5 -101z" />
    <glyph glyph-name="afii10096" unicode="&#x44e;" horiz-adv-x="811" 
d="M680 324q0 94 -85 94q-52 0 -89 -42.5t-51 -94.5t-14 -104q0 -92 85 -92q52 0 89 42t51 93.5t14 103.5zM292 216h-40l-46 -216h-150l107 504h150l-40 -188h46q41 98 118 149.5t179 51.5t158 -51.5t56 -141.5q0 -142 -94.5 -242t-236.5 -100q-99 0 -154 51.5t-55 142.5
q0 26 2 40z" />
    <glyph glyph-name="afii10097" unicode="&#x44f;" 
d="M411 282l27 125h-94q-36 0 -58.5 -20.5t-22.5 -55.5q0 -49 59 -49h89zM498 0h-147l39 184h-94q-25 0 -38 -12t-32 -68q-7 -23 -41 -104h-166l19 34q23 45 52 125q8 23 33.5 45.5t45.5 27.5q-53 35 -53 90q0 77 60 129.5t138 52.5h291z" />
    <glyph glyph-name="uni0450" unicode="&#x450;" 
d="M437 308q5 22 5 39q0 33 -17 53.5t-52 20.5q-43 0 -74 -29.5t-45 -83.5h183zM569 215h-339q-7 -32 -7 -53q0 -82 82 -82q69 0 102 70h135q-52 -167 -261 -167q-197 0 -197 175q0 142 88 252t228 110q89 0 138 -49t49 -138q0 -50 -18 -118zM461 730l53 -145h-85l-108 145
h140z" />
    <glyph glyph-name="afii10071" unicode="&#x451;" 
d="M371 603h-102l25 119h102zM543 603h-102l25 119h102zM437 308q5 22 5 39q0 33 -17 53.5t-52 20.5q-43 0 -74 -29.5t-45 -83.5h183zM569 215h-339q-7 -32 -7 -53q0 -82 82 -82q69 0 102 70h135q-52 -167 -261 -167q-197 0 -197 175q0 142 88 252t228 110q89 0 138 -49
t49 -138q0 -50 -18 -118z" />
    <glyph glyph-name="afii10099" unicode="&#x452;" horiz-adv-x="611" 
d="M564 53q-56 -252 -264 -252q-22 0 -40 3l19 94q50 0 84.5 39.5t50.5 113.5l15 71q5 25 5 42q0 73 -67 73q-41 0 -74.5 -32t-43.5 -83l-25 -122h-150l87 404h-59l21 100h59l45 218h149l-45 -218h198l-21 -100h-198l-32 -141l2 -2q72 76 164 76q63 0 105.5 -34t42.5 -93
q0 -31 -7 -63z" />
    <glyph glyph-name="afii10100" unicode="&#x453;" horiz-adv-x="449" 
d="M516 400h-215l-85 -400h-150l107 504h365zM405 722h134l-167 -144h-80z" />
    <glyph glyph-name="afii10101" unicode="&#x454;" horiz-adv-x="500" 
d="M516 173q-25 -89 -91.5 -137.5t-159.5 -48.5q-95 0 -141 48.5t-46 133.5q0 88 35 166t105.5 129t160.5 51q76 0 124 -39.5t48 -103.5q0 -20 -4 -36h-145q2 14 2 20q0 30 -13.5 46.5t-35.5 16.5q-64 0 -99 -111h120l-20 -96h-121q-3 -39 -3 -44q0 -82 51 -82q28 0 52 23.5
t35 63.5h146z" />
    <glyph glyph-name="afii10102" unicode="&#x455;" horiz-adv-x="500" 
d="M60 146h139q-1 -5 -1 -13q0 -26 18.5 -41t51.5 -15t62.5 19t29.5 50q0 13 -10 23t-17.5 13t-26.5 10q-3 1 -5 2l-86 30q-49 17 -75.5 41.5t-26.5 65.5q0 64 39.5 107.5t93 61t115.5 17.5q79 0 126 -32.5t47 -88.5q0 -13 -3 -28h-135q1 4 1 12q0 48 -60 48
q-31 0 -56.5 -15.5t-25.5 -44.5q0 -7 3 -13t6.5 -9.5t11 -7t12 -5l14 -4.5l12.5 -4l86 -28q108 -35 108 -111q0 -65 -43.5 -112.5t-102 -68t-120.5 -20.5q-70 0 -127.5 29.5t-57.5 91.5q0 23 3 40z" />
    <glyph glyph-name="afii10103" unicode="&#x456;" horiz-adv-x="278" 
d="M65 0l107 504h148l-107 -504h-148zM186 592l27 130h158l-27 -130h-158z" />
    <glyph glyph-name="afii10104" unicode="&#x457;" horiz-adv-x="278" 
d="M65 0l107 504h148l-107 -504h-148zM232 603h-102l25 119h102zM404 603h-102l25 119h102z" />
    <glyph glyph-name="afii10105" unicode="&#x458;" horiz-adv-x="278" 
d="M186 592l27 130h158l-27 -130h-158zM-43 -194l21 100h6q61 0 79 86l109 512h148l-117 -549q-17 -80 -64.5 -116.5t-132.5 -36.5q-25 0 -49 4z" />
    <glyph glyph-name="afii10106" unicode="&#x459;" horiz-adv-x="853" 
d="M695 184q0 43 -52 43h-69l-26 -125h74q33 0 53 24.5t20 57.5zM633 0h-257l86 403h-107l-16 -76q-41 -194 -99.5 -265.5t-161.5 -71.5q-24 0 -60 9l-4 1l22 104q8 -3 18 -3q51 0 82.5 62.5t68.5 240.5l21 100h407l-37 -173h99q74 0 115.5 -34.5t41.5 -94.5
q0 -91 -63 -146.5t-156 -55.5z" />
    <glyph glyph-name="afii10107" unicode="&#x45a;" horiz-adv-x="853" 
d="M695 184q0 43 -52 43h-69l-26 -125h74q33 0 53 24.5t20 57.5zM424 227h-160l-48 -227h-150l107 504h150l-37 -173h160l37 173h150l-37 -173h99q74 0 115.5 -34.5t41.5 -94.5q0 -91 -63 -146.5t-156 -55.5h-257z" />
    <glyph glyph-name="afii10108" unicode="&#x45b;" horiz-adv-x="611" 
d="M93 404l21 100h59l46 218h149l-46 -218h208l-21 -100h-208l-30 -141l2 -2q72 76 164 76q64 0 106 -33t42 -94q0 -31 -7 -63l-32 -147h-150l26 122q5 25 5 42q0 73 -67 73q-41 0 -74 -32t-44 -83l-26 -122h-150l86 404h-59z" />
    <glyph glyph-name="afii10109" unicode="&#x45c;" 
d="M445 722h134l-167 -144h-80zM324 504l-48 -227h2l190 227h173l-227 -248l131 -256h-167l-106 251h-2l-53 -251h-150l107 504h150z" />
    <glyph glyph-name="uni045D" unicode="&#x45d;" horiz-adv-x="611" 
d="M546 0h-141l73 343h-3l-239 -343h-170l107 504h141l-73 -345h2l240 345h170zM488 730l53 -145h-85l-108 145h140z" />
    <glyph glyph-name="afii10110" unicode="&#x45e;" 
d="M590 722q-18 -70 -64 -108.5t-114 -38.5q-60 0 -90.5 28.5t-30.5 82.5q0 16 3 36h69v-8q0 -63 65 -63q67 0 93 71h69zM208 -2l-87 506h151l38 -346l181 346h161l-296 -495l-104 -201h-155z" />
    <glyph glyph-name="afii10193" unicode="&#x45f;" horiz-adv-x="611" 
d="M231 0h-165l107 504h150l-85 -402h180l85 402h150l-107 -504h-165l-30 -141h-150z" />
    <glyph glyph-name="afii10146" unicode="&#x462;" horiz-adv-x="735" 
d="M380 432h171q111 0 162.5 -58.5t29.5 -161.5q-46 -212 -326 -212h-283l108 509h-134l25 120h134l20 93h155l-20 -93h287l-25 -120h-287zM314 120h121q69 0 100.5 21.5t43.5 76.5q11 52 -12 73t-91 21h-121z" />
    <glyph glyph-name="afii10194" unicode="&#x463;" horiz-adv-x="587" 
d="M530 404h-198l-15 -73h119q86 0 127 -46t25 -123q-17 -77 -73 -119.5t-141 -42.5h-277l85 404h-96l21 98h96l47 220h150l-47 -220h198zM434 165q12 62 -50 62h-89l-27 -125h94q57 0 72 63z" />
    <glyph glyph-name="afii10147" unicode="&#x472;" horiz-adv-x="778" 
d="M116 351q39 182 152 284t277 102q166 0 234.5 -100.5t33.5 -268.5q-37 -173 -148.5 -279t-281.5 -106q-163 0 -233.5 97t-33.5 271zM409 97q159 0 224 208h-363q-24 -208 139 -208zM523 627q-160 0 -226 -202h363q9 88 -21.5 145t-115.5 57z" />
    <glyph glyph-name="afii10195" unicode="&#x473;" horiz-adv-x="611" 
d="M94 248q27 123 112 196.5t207 73.5q121 0 176 -71.5t29 -193.5q-26 -123 -113 -196.5t-209 -73.5q-118 0 -172.5 72t-29.5 193zM392 419q-94 0 -133 -121h216q13 121 -83 121zM323 86q90 0 129 114h-213q-10 -114 84 -114z" />
    <glyph glyph-name="afii10148" unicode="&#x474;" horiz-adv-x="753" 
d="M165 720h169l68 -567l185 363q56 110 123.5 162t166.5 52h21l-27 -126l-18 -1q-51 -4 -77 -29t-69 -103l-260 -471h-169z" />
    <glyph glyph-name="afii10196" unicode="&#x475;" horiz-adv-x="574" 
d="M114 505h158l41 -343l104 217q36 75 94 108t146 33h11l-24 -114h-10q-64 0 -98 -64l-180 -342h-164z" />
    <glyph glyph-name="afii10050" unicode="&#x490;" horiz-adv-x="540" 
d="M704 835l-49 -231h-303l-128 -604h-155l153 722h303l24 113h155z" />
    <glyph glyph-name="afii10098" unicode="&#x491;" horiz-adv-x="444" 
d="M560 607l-46 -215h-215l-83 -392h-150l107 504h215l22 103h150z" />
    <glyph glyph-name="Wgrave" unicode="&#x1e80;" horiz-adv-x="1000" 
d="M168 720h160l-3 -541l256 541h175l12 -541l232 541h148l-337 -722h-172l-14 552l-258 -552h-176zM673 918l53 -145h-85l-108 145h140z" />
    <glyph glyph-name="wgrave" unicode="&#x1e81;" horiz-adv-x="889" 
d="M112 505h157l12 -381l188 381h163l25 -381l180 381h147l-280 -505h-161l-25 374l-185 -374h-163zM559 730l53 -145h-85l-108 145h140z" />
    <glyph glyph-name="Wacute" unicode="&#x1e82;" horiz-adv-x="1000" 
d="M168 720h160l-3 -541l256 541h175l12 -541l232 541h148l-337 -722h-172l-14 552l-258 -552h-176zM893 918l-168 -145h-80l114 145h134z" />
    <glyph glyph-name="wacute" unicode="&#x1e83;" horiz-adv-x="889" 
d="M112 505h157l12 -381l188 381h163l25 -381l180 381h147l-280 -505h-161l-25 374l-185 -374h-163zM778 730l-168 -145h-80l114 145h134z" />
    <glyph glyph-name="Wdieresis" unicode="&#x1e84;" horiz-adv-x="1000" 
d="M168 720h160l-3 -541l256 541h175l12 -541l232 541h148l-337 -722h-172l-14 552l-258 -552h-176zM720 787l25 118h102l-25 -118h-102zM548 787l25 118h102l-25 -118h-102z" />
    <glyph glyph-name="wdieresis" unicode="&#x1e85;" horiz-adv-x="889" 
d="M112 505h157l12 -381l188 381h163l25 -381l180 381h147l-280 -505h-161l-25 374l-185 -374h-163zM606 599l25 118h102l-25 -118h-102zM434 599l25 118h102l-25 -118h-102z" />
    <glyph glyph-name="Ygrave" unicode="&#x1ef2;" horiz-adv-x="667" 
d="M169 720h181l79 -329l222 329h159l-341 -457l-56 -263h-153l56 265zM506 918l53 -145h-85l-108 145h140z" />
    <glyph glyph-name="ygrave" unicode="&#x1ef3;" 
d="M121 505h160l37 -350l187 350h147l-296 -496l-104 -201h-149l105 190zM415 730l53 -145h-85l-108 145h140z" />
    <glyph glyph-name="uni2010" unicode="&#x2010;" horiz-adv-x="333" 
d="M88 208l24 113h248l-24 -113h-248z" />
    <glyph glyph-name="endash" unicode="&#x2013;" horiz-adv-x="500" 
d="M45 213l21 97h500l-21 -97h-500z" />
    <glyph glyph-name="emdash" unicode="&#x2014;" horiz-adv-x="1000" 
d="M175 213l21 97h740l-21 -97h-740z" />
    <glyph glyph-name="quoteleft" unicode="&#x2018;" horiz-adv-x="278" 
d="M393 722l-123 -247h-146l164 247h105z" />
    <glyph glyph-name="quoteright" unicode="&#x2019;" horiz-adv-x="278" 
d="M140 475l123 247h146l-164 -247h-105z" />
    <glyph glyph-name="quotesinglbase" unicode="&#x201a;" horiz-adv-x="278" 
d="M130 133h148l-171 -246h-103z" />
    <glyph glyph-name="quotedblleft" unicode="&#x201c;" 
d="M433 722l-123 -247h-145l164 247h104zM629 722l-123 -247h-146l164 247h105z" />
    <glyph glyph-name="quotedblright" unicode="&#x201d;" 
d="M168 475l123 247h146l-165 -247h-104zM364 475l122 247h146l-164 -247h-104z" />
    <glyph glyph-name="quotedblbase" unicode="&#x201e;" 
d="M147 -113h-103l123 246h143zM346 -113h-103l123 246h143z" />
    <glyph glyph-name="dagger" unicode="&#x2020;" 
d="M313 465h-161l21 100h161l33 157h122l-33 -157h157l-21 -100h-157l-99 -465h-122z" />
    <glyph glyph-name="daggerdbl" unicode="&#x2021;" 
d="M458 572h159l-21 -97h-159l-48 -225h159l-20 -97h-159l-33 -153h-122l33 153h-158l20 97h158l48 225h-161l21 97h161l31 150h122z" />
    <glyph glyph-name="bullet" unicode="&#x2022;" horiz-adv-x="350" 
d="M174 542q75 0 128 -52.5t54 -127.5q0 -75 -53.5 -128t-128.5 -53t-127 53t-52 128q-1 75 51.5 127.5t127.5 52.5z" />
    <glyph glyph-name="ellipsis" unicode="&#x2026;" horiz-adv-x="1000" 
d="M117 0l28 133h127l-28 -133h-127zM437 0l28 133h127l-28 -133h-127zM757 0l28 133h127l-28 -133h-127z" />
    <glyph glyph-name="perthousand" unicode="&#x2030;" horiz-adv-x="1000" 
d="M580 335q143 0 108 -160q-5 -25 -10.5 -43t-19 -47t-31.5 -47.5t-48.5 -32.5t-69.5 -14q-142 0 -105 170q38 174 176 174zM525 68q24 0 38.5 22t25.5 75q5 23 6.5 37.5t0.5 28.5t-8 21t-20 7q-27 0 -40 -24.5t-25 -77.5q-10 -41 -6.5 -65t28.5 -24zM916 335
q144 0 109 -160q-5 -25 -10.5 -43t-19 -47t-31.5 -47.5t-48.5 -32.5t-69.5 -14q-143 0 -106 170q38 174 176 174zM862 68q24 0 37.5 22t25.5 75q11 40 7.5 67t-28.5 27q-27 0 -40 -25t-25 -77q-10 -41 -6 -65t29 -24zM300 719q142 0 108 -159q-5 -26 -10 -43.5t-19 -47
t-31.5 -48t-48 -32.5t-69.5 -14q-142 0 -106 171q37 173 176 173zM246 452q24 0 37.5 22t25.5 75q11 40 7.5 67.5t-28.5 27.5q-27 0 -40.5 -26t-24.5 -77q-10 -40 -6 -64.5t29 -24.5zM148 -16h-75l585 743h73z" />
    <glyph glyph-name="guilsinglleft" unicode="&#x2039;" horiz-adv-x="278" 
d="M138 56l-67 196l149 190h132l-135 -190l53 -196h-132z" />
    <glyph glyph-name="guilsinglright" unicode="&#x203a;" horiz-adv-x="278" 
d="M104 442h132l67 -197l-149 -189h-132l135 189z" />
    <glyph glyph-name="interrobang" unicode="&#x203d;" horiz-adv-x="520" 
d="M290 162h-114l68 376h124l-48 -156q50 49 77.5 84t35.5 71q5 9 2 25.5t-10 33t-36 28.5t-75 12q-51 0 -138 -24l22 104q82 20 173 20q109 0 174 -46.5t46 -131.5q-12 -56 -49 -96.5t-126 -109.5q-65 -51 -86.5 -78.5t-28.5 -57.5zM139 0l25 120h120l-25 -120h-120z" />
    <glyph glyph-name="fraction" unicode="&#x2044;" horiz-adv-x="167" 
d="M-172 -28l576 753h82l-576 -753h-82z" />
    <glyph glyph-name="zero.superior" unicode="&#x2070;" horiz-adv-x="360" 
d="M121 493q47 217 208 217q87 0 113 -61t6 -155q-20 -95 -72 -155.5t-140 -60.5q-160 0 -115 215zM349 496q30 144 -34 144q-63 0 -93 -145q-31 -146 32 -146t95 147z" />
    <glyph glyph-name="four.superior" unicode="&#x2074;" horiz-adv-x="360" 
d="M282 376h-190l18 81l238 247h100l-55 -259h47l-15 -69h-47l-19 -91h-96zM336 600l-158 -157h123l23 111z" />
    <glyph glyph-name="five.superior" unicode="&#x2075;" horiz-adv-x="360" 
d="M101 388h96q-3 -13 6.5 -30t36.5 -17q29 0 50.5 20t30.5 59q6 32 -4 53.5t-38 21.5q-45 0 -66 -42l-95 2l63 248h272l-15 -68h-185l-27 -107q40 33 89 33q60 0 89 -36t16 -97q-13 -60 -63.5 -106t-128.5 -46q-64 0 -100.5 28t-26.5 84z" />
    <glyph glyph-name="six.superior" unicode="&#x2076;" horiz-adv-x="360" 
d="M455 600h-97q5 41 -37 41q-64 0 -91 -117q40 33 92 33q59 0 90.5 -33.5t17.5 -98.5q-15 -67 -68 -107.5t-131 -40.5q-156 0 -115 190q10 50 25.5 89t41 76t66.5 57t94 20q57 0 87.5 -27t24.5 -82zM251 344q27 0 49.5 18t31.5 57q6 33 -7.5 52.5t-38.5 19.5
q-27 0 -49.5 -19t-30.5 -55q-8 -37 5 -55t40 -18z" />
    <glyph glyph-name="seven.superior" unicode="&#x2077;" horiz-adv-x="360" 
d="M151 634l15 69h306l-16 -74l-231 -344h-108l241 349h-207z" />
    <glyph glyph-name="eight.superior" unicode="&#x2078;" horiz-adv-x="360" 
d="M216 505q-79 20 -64 89q10 45 57.5 81t123.5 36q69 0 104 -31.5t25 -81.5q-8 -37 -38.5 -62t-67.5 -30q84 -22 68 -106q-12 -56 -65 -89t-125 -33q-70 0 -105.5 35t-23.5 87q15 76 111 105zM295 539q24 0 44.5 14.5t26.5 39.5q5 24 -10 38t-38 14q-24 0 -44 -14.5
t-24 -37.5q-5 -23 7.5 -38.5t37.5 -15.5zM253 343q24 0 46.5 15.5t29.5 47.5q6 27 -9 44t-41 17t-48.5 -18t-27.5 -44q-7 -30 9 -46t41 -16z" />
    <glyph glyph-name="nine.superior" unicode="&#x2079;" horiz-adv-x="360" 
d="M107 387h98q-2 -19 8 -30t29 -11q43 0 64 32.5t32 87.5q-34 -26 -86 -26q-38 0 -64.5 13.5t-36 33.5t-13 42.5t2.5 41.5q12 60 62.5 99t124.5 39q159 0 116 -204q-27 -126 -82 -177t-140 -51q-15 0 -26.5 1t-33 6.5t-34.5 16.5t-20.5 33t-0.5 53zM283 509q31 0 50.5 21
t24.5 47q6 29 -5.5 46.5t-39.5 17.5q-31 0 -49.5 -19.5t-24.5 -46.5q0 -9 -1.5 -23.5t10 -28.5t35.5 -14z" />
    <glyph glyph-name="plus.superior" unicode="&#x207a;" horiz-adv-x="360" 
d="M134 285v121h-115v78h115v121h88v-121h116v-78h-116v-121h-88z" />
    <glyph glyph-name="minus.superior" unicode="&#x207b;" horiz-adv-x="360" 
d="M19 406v78h319v-78h-319z" />
    <glyph glyph-name="equal.superior" unicode="&#x207c;" horiz-adv-x="360" 
d="M19 476v77h319v-77h-319zM19 337v77h319v-77h-319z" />
    <glyph glyph-name="parenleft.superior" unicode="&#x207d;" horiz-adv-x="230" 
d="M288 739h66q-91 -104 -125 -264q-15 -55 -13 -116.5t26 -147.5h-68q-61 111 -29 261q31 149 143 267z" />
    <glyph glyph-name="parenright.superior" unicode="&#x207e;" horiz-adv-x="230" 
d="M143 211h-66q92 107 124 264q15 55 13.5 116t-25.5 148h68q61 -111 29 -261q-31 -149 -143 -267z" />
    <glyph glyph-name="n.superior" unicode="&#x207f;" horiz-adv-x="360" 
d="M94 285l53 249l2 10q2 9 4.5 22.5t3.5 22.5h94l-7 -43q34 50 99 50q66 0 82 -55q8 -23 -6 -92l-35 -164h-90l38 179q7 34 -1 51q-9 17 -32 17q-28 0 -48 -23q-15 -16 -23 -55l-36 -169h-98z" />
    <glyph glyph-name="zero.inferior" unicode="&#x2080;" horiz-adv-x="360" 
d="M61 209q47 217 208 217q60 0 92 -31.5t34 -79.5t-8 -105q-20 -95 -72 -155.5t-140 -60.5q-160 0 -114 215zM289 212q30 144 -35 144q-37 0 -57.5 -39t-35.5 -106q-31 -146 32 -146q64 0 96 147z" />
    <glyph glyph-name="one.inferior" unicode="&#x2081;" horiz-adv-x="360" 
d="M114 268l18 84q65 23 134 63h84l-89 -419h-98l69 326q-63 -36 -118 -54z" />
    <glyph glyph-name="two.inferior" unicode="&#x2082;" horiz-adv-x="360" 
d="M179 300h-99q12 51 43 78q49 46 141 46q70 0 104 -31.5t23 -82.5q-7 -36 -31 -64.5t-90 -79.5q-59 -46 -145 -101q195 4 218 4l-14 -69h-318l17 84l138 99q62 43 100 81q23 24 27 46q5 22 -7 36.5t-35 14.5q-55 0 -72 -61z" />
    <glyph glyph-name="three.inferior" unicode="&#x2083;" horiz-adv-x="360" 
d="M35 110h99q-9 -56 47 -56q23 0 43.5 14t26.5 43q4 18 -1 30.5t-12.5 18.5t-24.5 9t-28 3.5t-32 0.5l15 70q23 0 39.5 2t36 8t32.5 19t17 33q5 24 -8.5 37t-37.5 13q-25 0 -43 -14.5t-23 -37.5h-99q12 45 41 71q50 46 138 46q72 0 104 -35t23 -79q-15 -71 -108 -95
q86 -25 70 -100q-11 -54 -65.5 -89t-124.5 -35q-89 0 -115 42q-21 31 -10 81z" />
    <glyph glyph-name="four.inferior" unicode="&#x2084;" horiz-adv-x="360" 
d="M222 92h-190l17 81l239 247h100l-55 -259h47l-15 -69h-47l-19 -91h-96zM276 316l-159 -157h123l24 111q6 29 12 46z" />
    <glyph glyph-name="five.inferior" unicode="&#x2085;" horiz-adv-x="360" 
d="M41 104h96q-3 -13 6.5 -30t36.5 -17q29 0 50.5 20t29.5 59q7 32 -3 53.5t-39 21.5q-45 0 -66 -42l-94 2l63 248h272l-15 -68h-185l-28 -107q42 33 89 33q60 0 89.5 -36t16.5 -97q-13 -60 -63.5 -106t-128.5 -46q-64 0 -100.5 28t-26.5 84z" />
    <glyph glyph-name="six.inferior" unicode="&#x2086;" horiz-adv-x="360" 
d="M395 316h-97q5 41 -38 41q-28 0 -48.5 -22.5t-27.5 -43t-14 -51.5q38 33 92 33q59 0 90 -33.5t17 -98.5q-14 -66 -67 -107t-131 -41q-154 0 -116 190q11 50 26.5 89t41 76t66.5 57t94 20q57 0 87.5 -27t24.5 -82zM190 60q27 0 50 18t31 57q7 33 -7 52.5t-39 19.5
q-26 0 -48.5 -18.5t-30.5 -55.5t4.5 -55t39.5 -18z" />
    <glyph glyph-name="seven.inferior" unicode="&#x2087;" horiz-adv-x="360" 
d="M91 350l15 69h306l-16 -74l-231 -344h-108l241 349h-207z" />
    <glyph glyph-name="eight.inferior" unicode="&#x2088;" horiz-adv-x="360" 
d="M155 221q-78 20 -64 89q10 45 57.5 81t123.5 36q69 0 104.5 -32t24.5 -81q-8 -37 -38 -62t-67 -30q85 -22 67 -106q-12 -56 -65 -89t-125 -33q-69 0 -104.5 35t-24.5 87q17 76 111 105zM235 255q24 0 44.5 14.5t25.5 39.5q5 24 -10 38t-38 14q-24 0 -43.5 -14.5
t-24.5 -37.5t8 -38.5t38 -15.5zM193 59q23 0 45.5 15.5t29.5 47.5q6 27 -9 44t-41 17t-48 -18t-28 -44q-6 -30 10 -46t41 -16z" />
    <glyph glyph-name="nine.inferior" unicode="&#x2089;" horiz-adv-x="360" 
d="M46 103h98q-2 -19 8.5 -30t29.5 -11q43 0 64 33t31 87q-33 -26 -85 -26q-38 0 -64.5 13.5t-36 33.5t-13 42.5t2.5 41.5q12 60 62.5 99t124.5 39q42 0 69.5 -15.5t39 -36.5t14.5 -51.5t0.5 -53t-8.5 -47.5q-26 -126 -81 -177t-140 -51q-15 0 -27 1t-33.5 6.5t-34.5 16.5
t-20.5 33t-0.5 53zM222 225q31 0 51 21t25 47q6 28 -6 46t-40 18q-31 0 -49.5 -19.5t-24.5 -46.5q0 -9 -1.5 -23.5t10 -28.5t35.5 -14z" />
    <glyph glyph-name="plus.inferior" unicode="&#x208a;" horiz-adv-x="360" 
d="M134 1v121h-115v78h115v121h88v-121h116v-78h-116v-121h-88z" />
    <glyph glyph-name="minus.inferior" unicode="&#x208b;" horiz-adv-x="360" 
d="M19 122v78h319v-78h-319z" />
    <glyph glyph-name="equal.inferior" unicode="&#x208c;" horiz-adv-x="360" 
d="M19 192v77h319v-77h-319zM19 53v77h319v-77h-319z" />
    <glyph glyph-name="parenleft.inferior" unicode="&#x208d;" horiz-adv-x="230" 
d="M227 455h66q-90 -104 -124 -264q-15 -55 -13 -116.5t26 -147.5h-68q-61 112 -30 261q33 150 143 267z" />
    <glyph glyph-name="parenright.inferior" unicode="&#x208e;" horiz-adv-x="230" 
d="M83 -73h-66q90 104 124 264q15 55 13 116.5t-26 147.5h68q61 -112 30 -261q-33 -150 -143 -267z" />
    <glyph glyph-name="Euro" unicode="&#x20ac;" 
d="M95 321h46l5 25q9 36 12 45h-60l33 66h47q37 109 127 178t204 69q126 0 176 -48l-65 -124q-38 56 -127 56q-124 0 -171 -131h265l-33 -66h-252q-7 -21 -13 -45l-5 -25h239l-32 -66h-217q-7 -70 20.5 -111.5t86.5 -41.5q86 0 152 48l-26 -123q-62 -42 -165 -42
q-120 0 -173 71.5t-37 198.5h-69z" />
    <glyph glyph-name="afii61248" unicode="&#x2105;" horiz-adv-x="889" 
d="M548 182q5 24 9.5 40.5t20.5 48t36 51.5t57.5 36t84.5 16q40 0 67.5 -10.5t41.5 -26.5t19.5 -41t4 -49t-8.5 -55q-5 -25 -9.5 -41.5t-21 -50t-37 -54.5t-59 -38t-86.5 -17q-84 0 -111 51.5t-8 139.5zM656 185q-13 -57 -6 -84.5t38 -27.5q28 0 48.5 25t34.5 92
q23 106 -33 106q-61 0 -82 -111zM756 769h75l-546 -781h-75zM279 571q-25 -114 32 -114q41 0 59 59h104q-15 -68 -67.5 -102.5t-109.5 -34.5q-20 0 -39 4t-41.5 15.5t-34.5 32.5t-19 55t6 84q10 48 30 84t42 56t49 32.5t47.5 16t40.5 3.5q57 0 95 -34.5t24 -102.5h-104
q9 59 -34 59q-56 0 -80 -113z" />
    <glyph glyph-name="afii61289" unicode="&#x2113;" horiz-adv-x="500" 
d="M434 123l31 -70q-95 -67 -184 -67q-76 0 -111.5 41t-20.5 105l9 44l-65 -48h-2l-33 73l123 86l50 238q18 84 80.5 140t140.5 56q68 0 99.5 -41t17.5 -108q-17 -77 -79 -151t-177 -156l-24 -111q-8 -36 7 -52t40 -16q38 0 96 37h2zM456 563q6 29 -0.5 48.5t-23.5 19.5
q-18 0 -34 -22t-24 -58l-37 -170q99 84 119 182z" />
    <glyph glyph-name="afii61352" unicode="&#x2116;" horiz-adv-x="1120" 
d="M72 0l149 699h224l115 -545l116 545h144l-149 -699h-213l-117 576l-123 -576h-146zM909 270q0 -52 48 -52q44 0 65.5 40t21.5 88q0 51 -49 51q-44 0 -65 -39.5t-21 -87.5zM1098 80l-17 -80h-340l17 80h340zM942 148q-66 0 -103 32t-37 88q0 86 60 142.5t148 56.5
q66 0 103.5 -32t37.5 -87q0 -87 -60.5 -143.5t-148.5 -56.5z" />
    <glyph glyph-name="published" unicode="&#x2117;" horiz-adv-x="800" 
d="M399 738q155 0 266.5 -109.5t111.5 -268.5q0 -156 -111 -267t-267 -111q-155 0 -266.5 110.5t-111.5 267.5q0 158 112 268t266 110zM398 677q-130 0 -223 -92t-93 -224t92.5 -225t223.5 -93t224.5 94t93.5 224q0 131 -93.5 223.5t-224.5 92.5zM271 148v424h131
q55 0 89 -8.5t58 -37.5q26 -32 26 -80q0 -77 -54 -113q-31 -20 -97 -20h-60v-165h-93zM361 503v-123h37q13 0 20.5 0.5t21 4t21.5 9.5t14.5 19t6.5 32q0 20 -7.5 33t-21 18t-22.5 6t-23 1h-47z" />
    <glyph glyph-name="trademark" unicode="&#x2122;" horiz-adv-x="1000" 
d="M522 362l77 361h122l17 -264l135 264h118l-77 -361h-74l66 310l-160 -310h-62l-27 310l-66 -310h-69zM288 362l64 301h-127l13 60h329l-13 -60h-126l-64 -301h-76z" />
    <glyph glyph-name="Omega" unicode="&#x2126;" horiz-adv-x="765" 
d="M710 0h-283l43 204q73 16 122 70q49 52 64 127q18 84 -25 140.5t-123 56.5q-82 0 -149 -56t-85 -142q-16 -74 10.5 -126t89.5 -70l-43 -204h-283l26 125h170l5 21q-78 28 -107 97q-29 68 -9 161q20 92 80 165t144 112.5t175 39.5q141 0 217.5 -87.5t46.5 -226.5
q-21 -97 -78 -166.5t-147 -94.5l-5 -21h170z" />
    <glyph glyph-name="estimated" unicode="&#x212e;" horiz-adv-x="600" 
d="M156 295h291v145q-63 60 -147 60t-144 -60v-145zM560 259h-404v-181q59 -59 145 -59q63 0 109 28.5t84 91.5l35 -21q-46 -73 -98 -104t-130 -31q-116 0 -186.5 79t-71.5 197q0 118 71.5 197t186.5 79t187 -77t72 -199z" />
    <glyph glyph-name="onethird" unicode="&#x2153;" horiz-adv-x="834" 
d="M136 552l18 84q73 26 133 63h84l-89 -419h-98l69 326q-62 -36 -117 -54zM139 -28l576 753h82l-576 -753h-82zM513 110h99q-9 -56 47 -56q23 0 43.5 14t26.5 43q4 18 -1 30.5t-12.5 18.5t-24.5 9t-28 3.5t-32 0.5l15 70q23 0 39.5 2t36 8t32.5 19t17 33q5 24 -8.5 37
t-37.5 13q-25 0 -43 -14.5t-23 -37.5h-99q12 45 41 71q50 46 138 46q72 0 104 -35t23 -79q-15 -71 -108 -95q86 -25 70 -100q-11 -54 -65.5 -89t-124.5 -35q-89 0 -115 42q-21 31 -10 81z" />
    <glyph glyph-name="twothirds" unicode="&#x2154;" horiz-adv-x="834" 
d="M245 584h-99q8 47 42 78q49 46 141 46q70 0 104.5 -31.5t23.5 -82.5q-7 -36 -31.5 -64.5t-90.5 -79.5q-50 -40 -144 -101q183 4 218 4l-15 -69h-318l18 84l138 99q63 43 99 81q22 23 28 46q5 22 -7 36.5t-35 14.5q-28 0 -46.5 -17.5t-25.5 -43.5zM183 -28l576 753h82
l-576 -753h-82zM527 110h99q-9 -56 47 -56q23 0 43.5 14t26.5 43q4 18 -1 30.5t-12.5 18.5t-24.5 9t-28 3.5t-32 0.5l15 70q23 0 39.5 2t36 8t32.5 19t17 33q5 24 -8.5 37t-37.5 13q-25 0 -43 -14.5t-23 -37.5h-99q12 45 41 71q50 46 138 46q72 0 104 -35t23 -79
q-15 -71 -108 -95q86 -25 70 -100q-11 -54 -65.5 -89t-124.5 -35q-89 0 -115 42q-21 31 -10 81z" />
    <glyph glyph-name="oneeighth" unicode="&#x215b;" horiz-adv-x="834" 
d="M130 552l18 84q73 26 133 63h84l-89 -419h-98l69 326q-62 -36 -117 -54zM133 -28l576 753h82l-576 -753h-82zM619 221q-78 20 -64 89q10 45 57.5 81t123.5 36q69 0 104.5 -32t24.5 -81q-8 -37 -38 -62t-67 -30q85 -22 67 -106q-12 -56 -65 -89t-125 -33q-69 0 -104.5 35
t-24.5 87q17 76 111 105zM699 255q24 0 44.5 14.5t25.5 39.5q5 24 -10 38t-38 14q-24 0 -43.5 -14.5t-24.5 -37.5t8 -38.5t38 -15.5zM657 59q23 0 45.5 15.5t29.5 47.5q6 27 -9 44t-41 17t-48 -18t-28 -44q-6 -30 10 -46t41 -16z" />
    <glyph glyph-name="threeeighths" unicode="&#x215c;" horiz-adv-x="834" 
d="M93 394h99q-9 -56 47 -56q24 0 44 14t26 43q2 9 2 16.5t-2 13.5t-5 10.5t-8.5 8t-10.5 6t-13 3.5t-13.5 2t-15.5 1.5t-15.5 0.5h-15.5l15 70q23 0 39.5 2t36 8t32.5 19t17 33q5 24 -9 37t-38 13t-42.5 -14.5t-23.5 -37.5h-99q12 45 41 71q53 46 138 46q72 0 104 -35
t23 -79q-15 -70 -107 -95q86 -26 69 -100q-11 -54 -65.5 -89t-124.5 -35q-88 0 -115 42q-21 31 -10 81zM160 -28l576 753h82l-576 -753h-82zM630 221q-78 20 -64 89q10 45 57.5 81t123.5 36q69 0 104.5 -32t24.5 -81q-8 -37 -38 -62t-67 -30q85 -22 67 -106q-12 -56 -65 -89
t-125 -33q-70 0 -105 35t-24 87q17 76 111 105zM710 255q24 0 44.5 14.5t25.5 39.5q5 24 -10 38t-38 14q-24 0 -43.5 -14.5t-24.5 -37.5t8 -38.5t38 -15.5zM668 59q23 0 45.5 15.5t29.5 47.5q6 27 -9 44t-41 17t-48 -18t-28 -44q-6 -30 10 -46t41 -16z" />
    <glyph glyph-name="fiveeighths" unicode="&#x215d;" horiz-adv-x="834" 
d="M106 388h96q-3 -13 6.5 -30t36.5 -17q29 0 50.5 20t30.5 59q6 32 -4 53.5t-38 21.5q-45 0 -66 -42l-95 2l63 248h272l-15 -68h-185l-27 -107q40 33 89 33q60 0 89 -36t16 -97q-13 -60 -63.5 -106t-128.5 -46q-64 0 -100.5 28t-26.5 84zM156 -28l576 753h82l-576 -753h-82
zM627 221q-78 20 -64 89q10 45 57.5 81t123.5 36q69 0 104.5 -32t24.5 -81q-8 -37 -38 -62t-67 -30q85 -22 67 -106q-12 -56 -65 -89t-125 -33q-69 0 -104.5 35t-24.5 87q17 76 111 105zM707 255q24 0 44.5 14.5t25.5 39.5q5 24 -10 38t-38 14q-24 0 -43.5 -14.5
t-24.5 -37.5t8 -38.5t38 -15.5zM665 59q23 0 45.5 15.5t29.5 47.5q6 27 -9 44t-41 17t-48 -18t-28 -44q-6 -30 10 -46t41 -16z" />
    <glyph glyph-name="seveneighths" unicode="&#x215e;" horiz-adv-x="834" 
d="M172 634l15 69h306l-16 -74l-231 -344h-108l241 349h-207zM129 -28l576 753h82l-576 -753h-82zM623 221q-78 20 -64 89q10 45 57.5 81t123.5 36q69 0 104.5 -32t24.5 -81q-8 -37 -38 -62t-67 -30q85 -22 67 -106q-12 -56 -65 -89t-125 -33q-69 0 -104.5 35t-24.5 87
q17 76 111 105zM703 255q24 0 44.5 14.5t25.5 39.5q5 24 -10 38t-38 14q-24 0 -43.5 -14.5t-24.5 -37.5t8 -38.5t38 -15.5zM661 59q23 0 45.5 15.5t29.5 47.5q6 27 -9 44t-41 17t-48 -18t-28 -44q-6 -30 10 -46t41 -16z" />
    <glyph glyph-name="partialdiff" unicode="&#x2202;" horiz-adv-x="611" 
d="M550 358q0 -54 -6 -102t-24 -99t-46 -87t-76.5 -59.5t-111.5 -23.5q-103 0 -168 66t-65 169q-1 99 61.5 161.5t166.5 62.5q70 0 131 -42q-17 204 -140 204q-73 0 -130 -58l-68 91q92 80 195 80q77 0 134 -32t87.5 -86t45 -115t14.5 -130zM408 271v10t-1 9q-52 50 -109 50
q-51 0 -78.5 -35.5t-28.5 -89.5q1 -52 26.5 -86t72.5 -34q58 0 88.5 54.5t29.5 121.5z" />
    <glyph glyph-name="Delta" unicode="&#x2206;" horiz-adv-x="698" 
d="M689 0h-680l418 710h128zM526 125l-72 417l-240 -417h312z" />
    <glyph glyph-name="product" unicode="&#x220f;" horiz-adv-x="747" 
d="M686 -214h-133v882h-361v-882h-133v1000h627v-1000z" />
    <glyph glyph-name="summation" unicode="&#x2211;" horiz-adv-x="657" 
d="M633 -214h-607l-1 100l297 406l-285 394v100h584v-118h-412l265 -375l-283 -389h442v-118z" />
    <glyph glyph-name="minus" unicode="&#x2212;" horiz-adv-x="584" 
d="M25 202v129h532v-129h-532z" />
    <glyph glyph-name="uni2215" unicode="&#x2215;" horiz-adv-x="167" 
d="M-172 -28l576 753h82l-576 -753h-82z" />
    <glyph glyph-name="uni2219" unicode="&#x2219;" horiz-adv-x="278" 
d="M119 213l28 133h127l-28 -133h-127z" />
    <glyph glyph-name="radical" unicode="&#x221a;" horiz-adv-x="553" 
d="M563 786l-212 -1000h-116l-149 308l-51 -24l-46 102l160 74l121 -256l163 796h130z" />
    <glyph glyph-name="infinity" unicode="&#x221e;" horiz-adv-x="826" 
d="M780 265q1 -80 -47 -133.5t-129 -53.5q-97 0 -191 107q-48 -52 -90.5 -79t-99.5 -27q-80 0 -130 52.5t-49 132.5q0 78 47.5 130.5t127.5 52.5q59 0 103.5 -30t90.5 -84q44 54 88.5 84.5t103.5 30.5q80 0 127.5 -52.5t47.5 -130.5zM676 262q1 34 -19 56t-54 22
q-51 0 -125 -79q67 -75 128 -75q32 0 51 21.5t19 54.5zM346 261q-76 78 -127 78q-31 0 -51 -22.5t-20 -54.5q0 -34 20 -54.5t54 -20.5q59 0 124 74z" />
    <glyph glyph-name="integral" unicode="&#x222b;" horiz-adv-x="622" 
d="M501 702q0 -25 -16.5 -42t-42.5 -17q-25 0 -38 15.5t-20 32t-16 18.5q-14 -5 -14 -39q0 -12 1 -32.5t1.5 -37.5t0.5 -33v-455q0 -61 -3 -103t-13 -87.5t-27 -72.5t-48 -45t-74 -18t-75 20.5t-33 63.5q0 24 18 41t42 17q25 0 37.5 -15.5t19 -32t15.5 -17.5q14 3 14 33
q0 14 -1.5 49.5t-0.5 54.5l-1 501q0 32 0.5 52t4 53.5t9.5 55t18 47t29.5 40.5t44.5 25.5t61 10.5q40 0 73.5 -20.5t33.5 -62.5z" />
    <glyph glyph-name="approxequal" unicode="&#x2248;" horiz-adv-x="584" 
d="M472 468h97q-8 -92 -50 -142t-111 -50q-42 0 -129.5 32t-116.5 32q-20 0 -33 -16t-18 -39h-96q7 78 46.5 130.5t115.5 52.5q42 0 124 -29.5t121 -29.5q42 0 50 59zM471 247h97q-26 -184 -159 -184q-43 0 -132.5 32.5t-115.5 32.5q-20 0 -33.5 -17t-18.5 -45h-96
q7 79 46 135t112 56q42 0 126.5 -30.5t124.5 -30.5q37 0 49 51z" />
    <glyph glyph-name="notequal" unicode="&#x2260;" horiz-adv-x="584" 
d="M549 110h-273l-74 -146l-115 56l47 90h-102v127h167l43 84h-210v127h275l75 145l115 -55l-47 -90h99v-127h-164l-43 -84h207v-127z" />
    <glyph glyph-name="lessequal" unicode="&#x2264;" horiz-adv-x="584" 
d="M545 18h-508v123h508v-123zM545 154l-508 214v103l508 214v-136l-306 -131l306 -127v-137z" />
    <glyph glyph-name="greaterequal" unicode="&#x2265;" horiz-adv-x="584" 
d="M37 18v123h508v-123h-508zM37 154v137l306 127l-306 131v136l508 -214v-103z" />
    <glyph glyph-name="lozenge" unicode="&#x25ca;" horiz-adv-x="600" 
d="M534 356l-181 -391h-110l-179 391l179 391h110zM409 356l-111 263l-109 -263l109 -263z" />
    <glyph glyph-name="f_i" unicode="&#xf001;" horiz-adv-x="611" 
d="M78 0l85 400h-76l22 105h76l15 69q16 76 61.5 118.5t145.5 42.5q39 0 79 -5l-22 -103q-21 3 -30 3q-26 0 -44 -6t-27 -18t-12 -20.5t-6 -21.5l-13 -59h93l-22 -105h-93l-85 -400h-147zM519 593l27 129h158l-27 -129h-158zM398 0l108 506h148l-108 -506h-148z" />
    <glyph glyph-name="f_l" unicode="&#xf002;" horiz-adv-x="611" 
d="M80 0l85 400h-75l22 105h75l15 69q16 76 62 118.5t146 42.5q38 0 78 -5l-22 -103q-19 3 -29 3q-27 0 -45 -6t-27 -18t-12 -20.5t-6 -21.5l-13 -59h94l-22 -105h-94l-85 -400h-147zM398 0l154 723h148l-154 -723h-148z" />
    <glyph glyph-name="uniF8FF" unicode="&#xf8ff;" horiz-adv-x="512" 
d="M278 117h-56v67h56v-67zM271 234h-46l-2 17q0 56 13 81q15 28 46 59q30 28 40 45.5t10 37.5q0 36 -22.5 60.5t-53.5 24.5q-71 0 -82 -95l-50 8q6 69 42 103t93 34q55 0 89.5 -36t34.5 -95q0 -34 -13 -60t-50 -60q-37 -33 -43 -52q-6 -20 -6 -72zM50 50h412v617h-412v-617
zM0 718h512v-718h-512v718z" />
    <glyph glyph-name="grave.cap" horiz-adv-x="278" 
d="M323 918l53 -145h-85l-108 145h140z" />
    <glyph glyph-name="acute.cap" horiz-adv-x="278" 
d="M484 918l-168 -145h-80l114 145h134z" />
    <glyph glyph-name="circumflex.cap" horiz-adv-x="278" 
d="M142 773l141 145h103l73 -145h-89l-50 85l-88 -85h-90z" />
    <glyph glyph-name="caron.cap" horiz-adv-x="278" 
d="M406 918h93l-137 -145h-117l-73 145h94l50 -91z" />
    <glyph glyph-name="caron.alt" horiz-adv-x="278" 
d="M271 722h106l-113 -159h-67z" />
    <glyph glyph-name="tilde.cap" horiz-adv-x="278" 
d="M176 781h-52q20 56 59.5 89.5t84.5 33.5q9 0 20.5 -2.5t18.5 -5t8 -3.5l53 -22q10 -6 32 -6q37 0 57 46h51q-21 -63 -60 -93q-37 -29 -78 -29q-19 0 -49 11l-40 16q-27 10 -43 10q-38 0 -62 -45z" />
    <glyph glyph-name="dieresis.cap" horiz-adv-x="278" 
d="M339 787l25 118h102l-25 -118h-102zM167 787l25 118h102l-25 -118h-102z" />
    <glyph glyph-name="macron.cap" horiz-adv-x="278" 
d="M478 812h-342l15 68h342z" />
    <glyph glyph-name="breve.cap" horiz-adv-x="278" 
d="M181 918h61q-3 -45 19 -62.5t53 -17.5q25 0 44.5 7.5t32.5 23t19 24.5t14 25h61q-17 -63 -66.5 -104t-119.5 -41q-80 0 -111 55q-18 30 -7 90z" />
    <glyph glyph-name="ring.cap" horiz-adv-x="278" 
d="M340 948q43 0 65 -29.5t14 -72.5q-8 -42 -43.5 -72t-78.5 -30q-41 0 -65.5 30t-14.5 72q8 42 44.5 72t78.5 30zM330 900q-22 0 -41 -15.5t-24 -38.5q-5 -22 7.5 -37.5t34.5 -15.5q23 0 41.5 15.5t23.5 37.5t-7 38t-35 16z" />
    <glyph glyph-name="hungarumlaut.cap" 
d="M531 918l-169 -145h-80l115 145h134zM716 918l-169 -145h-80l115 145h134z" />
    <glyph glyph-name="dotaccent.cap" horiz-adv-x="278" 
d="M255 787l25 118h102l-25 -118h-102z" />
    <glyph glyph-name="commaaccent" horiz-adv-x="278" 
d="M86 -66h106l-112 -159h-67z" />
    <glyph glyph-name="commaaccent.alt" horiz-adv-x="278" 
d="M300 585h-106l113 159h67z" />
    </font>
</defs>
</svg>
