<?xml version="1.0" standalone="no"?>
<!DOCTYPE svg PUBLIC "-//W3C//DTD SVG 1.1//EN" "http://www.w3.org/Graphics/SVG/1.1/DTD/svg11.dtd" >
<svg>
<metadata>
Created by FontForge 20090622 at Tue Dec  6 10:38:51 2016
 By deploy user
Copyright &#194;&#169; 2009 Linotype Corp., www.linotype.com. All rights reserved. This font software may not be reproduced, modified, disclosed or transferred without the express written approval of Linotype Corp. Univers is a trademark of Linotype Corp. registered in the U.S. Patent and Trademark Office and may be registered in certain other jurisdictions in the name of Linotype Corp. or its licensee Linotype GmbH. This typeface is original artwork of Adrian Frutiger. The design may be protected in certain jurisdictions. 
</metadata>
<defs>
<font id="UniversLTCYR-57CondensedObl" horiz-adv-x="500" >
  <font-face 
    font-family="Univers LT CYR 57 Cn"
    font-weight="400"
    font-style="italic"
    font-stretch="condensed"
    units-per-em="1000"
    panose-1="2 11 5 6 2 2 2 9 2 4"
    ascent="800"
    descent="-200"
    x-height="505"
    cap-height="722"
    bbox="-172 -225 1064 989"
    underline-thickness="50"
    underline-position="-50"
    slope="-12"
    unicode-range="U+000D-U+FB04"
  />
<missing-glyph horiz-adv-x="485" 
d="M263 111h-53v63h53v-63zM257 222h-46v16q0 50 11 75.5t46 55.5q28 27 37 44t9 36q0 33 -21 56.5t-51 23.5q-67 0 -77 -90q-8 1 -24 3.5t-24 4.5q7 66 41 98t87 32q52 0 85 -34t33 -90q0 -32 -12.5 -56.5t-47.5 -56.5t-40.5 -47.5t-5.5 -70.5zM47 47h391v585h-391v-585z
M0 680h485v-680h-485v680z" />
    <glyph glyph-name="IJ" unicode="IJ" horiz-adv-x="726" 
d="M339 722l-153 -722h-93l153 722h93zM789 722l-114 -537q-42 -199 -227 -199q-158 0 -158 144q0 41 15 96h96q-16 -59 -16 -88q0 -74 71 -74q101 0 131 140l110 518h92z" />
    <glyph glyph-name="ij" unicode="ij" horiz-adv-x="426" 
d="M310 722l-18 -88h-92l18 88h92zM261 505l-107 -505h-86l107 505h86zM514 722l-18 -88h-92l18 88h92zM465 505l-126 -595q-22 -100 -142 -100q-12 0 -25 1l14 67q38 1 52 16t23 55l118 556h86z" />
    <glyph glyph-name="napostrophe" unicode="&#x22;n" 
d="M512 411q0 -26 -8 -63l-74 -348h-86l71 335q7 32 7 51q0 63 -66 63q-53 0 -85.5 -35t-43.5 -90l-69 -324h-86l94 440l11 65h87l-13 -65q53 75 144 75q117 0 117 -104zM289 722l-84 -141h-50l43 141h91z" />
    <glyph glyph-name="f_f" unicode="ff" horiz-adv-x="532" 
d="M116 505h78l21 98q25 122 171 122q20 0 38 -3l-13 -59l-17 1q-85 0 -100 -73l-18 -86h172l21 98q25 122 171 122q20 0 38 -3l-13 -59l-17 1q-85 0 -100 -73l-18 -86h102l-13 -62h-102l-94 -443h-82l94 443h-172l-94 -443h-82l94 443h-78z" />
    <glyph glyph-name="fi" unicode="fi" 
d="M116 505h78l21 98q25 122 171 122q20 0 38 -3l-13 -59q-58 4 -83.5 -15.5t-33.5 -56.5l-18 -86h102l-13 -62h-102l-94 -443h-82l94 443h-78zM530 505l-107 -505h-82l107 505h82zM470 634l19 88h92l-19 -88h-92z" />
    <glyph glyph-name="fl" unicode="fl" 
d="M116 505h78l21 98q25 122 171 122q20 0 38 -3l-13 -59q-58 4 -83.5 -15.5t-33.5 -56.5l-18 -86h102l-13 -62h-102l-94 -443h-82l94 443h-78zM583 722l-153 -722h-82l153 722h82z" />
    <glyph glyph-name="f_f_i" unicode="ffi" horiz-adv-x="754" 
d="M116 505h78l21 98q25 122 171 122q20 0 38 -3l-13 -59l-17 1q-85 0 -100 -73l-18 -86h172l21 98q25 122 171 122q20 0 38 -3l-13 -59l-17 1q-85 0 -100 -73l-18 -86h102l-13 -62h-102l-94 -443h-82l94 443h-172l-94 -443h-82l94 443h-78zM784 505l-107 -505h-82l107 505
h82zM724 634l19 88h92l-19 -88h-92z" />
    <glyph glyph-name="f_f_l" unicode="ffl" horiz-adv-x="759" 
d="M116 505h78l21 98q25 122 171 122q20 0 38 -3l-13 -59l-17 1q-85 0 -100 -73l-18 -86h177l21 98q25 122 171 122q20 0 38 -3l-13 -59l-17 1q-85 0 -100 -73l-18 -86h102l-13 -62h-102l-94 -443h-82l94 443h-177l-94 -443h-82l94 443h-78zM842 722l-153 -722h-82l153 722
h82z" />
    <glyph glyph-name=".notdef" horiz-adv-x="485" 
d="M263 111h-53v63h53v-63zM257 222h-46v16q0 50 11 75.5t46 55.5q28 27 37 44t9 36q0 33 -21 56.5t-51 23.5q-67 0 -77 -90q-8 1 -24 3.5t-24 4.5q7 66 41 98t87 32q52 0 85 -34t33 -90q0 -32 -12.5 -56.5t-47.5 -56.5t-40.5 -47.5t-5.5 -70.5zM47 47h391v585h-391v-585z
M0 680h485v-680h-485v680z" />
    <glyph glyph-name=".null" 
 />
    <glyph glyph-name="nonmarkingreturn" horiz-adv-x="333" 
 />
    <glyph glyph-name="CR" unicode="&#xd;" horiz-adv-x="0" 
 />
    <glyph glyph-name="space" unicode=" " horiz-adv-x="222" 
 />
    <glyph glyph-name="exclam" unicode="!" horiz-adv-x="333" 
d="M373 722l-138 -555h-70l99 555h109zM233 98l-21 -98h-94l21 98h94z" />
    <glyph glyph-name="quotedbl" unicode="&#x22;" horiz-adv-x="250" 
d="M370 708l-55 -217h-47l36 217h66zM245 708l-56 -217h-46l37 217h65z" />
    <glyph glyph-name="numbersign" unicode="#" horiz-adv-x="444" 
d="M541 708l-84 -212h79l-12 -57h-89l-66 -167h78l-12 -57h-88l-87 -215h-64l86 215h-81l-86 -215h-64l85 215h-77l12 57h88l66 167h-78l12 57h88l85 212h64l-84 -212h81l84 212h64zM371 439h-81l-67 -167h81z" />
    <glyph glyph-name="dollar" unicode="$" horiz-adv-x="444" 
d="M550 565q0 -25 -7 -59h-101q6 28 6 52q0 68 -73 72l-50 -236q154 -82 154 -193q0 -103 -68.5 -158.5t-172.5 -55.5l-13 -63h-39l13 63q-155 0 -155 143q0 36 9 76h94q-6 -27 -6 -53q0 -88 74 -93l54 257q-137 76 -137 182q0 86 65 146t155 60l13 64h39l-13 -64
q80 0 119.5 -36.5t39.5 -103.5zM336 630q-45 -6 -76 -43.5t-31 -83.5q0 -51 61 -87zM381 195q0 53 -77 100l-50 -235q51 6 89 45t38 90z" />
    <glyph glyph-name="percent" unicode="%" horiz-adv-x="778" 
d="M445 611q0 -31 -14 -99q-8 -37 -13 -56.5t-17.5 -48.5t-27.5 -43.5t-40.5 -26t-59.5 -11.5q-101 0 -101 99q0 27 13 94q7 35 10.5 49t12.5 42.5t19 41t26 28.5t39 22t52 6q56 0 78.5 -25.5t22.5 -71.5zM719 708l-465 -719h-64l464 719h65zM754 274q0 -31 -14 -99
q-8 -37 -13 -56.5t-17 -48.5t-27 -43.5t-40.5 -26t-59.5 -11.5q-101 0 -101 99q0 36 13 94q7 35 10.5 49t12.5 42.5t19 41t26 28.5t39 22t52 6q55 0 77.5 -25.5t22.5 -71.5zM368 521q5 23 7.5 37t4.5 31.5t0.5 27.5t-5.5 20t-13.5 14t-23.5 4q-39 0 -55.5 -31.5
t-36.5 -127.5q-6 -25 -7.5 -37t-2 -35t10 -34t31.5 -11q11 0 20.5 3t17 10t13.5 13.5t11.5 18.5t8.5 19.5t6.5 21.5l5 20t4.5 20t3 16zM677 184q18 88 10 111q-9 23 -39 23q-38 0 -54.5 -31t-37.5 -128q-16 -74 -5 -97q9 -20 36 -20q11 0 20.5 3t17 10t13.5 13.5t11.5 18.5
t8.5 19.5t6.5 21.5l5 20t4.5 20t3 16z" />
    <glyph glyph-name="ampersand" unicode="&#x26;" horiz-adv-x="667" 
d="M662 425q-24 -175 -97 -270l83 -155h-104l-42 74q-51 -49 -100.5 -68.5t-116.5 -19.5q-94 0 -146.5 46t-52.5 122q0 50 15.5 89.5t48.5 70.5t64 51.5t82 46.5q-59 75 -59 156q0 83 55 123t141 40q71 0 112 -27t41 -76q0 -115 -162 -229l103 -179q43 89 59 205h76z
M492 608q0 25 -16.5 39t-47.5 14q-40 0 -69 -25t-29 -65q0 -46 52 -115q110 80 110 152zM465 134l-130 225q-36 -21 -57 -36t-46.5 -39t-38 -53t-12.5 -64q0 -50 33.5 -78.5t92.5 -28.5q95 0 158 74z" />
    <glyph glyph-name="quotesingle" unicode="'" horiz-adv-x="250" 
d="M308 708l-55 -217h-46l36 217h65z" />
    <glyph glyph-name="parenleft" unicode="(" horiz-adv-x="278" 
d="M372 756l-66.5 -154t-49.5 -132.5t-45 -156.5q-31 -142 -31 -325q0 -56 3 -107h-58q-2 19 -7.5 66.5l-8.5 73.5t-5.5 65.5t-2.5 72.5q0 81 16 158q9 44 23.5 87t39.5 96l38.5 80.5t49.5 94l44 81.5h60z" />
    <glyph glyph-name="parenright" unicode=")" horiz-adv-x="278" 
d="M297 320q-9 -43 -24 -86.5t-39.5 -96l-39 -81.5l-49 -93.5l-43.5 -81.5h-60l66 150t52.5 139t43.5 153q31 144 31 322q0 55 -3 111h57q2 -19 7.5 -66.5l8.5 -73.5t5.5 -65.5t2.5 -72.5q0 -79 -16 -158z" />
    <glyph glyph-name="asterisk" unicode="*" horiz-adv-x="444" 
d="M536 579l-16 -69l-155 14l61 -130l-63 -34l-34 147l-98 -144l-51 32l117 130l-158 -15l14 66l154 -12l-63 127l66 34l35 -142l92 143l56 -32l-120 -130z" />
    <glyph glyph-name="plus" unicode="+" 
d="M533 219h-207v-207h-65v207h-207v65h207v207h65v-207h207v-65z" />
    <glyph glyph-name="comma" unicode="," horiz-adv-x="222" 
d="M211 104l-140 -232h-64l101 232h103z" />
    <glyph glyph-name="hyphen" unicode="-" horiz-adv-x="333" 
d="M342 308l-15 -74h-220l15 74h220z" />
    <glyph glyph-name="period" unicode="." horiz-adv-x="222" 
d="M181 104l-22 -104h-97l22 104h97z" />
    <glyph glyph-name="slash" unicode="/" horiz-adv-x="278" 
d="M441 740l-375 -751h-74l375 751h74z" />
    <glyph glyph-name="zero" unicode="0" horiz-adv-x="444" 
d="M512 549q0 -59 -21 -156l-21 -100q-28 -133 -55 -186q-59 -116 -191 -116q-147 0 -147 150q0 55 22 155l24 114q27 128 50 177q57 122 191 122q148 0 148 -160zM422 534q0 101 -65 101q-23 0 -43 -11t-34.5 -33.5t-25.5 -43t-20 -53t-13 -49t-10 -44.5q-2 -10 -3 -14
l-27 -127q-14 -65 -14 -105q0 -93 65 -93q23 0 43 10t35 31.5t25.5 39.5t20 51.5l14 48.5t11.5 49.5t7 36.5l17 80q17 74 17 125z" />
    <glyph glyph-name="one" unicode="1" horiz-adv-x="444" 
d="M437 694l-148 -694h-92l126 593q-57 -37 -119 -70l19 88q27 11 67.5 36.5t63.5 46.5h83z" />
    <glyph glyph-name="two" unicode="2" horiz-adv-x="444" 
d="M515 577q0 -85 -48.5 -162t-127.5 -155l-181 -180h274l-17 -80h-372l18 83l225 238q40 43 64.5 73t48.5 79t24 93q0 67 -66 67q-92 0 -109 -118h-94q14 98 62.5 144t146.5 46q74 0 113 -32.5t39 -95.5z" />
    <glyph glyph-name="three" unicode="3" horiz-adv-x="444" 
d="M520 563q0 -79 -47.5 -133t-129.5 -67q114 -21 114 -119q0 -113 -62 -185.5t-176 -72.5q-87 0 -125 33t-38 97q0 28 10 75h89q-7 -32 -7 -53q0 -76 79 -76q68 0 103.5 53t35.5 124q0 44 -26.5 64t-82.5 20h-19l17 81q11 -1 22 -1q68 0 109 42.5t41 109.5q0 36 -20.5 56
t-57.5 20q-98 0 -115 -124h-91q14 97 64.5 148t148.5 51q76 0 120 -39.5t44 -103.5z" />
    <glyph glyph-name="four" unicode="4" horiz-adv-x="444" 
d="M491 694l-95 -445h82l-16 -75h-82l-37 -174h-91l37 175h-227l21 98l286 421h122zM385 611l-238 -362h158l66 311z" />
    <glyph glyph-name="five" unicode="5" horiz-adv-x="444" 
d="M531 694l-16 -74h-231l-58 -220q54 57 133 57q113 0 113 -119q0 -39 -16 -115q-24 -111 -74 -170t-152 -59q-151 0 -151 121q0 24 6 53h91q-6 -24 -6 -37q0 -31 17.5 -49t51.5 -18q26 0 47.5 11.5t34 26.5t23.5 40.5t15.5 43t10.5 44.5q10 47 10 81q0 39 -16.5 56.5
t-52.5 17.5q-73 0 -104 -81h-89l94 390h319z" />
    <glyph glyph-name="six" unicode="6" horiz-adv-x="444" 
d="M519 581q0 -15 -6 -45h-92q4 20 4 30q0 32 -17 51.5t-47 19.5q-27 0 -48.5 -15t-35.5 -35.5t-27 -58t-20 -65.5t-17 -76q51 62 122 62q133 0 133 -144q0 -39 -9 -79q-22 -103 -78 -167t-154 -64q-69 0 -106.5 38t-37.5 102q0 75 34 229l5 22q30 133 50 180
q66 138 197 142q71 0 110.5 -35.5t39.5 -91.5zM377 292q0 83 -69 83q-95 0 -126 -151q-9 -42 -9 -73q0 -86 68 -86q31 0 55 15.5t38.5 44.5t21.5 51.5t14 54.5q7 33 7 61z" />
    <glyph glyph-name="seven" unicode="7" horiz-adv-x="444" 
d="M537 694l-17 -79l-316 -615h-102l323 616h-264l17 78h359z" />
    <glyph glyph-name="eight" unicode="8" horiz-adv-x="444" 
d="M516 576q0 -25 -5 -46q-27 -133 -154 -162q97 -9 97 -113q0 -30 -7 -64q-44 -200 -219 -200q-75 0 -115.5 36.5t-40.5 105.5q0 88 43.5 155t124.5 80q-88 20 -88 110q0 22 6 49q18 86 71.5 133t136.5 47q71 0 110.5 -34.5t39.5 -96.5zM426 565q0 35 -17.5 54.5
t-49.5 19.5q-54 0 -85 -47.5t-31 -104.5q0 -36 17 -57t47 -21q54 0 86.5 49.5t32.5 106.5zM364 244q0 84 -72 84q-51 0 -80.5 -39.5t-41.5 -94.5q-6 -27 -6 -49q0 -80 73 -80q44 0 76 34.5t45 95.5q6 27 6 49z" />
    <glyph glyph-name="nine" unicode="9" horiz-adv-x="444" 
d="M506 546q0 -72 -30 -205q-19 -90 -35 -146q-56 -204 -219 -204q-68 0 -107 35.5t-39 95.5q0 18 5 43h92q-3 -17 -3 -31q0 -33 16 -51t45 -18q32 0 56.5 18t42 54.5t28 72.5t22.5 91q1 3 3 15.5t4 21.5q-52 -67 -127 -67q-62 0 -96 37.5t-34 105.5q0 29 8 69
q48 221 221 221q80 0 113.5 -41.5t33.5 -116.5zM421 549q0 84 -68 84q-43 0 -75 -36t-45 -81t-13 -88q0 -85 68 -85q44 0 76 36t44.5 81t12.5 89z" />
    <glyph glyph-name="colon" unicode=":" horiz-adv-x="222" 
d="M267 505l-23 -108h-97l23 108h97zM182 104l-22 -104h-97l22 104h97z" />
    <glyph glyph-name="semicolon" unicode=";" horiz-adv-x="222" 
d="M269 505l-22 -107h-97l22 107h97zM198 104l-139 -232h-65l101 232h103z" />
    <glyph glyph-name="less" unicode="&#x3c;" 
d="M503 34l-451 178v65l451 179v-67l-372 -144l372 -144v-67z" />
    <glyph glyph-name="equal" unicode="=" 
d="M521 307h-452v64h452v-64zM521 132h-452v64h452v-64z" />
    <glyph glyph-name="greater" unicode="&#x3e;" 
d="M532 212l-451 -178v67l372 144l-372 144v67l451 -179v-65z" />
    <glyph glyph-name="question" unicode="?" horiz-adv-x="444" 
d="M520 612q0 -41 -12.5 -78t-40.5 -74.5t-47.5 -59t-58.5 -60.5q-26 -27 -33.5 -40.5t-14.5 -44.5l-15 -72h-80l18 87q9 42 19 63t35 45q131 124 131 225q0 63 -55 63q-48 0 -72 -41t-31 -95h-94q14 98 62.5 151.5t145.5 53.5q68 0 105.5 -32.5t37.5 -90.5zM285 98l-21 -98
h-93l21 98h93z" />
    <glyph glyph-name="at" unicode="@" horiz-adv-x="889" 
d="M462 -131q-171 0 -274 101.5t-103 272.5q0 29 3 59q21 197 156 317.5t330 120.5q152 0 256 -85.5t104 -229.5q0 -77 -32.5 -153.5t-98.5 -131.5t-149 -55q-40 0 -65 21.5t-21 65.5q-27 -40 -67.5 -64t-84.5 -24q-52 0 -77.5 27t-25.5 72q0 40 33 141q16 48 29.5 78
t36.5 60.5t55.5 45t76.5 14.5q61 0 87 -54l16 48h83l-76 -232q-23 -73 -26 -91q-5 -47 47 -47q77 0 138.5 92.5t61.5 187.5q0 120 -87.5 189t-219.5 69q-174 0 -289 -110.5t-133 -283.5q-3 -27 -3 -52q0 -145 88 -229.5t240 -84.5q90 0 167 28.5t168 86.5l29 -45
q-185 -125 -373 -125zM443 138q24 0 44 11t33 26.5t26 43t20.5 48t17.5 53.5q15 46 18 76q7 70 -54 70q-22 0 -41 -11.5t-30.5 -25t-23.5 -40.5t-17 -41.5t-14 -44.5q-26 -83 -26 -115q0 -50 47 -50z" />
    <glyph glyph-name="A" unicode="A" horiz-adv-x="611" 
d="M596 0h-98l-15 172h-279l-90 -172h-99l382 722h117zM476 250l-36 387l-198 -387h234z" />
    <glyph glyph-name="B" unicode="B" horiz-adv-x="611" 
d="M636 586q0 -79 -44 -134t-121 -72v-4q117 -16 117 -118q0 -20 -7 -55q-13 -60 -39.5 -101.5t-65 -63t-79.5 -30t-92 -8.5h-215l153 722h235q72 0 115 -36.5t43 -99.5zM540 564q0 22 -9 38t-20.5 24t-30.5 12.5t-31.5 5t-30.5 0.5h-98l-48 -227h95q82 0 127.5 33.5
t45.5 113.5zM492 243q0 68 -54 85q-33 10 -118 10h-65l-55 -258h61q39 0 61 1t54 8t51 20t36.5 38.5t25.5 62.5q3 16 3 33z" />
    <glyph glyph-name="C" unicode="C" horiz-adv-x="556" 
d="M615 596q0 -31 -10 -79h-96q8 35 8 63q0 72 -83 72q-32 0 -57 -8t-43 -27t-29.5 -35t-21 -47.5t-14 -48.5t-11.5 -52l-32 -153q-15 -75 -15 -111q0 -54 22 -78t70 -24q118 0 153 151h95q-25 -116 -82.5 -173t-171.5 -57q-97 0 -136.5 47.5t-39.5 130.5q0 73 23 174
l22 100q12 56 24 94t34 78t50.5 63.5t72.5 38.5t102 15q88 0 127 -33.5t39 -100.5z" />
    <glyph glyph-name="D" unicode="D" horiz-adv-x="611" 
d="M634 553q0 -65 -30 -208q-14 -66 -27 -110t-33 -86t-44.5 -67.5t-60.5 -45t-84 -28t-111 -8.5h-161l153 722h210q101 0 144.5 -44.5t43.5 -124.5zM541 533q0 60 -29 84.5t-99 24.5h-101l-119 -562h71q65 0 104 11.5t68 47.5t45.5 87t36.5 146q23 106 23 161z" />
    <glyph glyph-name="E" unicode="E" 
d="M606 722l-17 -80h-280l-49 -232h260l-17 -79h-260l-53 -251h287l-17 -80h-379l153 722h372z" />
    <glyph glyph-name="F" unicode="F" horiz-adv-x="444" 
d="M585 722l-17 -80h-265l-49 -232h251l-17 -79h-251l-70 -331h-93l153 722h358z" />
    <glyph glyph-name="G" unicode="G" horiz-adv-x="611" 
d="M644 602q0 -32 -9 -73h-96q6 25 6 46q0 86 -95 86q-42 0 -71.5 -11t-49 -32.5t-33.5 -56t-25 -78.5t-24 -104q-2 -14 -4 -21q-31 -149 -31 -187q0 -53 27 -80.5t91 -27.5q68 0 117 31l45 214h-132l18 82h225l-75 -351q-106 -53 -208 -53q-109 0 -154 47.5t-45 135.5
q0 67 25 181q31 150 42 183q40 131 130 175q58 29 144 29q94 0 138 -32t44 -103z" />
    <glyph glyph-name="H" unicode="H" horiz-adv-x="611" 
d="M677 722l-153 -722h-92l71 333h-253l-71 -333h-92l153 722h92l-65 -309h253l65 309h92z" />
    <glyph glyph-name="I" unicode="I" horiz-adv-x="278" 
d="M339 722l-153 -722h-93l153 722h93z" />
    <glyph glyph-name="J" unicode="J" 
d="M563 722l-114 -537q-42 -199 -227 -199q-158 0 -158 144q0 41 15 96h96q-16 -59 -16 -88q0 -74 71 -74q101 0 131 140l110 518h92z" />
    <glyph glyph-name="K" unicode="K" horiz-adv-x="556" 
d="M685 722l-333 -333l195 -389h-112l-182 377l-80 -377h-92l153 722h92l-67 -317l316 317h110z" />
    <glyph glyph-name="L" unicode="L" horiz-adv-x="444" 
d="M455 80l-17 -80h-356l153 722h92l-136 -642h264z" />
    <glyph glyph-name="M" unicode="M" horiz-adv-x="833" 
d="M901 722l-153 -722h-88l136 641l-340 -641h-86l-65 641l-136 -641h-85l153 722h145l55 -606l313 606h151z" />
    <glyph glyph-name="N" unicode="N" horiz-adv-x="667" 
d="M734 722l-153 -722h-121l-158 626l-133 -626h-83l153 722h125l157 -618l131 618h82z" />
    <glyph glyph-name="O" unicode="O" horiz-adv-x="611" 
d="M639 563q0 -58 -19 -150l-15 -70q-32 -146 -53 -198q-51 -121 -163 -148q-38 -9 -83 -9q-183 0 -183 176q0 47 13 110l35 164q12 57 22.5 94t32 80.5t49 68.5t72.5 42t104 17q103 0 145.5 -46.5t42.5 -130.5zM549 557q0 104 -105 104q-69 0 -109 -42t-60 -135l-46 -214
q-13 -59 -13 -103q0 -54 24 -77.5t77 -23.5q38 0 66 11t46 28t32.5 52.5t23 67t20.5 89.5l23 110q21 100 21 133z" />
    <glyph glyph-name="P" unicode="P" horiz-adv-x="556" 
d="M621 577q0 -36 -8 -72q-23 -107 -88.5 -147t-166.5 -40h-105l-68 -318h-92l153 722h204q171 0 171 -145zM530 561q0 81 -104 81h-105l-51 -244h70q23 0 36.5 1t35.5 4t37 11.5t31 21.5t27.5 35.5t17.5 52.5q5 23 5 37z" />
    <glyph glyph-name="Q" unicode="Q" horiz-adv-x="611" 
d="M636 563q0 -58 -19 -150l-15 -70q-24 -112 -46.5 -168.5t-76.5 -110.5q43 15 105 15h35l-17 -79h-188q-6 0 -12.5 -0.5t-14.5 -1.5t-13 -1q-17 -1 -53 -1h-26q-172 0 -172 182q0 48 12 104l33 156q12 57 22.5 94t32 80.5t49 68.5t72.5 42t104 17q103 0 145.5 -46.5
t42.5 -130.5zM546 557q0 104 -105 104q-69 0 -109.5 -42t-59.5 -135l-44 -206q-13 -59 -13 -103q0 -54 24 -77.5t77 -23.5q48 0 78.5 13t51 48t31 71t25.5 108l23 110q21 100 21 133z" />
    <glyph glyph-name="R" unicode="R" horiz-adv-x="556" 
d="M622 585q0 -82 -45 -138t-126 -71q48 -8 68 -32t20 -69q0 -22 -7 -66l-4 -26q-16 -106 -16 -156q0 -5 0.5 -14t0.5 -13h-96q-3 15 -3 37q0 21 3 44l18 111q6 36 6 62q0 44 -24.5 61t-88.5 17h-84l-71 -332h-93l153 722h260q27 0 54 -11t51 -44t24 -82zM526 567
q0 75 -87 75h-130l-49 -232h107q74 0 116.5 41.5t42.5 115.5z" />
    <glyph glyph-name="S" unicode="S" horiz-adv-x="556" 
d="M609 593q0 -36 -8 -69h-96q7 32 7 52q0 79 -88 79q-57 0 -97.5 -35t-40.5 -91q0 -41 29 -68t77 -52q68 -35 108.5 -84.5t40.5 -108.5q0 -106 -74 -166.5t-186 -60.5q-184 0 -184 150q0 32 10 82h91q-7 -35 -7 -58q0 -95 98 -95q61 0 107.5 38.5t46.5 97.5q0 56 -58 90
q-41 24 -60 36t-51 36.5t-46.5 44t-27 48.5t-12.5 61q0 102 71.5 158.5t174.5 56.5q175 0 175 -142z" />
    <glyph glyph-name="T" unicode="T" 
d="M639 722l-17 -80h-190l-136 -642h-93l136 642h-189l17 80h472z" />
    <glyph glyph-name="U" unicode="U" horiz-adv-x="611" 
d="M682 722l-102 -481q-12 -59 -31 -103t-50 -79.5t-78 -54t-109 -18.5q-92 0 -141 45t-49 126q0 29 8 67l105 498h92l-106 -501q-6 -30 -6 -54q0 -102 105 -102q75 0 113.5 44.5t55.5 124.5l103 488h90z" />
    <glyph glyph-name="V" unicode="V" horiz-adv-x="556" 
d="M696 722l-364 -722h-110l-56 722h96l31 -635l305 635h98z" />
    <glyph glyph-name="W" unicode="W" horiz-adv-x="889" 
d="M1035 722l-344 -722h-112v626l-285 -626h-112l-23 722h98l1 -626l282 626h119l-1 -626l281 626h96z" />
    <glyph glyph-name="X" unicode="X" horiz-adv-x="556" 
d="M678 722l-269 -348l138 -374h-106l-104 301l-220 -301h-108l289 380l-120 342h100l90 -280l204 280h106z" />
    <glyph glyph-name="Y" unicode="Y" 
d="M645 722l-289 -432l-62 -290h-91l62 292l-104 430h98l68 -349l219 349h99z" />
    <glyph glyph-name="Z" unicode="Z" 
d="M621 722l-17 -83l-463 -559h352l-17 -80h-451l19 90l450 552h-321l17 80h431z" />
    <glyph glyph-name="bracketleft" unicode="[" horiz-adv-x="278" 
d="M396 753l-11 -54h-87l-164 -768h87l-11 -53h-165l186 875h165z" />
    <glyph glyph-name="backslash" unicode="\" horiz-adv-x="278" 
d="M282 -11h-74l-57 751h74z" />
    <glyph glyph-name="bracketright" unicode="]" horiz-adv-x="278" 
d="M367 753l-186 -875h-166l12 55h88l163 768h-87l11 52h165z" />
    <glyph glyph-name="asciicircum" unicode="^" 
d="M540 291h-68l-134 338l-130 -338h-69l169 417h63z" />
    <glyph glyph-name="underscore" unicode="_" 
d="M500 -125h-500v50h500v-50z" />
    <glyph glyph-name="grave" unicode="`" horiz-adv-x="278" 
d="M341 579h-65l-103 141h102z" />
    <glyph glyph-name="a" unicode="a" 
d="M495 406q0 -16 -5 -43l-55 -261q-12 -53 -12 -102h-85l12 73h-2q-55 -84 -147 -84q-51 0 -80 28.5t-29 81.5q0 214 269 214h37l6 32q7 33 7 49q0 60 -67 60q-45 0 -67.5 -23t-32.5 -68h-89q26 153 195 153q145 0 145 -110zM384 251q-13 1 -24 1q-83 0 -133 -28t-50 -104
q0 -63 65 -63q40 0 70 28t44 60.5t22 72.5q3 10 6 33z" />
    <glyph glyph-name="b" unicode="b" 
d="M513 376q0 -56 -18 -137q-8 -41 -18 -72.5t-27 -66t-39 -57t-55.5 -37.5t-75.5 -15q-78 0 -101 69l-13 -60h-86l153 722h87l-57 -268q48 61 121 61q129 0 129 -139zM427 363q0 85 -71 85q-32 0 -56.5 -15t-40 -44t-24.5 -56.5t-17 -67.5q-16 -78 -16 -119q0 -87 68 -87
q27 0 49 11.5t36 28t25.5 44t17.5 50.5t13 57q16 76 16 113z" />
    <glyph glyph-name="c" unicode="c" 
d="M501 397q0 -25 -6 -54h-85q5 28 5 44q0 61 -63 61q-58 0 -88.5 -50.5t-50.5 -145.5q-14 -65 -14 -104q0 -89 67 -89q45 0 72.5 30.5t37.5 78.5h86q-17 -82 -68 -130t-133 -48q-148 0 -148 149q0 44 14 109q32 149 84 208t152 59q138 0 138 -118z" />
    <glyph glyph-name="d" unicode="d" 
d="M573 722l-153 -722h-85l13 60q-48 -69 -120 -69q-131 0 -131 153q0 49 10 93q12 55 20 86.5t25.5 73.5t39 64t57 38t81.5 16q40 0 61.5 -14t38.5 -47l57 268h86zM409 361q0 87 -74 87q-27 0 -48.5 -12t-34.5 -29t-24.5 -47t-17.5 -52.5t-14 -59.5q-14 -63 -14 -102
q0 -87 75 -87q27 0 49 14t34.5 30.5t25 51t16.5 52.5l13 58q14 68 14 96z" />
    <glyph glyph-name="e" unicode="e" 
d="M508 375q0 -45 -12 -98l-11 -51h-285q-12 -54 -12 -89q0 -82 73 -82q82 0 114 98h90q-21 -84 -70.5 -124.5t-136.5 -40.5q-85 0 -120.5 38.5t-35.5 109.5q0 53 16 125q30 140 81.5 198.5t150.5 58.5q85 0 121.5 -37t36.5 -106zM422 370q0 83 -77 83q-32 0 -56 -15.5
t-39 -43.5t-22.5 -51.5t-14.5 -54.5h197q12 54 12 82z" />
    <glyph glyph-name="f" unicode="f" horiz-adv-x="278" 
d="M422 722l-12 -60q-6 1 -19 1q-24 0 -40.5 -6t-26 -12.5t-17.5 -25t-10.5 -28t-8.5 -37.5l-11 -49h99l-13 -65h-99l-94 -440h-85l94 440h-77l13 65h77l15 71q17 80 56 115t119 35q21 0 40 -4z" />
    <glyph glyph-name="g" unicode="g" 
d="M529 505l-114 -540q-17 -84 -63.5 -122t-132.5 -38q-152 0 -152 103q0 18 4 35h92q-2 -14 -2 -18q0 -54 67 -54q25 0 43 8t28 17.5t18.5 31.5t11.5 34.5t9 41.5l12 59q-44 -60 -117 -60q-129 0 -129 148q0 44 13 109q29 134 81 193t136 59q76 0 100 -69l13 62h82z
M412 360q0 86 -71 86q-27 0 -49 -12.5t-35.5 -29t-24.5 -44t-16 -46t-11 -46.5q-16 -69 -16 -109q0 -90 72 -90q27 0 49 12.5t35 28.5t24 44t15.5 45t10.5 46q17 78 17 115z" />
    <glyph glyph-name="h" unicode="h" 
d="M510 404q0 -24 -6 -51l-75 -353h-86l71 335q7 30 7 50q0 64 -66 64q-53 0 -85.5 -35t-43.5 -90l-69 -324h-86l153 722h85l-59 -282q57 75 140 75q120 0 120 -111z" />
    <glyph glyph-name="i" unicode="i" horiz-adv-x="222" 
d="M310 722l-18 -88h-92l18 88h92zM261 505l-107 -505h-86l107 505h86z" />
    <glyph glyph-name="j" unicode="j" horiz-adv-x="222" 
d="M310 722l-18 -88h-92l18 88h92zM261 505l-126 -595q-22 -100 -142 -100q-12 0 -25 1l14 67q38 1 52 16t23 55l118 556h86z" />
    <glyph glyph-name="k" unicode="k" horiz-adv-x="444" 
d="M516 505l-214 -223l138 -282h-99l-125 278l-59 -278h-85l153 722h85l-91 -430l193 213h104z" />
    <glyph glyph-name="l" unicode="l" horiz-adv-x="222" 
d="M307 722l-153 -722h-86l153 722h86z" />
    <glyph glyph-name="m" unicode="m" horiz-adv-x="722" 
d="M739 414q0 -21 -4 -40l-79 -374h-86l78 367q3 13 3 26q0 57 -67 57q-49 0 -73 -29.5t-35 -82.5l-72 -338h-85l74 346q5 25 5 44q0 59 -59 59q-52 0 -77.5 -29.5t-36.5 -82.5l-72 -337h-86l94 440l11 65h85l-13 -63q49 74 136 74q98 0 110 -66q51 66 144 66q51 0 78 -27
t27 -75z" />
    <glyph glyph-name="n" unicode="n" 
d="M512 411q0 -26 -8 -63l-74 -348h-86l71 335q7 32 7 51q0 63 -66 63q-53 0 -85.5 -35t-43.5 -90l-69 -324h-86l94 440l11 65h87l-13 -65q53 75 144 75q117 0 117 -104z" />
    <glyph glyph-name="o" unicode="o" 
d="M511 374q0 -52 -16 -126q-13 -64 -27.5 -105t-41.5 -80t-70.5 -58t-105.5 -19q-85 0 -120 37.5t-35 106.5q0 45 16 125q11 52 20.5 85t28 70.5t42 59t61.5 35.5t88 14q87 0 123.5 -37.5t36.5 -107.5zM425 366q0 85 -77 85q-26 0 -47 -8t-36 -25.5t-24.5 -32t-18 -43
t-12 -41.5t-9.5 -43q-19 -91 -19 -121q0 -82 79 -82q26 0 46.5 8t35.5 26.5t25 34t19 47t13 48.5l12 53q13 65 13 94z" />
    <glyph glyph-name="p" unicode="p" 
d="M512 373q0 -47 -13 -105q-6 -31 -9 -43l-10.5 -41.5t-12.5 -43.5t-15.5 -39t-20.5 -37.5t-25.5 -29.5t-32.5 -25t-39 -14t-48 -6q-84 0 -109 62l-52 -243h-87l148 697h86l-13 -61q47 70 122 70q131 0 131 -141zM427 359q0 87 -77 87q-27 0 -49.5 -14.5t-35.5 -33.5
t-24.5 -49t-16.5 -51t-11 -49q-1 -7 -2 -10q-13 -61 -13 -95q0 -89 74 -89q28 0 51 15t37 35t25.5 52t16.5 53t11 52l3 15q11 57 11 82z" />
    <glyph glyph-name="q" unicode="q" 
d="M528 505l-148 -697h-86l52 243q-53 -62 -126 -62q-121 0 -121 147q0 53 18 141q25 116 73.5 176.5t141.5 60.5q75 0 98 -70l13 61h85zM409 362q0 84 -69 84q-53 0 -85.5 -40.5t-52.5 -130.5q-19 -93 -19 -133q0 -86 70 -86q28 0 50.5 13t36 30.5t24.5 46t16 47t11 47.5
q18 86 18 122z" />
    <glyph glyph-name="r" unicode="r" horiz-adv-x="333" 
d="M425 509l-18 -85q-15 3 -40 3q-53 0 -89.5 -29t-47.5 -81l-67 -317h-86l94 440l11 65h86l-16 -78q32 49 63.5 66.5t88.5 17.5q17 0 21 -2z" />
    <glyph glyph-name="s" unicode="s" horiz-adv-x="444" 
d="M474 407q0 -16 -5 -39h-85q3 15 3 28q0 53 -70 53q-38 0 -66.5 -21t-28.5 -58q0 -15 12 -27t43 -30l73 -41q79 -45 79 -112q0 -84 -56.5 -126.5t-144.5 -42.5q-154 0 -154 116q0 21 6 46h88q-5 -22 -5 -37q0 -59 69 -59q44 0 76.5 23t32.5 64q0 30 -31 48l-102 59
q-31 18 -51.5 48t-20.5 58q0 76 56 115.5t137 39.5q145 0 145 -105z" />
    <glyph glyph-name="t" unicode="t" horiz-adv-x="278" 
d="M384 505l-13 -65h-107l-64 -299q-5 -25 -5 -39q0 -22 13 -31.5t47 -9.5q19 0 38 4l-14 -63q-38 -7 -81 -7q-48 0 -71.5 16t-23.5 54q0 17 4 36l72 339h-85l13 65h85l21 97l93 37l-29 -134h107z" />
    <glyph glyph-name="u" unicode="u" 
d="M530 505l-93 -440l-12 -65h-85l13 61h-3q-57 -69 -147 -69q-51 0 -77 28t-26 78q0 24 6 51l75 356h85l-78 -368q-2 -12 -2 -18q0 -28 18.5 -45t49.5 -17q42 0 75 32t44 82l71 334h86z" />
    <glyph glyph-name="v" unicode="v" horiz-adv-x="444" 
d="M537 505l-266 -505h-106l-44 505h89l22 -429l215 429h90z" />
    <glyph glyph-name="w" unicode="w" horiz-adv-x="722" 
d="M821 505l-243 -505h-110l-14 426l-209 -426h-110l-19 505h91l-1 -429l206 429h116l13 -429l192 429h88z" />
    <glyph glyph-name="x" unicode="x" horiz-adv-x="444" 
d="M527 505l-201 -248l108 -257h-96l-75 207l-156 -207h-98l212 269l-86 236h95l60 -184l139 184h98z" />
    <glyph glyph-name="y" unicode="y" horiz-adv-x="444" 
d="M543 505l-378 -697h-89l101 195l-63 502h91l36 -411l209 411h93z" />
    <glyph glyph-name="z" unicode="z" horiz-adv-x="389" 
d="M454 505l-14 -66l-292 -374h220l-14 -65h-318l15 71l289 369h-200l13 65h301z" />
    <glyph glyph-name="braceleft" unicode="{" horiz-adv-x="274" 
d="M450 753l-11 -53q-58 0 -91.5 -35t-48.5 -104l-11 -51q-7 -32 -12.5 -51.5t-16.5 -45.5t-24.5 -42.5t-35.5 -32t-51 -24.5q72 -25 72 -98q0 -32 -15 -98q-17 -85 -17 -109q0 -39 20 -58.5t67 -19.5l-11 -52q-76 0 -115.5 27.5t-39.5 98.5q0 32 15 98q16 73 16 98
q0 85 -94 85l12 56q119 0 147 141l6 31q18 93 43 136q36 59 82 81t114 22z" />
    <glyph glyph-name="bar" unicode="|" horiz-adv-x="250" 
d="M232 -214h-65v1000h65v-1000z" />
    <glyph glyph-name="braceright" unicode="}" horiz-adv-x="274" 
d="M363 342l-12 -56q-59 0 -94.5 -32.5t-52.5 -109.5l-9 -41q0 -1 -3 -13.5l-3.5 -14.5t-3 -13.5t-4 -15.5t-4.5 -14t-5 -15l-5.5 -13.5t-6.5 -14.5t-7 -13t-9 -13q-37 -51 -78 -67.5t-107 -16.5l11 52q65 0 96 37t47 116l7 34q7 34 11.5 52t15 45t24 43t36.5 31.5t54 24.5
q-71 25 -71 103q0 32 13 93q18 76 18 106q0 84 -87 84l11 53q73 0 113.5 -29t40.5 -99q0 -28 -17 -111q-12 -65 -12 -81q0 -91 93 -91z" />
    <glyph glyph-name="asciitilde" unicode="~" 
d="M505 319q-16 -139 -108 -139q-40 0 -116.5 36t-102.5 36q-45 0 -57 -78h-48q18 141 107 141q36 0 112.5 -36t108.5 -36q18 0 30 12t17 26t9 38h48z" />
    <glyph glyph-name="uni00A0" unicode="&#xa0;" horiz-adv-x="222" 
 />
    <glyph glyph-name="exclamdown" unicode="&#xa1;" horiz-adv-x="333" 
d="M209 364h71l-100 -555h-109zM326 531l-22 -104h-94l22 104h94z" />
    <glyph glyph-name="cent" unicode="&#xa2;" horiz-adv-x="444" 
d="M346 168h86q-17 -80 -76 -129.5t-121 -49.5q-64 0 -98 20l-42 -67l-33 16l47 75q-44 58 -11 212q13 64 28 106t42 83t71.5 61t107.5 20q34 0 59 -9l39 63l32 -15l-39 -64q54 -41 27 -147h-85q9 36 6 63l-201 -321q17 -29 64 -29q36 0 61 32.5t36 79.5zM173 134l191 305
q-10 9 -31 9q-52 0 -87 -35.5t-55 -132.5q-21 -98 -20 -146h2z" />
    <glyph glyph-name="sterling" unicode="&#xa3;" horiz-adv-x="444" 
d="M550 581q0 -25 -6 -53h-96q6 24 6 45q0 60 -64 60q-86 0 -108 -104l-26 -125h136l-16 -73h-136l-53 -251h258l-17 -80h-424l17 80h74l53 251h-74l16 73h74l24 115q19 91 72.5 140t139.5 49q75 0 112.5 -33t37.5 -94z" />
    <glyph glyph-name="currency" unicode="&#xa4;" horiz-adv-x="444" 
d="M50 150l56 57q-42 56 -42 130q0 70 42 130l-56 57l47 48l56 -56q63 42 129 42q68 0 129 -42l57 56l46 -48l-56 -57q43 -64 43 -130q0 -69 -43 -130l56 -58l-46 -48l-57 57q-65 -43 -128 -43q-71 0 -129 43l-57 -57zM282 488q-61 0 -103 -45t-42 -106t42 -106.5t103 -45.5
t103.5 45.5t42.5 106.5t-42.5 106t-103.5 45z" />
    <glyph glyph-name="yen" unicode="&#xa5;" horiz-adv-x="444" 
d="M94 132l14 67h114l14 66h-114l14 67h89l-80 362h91l62 -321l202 321h94l-237 -362h91l-14 -67h-116l-14 -66h116l-14 -67h-116l-28 -132h-82l28 132h-114z" />
    <glyph glyph-name="brokenbar" unicode="&#xa6;" horiz-adv-x="250" 
d="M219 411h-69v250h69v-250zM219 -89h-69v250h69v-250z" />
    <glyph glyph-name="section" unicode="&#xa7;" horiz-adv-x="444" 
d="M506 708l-15 -74q-56 27 -106 27q-37 0 -66.5 -21.5t-29.5 -56.5q0 -13 3.5 -22t13.5 -16t15.5 -10t21 -8.5t19.5 -6.5q106 -43 106 -111q0 -53 -38.5 -92t-94.5 -58q42 -12 64 -41t22 -65q0 -83 -64.5 -126t-153.5 -43q-76 0 -132 21l19 81l27.5 -10.5t30.5 -11t26 -5.5
t35 -3q45 0 79.5 23t34.5 65q0 13 -5.5 23t-17 17t-20.5 11.5t-24 10.5t-21 8q-25 11 -40 20t-33 23t-27 31.5t-9 39.5q0 54 36.5 87t97.5 57q-32 14 -50.5 40t-18.5 59q0 76 59.5 116t140.5 40q66 0 115 -19zM381 387q0 45 -70 63q-39 -13 -68.5 -40t-29.5 -63
q0 -6 1 -11.5t2.5 -10t5 -8.5t5.5 -6.5t7 -6t7.5 -5t9.5 -4.5t9 -4t9.5 -3.5t9.5 -3.5q102 42 102 103z" />
    <glyph glyph-name="dieresis" unicode="&#xa8;" horiz-adv-x="278" 
d="M245 694l-22 -104h-94l22 104h94zM421 694l-22 -104h-94l22 104h94z" />
    <glyph glyph-name="copyright" unicode="&#xa9;" horiz-adv-x="800" 
d="M477 740q155 0 265.5 -110.5t110.5 -265.5t-110.5 -265.5t-265.5 -110.5q-156 0 -266 110.5t-110 265.5t110 265.5t266 110.5zM477 45q130 0 223 94t93 225t-93 225t-223 94q-131 0 -224 -94t-93 -225t93 -225t224 -94zM657 435h-59q-8 46 -39.5 72t-77.5 26
q-59 0 -96.5 -45.5t-37.5 -118.5q0 -76 39 -123t101 -47q44 0 74 24t40 67h59q-8 -64 -56.5 -104.5t-116.5 -40.5q-89 0 -148.5 63t-59.5 158q0 96 56.5 159t142.5 63q73 0 123.5 -43.5t55.5 -109.5z" />
    <glyph glyph-name="ordfeminine" unicode="&#xaa;" horiz-adv-x="300" 
d="M218 421q-38 0 -57 19.5t-19 52.5q0 68 41 98t128 30h10l2 9q3 15 3 26q0 30 -33 30q-24 0 -34.5 -12.5t-15.5 -39.5h-69q16 103 124 103q93 0 93 -75q0 -13 -3 -28l-26 -130l-11 -77h-66l4 25q-34 -31 -71 -31zM239 476q51 0 70 88l2 6h-23q-82 0 -82 -64q0 -30 33 -30z
" />
    <glyph glyph-name="guillemotleft" unicode="&#xab;" horiz-adv-x="444" 
d="M472 447l-128 -201l38 -188h-72l-55 193l134 196h83zM301 447l-128 -201l38 -188h-72l-55 193l134 196h83z" />
    <glyph glyph-name="logicalnot" unicode="&#xac;" 
d="M517 120h-62v190h-390v60h452v-250z" />
    <glyph glyph-name="uni00AD" unicode="&#xad;" horiz-adv-x="333" 
d="M105 234l17 77h220l-17 -77h-220z" />
    <glyph glyph-name="registered" unicode="&#xae;" horiz-adv-x="400" 
d="M495 537q0 -76 -53.5 -129.5t-129.5 -53.5q-75 0 -128.5 53.5t-53.5 129.5t53 130t129 54t129.5 -54t53.5 -130zM467 537q0 65 -45.5 110t-109.5 45t-109 -45.5t-45 -109.5q0 -63 45.5 -109t108.5 -46q64 0 109.5 45.5t45.5 109.5zM399 444h-36q-5 12 -5 34t-10 31t-44 9
h-29v-74h-34v188h71q84 0 84 -54q0 -33 -35 -46q20 -8 26 -22.5t6.5 -34.5t5.5 -31zM361 576q0 28 -49 28h-37v-58h36q50 0 50 30z" />
    <glyph glyph-name="macron" unicode="&#xaf;" horiz-adv-x="278" 
d="M142 664h276l-12 -56h-276z" />
    <glyph glyph-name="degree" unicode="&#xb0;" horiz-adv-x="400" 
d="M480 555q0 -62 -44 -106t-106 -44t-106 44t-44 106q-1 61 43.5 105.5t106.5 44.5t106 -44.5t44 -105.5zM418 555q0 36 -26 62t-63 26q-36 0 -62 -26t-25 -62q0 -37 25.5 -62.5t62.5 -25.5q36 0 62 25.5t26 62.5z" />
    <glyph glyph-name="plusminus" unicode="&#xb1;" 
d="M500 266h-178v-173h-66v173h-178v60h178v174h66v-174h178v-60zM500 -10h-422v60h422v-60z" />
    <glyph glyph-name="twosuperior" unicode="&#xb2;" horiz-adv-x="293" 
d="M88 278l12 58l136 140q41 42 60 72t19 63q0 34 -35 34q-41 0 -54 -58l-2 -11h-72l3 14q12 57 43.5 84.5t87.5 27.5q45 0 72.5 -24.5t27.5 -63.5q0 -36 -16.5 -70t-34.5 -54t-57 -58l-94 -92h156l-13 -62h-239z" />
    <glyph glyph-name="threesuperior" unicode="&#xb3;" horiz-adv-x="293" 
d="M203 270q-102 0 -102 87q0 20 6 47h69q-6 -25 -6 -39q0 -36 41 -36q32 0 53 23.5t21 69.5q0 43 -60 43h-19l14 63q10 -1 19 -1q38 0 59.5 20t21.5 59q0 37 -41 37q-49 0 -60 -71h-70l4 20q10 53 45.5 81.5t86.5 28.5q52 0 78.5 -23t26.5 -64q0 -46 -19 -73.5t-62 -45.5
q44 -18 44 -68q0 -79 -41.5 -118.5t-108.5 -39.5z" />
    <glyph glyph-name="acute" unicode="&#xb4;" horiz-adv-x="278" 
d="M298 722h113l-159 -141h-69z" />
    <glyph glyph-name="mu" unicode="&#xb5;" 
d="M342 0l12 61h-3q-56 -71 -143 -71q-36 0 -51 10l-41 -191h-82l148 696h82l-75 -350q-10 -47 6.5 -74.5t58.5 -27.5q38 0 75 29.5t49 87.5l71 335h82l-85 -400q-10 -44 -17 -105h-87z" />
    <glyph glyph-name="paragraph" unicode="&#xb6;" horiz-adv-x="440" 
d="M601 712l-11 -53h-53l-177 -835h-64l177 835h-52l-177 -835h-64l92 435q-78 5 -122 52t-44 120q0 128 90.5 204.5t222.5 76.5h182z" />
    <glyph glyph-name="periodcentered" unicode="&#xb7;" horiz-adv-x="222" 
d="M233 347l-22 -104h-97l22 104h97z" />
    <glyph glyph-name="cedilla" unicode="&#xb8;" horiz-adv-x="278" 
d="M59 -105l-13 19l82 86h48l-59 -60l1 -2q18 6 32 6q35 0 54.5 -20.5t11.5 -55.5q-10 -47 -50 -70t-85 -23q-46 0 -94 22l25 40q38 -15 62 -15q22 0 41.5 9.5t23.5 30.5q4 20 -7.5 30.5t-32.5 10.5q-5 0 -40 -8z" />
    <glyph glyph-name="onesuperior" unicode="&#xb9;" horiz-adv-x="293" 
d="M187 278l71 336l-70 -39l15 70q49 20 82 51h61l-88 -418h-71z" />
    <glyph glyph-name="ordmasculine" unicode="&#xba;" horiz-adv-x="300" 
d="M243 417q-52 0 -76 20.5t-24 71.5q0 33 10 79q16 74 47.5 111.5t97.5 37.5q53 0 77.5 -21.5t24.5 -71.5q0 -32 -9 -77q-18 -83 -51.5 -116.5t-96.5 -33.5zM250 472q31 0 47 22.5t31 89.5q7 37 7 53q0 46 -39 46q-29 0 -45.5 -17.5t-29.5 -79.5q-11 -52 -11 -74
q0 -24 9 -32t31 -8z" />
    <glyph glyph-name="guillemotright" unicode="&#xbb;" horiz-adv-x="444" 
d="M465 254l-134 -196h-83l128 201l-38 188h72zM294 254l-134 -196h-83l128 201l-38 188h72z" />
    <glyph glyph-name="onequarter" unicode="&#xbc;" horiz-adv-x="754" 
d="M139 -30h-63l595 749h62zM176 278l71 336l-70 -39l15 70q49 20 82 51h61l-88 -418h-71zM558 0l21 101h-136l14 67l173 250h85l-54 -258h50l-13 -59h-50l-21 -101h-69zM516 160h77l35 166z" />
    <glyph glyph-name="onehalf" unicode="&#xbd;" horiz-adv-x="754" 
d="M138 -30h-63l595 749h62zM176 278l71 336l-70 -39l15 70q49 20 82 51h61l-88 -418h-71zM461 0l12 58l136 140q41 42 60 72t19 63q0 34 -35 34q-41 0 -54 -58l-2 -11h-72l3 14q12 57 43.5 84.5t87.5 27.5q45 0 72.5 -24.5t27.5 -63.5q0 -36 -16.5 -70t-34.5 -54t-57 -58
l-94 -92h156l-13 -62h-239z" />
    <glyph glyph-name="threequarters" unicode="&#xbe;" horiz-adv-x="754" 
d="M171 -30h-63l595 749h62zM574 0l21 101h-136l14 67l173 250h85l-54 -258h50l-13 -59h-50l-21 -101h-69zM532 160h77l35 166zM203 270q-102 0 -102 87q0 20 6 47h69q-6 -25 -6 -39q0 -36 41 -36q32 0 53 23.5t21 69.5q0 43 -60 43h-19l14 63q10 -1 19 -1q38 0 59.5 20
t21.5 59q0 37 -41 37q-49 0 -60 -71h-70l4 20q10 53 45.5 81.5t86.5 28.5q52 0 78.5 -23t26.5 -64q0 -46 -19 -73.5t-62 -45.5q44 -18 44 -68q0 -79 -41.5 -118.5t-108.5 -39.5z" />
    <glyph glyph-name="questiondown" unicode="&#xbf;" horiz-adv-x="444" 
d="M339 348l-24 -114q-6 -29 -32 -62t-54 -59.5t-56 -68t-37 -85.5q-9 -38 4 -68t50 -30q25 0 44.5 13.5t31 38t17 43t11.5 44.5h94q-37 -206 -218 -206q-76 0 -110 45t-18 122q10 46 32 86.5t47.5 67.5t50.5 50.5t43.5 46.5t22.5 43l19 93h82zM384 531l-22 -104h-94l22 104
h94z" />
    <glyph glyph-name="Agrave" unicode="&#xc0;" horiz-adv-x="611" 
d="M596 0h-98l-15 172h-279l-90 -172h-99l382 722h117zM476 250l-36 387l-198 -387h234zM386 939h102l66 -141h-65z" />
    <glyph glyph-name="Aacute" unicode="&#xc1;" horiz-adv-x="611" 
d="M596 0h-98l-15 172h-279l-90 -172h-99l382 722h117zM476 250l-36 387l-198 -387h234zM511 939h113l-159 -141h-69z" />
    <glyph glyph-name="Acircumflex" unicode="&#xc2;" horiz-adv-x="611" 
d="M596 0h-98l-15 172h-279l-90 -172h-99l382 722h117zM476 250l-36 387l-198 -387h234zM545 798l-46 94l-86 -94h-84l130 141h92l70 -141h-76z" />
    <glyph glyph-name="Atilde" unicode="&#xc3;" horiz-adv-x="611" 
d="M596 0h-98l-15 172h-279l-90 -172h-99l382 722h117zM476 250l-36 387l-198 -387h234zM618 911h51q-14 -45 -47 -76q-35 -33 -80 -33q-19 0 -68 19q-44 19 -68 19q-17 0 -33.5 -14t-22.5 -31h-46q15 49 47.5 78.5t79.5 29.5q30 0 72 -18q38 -19 55 -19q47 0 60 45z" />
    <glyph glyph-name="Adieresis" unicode="&#xc4;" horiz-adv-x="611" 
d="M596 0h-98l-15 172h-279l-90 -172h-99l382 722h117zM476 250l-36 387l-198 -387h234zM458 911l-22 -104h-94l22 104h94zM634 911l-22 -104h-94l22 104h94z" />
    <glyph glyph-name="Aring" unicode="&#xc5;" horiz-adv-x="611" 
d="M596 0h-98l-15 172h-279l-90 -172h-99l382 722h117zM476 250l-36 387l-198 -387h234zM478 787q-41 0 -63.5 24.5t-22.5 62.5q0 47 37 81t80 34q42 0 64.5 -24t22.5 -61q0 -49 -35.5 -83t-82.5 -34zM481 827q27 0 50 23.5t23 49.5q0 22 -13.5 35.5t-33.5 13.5
q-27 0 -50.5 -22.5t-23.5 -50.5q0 -49 48 -49z" />
    <glyph glyph-name="AE" unicode="&#xc6;" horiz-adv-x="833" 
d="M112 0h-97l317 722h448v-80h-297l31 -232h258v-80h-244l35 -250h227v-80h-306l-25 172h-274zM448 252l-55 396h-2l-169 -396h226z" />
    <glyph glyph-name="Ccedilla" unicode="&#xc7;" horiz-adv-x="556" 
d="M199 -105l-13 19l74 78q-139 15 -139 175q0 73 23 174l22 100q12 56 24 94t34 78t50.5 63.5t72.5 38.5t102 15q88 0 127 -33.5t39 -100.5q0 -31 -10 -79h-96q8 35 8 63q0 72 -83 72q-32 0 -57 -8t-43 -27t-29.5 -35t-21 -47.5t-14 -48.5t-11.5 -52l-32 -153
q-15 -75 -15 -111q0 -54 22 -78t70 -24q118 0 153 151h95q-25 -114 -80.5 -171t-165.5 -59l-48 -49l1 -2q18 6 32 6q35 0 54.5 -20.5t11.5 -55.5q-10 -47 -50 -70t-85 -23q-46 0 -94 22l25 40q38 -15 62 -15q22 0 41.5 9.5t23.5 30.5q4 20 -7.5 30.5t-32.5 10.5q-5 0 -40 -8
z" />
    <glyph glyph-name="Egrave" unicode="&#xc8;" 
d="M606 722l-17 -80h-280l-49 -232h260l-17 -79h-260l-53 -251h287l-17 -80h-379l153 722h372zM330 939h102l66 -141h-65z" />
    <glyph glyph-name="Eacute" unicode="&#xc9;" 
d="M606 722l-17 -80h-280l-49 -232h260l-17 -79h-260l-53 -251h287l-17 -80h-379l153 722h372zM455 939h113l-159 -141h-69z" />
    <glyph glyph-name="Ecircumflex" unicode="&#xca;" 
d="M606 722l-17 -80h-280l-49 -232h260l-17 -79h-260l-53 -251h287l-17 -80h-379l153 722h372zM489 798l-46 94l-86 -94h-84l130 141h92l70 -141h-76z" />
    <glyph glyph-name="Edieresis" unicode="&#xcb;" 
d="M606 722l-17 -80h-280l-49 -232h260l-17 -79h-260l-53 -251h287l-17 -80h-379l153 722h372zM402 911l-22 -104h-94l22 104h94zM578 911l-22 -104h-94l22 104h94z" />
    <glyph glyph-name="Igrave" unicode="&#xcc;" horiz-adv-x="278" 
d="M339 722l-153 -722h-93l153 722h93zM219 939h102l66 -141h-65z" />
    <glyph glyph-name="Iacute" unicode="&#xcd;" horiz-adv-x="278" 
d="M339 722l-153 -722h-93l153 722h93zM344 939h113l-159 -141h-69z" />
    <glyph glyph-name="Icircumflex" unicode="&#xce;" horiz-adv-x="278" 
d="M339 722l-153 -722h-93l153 722h93zM378 798l-46 94l-86 -94h-84l130 141h92l70 -141h-76z" />
    <glyph glyph-name="Idieresis" unicode="&#xcf;" horiz-adv-x="278" 
d="M339 722l-153 -722h-93l153 722h93zM291 911l-22 -104h-94l22 104h94zM467 911l-22 -104h-94l22 104h94z" />
    <glyph glyph-name="Eth" unicode="&#xd0;" horiz-adv-x="611" 
d="M95 408h74l67 314h210q101 0 144.5 -44.5t43.5 -124.5q0 -65 -30 -208q-14 -66 -27 -110t-33 -86t-44.5 -67.5t-60.5 -45t-84 -28t-111 -8.5h-161l70 333h-74zM541 533q0 60 -29 84.5t-99 24.5h-101l-50 -234h147l-16 -75h-147l-53 -253h71q65 0 104 11.5t68 47.5
t45.5 87t36.5 146q23 106 23 161z" />
    <glyph glyph-name="Ntilde" unicode="&#xd1;" horiz-adv-x="667" 
d="M734 722l-153 -722h-121l-158 626l-133 -626h-83l153 722h125l157 -618l131 618h82zM646 911h51q-14 -45 -47 -76q-35 -33 -80 -33q-19 0 -68 19q-44 19 -68 19q-17 0 -33.5 -14t-22.5 -31h-46q15 49 47.5 78.5t79.5 29.5q30 0 72 -18q38 -19 55 -19q47 0 60 45z" />
    <glyph glyph-name="Ograve" unicode="&#xd2;" horiz-adv-x="611" 
d="M639 563q0 -58 -19 -150l-15 -70q-32 -146 -53 -198q-51 -121 -163 -148q-38 -9 -83 -9q-183 0 -183 176q0 47 13 110l35 164q12 57 22.5 94t32 80.5t49 68.5t72.5 42t104 17q103 0 145.5 -46.5t42.5 -130.5zM549 557q0 104 -105 104q-69 0 -109 -42t-60 -135l-46 -214
q-13 -59 -13 -103q0 -54 24 -77.5t77 -23.5q38 0 66 11t46 28t32.5 52.5t23 67t20.5 89.5l23 110q21 100 21 133zM386 939h102l66 -141h-65z" />
    <glyph glyph-name="Oacute" unicode="&#xd3;" horiz-adv-x="611" 
d="M639 563q0 -58 -19 -150l-15 -70q-32 -146 -53 -198q-51 -121 -163 -148q-38 -9 -83 -9q-183 0 -183 176q0 47 13 110l35 164q12 57 22.5 94t32 80.5t49 68.5t72.5 42t104 17q103 0 145.5 -46.5t42.5 -130.5zM549 557q0 104 -105 104q-69 0 -109 -42t-60 -135l-46 -214
q-13 -59 -13 -103q0 -54 24 -77.5t77 -23.5q38 0 66 11t46 28t32.5 52.5t23 67t20.5 89.5l23 110q21 100 21 133zM511 939h113l-159 -141h-69z" />
    <glyph glyph-name="Ocircumflex" unicode="&#xd4;" horiz-adv-x="611" 
d="M639 563q0 -58 -19 -150l-15 -70q-32 -146 -53 -198q-51 -121 -163 -148q-38 -9 -83 -9q-183 0 -183 176q0 47 13 110l35 164q12 57 22.5 94t32 80.5t49 68.5t72.5 42t104 17q103 0 145.5 -46.5t42.5 -130.5zM549 557q0 104 -105 104q-69 0 -109 -42t-60 -135l-46 -214
q-13 -59 -13 -103q0 -54 24 -77.5t77 -23.5q38 0 66 11t46 28t32.5 52.5t23 67t20.5 89.5l23 110q21 100 21 133zM545 798l-46 94l-86 -94h-84l130 141h92l70 -141h-76z" />
    <glyph glyph-name="Otilde" unicode="&#xd5;" horiz-adv-x="611" 
d="M639 563q0 -58 -19 -150l-15 -70q-32 -146 -53 -198q-51 -121 -163 -148q-38 -9 -83 -9q-183 0 -183 176q0 47 13 110l35 164q12 57 22.5 94t32 80.5t49 68.5t72.5 42t104 17q103 0 145.5 -46.5t42.5 -130.5zM549 557q0 104 -105 104q-69 0 -109 -42t-60 -135l-46 -214
q-13 -59 -13 -103q0 -54 24 -77.5t77 -23.5q38 0 66 11t46 28t32.5 52.5t23 67t20.5 89.5l23 110q21 100 21 133zM618 911h51q-14 -45 -47 -76q-35 -33 -80 -33q-19 0 -68 19q-44 19 -68 19q-17 0 -33.5 -14t-22.5 -31h-46q15 49 47.5 78.5t79.5 29.5q30 0 72 -18
q38 -19 55 -19q47 0 60 45z" />
    <glyph glyph-name="Odieresis" unicode="&#xd6;" horiz-adv-x="611" 
d="M639 563q0 -58 -19 -150l-15 -70q-32 -146 -53 -198q-51 -121 -163 -148q-38 -9 -83 -9q-183 0 -183 176q0 47 13 110l35 164q12 57 22.5 94t32 80.5t49 68.5t72.5 42t104 17q103 0 145.5 -46.5t42.5 -130.5zM549 557q0 104 -105 104q-69 0 -109 -42t-60 -135l-46 -214
q-13 -59 -13 -103q0 -54 24 -77.5t77 -23.5q38 0 66 11t46 28t32.5 52.5t23 67t20.5 89.5l23 110q21 100 21 133zM458 911l-22 -104h-94l22 104h94zM634 911l-22 -104h-94l22 104h94z" />
    <glyph glyph-name="multiply" unicode="&#xd7;" 
d="M299 202l-159 -159l-50 50l159 160l-159 159l50 50l159 -159l160 159l50 -50l-159 -159l159 -160l-50 -50z" />
    <glyph glyph-name="Oslash" unicode="&#xd8;" horiz-adv-x="611" 
d="M20 -6l106 123q-3 23 -3 47q0 47 13 110l35 164q12 57 22.5 94t32 80.5t49 68.5t72.5 42t104 17q115 0 159 -63l63 73l54 -38l-91 -106q3 -21 3 -43q0 -58 -19 -150l-15 -70q-32 -146 -53 -198q-51 -121 -163 -148q-38 -9 -83 -9q-109 0 -152 60l-80 -92zM229 270
q-4 -14 -8 -43l322 373q-19 61 -99 61q-69 0 -109 -42t-60 -135zM528 424q13 64 15 75l-323 -374q15 -59 97 -59q38 0 66 11t46 28t32.5 52.5t23 67t20.5 89.5z" />
    <glyph glyph-name="Ugrave" unicode="&#xd9;" horiz-adv-x="611" 
d="M682 722l-102 -481q-12 -59 -31 -103t-50 -79.5t-78 -54t-109 -18.5q-92 0 -141 45t-49 126q0 29 8 67l105 498h92l-106 -501q-6 -30 -6 -54q0 -102 105 -102q75 0 113.5 44.5t55.5 124.5l103 488h90zM386 939h102l66 -141h-65z" />
    <glyph glyph-name="Uacute" unicode="&#xda;" horiz-adv-x="611" 
d="M682 722l-102 -481q-12 -59 -31 -103t-50 -79.5t-78 -54t-109 -18.5q-92 0 -141 45t-49 126q0 29 8 67l105 498h92l-106 -501q-6 -30 -6 -54q0 -102 105 -102q75 0 113.5 44.5t55.5 124.5l103 488h90zM511 939h113l-159 -141h-69z" />
    <glyph glyph-name="Ucircumflex" unicode="&#xdb;" horiz-adv-x="611" 
d="M682 722l-102 -481q-12 -59 -31 -103t-50 -79.5t-78 -54t-109 -18.5q-92 0 -141 45t-49 126q0 29 8 67l105 498h92l-106 -501q-6 -30 -6 -54q0 -102 105 -102q75 0 113.5 44.5t55.5 124.5l103 488h90zM545 798l-46 94l-86 -94h-84l130 141h92l70 -141h-76z" />
    <glyph glyph-name="Udieresis" unicode="&#xdc;" horiz-adv-x="611" 
d="M682 722l-102 -481q-12 -59 -31 -103t-50 -79.5t-78 -54t-109 -18.5q-92 0 -141 45t-49 126q0 29 8 67l105 498h92l-106 -501q-6 -30 -6 -54q0 -102 105 -102q75 0 113.5 44.5t55.5 124.5l103 488h90zM458 911l-22 -104h-94l22 104h94zM634 911l-22 -104h-94l22 104h94z
" />
    <glyph glyph-name="Yacute" unicode="&#xdd;" 
d="M645 722l-289 -432l-62 -290h-91l62 292l-104 430h98l68 -349l219 349h99zM455 939h113l-159 -141h-69z" />
    <glyph glyph-name="Thorn" unicode="&#xde;" horiz-adv-x="556" 
d="M93 0l153 722h92l-26 -122h122q201 0 157 -206q-12 -58 -41.5 -99.5t-67 -61.5t-70.5 -28.5t-65 -8.5h-121l-41 -196h-92zM295 520l-52 -244h101q19 0 37.5 4t44 15t45 37.5t27.5 66.5q9 33 3.5 55t-14 35t-23.5 20t-24.5 9t-17.5 2h-127z" />
    <glyph glyph-name="germandbls" unicode="&#xdf;" horiz-adv-x="556" 
d="M358 -11q-138 0 -138 100q0 14 4 36h86q-4 -18 -4 -24q0 -45 51 -45q42 0 66.5 36t24.5 79q0 29 -18.5 54.5t-40 41.5t-40 42.5t-18.5 58.5q0 34 18 59.5t56 61.5q23 22 36 36t25 36.5t12 43.5q0 31 -22 48t-59 17q-38 0 -63 -10.5t-38 -33t-17.5 -37t-10.5 -43.5
l-116 -546h-82l123 579q13 60 47.5 97t71.5 49t82 12q74 0 125.5 -32t51.5 -99q0 -34 -15.5 -62t-37.5 -45.5t-44.5 -33.5t-38 -34t-15.5 -39q0 -19 18 -43t40 -44.5t40 -56t18 -75.5q0 -81 -49.5 -132.5t-128.5 -51.5z" />
    <glyph glyph-name="agrave" unicode="&#xe0;" 
d="M495 406q0 -16 -5 -43l-55 -261q-12 -53 -12 -102h-85l12 73h-2q-55 -84 -147 -84q-51 0 -80 28.5t-29 81.5q0 214 269 214h37l6 32q7 33 7 49q0 60 -67 60q-45 0 -67.5 -23t-32.5 -68h-89q26 153 195 153q145 0 145 -110zM384 251q-13 1 -24 1q-83 0 -133 -28t-50 -104
q0 -63 65 -63q40 0 70 28t44 60.5t22 72.5q3 10 6 33zM452 579h-65l-103 141h102z" />
    <glyph glyph-name="aacute" unicode="&#xe1;" 
d="M495 406q0 -16 -5 -43l-55 -261q-12 -53 -12 -102h-85l12 73h-2q-55 -84 -147 -84q-51 0 -80 28.5t-29 81.5q0 214 269 214h37l6 32q7 33 7 49q0 60 -67 60q-45 0 -67.5 -23t-32.5 -68h-89q26 153 195 153q145 0 145 -110zM384 251q-13 1 -24 1q-83 0 -133 -28t-50 -104
q0 -63 65 -63q40 0 70 28t44 60.5t22 72.5q3 10 6 33zM409 722h113l-159 -141h-69z" />
    <glyph glyph-name="acircumflex" unicode="&#xe2;" 
d="M495 406q0 -16 -5 -43l-55 -261q-12 -53 -12 -102h-85l12 73h-2q-55 -84 -147 -84q-51 0 -80 28.5t-29 81.5q0 214 269 214h37l6 32q7 33 7 49q0 60 -67 60q-45 0 -67.5 -23t-32.5 -68h-89q26 153 195 153q145 0 145 -110zM384 251q-13 1 -24 1q-83 0 -133 -28t-50 -104
q0 -63 65 -63q40 0 70 28t44 60.5t22 72.5q3 10 6 33zM443 581l-46 94l-86 -94h-84l130 141h92l70 -141h-76z" />
    <glyph glyph-name="atilde" unicode="&#xe3;" 
d="M495 406q0 -16 -5 -43l-55 -261q-12 -53 -12 -102h-85l12 73h-2q-55 -84 -147 -84q-51 0 -80 28.5t-29 81.5q0 214 269 214h37l6 32q7 33 7 49q0 60 -67 60q-45 0 -67.5 -23t-32.5 -68h-89q26 153 195 153q145 0 145 -110zM384 251q-13 1 -24 1q-83 0 -133 -28t-50 -104
q0 -63 65 -63q40 0 70 28t44 60.5t22 72.5q3 10 6 33zM516 694h51q-14 -45 -47 -76q-35 -33 -80 -33q-19 0 -68 19q-44 19 -68 19q-17 0 -33.5 -14t-22.5 -31h-46q15 49 47.5 78.5t79.5 29.5q29 0 71 -18q40 -19 55 -19q46 0 61 45z" />
    <glyph glyph-name="adieresis" unicode="&#xe4;" 
d="M495 406q0 -16 -5 -43l-55 -261q-12 -53 -12 -102h-85l12 73h-2q-55 -84 -147 -84q-51 0 -80 28.5t-29 81.5q0 214 269 214h37l6 32q7 33 7 49q0 60 -67 60q-45 0 -67.5 -23t-32.5 -68h-89q26 153 195 153q145 0 145 -110zM384 251q-13 1 -24 1q-83 0 -133 -28t-50 -104
q0 -63 65 -63q40 0 70 28t44 60.5t22 72.5q3 10 6 33zM356 694l-22 -104h-94l22 104h94zM532 694l-22 -104h-94l22 104h94z" />
    <glyph glyph-name="aring" unicode="&#xe5;" 
d="M495 406q0 -16 -5 -43l-55 -261q-12 -53 -12 -102h-85l12 73h-2q-55 -84 -147 -84q-51 0 -80 28.5t-29 81.5q0 214 269 214h37l6 32q7 33 7 49q0 60 -67 60q-45 0 -67.5 -23t-32.5 -68h-89q26 153 195 153q145 0 145 -110zM384 251q-13 1 -24 1q-83 0 -133 -28t-50 -104
q0 -63 65 -63q40 0 70 28t44 60.5t22 72.5q3 10 6 33zM376 570q-41 0 -63.5 24.5t-22.5 62.5q0 47 37 81t80 34q42 0 64.5 -24t22.5 -61q0 -49 -35.5 -83t-82.5 -34zM379 610q27 0 50 23.5t23 49.5q0 22 -13.5 35.5t-33.5 13.5q-27 0 -50.5 -22.5t-23.5 -50.5q0 -49 48 -49z
" />
    <glyph glyph-name="ae" unicode="&#xe6;" horiz-adv-x="778" 
d="M762 240h-283q-14 -68 -14 -97q0 -86 83 -86q42 0 69.5 28.5t35.5 76.5h89q-6 -35 -17.5 -62t-34.5 -54t-63 -41.5t-96 -14.5q-58 0 -95.5 24.5t-43.5 66.5q-60 -91 -175 -91q-60 0 -92.5 32t-32.5 87q0 45 12 79t36.5 54t49.5 33t63 18.5t64 7t65 1.5h23l9 44q5 23 5 39
q0 68 -76 68q-41 0 -67 -25t-31 -65h-89q13 81 61.5 116.5t132.5 35.5q120 0 137 -73h2q38 73 135 73q158 0 158 -149q0 -53 -20 -126zM392 240h-31q-51 0 -86 -7.5t-63 -36.5t-28 -80q0 -59 65 -59q48 0 86.5 37.5t56.5 145.5zM492 302h196q9 40 9 67q0 84 -77 84
q-96 0 -128 -151z" />
    <glyph glyph-name="ccedilla" unicode="&#xe7;" 
d="M165 -105l-13 19l74 79q-113 14 -113 146q0 44 14 109q32 149 84 208t152 59q138 0 138 -118q0 -25 -6 -54h-85q5 28 5 44q0 61 -63 61q-58 0 -88.5 -50.5t-50.5 -145.5q-14 -65 -14 -104q0 -89 67 -89q45 0 72.5 30.5t37.5 78.5h86q-16 -79 -64.5 -126.5t-125.5 -51.5
l-49 -50l1 -2q18 6 32 6q35 0 54.5 -20.5t11.5 -55.5q-10 -47 -50 -70t-85 -23q-46 0 -94 22l25 40q37 -15 62 -15q22 0 41.5 9.5t23.5 30.5q4 20 -7.5 30.5t-32.5 10.5q-5 0 -40 -8z" />
    <glyph glyph-name="egrave" unicode="&#xe8;" 
d="M508 375q0 -45 -12 -98l-11 -51h-285q-12 -54 -12 -89q0 -82 73 -82q82 0 114 98h90q-21 -84 -70.5 -124.5t-136.5 -40.5q-85 0 -120.5 38.5t-35.5 109.5q0 53 16 125q30 140 81.5 198.5t150.5 58.5q85 0 121.5 -37t36.5 -106zM422 370q0 83 -77 83q-32 0 -56 -15.5
t-39 -43.5t-22.5 -51.5t-14.5 -54.5h197q12 54 12 82zM422 579h-65l-103 141h102z" />
    <glyph glyph-name="eacute" unicode="&#xe9;" 
d="M508 375q0 -45 -12 -98l-11 -51h-285q-12 -54 -12 -89q0 -82 73 -82q82 0 114 98h90q-21 -84 -70.5 -124.5t-136.5 -40.5q-85 0 -120.5 38.5t-35.5 109.5q0 53 16 125q30 140 81.5 198.5t150.5 58.5q85 0 121.5 -37t36.5 -106zM422 370q0 83 -77 83q-32 0 -56 -15.5
t-39 -43.5t-22.5 -51.5t-14.5 -54.5h197q12 54 12 82zM409 722h113l-159 -141h-69z" />
    <glyph glyph-name="ecircumflex" unicode="&#xea;" 
d="M508 375q0 -45 -12 -98l-11 -51h-285q-12 -54 -12 -89q0 -82 73 -82q82 0 114 98h90q-21 -84 -70.5 -124.5t-136.5 -40.5q-85 0 -120.5 38.5t-35.5 109.5q0 53 16 125q30 140 81.5 198.5t150.5 58.5q85 0 121.5 -37t36.5 -106zM422 370q0 83 -77 83q-32 0 -56 -15.5
t-39 -43.5t-22.5 -51.5t-14.5 -54.5h197q12 54 12 82zM443 581l-46 94l-86 -94h-84l130 141h92l70 -141h-76z" />
    <glyph glyph-name="edieresis" unicode="&#xeb;" 
d="M508 375q0 -45 -12 -98l-11 -51h-285q-12 -54 -12 -89q0 -82 73 -82q82 0 114 98h90q-21 -84 -70.5 -124.5t-136.5 -40.5q-85 0 -120.5 38.5t-35.5 109.5q0 53 16 125q30 140 81.5 198.5t150.5 58.5q85 0 121.5 -37t36.5 -106zM422 370q0 83 -77 83q-32 0 -56 -15.5
t-39 -43.5t-22.5 -51.5t-14.5 -54.5h197q12 54 12 82zM356 694l-22 -104h-94l22 104h94zM532 694l-22 -104h-94l22 104h94z" />
    <glyph glyph-name="igrave" unicode="&#xec;" horiz-adv-x="222" 
d="M152 0h-82l107 505h82zM313 579h-65l-103 141h102z" />
    <glyph glyph-name="iacute" unicode="&#xed;" horiz-adv-x="222" 
d="M152 0h-82l107 505h82zM270 722h113l-159 -141h-69z" />
    <glyph glyph-name="icircumflex" unicode="&#xee;" horiz-adv-x="222" 
d="M152 0h-82l107 505h82zM304 581l-46 94l-86 -94h-84l130 141h92l70 -141h-76z" />
    <glyph glyph-name="idieresis" unicode="&#xef;" horiz-adv-x="222" 
d="M152 0h-82l107 505h82zM217 694l-22 -104h-94l22 104h94zM393 694l-22 -104h-94l22 104h94z" />
    <glyph glyph-name="eth" unicode="&#xf0;" 
d="M261 570l-25 30l93 49q-34 35 -71 57l65 47q44 -25 83 -64l105 55l23 -33l-103 -53q82 -106 82 -246q0 -78 -22 -181q-17 -79 -41.5 -129.5t-58 -73.5t-63.5 -30.5t-74 -7.5q-74 0 -114.5 34t-40.5 120q0 53 14 116q26 120 73 182.5t137 62.5q43 0 63.5 -9t39.5 -28l2 2
q-8 69 -69 151zM261 56q62 0 94.5 47.5t58.5 170.5q10 46 10 80q0 48 -21 66.5t-60 18.5q-52 0 -86.5 -35t-54.5 -130q-19 -89 -19 -133q0 -46 18.5 -65.5t59.5 -19.5z" />
    <glyph glyph-name="ntilde" unicode="&#xf1;" 
d="M512 411q0 -26 -8 -63l-74 -348h-86l71 335q7 32 7 51q0 63 -66 63q-53 0 -85.5 -35t-43.5 -90l-69 -324h-86l94 440l11 65h87l-13 -65q53 75 144 75q117 0 117 -104zM516 694h51q-14 -45 -47 -76q-35 -33 -80 -33q-19 0 -68 19q-44 19 -68 19q-17 0 -33.5 -14t-22.5 -31
h-46q15 49 47.5 78.5t79.5 29.5q29 0 71 -18q40 -19 55 -19q46 0 61 45z" />
    <glyph glyph-name="ograve" unicode="&#xf2;" 
d="M511 374q0 -52 -16 -126q-13 -64 -27.5 -105t-41.5 -80t-70.5 -58t-105.5 -19q-85 0 -120 37.5t-35 106.5q0 45 16 125q11 52 20.5 85t28 70.5t42 59t61.5 35.5t88 14q87 0 123.5 -37.5t36.5 -107.5zM425 366q0 85 -77 85q-26 0 -47 -8t-36 -25.5t-24.5 -32t-18 -43
t-12 -41.5t-9.5 -43q-19 -91 -19 -121q0 -82 79 -82q26 0 46.5 8t35.5 26.5t25 34t19 47t13 48.5l12 53q13 65 13 94zM452 579h-65l-103 141h102z" />
    <glyph glyph-name="oacute" unicode="&#xf3;" 
d="M511 374q0 -52 -16 -126q-13 -64 -27.5 -105t-41.5 -80t-70.5 -58t-105.5 -19q-85 0 -120 37.5t-35 106.5q0 45 16 125q11 52 20.5 85t28 70.5t42 59t61.5 35.5t88 14q87 0 123.5 -37.5t36.5 -107.5zM425 366q0 85 -77 85q-26 0 -47 -8t-36 -25.5t-24.5 -32t-18 -43
t-12 -41.5t-9.5 -43q-19 -91 -19 -121q0 -82 79 -82q26 0 46.5 8t35.5 26.5t25 34t19 47t13 48.5l12 53q13 65 13 94zM409 722h113l-159 -141h-69z" />
    <glyph glyph-name="ocircumflex" unicode="&#xf4;" 
d="M511 374q0 -52 -16 -126q-13 -64 -27.5 -105t-41.5 -80t-70.5 -58t-105.5 -19q-85 0 -120 37.5t-35 106.5q0 45 16 125q11 52 20.5 85t28 70.5t42 59t61.5 35.5t88 14q87 0 123.5 -37.5t36.5 -107.5zM425 366q0 85 -77 85q-26 0 -47 -8t-36 -25.5t-24.5 -32t-18 -43
t-12 -41.5t-9.5 -43q-19 -91 -19 -121q0 -82 79 -82q26 0 46.5 8t35.5 26.5t25 34t19 47t13 48.5l12 53q13 65 13 94zM443 581l-46 94l-86 -94h-84l130 141h92l70 -141h-76z" />
    <glyph glyph-name="otilde" unicode="&#xf5;" 
d="M511 374q0 -52 -16 -126q-13 -64 -27.5 -105t-41.5 -80t-70.5 -58t-105.5 -19q-85 0 -120 37.5t-35 106.5q0 45 16 125q11 52 20.5 85t28 70.5t42 59t61.5 35.5t88 14q87 0 123.5 -37.5t36.5 -107.5zM425 366q0 85 -77 85q-26 0 -47 -8t-36 -25.5t-24.5 -32t-18 -43
t-12 -41.5t-9.5 -43q-19 -91 -19 -121q0 -82 79 -82q26 0 46.5 8t35.5 26.5t25 34t19 47t13 48.5l12 53q13 65 13 94zM516 694h51q-14 -45 -47 -76q-35 -33 -80 -33q-19 0 -68 19q-44 19 -68 19q-17 0 -33.5 -14t-22.5 -31h-46q15 49 47.5 78.5t79.5 29.5q29 0 71 -18
q40 -19 55 -19q46 0 61 45z" />
    <glyph glyph-name="odieresis" unicode="&#xf6;" 
d="M511 374q0 -52 -16 -126q-13 -64 -27.5 -105t-41.5 -80t-70.5 -58t-105.5 -19q-85 0 -120 37.5t-35 106.5q0 45 16 125q11 52 20.5 85t28 70.5t42 59t61.5 35.5t88 14q87 0 123.5 -37.5t36.5 -107.5zM425 366q0 85 -77 85q-26 0 -47 -8t-36 -25.5t-24.5 -32t-18 -43
t-12 -41.5t-9.5 -43q-19 -91 -19 -121q0 -82 79 -82q26 0 46.5 8t35.5 26.5t25 34t19 47t13 48.5l12 53q13 65 13 94zM356 694l-22 -104h-94l22 104h94zM532 694l-22 -104h-94l22 104h94z" />
    <glyph glyph-name="divide" unicode="&#xf7;" 
d="M338 377h-94v104h94v-104zM498 217h-412v65h412v-65zM338 18h-94v104h94v-104z" />
    <glyph glyph-name="oslash" unicode="&#xf8;" 
d="M61 -44l-41 38l80 86q-5 19 -5 50q0 45 16 125q11 52 20.5 85t28 70.5t42 59t61.5 35.5t88 14q84 0 123 -37l60 65l42 -37l-72 -78q7 -25 7 -58q0 -52 -16 -126q-13 -64 -27.5 -105t-41.5 -80t-70.5 -58t-105.5 -19q-87 0 -123 41zM412 272q11 64 12 74l-235 -253
q16 -38 72 -38q26 0 46.5 8t35.5 26.5t25 34t19 47t13 48.5zM201 258q-14 -64 -17 -88l230 248q-18 33 -66 33q-26 0 -47 -8t-36 -25.5t-24.5 -32t-18 -43t-12 -41.5t-9.5 -43z" />
    <glyph glyph-name="ugrave" unicode="&#xf9;" 
d="M530 505l-93 -440l-12 -65h-85l13 61h-3q-57 -69 -147 -69q-51 0 -77 28t-26 78q0 24 6 51l75 356h85l-78 -368q-2 -12 -2 -18q0 -28 18.5 -45t49.5 -17q42 0 75 32t44 82l71 334h86zM432 579h-65l-103 141h102z" />
    <glyph glyph-name="uacute" unicode="&#xfa;" 
d="M530 505l-93 -440l-12 -65h-85l13 61h-3q-57 -69 -147 -69q-51 0 -77 28t-26 78q0 24 6 51l75 356h85l-78 -368q-2 -12 -2 -18q0 -28 18.5 -45t49.5 -17q42 0 75 32t44 82l71 334h86zM409 722h113l-159 -141h-69z" />
    <glyph glyph-name="ucircumflex" unicode="&#xfb;" 
d="M530 505l-93 -440l-12 -65h-85l13 61h-3q-57 -69 -147 -69q-51 0 -77 28t-26 78q0 24 6 51l75 356h85l-78 -368q-2 -12 -2 -18q0 -28 18.5 -45t49.5 -17q42 0 75 32t44 82l71 334h86zM443 581l-46 94l-86 -94h-84l130 141h92l70 -141h-76z" />
    <glyph glyph-name="udieresis" unicode="&#xfc;" 
d="M530 505l-93 -440l-12 -65h-85l13 61h-3q-57 -69 -147 -69q-51 0 -77 28t-26 78q0 24 6 51l75 356h85l-78 -368q-2 -12 -2 -18q0 -28 18.5 -45t49.5 -17q42 0 75 32t44 82l71 334h86zM356 694l-22 -104h-94l22 104h94zM532 694l-22 -104h-94l22 104h94z" />
    <glyph glyph-name="yacute" unicode="&#xfd;" horiz-adv-x="444" 
d="M543 505l-378 -697h-89l101 195l-63 502h91l36 -411l209 411h93zM381 722h113l-159 -141h-69z" />
    <glyph glyph-name="thorn" unicode="&#xfe;" 
d="M38 -191l194 913h82l-59 -277h2q57 70 124 70q132 0 132 -135q0 -66 -20 -151.5t-51 -142.5t-69.5 -76.5t-86.5 -19.5q-82 0 -112 61h-3l-51 -242h-82zM219 273q-21 -94 -21 -128q0 -88 74 -88q27 0 49 13t35 29.5t24.5 46.5t15.5 47.5l11 49.5q18 83 18 125
q0 41 -17 60.5t-57 19.5q-32 0 -56 -16.5t-39 -47.5t-22 -53.5t-15 -57.5z" />
    <glyph glyph-name="ydieresis" unicode="&#xff;" horiz-adv-x="444" 
d="M543 505l-378 -697h-89l101 195l-63 502h91l36 -411l209 411h93zM328 694l-22 -104h-94l22 104h94zM504 694l-22 -104h-94l22 104h94z" />
    <glyph glyph-name="Amacron" unicode="&#x100;" horiz-adv-x="611" 
d="M596 0h-98l-15 172h-279l-90 -172h-99l382 722h117zM476 250l-36 387l-198 -387h234zM350 881h276l-12 -56h-276z" />
    <glyph glyph-name="amacron" unicode="&#x101;" 
d="M495 406q0 -16 -5 -43l-55 -261q-12 -53 -12 -102h-85l12 73h-2q-55 -84 -147 -84q-51 0 -80 28.5t-29 81.5q0 214 269 214h37l6 32q7 33 7 49q0 60 -67 60q-45 0 -67.5 -23t-32.5 -68h-89q26 153 195 153q145 0 145 -110zM384 251q-13 1 -24 1q-83 0 -133 -28t-50 -104
q0 -63 65 -63q40 0 70 28t44 60.5t22 72.5q3 10 6 33zM254 664h276l-12 -56h-276z" />
    <glyph glyph-name="Abreve" unicode="&#x102;" horiz-adv-x="611" 
d="M596 0h-98l-15 172h-279l-90 -172h-99l382 722h117zM476 250l-36 387l-198 -387h234zM346 939h49q-1 -40 22.5 -59.5t65.5 -19.5q88 0 122 79h49q-21 -64 -68 -99.5t-112 -35.5q-149 0 -128 135z" />
    <glyph glyph-name="abreve" unicode="&#x103;" 
d="M495 406q0 -16 -5 -43l-55 -261q-12 -53 -12 -102h-85l12 73h-2q-55 -84 -147 -84q-51 0 -80 28.5t-29 81.5q0 214 269 214h37l6 32q7 33 7 49q0 60 -67 60q-45 0 -67.5 -23t-32.5 -68h-89q26 153 195 153q145 0 145 -110zM384 251q-13 1 -24 1q-83 0 -133 -28t-50 -104
q0 -63 65 -63q40 0 70 28t44 60.5t22 72.5q3 10 6 33zM250 722h49q-1 -40 22.5 -59.5t65.5 -19.5q88 0 122 79h49q-21 -64 -68 -99.5t-112 -35.5q-149 0 -128 135z" />
    <glyph glyph-name="Aogonek" unicode="&#x104;" horiz-adv-x="611" 
d="M571 -115l-11 -54q-64 -22 -112 -22q-41 0 -68.5 23t-18.5 68q7 34 52 61.5t91 38.5h-6l-15 172h-279l-90 -172h-99l382 722h117l82 -722h-33q-50 -16 -81 -39.5t-36 -45.5q-5 -25 5.5 -37.5t30.5 -12.5q27 0 89 20zM476 250l-36 387l-198 -387h234z" />
    <glyph glyph-name="aogonek" unicode="&#x105;" 
d="M405 -115l-11 -54q-64 -22 -112 -22q-41 0 -68.5 23t-18.5 68q7 34 52 61.5t91 38.5l12 73h-2q-55 -84 -147 -84q-51 0 -80 28.5t-29 81.5q0 214 269 214h37l6 32q7 33 7 49q0 60 -67 60q-45 0 -67.5 -23t-32.5 -68h-89q26 153 195 153q145 0 145 -110q0 -16 -5 -43
l-55 -261q-12 -53 -12 -102h-26q-50 -16 -81 -39.5t-36 -45.5q-5 -25 5.5 -37.5t30.5 -12.5q27 0 89 20zM384 251q-13 1 -24 1q-83 0 -133 -28t-50 -104q0 -63 65 -63q40 0 70 28t44 60.5t22 72.5q3 10 6 33z" />
    <glyph glyph-name="Cacute" unicode="&#x106;" horiz-adv-x="556" 
d="M615 596q0 -31 -10 -79h-96q8 35 8 63q0 72 -83 72q-32 0 -57 -8t-43 -27t-29.5 -35t-21 -47.5t-14 -48.5t-11.5 -52l-32 -153q-15 -75 -15 -111q0 -54 22 -78t70 -24q118 0 153 151h95q-25 -116 -82.5 -173t-171.5 -57q-97 0 -136.5 47.5t-39.5 130.5q0 73 23 174
l22 100q12 56 24 94t34 78t50.5 63.5t72.5 38.5t102 15q88 0 127 -33.5t39 -100.5zM512 939h113l-159 -141h-69z" />
    <glyph glyph-name="cacute" unicode="&#x107;" 
d="M501 397q0 -25 -6 -54h-85q5 28 5 44q0 61 -63 61q-58 0 -88.5 -50.5t-50.5 -145.5q-14 -65 -14 -104q0 -89 67 -89q45 0 72.5 30.5t37.5 78.5h86q-17 -82 -68 -130t-133 -48q-148 0 -148 149q0 44 14 109q32 149 84 208t152 59q138 0 138 -118zM427 722h113l-159 -141
h-69z" />
    <glyph glyph-name="Ccircumflex" unicode="&#x108;" horiz-adv-x="556" 
d="M615 596q0 -31 -10 -79h-96q8 35 8 63q0 72 -83 72q-32 0 -57 -8t-43 -27t-29.5 -35t-21 -47.5t-14 -48.5t-11.5 -52l-32 -153q-15 -75 -15 -111q0 -54 22 -78t70 -24q118 0 153 151h95q-25 -116 -82.5 -173t-171.5 -57q-97 0 -136.5 47.5t-39.5 130.5q0 73 23 174
l22 100q12 56 24 94t34 78t50.5 63.5t72.5 38.5t102 15q88 0 127 -33.5t39 -100.5zM532 798l-46 94l-86 -94h-84l130 141h92l70 -141h-76z" />
    <glyph glyph-name="ccircumflex" unicode="&#x109;" 
d="M501 397q0 -25 -6 -54h-85q5 28 5 44q0 61 -63 61q-58 0 -88.5 -50.5t-50.5 -145.5q-14 -65 -14 -104q0 -89 67 -89q45 0 72.5 30.5t37.5 78.5h86q-17 -82 -68 -130t-133 -48q-148 0 -148 149q0 44 14 109q32 149 84 208t152 59q138 0 138 -118zM446 581l-46 94l-86 -94
h-84l130 141h92l70 -141h-76z" />
    <glyph glyph-name="Cdotaccent" unicode="&#x10a;" horiz-adv-x="556" 
d="M615 596q0 -31 -10 -79h-96q8 35 8 63q0 72 -83 72q-32 0 -57 -8t-43 -27t-29.5 -35t-21 -47.5t-14 -48.5t-11.5 -52l-32 -153q-15 -75 -15 -111q0 -54 22 -78t70 -24q118 0 153 151h95q-25 -116 -82.5 -173t-171.5 -57q-97 0 -136.5 47.5t-39.5 130.5q0 73 23 174
l22 100q12 56 24 94t34 78t50.5 63.5t72.5 38.5t102 15q88 0 127 -33.5t39 -100.5zM533 911l-22 -104h-94l22 104h94z" />
    <glyph glyph-name="cdotaccent" unicode="&#x10b;" 
d="M501 397q0 -25 -6 -54h-85q5 28 5 44q0 61 -63 61q-58 0 -88.5 -50.5t-50.5 -145.5q-14 -65 -14 -104q0 -89 67 -89q45 0 72.5 30.5t37.5 78.5h86q-17 -82 -68 -130t-133 -48q-148 0 -148 149q0 44 14 109q32 149 84 208t152 59q138 0 138 -118zM447 694l-22 -104h-94
l22 104h94z" />
    <glyph glyph-name="Ccaron" unicode="&#x10c;" horiz-adv-x="556" 
d="M615 596q0 -31 -10 -79h-96q8 35 8 63q0 72 -83 72q-32 0 -57 -8t-43 -27t-29.5 -35t-21 -47.5t-14 -48.5t-11.5 -52l-32 -153q-15 -75 -15 -111q0 -54 22 -78t70 -24q118 0 153 151h95q-25 -116 -82.5 -173t-171.5 -57q-97 0 -136.5 47.5t-39.5 130.5q0 73 23 174
l22 100q12 56 24 94t34 78t50.5 63.5t72.5 38.5t102 15q88 0 127 -33.5t39 -100.5zM554 939h84l-130 -141h-92l-70 141h76l46 -94z" />
    <glyph glyph-name="ccaron" unicode="&#x10d;" 
d="M501 397q0 -25 -6 -54h-85q5 28 5 44q0 61 -63 61q-58 0 -88.5 -50.5t-50.5 -145.5q-14 -65 -14 -104q0 -89 67 -89q45 0 72.5 30.5t37.5 78.5h86q-17 -82 -68 -130t-133 -48q-148 0 -148 149q0 44 14 109q32 149 84 208t152 59q138 0 138 -118zM468 722h84l-130 -141
h-92l-70 141h76l46 -94z" />
    <glyph glyph-name="Dcaron" unicode="&#x10e;" horiz-adv-x="611" 
d="M634 553q0 -65 -30 -208q-14 -66 -27 -110t-33 -86t-44.5 -67.5t-60.5 -45t-84 -28t-111 -8.5h-161l153 722h210q101 0 144.5 -44.5t43.5 -124.5zM541 533q0 60 -29 84.5t-99 24.5h-101l-119 -562h71q65 0 104 11.5t68 47.5t45.5 87t36.5 146q23 106 23 161zM524 939h84
l-130 -141h-92l-70 141h76l46 -94z" />
    <glyph glyph-name="dcaron" unicode="&#x10f;" 
d="M573 722l-153 -722h-85l13 60q-48 -69 -120 -69q-131 0 -131 153q0 49 10 93q12 55 20 86.5t25.5 73.5t39 64t57 38t81.5 16q40 0 61.5 -14t38.5 -47l57 268h86zM409 361q0 87 -74 87q-27 0 -48.5 -12t-34.5 -29t-24.5 -47t-17.5 -52.5t-14 -59.5q-14 -63 -14 -102
q0 -87 75 -87q27 0 49 14t34.5 30.5t25 51t16.5 52.5l13 58q14 68 14 96zM734 722l-84 -141h-50l43 141h91z" />
    <glyph glyph-name="Dcroat" unicode="&#x110;" horiz-adv-x="611" 
d="M95 408h74l67 314h210q101 0 144.5 -44.5t43.5 -124.5q0 -65 -30 -208q-14 -66 -27 -110t-33 -86t-44.5 -67.5t-60.5 -45t-84 -28t-111 -8.5h-161l70 333h-74zM541 533q0 60 -29 84.5t-99 24.5h-101l-50 -234h147l-16 -75h-147l-53 -253h71q65 0 104 11.5t68 47.5
t45.5 87t36.5 146q23 106 23 161z" />
    <glyph glyph-name="dcroat" unicode="&#x111;" 
d="M312 635h156l19 87h86l-19 -87h80l-13 -62h-80l-121 -573h-85l13 60q-48 -69 -120 -69q-131 0 -131 153q0 49 10 93q12 55 20 86.5t25.5 73.5t39 64t57 38t81.5 16q40 0 61.5 -14t38.5 -47l25 119h-156zM409 361q0 87 -74 87q-27 0 -48.5 -12t-34.5 -29t-24.5 -47
t-17.5 -52.5t-14 -59.5q-14 -63 -14 -102q0 -87 75 -87q27 0 49 14t34.5 30.5t25 51t16.5 52.5l13 58q14 68 14 96z" />
    <glyph glyph-name="Emacron" unicode="&#x112;" 
d="M606 722l-17 -80h-280l-49 -232h260l-17 -79h-260l-53 -251h287l-17 -80h-379l153 722h372zM298 881h276l-12 -56h-276z" />
    <glyph glyph-name="emacron" unicode="&#x113;" 
d="M508 375q0 -45 -12 -98l-11 -51h-285q-12 -54 -12 -89q0 -82 73 -82q82 0 114 98h90q-21 -84 -70.5 -124.5t-136.5 -40.5q-85 0 -120.5 38.5t-35.5 109.5q0 53 16 125q30 140 81.5 198.5t150.5 58.5q85 0 121.5 -37t36.5 -106zM422 370q0 83 -77 83q-32 0 -56 -15.5
t-39 -43.5t-22.5 -51.5t-14.5 -54.5h197q12 54 12 82zM250 664h276l-12 -56h-276z" />
    <glyph glyph-name="Ebreve" unicode="&#x114;" 
d="M606 722l-17 -80h-280l-49 -232h260l-17 -79h-260l-53 -251h287l-17 -80h-379l153 722h372zM294 939h49q-1 -40 22.5 -59.5t65.5 -19.5q88 0 122 79h49q-21 -64 -68 -99.5t-112 -35.5q-149 0 -128 135z" />
    <glyph glyph-name="ebreve" unicode="&#x115;" 
d="M508 375q0 -45 -12 -98l-11 -51h-285q-12 -54 -12 -89q0 -82 73 -82q82 0 114 98h90q-21 -84 -70.5 -124.5t-136.5 -40.5q-85 0 -120.5 38.5t-35.5 109.5q0 53 16 125q30 140 81.5 198.5t150.5 58.5q85 0 121.5 -37t36.5 -106zM422 370q0 83 -77 83q-32 0 -56 -15.5
t-39 -43.5t-22.5 -51.5t-14.5 -54.5h197q12 54 12 82zM246 722h49q-1 -40 22.5 -59.5t65.5 -19.5q88 0 122 79h49q-21 -64 -68 -99.5t-112 -35.5q-149 0 -128 135z" />
    <glyph glyph-name="Edotaccent" unicode="&#x116;" 
d="M606 722l-17 -80h-280l-49 -232h260l-17 -79h-260l-53 -251h287l-17 -80h-379l153 722h372zM489 911l-22 -104h-94l22 104h94z" />
    <glyph glyph-name="edotaccent" unicode="&#x117;" 
d="M508 375q0 -45 -12 -98l-11 -51h-285q-12 -54 -12 -89q0 -82 73 -82q82 0 114 98h90q-21 -84 -70.5 -124.5t-136.5 -40.5q-85 0 -120.5 38.5t-35.5 109.5q0 53 16 125q30 140 81.5 198.5t150.5 58.5q85 0 121.5 -37t36.5 -106zM422 370q0 83 -77 83q-32 0 -56 -15.5
t-39 -43.5t-22.5 -51.5t-14.5 -54.5h197q12 54 12 82zM441 694l-22 -104h-94l22 104h94z" />
    <glyph glyph-name="Eogonek" unicode="&#x118;" 
d="M435 -115l-11 -54q-64 -22 -112 -22q-41 0 -68.5 23t-18.5 68q7 34 52 61.5t91 38.5h-287l153 722h372l-17 -80h-280l-49 -232h260l-17 -79h-260l-53 -251h287l-17 -80h-33q-50 -16 -81 -39.5t-36 -45.5q-5 -25 5.5 -37.5t30.5 -12.5q27 0 89 20z" />
    <glyph glyph-name="eogonek" unicode="&#x119;" 
d="M342 -115l-11 -54q-64 -22 -112 -22q-41 0 -68.5 23t-18.5 68q6 27 36 50.5t70 38.5q-136 8 -136 147q0 53 16 125q30 140 81.5 198.5t150.5 58.5q85 0 121.5 -37t36.5 -106q0 -45 -12 -98l-11 -51h-285q-12 -54 -12 -89q0 -82 73 -82q82 0 114 98h90q-35 -140 -153 -160
q-41 -16 -66 -37t-29 -41q-5 -25 5.5 -37.5t30.5 -12.5q27 0 89 20zM422 370q0 83 -77 83q-32 0 -56 -15.5t-39 -43.5t-22.5 -51.5t-14.5 -54.5h197q12 54 12 82z" />
    <glyph glyph-name="Ecaron" unicode="&#x11a;" 
d="M606 722l-17 -80h-280l-49 -232h260l-17 -79h-260l-53 -251h287l-17 -80h-379l153 722h372zM510 939h84l-130 -141h-92l-70 141h76l46 -94z" />
    <glyph glyph-name="ecaron" unicode="&#x11b;" 
d="M508 375q0 -45 -12 -98l-11 -51h-285q-12 -54 -12 -89q0 -82 73 -82q82 0 114 98h90q-21 -84 -70.5 -124.5t-136.5 -40.5q-85 0 -120.5 38.5t-35.5 109.5q0 53 16 125q30 140 81.5 198.5t150.5 58.5q85 0 121.5 -37t36.5 -106zM422 370q0 83 -77 83q-32 0 -56 -15.5
t-39 -43.5t-22.5 -51.5t-14.5 -54.5h197q12 54 12 82zM462 722h84l-130 -141h-92l-70 141h76l46 -94z" />
    <glyph glyph-name="Gcircumflex" unicode="&#x11c;" horiz-adv-x="611" 
d="M644 602q0 -32 -9 -73h-96q6 25 6 46q0 86 -95 86q-42 0 -71.5 -11t-49 -32.5t-33.5 -56t-25 -78.5t-24 -104q-2 -14 -4 -21q-31 -149 -31 -187q0 -53 27 -80.5t91 -27.5q68 0 117 31l45 214h-132l18 82h225l-75 -351q-106 -53 -208 -53q-109 0 -154 47.5t-45 135.5
q0 67 25 181q31 150 42 183q40 131 130 175q58 29 144 29q94 0 138 -32t44 -103zM536 798l-46 94l-86 -94h-84l130 141h92l70 -141h-76z" />
    <glyph glyph-name="gcircumflex" unicode="&#x11d;" 
d="M529 505l-114 -540q-17 -84 -63.5 -122t-132.5 -38q-152 0 -152 103q0 18 4 35h92q-2 -14 -2 -18q0 -54 67 -54q25 0 43 8t28 17.5t18.5 31.5t11.5 34.5t9 41.5l12 59q-44 -60 -117 -60q-129 0 -129 148q0 44 13 109q29 134 81 193t136 59q76 0 100 -69l13 62h82z
M412 360q0 86 -71 86q-27 0 -49 -12.5t-35.5 -29t-24.5 -44t-16 -46t-11 -46.5q-16 -69 -16 -109q0 -90 72 -90q27 0 49 12.5t35 28.5t24 44t15.5 45t10.5 46q17 78 17 115zM452 581l-46 94l-86 -94h-84l130 141h92l70 -141h-76z" />
    <glyph glyph-name="Gbreve" unicode="&#x11e;" horiz-adv-x="611" 
d="M644 602q0 -32 -9 -73h-96q6 25 6 46q0 86 -95 86q-42 0 -71.5 -11t-49 -32.5t-33.5 -56t-25 -78.5t-24 -104q-2 -14 -4 -21q-31 -149 -31 -187q0 -53 27 -80.5t91 -27.5q68 0 117 31l45 214h-132l18 82h225l-75 -351q-106 -53 -208 -53q-109 0 -154 47.5t-45 135.5
q0 67 25 181q31 150 42 183q40 131 130 175q58 29 144 29q94 0 138 -32t44 -103zM342 939h49q-1 -40 22.5 -59.5t65.5 -19.5q88 0 122 79h49q-21 -64 -68 -99.5t-112 -35.5q-149 0 -128 135z" />
    <glyph glyph-name="gbreve" unicode="&#x11f;" 
d="M529 505l-114 -540q-17 -84 -63.5 -122t-132.5 -38q-152 0 -152 103q0 18 4 35h92q-2 -14 -2 -18q0 -54 67 -54q25 0 43 8t28 17.5t18.5 31.5t11.5 34.5t9 41.5l12 59q-44 -60 -117 -60q-129 0 -129 148q0 44 13 109q29 134 81 193t136 59q76 0 100 -69l13 62h82z
M412 360q0 86 -71 86q-27 0 -49 -12.5t-35.5 -29t-24.5 -44t-16 -46t-11 -46.5q-16 -69 -16 -109q0 -90 72 -90q27 0 49 12.5t35 28.5t24 44t15.5 45t10.5 46q17 78 17 115zM258 722h49q-1 -40 22.5 -59.5t65.5 -19.5q88 0 122 79h49q-21 -64 -68 -99.5t-112 -35.5
q-149 0 -128 135z" />
    <glyph glyph-name="Gdotaccent" unicode="&#x120;" horiz-adv-x="611" 
d="M644 602q0 -32 -9 -73h-96q6 25 6 46q0 86 -95 86q-42 0 -71.5 -11t-49 -32.5t-33.5 -56t-25 -78.5t-24 -104q-2 -14 -4 -21q-31 -149 -31 -187q0 -53 27 -80.5t91 -27.5q68 0 117 31l45 214h-132l18 82h225l-75 -351q-106 -53 -208 -53q-109 0 -154 47.5t-45 135.5
q0 67 25 181q31 150 42 183q40 131 130 175q58 29 144 29q94 0 138 -32t44 -103zM537 911l-22 -104h-94l22 104h94z" />
    <glyph glyph-name="gdotaccent" unicode="&#x121;" 
d="M529 505l-114 -540q-17 -84 -63.5 -122t-132.5 -38q-152 0 -152 103q0 18 4 35h92q-2 -14 -2 -18q0 -54 67 -54q25 0 43 8t28 17.5t18.5 31.5t11.5 34.5t9 41.5l12 59q-44 -60 -117 -60q-129 0 -129 148q0 44 13 109q29 134 81 193t136 59q76 0 100 -69l13 62h82z
M412 360q0 86 -71 86q-27 0 -49 -12.5t-35.5 -29t-24.5 -44t-16 -46t-11 -46.5q-16 -69 -16 -109q0 -90 72 -90q27 0 49 12.5t35 28.5t24 44t15.5 45t10.5 46q17 78 17 115zM453 694l-22 -104h-94l22 104h94z" />
    <glyph glyph-name="Gcommaaccent" unicode="&#x122;" horiz-adv-x="611" 
d="M644 602q0 -32 -9 -73h-96q6 25 6 46q0 86 -95 86q-42 0 -71.5 -11t-49 -32.5t-33.5 -56t-25 -78.5t-24 -104q-2 -14 -4 -21q-31 -149 -31 -187q0 -53 27 -80.5t91 -27.5q68 0 117 31l45 214h-132l18 82h225l-75 -351q-106 -53 -208 -53q-109 0 -154 47.5t-45 135.5
q0 67 25 181q31 150 42 183q40 131 130 175q58 29 144 29q94 0 138 -32t44 -103zM358 -50l-104 -141h-54l63 141h95z" />
    <glyph glyph-name="gcommaaccent" unicode="&#x123;" 
d="M529 505l-114 -540q-17 -84 -63.5 -122t-132.5 -38q-152 0 -152 103q0 18 4 35h92q-2 -14 -2 -18q0 -54 67 -54q25 0 43 8t28 17.5t18.5 31.5t11.5 34.5t9 41.5l12 59q-44 -60 -117 -60q-129 0 -129 148q0 44 13 109q29 134 81 193t136 59q76 0 100 -69l13 62h82z
M412 360q0 86 -71 86q-27 0 -49 -12.5t-35.5 -29t-24.5 -44t-16 -46t-11 -46.5q-16 -69 -16 -109q0 -90 72 -90q27 0 49 12.5t35 28.5t24 44t15.5 45t10.5 46q17 78 17 115zM324 581l104 141h54l-63 -141h-95z" />
    <glyph glyph-name="Hcircumflex" unicode="&#x124;" horiz-adv-x="611" 
d="M677 722l-153 -722h-92l71 333h-253l-71 -333h-92l153 722h92l-65 -309h253l65 309h92zM545 798l-46 94l-86 -94h-84l130 141h92l70 -141h-76z" />
    <glyph glyph-name="hcircumflex" unicode="&#x125;" 
d="M510 404q0 -24 -6 -51l-75 -353h-86l71 335q7 30 7 50q0 64 -66 64q-53 0 -85.5 -35t-43.5 -90l-69 -324h-86l153 722h85l-59 -282q57 75 140 75q120 0 120 -111zM448 760l-46 94l-86 -94h-84l130 141h92l70 -141h-76z" />
    <glyph glyph-name="Hbar" unicode="&#x126;" horiz-adv-x="611" 
d="M524 0h-92l70 333h-253l-70 -333h-92l153 722h92l-30 -142h253l30 142h92zM266 413h253l20 93h-253z" />
    <glyph glyph-name="hbar" unicode="&#x127;" 
d="M465 625l-13 -62h-166l-26 -123q31 40 66 57.5t85 17.5q109 0 109 -106q0 -24 -7 -61l-73 -348h-86l70 335q7 30 7 50q0 64 -65 64q-53 0 -86 -35t-44 -90l-68 -324h-86l119 563h-92l13 62h92l21 97h85l-21 -97h166z" />
    <glyph glyph-name="Itilde" unicode="&#x128;" horiz-adv-x="278" 
d="M339 722l-153 -722h-93l153 722h93zM451 911h51q-14 -45 -47 -76q-35 -33 -80 -33q-19 0 -68 19q-44 19 -68 19q-17 0 -33.5 -14t-22.5 -31h-46q15 49 47.5 78.5t79.5 29.5q30 0 72 -18q38 -19 55 -19q47 0 60 45z" />
    <glyph glyph-name="itilde" unicode="&#x129;" horiz-adv-x="222" 
d="M152 0h-82l107 505h82zM379 694h51q-14 -45 -47 -76q-35 -33 -80 -33q-19 0 -68 19q-44 19 -68 19q-17 0 -33.5 -14t-22.5 -31h-46q15 49 47.5 78.5t79.5 29.5q29 0 71 -18q40 -19 55 -19q46 0 61 45z" />
    <glyph glyph-name="Imacron" unicode="&#x12a;" horiz-adv-x="278" 
d="M339 722l-153 -722h-93l153 722h93zM188 881h276l-12 -56h-276z" />
    <glyph glyph-name="imacron" unicode="&#x12b;" horiz-adv-x="222" 
d="M152 0h-82l107 505h82zM116 664h276l-12 -56h-276z" />
    <glyph glyph-name="Ibreve" unicode="&#x12c;" horiz-adv-x="278" 
d="M339 722l-153 -722h-93l153 722h93zM184 939h49q-1 -40 22.5 -59.5t65.5 -19.5q88 0 122 79h49q-21 -64 -68 -99.5t-112 -35.5q-149 0 -128 135z" />
    <glyph glyph-name="ibreve" unicode="&#x12d;" horiz-adv-x="222" 
d="M152 0h-82l107 505h82zM110 722h49q-1 -40 22.5 -59.5t65.5 -19.5q88 0 122 79h49q-21 -64 -68 -99.5t-112 -35.5q-149 0 -128 135z" />
    <glyph glyph-name="Iogonek" unicode="&#x12e;" horiz-adv-x="278" 
d="M339 722l-153 -722h-93l153 722h93zM177 -115l-11 -54q-64 -22 -112 -22q-41 0 -68.5 23t-18.5 68q7 34 52 61.5t91 38.5l59 2v-2q-50 -16 -81 -39.5t-36 -45.5q-5 -25 5.5 -37.5t30.5 -12.5q27 0 89 20z" />
    <glyph glyph-name="iogonek" unicode="&#x12f;" horiz-adv-x="222" 
d="M151 -115l-11 -54q-64 -22 -112 -22q-41 0 -68.5 23t-18.5 68q7 34 52 61.5t91 38.5h-16l107 505h86l-107 -505h-11q-50 -16 -81 -39.5t-36 -45.5q-5 -25 5.5 -37.5t30.5 -12.5q27 0 89 20zM310 722l-18 -88h-92l18 88h92z" />
    <glyph glyph-name="Idotaccent" unicode="&#x130;" horiz-adv-x="278" 
d="M339 722l-153 -722h-93l153 722h93zM379 911l-22 -104h-94l22 104h94z" />
    <glyph glyph-name="dotlessi" unicode="&#x131;" horiz-adv-x="222" 
d="M152 0h-82l107 505h82z" />
    <glyph glyph-name="Jcircumflex" unicode="&#x134;" 
d="M563 722l-114 -537q-42 -199 -227 -199q-158 0 -158 144q0 41 15 96h96q-16 -59 -16 -88q0 -74 71 -74q101 0 131 140l110 518h92zM602 798l-46 94l-86 -94h-84l130 141h92l70 -141h-76z" />
    <glyph glyph-name="jcircumflex" unicode="&#x135;" horiz-adv-x="222" 
d="M54 -74l123 579h82l-122 -575q-14 -65 -48.5 -93t-119.5 -28l15 70q30 0 47 9t23 38zM304 581l-46 94l-86 -94h-84l130 141h92l70 -141h-76z" />
    <glyph glyph-name="Kcommaaccent" unicode="&#x136;" horiz-adv-x="556" 
d="M685 722l-333 -333l195 -389h-112l-182 377l-80 -377h-92l153 722h92l-67 -317l316 317h110zM327 -50l-104 -141h-54l63 141h95z" />
    <glyph glyph-name="kcommaaccent" unicode="&#x137;" horiz-adv-x="444" 
d="M516 505l-214 -223l138 -282h-99l-125 278l-59 -278h-85l153 722h85l-91 -430l193 213h104zM276 -50l-104 -141h-54l63 141h95z" />
    <glyph glyph-name="kgreenlandic" unicode="&#x138;" horiz-adv-x="444" 
d="M210 263l-56 -263h-82l107 505h82l-50 -238h2l204 238h100l-215 -241l138 -264h-94l-134 263h-2z" />
    <glyph glyph-name="Lacute" unicode="&#x139;" horiz-adv-x="444" 
d="M455 80l-17 -80h-356l153 722h92l-136 -642h264zM389 939h113l-159 -141h-69z" />
    <glyph glyph-name="lacute" unicode="&#x13a;" horiz-adv-x="222" 
d="M307 722l-153 -722h-86l153 722h86zM324 939h113l-159 -141h-69z" />
    <glyph glyph-name="Lcommaaccent" unicode="&#x13b;" horiz-adv-x="444" 
d="M455 80l-17 -80h-356l153 722h92l-136 -642h264zM296 -50l-104 -141h-54l63 141h95z" />
    <glyph glyph-name="lcommaaccent" unicode="&#x13c;" horiz-adv-x="222" 
d="M307 722l-153 -722h-86l153 722h86zM166 -50l-104 -141h-54l63 141h95z" />
    <glyph glyph-name="Lcaron" unicode="&#x13d;" horiz-adv-x="444" 
d="M455 80l-17 -80h-356l153 722h92l-136 -642h264zM472 722l-84 -141h-50l43 141h91z" />
    <glyph glyph-name="lcaron" unicode="&#x13e;" horiz-adv-x="222" 
d="M307 722l-153 -722h-86l153 722h86zM450 722l-84 -141h-50l43 141h91z" />
    <glyph glyph-name="Ldot" unicode="&#x13f;" horiz-adv-x="444" 
d="M455 80l-17 -80h-356l153 722h92l-136 -642h264zM471 404l-22 -104h-94l22 104h94z" />
    <glyph glyph-name="ldot" unicode="&#x140;" horiz-adv-x="311" 
d="M307 722l-153 -722h-86l153 722h86zM401 404l-22 -104h-94l22 104h94z" />
    <glyph glyph-name="Lslash" unicode="&#x141;" horiz-adv-x="444" 
d="M82 0l66 311l-76 -41l15 70l75 41l73 341h92l-62 -293l162 88l-15 -71l-162 -88l-59 -278h264l-17 -80h-356z" />
    <glyph glyph-name="lslash" unicode="&#x142;" horiz-adv-x="222" 
d="M154 0h-86l70 333l-62 -37l14 65l62 37l69 324h86l-59 -276l68 41l-14 -65l-68 -41z" />
    <glyph glyph-name="Nacute" unicode="&#x143;" horiz-adv-x="667" 
d="M734 722l-153 -722h-121l-158 626l-133 -626h-83l153 722h125l157 -618l131 618h82zM568 939h113l-159 -141h-69z" />
    <glyph glyph-name="nacute" unicode="&#x144;" 
d="M512 411q0 -26 -8 -63l-74 -348h-86l71 335q7 32 7 51q0 63 -66 63q-53 0 -85.5 -35t-43.5 -90l-69 -324h-86l94 440l11 65h87l-13 -65q53 75 144 75q117 0 117 -104zM426 722h113l-159 -141h-69z" />
    <glyph glyph-name="Ncommaaccent" unicode="&#x145;" horiz-adv-x="667" 
d="M734 722l-153 -722h-121l-158 626l-133 -626h-83l153 722h125l157 -618l131 618h82zM369 -50l-104 -141h-54l63 141h95z" />
    <glyph glyph-name="ncommaaccent" unicode="&#x146;" 
d="M512 411q0 -26 -8 -63l-74 -348h-86l71 335q7 32 7 51q0 63 -66 63q-53 0 -85.5 -35t-43.5 -90l-69 -324h-86l94 440l11 65h87l-13 -65q53 75 144 75q117 0 117 -104zM299 -50l-104 -141h-54l63 141h95z" />
    <glyph glyph-name="Ncaron" unicode="&#x147;" horiz-adv-x="667" 
d="M734 722l-153 -722h-121l-158 626l-133 -626h-83l153 722h125l157 -618l131 618h82zM600 939h84l-130 -141h-92l-70 141h76l46 -94z" />
    <glyph glyph-name="ncaron" unicode="&#x148;" 
d="M512 411q0 -26 -8 -63l-74 -348h-86l71 335q7 32 7 51q0 63 -66 63q-53 0 -85.5 -35t-43.5 -90l-69 -324h-86l94 440l11 65h87l-13 -65q53 75 144 75q117 0 117 -104zM466 722h84l-130 -141h-92l-70 141h76l46 -94z" />
    <glyph glyph-name="Eng" unicode="&#x14a;" horiz-adv-x="667" 
d="M483 -74l16 74h-44l-152 626h-2l-133 -626h-82l153 722h130l150 -618h2l131 618h82l-168 -792q-14 -65 -49 -93t-120 -28l15 70q31 0 48 9t23 38z" />
    <glyph glyph-name="eng" unicode="&#x14b;" 
d="M330 -74l90 424q20 98 -68 98q-103 0 -135 -149l-63 -299h-82l85 400q7 35 17 105h87l-14 -65h4q32 42 66.5 58.5t84.5 16.5q76 0 96.5 -41.5t3.5 -123.5l-89 -420q-14 -65 -49 -93t-120 -28l15 70q31 0 48 9t23 38z" />
    <glyph glyph-name="Omacron" unicode="&#x14c;" horiz-adv-x="611" 
d="M639 563q0 -58 -19 -150l-15 -70q-32 -146 -53 -198q-51 -121 -163 -148q-38 -9 -83 -9q-183 0 -183 176q0 47 13 110l35 164q12 57 22.5 94t32 80.5t49 68.5t72.5 42t104 17q103 0 145.5 -46.5t42.5 -130.5zM549 557q0 104 -105 104q-69 0 -109 -42t-60 -135l-46 -214
q-13 -59 -13 -103q0 -54 24 -77.5t77 -23.5q38 0 66 11t46 28t32.5 52.5t23 67t20.5 89.5l23 110q21 100 21 133zM356 881h276l-12 -56h-276z" />
    <glyph glyph-name="omacron" unicode="&#x14d;" 
d="M511 374q0 -52 -16 -126q-13 -64 -27.5 -105t-41.5 -80t-70.5 -58t-105.5 -19q-85 0 -120 37.5t-35 106.5q0 45 16 125q11 52 20.5 85t28 70.5t42 59t61.5 35.5t88 14q87 0 123.5 -37.5t36.5 -107.5zM425 366q0 85 -77 85q-26 0 -47 -8t-36 -25.5t-24.5 -32t-18 -43
t-12 -41.5t-9.5 -43q-19 -91 -19 -121q0 -82 79 -82q26 0 46.5 8t35.5 26.5t25 34t19 47t13 48.5l12 53q13 65 13 94zM254 664h276l-12 -56h-276z" />
    <glyph glyph-name="Obreve" unicode="&#x14e;" horiz-adv-x="611" 
d="M639 563q0 -58 -19 -150l-15 -70q-32 -146 -53 -198q-51 -121 -163 -148q-38 -9 -83 -9q-183 0 -183 176q0 47 13 110l35 164q12 57 22.5 94t32 80.5t49 68.5t72.5 42t104 17q103 0 145.5 -46.5t42.5 -130.5zM549 557q0 104 -105 104q-69 0 -109 -42t-60 -135l-46 -214
q-13 -59 -13 -103q0 -54 24 -77.5t77 -23.5q38 0 66 11t46 28t32.5 52.5t23 67t20.5 89.5l23 110q21 100 21 133zM352 939h49q-1 -40 22.5 -59.5t65.5 -19.5q88 0 122 79h49q-21 -64 -68 -99.5t-112 -35.5q-149 0 -128 135z" />
    <glyph glyph-name="obreve" unicode="&#x14f;" 
d="M511 374q0 -52 -16 -126q-13 -64 -27.5 -105t-41.5 -80t-70.5 -58t-105.5 -19q-85 0 -120 37.5t-35 106.5q0 45 16 125q11 52 20.5 85t28 70.5t42 59t61.5 35.5t88 14q87 0 123.5 -37.5t36.5 -107.5zM425 366q0 85 -77 85q-26 0 -47 -8t-36 -25.5t-24.5 -32t-18 -43
t-12 -41.5t-9.5 -43q-19 -91 -19 -121q0 -82 79 -82q26 0 46.5 8t35.5 26.5t25 34t19 47t13 48.5l12 53q13 65 13 94zM250 722h49q-1 -40 22.5 -59.5t65.5 -19.5q88 0 122 79h49q-21 -64 -68 -99.5t-112 -35.5q-149 0 -128 135z" />
    <glyph glyph-name="Ohungarumlaut" unicode="&#x150;" horiz-adv-x="611" 
d="M639 563q0 -58 -19 -150l-15 -70q-32 -146 -53 -198q-51 -121 -163 -148q-38 -9 -83 -9q-183 0 -183 176q0 47 13 110l35 164q12 57 22.5 94t32 80.5t49 68.5t72.5 42t104 17q103 0 145.5 -46.5t42.5 -130.5zM549 557q0 104 -105 104q-69 0 -109 -42t-60 -135l-46 -214
q-13 -59 -13 -103q0 -54 24 -77.5t77 -23.5q38 0 66 11t46 28t32.5 52.5t23 67t20.5 89.5l23 110q21 100 21 133zM488 939h109l-161 -141h-67zM671 939h109l-161 -141h-67z" />
    <glyph glyph-name="ohungarumlaut" unicode="&#x151;" 
d="M511 374q0 -52 -16 -126q-13 -64 -27.5 -105t-41.5 -80t-70.5 -58t-105.5 -19q-85 0 -120 37.5t-35 106.5q0 45 16 125q11 52 20.5 85t28 70.5t42 59t61.5 35.5t88 14q87 0 123.5 -37.5t36.5 -107.5zM425 366q0 85 -77 85q-26 0 -47 -8t-36 -25.5t-24.5 -32t-18 -43
t-12 -41.5t-9.5 -43q-19 -91 -19 -121q0 -82 79 -82q26 0 46.5 8t35.5 26.5t25 34t19 47t13 48.5l12 53q13 65 13 94zM366 722h109l-161 -141h-67zM549 722h109l-161 -141h-67z" />
    <glyph glyph-name="OE" unicode="&#x152;" horiz-adv-x="833" 
d="M793 722v-80h-280v-232h260v-80h-260v-250h286v-80h-477q-132 0 -191 62t-59 207v168q0 153 55.5 219t167.5 66h498zM421 80v562h-132q-43 0 -68.5 -15.5t-40 -62.5t-14.5 -131v-160q0 -95 28 -144t103 -49h124z" />
    <glyph glyph-name="oe" unicode="&#x153;" horiz-adv-x="778" 
d="M771 226h-284q-11 -49 -11 -87q0 -47 20.5 -64.5t62.5 -17.5q37 0 67 28.5t35 67.5h90q-11 -81 -66.5 -122t-132.5 -41q-133 0 -148 80q-51 -80 -150 -80q-75 0 -115.5 33t-40.5 118q0 47 15 118q10 49 21 84t29.5 69.5t42.5 55.5t60 34t82 13q122 0 137 -84h2
q41 84 159 84q79 0 113 -36t34 -104q0 -43 -13 -106zM262 57q62 0 94 48.5t59 174.5q10 47 10 82q0 49 -20.5 67.5t-59.5 18.5q-52 0 -87 -35.5t-55 -132.5q-19 -92 -19 -136q0 -46 18.5 -66.5t59.5 -20.5zM500 288h197q11 50 11 86q0 46 -19 60t-59 14q-46 0 -77.5 -32
t-52.5 -128z" />
    <glyph glyph-name="Racute" unicode="&#x154;" horiz-adv-x="556" 
d="M622 585q0 -82 -45 -138t-126 -71q48 -8 68 -32t20 -69q0 -22 -7 -66l-4 -26q-16 -106 -16 -156q0 -5 0.5 -14t0.5 -13h-96q-3 15 -3 37q0 21 3 44l18 111q6 36 6 62q0 44 -24.5 61t-88.5 17h-84l-71 -332h-93l153 722h260q27 0 54 -11t51 -44t24 -82zM526 567
q0 75 -87 75h-130l-49 -232h107q74 0 116.5 41.5t42.5 115.5zM495 939h113l-159 -141h-69z" />
    <glyph glyph-name="racute" unicode="&#x155;" horiz-adv-x="333" 
d="M425 509l-18 -85q-15 3 -40 3q-53 0 -89.5 -29t-47.5 -81l-67 -317h-86l94 440l11 65h86l-16 -78q32 49 63.5 66.5t88.5 17.5q17 0 21 -2zM319 722h113l-159 -141h-69z" />
    <glyph glyph-name="Rcommaaccent" unicode="&#x156;" horiz-adv-x="556" 
d="M622 585q0 -82 -45 -138t-126 -71q48 -8 68 -32t20 -69q0 -22 -7 -66l-4 -26q-16 -106 -16 -156q0 -5 0.5 -14t0.5 -13h-96q-3 15 -3 37q0 21 3 44l18 111q6 36 6 62q0 44 -24.5 61t-88.5 17h-84l-71 -332h-93l153 722h260q27 0 54 -11t51 -44t24 -82zM526 567
q0 75 -87 75h-130l-49 -232h107q74 0 116.5 41.5t42.5 115.5zM328 -50l-104 -141h-54l63 141h95z" />
    <glyph glyph-name="rcommaaccent" unicode="&#x157;" horiz-adv-x="333" 
d="M425 509l-18 -85q-15 3 -40 3q-53 0 -89.5 -29t-47.5 -81l-67 -317h-86l94 440l11 65h86l-16 -78q32 49 63.5 66.5t88.5 17.5q17 0 21 -2zM172 -50l-104 -141h-54l63 141h95z" />
    <glyph glyph-name="Rcaron" unicode="&#x158;" horiz-adv-x="556" 
d="M622 585q0 -82 -45 -138t-126 -71q48 -8 68 -32t20 -69q0 -22 -7 -66l-4 -26q-16 -106 -16 -156q0 -5 0.5 -14t0.5 -13h-96q-3 15 -3 37q0 21 3 44l18 111q6 36 6 62q0 44 -24.5 61t-88.5 17h-84l-71 -332h-93l153 722h260q27 0 54 -11t51 -44t24 -82zM526 567
q0 75 -87 75h-130l-49 -232h107q74 0 116.5 41.5t42.5 115.5zM526 939h84l-130 -141h-92l-70 141h76l46 -94z" />
    <glyph glyph-name="rcaron" unicode="&#x159;" horiz-adv-x="333" 
d="M425 509l-18 -85q-15 3 -40 3q-53 0 -89.5 -29t-47.5 -81l-67 -317h-86l94 440l11 65h86l-16 -78q32 49 63.5 66.5t88.5 17.5q17 0 21 -2zM370 722h84l-130 -141h-92l-70 141h76l46 -94z" />
    <glyph glyph-name="Sacute" unicode="&#x15a;" horiz-adv-x="556" 
d="M609 593q0 -36 -8 -69h-96q7 32 7 52q0 79 -88 79q-57 0 -97.5 -35t-40.5 -91q0 -41 29 -68t77 -52q68 -35 108.5 -84.5t40.5 -108.5q0 -106 -74 -166.5t-186 -60.5q-184 0 -184 150q0 32 10 82h91q-7 -35 -7 -58q0 -95 98 -95q61 0 107.5 38.5t46.5 97.5q0 56 -58 90
q-41 24 -60 36t-51 36.5t-46.5 44t-27 48.5t-12.5 61q0 102 71.5 158.5t174.5 56.5q175 0 175 -142zM506 939h113l-159 -141h-69z" />
    <glyph glyph-name="sacute" unicode="&#x15b;" horiz-adv-x="444" 
d="M474 407q0 -16 -5 -39h-85q3 15 3 28q0 53 -70 53q-38 0 -66.5 -21t-28.5 -58q0 -15 12 -27t43 -30l73 -41q79 -45 79 -112q0 -84 -56.5 -126.5t-144.5 -42.5q-154 0 -154 116q0 21 6 46h88q-5 -22 -5 -37q0 -59 69 -59q44 0 76.5 23t32.5 64q0 30 -31 48l-102 59
q-31 18 -51.5 48t-20.5 58q0 76 56 115.5t137 39.5q145 0 145 -105zM391 722h113l-159 -141h-69z" />
    <glyph glyph-name="Scircumflex" unicode="&#x15c;" horiz-adv-x="556" 
d="M609 593q0 -36 -8 -69h-96q7 32 7 52q0 79 -88 79q-57 0 -97.5 -35t-40.5 -91q0 -41 29 -68t77 -52q68 -35 108.5 -84.5t40.5 -108.5q0 -106 -74 -166.5t-186 -60.5q-184 0 -184 150q0 32 10 82h91q-7 -35 -7 -58q0 -95 98 -95q61 0 107.5 38.5t46.5 97.5q0 56 -58 90
q-41 24 -60 36t-51 36.5t-46.5 44t-27 48.5t-12.5 61q0 102 71.5 158.5t174.5 56.5q175 0 175 -142zM524 798l-46 94l-86 -94h-84l130 141h92l70 -141h-76z" />
    <glyph glyph-name="scircumflex" unicode="&#x15d;" horiz-adv-x="444" 
d="M474 407q0 -16 -5 -39h-85q3 15 3 28q0 53 -70 53q-38 0 -66.5 -21t-28.5 -58q0 -15 12 -27t43 -30l73 -41q79 -45 79 -112q0 -84 -56.5 -126.5t-144.5 -42.5q-154 0 -154 116q0 21 6 46h88q-5 -22 -5 -37q0 -59 69 -59q44 0 76.5 23t32.5 64q0 30 -31 48l-102 59
q-31 18 -51.5 48t-20.5 58q0 76 56 115.5t137 39.5q145 0 145 -105zM422 581l-46 94l-86 -94h-84l130 141h92l70 -141h-76z" />
    <glyph glyph-name="Scedilla" unicode="&#x15e;" horiz-adv-x="556" 
d="M199 -105l-13 19l72 76q-161 8 -161 149q0 32 10 82h91q-7 -35 -7 -58q0 -95 98 -95q61 0 107.5 38.5t46.5 97.5q0 56 -58 90q-41 24 -60 36t-51 36.5t-46.5 44t-27 48.5t-12.5 61q0 102 71.5 158.5t174.5 56.5q175 0 175 -142q0 -36 -8 -69h-96q7 32 7 52q0 79 -88 79
q-57 0 -97.5 -35t-40.5 -91q0 -41 29 -68t77 -52q68 -35 108.5 -84.5t40.5 -108.5q0 -100 -66 -159.5t-169 -66.5l-49 -50l1 -2q18 6 32 6q35 0 54.5 -20.5t11.5 -55.5q-10 -47 -50 -70t-85 -23q-46 0 -94 22l25 40q38 -15 62 -15q22 0 41.5 9.5t23.5 30.5q4 20 -7.5 30.5
t-32.5 10.5q-5 0 -40 -8z" />
    <glyph glyph-name="scedilla" unicode="&#x15f;" horiz-adv-x="444" 
d="M143 -105l-13 19l74 78q-130 8 -130 115q0 21 6 46h88q-5 -22 -5 -37q0 -59 69 -59q44 0 76.5 23t32.5 64q0 30 -31 48l-102 59q-31 18 -51.5 48t-20.5 58q0 76 56 115.5t137 39.5q145 0 145 -105q0 -16 -5 -39h-85q3 15 3 28q0 53 -70 53q-38 0 -66.5 -21t-28.5 -58
q0 -15 12 -27t43 -30l73 -41q79 -45 79 -112q0 -78 -49 -120t-128 -48l-51 -52l1 -2q18 6 32 6q35 0 54.5 -20.5t11.5 -55.5q-10 -47 -50 -70t-85 -23q-46 0 -94 22l25 40q38 -15 62 -15q22 0 41.5 9.5t23.5 30.5q4 20 -7.5 30.5t-32.5 10.5q-5 0 -40 -8z" />
    <glyph glyph-name="Scaron" unicode="&#x160;" horiz-adv-x="556" 
d="M609 593q0 -36 -8 -69h-96q7 32 7 52q0 79 -88 79q-57 0 -97.5 -35t-40.5 -91q0 -41 29 -68t77 -52q68 -35 108.5 -84.5t40.5 -108.5q0 -106 -74 -166.5t-186 -60.5q-184 0 -184 150q0 32 10 82h91q-7 -35 -7 -58q0 -95 98 -95q61 0 107.5 38.5t46.5 97.5q0 56 -58 90
q-41 24 -60 36t-51 36.5t-46.5 44t-27 48.5t-12.5 61q0 102 71.5 158.5t174.5 56.5q175 0 175 -142zM539 939h84l-130 -141h-92l-70 141h76l46 -94z" />
    <glyph glyph-name="scaron" unicode="&#x161;" horiz-adv-x="444" 
d="M474 407q0 -16 -5 -39h-85q3 15 3 28q0 53 -70 53q-38 0 -66.5 -21t-28.5 -58q0 -15 12 -27t43 -30l73 -41q79 -45 79 -112q0 -84 -56.5 -126.5t-144.5 -42.5q-154 0 -154 116q0 21 6 46h88q-5 -22 -5 -37q0 -59 69 -59q44 0 76.5 23t32.5 64q0 30 -31 48l-102 59
q-31 18 -51.5 48t-20.5 58q0 76 56 115.5t137 39.5q145 0 145 -105zM437 722h84l-130 -141h-92l-70 141h76l46 -94z" />
    <glyph glyph-name="Tcommaaccent" unicode="&#x162;" 
d="M639 722l-17 -80h-190l-136 -642h-93l136 642h-189l17 80h472zM288 -50l-104 -141h-54l63 141h95z" />
    <glyph glyph-name="tcommaaccent" unicode="&#x163;" horiz-adv-x="278" 
d="M384 505l-13 -65h-107l-64 -299q-5 -25 -5 -39q0 -22 13 -31.5t47 -9.5q19 0 38 4l-14 -63q-38 -7 -81 -7q-48 0 -71.5 16t-23.5 54q0 17 4 36l72 339h-85l13 65h85l21 97l93 37l-29 -134h107zM195 -50l-104 -141h-54l63 141h95z" />
    <glyph glyph-name="Tcaron" unicode="&#x164;" 
d="M639 722l-17 -80h-190l-136 -642h-93l136 642h-189l17 80h472zM510 939h84l-130 -141h-92l-70 141h76l46 -94z" />
    <glyph glyph-name="tcaron" unicode="&#x165;" horiz-adv-x="278" 
d="M384 505l-13 -65h-107l-64 -299q-5 -25 -5 -39q0 -22 13 -31.5t47 -9.5q19 0 38 4l-14 -63q-38 -7 -81 -7q-48 0 -71.5 16t-23.5 54q0 17 4 36l72 339h-85l13 65h85l21 97l93 37l-29 -134h107zM468 722l-84 -141h-50l43 141h91z" />
    <glyph glyph-name="Tbar" unicode="&#x166;" 
d="M166 408h123l50 234h-189l17 80h472l-17 -80h-190l-50 -234h125l-16 -76h-125l-70 -332h-93l70 332h-123z" />
    <glyph glyph-name="tbar" unicode="&#x167;" horiz-adv-x="278" 
d="M79 375h86l14 65h-85l13 65h85l21 97l93 37l-29 -134h107l-13 -65h-107l-14 -65h106l-14 -65h-106l-36 -169q-5 -25 -5 -39q0 -22 13 -31.5t47 -9.5q19 0 38 4l-14 -63q-38 -7 -81 -7q-48 0 -71.5 16t-23.5 54q0 17 4 36l44 209h-86z" />
    <glyph glyph-name="Utilde" unicode="&#x168;" horiz-adv-x="611" 
d="M682 722l-102 -481q-12 -59 -31 -103t-50 -79.5t-78 -54t-109 -18.5q-92 0 -141 45t-49 126q0 29 8 67l105 498h92l-106 -501q-6 -30 -6 -54q0 -102 105 -102q75 0 113.5 44.5t55.5 124.5l103 488h90zM621 911h51q-14 -45 -47 -76q-35 -33 -80 -33q-19 0 -68 19
q-44 19 -68 19q-17 0 -33.5 -14t-22.5 -31h-46q15 49 47.5 78.5t79.5 29.5q30 0 72 -18q38 -19 55 -19q47 0 60 45z" />
    <glyph glyph-name="utilde" unicode="&#x169;" 
d="M530 505l-93 -440l-12 -65h-85l13 61h-3q-57 -69 -147 -69q-51 0 -77 28t-26 78q0 24 6 51l75 356h85l-78 -368q-2 -12 -2 -18q0 -28 18.5 -45t49.5 -17q42 0 75 32t44 82l71 334h86zM511 694h51q-14 -45 -47 -76q-35 -33 -80 -33q-19 0 -68 19q-44 19 -68 19
q-17 0 -33.5 -14t-22.5 -31h-46q15 49 47.5 78.5t79.5 29.5q29 0 71 -18q40 -19 55 -19q46 0 61 45z" />
    <glyph glyph-name="Umacron" unicode="&#x16a;" horiz-adv-x="611" 
d="M682 722l-102 -481q-12 -59 -31 -103t-50 -79.5t-78 -54t-109 -18.5q-92 0 -141 45t-49 126q0 29 8 67l105 498h92l-106 -501q-6 -30 -6 -54q0 -102 105 -102q75 0 113.5 44.5t55.5 124.5l103 488h90zM358 881h276l-12 -56h-276z" />
    <glyph glyph-name="umacron" unicode="&#x16b;" 
d="M530 505l-93 -440l-12 -65h-85l13 61h-3q-57 -69 -147 -69q-51 0 -77 28t-26 78q0 24 6 51l75 356h85l-78 -368q-2 -12 -2 -18q0 -28 18.5 -45t49.5 -17q42 0 75 32t44 82l71 334h86zM248 664h276l-12 -56h-276z" />
    <glyph glyph-name="Ubreve" unicode="&#x16c;" horiz-adv-x="611" 
d="M682 722l-102 -481q-12 -59 -31 -103t-50 -79.5t-78 -54t-109 -18.5q-92 0 -141 45t-49 126q0 29 8 67l105 498h92l-106 -501q-6 -30 -6 -54q0 -102 105 -102q75 0 113.5 44.5t55.5 124.5l103 488h90zM354 939h49q-1 -40 22.5 -59.5t65.5 -19.5q88 0 122 79h49
q-21 -64 -68 -99.5t-112 -35.5q-149 0 -128 135z" />
    <glyph glyph-name="ubreve" unicode="&#x16d;" 
d="M530 505l-93 -440l-12 -65h-85l13 61h-3q-57 -69 -147 -69q-51 0 -77 28t-26 78q0 24 6 51l75 356h85l-78 -368q-2 -12 -2 -18q0 -28 18.5 -45t49.5 -17q42 0 75 32t44 82l71 334h86zM244 722h49q-1 -40 22.5 -59.5t65.5 -19.5q88 0 122 79h49q-21 -64 -68 -99.5
t-112 -35.5q-149 0 -128 135z" />
    <glyph glyph-name="Uring" unicode="&#x16e;" horiz-adv-x="611" 
d="M682 722l-102 -481q-12 -59 -31 -103t-50 -79.5t-78 -54t-109 -18.5q-92 0 -141 45t-49 126q0 29 8 67l105 498h92l-106 -501q-6 -30 -6 -54q0 -102 105 -102q75 0 113.5 44.5t55.5 124.5l103 488h90zM482 787q-41 0 -63.5 24.5t-22.5 62.5q0 47 37 81t80 34
q42 0 64.5 -24t22.5 -61q0 -49 -35.5 -83t-82.5 -34zM485 827q27 0 50 23.5t23 49.5q0 22 -13.5 35.5t-33.5 13.5q-27 0 -50.5 -22.5t-23.5 -50.5q0 -49 48 -49z" />
    <glyph glyph-name="uring" unicode="&#x16f;" 
d="M530 505l-93 -440l-12 -65h-85l13 61h-3q-57 -69 -147 -69q-51 0 -77 28t-26 78q0 24 6 51l75 356h85l-78 -368q-2 -12 -2 -18q0 -28 18.5 -45t49.5 -17q42 0 75 32t44 82l71 334h86zM379 570q-41 0 -63.5 24.5t-22.5 62.5q0 47 37 81t80 34q42 0 64.5 -24t22.5 -61
q0 -49 -35.5 -83t-82.5 -34zM382 610q27 0 50 23.5t23 49.5q0 22 -13.5 35.5t-33.5 13.5q-27 0 -50.5 -22.5t-23.5 -50.5q0 -49 48 -49z" />
    <glyph glyph-name="Uhungarumlaut" unicode="&#x170;" horiz-adv-x="611" 
d="M682 722l-102 -481q-12 -59 -31 -103t-50 -79.5t-78 -54t-109 -18.5q-92 0 -141 45t-49 126q0 29 8 67l105 498h92l-106 -501q-6 -30 -6 -54q0 -102 105 -102q75 0 113.5 44.5t55.5 124.5l103 488h90zM467 939h109l-161 -141h-67zM650 939h109l-161 -141h-67z" />
    <glyph glyph-name="uhungarumlaut" unicode="&#x171;" 
d="M530 505l-93 -440l-12 -65h-85l13 61h-3q-57 -69 -147 -69q-51 0 -77 28t-26 78q0 24 6 51l75 356h85l-78 -368q-2 -12 -2 -18q0 -28 18.5 -45t49.5 -17q42 0 75 32t44 82l71 334h86zM362 722h109l-161 -141h-67zM545 722h109l-161 -141h-67z" />
    <glyph glyph-name="Uogonek" unicode="&#x172;" horiz-adv-x="611" 
d="M409 -115l-11 -54q-64 -22 -112 -22q-41 0 -68.5 23t-18.5 68q11 50 100 86q-87 4 -132 48.5t-45 122.5q0 29 8 67l105 498h92l-106 -501q-6 -30 -6 -54q0 -102 105 -102q75 0 113.5 44.5t55.5 124.5l103 488h90l-102 -481q-22 -104 -68.5 -167.5t-132.5 -80.5
q-41 -16 -66 -37t-29 -41q-5 -25 5.5 -37.5t30.5 -12.5q27 0 89 20z" />
    <glyph glyph-name="uogonek" unicode="&#x173;" 
d="M407 -115l-11 -54q-64 -22 -112 -22q-41 0 -68.5 23t-18.5 68q7 34 52 61.5t91 38.5l13 61h-3q-57 -69 -147 -69q-51 0 -77 28t-26 78q0 24 6 51l75 356h85l-78 -368q-2 -12 -2 -18q0 -28 18.5 -45t49.5 -17q42 0 75 32t44 82l71 334h86l-93 -440l-12 -65h-26
q-50 -16 -81 -39.5t-36 -45.5q-5 -25 5.5 -37.5t30.5 -12.5q27 0 89 20z" />
    <glyph glyph-name="Wcircumflex" unicode="&#x174;" horiz-adv-x="889" 
d="M1035 722l-344 -722h-112v626l-285 -626h-112l-23 722h98l1 -626l282 626h119l-1 -626l281 626h96zM681 798l-46 94l-86 -94h-84l130 141h92l70 -141h-76z" />
    <glyph glyph-name="wcircumflex" unicode="&#x175;" horiz-adv-x="722" 
d="M821 505l-243 -505h-110l-14 426l-209 -426h-110l-19 505h91l-1 -429l206 429h116l13 -429l192 429h88zM552 581l-46 94l-86 -94h-84l130 141h92l70 -141h-76z" />
    <glyph glyph-name="Ycircumflex" unicode="&#x176;" 
d="M645 722l-289 -432l-62 -290h-91l62 292l-104 430h98l68 -349l219 349h99zM492 798l-46 94l-86 -94h-84l130 141h92l70 -141h-76z" />
    <glyph glyph-name="ycircumflex" unicode="&#x177;" horiz-adv-x="444" 
d="M543 505l-378 -697h-89l101 195l-63 502h91l36 -411l209 411h93zM418 581l-46 94l-86 -94h-84l130 141h92l70 -141h-76z" />
    <glyph glyph-name="Ydieresis" unicode="&#x178;" 
d="M645 722l-289 -432l-62 -290h-91l62 292l-104 430h98l68 -349l219 349h99zM402 911l-22 -104h-94l22 104h94zM578 911l-22 -104h-94l22 104h94z" />
    <glyph glyph-name="Zacute" unicode="&#x179;" 
d="M621 722l-17 -83l-463 -559h352l-17 -80h-451l19 90l450 552h-321l17 80h431zM449 939h113l-159 -141h-69z" />
    <glyph glyph-name="zacute" unicode="&#x17a;" horiz-adv-x="389" 
d="M454 505l-14 -66l-292 -374h220l-14 -65h-318l15 71l289 369h-200l13 65h301zM367 722h113l-159 -141h-69z" />
    <glyph glyph-name="Zdotaccent" unicode="&#x17b;" 
d="M621 722l-17 -83l-463 -559h352l-17 -80h-451l19 90l450 552h-321l17 80h431zM487 911l-22 -104h-94l22 104h94z" />
    <glyph glyph-name="zdotaccent" unicode="&#x17c;" horiz-adv-x="389" 
d="M454 505l-14 -66l-292 -374h220l-14 -65h-318l15 71l289 369h-200l13 65h301zM391 694l-22 -104h-94l22 104h94z" />
    <glyph glyph-name="Zcaron" unicode="&#x17d;" 
d="M621 722l-17 -83l-463 -559h352l-17 -80h-451l19 90l450 552h-321l17 80h431zM511 939h84l-130 -141h-92l-70 141h76l46 -94z" />
    <glyph glyph-name="zcaron" unicode="&#x17e;" horiz-adv-x="389" 
d="M454 505l-14 -66l-292 -374h220l-14 -65h-318l15 71l289 369h-200l13 65h301zM410 722h84l-130 -141h-92l-70 141h76l46 -94z" />
    <glyph glyph-name="florin" unicode="&#x192;" horiz-adv-x="444" 
d="M556 704l-24 -67q-12 2 -23 2q-46 0 -73 -39q-32 -45 -64 -146h97l-20 -60h-99l-118 -332q-35 -98 -51.5 -131t-39.5 -58q-40 -43 -119 -43q-4 0 -13 0.5t-14 0.5l27 72q6 -1 13 -1q35 0 55.5 28t54.5 123l124 341h-90l21 60h92l8 23q37 108 75 163q47 68 138 68
q24 0 43 -4z" />
    <glyph glyph-name="Aringacute" unicode="&#x1fa;" horiz-adv-x="611" 
d="M15 0l367 693q-28 29 -17 75q9 42 44.5 71.5t77.5 29.5t65 -29.5t15 -71.5q-11 -46 -50 -76l79 -692h-103l-16 172h-279l-90 -172h-93zM469 252l-34 385h-2l-195 -385h231zM526 768q5 25 -9.5 42.5t-38.5 17.5q-25 0 -46 -17.5t-26 -42.5q-5 -24 8.5 -42t38.5 -18
q24 0 46 18t27 42zM448 895l107 94h105l-148 -94h-64z" />
    <glyph glyph-name="aringacute" unicode="&#x1fb;" 
d="M332 0l15 73h-2q-53 -83 -145 -83q-76 0 -97.5 43.5t-4.5 122.5q9 44 33 75t52 47t69 24.5t71.5 10t72.5 0.5q5 22 7.5 34t5 31.5t-1 30t-10 22.5t-21 17t-35.5 5q-41 0 -67 -25t-31 -65h-89q20 82 70 117t133 35q91 0 119 -40.5t13 -111.5l-52 -243q-12 -59 -15 -120
h-90zM383 251q-90 -1 -120 -10q-70 -20 -85 -91q-8 -40 6.5 -66.5t53.5 -26.5q113 0 145 194zM370 569q-42 0 -65 29.5t-14 71.5t44.5 71.5t77.5 29.5q43 0 66 -30t14 -71q-9 -42 -45 -71.5t-78 -29.5zM452 670q5 25 -9 42.5t-38 17.5q-25 0 -46.5 -17.5t-26.5 -42.5
q-5 -24 8.5 -42t38.5 -18q24 0 46 18t27 42zM371 815l107 94h105l-148 -94h-64z" />
    <glyph glyph-name="AEacute" unicode="&#x1fc;" horiz-adv-x="833" 
d="M112 0h-97l317 722h448v-80h-297l31 -232h258v-80h-244l35 -250h227v-80h-306l-25 172h-274zM448 252l-55 396h-2l-169 -396h226zM678 939h113l-159 -141h-69z" />
    <glyph glyph-name="aeacute" unicode="&#x1fd;" horiz-adv-x="778" 
d="M762 240h-283q-14 -68 -14 -97q0 -86 83 -86q42 0 69.5 28.5t35.5 76.5h89q-6 -35 -17.5 -62t-34.5 -54t-63 -41.5t-96 -14.5q-58 0 -95.5 24.5t-43.5 66.5q-60 -91 -175 -91q-60 0 -92.5 32t-32.5 87q0 45 12 79t36.5 54t49.5 33t63 18.5t64 7t65 1.5h23l9 44q5 23 5 39
q0 68 -76 68q-41 0 -67 -25t-31 -65h-89q13 81 61.5 116.5t132.5 35.5q120 0 137 -73h2q38 73 135 73q158 0 158 -149q0 -53 -20 -126zM392 240h-31q-51 0 -86 -7.5t-63 -36.5t-28 -80q0 -59 65 -59q48 0 86.5 37.5t56.5 145.5zM492 302h196q9 40 9 67q0 84 -77 84
q-96 0 -128 -151zM545 722h113l-159 -141h-69z" />
    <glyph glyph-name="Oslashacute" unicode="&#x1fe;" horiz-adv-x="611" 
d="M20 -6l106 123q-3 23 -3 47q0 47 13 110l35 164q12 57 22.5 94t32 80.5t49 68.5t72.5 42t104 17q115 0 159 -63l63 73l54 -38l-91 -106q3 -21 3 -43q0 -58 -19 -150l-15 -70q-32 -146 -53 -198q-51 -121 -163 -148q-38 -9 -83 -9q-109 0 -152 60l-80 -92zM229 270
q-4 -14 -8 -43l322 373q-19 61 -99 61q-69 0 -109 -42t-60 -135zM528 424q13 64 15 75l-323 -374q15 -59 97 -59q38 0 66 11t46 28t32.5 52.5t23 67t20.5 89.5zM511 939h113l-159 -141h-69z" />
    <glyph glyph-name="oslashacute" unicode="&#x1ff;" 
d="M61 -44l-41 38l80 86q-5 19 -5 50q0 45 16 125q11 52 20.5 85t28 70.5t42 59t61.5 35.5t88 14q84 0 123 -37l60 65l42 -37l-72 -78q7 -25 7 -58q0 -52 -16 -126q-13 -64 -27.5 -105t-41.5 -80t-70.5 -58t-105.5 -19q-87 0 -123 41zM412 272q11 64 12 74l-235 -253
q16 -38 72 -38q26 0 46.5 8t35.5 26.5t25 34t19 47t13 48.5zM201 258q-14 -64 -17 -88l230 248q-18 33 -66 33q-26 0 -47 -8t-36 -25.5t-24.5 -32t-18 -43t-12 -41.5t-9.5 -43zM409 722h113l-159 -141h-69z" />
    <glyph glyph-name="Scommaaccent" unicode="&#x218;" horiz-adv-x="556" 
d="M609 593q0 -36 -8 -69h-96q7 32 7 52q0 79 -88 79q-57 0 -97.5 -35t-40.5 -91q0 -41 29 -68t77 -52q68 -35 108.5 -84.5t40.5 -108.5q0 -106 -74 -166.5t-186 -60.5q-184 0 -184 150q0 32 10 82h91q-7 -35 -7 -58q0 -95 98 -95q61 0 107.5 38.5t46.5 97.5q0 56 -58 90
q-41 24 -60 36t-51 36.5t-46.5 44t-27 48.5t-12.5 61q0 102 71.5 158.5t174.5 56.5q175 0 175 -142zM321 -50l-104 -141h-54l63 141h95z" />
    <glyph glyph-name="scommaaccent" unicode="&#x219;" horiz-adv-x="444" 
d="M474 407q0 -16 -5 -39h-85q3 15 3 28q0 53 -70 53q-38 0 -66.5 -21t-28.5 -58q0 -15 12 -27t43 -30l73 -41q79 -45 79 -112q0 -84 -56.5 -126.5t-144.5 -42.5q-154 0 -154 116q0 21 6 46h88q-5 -22 -5 -37q0 -59 69 -59q44 0 76.5 23t32.5 64q0 30 -31 48l-102 59
q-31 18 -51.5 48t-20.5 58q0 76 56 115.5t137 39.5q145 0 145 -105zM271 -50l-104 -141h-54l63 141h95z" />
    <glyph glyph-name="uni021A" unicode="&#x21a;" 
d="M639 722l-17 -80h-190l-136 -642h-93l136 642h-189l17 80h472zM288 -50l-104 -141h-54l63 141h95z" />
    <glyph glyph-name="uni021B" unicode="&#x21b;" horiz-adv-x="278" 
d="M384 505l-13 -65h-107l-64 -299q-5 -25 -5 -39q0 -22 13 -31.5t47 -9.5q19 0 38 4l-14 -63q-38 -7 -81 -7q-48 0 -71.5 16t-23.5 54q0 17 4 36l72 339h-85l13 65h85l21 97l93 37l-29 -134h107zM195 -50l-104 -141h-54l63 141h95z" />
    <glyph glyph-name="dotlessj" unicode="&#x237;" horiz-adv-x="222" 
d="M54 -74l123 579h82l-122 -575q-14 -65 -48.5 -93t-119.5 -28l15 70q30 0 47 9t23 38z" />
    <glyph glyph-name="circumflex" unicode="&#x2c6;" horiz-adv-x="278" 
d="M332 581l-46 94l-86 -94h-84l130 141h92l70 -141h-76z" />
    <glyph glyph-name="caron" unicode="&#x2c7;" horiz-adv-x="278" 
d="M354 722h84l-130 -141h-92l-70 141h76l46 -94z" />
    <glyph glyph-name="uni02C9" unicode="&#x2c9;" horiz-adv-x="278" 
d="M142 664h276l-12 -56h-276z" />
    <glyph glyph-name="breve" unicode="&#x2d8;" horiz-adv-x="278" 
d="M138 722h49q-1 -40 22.5 -59.5t65.5 -19.5q88 0 122 79h49q-21 -64 -68 -99.5t-112 -35.5q-149 0 -128 135z" />
    <glyph glyph-name="dotaccent" unicode="&#x2d9;" horiz-adv-x="278" 
d="M333 694l-22 -104h-94l22 104h94z" />
    <glyph glyph-name="ring" unicode="&#x2da;" horiz-adv-x="278" 
d="M265 570q-41 0 -63.5 24.5t-22.5 62.5q0 47 37 81t80 34q42 0 64.5 -24t22.5 -61q0 -49 -35.5 -83t-82.5 -34zM268 610q27 0 50 23.5t23 49.5q0 22 -13.5 35.5t-33.5 13.5q-27 0 -50.5 -22.5t-23.5 -50.5q0 -49 48 -49z" />
    <glyph glyph-name="ogonek" unicode="&#x2db;" horiz-adv-x="278" 
d="M220 -115l-11 -54q-64 -22 -112 -22q-41 0 -68.5 23t-18.5 68q7 34 52 61.5t91 38.5l59 2v-2q-50 -16 -81 -39.5t-36 -45.5q-5 -25 5.5 -37.5t30.5 -12.5q27 0 89 20z" />
    <glyph glyph-name="tilde" unicode="&#x2dc;" horiz-adv-x="278" 
d="M405 694h51q-14 -45 -47 -76q-35 -33 -80 -33q-19 0 -68 19q-44 19 -68 19q-17 0 -33.5 -14t-22.5 -31h-46q15 49 47.5 78.5t79.5 29.5q29 0 71 -18q40 -19 55 -19q46 0 61 45z" />
    <glyph glyph-name="hungarumlaut" unicode="&#x2dd;" horiz-adv-x="444" 
d="M282 722h109l-161 -141h-67zM465 722h109l-161 -141h-67z" />
    <glyph glyph-name="uni0394" unicode="&#x394;" horiz-adv-x="580" 
d="M573 0h-566l375 722h113zM472 80l-49 551l-278 -551h327z" />
    <glyph glyph-name="uni03A9" unicode="&#x3a9;" horiz-adv-x="600" 
d="M76 0l16 80h107l14 64q-69 39 -69 150q0 46 25 165l8 39q23 114 86.5 178t186.5 64q98 0 142.5 -51.5t44.5 -136.5q0 -29 -10 -87q-13 -67 -25.5 -112t-32.5 -92.5t-50.5 -77t-71.5 -43.5l-13 -60h107l-17 -80h-184l41 199q59 17 89 68.5t53 149.5l8 34q13 57 13 105
q0 51 -23 78.5t-80 27.5q-44 0 -76.5 -17.5t-52.5 -51t-31 -65.5t-20 -77q-24 -89 -24 -151q0 -83 64 -101l-41 -199h-184z" />
    <glyph glyph-name="uni03BC" unicode="&#x3bc;" 
d="M342 0l12 61h-3q-56 -71 -143 -71q-36 0 -51 10l-41 -191h-82l148 696h82l-75 -350q-10 -47 6.5 -74.5t58.5 -27.5q38 0 75 29.5t49 87.5l71 335h82l-85 -400q-10 -44 -17 -105h-87z" />
    <glyph glyph-name="pi" unicode="&#x3c0;" horiz-adv-x="450" 
d="M446 67l-12 -54q-41 -19 -74 -19q-46 0 -58 27t-5 74q3 27 9 53l63 295h-111l-94 -443h-76l94 443h-70l13 62h410l-13 -62h-76l-70 -327q-8 -24 -3.5 -42.5t28.5 -18.5q19 0 45 12z" />
    <glyph glyph-name="uni0400" unicode="&#x400;" 
d="M81 0l153 722h372l-17 -80h-280l-49 -232h260l-17 -79h-260l-53 -251h287l-17 -80h-379zM330 939h102l66 -141h-65z" />
    <glyph glyph-name="afii10023" unicode="&#x401;" 
d="M81 0l153 722h372l-17 -80h-280l-49 -232h260l-17 -79h-260l-53 -251h287l-17 -80h-379zM402 911l-22 -104h-94l22 104h94zM578 911l-22 -104h-94l22 104h94z" />
    <glyph glyph-name="afii10051" unicode="&#x402;" horiz-adv-x="681" 
d="M203 0l136 642h-189l17 80h472l-17 -80h-190l-49 -232q60 35 121 35q89 0 132.5 -46.5t43.5 -126.5q0 -33 -8 -75q-23 -109 -88.5 -157.5t-180.5 -48.5q-25 0 -35 2l17 78h10q85 0 127.5 32.5t61.5 120.5q5 25 5 43q0 45 -25.5 72t-78.5 27q-33 0 -67.5 -13t-53.5 -30
l-68 -323h-93z" />
    <glyph glyph-name="afii10052" unicode="&#x403;" horiz-adv-x="444" 
d="M87 0l153 722h348l-17 -80h-256l-136 -642h-92zM457 939h113l-159 -141h-69z" />
    <glyph glyph-name="afii10053" unicode="&#x404;" horiz-adv-x="556" 
d="M308 -11q-36 0 -63 5.5t-58.5 22.5t-49 56.5t-17.5 98.5q0 55 14 119l42 196q31 142 97 194t171 52q171 0 171 -144q0 -28 -8 -66h-95q7 27 7 53q0 79 -89 79q-35 0 -62.5 -13t-44 -30.5t-30 -48.5t-19 -54t-13.5 -60l-8 -39h199l-17 -79h-199l-14 -67q-12 -60 -12 -98
q0 -60 25.5 -80t73.5 -20q12 0 23.5 1.5t31 10t35 23t31.5 43.5t24 69h95q-52 -224 -241 -224z" />
    <glyph glyph-name="afii10054" unicode="&#x405;" horiz-adv-x="556" 
d="M281 -11q-184 0 -184 150q0 32 10 82h91q-7 -35 -7 -58q0 -95 98 -95q61 0 107.5 38.5t46.5 97.5q0 56 -58 90q-41 24 -60 36t-51 36.5t-46.5 44t-27 48.5t-12.5 61q0 102 71.5 158.5t174.5 56.5q175 0 175 -142q0 -36 -8 -69h-96q7 32 7 52q0 79 -88 79q-57 0 -97.5 -35
t-40.5 -91q0 -41 29 -68t77 -52q68 -35 108.5 -84.5t40.5 -108.5q0 -106 -74 -166.5t-186 -60.5z" />
    <glyph glyph-name="afii10055" unicode="&#x406;" horiz-adv-x="278" 
d="M93 0l153 722h93l-153 -722h-93z" />
    <glyph glyph-name="afii10056" unicode="&#x407;" horiz-adv-x="278" 
d="M93 0l153 722h93l-153 -722h-93zM291 911l-22 -104h-94l22 104h94zM467 911l-22 -104h-94l22 104h94z" />
    <glyph glyph-name="afii10057" unicode="&#x408;" 
d="M222 -14q-158 0 -158 144q0 41 15 96h96q-16 -59 -16 -88q0 -74 71 -74q101 0 131 140l110 518h92l-114 -537q-42 -199 -227 -199z" />
    <glyph glyph-name="afii10058" unicode="&#x409;" horiz-adv-x="865" 
d="M62 -7q-12 0 -24 2l-18 3l-6 2l16 76q13 -5 29 -5q21 0 38.5 5.5t32 20t26 28.5t22.5 42.5l18.5 49t17 61l15.5 66.5t16 76l64 302h358l-64 -304h101q60 0 111 -39t51 -120q0 -26 -6 -56q-25 -119 -86 -161t-178 -42h-174l136 642h-177l-72 -341q-35 -166 -94 -237
t-153 -71zM531 80h77q65 0 104 27t56 104q5 27 5 42q0 51 -32.5 68t-93.5 17h-61z" />
    <glyph glyph-name="afii10059" unicode="&#x40a;" horiz-adv-x="865" 
d="M87 0l153 722h92l-64 -304h243l64 304h92l-64 -304h101q60 0 111 -39t51 -120q0 -26 -6 -56q-26 -119 -86.5 -161t-177.5 -42h-174l72 338h-243l-72 -338h-92zM531 80h77q65 0 104 27t56 104q5 27 5 42q0 51 -32.5 68t-93.5 17h-61z" />
    <glyph glyph-name="afii10060" unicode="&#x40b;" horiz-adv-x="669" 
d="M203 0l136 642h-189l17 80h472l-17 -80h-190l-47 -226q64 22 114 22q71 0 114.5 -29t43.5 -107q0 -32 -9 -74l-49 -228h-93l51 239q7 35 7 53q0 34 -19.5 50.5t-65.5 16.5q-55 0 -111 -23l-72 -336h-93z" />
    <glyph glyph-name="afii10061" unicode="&#x40c;" horiz-adv-x="556" 
d="M81 0l153 722h92l-67 -317l316 317h110l-333 -333l195 -389h-112l-182 377l-80 -377h-92zM503 939h113l-159 -141h-69z" />
    <glyph glyph-name="uni040D" unicode="&#x40d;" horiz-adv-x="623" 
d="M87 0l153 722h92l-114 -538h3l371 538h97l-153 -722h-92l114 538h-3l-371 -538h-97zM370 939h102l66 -141h-65z" />
    <glyph glyph-name="afii10062" unicode="&#x40e;" horiz-adv-x="536" 
d="M121 0l150 226l-110 496h94l81 -400l245 400h100l-456 -722h-104zM440 777q-140 0 -140 108q0 17 2 27h62v-4q0 -65 77 -65t107 69h62q-44 -135 -170 -135z" />
    <glyph glyph-name="afii10145" unicode="&#x40f;" horiz-adv-x="611" 
d="M228 -161l34 161h-175l153 722h92l-136 -642h253l136 642h92l-153 -722h-175l-34 -161h-87z" />
    <glyph glyph-name="afii10017" unicode="&#x410;" horiz-adv-x="611" 
d="M15 0l382 722h117l82 -722h-98l-15 172h-279l-90 -172h-99zM242 250h234l-36 387z" />
    <glyph glyph-name="afii10018" unicode="&#x411;" horiz-adv-x="600" 
d="M87 0l153 722h396l-17 -80h-304l-45 -216h152q66 0 116.5 -36.5t50.5 -117.5q0 -29 -7 -60q-26 -122 -89 -167t-181 -45h-225zM196 80h128q66 0 107 28.5t58 106.5q5 27 5 43q0 28 -10 46t-29.5 27t-40 12t-49.5 3h-112z" />
    <glyph glyph-name="afii10019" unicode="&#x412;" horiz-adv-x="611" 
d="M90 0l153 722h235q72 0 115 -36.5t43 -99.5q0 -79 -44 -134t-121 -72v-4q117 -16 117 -118q0 -20 -7 -55q-13 -60 -39.5 -101.5t-65 -63t-79.5 -30t-92 -8.5h-215zM200 80h61q39 0 61 1t54 8t51 20t36.5 38.5t25.5 62.5q3 16 3 33q0 68 -54 85q-33 10 -118 10h-65z
M272 417h95q82 0 127.5 33.5t45.5 113.5q0 22 -9 38t-20.5 24t-30.5 12.5t-31.5 5t-30.5 0.5h-98z" />
    <glyph glyph-name="afii10020" unicode="&#x413;" horiz-adv-x="444" 
d="M87 0l153 722h348l-17 -80h-256l-136 -642h-92z" />
    <glyph glyph-name="afii10021" unicode="&#x414;" horiz-adv-x="611" 
d="M-21 -141l47 221h37q48 49 85.5 110t62.5 133.5t39 126.5t30 132l29 140h361l-136 -642h54l-47 -221h-87l30 141h-388l-30 -141h-87zM168 80h274l119 562h-182l-10 -50q-19 -95 -30 -141t-34 -117t-56 -130.5t-81 -123.5z" />
    <glyph glyph-name="afii10022" unicode="&#x415;" 
d="M81 0l153 722h372l-17 -80h-280l-49 -232h260l-17 -79h-260l-53 -251h287l-17 -80h-379z" />
    <glyph glyph-name="afii10024" unicode="&#x416;" horiz-adv-x="808" 
d="M4 0l340 395l-170 327h100l166 -322h3l68 322h92l-68 -322h3l298 322h106l-313 -337l175 -385h-106l-166 372h-3l-79 -372h-92l79 372h-3l-312 -372h-118z" />
    <glyph glyph-name="afii10025" unicode="&#x417;" horiz-adv-x="556" 
d="M278 -14q-194 0 -194 153q0 37 8 71h96q-7 -26 -7 -54q0 -90 96 -90q79 0 122 52t43 131q0 51 -32 71t-99 20q-2 0 -15.5 -1t-15.5 -1l18 85q8 -1 34 -1q68 0 120.5 40t52.5 107q0 39 -27 63.5t-72 24.5q-54 0 -91.5 -33.5t-43.5 -84.5l-1 -10h-96l1 10q15 97 74.5 148
t156.5 51q194 0 194 -164q0 -73 -50 -128.5t-129 -63.5v-3q118 -17 118 -129q0 -118 -71.5 -191t-189.5 -73z" />
    <glyph glyph-name="afii10026" unicode="&#x418;" horiz-adv-x="623" 
d="M87 0l153 722h92l-114 -538h3l371 538h97l-153 -722h-92l114 538h-3l-371 -538h-97z" />
    <glyph glyph-name="afii10027" unicode="&#x419;" horiz-adv-x="623" 
d="M87 0l153 722h92l-114 -538h3l372 538h96l-153 -722h-92l114 538h-3l-372 -538h-96zM480 777q-140 0 -140 108q0 17 2 27h62v-4q0 -65 77 -65t107 69h62q-44 -135 -170 -135z" />
    <glyph glyph-name="afii10028" unicode="&#x41a;" horiz-adv-x="556" 
d="M81 0l153 722h92l-67 -317l316 317h110l-333 -333l195 -389h-112l-182 377l-80 -377h-92z" />
    <glyph glyph-name="afii10029" unicode="&#x41b;" horiz-adv-x="611" 
d="M62 -7q-12 0 -24 2l-18 3l-6 2l16 76q13 -5 29 -5q21 0 38.5 5.5t32 20t26 28.5t22.5 42.5l18.5 49t17 61l15.5 66.5t16 76l64 302h368l-153 -722h-92l136 642h-187l-72 -341q-35 -166 -94 -237t-153 -71z" />
    <glyph glyph-name="afii10030" unicode="&#x41c;" horiz-adv-x="833" 
d="M84 0l153 722h145l55 -606l313 606h151l-153 -722h-88l136 641l-340 -641h-86l-65 641l-136 -641h-85z" />
    <glyph glyph-name="afii10031" unicode="&#x41d;" horiz-adv-x="611" 
d="M87 0l153 722h92l-66 -312h253l66 312h92l-153 -722h-92l70 330h-253l-70 -330h-92z" />
    <glyph glyph-name="afii10032" unicode="&#x41e;" horiz-adv-x="611" 
d="M306 -12q-183 0 -183 176q0 47 13 110l35 164q12 57 22.5 94t32 80.5t49 68.5t72.5 42t104 17q103 0 145.5 -46.5t42.5 -130.5q0 -58 -19 -150l-15 -70q-32 -146 -53 -198q-51 -121 -163 -148q-38 -9 -83 -9zM317 66q38 0 66 11t46 28t32.5 52.5t23 67t20.5 89.5l23 110
q21 100 21 133q0 104 -105 104q-69 0 -109 -42t-60 -135l-46 -214q-13 -59 -13 -103q0 -54 24 -77.5t77 -23.5z" />
    <glyph glyph-name="afii10033" unicode="&#x41f;" horiz-adv-x="611" 
d="M87 0l153 722h437l-153 -722h-92l136 642h-253l-136 -642h-92z" />
    <glyph glyph-name="afii10034" unicode="&#x420;" horiz-adv-x="556" 
d="M93 0l153 722h204q171 0 171 -145q0 -36 -8 -72q-23 -107 -88.5 -147t-166.5 -40h-105l-68 -318h-92zM270 398h70q23 0 36.5 1t35.5 4t37 11.5t31 21.5t27.5 35.5t17.5 52.5q5 23 5 37q0 81 -104 81h-105z" />
    <glyph glyph-name="afii10035" unicode="&#x421;" horiz-adv-x="556" 
d="M297 -11q-97 0 -136.5 47.5t-39.5 130.5q0 73 23 174l22 100q12 56 24 94t34 78t50.5 63.5t72.5 38.5t102 15q88 0 127 -33.5t39 -100.5q0 -31 -10 -79h-96q8 35 8 63q0 72 -83 72q-32 0 -57 -8t-43 -27t-29.5 -35t-21 -47.5t-14 -48.5t-11.5 -52l-32 -153
q-15 -75 -15 -111q0 -54 22 -78t70 -24q118 0 153 151h95q-25 -116 -82.5 -173t-171.5 -57z" />
    <glyph glyph-name="afii10036" unicode="&#x422;" 
d="M203 0l136 642h-189l17 80h472l-17 -80h-190l-136 -642h-93z" />
    <glyph glyph-name="afii10037" unicode="&#x423;" horiz-adv-x="536" 
d="M121 0l150 226l-110 496h94l81 -400l245 400h100l-456 -722h-104z" />
    <glyph glyph-name="afii10038" unicode="&#x424;" horiz-adv-x="802" 
d="M355 0l16 77q-112 2 -171.5 62t-59.5 168q0 47 12 102q28 135 121 199.5t225 66.5l10 47h92l-10 -47q107 -2 170.5 -59t63.5 -165q0 -43 -10 -89q-33 -151 -115.5 -216.5t-235.5 -68.5l-16 -77h-92zM388 155l94 445q-114 -6 -165.5 -55t-73.5 -150q-10 -50 -10 -83
q0 -149 155 -157zM480 155q106 6 163.5 57t79.5 156q10 44 10 83q0 141 -159 149z" />
    <glyph glyph-name="afii10039" unicode="&#x425;" horiz-adv-x="556" 
d="M9 0l289 380l-120 342h100l90 -280l204 280h106l-269 -348l138 -374h-106l-104 301l-220 -301h-108z" />
    <glyph glyph-name="afii10040" unicode="&#x426;" horiz-adv-x="623" 
d="M459 -141l30 141h-402l153 722h92l-136 -642h253l136 642h92l-136 -642h52l-47 -221h-87z" />
    <glyph glyph-name="afii10041" unicode="&#x427;" horiz-adv-x="566" 
d="M387 0l65 307q-72 -16 -126 -16q-89 0 -130 32t-41 103q0 37 10 83l45 213h92l-42 -201q-9 -42 -9 -71q0 -42 19.5 -61t62.5 -19q67 0 135 13l72 339h92l-153 -722h-92z" />
    <glyph glyph-name="afii10042" unicode="&#x428;" horiz-adv-x="906" 
d="M87 0l153 722h92l-136 -642h228l136 642h92l-136 -642h228l136 642h92l-153 -722h-732z" />
    <glyph glyph-name="afii10043" unicode="&#x429;" horiz-adv-x="918" 
d="M754 -141l30 141h-697l153 722h92l-136 -642h228l136 642h92l-136 -642h228l136 642h92l-136 -642h52l-47 -221h-87z" />
    <glyph glyph-name="afii10044" unicode="&#x42a;" horiz-adv-x="659" 
d="M188 0l136 642h-174l17 80h266l-62 -296h123q27 0 54 -8t53 -25t42.5 -49t16.5 -75q0 -25 -6 -57q-26 -122 -89 -167t-181 -45h-196zM297 80h99q66 0 107 28.5t58 106.5q5 27 5 43q0 28 -10 46t-29.5 27t-40 12t-49.5 3h-83z" />
    <glyph glyph-name="afii10045" unicode="&#x42b;" horiz-adv-x="750" 
d="M87 0l153 722h92l-62 -296h115q27 0 54 -8t53 -25t42.5 -49t16.5 -75q0 -25 -6 -57q-26 -122 -89 -167t-181 -45h-188zM196 80h91q66 0 107 28.5t58 106.5q5 27 5 43q0 28 -10 46t-29.5 27t-40 12t-49.5 3h-75zM571 0l153 722h92l-153 -722h-92z" />
    <glyph glyph-name="afii10046" unicode="&#x42c;" horiz-adv-x="564" 
d="M93 0l153 722h92l-62 -296h123q27 0 54 -8t53 -25t42.5 -49t16.5 -75q0 -25 -6 -57q-26 -122 -89 -167t-181 -45h-196zM202 80h99q66 0 107 28.5t58 106.5q5 27 5 43q0 28 -10 46t-29.5 27t-40 12t-49.5 3h-83z" />
    <glyph glyph-name="afii10047" unicode="&#x42d;" horiz-adv-x="556" 
d="M278 -11q-188 0 -188 149q0 38 8 75h95q-6 -32 -6 -54q0 -93 89 -93q30 0 52 6.5t45.5 25.5t42 60.5t31.5 105.5l14 67h-199l17 79h199l8 39q16 77 16 114q0 92 -97 92q-113 0 -138 -132h-95q23 106 80.5 158t157.5 52q184 0 184 -178q0 -47 -11 -98l-42 -196
q-16 -76 -42 -130t-51 -80.5t-60 -41.5t-56.5 -17.5t-53.5 -2.5z" />
    <glyph glyph-name="afii10048" unicode="&#x42e;" horiz-adv-x="827" 
d="M523 -12q-183 0 -183 176q0 47 13 110l12 56h-116l-70 -330h-92l153 722h92l-66 -312h116l6 28q10 47 19 79t23.5 69.5t34.5 62t47.5 46t67 32t88.5 10.5q104 0 146 -45.5t42 -128.5q0 -58 -19 -150l-15 -70q-32 -146 -53 -198q-51 -121 -163 -148q-38 -9 -83 -9zM534 66
q38 0 66 11t46 28t32.5 52.5t23 67t20.5 89.5l23 110q21 100 21 133q0 101 -105 101q-69 0 -109 -40.5t-60 -133.5l-46 -214q-13 -59 -13 -103q0 -54 24 -77.5t77 -23.5z" />
    <glyph glyph-name="afii10049" unicode="&#x42f;" horiz-adv-x="568" 
d="M43 0q38 74 75 189q26 80 65 118t99 46v2q-47 6 -80 47t-33 95q0 101 60.5 163t179.5 62h225l-153 -722h-92l67 318h-84q-72 0 -99 -27t-50 -98q-40 -117 -78 -193h-102zM357 398h116l52 244h-136q-64 0 -96.5 -45.5t-32.5 -99.5q0 -40 24.5 -69.5t72.5 -29.5z" />
    <glyph glyph-name="afii10065" unicode="&#x430;" 
d="M201 -11q-51 0 -80 28.5t-29 81.5q0 214 269 214h37l6 32q7 33 7 49q0 60 -67 60q-45 0 -67.5 -23t-32.5 -68h-89q26 153 195 153q145 0 145 -110q0 -16 -5 -43l-55 -261q-12 -53 -12 -102h-85l12 73h-2q-55 -84 -147 -84zM242 57q40 0 70 28t44 60.5t22 72.5q3 10 6 33
q-13 1 -24 1q-83 0 -133 -28t-50 -104q0 -63 65 -63z" />
    <glyph glyph-name="afii10066" unicode="&#x431;" 
d="M263 -10q-72 0 -111.5 32t-39.5 117q0 48 15 120q35 169 52 219q19 56 40.5 92t53.5 56.5t63 30.5t85 19q34 6 55.5 18.5t22.5 27.5h83q-11 -56 -50 -81.5t-115 -38.5q-91 -16 -130.5 -50t-70.5 -142h3q26 48 70 71.5t78 23.5q77 0 109.5 -36.5t32.5 -104.5
q0 -47 -15 -119q-16 -77 -39 -128t-53.5 -78.5t-63 -38t-75.5 -10.5zM268 57q61 0 89 45.5t54 167.5q11 53 11 83q0 48 -20 66.5t-59 18.5q-49 0 -80 -38t-51 -130q-17 -82 -17 -127t17.5 -65.5t55.5 -20.5z" />
    <glyph glyph-name="afii10067" unicode="&#x432;" horiz-adv-x="490" 
d="M72 0l107 505h190q131 0 131 -94q0 -18 -4 -34q-7 -31 -22.5 -53.5t-35.5 -33t-36.5 -16t-33.5 -8.5q-5 -1 -7 -1v-2q52 -3 76.5 -22.5t24.5 -61.5q0 -20 -6 -47q-28 -132 -202 -132h-182zM172 65h100q47 0 69 17.5t30 59.5q4 20 4 28q0 33 -24 48.5t-78 15.5h-65z
M220 291h65q49 0 87 25t38 72q0 52 -56 52h-102z" />
    <glyph glyph-name="afii10068" unicode="&#x433;" horiz-adv-x="367" 
d="M74 0l107 505h287l-14 -67h-201l-93 -438h-86z" />
    <glyph glyph-name="afii10069" unicode="&#x434;" horiz-adv-x="508" 
d="M-8 -118l39 185h33q55 54 92.5 148.5t66.5 239.5l10 50h302l-93 -438h49l-39 -185h-82l25 118h-296l-25 -118h-82zM159 67h197l80 373h-132l-5 -21q-66 -277 -140 -352z" />
    <glyph glyph-name="afii10070" unicode="&#x435;" 
d="M258 -12q-85 0 -120.5 38.5t-35.5 109.5q0 53 16 125q30 140 81.5 198.5t150.5 58.5q85 0 121.5 -37t36.5 -106q0 -45 -12 -98l-11 -51h-285q-12 -54 -12 -89q0 -82 73 -82q82 0 114 98h90q-21 -84 -70.5 -124.5t-136.5 -40.5zM213 288h197q12 54 12 82q0 83 -77 83
q-32 0 -56 -15.5t-39 -43.5t-22.5 -51.5t-14.5 -54.5z" />
    <glyph glyph-name="afii10072" unicode="&#x436;" horiz-adv-x="664" 
d="M3 0l254 271l-113 234h91l108 -237h3l50 237h86l-50 -237h3l204 237h99l-219 -245l142 -260h-96l-132 258h-3l-55 -258h-86l55 258h-3l-231 -258h-107z" />
    <glyph glyph-name="afii10073" unicode="&#x437;" horiz-adv-x="464" 
d="M236 -10q-70 0 -114 28.5t-44 80.5q0 16 7 51h86q-6 -20 -6 -38q0 -24 19 -39t53 -15q60 0 88 32.5t28 86.5q0 32 -19.5 45t-59.5 13q-29 0 -36 -1l13 62q4 -1 31 -1q50 0 80 29.5t30 79.5q0 22 -17 36t-48 14q-85 0 -100 -78l-4 -20h-83l3 20q10 69 59.5 104t124.5 35
q68 0 111.5 -28.5t43.5 -78.5q0 -65 -41.5 -101t-104.5 -40v-2q53 -3 78.5 -25t25.5 -70q0 -84 -53.5 -132t-150.5 -48z" />
    <glyph glyph-name="afii10074" unicode="&#x438;" horiz-adv-x="508" 
d="M72 0l107 505h86l-79 -372h3l254 372h100l-107 -505h-86l79 372h-3l-254 -372h-100z" />
    <glyph glyph-name="afii10075" unicode="&#x439;" horiz-adv-x="508" 
d="M72 0l107 505h86l-79 -372h3l254 372h100l-107 -505h-86l79 372h-3l-254 -372h-100zM380 577q-128 0 -128 99q0 15 2 23h56v-3q0 -32 18 -43t52 -11q35 0 58 11t38 46h56q-41 -122 -152 -122z" />
    <glyph glyph-name="afii10076" unicode="&#x43a;" horiz-adv-x="455" 
d="M73 0l107 505h86l-50 -235h2l217 235h102l-233 -243l146 -262h-99l-135 260h-2l-55 -260h-86z" />
    <glyph glyph-name="afii10077" unicode="&#x43b;" 
d="M67 -6l-50 6l14 66q20 -2 29 -2q30 0 52 27q18 22 35.5 77t26 91.5t26.5 120.5l26 125h308l-107 -505h-86l93 438h-136l-19 -91q-56 -271 -123 -325q-36 -28 -89 -28z" />
    <glyph glyph-name="afii10078" unicode="&#x43c;" horiz-adv-x="653" 
d="M72 0l107 505h124l43 -394h3l206 394h133l-107 -505h-84l90 425h-3l-227 -425h-65l-47 425h-3l-90 -425h-80z" />
    <glyph glyph-name="afii10079" unicode="&#x43d;" 
d="M72 0l107 505h86l-45 -212h184l45 212h86l-107 -505h-86l48 226h-184l-48 -226h-86z" />
    <glyph glyph-name="afii10080" unicode="&#x43e;" 
d="M250 -14q-85 0 -120 37.5t-35 106.5q0 45 16 125q11 52 20.5 85t28 70.5t42 59t61.5 35.5t88 14q87 0 123.5 -37.5t36.5 -107.5q0 -52 -16 -126q-13 -64 -27.5 -105t-41.5 -80t-70.5 -58t-105.5 -19zM261 55q26 0 46.5 8t35.5 26.5t25 34t19 47t13 48.5l12 53
q13 65 13 94q0 85 -77 85q-26 0 -47 -8t-36 -25.5t-24.5 -32t-18 -43t-12 -41.5t-9.5 -43q-19 -91 -19 -121q0 -82 79 -82z" />
    <glyph glyph-name="afii10081" unicode="&#x43f;" 
d="M72 0l107 505h356l-107 -505h-86l93 438h-184l-93 -438h-86z" />
    <glyph glyph-name="afii10082" unicode="&#x440;" 
d="M38 -192l148 697h86l-13 -61q47 70 122 70q131 0 131 -141q0 -47 -13 -105q-6 -31 -9 -43l-10.5 -41.5t-12.5 -43.5t-15.5 -39t-20.5 -37.5t-25.5 -29.5t-32.5 -25t-39 -14t-48 -6q-84 0 -109 62l-52 -243h-87zM272 55q28 0 51 15t37 35t25.5 52t16.5 53t11 52l3 15
q11 57 11 82q0 87 -77 87q-27 0 -49.5 -14.5t-35.5 -33.5t-24.5 -49t-16.5 -51t-11 -49q-1 -7 -2 -10q-13 -61 -13 -95q0 -89 74 -89z" />
    <glyph glyph-name="afii10083" unicode="&#x441;" 
d="M261 -10q-148 0 -148 149q0 44 14 109q32 149 84 208t152 59q138 0 138 -118q0 -25 -6 -54h-85q5 28 5 44q0 61 -63 61q-58 0 -88.5 -50.5t-50.5 -145.5q-14 -65 -14 -104q0 -89 67 -89q45 0 72.5 30.5t37.5 78.5h86q-17 -82 -68 -130t-133 -48z" />
    <glyph glyph-name="afii10084" unicode="&#x442;" horiz-adv-x="386" 
d="M150 0l93 438h-145l14 67h376l-14 -67h-145l-93 -438h-86z" />
    <glyph glyph-name="afii10085" unicode="&#x443;" horiz-adv-x="444" 
d="M76 -192l101 195l-63 502h91l36 -411l209 411h93l-378 -697h-89z" />
    <glyph glyph-name="afii10086" unicode="&#x444;" horiz-adv-x="722" 
d="M277 -192l49 231h-3q-38 -46 -102 -46q-123 0 -123 138q0 52 20 148q17 79 40 129t52.5 71t51.5 26.5t55 5.5q32 0 58 -17t37 -40h2l52 240h86l-52 -240h2q21 23 51.5 40t59.5 17q58 0 89 -29t31 -105q0 -52 -16 -128q-10 -45 -15.5 -67t-17.5 -58t-26 -54.5t-36 -39
t-52.5 -29t-70.5 -8.5q-23 0 -39.5 7.5t-25 15.5t-19.5 23h-3l-49 -231h-86zM249 60q54 0 92 47l62 292q-13 24 -28.5 34.5t-41.5 10.5q-15 0 -28.5 -3.5t-23.5 -8t-19 -14t-15 -16.5t-12.5 -21.5t-9.5 -22t-7.5 -25t-6 -24t-5.5 -25.5t-5 -23q-21 -98 -21 -133t16 -51.5
t53 -16.5zM499 60q26 0 45 9t31 21.5t22.5 42.5t16.5 54t17 74q18 87 18 110q0 73 -72 73q-46 0 -88 -45l-62 -292q17 -47 72 -47z" />
    <glyph glyph-name="afii10087" unicode="&#x445;" horiz-adv-x="444" 
d="M9 0l212 269l-86 236h95l60 -184l139 184h98l-201 -248l108 -257h-96l-75 207l-156 -207h-98z" />
    <glyph glyph-name="afii10088" unicode="&#x446;" horiz-adv-x="508" 
d="M370 -118l25 118h-323l107 505h86l-93 -438h184l93 438h86l-93 -438h49l-39 -185h-82z" />
    <glyph glyph-name="afii10089" unicode="&#x447;" horiz-adv-x="469" 
d="M311 0l46 215q-59 -19 -112 -19q-63 0 -91.5 25.5t-28.5 75.5q0 25 8 62l31 146h86l-29 -140q-8 -35 -8 -53q0 -28 16 -38.5t56 -10.5q47 0 85 16l48 226h86l-107 -505h-86z" />
    <glyph glyph-name="afii10090" unicode="&#x448;" horiz-adv-x="732" 
d="M72 0l107 505h86l-93 -438h165l93 438h86l-93 -438h165l93 438h86l-107 -505h-588z" />
    <glyph glyph-name="afii10091" unicode="&#x449;" horiz-adv-x="740" 
d="M602 -118l25 118h-555l107 505h86l-93 -438h165l93 438h86l-93 -438h165l93 438h86l-93 -438h49l-39 -185h-82z" />
    <glyph glyph-name="afii10092" unicode="&#x44a;" horiz-adv-x="540" 
d="M143 0l93 438h-137l14 67h223l-41 -196h88q152 0 152 -118q0 -25 -5 -46q-31 -145 -204 -145h-183zM243 67h99q83 0 101 85q5 22 5 35q0 29 -19 42t-65 13h-84z" />
    <glyph glyph-name="afii10093" unicode="&#x44b;" horiz-adv-x="654" 
d="M72 0l107 505h86l-41 -196h88q152 0 152 -118q0 -25 -5 -46q-31 -145 -204 -145h-183zM172 67h99q83 0 101 85q5 22 5 35q0 29 -19 42t-65 13h-84zM496 0l107 505h86l-107 -505h-86z" />
    <glyph glyph-name="afii10094" unicode="&#x44c;" horiz-adv-x="470" 
d="M72 0l107 505h86l-41 -196h88q152 0 152 -118q0 -25 -5 -46q-31 -145 -204 -145h-183zM172 67h99q83 0 101 85q5 22 5 35q0 29 -19 42t-65 13h-84z" />
    <glyph glyph-name="afii10095" unicode="&#x44d;" 
d="M241 -10q-21 0 -43 6t-44.5 19t-36.5 39.5t-14 61.5q0 23 5 43h85q-4 -17 -4 -35q0 -38 18.5 -52.5t37.5 -14.5q56 0 88 38t55 131h-143l14 64h144q8 45 8 71q0 49 -21.5 68t-61.5 19q-28 0 -54 -22t-37 -73h-85q13 79 60 120.5t123 41.5q85 0 120.5 -39.5t35.5 -111.5
q0 -53 -17 -131q-14 -65 -34 -111t-41 -71t-50 -39.5t-52.5 -18t-55.5 -3.5z" />
    <glyph glyph-name="afii10096" unicode="&#x44e;" horiz-adv-x="695" 
d="M445 -10q-85 0 -120 35.5t-35 104.5q0 39 10 96h-94l-48 -226h-86l107 505h86l-45 -212h95q13 54 27.5 90t40 68.5t66 48t97.5 15.5q88 0 124 -35.5t36 -105.5q0 -52 -16 -126q-13 -63 -27.5 -104t-41.5 -79.5t-70.5 -56.5t-105.5 -18zM456 59q26 0 46.5 7.5t35.5 25.5
t25 34t19 45.5t13.5 47.5t11.5 53q13 65 13 94q0 39 -17 60t-60 21q-31 0 -55.5 -13.5t-38 -29t-25.5 -47t-16.5 -48.5t-11.5 -51q-19 -91 -19 -121q0 -38 17.5 -58t61.5 -20z" />
    <glyph glyph-name="afii10097" unicode="&#x44f;" 
d="M58 0q32 65 53 123q26 67 57.5 93.5t79.5 29.5q-41 4 -71.5 28.5t-30.5 72.5q0 80 53.5 119t137.5 39h194l-107 -505h-86l45 211h-56q-59 0 -82.5 -18.5t-44.5 -73.5q-17 -45 -50 -119h-92zM313 278h84l34 160h-107q-39 0 -65 -27.5t-26 -66.5q0 -29 21.5 -47.5
t58.5 -18.5z" />
    <glyph glyph-name="uni0450" unicode="&#x450;" 
d="M258 -12q-85 0 -120.5 38.5t-35.5 109.5q0 53 16 125q30 140 81.5 198.5t150.5 58.5q85 0 121.5 -37t36.5 -106q0 -45 -12 -98l-11 -51h-285q-12 -54 -12 -89q0 -82 73 -82q82 0 114 98h90q-21 -84 -70.5 -124.5t-136.5 -40.5zM213 288h197q12 54 12 82q0 83 -77 83
q-32 0 -56 -15.5t-39 -43.5t-22.5 -51.5t-14.5 -54.5zM412 579h-65l-103 141h102z" />
    <glyph glyph-name="afii10071" unicode="&#x451;" 
d="M258 -12q-85 0 -120.5 38.5t-35.5 109.5q0 53 16 125q30 140 81.5 198.5t150.5 58.5q85 0 121.5 -37t36.5 -106q0 -45 -12 -98l-11 -51h-285q-12 -54 -12 -89q0 -82 73 -82q82 0 114 98h90q-21 -84 -70.5 -124.5t-136.5 -40.5zM213 288h197q12 54 12 82q0 83 -77 83
q-32 0 -56 -15.5t-39 -43.5t-22.5 -51.5t-14.5 -54.5zM356 694l-22 -104h-94l22 104h94zM532 694l-22 -104h-94l22 104h94z" />
    <glyph glyph-name="afii10099" unicode="&#x452;" 
d="M221 -145l14 66q55 0 84.5 27t42.5 88l60 289q7 30 7 50q0 64 -65 64q-53 0 -86 -35t-44 -90l-66 -314h-86l121 573h-92l13 62h92l19 87h85l-19 -87h166l-13 -62h-166l-30 -143q31 40 66 57.5t85 17.5q108 0 108 -115q0 -30 -8 -65l-63 -297q-10 -46 -28 -79t-38 -50.5
t-46.5 -28t-46.5 -13t-45 -2.5h-21z" />
    <glyph glyph-name="afii10100" unicode="&#x453;" horiz-adv-x="367" 
d="M74 0l107 505h287l-14 -67h-201l-93 -438h-86zM372 722h113l-159 -141h-69z" />
    <glyph glyph-name="afii10101" unicode="&#x454;" 
d="M264 -10q-147 0 -147 159q0 50 15 122q10 49 20.5 82.5t28 66.5t41.5 52t59.5 31t83.5 12q65 0 101 -30t36 -87q0 -18 -5 -45h-85q4 17 4 34q0 32 -16 46.5t-39 14.5q-52 0 -86.5 -33.5t-54.5 -124.5h144l-14 -64h-143q-8 -51 -8 -81q0 -47 18.5 -67.5t60.5 -20.5
q9 0 20.5 4t27 13.5t28.5 31.5t20 53h85q-13 -63 -51.5 -103.5t-74 -53t-69.5 -12.5z" />
    <glyph glyph-name="afii10102" unicode="&#x455;" horiz-adv-x="444" 
d="M228 -9q-154 0 -154 116q0 21 6 46h88q-5 -22 -5 -37q0 -59 69 -59q44 0 76.5 23t32.5 64q0 30 -31 48l-102 59q-31 18 -51.5 48t-20.5 58q0 75 54 115t127 40q157 0 157 -105q0 -16 -5 -39h-85q3 15 3 28q0 53 -70 53q-38 0 -66.5 -21t-28.5 -58q0 -15 12 -27t43 -30
l73 -41q79 -45 79 -112q0 -84 -56.5 -126.5t-144.5 -42.5z" />
    <glyph glyph-name="afii10103" unicode="&#x456;" horiz-adv-x="222" 
d="M68 0l107 505h86l-107 -505h-86zM200 634l18 88h92l-18 -88h-92z" />
    <glyph glyph-name="afii10104" unicode="&#x457;" horiz-adv-x="222" 
d="M152 0h-82l107 505h82zM217 694l-22 -104h-94l22 104h94zM393 694l-22 -104h-94l22 104h94z" />
    <glyph glyph-name="afii10105" unicode="&#x458;" horiz-adv-x="222" 
d="M-32 -189l14 67q38 1 52 16t23 55l118 556h86l-126 -595q-22 -100 -142 -100q-12 0 -25 1zM200 634l18 88h92l-18 -88h-92z" />
    <glyph glyph-name="afii10106" unicode="&#x459;" horiz-adv-x="700" 
d="M70 -6l-50 6l14 66q20 -2 29 -2q30 0 52 27q18 22 35.5 77t26 91.5t26.5 120.5l26 125h296l-42 -198h58q154 0 154 -116q0 -25 -5 -46q-31 -145 -205 -145h-149l93 438h-128l-19 -91q-56 -271 -123 -325q-36 -28 -89 -28zM432 67h69q83 0 101 85q5 22 5 35q0 28 -19 40.5
t-65 12.5h-54z" />
    <glyph glyph-name="afii10107" unicode="&#x45a;" horiz-adv-x="700" 
d="M72 0l107 505h86l-42 -198h174l42 198h86l-42 -198h58q154 0 154 -116q0 -25 -5 -46q-31 -145 -205 -145h-153l51 240h-174l-51 -240h-86zM432 67h69q83 0 101 85q5 22 5 35q0 28 -19 40.5t-65 12.5h-54z" />
    <glyph glyph-name="afii10108" unicode="&#x45b;" 
d="M82 0l121 573h-92l13 62h92l19 87h85l-19 -87h166l-13 -62h-166l-30 -143q31 40 66 57.5t85 17.5q109 0 109 -106q0 -24 -7 -61l-71 -338h-86l68 325q7 30 7 50q0 64 -65 64q-53 0 -86 -35t-44 -90l-66 -314h-86z" />
    <glyph glyph-name="afii10109" unicode="&#x45c;" horiz-adv-x="455" 
d="M73 0l107 505h86l-50 -235h2l217 235h102l-233 -243l146 -262h-99l-135 260h-2l-55 -260h-86zM396 722h113l-159 -141h-69z" />
    <glyph glyph-name="uni045D" unicode="&#x45d;" horiz-adv-x="508" 
d="M72 0l107 505h86l-79 -372h3l254 372h100l-107 -505h-86l79 372h-3l-254 -372h-100zM446 579h-65l-103 141h102z" />
    <glyph glyph-name="afii10110" unicode="&#x45e;" horiz-adv-x="444" 
d="M76 -192l101 195l-63 502h91l36 -411l209 411h93l-378 -697h-89zM224 699h56v-3q0 -32 18 -43t52 -11q35 0 58 11t38 46h56q-41 -122 -152 -122q-128 0 -128 99q0 15 2 23z" />
    <glyph glyph-name="afii10193" unicode="&#x45f;" 
d="M190 -118l25 118h-143l107 505h86l-93 -438h184l93 438h86l-107 -505h-131l-25 -118h-82z" />
    <glyph glyph-name="afii10146" unicode="&#x462;" horiz-adv-x="610" 
d="M139 0l114 537h-131l17 80h131l22 105h92l-22 -105h147l-17 -80h-147l-30 -139h101q68 0 117 -38t49 -121q0 -37 -16 -87t-44 -81q-65 -71 -180 -71h-203zM247 80h102q60 0 100 41t40 112q0 51 -31 68t-85 17h-75z" />
    <glyph glyph-name="afii10194" unicode="&#x463;" horiz-adv-x="509" 
d="M111 0l93 438h-103l14 67h103l46 217h86l-46 -217h119l-14 -67h-119l-28 -129h89q152 0 152 -118q0 -47 -19 -90t-57 -68q-50 -33 -133 -33h-183zM211 67h99q51 0 77 31q29 37 29 89q0 29 -19 42t-65 13h-84z" />
    <glyph glyph-name="afii10147" unicode="&#x472;" horiz-adv-x="611" 
d="M306 -12q-183 0 -183 176q0 47 13 110l35 164q12 57 22.5 94t32 80.5t49 68.5t72.5 42t104 17q103 0 145.5 -46.5t42.5 -130.5q0 -58 -19 -150l-15 -70q-32 -146 -53 -198q-51 -121 -163 -148q-38 -9 -83 -9zM317 66q38 0 66 11t46 28t32.5 52.5t23 67t20.5 89.5l5 26
q-32 -20 -69 -20q-24 0 -64 21.5t-66 21.5q-40 0 -68 -25l-14 -68q-13 -59 -13 -103q0 -54 24 -77.5t77 -23.5zM459 388q41 0 67 26l2 10q21 100 21 133q0 104 -105 104q-69 0 -109 -42t-60 -135l-15 -71q32 19 66 19q33 0 73 -22t60 -22z" />
    <glyph glyph-name="afii10195" unicode="&#x473;" 
d="M250 -14q-85 0 -120 37.5t-35 106.5q0 45 16 125q11 52 20.5 85t28 70.5t42 59t61.5 35.5t88 14q87 0 123.5 -37.5t36.5 -107.5q0 -52 -16 -126q-13 -64 -27.5 -105t-41.5 -80t-70.5 -58t-105.5 -19zM261 55q34 0 59 14.5t41 42.5t25 56t18 69q-26 -20 -61 -20
q-17 0 -46 16t-48 16q-39 0 -55 -21q-12 -57 -12 -91q0 -82 79 -82zM360 276q40 0 58 26q7 37 7 64q0 85 -77 85q-34 0 -59 -13.5t-40.5 -39t-24 -49.5t-16.5 -57q26 17 55 17q25 0 53 -16.5t44 -16.5z" />
    <glyph glyph-name="afii10148" unicode="&#x474;" horiz-adv-x="556" 
d="M217 0l-51 722h93l29 -635l257 555q24 52 52.5 72t79.5 20q3 0 42 -3l-15 -71q-4 0 -13 0.5t-11 0.5q-20 0 -31.5 -11t-23.5 -34l-298 -616h-110z" />
    <glyph glyph-name="afii10196" unicode="&#x475;" horiz-adv-x="444" 
d="M160 0l-39 505h88l19 -429l167 353q21 44 45.5 62.5t79.5 18.5q9 0 31 -2l-13 -63q-3 0 -8.5 0.5t-7.5 0.5q-34 0 -53 -40l-203 -406h-106z" />
    <glyph glyph-name="afii10050" unicode="&#x490;" horiz-adv-x="444" 
d="M87 0l153 722h261l31 142h87l-48 -222h-256l-136 -642h-92z" />
    <glyph glyph-name="afii10098" unicode="&#x491;" horiz-adv-x="367" 
d="M73 0l107 505h206l26 118h82l-40 -185h-201l-93 -438h-87z" />
    <glyph glyph-name="Wgrave" unicode="&#x1e80;" horiz-adv-x="889" 
d="M1035 722l-344 -722h-112v626l-285 -626h-112l-23 722h98l1 -626l282 626h119l-1 -626l281 626h96zM518 939h102l66 -141h-65z" />
    <glyph glyph-name="wgrave" unicode="&#x1e81;" horiz-adv-x="722" 
d="M821 505l-243 -505h-110l-14 426l-209 -426h-110l-19 505h91l-1 -429l206 429h116l13 -429l192 429h88zM565 579h-65l-103 141h102z" />
    <glyph glyph-name="Wacute" unicode="&#x1e82;" horiz-adv-x="889" 
d="M1035 722l-344 -722h-112v626l-285 -626h-112l-23 722h98l1 -626l282 626h119l-1 -626l281 626h96zM684 939h113l-159 -141h-69z" />
    <glyph glyph-name="wacute" unicode="&#x1e83;" horiz-adv-x="722" 
d="M821 505l-243 -505h-110l-14 426l-209 -426h-110l-19 505h91l-1 -429l206 429h116l13 -429l192 429h88zM528 722h113l-159 -141h-69z" />
    <glyph glyph-name="Wdieresis" unicode="&#x1e84;" horiz-adv-x="889" 
d="M1035 722l-344 -722h-112v626l-285 -626h-112l-23 722h98l1 -626l282 626h119l-1 -626l281 626h96zM594 911l-22 -104h-94l22 104h94zM770 911l-22 -104h-94l22 104h94z" />
    <glyph glyph-name="wdieresis" unicode="&#x1e85;" horiz-adv-x="722" 
d="M821 505l-243 -505h-110l-14 426l-209 -426h-110l-19 505h91l-1 -429l206 429h116l13 -429l192 429h88zM464 694l-22 -104h-94l22 104h94zM640 694l-22 -104h-94l22 104h94z" />
    <glyph glyph-name="Ygrave" unicode="&#x1ef2;" 
d="M645 722l-289 -432l-62 -290h-91l62 292l-104 430h98l68 -349l219 349h99zM322 939h102l66 -141h-65z" />
    <glyph glyph-name="ygrave" unicode="&#x1ef3;" horiz-adv-x="444" 
d="M543 505l-378 -697h-89l101 195l-63 502h91l36 -411l209 411h93zM420 579h-65l-103 141h102z" />
    <glyph glyph-name="uni2010" unicode="&#x2010;" horiz-adv-x="333" 
d="M342 308l-15 -74h-220l15 74h220z" />
    <glyph glyph-name="endash" unicode="&#x2013;" 
d="M564 299l-12 -56h-500l12 56h500z" />
    <glyph glyph-name="emdash" unicode="&#x2014;" horiz-adv-x="1000" 
d="M1064 299l-12 -56h-1000l12 56h1000z" />
    <glyph glyph-name="quoteleft" unicode="&#x2018;" horiz-adv-x="222" 
d="M340 726l-84 -201h-108l124 201h68z" />
    <glyph glyph-name="quoteright" unicode="&#x2019;" horiz-adv-x="222" 
d="M341 726l-125 -201h-68l85 201h108z" />
    <glyph glyph-name="quotesinglbase" unicode="&#x201a;" horiz-adv-x="222" 
d="M203 88l-126 -200h-68l86 200h108z" />
    <glyph glyph-name="quotedblleft" unicode="&#x201c;" horiz-adv-x="444" 
d="M535 725l-86 -201h-107l125 201h68zM367 725l-85 -201h-108l125 201h68z" />
    <glyph glyph-name="quotedblright" unicode="&#x201d;" horiz-adv-x="444" 
d="M535 726l-124 -201h-68l85 201h107zM368 726l-125 -201h-68l85 201h108z" />
    <glyph glyph-name="quotedblbase" unicode="&#x201e;" horiz-adv-x="444" 
d="M400 88l-125 -200h-68l86 200h107zM233 88l-126 -200h-68l86 200h108z" />
    <glyph glyph-name="dagger" unicode="&#x2020;" horiz-adv-x="444" 
d="M525 571l-15 -72h-142l-106 -499h-79l106 499h-142l15 72h142l32 151h79l-32 -151h142z" />
    <glyph glyph-name="daggerdbl" unicode="&#x2021;" horiz-adv-x="444" 
d="M524 571l-15 -70h-141l-59 -280h141l-15 -69h-141l-32 -152h-80l32 152h-140l15 69h140l59 280h-140l15 70h140l32 151h80l-32 -151h141z" />
    <glyph glyph-name="bullet" unicode="&#x2022;" horiz-adv-x="333" 
d="M417 356q0 -74 -52.5 -126t-125.5 -52t-125.5 52t-52.5 126t52 126t126 52t126 -52t52 -126z" />
    <glyph glyph-name="ellipsis" unicode="&#x2026;" horiz-adv-x="1000" 
d="M236 104l-22 -104h-94l22 104h94zM902 104l-22 -104h-94l22 104h94zM569 104l-22 -104h-94l22 104h94z" />
    <glyph glyph-name="perthousand" unicode="&#x2030;" horiz-adv-x="889" 
d="M913 246q0 -28 -9 -73q-8 -37 -13 -55.5t-17 -48t-26 -44t-39 -26t-57 -11.5q-92 0 -92 95q0 33 10 81q21 99 51.5 137.5t94.5 38.5q97 0 97 -94zM379 614q0 -28 -9 -73q-7 -36 -12 -55.5t-17 -48t-26.5 -43.5t-39 -26.5t-56.5 -11.5q-93 0 -93 95q0 33 10 81
q21 99 51.5 137.5t94.5 38.5q97 0 97 -94zM635 708l-465 -722h-61l464 722h62zM622 246q0 -28 -9 -73q-8 -37 -13 -55.5t-17 -48t-26 -44t-39 -26t-57 -11.5q-92 0 -92 95q0 33 10 81q21 99 51.5 137.5t94.5 38.5q97 0 97 -94zM851 251q0 40 -35 40q-30 0 -46 -25
q-18 -26 -34 -101q-14 -68 -14 -86q0 -39 37 -39q27 0 44 24q18 25 36 109q12 60 12 78zM318 619q0 40 -36 40q-30 0 -46 -25q-18 -26 -34 -101q-13 -63 -13 -86q0 -39 36 -39q27 0 44 24q18 25 36 109q13 65 13 78zM560 251q0 40 -35 40q-30 0 -46 -25q-18 -26 -34 -101
q-14 -68 -14 -86q0 -39 37 -39q27 0 44 24q18 25 36 109q12 60 12 78z" />
    <glyph glyph-name="guilsinglleft" unicode="&#x2039;" horiz-adv-x="222" 
d="M293 447l-128 -201l38 -188h-72l-55 193l134 196h83z" />
    <glyph glyph-name="guilsinglright" unicode="&#x203a;" horiz-adv-x="222" 
d="M252 254l-134 -196h-83l128 201l-38 188h72z" />
    <glyph glyph-name="interrobang" unicode="&#x203d;" horiz-adv-x="444" 
d="M390 582l-34 -140q67 97 67 161q0 30 -15.5 46.5t-42.5 16.5q-43 0 -73 -34t-36 -102h-88q13 102 69 153.5t136 51.5q72 0 108.5 -34t36.5 -94q0 -22 -4 -43t-8.5 -37t-16.5 -36l-18 -30.5t-25 -32t-25.5 -28l-30.5 -30.5t-29 -30q-26 -26 -33.5 -39.5t-14.5 -45.5
l-16 -72h-76l71 399h98zM264 0h-93l20 98h93z" />
    <glyph glyph-name="fraction" unicode="&#x2044;" horiz-adv-x="167" 
d="M-109 -30h-63l595 749h62z" />
    <glyph glyph-name="zero.superior" unicode="&#x2070;" horiz-adv-x="293" 
d="M208 270q-97 0 -97 99q0 29 10 76l23 108q17 82 50 115.5t95 33.5q97 0 97 -98q0 -35 -11 -87l-14 -65q-10 -47 -19 -73.5t-25.5 -55t-43 -41t-65.5 -12.5zM214 327q28 0 44 25t31 94l15 70q12 54 12 84q0 44 -33 44q-30 0 -46.5 -28t-31.5 -100l-18 -84q-8 -40 -8 -61
q0 -44 35 -44z" />
    <glyph glyph-name="four.superior" unicode="&#x2074;" horiz-adv-x="293" 
d="M222 278l21 101h-136l14 67l173 250h85l-54 -258h50l-13 -59h-50l-21 -101h-69zM180 438h77l35 166z" />
    <glyph glyph-name="five.superior" unicode="&#x2075;" horiz-adv-x="293" 
d="M215 270q-101 0 -101 82q0 18 4 35h71q-4 -21 -4 -27q0 -34 34 -34q46 0 64 68q11 40 11 66q0 37 -36 37q-38 0 -56 -47h-68l59 246h207l-12 -59h-140l-26 -103q31 20 67 20q73 0 73 -84q0 -31 -10 -70q-18 -70 -50.5 -100t-86.5 -30z" />
    <glyph glyph-name="six.superior" unicode="&#x2076;" horiz-adv-x="293" 
d="M214 270q-96 0 -96 106q0 38 11 90l10 46q21 100 51.5 145t98.5 45q48 0 73.5 -23t25.5 -64q0 -8 -3 -29h-72q4 19 4 24q0 35 -31 35q-50 0 -71 -101l-4 -18q37 23 66 23q39 0 60 -25t21 -70q0 -80 -40.5 -132t-103.5 -52zM219 326q47 0 66 87q4 19 4 36q0 41 -35 41
q-50 0 -66 -77q-5 -27 -5 -41q0 -46 36 -46z" />
    <glyph glyph-name="seven.superior" unicode="&#x2077;" horiz-adv-x="293" 
d="M127 278l190 357h-156l13 61h231l-11 -55l-190 -363h-77z" />
    <glyph glyph-name="eight.superior" unicode="&#x2078;" horiz-adv-x="293" 
d="M210 270q-51 0 -76.5 24t-25.5 68q0 99 80 135q-33 20 -33 66q0 66 38 102t94 36q48 0 74 -23.5t26 -62.5q0 -81 -73 -117q36 -19 36 -68q0 -78 -39.5 -119t-100.5 -41zM215 329q27 0 47 25.5t20 68.5t-37 43q-27 0 -46.5 -26t-19.5 -71q0 -40 36 -40zM257 529
q23 0 41.5 22t18.5 58q0 37 -33 37q-26 0 -43 -21.5t-17 -55.5q0 -40 33 -40z" />
    <glyph glyph-name="nine.superior" unicode="&#x2079;" horiz-adv-x="293" 
d="M205 270q-44 0 -69 21.5t-25 61.5q0 17 4 33h70q-3 -14 -3 -25q0 -33 31 -33q28 0 43.5 25t34.5 106q-35 -27 -70 -27q-38 0 -58.5 25.5t-20.5 69.5q0 84 41.5 129t101.5 45q96 0 96 -104q0 -42 -12 -96l-11 -49q-22 -98 -52 -140t-101 -42zM249 492q25 0 46 29t21 80
q0 44 -40 44q-23 0 -44 -31t-21 -79q0 -43 38 -43z" />
    <glyph glyph-name="plus.superior" unicode="&#x207a;" horiz-adv-x="293" 
d="M212 285v119h-120v49h120v120h49v-120h119v-49h-119v-119h-49z" />
    <glyph glyph-name="minus.superior" unicode="&#x207b;" horiz-adv-x="293" 
d="M101 404v49h272v-49h-272z" />
    <glyph glyph-name="equal.superior" unicode="&#x207c;" horiz-adv-x="293" 
d="M91 352v49h272v-49h-272zM91 457v49h272v-49h-272z" />
    <glyph glyph-name="parenleft.superior" unicode="&#x207d;" horiz-adv-x="183" 
d="M137 207q-17 138 -17 174q0 42 9 87q5 26 14 52.5t24 57l24.5 48.5l30.5 56l28 50h49q-81 -176 -100 -266q-18 -79 -18 -183q0 -40 3 -76h-47z" />
    <glyph glyph-name="parenright.superior" unicode="&#x207e;" horiz-adv-x="183" 
d="M132 207h-47q71 140 97 259q15 74 15 160q0 1 -3 106h49q1 -12 7 -53t8.5 -68.5t2.5 -54.5q0 -43 -9 -88q-4 -19 -9.5 -37.5t-14.5 -40t-15.5 -35.5t-20 -39t-18.5 -35t-21.5 -38.5z" />
    <glyph glyph-name="n.superior" unicode="&#x207f;" horiz-adv-x="300" 
d="M126 423l65 306h66l-4 -21q28 27 78 27q71 0 71 -67q0 -14 -6 -46l-43 -199h-67l43 201q3 12 3 25q0 31 -32 31q-26 0 -42.5 -17.5t-22.5 -45.5l-42 -194h-67z" />
    <glyph glyph-name="zero.inferior" unicode="&#x2080;" horiz-adv-x="293" 
d="M148 -8q-97 0 -97 99q0 29 10 76l23 108q17 82 50 115.5t95 33.5q97 0 97 -98q0 -35 -11 -87l-14 -65q-10 -47 -19 -73.5t-25.5 -55t-43 -41t-65.5 -12.5zM154 49q28 0 44 25t31 94l15 70q12 54 12 84q0 44 -33 44q-30 0 -46.5 -28t-31.5 -100l-18 -84q-8 -40 -8 -61
q0 -44 35 -44z" />
    <glyph glyph-name="one.inferior" unicode="&#x2081;" horiz-adv-x="293" 
d="M127 0l71 336l-70 -39l15 70q49 20 82 51h61l-88 -418h-71z" />
    <glyph glyph-name="two.inferior" unicode="&#x2082;" horiz-adv-x="293" 
d="M38 0l12 58l136 140q41 42 60 72t19 63q0 34 -35 34q-41 0 -54 -58l-2 -11h-72l3 14q12 57 43.5 84.5t87.5 27.5q45 0 72.5 -24.5t27.5 -63.5q0 -36 -16.5 -70t-34.5 -54t-57 -58l-94 -92h156l-13 -62h-239z" />
    <glyph glyph-name="three.inferior" unicode="&#x2083;" horiz-adv-x="293" 
d="M153 -8q-102 0 -102 87q0 20 6 47h69q-6 -25 -6 -39q0 -36 41 -36q32 0 53 23.5t21 69.5q0 43 -60 43h-19l14 63q10 -1 19 -1q38 0 59.5 20t21.5 59q0 37 -41 37q-49 0 -60 -71h-70l4 20q10 53 45.5 81.5t86.5 28.5q52 0 78.5 -23t26.5 -64q0 -46 -19 -73.5t-62 -45.5
q44 -18 44 -68q0 -79 -41.5 -118.5t-108.5 -39.5z" />
    <glyph glyph-name="four.inferior" unicode="&#x2084;" horiz-adv-x="293" 
d="M162 0l21 101h-136l14 67l173 250h85l-54 -258h50l-13 -59h-50l-21 -101h-69zM120 160h77l35 166z" />
    <glyph glyph-name="five.inferior" unicode="&#x2085;" horiz-adv-x="293" 
d="M165 -8q-101 0 -101 82q0 18 4 35h71q-4 -21 -4 -27q0 -34 34 -34q46 0 64 68q11 40 11 66q0 37 -36 37q-38 0 -56 -47h-68l59 246h207l-12 -59h-140l-26 -103q31 20 67 20q73 0 73 -84q0 -31 -10 -70q-18 -70 -50.5 -100t-86.5 -30z" />
    <glyph glyph-name="six.inferior" unicode="&#x2086;" horiz-adv-x="293" 
d="M164 -8q-96 0 -96 106q0 38 11 90l10 46q21 100 51.5 145t98.5 45q48 0 73.5 -23t25.5 -64q0 -8 -3 -29h-72q4 19 4 24q0 35 -31 35q-50 0 -71 -101l-4 -18q37 23 66 23q39 0 60 -25t21 -70q0 -80 -40.5 -132t-103.5 -52zM169 48q47 0 66 87q4 19 4 36q0 41 -35 41
q-50 0 -66 -77q-5 -27 -5 -41q0 -46 36 -46z" />
    <glyph glyph-name="seven.inferior" unicode="&#x2087;" horiz-adv-x="293" 
d="M67 0l190 357h-156l13 61h231l-11 -55l-190 -363h-77z" />
    <glyph glyph-name="eight.inferior" unicode="&#x2088;" horiz-adv-x="293" 
d="M160 -8q-51 0 -76.5 24t-25.5 68q0 99 80 135q-33 20 -33 66q0 66 38 102t94 36q48 0 74 -23.5t26 -62.5q0 -81 -73 -117q36 -19 36 -68q0 -78 -39.5 -119t-100.5 -41zM165 51q27 0 47 25.5t20 68.5t-37 43q-27 0 -46.5 -26t-19.5 -71q0 -40 36 -40zM207 251
q23 0 41.5 22t18.5 58q0 37 -33 37q-26 0 -43 -21.5t-17 -55.5q0 -40 33 -40z" />
    <glyph glyph-name="nine.inferior" unicode="&#x2089;" horiz-adv-x="293" 
d="M145 -8q-44 0 -69 21.5t-25 61.5q0 17 4 33h70q-3 -14 -3 -25q0 -33 31 -33q28 0 43.5 25t34.5 106q-35 -27 -70 -27q-38 0 -58.5 25.5t-20.5 69.5q0 84 41.5 129t101.5 45q96 0 96 -104q0 -42 -12 -96l-11 -49q-22 -98 -52 -140t-101 -42zM189 214q25 0 46 29t21 80
q0 44 -40 44q-23 0 -44 -31t-21 -79q0 -43 38 -43z" />
    <glyph glyph-name="plus.inferior" unicode="&#x208a;" horiz-adv-x="293" 
d="M162 7v119h-120v49h120v120h49v-120h119v-49h-119v-119h-49z" />
    <glyph glyph-name="minus.inferior" unicode="&#x208b;" horiz-adv-x="293" 
d="M41 126v49h272v-49h-272z" />
    <glyph glyph-name="equal.inferior" unicode="&#x208c;" horiz-adv-x="293" 
d="M41 74v49h272v-49h-272zM41 179v49h272v-49h-272z" />
    <glyph glyph-name="parenleft.inferior" unicode="&#x208d;" horiz-adv-x="183" 
d="M87 -71q-17 138 -17 174q0 42 9 87q5 26 14 52.5t24 57l24.5 48.5l30.5 56l28 50h49q-81 -176 -100 -266q-18 -79 -18 -183q0 -40 3 -76h-47z" />
    <glyph glyph-name="parenright.inferior" unicode="&#x208e;" horiz-adv-x="183" 
d="M72 -71h-47q71 140 97 259q15 74 15 160q0 1 -3 106h49q1 -12 7 -53t8.5 -68.5t2.5 -54.5q0 -43 -9 -88q-4 -19 -9.5 -37.5t-14.5 -40t-15.5 -35.5t-20 -39t-18.5 -35t-21.5 -38.5z" />
    <glyph glyph-name="Euro" unicode="&#x20ac;" horiz-adv-x="444" 
d="M85 314h46l14 66h-57l25 67h48l10 49q45 213 228 213q143 0 143 -122q0 -29 -7 -58h-89q4 17 4 35q0 65 -68 65q-89 0 -115 -123l-13 -59h160l-25 -67h-150l-14 -66h138l-25 -67h-126l-13 -59q-7 -35 -7 -53q0 -70 74 -70q46 0 70 22t35 75h87q-19 -90 -67.5 -133
t-136.5 -43q-157 0 -157 136q0 27 8 65l13 60h-58z" />
    <glyph glyph-name="afii61248" unicode="&#x2105;" horiz-adv-x="754" 
d="M286 419q-93 0 -93 94q0 25 10 75q18 86 51 117.5t92 31.5q89 0 89 -75q0 -15 -5 -40h-65q3 15 3 26q0 34 -31 34q-29 0 -45 -27t-26 -77q-7 -32 -7 -56q0 -46 33 -46q44 0 57 63h66q-9 -59 -43.5 -89.5t-85.5 -30.5zM166 -30h-63l596 749h62zM560 -8q-52 0 -76 20.5
t-24 71.5q0 33 10 79q16 74 47.5 111.5t97.5 37.5q53 0 77.5 -21.5t24.5 -71.5q0 -32 -9 -77q-18 -83 -51.5 -116.5t-96.5 -33.5zM567 47q31 0 47 22.5t31 89.5q7 37 7 53q0 46 -39 46q-29 0 -45.5 -17.5t-29.5 -79.5q-11 -52 -11 -74q0 -24 9 -32t31 -8z" />
    <glyph glyph-name="afii61289" unicode="&#x2113;" horiz-adv-x="427" 
d="M280 504l-40 -187q129 127 156 255q9 41 -0.5 60.5t-27.5 19.5q-25 0 -48.5 -35.5t-39.5 -112.5zM370 117q22 -26 30 -38q-73 -88 -165 -88q-71 0 -94 40t-7 136q2 8 2 13l-50 -34q-5 10 -16 44q33 21 79 57l44 206q30 142 76.5 200t111.5 58q46 0 69.5 -36t9.5 -102
q-34 -164 -237 -335l-6 -29q-15 -82 -8.5 -112.5t33.5 -35.5l13 -1q6 0 22 2q41 3 93 55z" />
    <glyph glyph-name="afii61352" unicode="&#x2116;" horiz-adv-x="887" 
d="M66 0l148 694h135l102 -590h2l126 590h92l-148 -694h-131l-105 598h-2l-127 -598h-92zM587 0l12 56h260l-12 -56h-260zM756 136q-53 0 -83.5 19.5t-30.5 76.5q0 31 6 57q16 81 47 121.5t108 40.5q113 0 113 -100q0 -27 -8 -62q-19 -92 -55.5 -122.5t-96.5 -30.5zM755 177
q40 0 57.5 28t34.5 105q6 32 6 51q0 28 -12 38.5t-37 10.5q-33 0 -52.5 -20.5t-32.5 -79.5q-12 -54 -12 -84q0 -26 11 -37.5t37 -11.5z" />
    <glyph glyph-name="published" unicode="&#x2117;" horiz-adv-x="800" 
d="M509 337h-87v-191h-66v438h154q71 0 102.5 -27t31.5 -91t-32 -96.5t-103 -32.5zM422 533v-145h74q44 0 63.5 18.5t19.5 61.5q0 35 -16.5 50t-50.5 15h-90zM474 740q155 0 265.5 -110.5t110.5 -265.5t-110.5 -265.5t-265.5 -110.5q-156 0 -266 110.5t-110 265.5t110 265.5
t266 110.5zM474 45q130 0 223 94t93 225t-93 225t-223 94q-131 0 -224 -94t-93 -225t93 -225t224 -94z" />
    <glyph glyph-name="trademark" unicode="&#x2122;" horiz-adv-x="825" 
d="M842 366h-44v309l-115 -309h-40l-116 309v-309h-43v356h73l107 -283l108 283h70v-356zM420 680h-122v-314h-49v314h-122v42h293v-42z" />
    <glyph glyph-name="Omega" unicode="&#x2126;" horiz-adv-x="600" 
d="M76 0l16 80h107l14 64q-69 39 -69 150q0 46 25 165l8 39q23 114 86.5 178t186.5 64q98 0 142.5 -51.5t44.5 -136.5q0 -29 -10 -87q-13 -67 -25.5 -112t-32.5 -92.5t-50.5 -77t-71.5 -43.5l-13 -60h107l-17 -80h-184l41 199q59 17 89 68.5t53 149.5l8 34q13 57 13 105
q0 51 -23 78.5t-80 27.5q-44 0 -76.5 -17.5t-52.5 -51t-31 -65.5t-20 -77q-24 -89 -24 -151q0 -83 64 -101l-41 -199h-184z" />
    <glyph glyph-name="estimated" unicode="&#x212e;" horiz-adv-x="764" 
d="M799 350h-526v-237q77 -77 188 -77q82 0 142.5 37.5t108.5 119.5l46 -27q-61 -95 -128 -135.5t-169 -40.5q-151 0 -243.5 103t-92.5 257q0 155 92.5 258t243.5 103q150 0 243 -101t95 -260zM273 398h379v188q-81 78 -192 78q-112 0 -187 -78v-188z" />
    <glyph glyph-name="onethird" unicode="&#x2153;" horiz-adv-x="754" 
d="M139 -30h-63l595 749h62zM176 278l71 336l-70 -39l15 70q49 20 82 51h61l-88 -418h-71zM574 -8q-102 0 -102 87q0 20 6 47h69q-6 -25 -6 -39q0 -36 41 -36q32 0 53 23.5t21 69.5q0 43 -60 43h-19l14 63q10 -1 19 -1q38 0 59.5 20t21.5 59q0 37 -41 37q-49 0 -60 -71h-70
l4 20q10 53 45.5 81.5t86.5 28.5q52 0 78.5 -23t26.5 -64q0 -46 -19 -73.5t-62 -45.5q44 -18 44 -68q0 -79 -41.5 -118.5t-108.5 -39.5z" />
    <glyph glyph-name="twothirds" unicode="&#x2154;" horiz-adv-x="754" 
d="M180 -30h-63l595 749h62zM88 278l12 58l136 140q41 42 60 72t19 63q0 34 -35 34q-41 0 -54 -58l-2 -11h-72l3 14q12 57 43.5 84.5t87.5 27.5q45 0 72.5 -24.5t27.5 -63.5q0 -36 -16.5 -70t-34.5 -54t-57 -58l-94 -92h156l-13 -62h-239zM594 -8q-102 0 -102 87q0 20 6 47
h69q-6 -25 -6 -39q0 -36 41 -36q32 0 53 23.5t21 69.5q0 43 -60 43h-19l14 63q10 -1 19 -1q38 0 59.5 20t21.5 59q0 37 -41 37q-49 0 -60 -71h-70l4 20q10 53 45.5 81.5t86.5 28.5q52 0 78.5 -23t26.5 -64q0 -46 -19 -73.5t-62 -45.5q44 -18 44 -68q0 -79 -41.5 -118.5
t-108.5 -39.5z" />
    <glyph glyph-name="oneeighth" unicode="&#x215b;" horiz-adv-x="754" 
d="M134 -30h-63l595 749h62zM177 278l71 336l-70 -39l15 70q49 20 82 51h61l-88 -418h-71zM575 -8q-51 0 -76.5 24t-25.5 68q0 99 80 135q-33 20 -33 66q0 66 38 102t94 36q48 0 74 -23.5t26 -62.5q0 -81 -73 -117q36 -19 36 -68q0 -78 -39.5 -119t-100.5 -41zM580 51
q27 0 47 25.5t20 68.5t-37 43q-27 0 -46.5 -26t-19.5 -71q0 -40 36 -40zM622 251q23 0 41.5 22t18.5 58q0 37 -33 37q-26 0 -43 -21.5t-17 -55.5q0 -40 33 -40z" />
    <glyph glyph-name="threeeighths" unicode="&#x215c;" horiz-adv-x="754" 
d="M168 -30h-63l595 749h62zM213 270q-102 0 -102 87q0 20 6 47h69q-6 -25 -6 -39q0 -36 41 -36q32 0 53 23.5t21 69.5q0 43 -60 43h-19l14 63q10 -1 19 -1q38 0 59.5 20t21.5 59q0 37 -41 37q-49 0 -60 -71h-70l4 20q10 53 45.5 81.5t86.5 28.5q52 0 78.5 -23t26.5 -64
q0 -46 -19 -73.5t-62 -45.5q44 -18 44 -68q0 -79 -41.5 -118.5t-108.5 -39.5zM598 -8q-51 0 -76.5 24t-25.5 68q0 99 80 135q-33 20 -33 66q0 66 38 102t94 36q48 0 74 -23.5t26 -62.5q0 -81 -73 -117q36 -19 36 -68q0 -78 -39.5 -119t-100.5 -41zM603 51q27 0 47 25.5
t20 68.5t-37 43q-27 0 -46.5 -26t-19.5 -71q0 -40 36 -40zM645 251q23 0 41.5 22t18.5 58q0 37 -33 37q-26 0 -43 -21.5t-17 -55.5q0 -40 33 -40z" />
    <glyph glyph-name="fiveeighths" unicode="&#x215d;" horiz-adv-x="754" 
d="M174 -30h-63l595 749h62zM217 270q-101 0 -101 82q0 18 4 35h71q-4 -21 -4 -27q0 -34 34 -34q46 0 64 68q11 40 11 66q0 37 -36 37q-38 0 -56 -47h-68l59 246h207l-12 -59h-140l-26 -103q31 20 67 20q73 0 73 -84q0 -31 -10 -70q-18 -70 -50.5 -100t-86.5 -30zM593 -8
q-51 0 -76.5 24t-25.5 68q0 99 80 135q-33 20 -33 66q0 66 38 102t94 36q48 0 74 -23.5t26 -62.5q0 -81 -73 -117q36 -19 36 -68q0 -78 -39.5 -119t-100.5 -41zM598 51q27 0 47 25.5t20 68.5t-37 43q-27 0 -46.5 -26t-19.5 -71q0 -40 36 -40zM640 251q23 0 41.5 22t18.5 58
q0 37 -33 37q-26 0 -43 -21.5t-17 -55.5q0 -40 33 -40z" />
    <glyph glyph-name="seveneighths" unicode="&#x215e;" horiz-adv-x="754" 
d="M137 -30h-63l595 749h62zM576 -8q-51 0 -76.5 24t-25.5 68q0 99 80 135q-33 20 -33 66q0 66 38 102t94 36q48 0 74 -23.5t26 -62.5q0 -81 -73 -117q36 -19 36 -68q0 -78 -39.5 -119t-100.5 -41zM581 51q27 0 47 25.5t20 68.5t-37 43q-27 0 -46.5 -26t-19.5 -71
q0 -40 36 -40zM623 251q23 0 41.5 22t18.5 58q0 37 -33 37q-26 0 -43 -21.5t-17 -55.5q0 -40 33 -40zM140 278l190 357h-156l13 61h231l-11 -55l-190 -363h-77z" />
    <glyph glyph-name="partialdiff" unicode="&#x2202;" horiz-adv-x="473" 
d="M159 649l-26 60q70 49 151 49q97 0 166 -104t69 -276q0 -191 -69.5 -289.5t-166.5 -98.5q-79 0 -124 57t-45 152q0 105 55.5 175.5t138.5 70.5q84 0 124 -68q0 3 0.5 10t0.5 11q0 125 -46 205.5t-112 80.5q-68 0 -116 -35zM292 62q52 0 89.5 68.5t42.5 164.5
q-12 36 -38.5 57.5t-60.5 21.5q-51 0 -86.5 -49.5t-35.5 -123.5q0 -71 24.5 -105t64.5 -34z" />
    <glyph glyph-name="Delta" unicode="&#x2206;" horiz-adv-x="580" 
d="M573 0h-566l375 722h113zM472 80l-49 551l-278 -551h327z" />
    <glyph glyph-name="product" unicode="&#x220f;" horiz-adv-x="625" 
d="M640 753v-883h-86v806h-344v-806h-86v883h516z" />
    <glyph glyph-name="summation" unicode="&#x2211;" horiz-adv-x="554" 
d="M630 -130h-538v56l207 381l-194 383v63h499v-76h-387v-3l179 -362l-192 -362v-5h426v-75z" />
    <glyph glyph-name="minus" unicode="&#x2212;" 
d="M83 222v62h414v-62h-414z" />
    <glyph glyph-name="uni2215" unicode="&#x2215;" horiz-adv-x="167" 
d="M-109 -30h-63l595 749h62z" />
    <glyph glyph-name="uni2219" unicode="&#x2219;" horiz-adv-x="222" 
d="M233 347l-22 -104h-97l22 104h97z" />
    <glyph glyph-name="radical" unicode="&#x221a;" horiz-adv-x="522" 
d="M588 800l-212 -890h-75l-150 406l-72 -27l-18 51l143 57l108 -306q1 -3 21 -79q2 7 5.5 28.5t6.5 34.5l12 51l155 674h76z" />
    <glyph glyph-name="infinity" unicode="&#x221e;" horiz-adv-x="744" 
d="M598 114q-35 0 -71.5 17.5t-59 36.5t-54.5 50q-3 -2 -18 -15.5l-19 -17l-18 -15.5t-20.5 -15.5t-19.5 -12.5t-22 -12t-22 -8t-25.5 -6.5t-25.5 -1.5q-63 0 -103 42.5t-40 106.5q0 63 40 107.5t104 44.5q14 0 29 -3t26 -6.5t26 -12.5l23 -13.5t23 -17.5l20.5 -17.5
t22 -19.5t19.5 -18q30 29 41.5 39t39.5 31.5t53 29.5t53 8q64 0 104 -42.5t40 -107.5q0 -64 -40 -107.5t-106 -43.5zM600 179q35 0 56.5 24t21.5 60q0 38 -21.5 62.5t-58.5 24.5q-24 0 -54 -17t-44 -29.5l-44 -40.5q1 -1 16.5 -15.5t20 -17.5t18.5 -14.5t21.5 -15.5
l20 -10.5t24 -8.5t23.5 -2zM227 179q58 0 143 83q-4 4 -29.5 26t-38.5 31.5t-35.5 20t-41.5 10.5q-34 0 -56.5 -25.5t-22.5 -61.5q0 -37 22.5 -60.5t58.5 -23.5z" />
    <glyph glyph-name="integral" unicode="&#x222b;" horiz-adv-x="332" 
d="M192 93v30l-5 157q-6 155 -5 221v40q7 221 149 221q27 0 47 -8l-12 -65q-13 4 -30 4q-40 0 -56.5 -38.5t-16.5 -138.5v-21q0 -59 5.5 -169t5.5 -181q0 -166 -36.5 -229.5t-110.5 -63.5q-35 0 -53 10q4 33 12 66q17 -5 33 -5q73 0 73 170z" />
    <glyph glyph-name="approxequal" unicode="&#x2248;" 
d="M515 403q-16 -140 -108 -140q-41 0 -117.5 36.5t-101.5 36.5q-45 0 -57 -79h-48q18 141 107 141q30 0 84 -23l76 -32q40 -16 61 -16q26 0 38 19.5t18 56.5h48zM515 232q-16 -140 -108 -140q-41 0 -117.5 36.5t-101.5 36.5q-45 0 -57 -78h-48q18 140 107 140
q36 0 112 -35.5t109 -35.5q26 0 38 19.5t18 56.5h48z" />
    <glyph glyph-name="notequal" unicode="&#x2260;" 
d="M523 132h-258l-69 -129l-52 27l54 102h-127v64h161l60 111h-221v64h255l70 133l52 -28l-56 -105h131v-64h-165l-59 -111h224v-64z" />
    <glyph glyph-name="lessequal" unicode="&#x2264;" 
d="M504 95l-451 168v65l451 170v-65l-368 -138l368 -135v-65zM504 -27h-451v59h451v-59z" />
    <glyph glyph-name="greaterequal" unicode="&#x2265;" 
d="M519 263l-451 -168v65l368 135l-368 138v65l451 -170v-65zM519 -27h-451v59h451v-59z" />
    <glyph glyph-name="lozenge" unicode="&#x25ca;" horiz-adv-x="523" 
d="M533 328l-173 -360h-77l-173 360l173 365h77zM448 326l-117 261q-8 17 -10 28h-2q-3 -9 -8 -20l-117 -264l107 -237q19 -42 20 -49h3l8 22z" />
    <glyph glyph-name="f_i" unicode="&#xf001;" 
d="M116 505h78l21 98q25 122 171 122q20 0 38 -3l-13 -59q-58 4 -83.5 -15.5t-33.5 -56.5l-18 -86h102l-13 -62h-102l-94 -443h-82l94 443h-78zM530 505l-107 -505h-82l107 505h82zM470 634l19 88h92l-19 -88h-92z" />
    <glyph glyph-name="f_l" unicode="&#xf002;" 
d="M116 505h78l21 98q25 122 171 122q20 0 38 -3l-13 -59q-58 4 -83.5 -15.5t-33.5 -56.5l-18 -86h102l-13 -62h-102l-94 -443h-82l94 443h-78zM583 722l-153 -722h-82l153 722h82z" />
    <glyph glyph-name="uniF8FF" unicode="&#xf8ff;" horiz-adv-x="485" 
d="M333 111h-53v63h53v-63zM327 222h-46v16q0 50 11 74.5t46 56.5q46 44 46 80q0 33 -21 56.5t-51 23.5q-67 0 -77 -90l-48 8q7 66 41 98t87 32q52 0 85 -34t33 -90q0 -32 -12.5 -56.5t-47.5 -56.5q-32 -29 -39 -44.5t-7 -51.5v-22zM117 47h391v585h-391v-585zM70 680h485
v-680h-485v680z" />
    <glyph glyph-name="grave.cap" horiz-adv-x="278" 
d="M219 939h102l66 -141h-65z" />
    <glyph glyph-name="acute.cap" horiz-adv-x="278" 
d="M344 939h113l-159 -141h-69z" />
    <glyph glyph-name="circumflex.cap" horiz-adv-x="278" 
d="M378 798l-46 94l-86 -94h-84l130 141h92l70 -141h-76z" />
    <glyph glyph-name="caron.cap" horiz-adv-x="278" 
d="M400 939h84l-130 -141h-92l-70 141h76l46 -94z" />
    <glyph glyph-name="caron.alt" horiz-adv-x="222" 
d="M311 722l-84 -141h-50l43 141h91z" />
    <glyph glyph-name="tilde.cap" horiz-adv-x="278" 
d="M451 911h51q-14 -45 -47 -76q-35 -33 -80 -33q-19 0 -68 19q-44 19 -68 19q-17 0 -33.5 -14t-22.5 -31h-46q15 49 47.5 78.5t79.5 29.5q30 0 72 -18q38 -19 55 -19q47 0 60 45z" />
    <glyph glyph-name="dieresis.cap" horiz-adv-x="278" 
d="M291 911l-22 -104h-94l22 104h94zM467 911l-22 -104h-94l22 104h94z" />
    <glyph glyph-name="macron.cap" horiz-adv-x="278" 
d="M188 881h276l-12 -56h-276z" />
    <glyph glyph-name="breve.cap" horiz-adv-x="278" 
d="M184 939h49q-1 -40 22.5 -59.5t65.5 -19.5q88 0 122 79h49q-21 -64 -68 -99.5t-112 -35.5q-149 0 -128 135z" />
    <glyph glyph-name="ring.cap" horiz-adv-x="278" 
d="M312 787q-41 0 -63.5 24.5t-22.5 62.5q0 47 37 81t80 34q42 0 64.5 -24t22.5 -61q0 -49 -35.5 -83t-82.5 -34zM315 827q27 0 50 23.5t23 49.5q0 22 -13.5 35.5t-33.5 13.5q-27 0 -50.5 -22.5t-23.5 -50.5q0 -49 48 -49z" />
    <glyph glyph-name="hungarumlaut.cap" horiz-adv-x="444" 
d="M328 939h109l-161 -141h-67zM511 939h109l-161 -141h-67z" />
    <glyph glyph-name="dotaccent.cap" horiz-adv-x="278" 
d="M379 911l-22 -104h-94l22 104h94z" />
    <glyph glyph-name="commaaccent" horiz-adv-x="222" 
d="M158 -50l-104 -141h-54l63 141h95z" />
    <glyph glyph-name="commaaccent.alt" horiz-adv-x="222" 
d="M156 581l104 141h54l-63 -141h-95z" />
    </font>
</defs>
</svg>
