<?xml version="1.0" standalone="no"?>
<!DOCTYPE svg PUBLIC "-//W3C//DTD SVG 1.1//EN" "http://www.w3.org/Graphics/SVG/1.1/DTD/svg11.dtd" >
<svg>
<metadata>
Created by FontForge 20090622 at Tue Dec  6 10:42:14 2016
 By deploy user
Copyright &#194;&#169; 2009 Linotype Corp., www.linotype.com. All rights reserved. This font software may not be reproduced, modified, disclosed or transferred without the express written approval of Linotype Corp. Univers is a trademark of Linotype Corp. registered in the U.S. Patent and Trademark Office and may be registered in certain other jurisdictions in the name of Linotype Corp. or its licensee Linotype GmbH. This typeface is original artwork of Adrian Frutiger. The design may be protected in certain jurisdictions. 
</metadata>
<defs>
<font id="UniversLTCYR-85XBlackObl" horiz-adv-x="630" >
  <font-face 
    font-family="Univers LT CYR 85 XBlack"
    font-weight="950"
    font-style="italic"
    font-stretch="normal"
    units-per-em="1000"
    panose-1="2 11 10 4 4 7 2 9 2 4"
    ascent="800"
    descent="-200"
    x-height="500"
    cap-height="722"
    bbox="-176 -244 1352 1017"
    underline-thickness="50"
    underline-position="-50"
    slope="-12"
    unicode-range="U+000D-U+FB04"
  />
<missing-glyph horiz-adv-x="485" 
d="M263 111h-53v63h53v-63zM257 222h-46v16q0 50 11 75.5t46 55.5q28 27 37 44t9 36q0 33 -21 56.5t-51 23.5q-67 0 -77 -90q-8 1 -24 3.5t-24 4.5q7 66 41 98t87 32q52 0 85 -34t33 -90q0 -32 -12.5 -56.5t-47.5 -56.5t-40.5 -47.5t-5.5 -70.5zM47 47h391v585h-391v-585z
M0 680h485v-680h-485v680z" />
    <glyph glyph-name="IJ" unicode="IJ" horiz-adv-x="1066" 
d="M489 722l-153 -722h-285l153 722h285zM1173 722l-96 -455q-22 -101 -58 -153q-43 -63 -125 -99t-187 -36q-124 0 -197 48.5t-73 132.5q0 26 12 78h242q-6 -15 -6 -32q0 -38 36 -38q31 0 45 22.5t22 58.5l100 473h285z" />
    <glyph glyph-name="ij" unicode="ij" horiz-adv-x="624" 
d="M429 722l-32 -153h-238l32 153h238zM382 500l-106 -500h-238l106 500h238zM738 722l-32 -153h-238l32 153h238zM691 500l-108 -510q-13 -62 -33 -95t-57 -55q-34 -20 -76 -27t-129 -7q-34 0 -69 3l27 126q4 0 11 -0.5t10 -0.5q40 0 55 15q18 18 28 64l103 487h238z" />
    <glyph glyph-name="napostrophe" unicode="&#x22;n" horiz-adv-x="648" 
d="M676 303l-64 -303h-242l65 307q3 12 3 22q0 37 -34 37q-45 0 -59 -63l-64 -303h-244l106 500h233l-10 -74q70 90 181 90q65 0 104 -29t39 -92q0 -30 -14 -92zM354 722l-170 -182h-136l81 182h225z" />
    <glyph glyph-name="f_f" unicode="ff" horiz-adv-x="757" 
d="M423 0l75 354h-127l-75 -354h-242l75 354h-54l31 148h54l11 50q17 83 84 129.5t156 46.5q78 0 132 -14l-30 -142q-34 2 -51 2q-44 0 -54 -43l-6 -29h127l11 50q17 83 84 129.5t156 46.5q78 0 132 -14l-30 -142q-34 2 -51 2q-44 0 -54 -43l-6 -29h85l-31 -148h-85
l-75 -354h-242z" />
    <glyph glyph-name="fi" unicode="fi" horiz-adv-x="704" 
d="M54 0l75 354h-54l31 148h54l11 50q17 83 84 129.5t156 46.5q78 0 132 -14l-30 -142q-34 2 -51 2q-44 0 -54 -43l-6 -29h85l-31 -148h-85l-75 -354h-242zM426 0l106 502h242l-106 -502h-242zM546 568l33 154h242l-33 -154h-242z" />
    <glyph glyph-name="fl" unicode="fl" horiz-adv-x="704" 
d="M54 0l75 354h-54l31 148h54l11 50q17 83 84 129.5t156 46.5q78 0 132 -14l-30 -142q-34 2 -51 2q-44 0 -54 -43l-6 -29h85l-31 -148h-85l-75 -354h-242zM426 0l153 722h242l-153 -722h-242z" />
    <glyph glyph-name="f_f_i" unicode="ffi" horiz-adv-x="1073" 
d="M423 0l75 354h-127l-75 -354h-242l75 354h-54l31 148h54l11 50q17 83 84 129.5t156 46.5q78 0 132 -14l-30 -142q-34 2 -51 2q-44 0 -54 -43l-6 -29h127l11 50q17 83 84 129.5t156 46.5q78 0 132 -14l-30 -142q-34 2 -51 2q-44 0 -54 -43l-6 -29h85l-31 -148h-85
l-75 -354h-242zM795 0l106 502h242l-106 -502h-242zM915 568l33 154h242l-33 -154h-242z" />
    <glyph glyph-name="f_f_l" unicode="ffl" horiz-adv-x="1072" 
d="M423 0l75 354h-127l-75 -354h-242l75 354h-54l31 148h54l11 50q17 83 84 129.5t156 46.5q78 0 132 -14l-30 -142q-34 2 -51 2q-44 0 -54 -43l-6 -29h127l11 50q17 83 84 129.5t156 46.5q78 0 132 -14l-30 -142q-34 2 -51 2q-44 0 -54 -43l-6 -29h85l-31 -148h-85
l-75 -354h-242zM794 0l153 722h242l-153 -722h-242z" />
    <glyph glyph-name=".notdef" horiz-adv-x="485" 
d="M263 111h-53v63h53v-63zM257 222h-46v16q0 50 11 75.5t46 55.5q28 27 37 44t9 36q0 33 -21 56.5t-51 23.5q-67 0 -77 -90q-8 1 -24 3.5t-24 4.5q7 66 41 98t87 32q52 0 85 -34t33 -90q0 -32 -12.5 -56.5t-47.5 -56.5t-40.5 -47.5t-5.5 -70.5zM47 47h391v585h-391v-585z
M0 680h485v-680h-485v680z" />
    <glyph glyph-name=".null" horiz-adv-x="500" 
 />
    <glyph glyph-name="nonmarkingreturn" horiz-adv-x="333" 
 />
    <glyph glyph-name="CR" unicode="&#xd;" horiz-adv-x="0" 
 />
    <glyph glyph-name="space" unicode=" " horiz-adv-x="352" 
 />
    <glyph glyph-name="exclam" unicode="!" horiz-adv-x="370" 
d="M482 722l-152 -509h-201l65 509h288zM339 164l-35 -164h-238l35 164h238z" />
    <glyph glyph-name="quotedbl" unicode="&#x22;" horiz-adv-x="592" 
d="M660 722l-93 -300h-122l33 300h182zM420 722l-93 -300h-122l33 300h182z" />
    <glyph glyph-name="numbersign" unicode="#" horiz-adv-x="704" 
d="M716 528l-25 -118h-88l-34 -98h72l-25 -118h-88l-67 -194h-124l67 194h-67l-67 -194h-124l67 194h-72l25 118h88l35 98h-72l25 118h88l66 194h124l-66 -194h67l66 194h124l-67 -194h72zM479 410h-67l-34 -98h67z" />
    <glyph glyph-name="dollar" unicode="$" horiz-adv-x="704" 
d="M783 519h-255q2 8 2 22q0 22 -12 31.5t-40 9.5q-29 0 -52.5 -14.5t-23.5 -41.5q0 -10 5.5 -18t19.5 -14t24 -9t34.5 -9.5l36.5 -9.5l85 -24q70 -19 106.5 -68t36.5 -111q0 -69 -28.5 -122t-77.5 -85.5t-106.5 -50.5t-123.5 -24l-22 -101h-149l22 103q-93 11 -153 54
t-60 123q0 25 9 65h272q-5 -18 -5 -34q0 -49 60 -49q32 0 58 20.5t26 51.5q0 7 -2 13t-7 10.5t-10.5 7.5t-14.5 6.5t-16 5.5l-20 5.5t-21 6.5l-85 27q-169 53 -169 177q0 61 24.5 109t67.5 78.5t94 48.5t112 26l21 98h149l-20 -94q214 -18 214 -167q0 -24 -6 -53z" />
    <glyph glyph-name="percent" unicode="%" horiz-adv-x="1056" 
d="M943 722l-554 -722h-123l557 722h120zM373 495q13 58 13 85q0 35 -22 35q-21 0 -35.5 -25.5t-27.5 -85.5q-13 -61 -13 -91q0 -37 25 -37q20 0 32.5 25t27.5 94zM911 222q13 58 13 85q0 35 -22 35q-21 0 -35.5 -25.5t-27.5 -85.5q-13 -61 -13 -91q0 -37 25 -37
q20 0 32.5 25t27.5 94zM279 259q-81 0 -120.5 44t-39.5 118q0 130 73.5 222.5t202.5 92.5q82 0 119.5 -43.5t37.5 -115.5q0 -133 -71 -225.5t-202 -92.5zM817 -14q-81 0 -120.5 44t-39.5 118q0 130 73.5 222.5t202.5 92.5q82 0 119.5 -43.5t37.5 -115.5q0 -133 -71 -225.5
t-202 -92.5z" />
    <glyph glyph-name="ampersand" unicode="&#x26;" horiz-adv-x="888" 
d="M489 154l-95 119q-34 -9 -63 -34.5t-29 -57.5q0 -27 20.5 -46t51.5 -19q44 0 115 38zM563 574q0 37 -56 37q-31 0 -54.5 -13.5t-23.5 -42.5q0 -33 49 -70q85 49 85 89zM939 398l-1 -1q-13 -63 -59.5 -134t-100.5 -109l114 -154h-276l-33 43q-111 -64 -255 -64
q-127 0 -199.5 47.5t-72.5 129.5q0 50 19 89.5t54 66.5t72 45t85 33q-84 69 -84 143q0 59 32 102.5t84 65t104 31t106 9.5q119 0 189 -37t70 -102q0 -124 -191 -229l72 -87q44 44 65 112h206z" />
    <glyph glyph-name="quotesingle" unicode="'" horiz-adv-x="352" 
d="M420 722l-93 -300h-122l33 300h182z" />
    <glyph glyph-name="parenleft" unicode="(" horiz-adv-x="388" 
d="M519 722q-66 -132 -99 -216q-49 -119 -70 -213q-23 -111 -23 -281q0 -68 9 -158h-186q-22 111 -30 203q-5 67 -5 106q0 94 25.5 176t77.5 184q47 94 116 199h185z" />
    <glyph glyph-name="parenright" unicode=")" horiz-adv-x="388" 
d="M391 519q6 -78 6 -104q0 -95 -25.5 -176.5t-78.5 -185.5q-47 -94 -116 -199h-185q65 133 100 216q49 120 69 211q23 111 23 283q0 68 -9 158h186q20 -92 30 -203z" />
    <glyph glyph-name="asterisk" unicode="*" horiz-adv-x="388" 
d="M485 616l-17 -81h-90l28 -79l-82 -39l-26 77l-60 -77l-65 40l61 78h-88l17 81h88l-27 78l81 42l28 -79l58 78l65 -42l-61 -77h90z" />
    <glyph glyph-name="plus" unicode="+" horiz-adv-x="600" 
d="M601 185h-185v-185h-136v185h-185v136h185v185h136v-185h185v-136z" />
    <glyph glyph-name="comma" unicode="," horiz-adv-x="352" 
d="M366 211l-173 -308h-204l131 308h246z" />
    <glyph glyph-name="hyphen" unicode="-" horiz-adv-x="407" 
d="M452 349l-36 -167h-349l36 167h349z" />
    <glyph glyph-name="period" unicode="." horiz-adv-x="352" 
d="M341 208l-44 -208h-243l44 208h243z" />
    <glyph glyph-name="slash" unicode="/" horiz-adv-x="370" 
d="M544 722l-416 -736h-152l418 736h150z" />
    <glyph glyph-name="zero" unicode="0" horiz-adv-x="704" 
d="M474 563q-38 0 -61.5 -44.5t-48.5 -166.5q-20 -96 -20 -135q0 -57 43 -57q33 0 52 31q24 40 51 167q23 106 23 149q0 17 -2 27.5t-11 19.5t-26 9zM757 360q-38 -179 -144.5 -279t-280.5 -100q-249 0 -249 237q0 59 17 138q38 180 140 282.5t273 102.5q138 0 200 -59
t62 -173q0 -67 -18 -149z" />
    <glyph glyph-name="one" unicode="1" horiz-adv-x="704" 
d="M669 722l-153 -722h-275l100 472q-90 -61 -171 -79l43 205q156 46 237 124h219z" />
    <glyph glyph-name="two" unicode="2" horiz-adv-x="704" 
d="M428 188h281l-40 -188h-634l40 188l183 102q34 19 68 41t79 56t73 71t28 68q0 39 -45 39q-61 0 -79 -81h-251v1q16 72 50.5 123t84.5 78t105.5 38.5t124.5 11.5q135 0 210.5 -45.5t75.5 -129.5q0 -151 -189 -278q-47 -31 -165 -95z" />
    <glyph glyph-name="three" unicode="3" horiz-adv-x="704" 
d="M577 377q141 -15 141 -121q0 -73 -32.5 -129t-87 -86.5t-116 -45.5t-128.5 -15q-52 0 -97.5 7t-93.5 24.5t-76.5 54.5t-28.5 90q0 24 8 67l1 2h244q-3 -15 -3 -27q0 -52 57 -52q39 0 62 25t23 63q0 30 -26 43t-83 13q-13 0 -28 -1l33 153q16 -1 31 -1q130 0 130 92
q0 42 -54 42q-32 0 -50.5 -18.5t-26.5 -58.5h-240v1q50 239 355 239q133 0 207 -42t74 -119q0 -84 -54 -135.5t-141 -64.5z" />
    <glyph glyph-name="four" unicode="4" horiz-adv-x="704" 
d="M757 722l-89 -423h86l-39 -183h-86l-25 -116h-263l25 116h-329l43 205l328 401h349zM463 546l-188 -247h136z" />
    <glyph glyph-name="five" unicode="5" horiz-adv-x="704" 
d="M776 722l-36 -171h-329l-35 -116q71 51 159 51q92 0 143 -45t51 -126q0 -73 -36 -142.5t-96 -115.5q-99 -77 -256 -77q-128 0 -196.5 45.5t-68.5 130.5q0 13 4 43h255q-1 -6 -1 -17q0 -38 36 -38q27 0 45 19t23.5 37t12.5 50q7 29 7 50q0 23 -10 32t-34 9q-50 0 -64 -56
h-236l105 437h557z" />
    <glyph glyph-name="six" unicode="6" horiz-adv-x="704" 
d="M486 276q0 49 -51 49q-45 0 -69 -40.5t-24 -89.5q0 -53 51 -53q45 0 69 42t24 92zM757 523h-234q3 11 3 22q0 34 -40 34q-32 0 -53 -24q-36 -42 -59 -145q66 58 159 58q91 0 146.5 -44.5t55.5 -124.5q0 -25 -6 -53q-26 -125 -125.5 -196t-247.5 -71q-264 0 -264 246
q0 59 15 126q38 179 145 283t281 104q231 0 231 -158q0 -28 -7 -57z" />
    <glyph glyph-name="seven" unicode="7" horiz-adv-x="704" 
d="M806 722l-33 -156l-390 -566h-292l383 529h-320l41 193h611z" />
    <glyph glyph-name="eight" unicode="8" horiz-adv-x="704" 
d="M459 213q4 16 4 32q0 43 -48 43q-65 0 -81 -75q-3 -15 -3 -26q0 -45 49 -45q64 0 79 71zM514 516q3 15 3 27q0 35 -41 35q-51 0 -66 -64q-3 -16 -3 -29q0 -39 40 -39q28 0 43.5 16t23.5 54zM613 366q54 -12 83 -49t29 -89q0 -69 -36 -120t-95 -77.5t-121.5 -38.5
t-129.5 -12q-49 0 -96.5 10t-90 29.5t-68.5 55.5t-26 83q0 82 51.5 137t135.5 70q-99 28 -99 123q0 71 32.5 122t87.5 77.5t114 38.5t126 12q125 0 195 -45.5t70 -126.5q0 -75 -43.5 -129.5t-118.5 -70.5z" />
    <glyph glyph-name="nine" unicode="9" horiz-adv-x="704" 
d="M508 489q4 17 4 34q0 52 -52 52q-66 0 -87 -97q-5 -23 -5 -37q0 -49 50 -49q69 0 90 97zM747 366q-38 -179 -144.5 -283t-280.5 -104q-231 0 -231 158q0 25 6 57h233l-3 -21q0 -34 41 -34q33 0 52 23q36 41 59 146q-65 -58 -159 -58q-91 0 -146.5 44.5t-55.5 124.5
q0 99 53.5 173.5t136.5 110t180 35.5q138 0 206 -63.5t68 -178.5q0 -60 -15 -130z" />
    <glyph glyph-name="colon" unicode=":" horiz-adv-x="352" 
d="M408 516l-45 -208h-243l45 208h243zM342 208l-44 -208h-243l44 208h243z" />
    <glyph glyph-name="semicolon" unicode=";" horiz-adv-x="352" 
d="M423 516l-45 -208h-241l45 208h241zM364 211l-171 -308h-205l129 308h247z" />
    <glyph glyph-name="less" unicode="&#x3c;" horiz-adv-x="600" 
d="M597 -33l-515 204v163l515 204v-166l-342 -120l342 -118v-167z" />
    <glyph glyph-name="equal" unicode="=" horiz-adv-x="600" 
d="M620 295h-516v148h516v-148zM620 63h-516v149h516v-149z" />
    <glyph glyph-name="greater" unicode="&#x3e;" horiz-adv-x="600" 
d="M612 171l-515 -204v167l343 118l-343 120v166l515 -204v-163z" />
    <glyph glyph-name="question" unicode="?" horiz-adv-x="537" 
d="M368 164l-35 -164h-240l35 164h240zM464 346l-19 -12q-30 -19 -45.5 -43t-25.5 -69l-3 -14h-236l8 35q14 58 34 88.5t74 71.5l17 13q72 55 72 92q0 36 -63 36q-49 0 -137 -25l40 189q124 33 220 33q65 0 115.5 -14t85.5 -50.5t35 -93.5q0 -42 -13 -77.5t-40 -64.5
t-53 -49.5t-66 -45.5z" />
    <glyph glyph-name="at" unicode="@" horiz-adv-x="912" 
d="M464 -131q-170 0 -276 113t-106 280q0 130 66 241t177.5 174.5t239.5 63.5q191 0 296.5 -86t105.5 -224q0 -92 -38.5 -175.5t-114.5 -131.5q-79 -49 -163 -49q-40 0 -62.5 15.5t-22.5 44.5q0 5 2 15q-41 -42 -74.5 -58.5t-82.5 -16.5q-52 0 -86.5 37t-34.5 99
q0 122 76.5 222t183.5 100q43 0 66.5 -14t42.5 -47l16 49h120l-72 -235q-13 -39 -13 -61q0 -33 26 -33q7 0 17.5 3.5t26.5 17t29 34.5t22.5 60t9.5 90q0 115 -74 173.5t-197 58.5q-150 0 -255.5 -105.5t-105.5 -258.5q0 -128 82 -206t196 -78q91 0 146.5 18t108.5 57l61 -77
q-66 -57 -145 -83.5t-194 -26.5zM495 182q53 0 88 66.5t35 121.5q0 56 -47 56q-36 0 -65.5 -35.5t-43.5 -78t-14 -74.5q0 -56 47 -56z" />
    <glyph glyph-name="A" unicode="A" horiz-adv-x="796" 
d="M816 0h-292l-3 116h-208l-54 -116h-278l385 722h371zM516 292l-1 271l-122 -271h123z" />
    <glyph glyph-name="B" unicode="B" horiz-adv-x="758" 
d="M507 239q0 58 -98 58h-27l-31 -145h23q29 0 49 2.5t41 10.5t32 26.5t11 47.5zM553 516q0 52 -90 52h-23l-29 -136h26q116 0 116 84zM656 377q61 -10 93.5 -45.5t32.5 -89.5q0 -75 -50 -135.5t-124 -86.5q-38 -13 -71.5 -16.5t-98.5 -3.5h-385l153 722h416
q103 0 156 -39.5t53 -109.5q0 -84 -43 -127.5t-132 -68.5z" />
    <glyph glyph-name="C" unicode="C" horiz-adv-x="758" 
d="M827 450l-1 -1h-263q3 21 3 36q0 61 -50 61q-27 0 -46.5 -13.5t-33 -42.5t-21 -55.5t-17.5 -71.5q-18 -83 -18 -122q0 -71 57 -71q32 0 53 22.5t35 73.5h268l-1 -1q-28 -133 -135 -208.5t-268 -75.5q-146 0 -223.5 69.5t-77.5 198.5q0 54 13 112q38 178 156.5 277
t293.5 99q133 0 208.5 -52t75.5 -160q0 -32 -8 -75z" />
    <glyph glyph-name="D" unicode="D" horiz-adv-x="796" 
d="M556 370q13 63 13 98q0 43 -21 66.5t-73 23.5h-25l-84 -392h22q35 0 62 12.5t43 29t29.5 47.5t19.5 53.5t14 61.5zM639 56q-104 -56 -239 -56h-351l153 722h324q59 0 105 -6t91 -23t74.5 -45t48 -75t18.5 -110q0 -123 -60.5 -237.5t-163.5 -169.5z" />
    <glyph glyph-name="E" unicode="E" 
d="M753 722l-39 -188h-274l-17 -78h253l-40 -187h-253l-17 -81h283l-40 -188h-558l153 722h549z" />
    <glyph glyph-name="F" unicode="F" horiz-adv-x="610" 
d="M755 722l-39 -188h-269l-19 -85h250l-39 -185h-250l-56 -264h-284l153 722h553z" />
    <glyph glyph-name="G" unicode="G" horiz-adv-x="814" 
d="M864 494v-1h-266q0 2 0.5 6.5t0.5 5.5q0 47 -59 47q-29 0 -51 -11t-36.5 -27.5t-27 -47.5t-19.5 -58t-17 -73q-13 -65 -13 -95q0 -79 78 -79q43 0 81 15l20 90h-98l30 144h373l-81 -382q-191 -49 -367 -49q-155 0 -238 68.5t-83 201.5q0 51 12 109q39 186 161.5 282.5
t307.5 96.5q299 0 299 -179q0 -32 -7 -64z" />
    <glyph glyph-name="H" unicode="H" horiz-adv-x="796" 
d="M897 722l-153 -722h-286l57 266h-120l-57 -266h-286l153 722h286l-52 -247h120l52 247h286z" />
    <glyph glyph-name="I" unicode="I" horiz-adv-x="388" 
d="M489 722l-153 -722h-285l153 722h285z" />
    <glyph glyph-name="J" unicode="J" horiz-adv-x="666" 
d="M773 722l-96 -455q-22 -101 -58 -153q-43 -63 -125 -99t-187 -36q-124 0 -197 48.5t-73 132.5q0 26 12 78h242q-6 -15 -6 -32q0 -38 36 -38q31 0 45 22.5t22 58.5l100 473h285z" />
    <glyph glyph-name="K" unicode="K" horiz-adv-x="796" 
d="M937 722l-265 -340l139 -382h-309l-100 324l-69 -324h-280l153 722h280l-65 -310l216 310h300z" />
    <glyph glyph-name="L" unicode="L" horiz-adv-x="610" 
d="M641 194l-41 -194h-549l153 722h287l-112 -528h262z" />
    <glyph glyph-name="M" unicode="M" horiz-adv-x="1056" 
d="M1155 722l-153 -722h-236l110 518l-219 -518h-257l1 518l-110 -518h-236l153 722h400l-17 -430l174 430h390z" />
    <glyph glyph-name="N" unicode="N" horiz-adv-x="832" 
d="M933 722l-153 -722h-342l-62 442l-94 -442h-231l153 722h349l57 -435l92 435h231z" />
    <glyph glyph-name="O" unicode="O" horiz-adv-x="796" 
d="M554 377q16 78 16 110q0 64 -53 64q-46 0 -73 -46.5t-49 -151.5q-15 -72 -15 -110q0 -73 51 -73q45 0 71.5 44.5t51.5 162.5zM848 361q-39 -179 -155.5 -280.5t-289.5 -101.5q-147 0 -230.5 72t-83.5 201q0 48 12 104q39 185 155.5 285t297.5 100q145 0 226 -70t81 -198
q0 -47 -13 -112z" />
    <glyph glyph-name="P" unicode="P" horiz-adv-x="740" 
d="M51 0l153 722h395q109 0 173.5 -51.5t64.5 -148.5q0 -62 -20.5 -111.5t-53.5 -80t-77 -51t-87 -28.5t-88 -8h-121l-52 -243h-287zM425 407h16q57 0 87.5 19t30.5 69q0 66 -78 66h-24z" />
    <glyph glyph-name="Q" unicode="Q" horiz-adv-x="796" 
d="M554 377q16 78 16 110q0 64 -53 64q-46 0 -73 -46.5t-49 -151.5q-15 -72 -15 -110q0 -73 51 -73q45 0 71.5 44.5t51.5 162.5zM772 176h60l-37 -176h-143q-37 0 -109 -4q-27 -2 -31 -3q-59 -14 -119 -14q-146 0 -225 71.5t-79 201.5q0 48 12 104q39 183 160.5 284
t302.5 101q144 0 220.5 -69.5t76.5 -198.5q0 -75 -24 -155t-65 -142z" />
    <glyph glyph-name="R" unicode="R" horiz-adv-x="758" 
d="M558 509q0 51 -92 51h-18l-30 -140h21q119 0 119 89zM659 366q60 -10 81 -32t21 -71q0 -23 -3 -51l-6 -68q-5 -70 -5 -87q0 -30 3 -57h-280v19q0 52 2 86l2 33q4 70 4 71q0 33 -15.5 42t-52.5 9h-24l-55 -260h-282l153 722h429q40 0 74 -6.5t66.5 -22t51.5 -46t19 -73.5
q0 -87 -46 -134t-137 -74z" />
    <glyph glyph-name="S" unicode="S" horiz-adv-x="722" 
d="M791 520l-1 -1h-255q2 8 2 22q0 22 -12 31.5t-40 9.5q-29 0 -52.5 -14.5t-23.5 -41.5q0 -11 5.5 -18.5t20 -14t25 -9.5t34.5 -9t35 -9l85 -24q71 -21 107 -68t36 -112q0 -76 -33.5 -133t-91 -88.5t-123 -46.5t-139.5 -15q-61 0 -113 9t-97.5 29.5t-72 58t-26.5 89.5
q0 25 7 60h272q-5 -18 -5 -34q0 -49 60 -49q31 0 57.5 20.5t26.5 50.5q0 7 -2.5 13t-8.5 11t-11.5 8.5t-15.5 7t-16.5 5.5l-18.5 5.5t-18 5.5q-68 22 -85 27q-169 51 -169 177q0 62 22.5 109.5t59 77t87.5 48.5t102.5 26t109.5 7q55 0 101.5 -7.5t89 -25.5t66.5 -52.5
t24 -83.5q0 -28 -5 -52z" />
    <glyph glyph-name="T" unicode="T" horiz-adv-x="648" 
d="M798 722l-41 -195h-178l-112 -527h-287l112 527h-177l41 195h642z" />
    <glyph glyph-name="U" unicode="U" horiz-adv-x="778" 
d="M886 722l-96 -452q-33 -155 -130 -223t-264 -68q-52 0 -102 9t-98 29t-77.5 60t-29.5 94q0 30 9 72l101 479h287l-98 -465q-4 -17 -4 -33q0 -48 45 -48q29 0 49.5 20t27.5 57l99 469h281z" />
    <glyph glyph-name="V" unicode="V" horiz-adv-x="759" 
d="M922 722l-357 -722h-370l-51 722h287l-18 -562l227 562h282z" />
    <glyph glyph-name="W" unicode="W" horiz-adv-x="1036" 
d="M1204 722l-306 -722h-309l27 468l-164 -468h-313v722h252l-34 -455l164 455h298l-29 -455l160 455h254z" />
    <glyph glyph-name="X" unicode="X" horiz-adv-x="778" 
d="M937 722l-298 -353l153 -369h-300l-61 220l-159 -220h-286l313 369l-144 353h300l53 -203l140 203h289z" />
    <glyph glyph-name="Y" unicode="Y" horiz-adv-x="740" 
d="M911 722l-345 -472l-53 -250h-285l53 250l-146 472h290l39 -303l165 303h282z" />
    <glyph glyph-name="Z" unicode="Z" horiz-adv-x="685" 
d="M808 722l-36 -173l-378 -361h308l-40 -188h-639l37 174l378 360h-292l39 188h623z" />
    <glyph glyph-name="bracketleft" unicode="[" horiz-adv-x="481" 
d="M600 722l-34 -162h-155l-116 -546h155l-34 -160h-366l184 868h366z" />
    <glyph glyph-name="backslash" unicode="\" horiz-adv-x="370" 
d="M388 -14h-152l-104 736h150z" />
    <glyph glyph-name="bracketright" unicode="]" horiz-adv-x="481" 
d="M553 722l-184 -868h-365l34 160h155l116 546h-155l34 162h365z" />
    <glyph glyph-name="asciicircum" unicode="^" horiz-adv-x="600" 
d="M647 359h-140l-95 223l-95 -223h-140l164 363h142z" />
    <glyph glyph-name="underscore" unicode="_" horiz-adv-x="500" 
d="M500 -125h-500v50h500v-50z" />
    <glyph glyph-name="grave" unicode="`" horiz-adv-x="278" 
d="M371 552h-177l-118 170h235z" />
    <glyph glyph-name="a" unicode="a" horiz-adv-x="592" 
d="M382 223q-18 2 -21 2q-43 0 -73.5 -17.5t-30.5 -57.5q0 -35 46 -35q30 0 48 19t26 63zM623 330l-70 -330h-212l7 53q-69 -66 -160 -66q-70 0 -108.5 34.5t-38.5 90.5q0 61 28.5 103.5t77.5 63.5t99.5 30t108.5 9q26 0 44 -1l10 43q1 5 1 13q0 27 -39 27q-46 0 -57 -48
h-199v1q11 48 50 87q72 73 239 73q42 0 73 -3.5t70.5 -14t61.5 -37t22 -66.5q0 -20 -8 -62z" />
    <glyph glyph-name="b" unicode="b" horiz-adv-x="666" 
d="M692 259q-28 -130 -99.5 -202.5t-171.5 -72.5q-95 0 -134 74l-20 -58h-228l153 722h246l-56 -266q68 61 160 61q77 0 118.5 -45t41.5 -127q0 -42 -10 -86zM443 250q11 49 11 75q0 48 -40 48q-37 0 -52.5 -30t-29.5 -100q-11 -48 -11 -71q0 -44 39 -44q32 0 50.5 27.5
t32.5 94.5z" />
    <glyph glyph-name="c" unicode="c" 
d="M667 302v-1h-223q5 22 5 45q0 44 -39 44q-17 0 -30 -8.5t-21.5 -19.5t-16.5 -36.5t-12.5 -44t-12.5 -56.5q-11 -48 -11 -68q0 -47 44 -47q53 0 74 96h227q-47 -221 -319 -221q-121 0 -191 45.5t-70 143.5q0 36 9 79q26 125 116 194.5t229 69.5q115 0 181.5 -44t66.5 -123
q0 -22 -6 -48z" />
    <glyph glyph-name="d" unicode="d" horiz-adv-x="666" 
d="M778 722l-153 -722h-228l4 58q-70 -74 -164 -74q-80 0 -122.5 46.5t-42.5 133.5q0 42 11 95q25 121 94 189.5t164 68.5q93 0 136 -61l56 266h245zM439 260q10 55 10 66q0 47 -41 47q-15 0 -27 -6.5t-19.5 -16t-14.5 -27.5t-11 -33t-9 -40q-10 -50 -10 -72q0 -50 42 -50
q20 0 34 10t22.5 31t12.5 36.5t9 43.5z" />
    <glyph glyph-name="e" unicode="e" 
d="M455 315q5 23 5 38q0 45 -51 45q-38 0 -57 -21.5t-27 -61.5h130zM649 208h-347v-1q-8 -36 -8 -51q0 -50 54 -50q55 0 75 58h210q-5 -22 -25 -51t-41 -48q-46 -43 -103.5 -62t-144.5 -19q-118 0 -183 49.5t-65 147.5q0 158 99.5 248.5t261.5 90.5q117 0 175 -51t58 -147
q0 -38 -16 -114z" />
    <glyph glyph-name="f" unicode="f" horiz-adv-x="388" 
d="M550 715l-30 -141q-30 2 -50 2q-26 0 -38.5 -10t-18.5 -36l-7 -30h89l-31 -148h-89l-75 -352h-239l75 352h-59l31 148h59l7 32q21 96 80 144q67 54 166 54q62 0 130 -15z" />
    <glyph glyph-name="g" unicode="g" horiz-adv-x="666" 
d="M444 262q9 41 9 63q0 47 -40 47q-21 0 -35.5 -10.5t-24.5 -34.5t-14.5 -40t-11.5 -50q-7 -37 -7 -50q0 -42 40 -42q18 0 31 7t21 15t14.5 27.5t9.5 30.5t8 37zM731 500l-92 -434q-13 -63 -23.5 -91t-33.5 -62q-78 -117 -309 -117q-233 0 -233 140q0 16 3 32h236
q0 -2 -0.5 -5t-0.5 -4q0 -32 43 -32q34 0 52 21t30 75l11 51q-59 -65 -166 -65q-88 0 -132 45.5t-44 124.5q0 35 9 74q23 112 94 186t179 74q100 0 132 -66l19 53h226z" />
    <glyph glyph-name="h" unicode="h" horiz-adv-x="648" 
d="M679 313l-67 -313h-242l65 307q3 12 3 22q0 37 -34 37q-44 0 -59 -67l-64 -299h-244l153 722h244l-61 -289q67 83 174 83q78 0 110 -32.5t32 -90.5q0 -33 -10 -80z" />
    <glyph glyph-name="i" unicode="i" horiz-adv-x="314" 
d="M429 722l-32 -153h-238l32 153h238zM382 500l-106 -500h-238l106 500h238z" />
    <glyph glyph-name="j" unicode="j" horiz-adv-x="314" 
d="M428 722l-32 -153h-238l32 153h238zM381 500l-108 -510q-13 -62 -33 -95t-57 -55q-34 -20 -76 -27t-129 -7q-34 0 -69 3l27 126q4 0 11 -0.5t10 -0.5q40 0 55 15q18 18 28 64l103 487h238z" />
    <glyph glyph-name="k" unicode="k" 
d="M736 500l-184 -213l89 -287h-264l-46 262l-56 -262h-240l153 722h240l-88 -414l135 192h261z" />
    <glyph glyph-name="l" unicode="l" horiz-adv-x="314" 
d="M429 722l-153 -722h-238l153 722h238z" />
    <glyph glyph-name="m" unicode="m" horiz-adv-x="980" 
d="M1015 343l-73 -343h-239l66 309q2 8 2 21q0 36 -33 36q-22 0 -38 -16.5t-22 -46.5l-64 -303h-242l65 307q3 12 3 22q0 37 -34 37q-45 0 -59 -64l-64 -302h-244l106 500h233l-10 -74q40 49 81.5 69.5t100.5 20.5q61 0 95 -22.5t48 -73.5q74 96 186 96q70 0 106 -32t36 -90
q0 -24 -6 -51z" />
    <glyph glyph-name="n" unicode="n" horiz-adv-x="648" 
d="M676 303l-64 -303h-242l65 307q3 12 3 22q0 37 -34 37q-45 0 -59 -63l-64 -303h-244l106 500h233l-10 -74q70 90 181 90q65 0 104 -29t39 -92q0 -30 -14 -92z" />
    <glyph glyph-name="o" unicode="o" horiz-adv-x="666" 
d="M444 259q10 46 10 76q0 52 -38 52q-32 0 -50.5 -32t-31.5 -96q-15 -67 -15 -96q0 -46 38 -46q25 0 43 22t26 48t18 72zM694 252q-57 -268 -369 -268q-115 0 -184.5 52t-69.5 150q0 33 7 65q28 134 121.5 202t228.5 68q124 0 198.5 -50t74.5 -152q0 -33 -7 -67z" />
    <glyph glyph-name="p" unicode="p" horiz-adv-x="666" 
d="M443 250q10 50 10 72q0 50 -42 50q-34 0 -49 -27.5t-29 -93.5q-11 -50 -11 -76q0 -48 40 -48q16 0 29 9t20 18t14.5 30.5t9.5 30.5zM688 241q-25 -121 -94.5 -189.5t-164.5 -68.5q-48 0 -79.5 13.5t-55.5 47.5l-50 -236h-246l147 692h228l-4 -58q71 74 165 74
q79 0 122 -47.5t43 -133.5q0 -41 -11 -94z" />
    <glyph glyph-name="q" unicode="q" horiz-adv-x="666" 
d="M439 257q11 57 11 72q0 43 -39 43q-35 0 -53 -30.5t-31 -91.5q-11 -55 -11 -75q0 -48 40 -48q10 0 18.5 2t15 8t12 10.5t10 14.5t7.5 16t6.5 19.5l5 19t4.5 21t4 19.5zM731 500l-147 -692h-245l50 236q-67 -61 -161 -61q-77 0 -118 45t-41 127q0 42 10 86q27 129 99 202
t172 73q94 0 133 -74l20 58h228z" />
    <glyph glyph-name="r" unicode="r" horiz-adv-x="444" 
d="M547 493l-40 -187q-63 13 -88 13q-36 0 -56.5 -17.5t-28.5 -57.5l-52 -244h-245l106 500h233l-6 -53q18 25 51.5 42.5t64.5 17.5t61 -14z" />
    <glyph glyph-name="s" unicode="s" horiz-adv-x="592" 
d="M628 350h-208q4 16 4 24q0 33 -42 33q-25 0 -42 -12t-17 -36q0 -16 15 -21.5t63 -13.5q7 -1 10 -2l47 -8q62 -11 105.5 -43t43.5 -90q0 -50 -18.5 -87t-47.5 -58t-71.5 -34t-81.5 -17t-86 -4q-250 0 -250 142q0 20 4 39h221q-3 -15 -3 -26q0 -42 44 -42q26 0 43.5 14
t17.5 39q0 20 -22 28.5t-74 15.5l-23 3q-81 11 -120.5 45.5t-39.5 85.5q0 194 297 194q114 0 174.5 -34t60.5 -100q0 -19 -4 -35z" />
    <glyph glyph-name="t" unicode="t" horiz-adv-x="426" 
d="M527 500l-31 -148h-113l-32 -148q-3 -12 -3 -29q0 -30 32 -30q28 0 65 8l-32 -148q-95 -21 -162 -21q-29 0 -54 4.5t-49.5 15t-38.5 31.5t-14 51q0 17 8 59l44 207h-67l31 148h66l18 83l255 84l-36 -167h113z" />
    <glyph glyph-name="u" unicode="u" horiz-adv-x="648" 
d="M717 500l-106 -500h-233l11 74q-72 -90 -181 -90q-65 0 -104 29t-39 92q0 34 13 92l64 303h242l-65 -307q-3 -12 -3 -22q0 -37 34 -37q45 0 59 64l64 302h244z" />
    <glyph glyph-name="v" unicode="v" 
d="M736 500l-255 -500h-330l-45 500h250l2 -309l131 309h247z" />
    <glyph glyph-name="w" unicode="w" horiz-adv-x="944" 
d="M1052 500l-232 -500h-294l4 319l-127 -319h-296l-3 500h231l-25 -326l131 326h265l-10 -326l122 326h234z" />
    <glyph glyph-name="x" unicode="x" 
d="M721 500l-176 -233l98 -267h-254l-42 150l-93 -150h-267l210 267l-89 233h258l24 -132l74 132h257z" />
    <glyph glyph-name="y" unicode="y" 
d="M740 500l-385 -692h-261l104 177l-95 515h258l12 -274l126 274h241z" />
    <glyph glyph-name="z" unicode="z" horiz-adv-x="536" 
d="M601 500l-33 -157l-198 -181h176l-34 -162h-487l30 139l217 201h-161l34 160h456z" />
    <glyph glyph-name="braceleft" unicode="{" horiz-adv-x="481" 
d="M589 722l-34 -162h-35q-58 0 -71 -60l-25 -117q-16 -75 -132 -92v-3q95 -14 95 -74q0 -3 -1.5 -10t-1.5 -9l-25 -121q-3 -12 -3 -22q0 -38 48 -38h35l-34 -160h-166q-55 0 -84.5 29t-29.5 72q0 17 2 25l36 171q2 10 2 14q0 42 -84 42l35 164q27 0 45.5 3t37 16t23.5 37
l36 169q10 50 56 88t109 38h166z" />
    <glyph glyph-name="bar" unicode="|" horiz-adv-x="222" 
d="M268 -19h-156v760h156v-760z" />
    <glyph glyph-name="braceright" unicode="}" horiz-adv-x="481" 
d="M523 371l-35 -164q-27 0 -45.5 -3t-37 -16t-23.5 -37l-36 -171q-10 -50 -56.5 -88t-109.5 -38h-166l34 160h35q58 0 71 60l25 121q16 74 133 92v3q-95 14 -95 74q0 5 2 19l25 117q3 12 3 22q0 38 -48 38h-35l34 162h166q56 0 85.5 -29t29.5 -72q0 -17 -2 -25l-36 -169
q-2 -10 -2 -14q0 -42 84 -42z" />
    <glyph glyph-name="asciitilde" unicode="~" horiz-adv-x="600" 
d="M634 358q-2 -35 -11.5 -70.5t-26.5 -69.5t-46.5 -55.5t-67.5 -21.5q-35 0 -182 44q-50 16 -77 16q-47 0 -52 -53h-102q0 74 43 144t111 70q42 0 135 -30q92 -29 123 -29q25 0 36 14t15 41h102z" />
    <glyph glyph-name="uni00A0" unicode="&#xa0;" horiz-adv-x="352" 
 />
    <glyph glyph-name="exclamdown" unicode="&#xa1;" horiz-adv-x="370" 
d="M2 -185l152 511h200l-66 -511h-286zM143 373l35 164h242l-35 -164h-242z" />
    <glyph glyph-name="cent" unicode="&#xa2;" horiz-adv-x="704" 
d="M266 -123l23 108q-100 13 -146 73q-54 70 -27 196q24 112 105 178.5t181 84.5l23 108h142l-23 -108q88 -12 131.5 -68.5t27.5 -152.5h-224q11 47 5 72t-36 25q-32 0 -52 -29t-40 -120q-17 -84 -11 -109.5t39 -25.5q29 0 45 21t31 73h224q-21 -99 -86 -149t-167 -69
l-23 -108h-142z" />
    <glyph glyph-name="sterling" unicode="&#xa3;" horiz-adv-x="704" 
d="M35 0l41 194h72l19 91h-93l35 164h93l12 56q23 112 120 174t232 62q133 0 195.5 -54.5t40.5 -157.5l-4 -20h-242q8 50 -32 50q-48 0 -65 -76l-7 -34h139l-35 -164h-139l-19 -91h317l-41 -194h-639z" />
    <glyph glyph-name="currency" unicode="&#xa4;" horiz-adv-x="704" 
d="M221 101l-73 73l55 55q-39 58 -39 132q0 76 42 137l-58 58l73 73l60 -59q59 39 131 39q75 0 131 -39l60 59l73 -73l-58 -58q42 -61 42 -137q0 -74 -39 -132l55 -55l-73 -73l-54 54q-61 -42 -137 -42t-137 42zM294 361q0 -49 34.5 -83.5t83.5 -34.5t83.5 34.5t34.5 83.5
t-34.5 83.5t-83.5 34.5t-83.5 -34.5t-34.5 -83.5z" />
    <glyph glyph-name="yen" unicode="&#xa5;" horiz-adv-x="704" 
d="M217 0l17 82h-149l29 136h149l7 32l-9 27h-135l29 136h68l-85 309h280l31 -303h2l159 303h262l-219 -309h68l-29 -136h-135l-19 -27l-7 -32h149l-29 -136h-149l-17 -82h-268z" />
    <glyph glyph-name="brokenbar" unicode="&#xa6;" horiz-adv-x="222" 
d="M116 -19v294h136v-294h-136zM116 447v294h136v-294h-136z" />
    <glyph glyph-name="section" unicode="&#xa7;" horiz-adv-x="704" 
d="M103 8l29 136q92 -33 155 -33q42 0 50 33q3 13 -11.5 24.5t-37.5 20t-49.5 21.5t-48 29t-32.5 43.5t-3 63.5q9 42 46 82t96 51l1 2q-42 14 -56 44t-6 65q15 73 82 112t204 39q92 0 194 -19l-28 -130q-84 19 -128 19q-40 0 -44 -20q-3 -12 12 -22t39 -18t51.5 -21.5
t49.5 -30t32.5 -46.5t2.5 -69q-22 -110 -146 -149q67 -31 50 -109q-14 -66 -79 -105.5t-183 -39.5q-139 0 -242 27zM386 337l55 -32q57 28 64 60q4 18 -14.5 34t-67.5 31l-22 -13q-34 -21 -37 -38q-5 -26 22 -42z" />
    <glyph glyph-name="dieresis" unicode="&#xa8;" horiz-adv-x="278" 
d="M54 552l36 170h164l-36 -170h-164zM294 552l36 170h164l-36 -170h-164z" />
    <glyph glyph-name="copyright" unicode="&#xa9;" horiz-adv-x="800" 
d="M548 306h106q-10 -76 -60 -116.5t-119 -40.5q-91 0 -147.5 60t-56.5 151q0 93 55 152.5t147 59.5q70 0 118.5 -39t62.5 -112h-106q-11 57 -78 57q-41 0 -64 -31.5t-23 -84.5q0 -52 24 -85.5t62 -33.5q72 0 79 63zM90 361q0 157 111 268.5t269 111.5t269 -111.5
t111 -268.5t-111 -268.5t-269 -111.5t-269 111.5t-111 268.5zM208 361q0 -109 76.5 -185.5t185.5 -76.5t185.5 76.5t76.5 185.5t-76.5 185.5t-185.5 76.5t-185.5 -76.5t-76.5 -185.5z" />
    <glyph glyph-name="ordfeminine" unicode="&#xaa;" horiz-adv-x="388" 
d="M214 411q-46 0 -70.5 21.5t-24.5 58.5q0 48 32.5 78.5t74.5 40.5t94 10q13 0 23 -1l5 23q0 1 0.5 3.5t0.5 3.5q0 14 -22 14q-14 0 -21 -6.5t-11 -23.5h-132q16 106 180 106q86 0 125 -24q27 -16 27 -56q0 -14 -5 -41l-35 -165l-6 -34h-142l3 27q-42 -35 -96 -35zM287 496
q31 0 40 36l4 23h-9q-61 0 -61 -39q0 -20 26 -20z" />
    <glyph glyph-name="guillemotleft" unicode="&#xab;" horiz-adv-x="648" 
d="M344 250l205 250h194l-161 -250l55 -250h-194zM64 250l205 250h194l-161 -250l55 -250h-194z" />
    <glyph glyph-name="logicalnot" unicode="&#xac;" horiz-adv-x="600" 
d="M477 126v181h-370v136h506v-317h-136z" />
    <glyph glyph-name="uni00AD" unicode="&#xad;" horiz-adv-x="407" 
d="M67 182l36 170h349l-36 -170h-349z" />
    <glyph glyph-name="registered" unicode="&#xae;" horiz-adv-x="400" 
d="M500 557q0 -76 -53.5 -129.5t-129.5 -53.5t-130 53.5t-54 129.5q0 77 53.5 130.5t130.5 53.5q76 0 129.5 -54t53.5 -130zM459 557q0 59 -41.5 101t-100.5 42q-60 0 -101.5 -41.5t-41.5 -101.5q0 -59 42 -100.5t101 -41.5t100.5 41.5t41.5 100.5zM408 454h-61
q-4 12 -3.5 32.5t-6 28.5t-30.5 8h-8v-69h-63v206h81q41 0 65 -12.5t24 -49.5q0 -38 -35 -50q21 -10 27 -24t6 -35.5t4 -34.5zM343 593q0 21 -31 21h-13v-44h13q31 0 31 23z" />
    <glyph glyph-name="macron" unicode="&#xaf;" horiz-adv-x="278" 
d="M48 581l25 118h428l-25 -118h-428z" />
    <glyph glyph-name="degree" unicode="&#xb0;" horiz-adv-x="400" 
d="M177 598q0 59 42 101t101 42t101 -42t42 -101t-42 -101t-101 -42t-101 42t-42 101zM265 598q0 -22 16.5 -38.5t38.5 -16.5t38.5 16.5t16.5 38.5t-16.5 38.5t-38.5 16.5t-38.5 -16.5t-16.5 -38.5z" />
    <glyph glyph-name="plusminus" unicode="&#xb1;" horiz-adv-x="600" 
d="M272 401v105h136v-105h185v-136h-185v-105h-136v105h-185v136h185zM87 0v136h506v-136h-506z" />
    <glyph glyph-name="twosuperior" unicode="&#xb2;" horiz-adv-x="444" 
d="M86 289l25 116l113 62q63 35 97 63q51 40 51 72q0 20 -24 20q-35 0 -45 -44v-4h-160l1 5q31 151 228 151q83 0 124.5 -29t41.5 -81q0 -74 -75 -132q-33 -27 -52 -38.5t-78 -42.5h162l-25 -118h-384z" />
    <glyph glyph-name="threesuperior" unicode="&#xb3;" horiz-adv-x="444" 
d="M281 277q-88 0 -133.5 30.5t-45.5 87.5q0 18 4 34h156q-2 -7 -2 -18q0 -29 32 -29q20 0 33.5 12.5t13.5 34.5q0 31 -63 31q-12 0 -21 -1l21 98q5 0 12 -0.5t10 -0.5q74 0 74 50q0 22 -30 22q-35 0 -43 -46h-154l1 5q15 76 71.5 110.5t154.5 34.5q81 0 124.5 -27.5
t43.5 -76.5q0 -93 -98 -112q66 -11 66 -75q0 -83 -59.5 -123.5t-167.5 -40.5z" />
    <glyph glyph-name="acute" unicode="&#xb4;" horiz-adv-x="278" 
d="M133 552l134 170h232l-190 -170h-176z" />
    <glyph glyph-name="mu" unicode="&#xb5;" horiz-adv-x="648" 
d="M410 189l66 313h242l-106 -502h-236l10 76h-2q-58 -91 -94 -91q-9 0 -15 4l-38 -181h-241l146 694h242l-67 -315q-5 -26 4.5 -40t28.5 -14q47 0 60 56z" />
    <glyph glyph-name="paragraph" unicode="&#xb6;" horiz-adv-x="620" 
d="M543 -192h-152l167 788h-70l-167 -788h-152l91 431q-74 10 -112 54.5t-38 117.5q0 135 87 223t228 88h312z" />
    <glyph glyph-name="periodcentered" unicode="&#xb7;" horiz-adv-x="352" 
d="M335 182h-243l44 208h243z" />
    <glyph glyph-name="cedilla" unicode="&#xb8;" horiz-adv-x="278" 
d="M35 -92l71 92h82l-44 -56h2q10 3 29 3q41 0 63.5 -23t13.5 -62q-10 -49 -57 -77.5t-112 -28.5q-81 0 -132 28l40 64q45 -24 83 -24q20 0 38 10t21 24q3 13 -7.5 20t-26.5 7q-13 0 -32 -7z" />
    <glyph glyph-name="onesuperior" unicode="&#xb9;" horiz-adv-x="444" 
d="M212 289l58 273q-60 -35 -104 -43l27 128q57 18 86.5 33.5t60.5 41.5h139l-92 -433h-175z" />
    <glyph glyph-name="ordmasculine" unicode="&#xba;" horiz-adv-x="434" 
d="M309 406q-76 0 -122 39.5t-46 102.5q0 46 20.5 87t54.5 65q58 41 149 41q82 0 127.5 -37t45.5 -101q0 -46 -20 -89t-52 -65q-58 -43 -157 -43zM322 494q18 0 28.5 18.5t20.5 64.5q7 35 7 46q0 28 -21 28q-18 0 -28.5 -16.5t-21.5 -67.5q-7 -35 -7 -47q0 -26 22 -26z" />
    <glyph glyph-name="guillemotright" unicode="&#xbb;" horiz-adv-x="648" 
d="M172 250l-55 250h194l99 -250l-205 -250h-194zM452 250l-55 250h194l99 -250l-205 -250h-194z" />
    <glyph glyph-name="onequarter" unicode="&#xbc;" horiz-adv-x="1055" 
d="M208 289l58 273q-60 -35 -104 -43l27 128q57 18 86.5 33.5t60.5 41.5h139l-92 -433h-175zM259 -25l566 772h106l-566 -772h-106zM821 0l14 68h-201l27 125l201 240h217l-53 -249h54l-25 -116h-54l-14 -68h-166zM792 184h71l27 126z" />
    <glyph glyph-name="onehalf" unicode="&#xbd;" horiz-adv-x="1055" 
d="M208 289l58 273q-60 -35 -104 -43l27 128q57 18 86.5 33.5t60.5 41.5h139l-92 -433h-175zM250 -25l566 772h106l-566 -772h-106zM647 0l25 116l113 62q63 35 97 63q51 40 51 72q0 20 -24 20q-35 0 -45 -44v-4h-160l1 5q31 151 228 151q83 0 124.5 -29t41.5 -81
q0 -74 -75 -132q-33 -27 -52 -38.5t-78 -42.5h162l-25 -118h-384z" />
    <glyph glyph-name="threequarters" unicode="&#xbe;" horiz-adv-x="1055" 
d="M281 277q-88 0 -133.5 30.5t-45.5 87.5q0 18 4 34h156q-2 -7 -2 -18q0 -29 32 -29q20 0 33.5 12.5t13.5 34.5q0 31 -63 31q-12 0 -21 -1l21 98q5 0 12 -0.5t10 -0.5q74 0 74 50q0 22 -30 22q-35 0 -43 -46h-154l1 5q15 76 71.5 110.5t154.5 34.5q81 0 124.5 -27.5
t43.5 -76.5q0 -93 -98 -112q66 -11 66 -75q0 -83 -59.5 -123.5t-167.5 -40.5zM271 -25l566 772h106l-566 -772h-106zM805 0l14 68h-201l27 125l201 240h217l-53 -249h54l-25 -116h-54l-14 -68h-166zM776 184h71l27 126z" />
    <glyph glyph-name="questiondown" unicode="&#xbf;" horiz-adv-x="537" 
d="M263 280l10 49h242l-13 -64q-11 -54 -65 -100l-89 -74q-32 -27 -36 -52q-5 -24 10.5 -36.5t48.5 -12.5q59 0 140 30l-40 -188q-113 -36 -218 -36q-121 0 -188 50t-47 148q11 50 34 83t63 62l99 72q41 30 49 69zM283 373l35 164h242l-35 -164h-242z" />
    <glyph glyph-name="Agrave" unicode="&#xc0;" horiz-adv-x="796" 
d="M816 0h-292l-3 116h-208l-54 -116h-278l385 722h371zM516 292l-1 271l-122 -271h123zM495 772l-118 170h232l62 -170h-176z" />
    <glyph glyph-name="Aacute" unicode="&#xc1;" horiz-adv-x="796" 
d="M816 0h-292l-3 116h-208l-54 -116h-278l385 722h371zM516 292l-1 271l-122 -271h123zM439 772l134 170h232l-190 -170h-176z" />
    <glyph glyph-name="Acircumflex" unicode="&#xc2;" horiz-adv-x="796" 
d="M816 0h-292l-3 116h-208l-54 -116h-278l385 722h371zM516 292l-1 271l-122 -271h123zM598 772l-28 76l-60 -76h-182l150 170h224l78 -170h-182z" />
    <glyph glyph-name="Atilde" unicode="&#xc3;" horiz-adv-x="796" 
d="M816 0h-292l-3 116h-208l-54 -116h-278l385 722h371zM516 292l-1 271l-122 -271h123zM680 936h124q-33 -164 -173 -164q-27 0 -79 17t-64 17q-19 0 -25 -28h-124l4 19q14 64 56.5 104.5t100.5 40.5q32 0 87.5 -17t64.5 -17q21 0 28 28z" />
    <glyph glyph-name="Adieresis" unicode="&#xc4;" horiz-adv-x="796" 
d="M816 0h-292l-3 116h-208l-54 -116h-278l385 722h371zM516 292l-1 271l-122 -271h123zM352 772l36 170h164l-36 -170h-164zM592 772l36 170h164l-36 -170h-164z" />
    <glyph glyph-name="Aring" unicode="&#xc5;" horiz-adv-x="796" 
d="M816 0h-292l-3 116h-208l-54 -116h-278l385 722h371zM516 292l-1 271l-122 -271h123zM447 886q11 54 58 92.5t101 38.5t84 -38.5t19 -92.5t-58 -92.5t-101 -38.5t-84 38.5t-19 92.5zM535 886q-4 -18 6 -30.5t28 -12.5t33 12.5t19 30.5t-6 30.5t-28 12.5t-33 -12.5
t-19 -30.5z" />
    <glyph glyph-name="AE" unicode="&#xc6;" horiz-adv-x="1000" 
d="M1128 722l-40 -190h-255l-11 -81h229l-38 -180h-208l-9 -86h224l-39 -185h-468l12 116h-212l-66 -116h-269l458 722h692zM416 292h127l34 280z" />
    <glyph glyph-name="Ccedilla" unicode="&#xc7;" horiz-adv-x="758" 
d="M275 -92l58 76q-120 13 -182.5 81t-62.5 184q0 54 13 112q38 178 156.5 277t293.5 99q133 0 208.5 -52t75.5 -160q0 -32 -8 -75l-1 -1h-263q3 21 3 36q0 61 -50 61q-27 0 -46.5 -13.5t-33 -42.5t-21 -55.5t-17.5 -71.5q-18 -83 -18 -122q0 -71 57 -71q32 0 53 22.5
t35 73.5h268l-1 -1q-27 -127 -127 -202t-252 -81l-29 -38h2q10 3 29 3q41 0 63.5 -23t13.5 -62q-10 -49 -57 -77.5t-112 -28.5q-81 0 -132 28l40 64q45 -24 83 -24q20 0 38 10t21 24q3 13 -7.5 20t-26.5 7q-13 0 -32 -7z" />
    <glyph glyph-name="Egrave" unicode="&#xc8;" 
d="M753 722l-39 -188h-274l-17 -78h253l-40 -187h-253l-17 -81h283l-40 -188h-558l153 722h549zM416 772l-118 170h232l62 -170h-176z" />
    <glyph glyph-name="Eacute" unicode="&#xc9;" 
d="M753 722l-39 -188h-274l-17 -78h253l-40 -187h-253l-17 -81h283l-40 -188h-558l153 722h549zM355 772l134 170h232l-190 -170h-176z" />
    <glyph glyph-name="Ecircumflex" unicode="&#xca;" 
d="M753 722l-39 -188h-274l-17 -78h253l-40 -187h-253l-17 -81h283l-40 -188h-558l153 722h549zM522 772l-28 76l-60 -76h-182l150 170h224l78 -170h-182z" />
    <glyph glyph-name="Edieresis" unicode="&#xcb;" 
d="M753 722l-39 -188h-274l-17 -78h253l-40 -187h-253l-17 -81h283l-40 -188h-558l153 722h549zM276 772l36 170h164l-36 -170h-164zM516 772l36 170h164l-36 -170h-164z" />
    <glyph glyph-name="Igrave" unicode="&#xcc;" horiz-adv-x="388" 
d="M489 722l-153 -722h-285l153 722h285zM294 772l-118 170h232l62 -170h-176z" />
    <glyph glyph-name="Iacute" unicode="&#xcd;" horiz-adv-x="388" 
d="M489 722l-153 -722h-285l153 722h285zM234 772l134 170h232l-190 -170h-176z" />
    <glyph glyph-name="Icircumflex" unicode="&#xce;" horiz-adv-x="388" 
d="M489 722l-153 -722h-285l153 722h285zM401 772l-28 76l-60 -76h-182l150 170h224l78 -170h-182z" />
    <glyph glyph-name="Idieresis" unicode="&#xcf;" horiz-adv-x="388" 
d="M489 722l-153 -722h-285l153 722h285zM155 772l36 170h164l-36 -170h-164zM395 772l36 170h164l-36 -170h-164z" />
    <glyph glyph-name="Eth" unicode="&#xd0;" horiz-adv-x="796" 
d="M639 56q-104 -56 -239 -56h-351l65 306h-56l25 122h57l62 294h324q59 0 105 -6t91 -23t74.5 -45t48 -75t18.5 -110q0 -123 -60.5 -237.5t-163.5 -169.5zM478 306h-82l-30 -140h22q35 0 62 12.5t43 29t29.5 47.5t19.5 53.5t14 61.5q13 63 13 98q0 43 -21 66.5t-73 23.5
h-25l-28 -130h81z" />
    <glyph glyph-name="Ntilde" unicode="&#xd1;" horiz-adv-x="832" 
d="M933 722l-153 -722h-342l-62 442l-94 -442h-231l153 722h349l57 -435l92 435h231zM707 936h124q-35 -164 -174 -164q-27 0 -79 17t-64 17q-19 0 -25 -28h-124l4 19q14 64 56.5 104.5t100.5 40.5q32 0 87.5 -17t64.5 -17q22 0 29 28z" />
    <glyph glyph-name="Ograve" unicode="&#xd2;" horiz-adv-x="796" 
d="M554 377q16 78 16 110q0 64 -53 64q-46 0 -73 -46.5t-49 -151.5q-15 -72 -15 -110q0 -73 51 -73q45 0 71.5 44.5t51.5 162.5zM848 361q-39 -179 -155.5 -280.5t-289.5 -101.5q-147 0 -230.5 72t-83.5 201q0 48 12 104q39 185 155.5 285t297.5 100q145 0 226 -70t81 -198
q0 -47 -13 -112zM500 772l-118 170h232l62 -170h-176z" />
    <glyph glyph-name="Oacute" unicode="&#xd3;" horiz-adv-x="796" 
d="M554 377q16 78 16 110q0 64 -53 64q-46 0 -73 -46.5t-49 -151.5q-15 -72 -15 -110q0 -73 51 -73q45 0 71.5 44.5t51.5 162.5zM848 361q-39 -179 -155.5 -280.5t-289.5 -101.5q-147 0 -230.5 72t-83.5 201q0 48 12 104q39 185 155.5 285t297.5 100q145 0 226 -70t81 -198
q0 -47 -13 -112zM439 772l134 170h232l-190 -170h-176z" />
    <glyph glyph-name="Ocircumflex" unicode="&#xd4;" horiz-adv-x="796" 
d="M554 377q16 78 16 110q0 64 -53 64q-46 0 -73 -46.5t-49 -151.5q-15 -72 -15 -110q0 -73 51 -73q45 0 71.5 44.5t51.5 162.5zM848 361q-39 -179 -155.5 -280.5t-289.5 -101.5q-147 0 -230.5 72t-83.5 201q0 48 12 104q39 185 155.5 285t297.5 100q145 0 226 -70t81 -198
q0 -47 -13 -112zM606 772l-28 76l-60 -76h-182l150 170h224l78 -170h-182z" />
    <glyph glyph-name="Otilde" unicode="&#xd5;" horiz-adv-x="796" 
d="M554 377q16 78 16 110q0 64 -53 64q-46 0 -73 -46.5t-49 -151.5q-15 -72 -15 -110q0 -73 51 -73q45 0 71.5 44.5t51.5 162.5zM848 361q-39 -179 -155.5 -280.5t-289.5 -101.5q-147 0 -230.5 72t-83.5 201q0 48 12 104q39 185 155.5 285t297.5 100q145 0 226 -70t81 -198
q0 -47 -13 -112zM688 936h124q-33 -164 -173 -164q-27 0 -79 17t-64 17q-19 0 -25 -28h-124l4 19q14 64 56.5 104.5t100.5 40.5q32 0 87.5 -17t64.5 -17q21 0 28 28z" />
    <glyph glyph-name="Odieresis" unicode="&#xd6;" horiz-adv-x="796" 
d="M554 377q16 78 16 110q0 64 -53 64q-46 0 -73 -46.5t-49 -151.5q-15 -72 -15 -110q0 -73 51 -73q45 0 71.5 44.5t51.5 162.5zM848 361q-39 -179 -155.5 -280.5t-289.5 -101.5q-147 0 -230.5 72t-83.5 201q0 48 12 104q39 185 155.5 285t297.5 100q145 0 226 -70t81 -198
q0 -47 -13 -112zM360 772l36 170h164l-36 -170h-164zM600 772l36 170h164l-36 -170h-164z" />
    <glyph glyph-name="multiply" unicode="&#xd7;" horiz-adv-x="600" 
d="M212 11l-94 94l149 148l-149 148l94 94l148 -148l148 148l94 -94l-149 -148l149 -148l-94 -94l-148 148z" />
    <glyph glyph-name="Oslash" unicode="&#xd8;" horiz-adv-x="796" 
d="M117 -100l-80 68l106 114q-53 69 -53 183q0 55 11 106q39 180 158 275t299 95q105 0 168 -34l92 102l76 -64l-90 -99q54 -69 54 -183q0 -51 -12 -110q-37 -176 -158 -275t-295 -99q-104 0 -170 39zM433 170q54 0 84.5 45t51.5 159l4 22l-192 -209q14 -17 52 -17zM377 335
l188 201q-17 15 -52 15q-49 0 -75 -38q-35 -49 -57 -152q-3 -15 -4 -26z" />
    <glyph glyph-name="Ugrave" unicode="&#xd9;" horiz-adv-x="778" 
d="M886 722l-96 -452q-33 -155 -130 -223t-264 -68q-52 0 -102 9t-98 29t-77.5 60t-29.5 94q0 30 9 72l101 479h287l-98 -465q-4 -17 -4 -33q0 -48 45 -48q29 0 49.5 20t27.5 57l99 469h281zM489 772l-118 170h232l62 -170h-176z" />
    <glyph glyph-name="Uacute" unicode="&#xda;" horiz-adv-x="778" 
d="M886 722l-96 -452q-33 -155 -130 -223t-264 -68q-52 0 -102 9t-98 29t-77.5 60t-29.5 94q0 30 9 72l101 479h287l-98 -465q-4 -17 -4 -33q0 -48 45 -48q29 0 49.5 20t27.5 57l99 469h281zM449 772l134 170h232l-190 -170h-176z" />
    <glyph glyph-name="Ucircumflex" unicode="&#xdb;" horiz-adv-x="778" 
d="M886 722l-96 -452q-33 -155 -130 -223t-264 -68q-52 0 -102 9t-98 29t-77.5 60t-29.5 94q0 30 9 72l101 479h287l-98 -465q-4 -17 -4 -33q0 -48 45 -48q29 0 49.5 20t27.5 57l99 469h281zM596 772l-28 76l-60 -76h-182l150 170h224l78 -170h-182z" />
    <glyph glyph-name="Udieresis" unicode="&#xdc;" horiz-adv-x="778" 
d="M886 722l-96 -452q-33 -155 -130 -223t-264 -68q-52 0 -102 9t-98 29t-77.5 60t-29.5 94q0 30 9 72l101 479h287l-98 -465q-4 -17 -4 -33q0 -48 45 -48q29 0 49.5 20t27.5 57l99 469h281zM350 772l36 170h164l-36 -170h-164zM590 772l36 170h164l-36 -170h-164z" />
    <glyph glyph-name="Yacute" unicode="&#xdd;" horiz-adv-x="740" 
d="M911 722l-345 -472l-53 -250h-285l53 250l-146 472h290l39 -303l165 303h282zM430 772l134 170h232l-190 -170h-176z" />
    <glyph glyph-name="Thorn" unicode="&#xde;" horiz-adv-x="740" 
d="M51 0l153 722h287l-24 -113h97q67 0 99.5 -5t62.5 -19q41 -19 63 -63t22 -101q0 -64 -27 -124t-70 -94q-87 -71 -242 -71h-106l-28 -132h-287zM400 296h14q60 0 90 21.5t30 75.5q0 57 -76 57h-25z" />
    <glyph glyph-name="germandbls" unicode="&#xdf;" horiz-adv-x="758" 
d="M35 0l107 506q27 124 111 179.5t254 55.5q136 0 212.5 -40.5t76.5 -111.5q0 -43 -22 -73t-68 -65l-14 -9q-14 -10 -20 -15t-13.5 -15t-7.5 -18q0 -9 14 -22.5t55 -43.5q69 -49 69 -128q0 -109 -78.5 -164t-199.5 -55q-184 0 -184 135q0 24 6 53h173q-2 -7 -2 -19
q0 -30 25 -30q17 0 27.5 14.5t10.5 33.5q0 26 -49 64l-44 33q-64 47 -64 96q0 71 67 118q1 0 9 6l11.5 8.5l12 8.5t13 10.5t12 11t11.5 12l8.5 12t6.5 13t2 12.5q0 19 -18 31.5t-46 12.5q-93 0 -121 -137l-102 -480h-241z" />
    <glyph glyph-name="agrave" unicode="&#xe0;" horiz-adv-x="592" 
d="M382 223q-18 2 -21 2q-43 0 -73.5 -17.5t-30.5 -57.5q0 -35 46 -35q30 0 48 19t26 63zM623 330l-70 -330h-212l7 53q-69 -66 -160 -66q-70 0 -108.5 34.5t-38.5 90.5q0 61 28.5 103.5t77.5 63.5t99.5 30t108.5 9q26 0 44 -1l10 43q1 5 1 13q0 27 -39 27q-46 0 -57 -48
h-199v1q11 48 50 87q72 73 239 73q42 0 73 -3.5t70.5 -14t61.5 -37t22 -66.5q0 -20 -8 -62zM538 552h-177l-118 170h235z" />
    <glyph glyph-name="aacute" unicode="&#xe1;" horiz-adv-x="592" 
d="M382 223q-18 2 -21 2q-43 0 -73.5 -17.5t-30.5 -57.5q0 -35 46 -35q30 0 48 19t26 63zM623 330l-70 -330h-212l7 53q-69 -66 -160 -66q-70 0 -108.5 34.5t-38.5 90.5q0 61 28.5 103.5t77.5 63.5t99.5 30t108.5 9q26 0 44 -1l10 43q1 5 1 13q0 27 -39 27q-46 0 -57 -48
h-199v1q11 48 50 87q72 73 239 73q42 0 73 -3.5t70.5 -14t61.5 -37t22 -66.5q0 -20 -8 -62zM300 552l134 170h232l-190 -170h-176z" />
    <glyph glyph-name="acircumflex" unicode="&#xe2;" horiz-adv-x="592" 
d="M382 223q-18 2 -21 2q-43 0 -73.5 -17.5t-30.5 -57.5q0 -35 46 -35q30 0 48 19t26 63zM623 330l-70 -330h-212l7 53q-69 -66 -160 -66q-70 0 -108.5 34.5t-38.5 90.5q0 61 28.5 103.5t77.5 63.5t99.5 30t108.5 9q26 0 44 -1l10 43q1 5 1 13q0 27 -39 27q-46 0 -57 -48
h-199v1q11 48 50 87q72 73 239 73q42 0 73 -3.5t70.5 -14t61.5 -37t22 -66.5q0 -20 -8 -62zM450 552l-28 76l-60 -76h-182l150 170h224l78 -170h-182z" />
    <glyph glyph-name="atilde" unicode="&#xe3;" horiz-adv-x="592" 
d="M382 223q-18 2 -21 2q-43 0 -73.5 -17.5t-30.5 -57.5q0 -35 46 -35q30 0 48 19t26 63zM623 330l-70 -330h-212l7 53q-69 -66 -160 -66q-70 0 -108.5 34.5t-38.5 90.5q0 61 28.5 103.5t77.5 63.5t99.5 30t108.5 9q26 0 44 -1l10 43q1 5 1 13q0 27 -39 27q-46 0 -57 -48
h-199v1q11 48 50 87q72 73 239 73q42 0 73 -3.5t70.5 -14t61.5 -37t22 -66.5q0 -20 -8 -62zM533 716h124q-35 -164 -174 -164q-27 0 -79.5 17t-63.5 17q-19 0 -25 -28h-124l4 19q14 64 56.5 104.5t100.5 40.5q32 0 87.5 -17t64.5 -17q22 0 29 28z" />
    <glyph glyph-name="adieresis" unicode="&#xe4;" horiz-adv-x="592" 
d="M382 223q-18 2 -21 2q-43 0 -73.5 -17.5t-30.5 -57.5q0 -35 46 -35q30 0 48 19t26 63zM623 330l-70 -330h-212l7 53q-69 -66 -160 -66q-70 0 -108.5 34.5t-38.5 90.5q0 61 28.5 103.5t77.5 63.5t99.5 30t108.5 9q26 0 44 -1l10 43q1 5 1 13q0 27 -39 27q-46 0 -57 -48
h-199v1q11 48 50 87q72 73 239 73q42 0 73 -3.5t70.5 -14t61.5 -37t22 -66.5q0 -20 -8 -62zM204 552l36 170h164l-36 -170h-164zM444 552l36 170h164l-36 -170h-164z" />
    <glyph glyph-name="aring" unicode="&#xe5;" horiz-adv-x="592" 
d="M382 223q-18 2 -21 2q-43 0 -73.5 -17.5t-30.5 -57.5q0 -35 46 -35q30 0 48 19t26 63zM623 330l-70 -330h-212l7 53q-69 -66 -160 -66q-70 0 -108.5 34.5t-38.5 90.5q0 61 28.5 103.5t77.5 63.5t99.5 30t108.5 9q26 0 44 -1l10 43q1 5 1 13q0 27 -39 27q-46 0 -57 -48
h-199v1q11 48 50 87q72 73 239 73q42 0 73 -3.5t70.5 -14t61.5 -37t22 -66.5q0 -20 -8 -62zM312 681q12 54 58.5 92.5t100.5 38.5t84.5 -38.5t18.5 -92.5q-11 -54 -58 -92.5t-101 -38.5t-84 38.5t-19 92.5zM400 681q-4 -18 6 -30.5t28 -12.5t33 12.5t19 30.5t-6 30.5
t-28 12.5t-33 -12.5t-19 -30.5z" />
    <glyph glyph-name="ae" unicode="&#xe6;" horiz-adv-x="906" 
d="M699 163h208q-21 -91 -97.5 -135.5t-183.5 -44.5q-68 0 -120 18t-73 53q-43 -39 -90.5 -55t-118.5 -16q-87 0 -135 37.5t-48 100.5q0 43 19.5 82.5t55.5 62.5q32 21 82 32.5t89 13.5t102 2h8l7 27q5 20 5 32q0 36 -40 36q-50 0 -56 -56h-198q12 82 80.5 124.5t176.5 42.5
q126 0 174 -57q80 57 179 57q103 0 160.5 -54t57.5 -150q0 -58 -18 -109h-347q-6 -30 -6 -47q0 -56 52 -56q28 0 48.5 15.5t26.5 43.5zM733 314q5 20 5 32q0 53 -51 53q-31 0 -53 -21t-29 -58l-2 -6h130zM380 221q-10 1 -21 1q-41 0 -72 -16t-31 -54q0 -18 12 -28.5
t33 -10.5q31 0 48 20t27 66z" />
    <glyph glyph-name="ccedilla" unicode="&#xe7;" 
d="M208 -92l62 80q-199 22 -199 186q0 36 9 79q26 125 116 194.5t229 69.5q115 0 181.5 -44t66.5 -123q0 -22 -6 -48v-1h-223q5 22 5 45q0 44 -39 44q-17 0 -30 -8.5t-21.5 -19.5t-16.5 -36.5t-12.5 -44t-12.5 -56.5q-11 -48 -11 -68q0 -47 44 -47q53 0 74 96h227
q-46 -213 -302 -220l-32 -42h2q10 3 29 3q41 0 63.5 -23t13.5 -62q-10 -49 -57 -77.5t-112 -28.5q-81 0 -132 28l40 64q45 -24 83 -24q20 0 38 10t21 24q3 13 -7.5 20t-26.5 7q-13 0 -32 -7z" />
    <glyph glyph-name="egrave" unicode="&#xe8;" 
d="M455 315q5 23 5 38q0 45 -51 45q-38 0 -57 -21.5t-27 -61.5h130zM649 208h-347v-1q-8 -36 -8 -51q0 -50 54 -50q55 0 75 58h210q-5 -22 -25 -51t-41 -48q-46 -43 -103.5 -62t-144.5 -19q-118 0 -183 49.5t-65 147.5q0 158 99.5 248.5t261.5 90.5q117 0 175 -51t58 -147
q0 -38 -16 -114zM547 552h-177l-118 170h235z" />
    <glyph glyph-name="eacute" unicode="&#xe9;" 
d="M455 315q5 23 5 38q0 45 -51 45q-38 0 -57 -21.5t-27 -61.5h130zM649 208h-347v-1q-8 -36 -8 -51q0 -50 54 -50q55 0 75 58h210q-5 -22 -25 -51t-41 -48q-46 -43 -103.5 -62t-144.5 -19q-118 0 -183 49.5t-65 147.5q0 158 99.5 248.5t261.5 90.5q117 0 175 -51t58 -147
q0 -38 -16 -114zM309 552l134 170h232l-190 -170h-176z" />
    <glyph glyph-name="ecircumflex" unicode="&#xea;" 
d="M455 315q5 23 5 38q0 45 -51 45q-38 0 -57 -21.5t-27 -61.5h130zM649 208h-347v-1q-8 -36 -8 -51q0 -50 54 -50q55 0 75 58h210q-5 -22 -25 -51t-41 -48q-46 -43 -103.5 -62t-144.5 -19q-118 0 -183 49.5t-65 147.5q0 158 99.5 248.5t261.5 90.5q117 0 175 -51t58 -147
q0 -38 -16 -114zM482 552l-28 76l-60 -76h-182l150 170h224l78 -170h-182z" />
    <glyph glyph-name="edieresis" unicode="&#xeb;" 
d="M455 315q5 23 5 38q0 45 -51 45q-38 0 -57 -21.5t-27 -61.5h130zM649 208h-347v-1q-8 -36 -8 -51q0 -50 54 -50q55 0 75 58h210q-5 -22 -25 -51t-41 -48q-46 -43 -103.5 -62t-144.5 -19q-118 0 -183 49.5t-65 147.5q0 158 99.5 248.5t261.5 90.5q117 0 175 -51t58 -147
q0 -38 -16 -114zM236 552l36 170h164l-36 -170h-164zM476 552l36 170h164l-36 -170h-164z" />
    <glyph glyph-name="igrave" unicode="&#xec;" horiz-adv-x="314" 
d="M36 0l106 500h242l-106 -500h-242zM389 552h-177l-118 170h235z" />
    <glyph glyph-name="iacute" unicode="&#xed;" horiz-adv-x="314" 
d="M36 0l106 500h242l-106 -500h-242zM151 552l134 170h232l-190 -170h-176z" />
    <glyph glyph-name="icircumflex" unicode="&#xee;" horiz-adv-x="314" 
d="M36 0l106 500h242l-106 -500h-242zM318 552l-28 76l-60 -76h-182l150 170h224l78 -170h-182z" />
    <glyph glyph-name="idieresis" unicode="&#xef;" horiz-adv-x="314" 
d="M36 0l106 500h242l-106 -500h-242zM72 552l36 170h164l-36 -170h-164zM312 552l36 170h164l-36 -170h-164z" />
    <glyph glyph-name="eth" unicode="&#xf0;" horiz-adv-x="666" 
d="M337 -18q-123 0 -190.5 55.5t-67.5 149.5q0 126 86 208t201 82q67 0 105 -27q-3 32 -19 57t-53 55l-117 -56l-81 56l112 51q-25 17 -69 32l132 124q68 -22 130 -64l125 58l68 -63l-113 -52q114 -98 114 -262q0 -54 -14 -119q-29 -140 -117 -212.5t-232 -72.5zM356 115
q29 0 46 25t32 95q9 41 9 66q0 45 -37 45q-29 0 -46 -23.5t-31 -89.5q-11 -50 -11 -75q0 -23 9 -33t29 -10z" />
    <glyph glyph-name="ntilde" unicode="&#xf1;" horiz-adv-x="648" 
d="M676 303l-64 -303h-242l65 307q3 12 3 22q0 37 -34 37q-45 0 -59 -63l-64 -303h-244l106 500h233l-10 -74q70 90 181 90q65 0 104 -29t39 -92q0 -30 -14 -92zM569 716h124q-35 -164 -174 -164q-27 0 -79 17t-64 17q-19 0 -25 -28h-124l4 19q14 64 56.5 104.5t100.5 40.5
q32 0 87.5 -17t64.5 -17q22 0 29 28z" />
    <glyph glyph-name="ograve" unicode="&#xf2;" horiz-adv-x="666" 
d="M444 259q10 46 10 76q0 52 -38 52q-32 0 -50.5 -32t-31.5 -96q-15 -67 -15 -96q0 -46 38 -46q25 0 43 22t26 48t18 72zM694 252q-57 -268 -369 -268q-115 0 -184.5 52t-69.5 150q0 33 7 65q28 134 121.5 202t228.5 68q124 0 198.5 -50t74.5 -152q0 -33 -7 -67zM555 552
h-177l-118 170h235z" />
    <glyph glyph-name="oacute" unicode="&#xf3;" horiz-adv-x="666" 
d="M444 259q10 46 10 76q0 52 -38 52q-32 0 -50.5 -32t-31.5 -96q-15 -67 -15 -96q0 -46 38 -46q25 0 43 22t26 48t18 72zM694 252q-57 -268 -369 -268q-115 0 -184.5 52t-69.5 150q0 33 7 65q28 134 121.5 202t228.5 68q124 0 198.5 -50t74.5 -152q0 -33 -7 -67zM337 552
l134 170h232l-190 -170h-176z" />
    <glyph glyph-name="ocircumflex" unicode="&#xf4;" horiz-adv-x="666" 
d="M444 259q10 46 10 76q0 52 -38 52q-32 0 -50.5 -32t-31.5 -96q-15 -67 -15 -96q0 -46 38 -46q25 0 43 22t26 48t18 72zM694 252q-57 -268 -369 -268q-115 0 -184.5 52t-69.5 150q0 33 7 65q28 134 121.5 202t228.5 68q124 0 198.5 -50t74.5 -152q0 -33 -7 -67zM494 552
l-28 76l-60 -76h-182l150 170h224l78 -170h-182z" />
    <glyph glyph-name="otilde" unicode="&#xf5;" horiz-adv-x="666" 
d="M444 259q10 46 10 76q0 52 -38 52q-32 0 -50.5 -32t-31.5 -96q-15 -67 -15 -96q0 -46 38 -46q25 0 43 22t26 48t18 72zM694 252q-57 -268 -369 -268q-115 0 -184.5 52t-69.5 150q0 33 7 65q28 134 121.5 202t228.5 68q124 0 198.5 -50t74.5 -152q0 -33 -7 -67zM577 716
h124q-35 -164 -174 -164q-27 0 -79.5 17t-63.5 17q-19 0 -25 -28h-124l4 19q14 64 56.5 104.5t100.5 40.5q32 0 87.5 -17t64.5 -17q22 0 29 28z" />
    <glyph glyph-name="odieresis" unicode="&#xf6;" horiz-adv-x="666" 
d="M444 259q10 46 10 76q0 52 -38 52q-32 0 -50.5 -32t-31.5 -96q-15 -67 -15 -96q0 -46 38 -46q25 0 43 22t26 48t18 72zM694 252q-57 -268 -369 -268q-115 0 -184.5 52t-69.5 150q0 33 7 65q28 134 121.5 202t228.5 68q124 0 198.5 -50t74.5 -152q0 -33 -7 -67zM248 552
l36 170h164l-36 -170h-164zM488 552l36 170h164l-36 -170h-164z" />
    <glyph glyph-name="divide" unicode="&#xf7;" horiz-adv-x="600" 
d="M100 185v136h506v-136h-506zM262 46q0 38 27 64.5t64 26.5t64 -26.5t27 -64.5t-27 -64.5t-64 -26.5t-64 26.5t-27 64.5zM262 460q0 38 27 64.5t64 26.5t64 -26.5t27 -64.5t-27 -64.5t-64 -26.5t-64 26.5t-27 64.5z" />
    <glyph glyph-name="oslash" unicode="&#xf8;" horiz-adv-x="666" 
d="M105 -89l-59 57l79 82q-53 53 -53 142q0 151 97.5 240t249.5 89q94 0 154 -22l87 86l61 -54l-75 -76q53 -52 53 -141q0 -33 -8 -73q-27 -129 -116 -193t-250 -64q-75 0 -130 22zM316 239l143 144q-14 14 -40 14q-40 0 -62 -34.5t-41 -123.5zM355 116q38 0 61 30.5
t38 101.5l4 19l-138 -139q12 -12 35 -12z" />
    <glyph glyph-name="ugrave" unicode="&#xf9;" horiz-adv-x="648" 
d="M717 500l-106 -500h-233l11 74q-72 -90 -181 -90q-65 0 -104 29t-39 92q0 34 13 92l64 303h242l-65 -307q-3 -12 -3 -22q0 -37 34 -37q45 0 59 64l64 302h244zM536 552h-177l-118 170h235z" />
    <glyph glyph-name="uacute" unicode="&#xfa;" horiz-adv-x="648" 
d="M717 500l-106 -500h-233l11 74q-72 -90 -181 -90q-65 0 -104 29t-39 92q0 34 13 92l64 303h242l-65 -307q-3 -12 -3 -22q0 -37 34 -37q45 0 59 64l64 302h244zM318 552l134 170h232l-190 -170h-176z" />
    <glyph glyph-name="ucircumflex" unicode="&#xfb;" horiz-adv-x="648" 
d="M717 500l-106 -500h-233l11 74q-72 -90 -181 -90q-65 0 -104 29t-39 92q0 34 13 92l64 303h242l-65 -307q-3 -12 -3 -22q0 -37 34 -37q45 0 59 64l64 302h244zM485 552l-28 76l-60 -76h-182l150 170h224l78 -170h-182z" />
    <glyph glyph-name="udieresis" unicode="&#xfc;" horiz-adv-x="648" 
d="M717 500l-106 -500h-233l11 74q-72 -90 -181 -90q-65 0 -104 29t-39 92q0 34 13 92l64 303h242l-65 -307q-3 -12 -3 -22q0 -37 34 -37q45 0 59 64l64 302h244zM239 552l36 170h164l-36 -170h-164zM479 552l36 170h164l-36 -170h-164z" />
    <glyph glyph-name="yacute" unicode="&#xfd;" 
d="M740 500l-385 -692h-261l104 177l-95 515h258l12 -274l126 274h241zM319 552l134 170h232l-190 -170h-176z" />
    <glyph glyph-name="thorn" unicode="&#xfe;" horiz-adv-x="666" 
d="M192 722h236l-60 -280q70 74 165 74q78 0 120 -51t42 -140q0 -42 -11 -97q-25 -121 -88 -183t-158 -62q-103 0 -145 61l-50 -236h-244zM409 372q-30 0 -44.5 -21t-30.5 -95q-11 -53 -11 -79q0 -50 40 -50q30 0 46.5 23t32.5 96q9 44 9 72q0 54 -42 54z" />
    <glyph glyph-name="ydieresis" unicode="&#xff;" 
d="M740 500l-385 -692h-261l104 177l-95 515h258l12 -274l126 274h241zM240 552l36 170h164l-36 -170h-164zM480 552l36 170h164l-36 -170h-164z" />
    <glyph glyph-name="Amacron" unicode="&#x100;" horiz-adv-x="796" 
d="M816 0h-292l-3 116h-208l-54 -116h-278l385 722h371zM516 292l-1 271l-122 -271h123zM347 801l25 118h428l-25 -118h-428z" />
    <glyph glyph-name="amacron" unicode="&#x101;" horiz-adv-x="592" 
d="M382 223q-18 2 -21 2q-43 0 -73.5 -17.5t-30.5 -57.5q0 -35 46 -35q30 0 48 19t26 63zM623 330l-70 -330h-212l7 53q-69 -66 -160 -66q-70 0 -108.5 34.5t-38.5 90.5q0 61 28.5 103.5t77.5 63.5t99.5 30t108.5 9q26 0 44 -1l10 43q1 5 1 13q0 27 -39 27q-46 0 -57 -48
h-199v1q11 48 50 87q72 73 239 73q42 0 73 -3.5t70.5 -14t61.5 -37t22 -66.5q0 -20 -8 -62zM198 581l25 118h428l-25 -118h-428z" />
    <glyph glyph-name="Abreve" unicode="&#x102;" horiz-adv-x="796" 
d="M816 0h-292l-3 116h-208l-54 -116h-278l385 722h371zM516 292l-1 271l-122 -271h123zM394 942h148q-5 -29 6 -43.5t30 -14.5t36.5 14.5t25.5 43.5h148q-29 -90 -91.5 -133t-143.5 -43q-80 0 -124 43t-35 133z" />
    <glyph glyph-name="abreve" unicode="&#x103;" horiz-adv-x="592" 
d="M382 223q-18 2 -21 2q-43 0 -73.5 -17.5t-30.5 -57.5q0 -35 46 -35q30 0 48 19t26 63zM623 330l-70 -330h-212l7 53q-69 -66 -160 -66q-70 0 -108.5 34.5t-38.5 90.5q0 61 28.5 103.5t77.5 63.5t99.5 30t108.5 9q26 0 44 -1l10 43q1 5 1 13q0 27 -39 27q-46 0 -57 -48
h-199v1q11 48 50 87q72 73 239 73q42 0 73 -3.5t70.5 -14t61.5 -37t22 -66.5q0 -20 -8 -62zM245 722h148q-5 -29 6.5 -43.5t30.5 -14.5t36 14.5t25 43.5h148q-29 -90 -91.5 -133t-142.5 -43q-81 0 -125 43t-35 133z" />
    <glyph glyph-name="Aogonek" unicode="&#x104;" horiz-adv-x="796" 
d="M656 0h-132l-3 116h-208l-54 -116h-278l385 722h371l79 -722h-60q-124 -64 -135 -114q-8 -44 44 -44q33 0 62 11l3 -68q-60 -17 -125 -17q-69 0 -96.5 21t-17.5 67q10 47 56 84.5t109 59.5zM516 292l-1 271l-122 -271h123z" />
    <glyph glyph-name="aogonek" unicode="&#x105;" horiz-adv-x="592" 
d="M423 0h-82l7 53q-69 -66 -160 -66q-70 0 -108.5 34.5t-38.5 90.5q0 61 28.5 103.5t77.5 63.5t99.5 30t108.5 9q26 0 44 -1l10 43q1 5 1 13q0 27 -39 27q-46 0 -57 -48h-199v1q11 48 50 87q72 73 239 73q42 0 73 -3.5t70.5 -14t61.5 -37t22 -66.5q0 -20 -8 -62l-70 -330
h-30q-124 -64 -135 -114q-8 -44 44 -44q33 0 62 11l3 -68q-60 -17 -125 -17q-69 0 -96.5 21t-17.5 67q10 47 56 84.5t109 59.5zM382 223q-18 2 -21 2q-43 0 -73.5 -17.5t-30.5 -57.5q0 -35 46 -35q30 0 48 19t26 63z" />
    <glyph glyph-name="Cacute" unicode="&#x106;" horiz-adv-x="758" 
d="M827 450l-1 -1h-263q3 21 3 36q0 61 -50 61q-27 0 -46.5 -13.5t-33 -42.5t-21 -55.5t-17.5 -71.5q-18 -83 -18 -122q0 -71 57 -71q32 0 53 22.5t35 73.5h268l-1 -1q-28 -133 -135 -208.5t-268 -75.5q-146 0 -223.5 69.5t-77.5 198.5q0 54 13 112q38 178 156.5 277
t293.5 99q133 0 208.5 -52t75.5 -160q0 -32 -8 -75zM446 772l134 170h232l-190 -170h-176z" />
    <glyph glyph-name="cacute" unicode="&#x107;" 
d="M667 302v-1h-223q5 22 5 45q0 44 -39 44q-17 0 -30 -8.5t-21.5 -19.5t-16.5 -36.5t-12.5 -44t-12.5 -56.5q-11 -48 -11 -68q0 -47 44 -47q53 0 74 96h227q-47 -221 -319 -221q-121 0 -191 45.5t-70 143.5q0 36 9 79q26 125 116 194.5t229 69.5q115 0 181.5 -44t66.5 -123
q0 -22 -6 -48zM325 552l134 170h232l-190 -170h-176z" />
    <glyph glyph-name="Ccircumflex" unicode="&#x108;" horiz-adv-x="758" 
d="M827 450l-1 -1h-263q3 21 3 36q0 61 -50 61q-27 0 -46.5 -13.5t-33 -42.5t-21 -55.5t-17.5 -71.5q-18 -83 -18 -122q0 -71 57 -71q32 0 53 22.5t35 73.5h268l-1 -1q-28 -133 -135 -208.5t-268 -75.5q-146 0 -223.5 69.5t-77.5 198.5q0 54 13 112q38 178 156.5 277
t293.5 99q133 0 208.5 -52t75.5 -160q0 -32 -8 -75zM609 772l-28 76l-60 -76h-182l150 170h224l78 -170h-182z" />
    <glyph glyph-name="ccircumflex" unicode="&#x109;" 
d="M667 302v-1h-223q5 22 5 45q0 44 -39 44q-17 0 -30 -8.5t-21.5 -19.5t-16.5 -36.5t-12.5 -44t-12.5 -56.5q-11 -48 -11 -68q0 -47 44 -47q53 0 74 96h227q-47 -221 -319 -221q-121 0 -191 45.5t-70 143.5q0 36 9 79q26 125 116 194.5t229 69.5q115 0 181.5 -44t66.5 -123
q0 -22 -6 -48zM486 552l-28 76l-60 -76h-182l150 170h224l78 -170h-182z" />
    <glyph glyph-name="Cdotaccent" unicode="&#x10a;" horiz-adv-x="758" 
d="M827 450l-1 -1h-263q3 21 3 36q0 61 -50 61q-27 0 -46.5 -13.5t-33 -42.5t-21 -55.5t-17.5 -71.5q-18 -83 -18 -122q0 -71 57 -71q32 0 53 22.5t35 73.5h268l-1 -1q-28 -133 -135 -208.5t-268 -75.5q-146 0 -223.5 69.5t-77.5 198.5q0 54 13 112q38 178 156.5 277
t293.5 99q133 0 208.5 -52t75.5 -160q0 -32 -8 -75zM483 772l36 170h164l-36 -170h-164z" />
    <glyph glyph-name="cdotaccent" unicode="&#x10b;" 
d="M667 302v-1h-223q5 22 5 45q0 44 -39 44q-17 0 -30 -8.5t-21.5 -19.5t-16.5 -36.5t-12.5 -44t-12.5 -56.5q-11 -48 -11 -68q0 -47 44 -47q53 0 74 96h227q-47 -221 -319 -221q-121 0 -191 45.5t-70 143.5q0 36 9 79q26 125 116 194.5t229 69.5q115 0 181.5 -44t66.5 -123
q0 -22 -6 -48zM360 552l36 170h164l-36 -170h-164z" />
    <glyph glyph-name="Ccaron" unicode="&#x10c;" horiz-adv-x="758" 
d="M827 450l-1 -1h-263q3 21 3 36q0 61 -50 61q-27 0 -46.5 -13.5t-33 -42.5t-21 -55.5t-17.5 -71.5q-18 -83 -18 -122q0 -71 57 -71q32 0 53 22.5t35 73.5h268l-1 -1q-28 -133 -135 -208.5t-268 -75.5q-146 0 -223.5 69.5t-77.5 198.5q0 54 13 112q38 178 156.5 277
t293.5 99q133 0 208.5 -52t75.5 -160q0 -32 -8 -75zM453 772l-78 170h182l28 -76l60 76h182l-150 -170h-224z" />
    <glyph glyph-name="ccaron" unicode="&#x10d;" 
d="M667 302v-1h-223q5 22 5 45q0 44 -39 44q-17 0 -30 -8.5t-21.5 -19.5t-16.5 -36.5t-12.5 -44t-12.5 -56.5q-11 -48 -11 -68q0 -47 44 -47q53 0 74 96h227q-47 -221 -319 -221q-121 0 -191 45.5t-70 143.5q0 36 9 79q26 125 116 194.5t229 69.5q115 0 181.5 -44t66.5 -123
q0 -22 -6 -48zM330 552l-78 170h182l28 -76l60 76h182l-150 -170h-224z" />
    <glyph glyph-name="Dcaron" unicode="&#x10e;" horiz-adv-x="796" 
d="M556 370q13 63 13 98q0 43 -21 66.5t-73 23.5h-25l-84 -392h22q35 0 62 12.5t43 29t29.5 47.5t19.5 53.5t14 61.5zM639 56q-104 -56 -239 -56h-351l153 722h324q59 0 105 -6t91 -23t74.5 -45t48 -75t18.5 -110q0 -123 -60.5 -237.5t-163.5 -169.5zM383 772l-78 170h182
l28 -76l60 76h182l-150 -170h-224z" />
    <glyph glyph-name="dcaron" unicode="&#x10f;" horiz-adv-x="666" 
d="M778 722l-153 -722h-228l4 58q-70 -74 -164 -74q-80 0 -122.5 46.5t-42.5 133.5q0 42 11 95q25 121 94 189.5t164 68.5q93 0 136 -61l56 266h245zM439 260q10 55 10 66q0 47 -41 47q-15 0 -27 -6.5t-19.5 -16t-14.5 -27.5t-11 -33t-9 -40q-10 -50 -10 -72q0 -50 42 -50
q20 0 34 10t22.5 31t12.5 36.5t9 43.5zM1076 722l-170 -182h-136l81 182h225z" />
    <glyph glyph-name="Dcroat" unicode="&#x110;" horiz-adv-x="796" 
d="M639 56q-104 -56 -239 -56h-351l65 306h-56l25 122h57l62 294h324q59 0 105 -6t91 -23t74.5 -45t48 -75t18.5 -110q0 -123 -60.5 -237.5t-163.5 -169.5zM478 306h-82l-30 -140h22q35 0 62 12.5t43 29t29.5 47.5t19.5 53.5t14 61.5q13 63 13 98q0 43 -21 66.5t-73 23.5
h-25l-28 -130h81z" />
    <glyph glyph-name="dcroat" unicode="&#x111;" horiz-adv-x="666" 
d="M789 532h-52l-112 -532h-228l4 58q-70 -74 -164 -74q-80 0 -122.5 46.5t-42.5 133.5q0 58 16.5 116t47.5 108.5t83.5 82t117.5 31.5q93 0 136 -61l19 91h-112l29 138h113l11 52h245l-11 -52h51zM359 128q19 0 32 8.5t21.5 26t12.5 33.5t9 41l2 11q10 55 10 63
q0 47 -41 47q-35 0 -50.5 -26.5t-27.5 -81.5q-10 -50 -10 -72q0 -50 42 -50z" />
    <glyph glyph-name="Emacron" unicode="&#x112;" 
d="M753 722l-39 -188h-274l-17 -78h253l-40 -187h-253l-17 -81h283l-40 -188h-558l153 722h549zM271 801l25 118h428l-25 -118h-428z" />
    <glyph glyph-name="emacron" unicode="&#x113;" 
d="M455 315q5 23 5 38q0 45 -51 45q-38 0 -57 -21.5t-27 -61.5h130zM649 208h-347v-1q-8 -36 -8 -51q0 -50 54 -50q55 0 75 58h210q-5 -22 -25 -51t-41 -48q-46 -43 -103.5 -62t-144.5 -19q-118 0 -183 49.5t-65 147.5q0 158 99.5 248.5t261.5 90.5q117 0 175 -51t58 -147
q0 -38 -16 -114zM230 581l25 118h428l-25 -118h-428z" />
    <glyph glyph-name="Ebreve" unicode="&#x114;" 
d="M753 722l-39 -188h-274l-17 -78h253l-40 -187h-253l-17 -81h283l-40 -188h-558l153 722h549zM318 942h148q-5 -29 6 -43.5t30 -14.5t36.5 14.5t25.5 43.5h148q-29 -90 -91.5 -133t-143.5 -43q-80 0 -124 43t-35 133z" />
    <glyph glyph-name="ebreve" unicode="&#x115;" 
d="M455 315q5 23 5 38q0 45 -51 45q-38 0 -57 -21.5t-27 -61.5h130zM649 208h-347v-1q-8 -36 -8 -51q0 -50 54 -50q55 0 75 58h210q-5 -22 -25 -51t-41 -48q-46 -43 -103.5 -62t-144.5 -19q-118 0 -183 49.5t-65 147.5q0 158 99.5 248.5t261.5 90.5q117 0 175 -51t58 -147
q0 -38 -16 -114zM277 722h148q-5 -29 6.5 -43.5t30.5 -14.5t36 14.5t25 43.5h148q-29 -90 -91.5 -133t-142.5 -43q-81 0 -125 43t-35 133z" />
    <glyph glyph-name="Edotaccent" unicode="&#x116;" 
d="M753 722l-39 -188h-274l-17 -78h253l-40 -187h-253l-17 -81h283l-40 -188h-558l153 722h549zM397 772l36 170h164l-36 -170h-164z" />
    <glyph glyph-name="edotaccent" unicode="&#x117;" 
d="M455 315q5 23 5 38q0 45 -51 45q-38 0 -57 -21.5t-27 -61.5h130zM649 208h-347v-1q-8 -36 -8 -51q0 -50 54 -50q55 0 75 58h210q-5 -22 -25 -51t-41 -48q-46 -43 -103.5 -62t-144.5 -19q-118 0 -183 49.5t-65 147.5q0 158 99.5 248.5t261.5 90.5q117 0 175 -51t58 -147
q0 -38 -16 -114zM356 552l36 170h164l-36 -170h-164z" />
    <glyph glyph-name="Eogonek" unicode="&#x118;" 
d="M489 0h-438l153 722h549l-39 -188h-274l-17 -78h253l-40 -187h-253l-17 -81h283l-40 -188h-20q-124 -64 -135 -114q-8 -44 44 -44q33 0 62 11l3 -68q-60 -17 -125 -17q-69 0 -96.5 21t-17.5 67q10 47 56 84.5t109 59.5z" />
    <glyph glyph-name="eogonek" unicode="&#x119;" 
d="M649 208h-347v-1q-8 -36 -8 -51q0 -50 54 -50q55 0 75 58h210q-5 -22 -25 -51t-41 -48q-57 -52 -130 -69q-117 -62 -127 -110q-8 -44 44 -44q33 0 62 11l3 -68q-60 -17 -125 -17q-69 0 -96.5 21t-17.5 67q15 75 126 128q-112 3 -173.5 52.5t-61.5 144.5q0 158 99.5 248.5
t261.5 90.5q117 0 175 -51t58 -147q0 -38 -16 -114zM455 315q5 23 5 38q0 45 -51 45q-38 0 -57 -21.5t-27 -61.5h130z" />
    <glyph glyph-name="Ecaron" unicode="&#x11a;" 
d="M753 722l-39 -188h-274l-17 -78h253l-40 -187h-253l-17 -81h283l-40 -188h-558l153 722h549zM367 772l-78 170h182l28 -76l60 76h182l-150 -170h-224z" />
    <glyph glyph-name="ecaron" unicode="&#x11b;" 
d="M455 315q5 23 5 38q0 45 -51 45q-38 0 -57 -21.5t-27 -61.5h130zM649 208h-347v-1q-8 -36 -8 -51q0 -50 54 -50q55 0 75 58h210q-5 -22 -25 -51t-41 -48q-46 -43 -103.5 -62t-144.5 -19q-118 0 -183 49.5t-65 147.5q0 158 99.5 248.5t261.5 90.5q117 0 175 -51t58 -147
q0 -38 -16 -114zM326 552l-78 170h182l28 -76l60 76h182l-150 -170h-224z" />
    <glyph glyph-name="Gcircumflex" unicode="&#x11c;" horiz-adv-x="814" 
d="M864 494v-1h-266q0 2 0.5 6.5t0.5 5.5q0 47 -59 47q-29 0 -51 -11t-36.5 -27.5t-27 -47.5t-19.5 -58t-17 -73q-13 -65 -13 -95q0 -79 78 -79q43 0 81 15l20 90h-98l30 144h373l-81 -382q-191 -49 -367 -49q-155 0 -238 68.5t-83 201.5q0 51 12 109q39 186 161.5 282.5
t307.5 96.5q299 0 299 -179q0 -32 -7 -64zM631 772l-28 76l-60 -76h-182l150 170h224l78 -170h-182z" />
    <glyph glyph-name="gcircumflex" unicode="&#x11d;" horiz-adv-x="666" 
d="M444 262q9 41 9 63q0 47 -40 47q-21 0 -35.5 -10.5t-24.5 -34.5t-14.5 -40t-11.5 -50q-7 -37 -7 -50q0 -42 40 -42q18 0 31 7t21 15t14.5 27.5t9.5 30.5t8 37zM731 500l-92 -434q-13 -63 -23.5 -91t-33.5 -62q-78 -117 -309 -117q-233 0 -233 140q0 16 3 32h236
q0 -2 -0.5 -5t-0.5 -4q0 -32 43 -32q34 0 52 21t30 75l11 51q-59 -65 -166 -65q-88 0 -132 45.5t-44 124.5q0 35 9 74q23 112 94 186t179 74q100 0 132 -66l19 53h226zM526 552l-28 76l-60 -76h-182l150 170h224l78 -170h-182z" />
    <glyph glyph-name="Gbreve" unicode="&#x11e;" horiz-adv-x="814" 
d="M864 494v-1h-266q0 2 0.5 6.5t0.5 5.5q0 47 -59 47q-29 0 -51 -11t-36.5 -27.5t-27 -47.5t-19.5 -58t-17 -73q-13 -65 -13 -95q0 -79 78 -79q43 0 81 15l20 90h-98l30 144h373l-81 -382q-191 -49 -367 -49q-155 0 -238 68.5t-83 201.5q0 51 12 109q39 186 161.5 282.5
t307.5 96.5q299 0 299 -179q0 -32 -7 -64zM426 942h148q-5 -29 6 -43.5t30 -14.5t36.5 14.5t25.5 43.5h148q-29 -90 -91.5 -133t-143.5 -43q-80 0 -124 43t-35 133z" />
    <glyph glyph-name="gbreve" unicode="&#x11f;" horiz-adv-x="666" 
d="M444 262q9 41 9 63q0 47 -40 47q-21 0 -35.5 -10.5t-24.5 -34.5t-14.5 -40t-11.5 -50q-7 -37 -7 -50q0 -42 40 -42q18 0 31 7t21 15t14.5 27.5t9.5 30.5t8 37zM731 500l-92 -434q-13 -63 -23.5 -91t-33.5 -62q-78 -117 -309 -117q-233 0 -233 140q0 16 3 32h236
q0 -2 -0.5 -5t-0.5 -4q0 -32 43 -32q34 0 52 21t30 75l11 51q-59 -65 -166 -65q-88 0 -132 45.5t-44 124.5q0 35 9 74q23 112 94 186t179 74q100 0 132 -66l19 53h226zM321 722h148q-5 -29 6.5 -43.5t30.5 -14.5t36 14.5t25 43.5h148q-29 -90 -91.5 -133t-142.5 -43
q-81 0 -125 43t-35 133z" />
    <glyph glyph-name="Gdotaccent" unicode="&#x120;" horiz-adv-x="814" 
d="M864 494v-1h-266q0 2 0.5 6.5t0.5 5.5q0 47 -59 47q-29 0 -51 -11t-36.5 -27.5t-27 -47.5t-19.5 -58t-17 -73q-13 -65 -13 -95q0 -79 78 -79q43 0 81 15l20 90h-98l30 144h373l-81 -382q-191 -49 -367 -49q-155 0 -238 68.5t-83 201.5q0 51 12 109q39 186 161.5 282.5
t307.5 96.5q299 0 299 -179q0 -32 -7 -64zM505 772l36 170h164l-36 -170h-164z" />
    <glyph glyph-name="gdotaccent" unicode="&#x121;" horiz-adv-x="666" 
d="M444 262q9 41 9 63q0 47 -40 47q-21 0 -35.5 -10.5t-24.5 -34.5t-14.5 -40t-11.5 -50q-7 -37 -7 -50q0 -42 40 -42q18 0 31 7t21 15t14.5 27.5t9.5 30.5t8 37zM731 500l-92 -434q-13 -63 -23.5 -91t-33.5 -62q-78 -117 -309 -117q-233 0 -233 140q0 16 3 32h236
q0 -2 -0.5 -5t-0.5 -4q0 -32 43 -32q34 0 52 21t30 75l11 51q-59 -65 -166 -65q-88 0 -132 45.5t-44 124.5q0 35 9 74q23 112 94 186t179 74q100 0 132 -66l19 53h226zM400 552l36 170h164l-36 -170h-164z" />
    <glyph glyph-name="Gcommaaccent" unicode="&#x122;" horiz-adv-x="814" 
d="M864 494v-1h-266q0 2 0.5 6.5t0.5 5.5q0 47 -59 47q-29 0 -51 -11t-36.5 -27.5t-27 -47.5t-19.5 -58t-17 -73q-13 -65 -13 -95q0 -79 78 -79q43 0 81 15l20 90h-98l30 144h373l-81 -382q-191 -49 -367 -49q-155 0 -238 68.5t-83 201.5q0 51 12 109q39 186 161.5 282.5
t307.5 96.5q299 0 299 -179q0 -32 -7 -64zM523 -50l-180 -182h-135l90 182h225z" />
    <glyph glyph-name="gcommaaccent" unicode="&#x123;" horiz-adv-x="666" 
d="M444 262q9 41 9 63q0 47 -40 47q-21 0 -35.5 -10.5t-24.5 -34.5t-14.5 -40t-11.5 -50q-7 -37 -7 -50q0 -42 40 -42q18 0 31 7t21 15t14.5 27.5t9.5 30.5t8 37zM731 500l-92 -434q-13 -63 -23.5 -91t-33.5 -62q-78 -117 -309 -117q-233 0 -233 140q0 16 3 32h236
q0 -2 -0.5 -5t-0.5 -4q0 -32 43 -32q34 0 52 21t30 75l11 51q-59 -65 -166 -65q-88 0 -132 45.5t-44 124.5q0 35 9 74q23 112 94 186t179 74q100 0 132 -66l19 53h226zM344 552l180 182h136l-91 -182h-225z" />
    <glyph glyph-name="Hcircumflex" unicode="&#x124;" horiz-adv-x="796" 
d="M897 722l-153 -722h-286l57 266h-120l-57 -266h-286l153 722h286l-52 -247h120l52 247h286zM603 772l-28 76l-60 -76h-182l150 170h224l78 -170h-182z" />
    <glyph glyph-name="hcircumflex" unicode="&#x125;" horiz-adv-x="648" 
d="M679 313l-67 -313h-242l65 307q3 12 3 22q0 37 -34 37q-44 0 -59 -67l-64 -299h-244l153 722h244l-61 -289q67 83 174 83q78 0 110 -32.5t32 -90.5q0 -33 -10 -80zM469 769l-28 76l-60 -76h-182l150 170h224l78 -170h-182z" />
    <glyph glyph-name="Hbar" unicode="&#x126;" horiz-adv-x="796" 
d="M744 0h-286l54 256h-120l-54 -256h-286l153 722h286l-14 -67h120l14 67h286zM430 435h120l13 61h-120z" />
    <glyph glyph-name="hbar" unicode="&#x127;" horiz-adv-x="648" 
d="M507 532h-114l-24 -115q67 83 174 83q78 0 110 -32.5t32 -90.5q0 -33 -10 -80l-63 -297h-242l61 291q3 12 3 22q0 37 -34 37q-44 0 -59 -67l-60 -283h-244l112 532h-51l29 138h52l11 52h244l-11 -52h113z" />
    <glyph glyph-name="Itilde" unicode="&#x128;" horiz-adv-x="388" 
d="M489 722l-153 -722h-285l153 722h285zM484 936h124q-33 -164 -173 -164q-27 0 -79 17t-64 17q-19 0 -25 -28h-124l4 19q14 64 56.5 104.5t100.5 40.5q32 0 87.5 -17t64.5 -17q21 0 28 28z" />
    <glyph glyph-name="itilde" unicode="&#x129;" horiz-adv-x="314" 
d="M36 0l106 500h242l-106 -500h-242zM401 716h124q-35 -164 -174 -164q-27 0 -79 17t-64 17q-19 0 -25 -28h-124l4 19q14 64 56.5 104.5t100.5 40.5q32 0 87.5 -17t64.5 -17q22 0 29 28z" />
    <glyph glyph-name="Imacron" unicode="&#x12a;" horiz-adv-x="388" 
d="M489 722l-153 -722h-285l153 722h285zM150 801l25 118h428l-25 -118h-428z" />
    <glyph glyph-name="imacron" unicode="&#x12b;" horiz-adv-x="314" 
d="M36 0l106 500h242l-106 -500h-242zM66 581l25 118h428l-25 -118h-428z" />
    <glyph glyph-name="Ibreve" unicode="&#x12c;" horiz-adv-x="388" 
d="M489 722l-153 -722h-285l153 722h285zM199 942h148q-5 -29 6 -43.5t30 -14.5t36.5 14.5t25.5 43.5h148q-29 -90 -91.5 -133t-143.5 -43q-80 0 -124 43t-35 133z" />
    <glyph glyph-name="ibreve" unicode="&#x12d;" horiz-adv-x="314" 
d="M36 0l106 500h242l-106 -500h-242zM115 722h148q-5 -29 6.5 -43.5t30.5 -14.5t36 14.5t25 43.5h148q-29 -90 -91.5 -133t-142.5 -43q-81 0 -125 43t-35 133z" />
    <glyph glyph-name="Iogonek" unicode="&#x12e;" horiz-adv-x="388" 
d="M196 0h-145l153 722h285l-153 -722h-40q-124 -64 -135 -114q-8 -44 44 -44q33 0 62 11l3 -68q-60 -17 -125 -17q-69 0 -96.5 21t-17.5 67q10 47 56 84.5t109 59.5z" />
    <glyph glyph-name="iogonek" unicode="&#x12f;" horiz-adv-x="314" 
d="M134 0h-96l106 500h238l-106 -500h-42q-124 -64 -135 -114q-8 -44 44 -44q33 0 62 11l3 -68q-60 -17 -125 -17q-69 0 -96.5 21t-17.5 67q10 47 56 84.5t109 59.5zM429 722l-32 -153h-238l32 153h238z" />
    <glyph glyph-name="Idotaccent" unicode="&#x130;" horiz-adv-x="388" 
d="M489 722l-153 -722h-285l153 722h285zM276 772l36 170h164l-36 -170h-164z" />
    <glyph glyph-name="dotlessi" unicode="&#x131;" horiz-adv-x="314" 
d="M36 0l106 500h242l-106 -500h-242z" />
    <glyph glyph-name="Jcircumflex" unicode="&#x134;" horiz-adv-x="666" 
d="M773 722l-96 -455q-22 -101 -58 -153q-43 -63 -125 -99t-187 -36q-124 0 -197 48.5t-73 132.5q0 26 12 78h242q-6 -15 -6 -32q0 -38 36 -38q31 0 45 22.5t22 58.5l100 473h285zM681 772l-28 76l-60 -76h-182l150 170h224l78 -170h-182z" />
    <glyph glyph-name="jcircumflex" unicode="&#x135;" horiz-adv-x="314" 
d="M38 10l104 492h242l-110 -518q-10 -48 -30 -81.5t-43.5 -52t-60.5 -28t-68.5 -12t-80.5 -2.5q-54 0 -78 8l27 124q18 -2 26 -2q30 0 46.5 15.5t25.5 56.5zM322 552l-28 76l-60 -76h-182l150 170h224l78 -170h-182z" />
    <glyph glyph-name="Kcommaaccent" unicode="&#x136;" horiz-adv-x="796" 
d="M937 722l-265 -340l139 -382h-309l-100 324l-69 -324h-280l153 722h280l-65 -310l216 310h300zM517 -50l-180 -182h-135l90 182h225z" />
    <glyph glyph-name="kcommaaccent" unicode="&#x137;" 
d="M433 -50l-180 -182h-135l90 182h225zM736 500l-184 -213l89 -287h-264l-46 262l-56 -262h-240l153 722h240l-88 -414l135 192h261z" />
    <glyph glyph-name="kgreenlandic" unicode="&#x138;" 
d="M36 0l106 500h242l-46 -216h2l136 216h262l-190 -237l94 -263h-262l-49 238h-2l-51 -238h-242z" />
    <glyph glyph-name="Lacute" unicode="&#x139;" horiz-adv-x="610" 
d="M641 194l-41 -194h-549l153 722h287l-112 -528h262zM239 772l134 170h232l-190 -170h-176z" />
    <glyph glyph-name="lacute" unicode="&#x13a;" horiz-adv-x="314" 
d="M429 722l-153 -722h-238l153 722h238zM219 772l134 170h232l-190 -170h-176z" />
    <glyph glyph-name="Lcommaaccent" unicode="&#x13b;" horiz-adv-x="610" 
d="M641 194l-41 -194h-549l153 722h287l-112 -528h262zM427 -50l-180 -182h-135l90 182h225z" />
    <glyph glyph-name="lcommaaccent" unicode="&#x13c;" horiz-adv-x="314" 
d="M429 722l-153 -722h-238l153 722h238zM260 -50l-180 -182h-135l90 182h225z" />
    <glyph glyph-name="Lcaron" unicode="&#x13d;" horiz-adv-x="610" 
d="M641 194l-41 -194h-549l153 722h287l-112 -528h262zM792 722l-170 -182h-136l81 182h225z" />
    <glyph glyph-name="lcaron" unicode="&#x13e;" horiz-adv-x="314" 
d="M429 722l-153 -722h-238l153 722h238zM731 722l-170 -182h-136l81 182h225z" />
    <glyph glyph-name="Ldot" unicode="&#x13f;" horiz-adv-x="610" 
d="M641 194l-41 -194h-549l153 722h287l-112 -528h262zM483 312l36 170h164l-36 -170h-164z" />
    <glyph glyph-name="ldot" unicode="&#x140;" horiz-adv-x="486" 
d="M429 722l-153 -722h-238l153 722h238zM389 312l36 170h164l-36 -170h-164z" />
    <glyph glyph-name="Lslash" unicode="&#x141;" horiz-adv-x="610" 
d="M51 0l37 177l-55 -28l30 142l55 28l86 403h287l-49 -230l165 88l-31 -145l-165 -87l-32 -154h262l-41 -194h-549z" />
    <glyph glyph-name="lslash" unicode="&#x142;" horiz-adv-x="350" 
d="M208 722h238l-41 -197l41 30l-31 -150l-42 -32l-80 -373h-238l35 166l-44 -31l32 149l45 32z" />
    <glyph glyph-name="Nacute" unicode="&#x143;" horiz-adv-x="832" 
d="M933 722l-153 -722h-342l-62 442l-94 -442h-231l153 722h349l57 -435l92 435h231zM482 772l134 170h232l-190 -170h-176z" />
    <glyph glyph-name="nacute" unicode="&#x144;" horiz-adv-x="648" 
d="M676 303l-64 -303h-242l65 307q3 12 3 22q0 37 -34 37q-45 0 -59 -63l-64 -303h-244l106 500h233l-10 -74q70 90 181 90q65 0 104 -29t39 -92q0 -30 -14 -92zM325 552l134 170h232l-190 -170h-176z" />
    <glyph glyph-name="Ncommaaccent" unicode="&#x145;" horiz-adv-x="832" 
d="M933 722l-153 -722h-342l-62 442l-94 -442h-231l153 722h349l57 -435l92 435h231zM516 -50l-180 -182h-135l90 182h225z" />
    <glyph glyph-name="ncommaaccent" unicode="&#x146;" horiz-adv-x="648" 
d="M676 303l-64 -303h-242l65 307q3 12 3 22q0 37 -34 37q-45 0 -59 -63l-64 -303h-244l106 500h233l-10 -74q70 90 181 90q65 0 104 -29t39 -92q0 -30 -14 -92zM447 -50l-180 -182h-135l90 182h225z" />
    <glyph glyph-name="Ncaron" unicode="&#x147;" horiz-adv-x="832" 
d="M933 722l-153 -722h-342l-62 442l-94 -442h-231l153 722h349l57 -435l92 435h231zM469 772l-78 170h182l28 -76l60 76h182l-150 -170h-224z" />
    <glyph glyph-name="ncaron" unicode="&#x148;" horiz-adv-x="648" 
d="M676 303l-64 -303h-242l65 307q3 12 3 22q0 37 -34 37q-45 0 -59 -63l-64 -303h-244l106 500h233l-10 -74q70 90 181 90q65 0 104 -29t39 -92q0 -30 -14 -92zM330 552l-78 170h182l28 -76l60 76h182l-150 -170h-224z" />
    <glyph glyph-name="Eng" unicode="&#x14a;" horiz-adv-x="832" 
d="M51 0l153 722h343l60 -437h2l93 437h232l-157 -738q-10 -48 -29 -81.5t-41 -52t-57.5 -28t-66.5 -12t-80 -2.5q-54 0 -78 8l25 114q16 -2 26 -2q58 0 78 72h-116l-60 440h-2l-93 -440h-232z" />
    <glyph glyph-name="eng" unicode="&#x14b;" horiz-adv-x="648" 
d="M372 10l64 301q11 58 -32 58q-47 0 -60 -56l-66 -313h-242l106 502h236l-10 -76h2q71 91 177 91q81 0 118.5 -44t16.5 -139l-74 -350q-10 -48 -30 -81.5t-43.5 -52t-60.5 -28t-68.5 -12t-81.5 -2.5q-54 0 -78 8l27 124q18 -2 26 -2q31 0 47.5 15.5t25.5 56.5z" />
    <glyph glyph-name="Omacron" unicode="&#x14c;" horiz-adv-x="796" 
d="M554 377q16 78 16 110q0 64 -53 64q-46 0 -73 -46.5t-49 -151.5q-15 -72 -15 -110q0 -73 51 -73q45 0 71.5 44.5t51.5 162.5zM848 361q-39 -179 -155.5 -280.5t-289.5 -101.5q-147 0 -230.5 72t-83.5 201q0 48 12 104q39 185 155.5 285t297.5 100q145 0 226 -70t81 -198
q0 -47 -13 -112zM355 801l25 118h428l-25 -118h-428z" />
    <glyph glyph-name="omacron" unicode="&#x14d;" horiz-adv-x="666" 
d="M444 259q10 46 10 76q0 52 -38 52q-32 0 -50.5 -32t-31.5 -96q-15 -67 -15 -96q0 -46 38 -46q25 0 43 22t26 48t18 72zM694 252q-57 -268 -369 -268q-115 0 -184.5 52t-69.5 150q0 33 7 65q28 134 121.5 202t228.5 68q124 0 198.5 -50t74.5 -152q0 -33 -7 -67zM242 581
l25 118h428l-25 -118h-428z" />
    <glyph glyph-name="Obreve" unicode="&#x14e;" horiz-adv-x="796" 
d="M554 377q16 78 16 110q0 64 -53 64q-46 0 -73 -46.5t-49 -151.5q-15 -72 -15 -110q0 -73 51 -73q45 0 71.5 44.5t51.5 162.5zM848 361q-39 -179 -155.5 -280.5t-289.5 -101.5q-147 0 -230.5 72t-83.5 201q0 48 12 104q39 185 155.5 285t297.5 100q145 0 226 -70t81 -198
q0 -47 -13 -112zM402 942h148q-5 -29 6 -43.5t30 -14.5t36.5 14.5t25.5 43.5h148q-29 -90 -91.5 -133t-143.5 -43q-80 0 -124 43t-35 133z" />
    <glyph glyph-name="obreve" unicode="&#x14f;" horiz-adv-x="666" 
d="M444 259q10 46 10 76q0 52 -38 52q-32 0 -50.5 -32t-31.5 -96q-15 -67 -15 -96q0 -46 38 -46q25 0 43 22t26 48t18 72zM694 252q-57 -268 -369 -268q-115 0 -184.5 52t-69.5 150q0 33 7 65q28 134 121.5 202t228.5 68q124 0 198.5 -50t74.5 -152q0 -33 -7 -67zM289 722
h148q-5 -29 6.5 -43.5t30.5 -14.5t36 14.5t25 43.5h148q-29 -90 -91.5 -133t-142.5 -43q-81 0 -125 43t-35 133z" />
    <glyph glyph-name="Ohungarumlaut" unicode="&#x150;" horiz-adv-x="796" 
d="M554 377q16 78 16 110q0 64 -53 64q-46 0 -73 -46.5t-49 -151.5q-15 -72 -15 -110q0 -73 51 -73q45 0 71.5 44.5t51.5 162.5zM848 361q-39 -179 -155.5 -280.5t-289.5 -101.5q-147 0 -230.5 72t-83.5 201q0 48 12 104q39 185 155.5 285t297.5 100q145 0 226 -70t81 -198
q0 -47 -13 -112zM346 772l133 170h232l-190 -170h-175zM635 772l134 170h232l-190 -170h-176z" />
    <glyph glyph-name="ohungarumlaut" unicode="&#x151;" horiz-adv-x="666" 
d="M444 259q10 46 10 76q0 52 -38 52q-32 0 -50.5 -32t-31.5 -96q-15 -67 -15 -96q0 -46 38 -46q25 0 43 22t26 48t18 72zM694 252q-57 -268 -369 -268q-115 0 -184.5 52t-69.5 150q0 33 7 65q28 134 121.5 202t228.5 68q124 0 198.5 -50t74.5 -152q0 -33 -7 -67zM211 552
l133 170h232l-190 -170h-175zM500 552l134 170h232l-190 -170h-176z" />
    <glyph glyph-name="OE" unicode="&#x152;" horiz-adv-x="962" 
d="M1090 722l-40 -190h-224l-17 -78h201l-39 -183h-201l-18 -83h224l-39 -188h-419q-22 0 -87 -2.5t-79 -2.5q-125 0 -190 76t-65 202q0 58 13 119q71 333 428 333q1 0 26 -0.5t63 -1.5t70 -1h393zM557 543q-25 13 -48 13q-50 0 -77.5 -37.5t-51.5 -152.5q-16 -73 -16 -118
t16.5 -63t51.5 -18q25 0 48 12z" />
    <glyph glyph-name="oe" unicode="&#x153;" horiz-adv-x="944" 
d="M298 -19q-107 0 -167.5 60.5t-60.5 157.5q0 150 93.5 236t244.5 86q105 0 162 -56q78 56 184 56q111 0 170.5 -57t59.5 -151q0 -51 -18 -107h-346q-8 -39 -8 -49q0 -55 53 -55q66 0 75 60h210q-47 -181 -293 -181q-61 0 -98.5 14t-68.5 49q-72 -63 -192 -63zM345 118
q33 0 51 29t35 110q10 46 10 77q0 53 -41 53q-35 0 -54.5 -32t-34.5 -105q-9 -42 -9 -71q0 -61 43 -61zM645 313h128q5 25 5 35q0 49 -51 49q-64 0 -80 -76z" />
    <glyph glyph-name="Racute" unicode="&#x154;" horiz-adv-x="758" 
d="M558 509q0 51 -92 51h-18l-30 -140h21q119 0 119 89zM659 366q60 -10 81 -32t21 -71q0 -23 -3 -51l-6 -68q-5 -70 -5 -87q0 -30 3 -57h-280v19q0 52 2 86l2 33q4 70 4 71q0 33 -15.5 42t-52.5 9h-24l-55 -260h-282l153 722h429q40 0 74 -6.5t66.5 -22t51.5 -46t19 -73.5
q0 -87 -46 -134t-137 -74zM413 772l134 170h232l-190 -170h-176z" />
    <glyph glyph-name="racute" unicode="&#x155;" horiz-adv-x="444" 
d="M547 493l-40 -187q-63 13 -88 13q-36 0 -56.5 -17.5t-28.5 -57.5l-52 -244h-245l106 500h233l-6 -53q18 25 51.5 42.5t64.5 17.5t61 -14zM192 552l134 170h232l-190 -170h-176z" />
    <glyph glyph-name="Rcommaaccent" unicode="&#x156;" horiz-adv-x="758" 
d="M558 509q0 51 -92 51h-18l-30 -140h21q119 0 119 89zM659 366q60 -10 81 -32t21 -71q0 -23 -3 -51l-6 -68q-5 -70 -5 -87q0 -30 3 -57h-280v19q0 52 2 86l2 33q4 70 4 71q0 33 -15.5 42t-52.5 9h-24l-55 -260h-282l153 722h429q40 0 74 -6.5t66.5 -22t51.5 -46t19 -73.5
q0 -87 -46 -134t-137 -74zM507 -50l-180 -182h-135l90 182h225z" />
    <glyph glyph-name="rcommaaccent" unicode="&#x157;" horiz-adv-x="444" 
d="M547 493l-40 -187q-63 13 -88 13q-36 0 -56.5 -17.5t-28.5 -57.5l-52 -244h-245l106 500h233l-6 -53q18 25 51.5 42.5t64.5 17.5t61 -14zM263 -56l-180 -182h-135l90 182h225z" />
    <glyph glyph-name="Rcaron" unicode="&#x158;" horiz-adv-x="758" 
d="M558 509q0 51 -92 51h-18l-30 -140h21q119 0 119 89zM659 366q60 -10 81 -32t21 -71q0 -23 -3 -51l-6 -68q-5 -70 -5 -87q0 -30 3 -57h-280v19q0 52 2 86l2 33q4 70 4 71q0 33 -15.5 42t-52.5 9h-24l-55 -260h-282l153 722h429q40 0 74 -6.5t66.5 -22t51.5 -46t19 -73.5
q0 -87 -46 -134t-137 -74zM413 772l-78 170h182l28 -76l60 76h182l-150 -170h-224z" />
    <glyph glyph-name="rcaron" unicode="&#x159;" horiz-adv-x="444" 
d="M547 493l-40 -187q-63 13 -88 13q-36 0 -56.5 -17.5t-28.5 -57.5l-52 -244h-245l106 500h233l-6 -53q18 25 51.5 42.5t64.5 17.5t61 -14zM200 552l-78 170h182l28 -76l60 76h182l-150 -170h-224z" />
    <glyph glyph-name="Sacute" unicode="&#x15a;" horiz-adv-x="722" 
d="M791 520l-1 -1h-255q2 8 2 22q0 22 -12 31.5t-40 9.5q-29 0 -52.5 -14.5t-23.5 -41.5q0 -11 5.5 -18.5t20 -14t25 -9.5t34.5 -9t35 -9l85 -24q71 -21 107 -68t36 -112q0 -76 -33.5 -133t-91 -88.5t-123 -46.5t-139.5 -15q-61 0 -113 9t-97.5 29.5t-72 58t-26.5 89.5
q0 25 7 60h272q-5 -18 -5 -34q0 -49 60 -49q31 0 57.5 20.5t26.5 50.5q0 7 -2.5 13t-8.5 11t-11.5 8.5t-15.5 7t-16.5 5.5l-18.5 5.5t-18 5.5q-68 22 -85 27q-169 51 -169 177q0 62 22.5 109.5t59 77t87.5 48.5t102.5 26t109.5 7q55 0 101.5 -7.5t89 -25.5t66.5 -52.5
t24 -83.5q0 -28 -5 -52zM410 772l134 170h232l-190 -170h-176z" />
    <glyph glyph-name="sacute" unicode="&#x15b;" horiz-adv-x="592" 
d="M628 350h-208q4 16 4 24q0 33 -42 33q-25 0 -42 -12t-17 -36q0 -16 15 -21.5t63 -13.5q7 -1 10 -2l47 -8q62 -11 105.5 -43t43.5 -90q0 -50 -18.5 -87t-47.5 -58t-71.5 -34t-81.5 -17t-86 -4q-250 0 -250 142q0 20 4 39h221q-3 -15 -3 -26q0 -42 44 -42q26 0 43.5 14
t17.5 39q0 20 -22 28.5t-74 15.5l-23 3q-81 11 -120.5 45.5t-39.5 85.5q0 194 297 194q114 0 174.5 -34t60.5 -100q0 -19 -4 -35zM293 552l134 170h232l-190 -170h-176z" />
    <glyph glyph-name="Scircumflex" unicode="&#x15c;" horiz-adv-x="722" 
d="M791 520l-1 -1h-255q2 8 2 22q0 22 -12 31.5t-40 9.5q-29 0 -52.5 -14.5t-23.5 -41.5q0 -11 5.5 -18.5t20 -14t25 -9.5t34.5 -9t35 -9l85 -24q71 -21 107 -68t36 -112q0 -76 -33.5 -133t-91 -88.5t-123 -46.5t-139.5 -15q-61 0 -113 9t-97.5 29.5t-72 58t-26.5 89.5
q0 25 7 60h272q-5 -18 -5 -34q0 -49 60 -49q31 0 57.5 20.5t26.5 50.5q0 7 -2.5 13t-8.5 11t-11.5 8.5t-15.5 7t-16.5 5.5l-18.5 5.5t-18 5.5q-68 22 -85 27q-169 51 -169 177q0 62 22.5 109.5t59 77t87.5 48.5t102.5 26t109.5 7q55 0 101.5 -7.5t89 -25.5t66.5 -52.5
t24 -83.5q0 -28 -5 -52zM567 772l-28 76l-60 -76h-182l150 170h224l78 -170h-182z" />
    <glyph glyph-name="scircumflex" unicode="&#x15d;" horiz-adv-x="592" 
d="M628 350h-208q4 16 4 24q0 33 -42 33q-25 0 -42 -12t-17 -36q0 -16 15 -21.5t63 -13.5q7 -1 10 -2l47 -8q62 -11 105.5 -43t43.5 -90q0 -50 -18.5 -87t-47.5 -58t-71.5 -34t-81.5 -17t-86 -4q-250 0 -250 142q0 20 4 39h221q-3 -15 -3 -26q0 -42 44 -42q26 0 43.5 14
t17.5 39q0 20 -22 28.5t-74 15.5l-23 3q-81 11 -120.5 45.5t-39.5 85.5q0 194 297 194q114 0 174.5 -34t60.5 -100q0 -19 -4 -35zM456 552l-28 76l-60 -76h-182l150 170h224l78 -170h-182z" />
    <glyph glyph-name="Scedilla" unicode="&#x15e;" horiz-adv-x="722" 
d="M257 -92l56 73q-71 5 -124.5 23.5t-90.5 59.5t-37 101q0 25 7 60h272q-5 -18 -5 -34q0 -49 60 -49q31 0 57.5 20.5t26.5 50.5q0 7 -2.5 13t-8.5 11t-11.5 8.5t-15.5 7t-16.5 5.5l-18.5 5.5t-18 5.5l-85 27q-169 51 -169 177q0 62 22.5 109.5t59 77t87.5 48.5t102.5 26
t109.5 7q55 0 101.5 -7.5t89 -25.5t66.5 -52.5t24 -83.5q0 -28 -5 -52l-1 -1h-255q2 8 2 22q0 22 -12 31.5t-40 9.5q-29 0 -52.5 -14.5t-23.5 -41.5q0 -11 5.5 -18.5t20 -14t25 -9.5t34.5 -9t35 -9l85 -24q71 -21 107 -68t36 -112q0 -73 -31 -128.5t-84 -87t-115 -48
t-133 -18.5l-28 -36h2q10 3 29 3q41 0 63.5 -23t13.5 -62q-10 -49 -57 -77.5t-112 -28.5q-81 0 -132 28l40 64q45 -24 83 -24q20 0 38 10t21 24q3 13 -7.5 20t-26.5 7q-13 0 -32 -7z" />
    <glyph glyph-name="scedilla" unicode="&#x15f;" horiz-adv-x="592" 
d="M189 -92l58 75q-195 15 -195 140q0 20 4 39h221q-3 -15 -3 -26q0 -42 44 -42q26 0 43.5 14t17.5 39q0 20 -22 28.5t-74 15.5l-23 3q-81 11 -120.5 45.5t-39.5 85.5q0 194 297 194q114 0 174.5 -34t60.5 -100q0 -19 -4 -35h-208q4 16 4 24q0 33 -42 33q-25 0 -42 -12
t-17 -36q0 -16 15 -21.5t63 -13.5q7 -1 10 -2l47 -8q62 -11 105.5 -43t43.5 -90q0 -192 -280 -200l-29 -37h2q11 3 29 3q41 0 63.5 -23t13.5 -62q-10 -49 -57 -77.5t-112 -28.5q-81 0 -132 28l40 64q45 -24 83 -24q20 0 38 10t21 24q3 13 -7.5 20t-26.5 7q-13 0 -32 -7z" />
    <glyph glyph-name="Scaron" unicode="&#x160;" horiz-adv-x="722" 
d="M791 520l-1 -1h-255q2 8 2 22q0 22 -12 31.5t-40 9.5q-29 0 -52.5 -14.5t-23.5 -41.5q0 -11 5.5 -18.5t20 -14t25 -9.5t34.5 -9t35 -9l85 -24q71 -21 107 -68t36 -112q0 -76 -33.5 -133t-91 -88.5t-123 -46.5t-139.5 -15q-61 0 -113 9t-97.5 29.5t-72 58t-26.5 89.5
q0 25 7 60h272q-5 -18 -5 -34q0 -49 60 -49q31 0 57.5 20.5t26.5 50.5q0 7 -2.5 13t-8.5 11t-11.5 8.5t-15.5 7t-16.5 5.5l-18.5 5.5t-18 5.5q-68 22 -85 27q-169 51 -169 177q0 62 22.5 109.5t59 77t87.5 48.5t102.5 26t109.5 7q55 0 101.5 -7.5t89 -25.5t66.5 -52.5
t24 -83.5q0 -28 -5 -52zM410 772l-78 170h182l28 -76l60 76h182l-150 -170h-224z" />
    <glyph glyph-name="scaron" unicode="&#x161;" horiz-adv-x="592" 
d="M628 350h-208q4 16 4 24q0 33 -42 33q-25 0 -42 -12t-17 -36q0 -16 15 -21.5t63 -13.5q7 -1 10 -2l47 -8q62 -11 105.5 -43t43.5 -90q0 -50 -18.5 -87t-47.5 -58t-71.5 -34t-81.5 -17t-86 -4q-250 0 -250 142q0 20 4 39h221q-3 -15 -3 -26q0 -42 44 -42q26 0 43.5 14
t17.5 39q0 20 -22 28.5t-74 15.5l-23 3q-81 11 -120.5 45.5t-39.5 85.5q0 194 297 194q114 0 174.5 -34t60.5 -100q0 -19 -4 -35zM300 552l-78 170h182l28 -76l60 76h182l-150 -170h-224z" />
    <glyph glyph-name="Tcommaaccent" unicode="&#x162;" horiz-adv-x="648" 
d="M798 722l-41 -195h-178l-112 -527h-287l112 527h-177l41 195h642zM434 -50l-180 -182h-135l90 182h225z" />
    <glyph glyph-name="tcommaaccent" unicode="&#x163;" horiz-adv-x="426" 
d="M527 500l-31 -148h-113l-32 -148q-3 -12 -3 -29q0 -30 32 -30q28 0 65 8l-32 -148q-95 -21 -162 -21q-29 0 -54 4.5t-49.5 15t-38.5 31.5t-14 51q0 17 8 59l44 207h-67l31 148h66l18 83l255 84l-36 -167h113zM324 -50l-180 -182h-135l90 182h225z" />
    <glyph glyph-name="Tcaron" unicode="&#x164;" horiz-adv-x="648" 
d="M798 722l-41 -195h-178l-112 -527h-287l112 527h-177l41 195h642zM376 772l-78 170h182l28 -76l60 76h182l-150 -170h-224z" />
    <glyph glyph-name="tcaron" unicode="&#x165;" horiz-adv-x="426" 
d="M527 500l-31 -148h-113l-32 -148q-3 -12 -3 -29q0 -30 32 -30q28 0 65 8l-32 -148q-95 -21 -162 -21q-29 0 -54 4.5t-49.5 15t-38.5 31.5t-14 51q0 17 8 59l44 207h-67l31 148h66l18 83l255 84l-36 -167h113zM764 722l-170 -182h-136l81 182h225z" />
    <glyph glyph-name="Tbar" unicode="&#x166;" horiz-adv-x="648" 
d="M643 227h-128l-48 -227h-287l48 227h-127l37 175h127l27 125h-177l41 195h642l-41 -195h-178l-27 -125h128z" />
    <glyph glyph-name="tbar" unicode="&#x167;" horiz-adv-x="426" 
d="M76 335h67l8 37h-67l27 128h66l17 83l255 84l-35 -167h113l-27 -128h-113l-8 -37h113l-28 -128h-112l-1 -3q-4 -13 -4 -25q0 -34 32 -34q30 0 65 8l-31 -148q-96 -21 -163 -21q-74 0 -113.5 25.5t-39.5 86.5q0 26 5 49l13 62h-67z" />
    <glyph glyph-name="Utilde" unicode="&#x168;" horiz-adv-x="778" 
d="M886 722l-96 -452q-33 -155 -130 -223t-264 -68q-52 0 -102 9t-98 29t-77.5 60t-29.5 94q0 30 9 72l101 479h287l-98 -465q-4 -17 -4 -33q0 -48 45 -48q29 0 49.5 20t27.5 57l99 469h281zM679 936h124q-33 -164 -173 -164q-26 0 -79 17t-64 17q-19 0 -25 -28h-124l4 19
q14 64 56.5 104.5t100.5 40.5q32 0 87.5 -17t64.5 -17q21 0 28 28z" />
    <glyph glyph-name="utilde" unicode="&#x169;" horiz-adv-x="648" 
d="M717 500l-106 -500h-233l11 74q-72 -90 -181 -90q-65 0 -104 29t-39 92q0 34 13 92l64 303h242l-65 -307q-3 -12 -3 -22q0 -37 34 -37q45 0 59 64l64 302h244zM568 716h124q-35 -164 -174 -164q-26 0 -79 17t-64 17q-19 0 -25 -28h-124l4 19q14 64 56.5 104.5t100.5 40.5
q32 0 87.5 -17t64.5 -17q22 0 29 28z" />
    <glyph glyph-name="Umacron" unicode="&#x16a;" horiz-adv-x="778" 
d="M886 722l-96 -452q-33 -155 -130 -223t-264 -68q-52 0 -102 9t-98 29t-77.5 60t-29.5 94q0 30 9 72l101 479h287l-98 -465q-4 -17 -4 -33q0 -48 45 -48q29 0 49.5 20t27.5 57l99 469h281zM345 801l25 118h428l-25 -118h-428z" />
    <glyph glyph-name="umacron" unicode="&#x16b;" horiz-adv-x="648" 
d="M717 500l-106 -500h-233l11 74q-72 -90 -181 -90q-65 0 -104 29t-39 92q0 34 13 92l64 303h242l-65 -307q-3 -12 -3 -22q0 -37 34 -37q45 0 59 64l64 302h244zM233 581l25 118h428l-25 -118h-428z" />
    <glyph glyph-name="Ubreve" unicode="&#x16c;" horiz-adv-x="778" 
d="M886 722l-96 -452q-33 -155 -130 -223t-264 -68q-52 0 -102 9t-98 29t-77.5 60t-29.5 94q0 30 9 72l101 479h287l-98 -465q-4 -17 -4 -33q0 -48 45 -48q29 0 49.5 20t27.5 57l99 469h281zM392 942h148q-5 -29 6 -43.5t30 -14.5t36.5 14.5t25.5 43.5h148
q-29 -90 -91.5 -133t-143.5 -43q-80 0 -124 43t-35 133z" />
    <glyph glyph-name="ubreve" unicode="&#x16d;" horiz-adv-x="648" 
d="M717 500l-106 -500h-233l11 74q-72 -90 -181 -90q-65 0 -104 29t-39 92q0 34 13 92l64 303h242l-65 -307q-3 -12 -3 -22q0 -37 34 -37q45 0 59 64l64 302h244zM280 722h148q-5 -29 6.5 -43.5t30.5 -14.5t36 14.5t25 43.5h148q-29 -90 -91.5 -133t-142.5 -43
q-81 0 -125 43t-35 133z" />
    <glyph glyph-name="Uring" unicode="&#x16e;" horiz-adv-x="778" 
d="M886 722l-96 -452q-33 -155 -130 -223t-264 -68q-52 0 -102 9t-98 29t-77.5 60t-29.5 94q0 30 9 72l101 479h287l-98 -465q-4 -17 -4 -33q0 -48 45 -48q29 0 49.5 20t27.5 57l99 469h281zM446 886q11 54 58 92.5t101 38.5t84 -38.5t19 -92.5t-58 -92.5t-101 -38.5
t-84 38.5t-19 92.5zM534 886q-4 -18 6 -30.5t28 -12.5t33 12.5t19 30.5t-6 30.5t-28 12.5t-33 -12.5t-19 -30.5z" />
    <glyph glyph-name="uring" unicode="&#x16f;" horiz-adv-x="648" 
d="M717 500l-106 -500h-233l11 74q-72 -90 -181 -90q-65 0 -104 29t-39 92q0 34 13 92l64 303h242l-65 -307q-3 -12 -3 -22q0 -37 34 -37q45 0 59 64l64 302h244zM337 681q12 54 58.5 92.5t100.5 38.5t84.5 -38.5t18.5 -92.5q-11 -54 -58 -92.5t-101 -38.5t-84 38.5
t-19 92.5zM425 681q-4 -18 6 -30.5t28 -12.5t33 12.5t19 30.5t-6 30.5t-28 12.5t-33 -12.5t-19 -30.5z" />
    <glyph glyph-name="Uhungarumlaut" unicode="&#x170;" horiz-adv-x="778" 
d="M886 722l-96 -452q-33 -155 -130 -223t-264 -68q-52 0 -102 9t-98 29t-77.5 60t-29.5 94q0 30 9 72l101 479h287l-98 -465q-4 -17 -4 -33q0 -48 45 -48q29 0 49.5 20t27.5 57l99 469h281zM338 772l133 170h232l-190 -170h-175zM627 772l134 170h232l-190 -170h-176z" />
    <glyph glyph-name="uhungarumlaut" unicode="&#x171;" horiz-adv-x="648" 
d="M717 500l-106 -500h-233l11 74q-72 -90 -181 -90q-65 0 -104 29t-39 92q0 34 13 92l64 303h242l-65 -307q-3 -12 -3 -22q0 -37 34 -37q45 0 59 64l64 302h244zM209 552l133 170h232l-190 -170h-175zM498 552l134 170h232l-190 -170h-176z" />
    <glyph glyph-name="Uogonek" unicode="&#x172;" horiz-adv-x="778" 
d="M886 722l-96 -452q-29 -137 -108 -205.5t-211 -81.5q-93 -52 -103 -97q-8 -44 44 -44q33 0 62 11l3 -68q-60 -17 -125 -17q-69 0 -96.5 21t-17.5 67q15 73 118 124q-50 3 -93.5 14t-84.5 32t-65 58.5t-24 86.5q0 30 9 72l101 479h287l-98 -465q-4 -17 -4 -33
q0 -48 45 -48q29 0 49.5 20t27.5 57l99 469h281z" />
    <glyph glyph-name="uogonek" unicode="&#x173;" horiz-adv-x="648" 
d="M481 0h-103l11 74q-72 -90 -181 -90q-65 0 -104 29t-39 92q0 34 13 92l64 303h242l-65 -307q-3 -12 -3 -22q0 -37 34 -37q45 0 59 64l64 302h244l-106 -500h-30q-124 -64 -135 -114q-8 -44 44 -44q33 0 62 11l3 -68q-60 -17 -125 -17q-69 0 -96.5 21t-17.5 67
q10 47 56 84.5t109 59.5z" />
    <glyph glyph-name="Wcircumflex" unicode="&#x174;" horiz-adv-x="1036" 
d="M1204 722l-306 -722h-309l27 468l-164 -468h-313v722h252l-34 -455l164 455h298l-29 -455l160 455h254zM727 772l-28 76l-60 -76h-182l150 170h224l78 -170h-182z" />
    <glyph glyph-name="wcircumflex" unicode="&#x175;" horiz-adv-x="944" 
d="M1052 500l-232 -500h-294l4 319l-127 -319h-296l-3 500h231l-25 -326l131 326h265l-10 -326l122 326h234zM626 552l-28 76l-60 -76h-182l150 170h224l78 -170h-182z" />
    <glyph glyph-name="Ycircumflex" unicode="&#x176;" horiz-adv-x="740" 
d="M911 722l-345 -472l-53 -250h-285l53 250l-146 472h290l39 -303l165 303h282zM589 772l-28 76l-60 -76h-182l150 170h224l78 -170h-182z" />
    <glyph glyph-name="ycircumflex" unicode="&#x177;" 
d="M740 500l-385 -692h-261l104 177l-95 515h258l12 -274l126 274h241zM484 552l-28 76l-60 -76h-182l150 170h224l78 -170h-182z" />
    <glyph glyph-name="Ydieresis" unicode="&#x178;" horiz-adv-x="740" 
d="M911 722l-345 -472l-53 -250h-285l53 250l-146 472h290l39 -303l165 303h282zM342 772l36 170h164l-36 -170h-164zM582 772l36 170h164l-36 -170h-164z" />
    <glyph glyph-name="Zacute" unicode="&#x179;" horiz-adv-x="685" 
d="M808 722l-36 -173l-378 -361h308l-40 -188h-639l37 174l378 360h-292l39 188h623zM390 772l134 170h232l-190 -170h-176z" />
    <glyph glyph-name="zacute" unicode="&#x17a;" horiz-adv-x="536" 
d="M601 500l-33 -157l-198 -181h176l-34 -162h-487l30 139l217 201h-161l34 160h456zM283 552l134 170h232l-190 -170h-176z" />
    <glyph glyph-name="Zdotaccent" unicode="&#x17b;" horiz-adv-x="685" 
d="M808 722l-36 -173l-378 -361h308l-40 -188h-639l37 174l378 360h-292l39 188h623zM421 772l36 170h164l-36 -170h-164z" />
    <glyph glyph-name="zdotaccent" unicode="&#x17c;" horiz-adv-x="536" 
d="M601 500l-33 -157l-198 -181h176l-34 -162h-487l30 139l217 201h-161l34 160h456zM304 552l36 170h164l-36 -170h-164z" />
    <glyph glyph-name="Zcaron" unicode="&#x17d;" horiz-adv-x="685" 
d="M808 722l-36 -173l-378 -361h308l-40 -188h-639l37 174l378 360h-292l39 188h623zM390 772l-78 170h182l28 -76l60 76h182l-150 -170h-224z" />
    <glyph glyph-name="zcaron" unicode="&#x17e;" horiz-adv-x="536" 
d="M601 500l-33 -157l-198 -181h176l-34 -162h-487l30 139l217 201h-161l34 160h456zM274 552l-78 170h182l28 -76l60 76h182l-150 -170h-224z" />
    <glyph glyph-name="florin" unicode="&#x192;" horiz-adv-x="704" 
d="M162 267l35 164h135l55 144q34 90 92 128t148 38q86 0 145 -19l-58 -154q-21 9 -47 9q-36 0 -52 -41l-41 -105h105l-35 -164h-135l-118 -304q-65 -167 -250 -167q-70 0 -133 28l54 147q20 -11 45 -11q41 0 65 62l95 245h-105z" />
    <glyph glyph-name="Aringacute" unicode="&#x1fa;" horiz-adv-x="796" 
d="M424 735q11 54 58 92.5t101 38.5t84 -38.5t19 -92.5q-2 -8 -4 -13h54l79 -722h-296l-4 116h-207l-53 -116h-274l384 722h56zM511 898l124 119h208l-183 -119h-149zM389 292h122v272h-2zM512 735q-4 -18 6 -30.5t28 -12.5t33 12.5t19 30.5t-6 30.5t-28 12.5t-33 -12.5
t-19 -30.5z" />
    <glyph glyph-name="aringacute" unicode="&#x1fb;" horiz-adv-x="592" 
d="M399 313l11 52q8 40 -38 40q-24 0 -38 -11t-22 -41h-200q44 164 293 164q140 0 188.5 -43.5t29.5 -134.5l-72 -339h-212l4 48q-62 -63 -157 -63q-78 0 -117 40t-24 113q19 91 100 133t225 42h29zM370 177l9 42h-33q-78 0 -90 -58q-11 -52 45 -52q54 0 69 68zM312 681
q12 54 58.5 92.5t100.5 38.5t84.5 -38.5t18.5 -92.5q-11 -54 -58 -92.5t-101 -38.5t-84 38.5t-19 92.5zM400 681q-4 -18 6 -30.5t28 -12.5t33 12.5t19 30.5t-6 30.5t-28 12.5t-33 -12.5t-19 -30.5zM399 845l123 119h208l-182 -119h-149z" />
    <glyph glyph-name="AEacute" unicode="&#x1fc;" horiz-adv-x="1000" 
d="M1128 722l-40 -190h-255l-11 -81h229l-38 -180h-208l-9 -86h224l-39 -185h-468l12 116h-212l-66 -116h-269l458 722h692zM416 292h127l34 280zM559 772l134 170h232l-190 -170h-176z" />
    <glyph glyph-name="aeacute" unicode="&#x1fd;" horiz-adv-x="906" 
d="M699 163h208q-21 -91 -97.5 -135.5t-183.5 -44.5q-68 0 -120 18t-73 53q-43 -39 -90.5 -55t-118.5 -16q-87 0 -135 37.5t-48 100.5q0 43 19.5 82.5t55.5 62.5q32 21 82 32.5t89 13.5t102 2h8l7 27q5 20 5 32q0 36 -40 36q-50 0 -56 -56h-198q12 82 80.5 124.5t176.5 42.5
q126 0 174 -57q80 57 179 57q103 0 160.5 -54t57.5 -150q0 -58 -18 -109h-347q-6 -30 -6 -47q0 -56 52 -56q28 0 48.5 15.5t26.5 43.5zM733 314q5 20 5 32q0 53 -51 53q-31 0 -53 -21t-29 -58l-2 -6h130zM380 221q-10 1 -21 1q-41 0 -72 -16t-31 -54q0 -18 12 -28.5
t33 -10.5q31 0 48 20t27 66zM455 552l134 170h232l-190 -170h-176z" />
    <glyph glyph-name="Oslashacute" unicode="&#x1fe;" horiz-adv-x="796" 
d="M117 -100l-80 68l106 114q-53 69 -53 183q0 55 11 106q39 180 158 275t299 95q105 0 168 -34l92 102l76 -64l-90 -99q54 -69 54 -183q0 -51 -12 -110q-37 -176 -158 -275t-295 -99q-104 0 -170 39zM433 170q54 0 84.5 45t51.5 159l4 22l-192 -209q14 -17 52 -17zM377 335
l188 201q-17 15 -52 15q-49 0 -75 -38q-35 -49 -57 -152q-3 -15 -4 -26zM440 772l134 170h232l-190 -170h-176z" />
    <glyph glyph-name="oslashacute" unicode="&#x1ff;" horiz-adv-x="666" 
d="M105 -89l-59 57l79 82q-53 53 -53 142q0 151 97.5 240t249.5 89q94 0 154 -22l87 86l61 -54l-75 -76q53 -52 53 -141q0 -33 -8 -73q-27 -129 -116 -193t-250 -64q-75 0 -130 22zM316 239l143 144q-14 14 -40 14q-40 0 -62 -34.5t-41 -123.5zM355 116q38 0 61 30.5
t38 101.5l4 19l-138 -139q12 -12 35 -12zM337 552l134 170h232l-190 -170h-176z" />
    <glyph glyph-name="Scommaaccent" unicode="&#x218;" horiz-adv-x="722" 
d="M791 520l-1 -1h-255q2 8 2 22q0 22 -12 31.5t-40 9.5q-29 0 -52.5 -14.5t-23.5 -41.5q0 -11 5.5 -18.5t20 -14t25 -9.5t34.5 -9t35 -9l85 -24q71 -21 107 -68t36 -112q0 -76 -33.5 -133t-91 -88.5t-123 -46.5t-139.5 -15q-61 0 -113 9t-97.5 29.5t-72 58t-26.5 89.5
q0 25 7 60h272q-5 -18 -5 -34q0 -49 60 -49q31 0 57.5 20.5t26.5 50.5q0 7 -2.5 13t-8.5 11t-11.5 8.5t-15.5 7t-16.5 5.5l-18.5 5.5t-18 5.5q-68 22 -85 27q-169 51 -169 177q0 62 22.5 109.5t59 77t87.5 48.5t102.5 26t109.5 7q55 0 101.5 -7.5t89 -25.5t66.5 -52.5
t24 -83.5q0 -28 -5 -52zM496 -50l-180 -182h-135l90 182h225z" />
    <glyph glyph-name="scommaaccent" unicode="&#x219;" horiz-adv-x="592" 
d="M628 350h-208q4 16 4 24q0 33 -42 33q-25 0 -42 -12t-17 -36q0 -16 15 -21.5t63 -13.5q7 -1 10 -2l47 -8q62 -11 105.5 -43t43.5 -90q0 -50 -18.5 -87t-47.5 -58t-71.5 -34t-81.5 -17t-86 -4q-250 0 -250 142q0 20 4 39h221q-3 -15 -3 -26q0 -42 44 -42q26 0 43.5 14
t17.5 39q0 20 -22 28.5t-74 15.5l-23 3q-81 11 -120.5 45.5t-39.5 85.5q0 194 297 194q114 0 174.5 -34t60.5 -100q0 -19 -4 -35zM408 -50l-180 -182h-135l90 182h225z" />
    <glyph glyph-name="uni021A" unicode="&#x21a;" horiz-adv-x="648" 
d="M798 722l-41 -195h-178l-112 -527h-287l112 527h-177l41 195h642zM434 -50l-180 -182h-135l90 182h225z" />
    <glyph glyph-name="uni021B" unicode="&#x21b;" horiz-adv-x="426" 
d="M527 500l-31 -148h-113l-32 -148q-3 -12 -3 -29q0 -30 32 -30q28 0 65 8l-32 -148q-95 -21 -162 -21q-29 0 -54 4.5t-49.5 15t-38.5 31.5t-14 51q0 17 8 59l44 207h-67l31 148h66l18 83l255 84l-36 -167h113zM324 -50l-180 -182h-135l90 182h225z" />
    <glyph glyph-name="dotlessj" unicode="&#x237;" horiz-adv-x="314" 
d="M38 10l104 492h242l-110 -518q-10 -48 -30 -81.5t-43.5 -52t-60.5 -28t-68.5 -12t-80.5 -2.5q-54 0 -78 8l27 124q18 -2 26 -2q30 0 46.5 15.5t25.5 56.5z" />
    <glyph glyph-name="circumflex" unicode="&#x2c6;" horiz-adv-x="278" 
d="M300 552l-28 76l-60 -76h-182l150 170h224l78 -170h-182z" />
    <glyph glyph-name="caron" unicode="&#x2c7;" horiz-adv-x="278" 
d="M144 552l-78 170h182l28 -76l60 76h182l-150 -170h-224z" />
    <glyph glyph-name="uni02C9" unicode="&#x2c9;" horiz-adv-x="278" 
d="M48 581l25 118h428l-25 -118h-428z" />
    <glyph glyph-name="breve" unicode="&#x2d8;" horiz-adv-x="278" 
d="M95 722h148q-5 -29 6.5 -43.5t30.5 -14.5t36 14.5t25 43.5h148q-29 -90 -91.5 -133t-142.5 -43q-81 0 -125 43t-35 133z" />
    <glyph glyph-name="dotaccent" unicode="&#x2d9;" horiz-adv-x="278" 
d="M174 552l36 170h164l-36 -170h-164z" />
    <glyph glyph-name="ring" unicode="&#x2da;" horiz-adv-x="278" 
d="M152 681q12 54 58.5 92.5t100.5 38.5t84.5 -38.5t18.5 -92.5q-11 -54 -58 -92.5t-101 -38.5t-84 38.5t-19 92.5zM240 681q-4 -18 6 -30.5t28 -12.5t33 12.5t19 30.5t-6 30.5t-28 12.5t-33 -12.5t-19 -30.5z" />
    <glyph glyph-name="ogonek" unicode="&#x2db;" horiz-adv-x="278" 
d="M182 0h100q-124 -64 -135 -114q-8 -44 44 -44q33 0 62 11l3 -68q-60 -17 -125 -17q-69 0 -96.5 21t-17.5 67q10 47 56 84.5t109 59.5z" />
    <glyph glyph-name="tilde" unicode="&#x2dc;" horiz-adv-x="278" 
d="M383 716h124q-35 -164 -174 -164q-27 0 -79 17t-64 17q-19 0 -25 -28h-124l4 19q14 64 56.5 104.5t100.5 40.5q32 0 87.5 -17t64.5 -17q22 0 29 28z" />
    <glyph glyph-name="hungarumlaut" unicode="&#x2dd;" horiz-adv-x="278" 
d="M-51 552l133 170h232l-190 -170h-175zM238 552l134 170h232l-190 -170h-176z" />
    <glyph glyph-name="uni0394" unicode="&#x394;" horiz-adv-x="786" 
d="M-10 0l405 722h279l122 -722h-806zM309 152h241l-43 390z" />
    <glyph glyph-name="uni03A9" unicode="&#x3a9;" horiz-adv-x="799" 
d="M53 0l34 161h177l1 8q-58 18 -91 74.5t-33 131.5q0 162 114.5 264t275.5 102q145 0 226.5 -73.5t81.5 -188.5q0 -121 -69.5 -209.5t-166.5 -100.5l-1 -8h177l-34 -161h-314l56 266q28 5 47 18t31 37t17.5 43.5t13.5 55.5q9 45 9 69q0 82 -81 82q-74 0 -114.5 -67
t-40.5 -162q0 -71 54 -76l-56 -266h-314z" />
    <glyph glyph-name="uni03BC" unicode="&#x3bc;" horiz-adv-x="648" 
d="M410 189l66 313h242l-106 -502h-236l10 76h-2q-58 -91 -94 -91q-9 0 -15 4l-38 -181h-241l146 694h242l-67 -315q-5 -26 4.5 -40t28.5 -14q47 0 60 56z" />
    <glyph glyph-name="pi" unicode="&#x3c0;" horiz-adv-x="680" 
d="M70 0l75 355h-70l31 145h654l-31 -145h-71l-33 -155q-8 -40 -8 -47q0 -30 30 -30q14 0 34 8l-23 -110q-29 -14 -78.5 -22t-86.5 -8q-103 0 -103 90q0 28 7 57l46 217h-83l-75 -355h-215z" />
    <glyph glyph-name="uni0400" unicode="&#x400;" 
d="M51 0l153 722h549l-39 -188h-274l-17 -78h253l-40 -187h-253l-17 -81h283l-40 -188h-558zM416 772l-118 170h232l62 -170h-176z" />
    <glyph glyph-name="afii10023" unicode="&#x401;" 
d="M51 0l153 722h549l-39 -188h-274l-17 -78h253l-40 -187h-253l-17 -81h283l-40 -188h-558zM270 772l36 170h164l-36 -170h-164zM510 772l36 170h164l-36 -170h-164z" />
    <glyph glyph-name="afii10051" unicode="&#x402;" horiz-adv-x="890" 
d="M180 0l113 534h-177l40 188h642l-40 -188h-178l-20 -96q39 14 142 14q117 0 168 -52.5t51 -133.5q0 -28 -7 -65q-23 -107 -99.5 -160.5t-223.5 -53.5q-75 0 -101 4l33 155q12 -2 31 -2q21 0 34.5 3t28.5 17.5t21 42.5q2 14 2 21q0 58 -57 58q-36 0 -57 -7l-59 -279h-287z
" />
    <glyph glyph-name="afii10052" unicode="&#x403;" horiz-adv-x="593" 
d="M51 0l153 722h539l-41 -195h-253l-112 -527h-286zM345 772l134 170h232l-190 -170h-176z" />
    <glyph glyph-name="afii10053" unicode="&#x404;" horiz-adv-x="758" 
d="M399 -19q-149 0 -229.5 71t-80.5 202q0 50 12 107q38 179 152 277.5t288 98.5q132 0 213.5 -53t81.5 -161q0 -22 -5 -54h-264q0 4 0.5 10t0.5 9q0 63 -54 63q-41 0 -64 -28.5t-39 -90.5h156l-30 -141h-157q-6 -33 -6 -59q0 -67 56 -67q65 0 91 87h269
q-33 -137 -139.5 -204t-251.5 -67z" />
    <glyph glyph-name="afii10054" unicode="&#x405;" horiz-adv-x="722" 
d="M370 -21q-61 0 -113 9t-97.5 29.5t-72 58t-26.5 89.5q0 25 7 60h272q-5 -18 -5 -34q0 -49 60 -49q31 0 57.5 20.5t26.5 50.5q0 7 -2.5 13t-8.5 11t-11.5 8.5t-15.5 7t-16.5 5.5l-18.5 5.5t-18 5.5q-68 22 -85 27q-169 51 -169 177q0 62 22.5 109.5t59 77t87.5 48.5
t102.5 26t109.5 7q55 0 101.5 -7.5t89 -25.5t66.5 -52.5t24 -83.5q0 -28 -5 -52l-1 -1h-255q2 8 2 22q0 22 -12 31.5t-40 9.5q-29 0 -52.5 -14.5t-23.5 -41.5q0 -11 5.5 -18.5t20 -14t25 -9.5t34.5 -9t35 -9l85 -24q71 -21 107 -68t36 -112q0 -76 -33.5 -133t-91 -88.5
t-123 -46.5t-139.5 -15z" />
    <glyph glyph-name="afii10055" unicode="&#x406;" horiz-adv-x="388" 
d="M51 0l153 722h285l-153 -722h-285z" />
    <glyph glyph-name="afii10056" unicode="&#x407;" horiz-adv-x="388" 
d="M51 0l153 722h285l-153 -722h-285zM155 772l36 170h164l-36 -170h-164zM395 772l36 170h164l-36 -170h-164z" />
    <glyph glyph-name="afii10057" unicode="&#x408;" horiz-adv-x="666" 
d="M307 -21q-124 0 -197 48.5t-73 132.5q0 26 12 78h242q-6 -15 -6 -32q0 -38 36 -38q31 0 45 22.5t22 58.5l100 473h285l-96 -455q-22 -101 -58 -153q-43 -63 -125 -99t-187 -36z" />
    <glyph glyph-name="afii10058" unicode="&#x409;" horiz-adv-x="1163" 
d="M120 -9q-78 0 -116 9l43 203q5 -2 24 -2q47 0 65.5 39t46.5 173q1 2 1 3l65 306h661l-51 -243h108q121 0 178.5 -48t57.5 -133q0 -140 -94 -219t-239 -79h-399l112 527h-99l-41 -195q-18 -86 -38.5 -142t-56 -104.5t-92 -71.5t-136.5 -23zM792 164h20q115 0 115 98
q0 53 -79 53h-24z" />
    <glyph glyph-name="afii10059" unicode="&#x40a;" horiz-adv-x="1150" 
d="M52 0l153 722h286l-51 -243h120l51 243h286l-51 -243h108q121 0 178.5 -48t57.5 -133q0 -140 -94 -219t-239 -79h-399l67 315h-120l-67 -315h-286zM779 164h20q115 0 115 98q0 53 -79 53h-24z" />
    <glyph glyph-name="afii10060" unicode="&#x40b;" horiz-adv-x="900" 
d="M180 0l113 534h-177l40 188h642l-40 -188h-178l-21 -98q12 3 58.5 7t69.5 4q122 0 177 -37t55 -120q0 -40 -10 -84l-43 -206h-281l38 181q3 13 3 24q0 28 -16 41.5t-42 13.5q-25 0 -48 -7l-53 -253h-287z" />
    <glyph glyph-name="afii10061" unicode="&#x40c;" horiz-adv-x="796" 
d="M53 0l153 722h280l-65 -310l216 310h300l-265 -340l139 -382h-309l-100 324l-69 -324h-280zM437 772l134 170h232l-190 -170h-176z" />
    <glyph glyph-name="uni040D" unicode="&#x40d;" horiz-adv-x="804" 
d="M52 0l153 722h257l-77 -366h3l211 366h306l-153 -722h-257l75 354h-3l-209 -354h-306zM495 772l-118 170h232l62 -170h-176z" />
    <glyph glyph-name="afii10062" unicode="&#x40e;" horiz-adv-x="759" 
d="M129 0l163 203l-146 519h285l47 -276l164 276h287l-519 -722h-281zM550 766q-82 0 -130 44.5t-30 131.5h148q-6 -31 5.5 -44.5t31.5 -13.5q19 0 37.5 14.5t24.5 43.5h147q-17 -82 -85 -129t-149 -47z" />
    <glyph glyph-name="afii10145" unicode="&#x40f;" horiz-adv-x="796" 
d="M253 -142l30 142h-231l153 722h286l-112 -527h120l112 527h286l-153 -722h-230l-30 -142h-231z" />
    <glyph glyph-name="afii10017" unicode="&#x410;" horiz-adv-x="796" 
d="M-19 0l385 722h371l79 -722h-292l-3 116h-208l-54 -116h-278zM393 292h123l-1 271z" />
    <glyph glyph-name="afii10018" unicode="&#x411;" horiz-adv-x="751" 
d="M357 154h36q53 0 84 16.5t31 63.5q0 26 -23 41t-66 15h-33zM52 0l153 722h599l-39 -186h-327l-19 -90h144q97 0 158.5 -45t61.5 -131q0 -135 -88.5 -202.5t-229.5 -67.5h-413z" />
    <glyph glyph-name="afii10019" unicode="&#x412;" horiz-adv-x="758" 
d="M53 0l153 722h416q103 0 156 -39.5t53 -109.5q0 -84 -43 -127.5t-132 -68.5q61 -10 93.5 -45.5t32.5 -89.5q0 -75 -50 -135.5t-124 -86.5q-38 -13 -71.5 -16.5t-98.5 -3.5h-385zM351 152h23q29 0 49 2.5t41 10.5t32 26.5t11 47.5q0 58 -98 58h-27zM411 432h26
q116 0 116 84q0 52 -90 52h-23z" />
    <glyph glyph-name="afii10020" unicode="&#x413;" horiz-adv-x="593" 
d="M51 0l153 722h539l-41 -195h-253l-112 -527h-286z" />
    <glyph glyph-name="afii10021" unicode="&#x414;" horiz-adv-x="841" 
d="M-30 -142l71 337h62q35 48 60 98t44.5 119t26 98.5l24.5 115.5l20 96h636l-112 -527h80l-71 -337h-231l30 142h-379l-30 -142h-231zM382 195h139l73 339h-91q-46 -217 -121 -339z" />
    <glyph glyph-name="afii10022" unicode="&#x415;" 
d="M51 0l153 722h549l-39 -188h-274l-17 -78h253l-40 -187h-253l-17 -81h283l-40 -188h-558z" />
    <glyph glyph-name="afii10024" unicode="&#x416;" horiz-adv-x="1204" 
d="M-16 0l301 382l-121 340h302l81 -312h2l66 312h280l-66 -312h2l213 312h302l-265 -340l139 -382h-310l-97 324h-2l-69 -324h-280l69 324h-2l-235 -324h-310z" />
    <glyph glyph-name="afii10025" unicode="&#x417;" horiz-adv-x="722" 
d="M389 -21q-329 0 -329 189q0 27 8 67h271q-5 -18 -5 -40q0 -50 59 -50q38 0 61.5 25.5t23.5 63.5q0 58 -91 58q-16 0 -48 -2l32 154q18 -2 59 -2q45 0 74.5 23.5t29.5 66.5q0 20 -14.5 32.5t-42.5 12.5q-66 0 -80 -74h-258q15 73 53 123q87 115 319 115q144 0 218.5 -47.5
t74.5 -123.5t-54.5 -127t-134.5 -62v-3q133 -11 133 -140q0 -84 -56 -145t-135.5 -87.5t-167.5 -26.5z" />
    <glyph glyph-name="afii10026" unicode="&#x418;" horiz-adv-x="804" 
d="M52 0l153 722h257l-77 -366h3l211 366h306l-153 -722h-257l75 354h-3l-209 -354h-306z" />
    <glyph glyph-name="afii10027" unicode="&#x419;" horiz-adv-x="804" 
d="M52 0l153 722h257l-77 -366h3l211 366h306l-153 -722h-257l75 354h-3l-209 -354h-306zM581 766q-74 0 -127 35t-53 102q0 20 4 39h148q-2 -14 -2 -19q0 -39 39 -39q21 0 40 14t22 44h147q-12 -85 -74.5 -130.5t-143.5 -45.5z" />
    <glyph glyph-name="afii10028" unicode="&#x41a;" horiz-adv-x="796" 
d="M53 0l153 722h280l-65 -310l216 310h300l-265 -340l139 -382h-309l-100 324l-69 -324h-280z" />
    <glyph glyph-name="afii10029" unicode="&#x41b;" horiz-adv-x="809" 
d="M120 -9q-78 0 -116 9l43 204q6 -3 24 -3q47 0 65.5 39t46.5 173q1 2 1 3l65 306h661l-153 -722h-286l112 527h-99l-41 -195q-14 -66 -28.5 -113t-40 -93t-58 -73.5t-82.5 -44.5t-114 -17z" />
    <glyph glyph-name="afii10030" unicode="&#x41c;" horiz-adv-x="1056" 
d="M55 0l153 722h400l-17 -430l174 430h390l-153 -722h-236l110 518l-219 -518h-257l1 518l-110 -518h-236z" />
    <glyph glyph-name="afii10031" unicode="&#x41d;" horiz-adv-x="796" 
d="M52 0l153 722h286l-52 -247h120l52 247h286l-153 -722h-286l57 266h-120l-57 -266h-286z" />
    <glyph glyph-name="afii10032" unicode="&#x41e;" horiz-adv-x="796" 
d="M431 170q45 0 71.5 44.5t51.5 162.5q16 78 16 110q0 64 -53 64q-46 0 -73 -46.5t-49 -151.5q-15 -72 -15 -110q0 -73 51 -73zM403 -21q-147 0 -230.5 72t-83.5 201q0 48 12 104q39 184 156 284.5t297 100.5q145 0 226 -70t81 -198q0 -47 -13 -112q-39 -179 -155.5 -280.5
t-289.5 -101.5z" />
    <glyph glyph-name="afii10033" unicode="&#x41f;" horiz-adv-x="796" 
d="M52 0l153 722h692l-153 -722h-286l112 527h-120l-112 -527h-286z" />
    <glyph glyph-name="afii10034" unicode="&#x420;" horiz-adv-x="740" 
d="M51 0l153 722h395q109 0 173.5 -51.5t64.5 -148.5q0 -62 -20.5 -111.5t-53.5 -80t-77 -51t-87 -28.5t-88 -8h-121l-52 -243h-287zM425 407h16q57 0 87.5 19t30.5 69q0 66 -78 66h-24z" />
    <glyph glyph-name="afii10035" unicode="&#x421;" horiz-adv-x="758" 
d="M389 -19q-146 0 -223.5 69.5t-77.5 198.5q0 54 13 112q38 178 156.5 277t293.5 99q133 0 208.5 -52t75.5 -160q0 -32 -8 -75l-1 -1h-263q3 21 3 36q0 61 -50 61q-27 0 -46.5 -13.5t-33 -42.5t-21 -55.5t-17.5 -71.5q-18 -83 -18 -122q0 -71 57 -71q32 0 53 22.5t35 73.5
h268l-1 -1q-28 -133 -135 -208.5t-268 -75.5z" />
    <glyph glyph-name="afii10036" unicode="&#x422;" horiz-adv-x="648" 
d="M180 0l112 527h-177l41 195h642l-41 -195h-178l-112 -527h-287z" />
    <glyph glyph-name="afii10037" unicode="&#x423;" horiz-adv-x="759" 
d="M129 0l163 203l-146 519h285l47 -276l164 276h287l-519 -722h-281z" />
    <glyph glyph-name="afii10038" unicode="&#x424;" horiz-adv-x="1007" 
d="M363 -19l18 84q-128 0 -208 63.5t-80 177.5q0 169 121.5 270t296.5 101l13 61h273l-13 -61q128 0 207.5 -63.5t79.5 -176.5q0 -114 -57.5 -200t-151 -129t-208.5 -43l-18 -84h-273zM430 249l52 244q-72 0 -97 -122q-7 -31 -7 -56q0 -66 52 -66zM683 249q72 0 97 122
q7 32 7 56q0 66 -52 66z" />
    <glyph glyph-name="afii10039" unicode="&#x425;" horiz-adv-x="778" 
d="M-14 0l313 369l-144 353h300l53 -203l140 203h289l-298 -353l153 -369h-300l-61 220l-159 -220h-286z" />
    <glyph glyph-name="afii10040" unicode="&#x426;" horiz-adv-x="824" 
d="M563 -142l30 142h-541l153 722h286l-112 -527h120l112 527h286l-112 -527h80l-71 -337h-231z" />
    <glyph glyph-name="afii10041" unicode="&#x427;" horiz-adv-x="783" 
d="M445 0l51 239q-44 -11 -108 -11q-247 0 -247 185q0 34 9 76l49 233h281l-45 -213q-3 -17 -3 -30q0 -49 48 -49q35 0 58 7l60 285h286l-153 -722h-286z" />
    <glyph glyph-name="afii10042" unicode="&#x428;" horiz-adv-x="1200" 
d="M52 0l153 722h284l-112 -527h122l112 527h284l-112 -527h122l112 527h284l-153 -722h-1096z" />
    <glyph glyph-name="afii10043" unicode="&#x429;" horiz-adv-x="1227" 
d="M965 -142l31 142h-945l153 722h284l-112 -527h122l112 527h284l-112 -527h122l112 527h284l-112 -527h80l-72 -337h-231z" />
    <glyph glyph-name="afii10044" unicode="&#x42a;" horiz-adv-x="864" 
d="M172 0l113 534h-168l39 188h455l-52 -243h99q245 0 245 -188q0 -31 -8 -71q-22 -103 -103 -161.5t-207 -58.5h-413zM492 164h29q47 0 70.5 18t31.5 55q3 13 3 24q0 54 -84 54h-18z" />
    <glyph glyph-name="afii10045" unicode="&#x42b;" horiz-adv-x="1116" 
d="M52 0l153 722h286l-52 -243h99q245 0 245 -188q0 -31 -8 -71q-22 -103 -103 -161.5t-207 -58.5h-413zM372 164h29q47 0 70.5 18t31.5 55q3 13 3 24q0 54 -84 54h-18zM778 0l153 722h286l-153 -722h-286z" />
    <glyph glyph-name="afii10046" unicode="&#x42c;" horiz-adv-x="744" 
d="M52 0l153 722h286l-52 -243h99q245 0 245 -188q0 -31 -8 -71q-22 -103 -103 -161.5t-207 -58.5h-413zM372 164h29q47 0 70.5 18t31.5 55q3 13 3 24q0 54 -84 54h-18z" />
    <glyph glyph-name="afii10047" unicode="&#x42d;" horiz-adv-x="758" 
d="M371 -19q-85 0 -150.5 21.5t-108 72t-42.5 123.5q0 26 6 54h269q-2 -9 -2 -24q0 -63 55 -63q41 0 64 31t40 95h-157l30 141h156q5 33 5 53q0 66 -58 66q-60 0 -87 -82h-264q34 137 136 202.5t248 65.5q148 0 229.5 -71.5t81.5 -201.5q0 -52 -11 -103
q-39 -183 -152 -281.5t-288 -98.5z" />
    <glyph glyph-name="afii10048" unicode="&#x42e;" horiz-adv-x="1144" 
d="M757 -21q-145 0 -226.5 72t-81.5 200q0 16 1 25h-57l-59 -276h-282l153 722h282l-54 -257h61q113 276 414 276q145 0 222.5 -70t77.5 -200q0 -51 -12 -110q-39 -181 -151 -281.5t-288 -100.5zM785 170q45 0 70 44t50 163q18 83 18 114q0 60 -52 60q-46 0 -71.5 -46
t-47.5 -152q-16 -80 -16 -114q0 -69 49 -69z" />
    <glyph glyph-name="afii10049" unicode="&#x42f;" horiz-adv-x="772" 
d="M19 0q34 65 55 125l23 68q23 68 56.5 99t104.5 42q-49 16 -74.5 58.5t-25.5 98.5q0 31 5 52q12 57 40 93.5t74 54.5t96.5 24.5t124.5 6.5h375l-153 -722h-282l52 246h-24q-54 0 -69.5 -15.5t-43.5 -92.5l-12 -33q-26 -71 -42 -105h-280zM505 406h21l33 156h-18
q-62 0 -91.5 -22.5t-29.5 -73.5q0 -60 85 -60z" />
    <glyph glyph-name="afii10065" unicode="&#x430;" horiz-adv-x="592" 
d="M188 -13q-70 0 -108.5 34.5t-38.5 90.5q0 61 28.5 103.5t77.5 63.5t99.5 30t108.5 9q26 0 44 -1l10 43q1 5 1 13q0 27 -39 27q-46 0 -57 -48h-199v1q11 48 50 87q72 73 239 73q42 0 73 -3.5t70.5 -14t61.5 -37t22 -66.5q0 -20 -8 -62l-70 -330h-212l7 53
q-69 -66 -160 -66zM303 115q30 0 48 19t26 63l5 26q-18 2 -21 2q-43 0 -73.5 -17.5t-30.5 -57.5q0 -35 46 -35z" />
    <glyph glyph-name="afii10066" unicode="&#x431;" horiz-adv-x="660" 
d="M350 -15q-117 0 -188.5 52.5t-71.5 157.5q0 80 29.5 189t69.5 174q70 115 267 139q15 2 36.5 3.5t33 3t24.5 4t19 7.5t8 13h188q-8 -95 -52.5 -132.5t-151.5 -46.5q-144 -12 -200 -39t-82 -103q62 84 196 84q103 0 160 -49.5t57 -137.5q0 -151 -95 -235t-247 -84z
M359 116q25 0 42.5 26t33.5 97q10 47 10 76q0 47 -34 47q-25 0 -43 -26t-33 -97q-10 -47 -10 -76q0 -47 34 -47z" />
    <glyph glyph-name="afii10067" unicode="&#x432;" horiz-adv-x="611" 
d="M36 0l106 500h364q72 0 109 -26.5t37 -74.5q0 -58 -30.5 -88.5t-91.5 -48.5q42 -7 65 -32.5t23 -63.5q0 -52 -34.5 -91.5t-86.5 -57.5q-50 -17 -119 -17h-342zM283 108h47q31 0 49 16t18 46q0 19 -15 25.5t-48 6.5h-31zM327 313h35q63 0 63 50q0 31 -44 31h-37z" />
    <glyph glyph-name="afii10068" unicode="&#x433;" horiz-adv-x="480" 
d="M40 0l106 500h437l-34 -160h-195l-72 -340h-242z" />
    <glyph glyph-name="afii10069" unicode="&#x434;" horiz-adv-x="679" 
d="M-24 -112l58 272h45q26 39 45 90t26 82.5l20 93.5l15 74h537l-72 -340h58l-58 -272h-202l24 112h-270l-24 -112h-202zM317 160h96l41 192h-72q-26 -121 -65 -192z" />
    <glyph glyph-name="afii10070" unicode="&#x435;" 
d="M319 -16q-118 0 -183 49.5t-65 147.5q0 158 99.5 248.5t261.5 90.5q117 0 175 -51t58 -147q0 -38 -16 -114h-347v-1q-8 -36 -8 -51q0 -50 54 -50q55 0 75 58h210q-5 -22 -25 -51t-41 -48q-46 -43 -103.5 -62t-144.5 -19zM325 315h130q5 23 5 38q0 45 -51 45
q-38 0 -57 -21.5t-27 -61.5z" />
    <glyph glyph-name="afii10072" unicode="&#x436;" horiz-adv-x="942" 
d="M-12 0l207 268l-91 232h262l45 -211h2l45 211h238l-45 -211h2l135 211h262l-189 -232l93 -268h-262l-48 243h-2l-52 -243h-238l52 243h-2l-152 -243h-262z" />
    <glyph glyph-name="afii10073" unicode="&#x437;" horiz-adv-x="597" 
d="M302 -18q-245 0 -245 142q0 23 4 43h218q-3 -18 -3 -30q0 -43 43 -43q32 0 50.5 21t18.5 53q0 20 -15 27t-47 7h-51l24 113h55q30 0 47.5 15t17.5 44q0 32 -41 32q-51 0 -63 -59h-206q20 94 96 132.5t202 38.5q116 0 172.5 -32.5t56.5 -89.5q0 -46 -26.5 -79t-72.5 -47
v-2q27 -6 47.5 -31.5t20.5 -59.5q0 -48 -19.5 -84t-49.5 -56.5t-72.5 -33.5t-80.5 -17t-81 -4z" />
    <glyph glyph-name="afii10074" unicode="&#x438;" horiz-adv-x="660" 
d="M36 0l106 500h228l-48 -225l165 225h243l-106 -500h-228l48 228l-165 -228h-243z" />
    <glyph glyph-name="afii10075" unicode="&#x439;" horiz-adv-x="660" 
d="M36 0l106 500h228l-48 -225l165 225h243l-106 -500h-228l48 228l-165 -228h-243zM456 548q-73 0 -123.5 34t-50.5 101q0 11 4 39h148q-1 -6 -1 -17q0 -21 12.5 -31t29.5 -10q19 0 35.5 14.5t22.5 43.5h147q-17 -83 -80.5 -128.5t-143.5 -45.5z" />
    <glyph glyph-name="afii10076" unicode="&#x43a;" 
d="M36 0l106 500h242l-46 -216h2l136 216h262l-190 -237l94 -263h-262l-49 238h-2l-51 -238h-242z" />
    <glyph glyph-name="afii10077" unicode="&#x43b;" horiz-adv-x="663" 
d="M97 -7l-93 7l33 153l3 -1q3 -1 6 -1q60 0 87 80q8 24 25 103l35 166h540l-106 -500h-242l72 340h-74l-19 -93q-30 -148 -93.5 -201t-173.5 -53z" />
    <glyph glyph-name="afii10078" unicode="&#x43c;" horiz-adv-x="834" 
d="M36 0l106 500h322l-7 -318h2l127 318h318l-106 -500h-212l69 326h-2l-135 -326h-198l-1 326h-2l-69 -326h-212z" />
    <glyph glyph-name="afii10079" unicode="&#x43d;" horiz-adv-x="648" 
d="M36 0l106 500h242l-33 -158h92l33 158h242l-106 -500h-242l38 178h-92l-38 -178h-242z" />
    <glyph glyph-name="afii10080" unicode="&#x43e;" horiz-adv-x="666" 
d="M325 -16q-115 0 -184.5 52t-69.5 150q0 33 7 65q28 134 121.5 202t228.5 68q124 0 198.5 -50t74.5 -152q0 -33 -7 -67q-57 -268 -369 -268zM357 117q25 0 43 22t26 48t18 72t10 76q0 52 -38 52q-32 0 -50.5 -32t-31.5 -96q-15 -67 -15 -96q0 -46 38 -46z" />
    <glyph glyph-name="afii10081" unicode="&#x43f;" horiz-adv-x="648" 
d="M36 0l106 500h576l-106 -500h-242l72 340h-92l-72 -340h-242z" />
    <glyph glyph-name="afii10082" unicode="&#x440;" horiz-adv-x="666" 
d="M-2 -192l147 692h228l-4 -58q71 74 165 74q79 0 122 -47.5t43 -133.5q0 -41 -11 -94q-25 -121 -94.5 -189.5t-164.5 -68.5q-48 0 -79.5 13.5t-55.5 47.5l-50 -236h-246zM362 127q16 0 29 9t20 18t14.5 30.5t9.5 30.5l8 35q10 50 10 72q0 50 -42 50q-34 0 -49 -27.5
t-29 -93.5q-11 -50 -11 -76q0 -48 40 -48z" />
    <glyph glyph-name="afii10083" unicode="&#x441;" 
d="M332 -15q-121 0 -191 45.5t-70 143.5q0 36 9 79q26 125 116 194.5t229 69.5q115 0 181.5 -44t66.5 -123q0 -22 -6 -48v-1h-223q5 22 5 45q0 44 -39 44q-17 0 -30 -8.5t-21.5 -19.5t-16.5 -36.5t-12.5 -44t-12.5 -56.5q-11 -48 -11 -68q0 -47 44 -47q53 0 74 96h227
q-47 -221 -319 -221z" />
    <glyph glyph-name="afii10084" unicode="&#x442;" horiz-adv-x="526" 
d="M142 0l72 340h-139l34 160h520l-34 -160h-139l-72 -340h-242z" />
    <glyph glyph-name="afii10085" unicode="&#x443;" 
d="M94 -192l104 177l-95 515h258l12 -274l126 274h241l-385 -692h-261z" />
    <glyph glyph-name="afii10086" unicode="&#x444;" horiz-adv-x="944" 
d="M309 -192l45 210q-49 -31 -108 -31q-84 0 -128 51.5t-44 140.5q0 45 10 91q24 115 86.5 180.5t159.5 65.5q38 0 74.5 -12t47.5 -26l51 244h244l-51 -244q17 14 54 26t74 12q77 0 117 -50t40 -133q0 -35 -10 -85q-27 -125 -95 -193t-174 -68q-30 0 -61.5 10.5t-42.5 20.5
l-45 -210h-244zM350 123q15 0 33 12l48 228q-7 13 -26 13q-29 0 -46 -30t-31 -94q-11 -51 -11 -79q0 -50 33 -50zM646 123q51 0 78 129q10 50 10 75q0 49 -35 49q-19 0 -32 -13l-48 -228q10 -12 27 -12z" />
    <glyph glyph-name="afii10087" unicode="&#x445;" 
d="M-13 0l210 267l-89 233h258l24 -132l74 132h257l-176 -233l98 -267h-254l-42 150l-93 -150h-267z" />
    <glyph glyph-name="afii10088" unicode="&#x446;" horiz-adv-x="670" 
d="M444 -112l24 112h-432l106 500h242l-72 -340h92l72 340h242l-72 -340h58l-58 -272h-202z" />
    <glyph glyph-name="afii10089" unicode="&#x447;" horiz-adv-x="634" 
d="M356 0l37 175q-69 -30 -163 -30q-137 0 -137 121q0 30 7 62l36 172h237l-31 -149q-3 -13 -3 -24q0 -34 31 -34q29 0 52 15l40 192h242l-106 -500h-242z" />
    <glyph glyph-name="afii10090" unicode="&#x448;" horiz-adv-x="968" 
d="M36 0l106 500h240l-72 -340h88l72 340h240l-72 -340h88l72 340h240l-106 -500h-896z" />
    <glyph glyph-name="afii10091" unicode="&#x449;" horiz-adv-x="990" 
d="M764 -112l24 112h-752l106 500h240l-72 -340h88l72 340h240l-72 -340h88l72 340h240l-72 -340h58l-58 -272h-202z" />
    <glyph glyph-name="afii10092" unicode="&#x44a;" horiz-adv-x="711" 
d="M136 0l72 340h-133l34 160h369l-35 -167h132q82 0 121 -34.5t39 -94.5q0 -98 -64.5 -151t-167.5 -53h-367zM398 124h40q34 0 50.5 13.5t16.5 45.5q0 39 -62 39h-24z" />
    <glyph glyph-name="afii10093" unicode="&#x44b;" horiz-adv-x="928" 
d="M36 0l106 500h236l-35 -167h132q82 0 121 -34.5t39 -94.5q0 -98 -64.5 -151t-167.5 -53h-367zM298 124h40q34 0 50.5 13.5t16.5 45.5q0 39 -62 39h-24zM650 0l106 500h242l-106 -500h-242z" />
    <glyph glyph-name="afii10094" unicode="&#x44c;" horiz-adv-x="611" 
d="M36 0l106 500h236l-35 -167h132q82 0 121 -34.5t39 -94.5q0 -98 -64.5 -151t-167.5 -53h-367zM298 124h40q34 0 50.5 13.5t16.5 45.5q0 39 -62 39h-24z" />
    <glyph glyph-name="afii10095" unicode="&#x44d;" 
d="M312 -15q-52 0 -95 8t-79.5 26t-57 51.5t-20.5 80.5q0 9 2 29h226q-2 -16 -2 -23q0 -50 40 -50q34 0 50.5 21t29.5 76h-123l24 109h122q2 22 2 31q0 51 -42 51q-46 0 -65 -58h-223q31 86 109 133t195 47q120 0 188 -57.5t68 -155.5q0 -33 -7 -64q-30 -141 -114.5 -198
t-227.5 -57z" />
    <glyph glyph-name="afii10096" unicode="&#x44e;" horiz-adv-x="958" 
d="M617 -16q-113 0 -182 50.5t-69 145.5v8h-48l-40 -188h-242l106 500h242l-35 -168h51q89 189 320 189q122 0 196.5 -53.5t74.5 -157.5q0 -30 -8 -68q-16 -74 -49 -125.5t-82 -80t-106 -40.5t-129 -12zM649 117q25 0 43 22t26 48t18 72t10 76q0 52 -38 52q-32 0 -50.5 -32
t-31.5 -96q-15 -67 -15 -96q0 -46 38 -46z" />
    <glyph glyph-name="afii10097" unicode="&#x44f;" horiz-adv-x="625" 
d="M15 0q11 24 26 62t25 60.5t25 46.5t36.5 36t50.5 13v3q-24 4 -49 33.5t-25 74.5q0 72 52.5 121.5t161.5 49.5h377l-106 -500h-236l34 164h-30q-31 0 -50 -55q-2 -7 -42 -109h-250zM385 276h26l21 100h-24q-83 0 -83 -57q0 -43 60 -43z" />
    <glyph glyph-name="uni0450" unicode="&#x450;" 
d="M319 -16q-118 0 -183 49.5t-65 147.5q0 158 99.5 248.5t261.5 90.5q117 0 175 -51t58 -147q0 -38 -16 -114h-347v-1q-8 -36 -8 -51q0 -50 54 -50q55 0 75 58h210q-5 -22 -25 -51t-41 -48q-46 -43 -103.5 -62t-144.5 -19zM325 315h130q5 23 5 38q0 45 -51 45
q-38 0 -57 -21.5t-27 -61.5zM547 552h-177l-118 170h235z" />
    <glyph glyph-name="afii10071" unicode="&#x451;" 
d="M319 -16q-118 0 -183 49.5t-65 147.5q0 158 99.5 248.5t261.5 90.5q117 0 175 -51t58 -147q0 -38 -16 -114h-347v-1q-8 -36 -8 -51q0 -50 54 -50q55 0 75 58h210q-5 -22 -25 -51t-41 -48q-46 -43 -103.5 -62t-144.5 -19zM325 315h130q5 23 5 38q0 45 -51 45
q-38 0 -57 -21.5t-27 -61.5zM230 552l36 170h164l-36 -170h-164zM470 552l36 170h164l-36 -170h-164z" />
    <glyph glyph-name="afii10099" unicode="&#x452;" horiz-adv-x="655" 
d="M263 -191l27 126q4 0 11 -0.5t10 -0.5q34 0 46.5 16.5t22.5 62.5l58 278q3 12 3 22q0 37 -35 37q-44 0 -59 -67l-59 -283h-244l113 532h-71l29 138h71l11 52h244l-11 -52h148l-29 -138h-148l-25 -115q67 83 173 83q78 0 110 -32.5t32 -90.5q0 -33 -10 -80l-60 -287
q-12 -55 -33 -94t-44.5 -60.5t-58 -33t-62.5 -14t-70 -2.5q-55 0 -90 3z" />
    <glyph glyph-name="afii10100" unicode="&#x453;" horiz-adv-x="480" 
d="M40 0l106 500h437l-34 -160h-195l-72 -340h-242zM232 552l134 170h232l-190 -170h-176z" />
    <glyph glyph-name="afii10101" unicode="&#x454;" 
d="M332 -15q-120 0 -190 49.5t-70 148.5q0 72 30 143.5t83 115.5q90 75 240 75q115 0 181.5 -44t66.5 -124v-12h-223v12q0 46 -41 46q-52 0 -74 -82h122l-24 -109h-123q-6 -42 -6 -51q0 -25 10.5 -35.5t35.5 -10.5q50 0 68 73h226q-58 -195 -312 -195z" />
    <glyph glyph-name="afii10102" unicode="&#x455;" horiz-adv-x="592" 
d="M302 -19q-250 0 -250 142q0 20 4 39h221q-3 -15 -3 -26q0 -42 44 -42q26 0 43.5 14t17.5 39q0 20 -22 28.5t-74 15.5l-23 3q-81 11 -120.5 45.5t-39.5 85.5q0 194 297 194q114 0 174.5 -34t60.5 -100q0 -19 -4 -35h-208q4 16 4 24q0 33 -42 33q-25 0 -42 -12t-17 -36
q0 -16 15 -21.5t63 -13.5q7 -1 10 -2l47 -8q62 -11 105.5 -43t43.5 -90q0 -50 -18.5 -87t-47.5 -58t-71.5 -34t-81.5 -17t-86 -4z" />
    <glyph glyph-name="afii10103" unicode="&#x456;" horiz-adv-x="314" 
d="M38 0l106 500h238l-106 -500h-238zM159 569l32 153h238l-32 -153h-238z" />
    <glyph glyph-name="afii10104" unicode="&#x457;" horiz-adv-x="314" 
d="M36 0l106 500h242l-106 -500h-242zM72 552l36 170h164l-36 -170h-164zM312 552l36 170h164l-36 -170h-164z" />
    <glyph glyph-name="afii10105" unicode="&#x458;" horiz-adv-x="314" 
d="M-91 -191l27 126q4 0 11 -0.5t10 -0.5q40 0 55 15q18 18 28 64l103 487h238l-108 -510q-13 -62 -33 -95t-57 -55q-34 -20 -76 -27t-129 -7q-34 0 -69 3zM158 569l32 153h238l-32 -153h-238z" />
    <glyph glyph-name="afii10106" unicode="&#x459;" horiz-adv-x="966" 
d="M97 -7l-93 7l33 153l3 -1q3 -1 6 -1q60 0 87 80q8 24 25 103l35 166h540l-35 -167h132q82 0 121 -34.5t39 -94.5q0 -98 -64.5 -151t-167.5 -53h-373l72 340h-74l-19 -93q-29 -144 -94 -199t-173 -55zM653 124h40q34 0 50.5 13.5t16.5 45.5q0 39 -62 39h-24z" />
    <glyph glyph-name="afii10107" unicode="&#x45a;" horiz-adv-x="951" 
d="M36 0l106 500h242l-35 -167h92l35 167h242l-35 -167h132q82 0 121 -34.5t39 -94.5q0 -98 -64.5 -151t-167.5 -53h-373l47 222h-92l-47 -222h-242zM638 124h40q34 0 50.5 13.5t16.5 45.5q0 39 -62 39h-24z" />
    <glyph glyph-name="afii10108" unicode="&#x45b;" horiz-adv-x="655" 
d="M44 0l113 532h-71l29 138h71l11 52h244l-11 -52h148l-29 -138h-148l-25 -115q67 83 173 83q78 0 110 -32.5t32 -90.5q0 -33 -10 -80l-62 -297h-242l61 291q3 12 3 22q0 37 -35 37q-44 0 -59 -67l-59 -283h-244z" />
    <glyph glyph-name="afii10109" unicode="&#x45c;" 
d="M36 0l106 500h242l-46 -216h2l136 216h262l-190 -237l94 -263h-262l-49 238h-2l-51 -238h-242zM307 552l134 170h232l-190 -170h-176z" />
    <glyph glyph-name="uni045D" unicode="&#x45d;" horiz-adv-x="660" 
d="M36 0l106 500h228l-48 -225l165 225h243l-106 -500h-228l48 228l-165 -228h-243zM564 552h-177l-118 170h235z" />
    <glyph glyph-name="afii10110" unicode="&#x45e;" 
d="M94 -192l104 177l-95 515h258l12 -274l126 274h241l-385 -692h-261zM446 548q-83 0 -130.5 44t-29.5 130h148q-6 -31 5.5 -44.5t31.5 -13.5q19 0 38 14.5t24 43.5h147q-17 -82 -85 -128t-149 -46z" />
    <glyph glyph-name="afii10193" unicode="&#x45f;" horiz-adv-x="648" 
d="M199 -112l24 112h-187l106 500h242l-72 -340h92l72 340h242l-106 -500h-187l-24 -112h-202z" />
    <glyph glyph-name="afii10146" unicode="&#x462;" horiz-adv-x="819" 
d="M127 0l107 507h-127l35 165h127l15 69h286l-15 -69h138l-35 -165h-138l-13 -61h117q107 0 168.5 -48t61.5 -137q0 -127 -86.5 -194t-241.5 -67h-399zM445 154h18q55 0 80 13.5t33 52.5q2 10 2 16q0 54 -89 54h-15z" />
    <glyph glyph-name="afii10194" unicode="&#x463;" horiz-adv-x="697" 
d="M122 0l83 391h-117l27 130h117l43 201h236l-43 -201h127l-27 -130h-127l-13 -58h132q82 0 120 -35.5t38 -95.5q0 -25 -6 -52q-16 -72 -72.5 -111t-150.5 -39h-367zM384 124h40q30 0 44 8.5t20 34.5q2 12 2 17q0 38 -61 38h-24z" />
    <glyph glyph-name="afii10147" unicode="&#x472;" horiz-adv-x="796" 
d="M403 -21q-146 0 -228 77.5t-82 210.5q0 51 11 101q39 183 153.5 278t296.5 95q145 0 224 -74.5t79 -208.5q0 -50 -12 -109q-37 -178 -152.5 -274t-289.5 -96zM428 158q41 0 68 33t50 113q-23 -14 -48 -14q-15 0 -41.5 13.5t-39.5 13.5q-27 0 -42 -15q-5 -37 -5 -60
q0 -84 58 -84zM530 425q30 0 46 20q4 32 4 43q0 75 -61 75q-38 0 -64.5 -29.5t-46.5 -90.5q20 10 39 10t46 -14t37 -14z" />
    <glyph glyph-name="afii10195" unicode="&#x473;" horiz-adv-x="666" 
d="M337 -16q-119 0 -190 56.5t-71 157.5q0 29 8 67q54 256 344 256q121 0 196 -54t75 -159q0 -30 -8 -68q-16 -73 -49 -124.5t-81 -79.5t-102 -40t-122 -12zM354 110q59 0 85 91q-15 -9 -34 -9q-12 0 -33 11t-31 11q-17 0 -29 -8q-4 -23 -4 -44q0 -52 46 -52zM431 300
q20 0 31 10q1 8 1 24q0 60 -47 60q-54 0 -79 -78q14 6 28 6q15 0 36.5 -11t29.5 -11z" />
    <glyph glyph-name="afii10148" unicode="&#x474;" horiz-adv-x="759" 
d="M185 0l-41 722h281l-23 -562l161 423q57 150 239 150q56 0 121 -12l-35 -164q-26 3 -33 3q-33 0 -48 -29l-252 -531h-370z" />
    <glyph glyph-name="afii10196" unicode="&#x475;" 
d="M151 0l-45 500h243l1 -309l76 190q29 72 80.5 102.5t132.5 30.5q47 0 107 -11l-30 -145l-30 2q-28 0 -41 -25l-164 -335h-330z" />
    <glyph glyph-name="afii10050" unicode="&#x490;" horiz-adv-x="593" 
d="M51 0l153 722h318l30 140h221l-71 -335h-253l-112 -527h-286z" />
    <glyph glyph-name="afii10098" unicode="&#x491;" horiz-adv-x="480" 
d="M40 0l106 500h262l24 112h175l-58 -272h-195l-72 -340h-242z" />
    <glyph glyph-name="Wgrave" unicode="&#x1e80;" horiz-adv-x="1036" 
d="M1204 722l-306 -722h-309l27 468l-164 -468h-313v722h252l-34 -455l164 455h298l-29 -455l160 455h254zM622 772l-118 170h232l62 -170h-176z" />
    <glyph glyph-name="wgrave" unicode="&#x1e81;" horiz-adv-x="944" 
d="M1052 500l-232 -500h-294l4 319l-127 -319h-296l-3 500h231l-25 -326l131 326h265l-10 -326l122 326h234zM695 552h-177l-118 170h235z" />
    <glyph glyph-name="Wacute" unicode="&#x1e82;" horiz-adv-x="1036" 
d="M1204 722l-306 -722h-309l27 468l-164 -468h-313v722h252l-34 -455l164 455h298l-29 -455l160 455h254zM587 772l134 170h232l-190 -170h-176z" />
    <glyph glyph-name="wacute" unicode="&#x1e83;" horiz-adv-x="944" 
d="M1052 500l-232 -500h-294l4 319l-127 -319h-296l-3 500h231l-25 -326l131 326h265l-10 -326l122 326h234zM490 552l134 170h232l-190 -170h-176z" />
    <glyph glyph-name="Wdieresis" unicode="&#x1e84;" horiz-adv-x="1036" 
d="M1204 722l-306 -722h-309l27 468l-164 -468h-313v722h252l-34 -455l164 455h298l-29 -455l160 455h254zM481 772l36 170h164l-36 -170h-164zM721 772l36 170h164l-36 -170h-164z" />
    <glyph glyph-name="wdieresis" unicode="&#x1e85;" horiz-adv-x="944" 
d="M1052 500l-232 -500h-294l4 319l-127 -319h-296l-3 500h231l-25 -326l131 326h265l-10 -326l122 326h234zM379 552l36 170h164l-36 -170h-164zM619 552l36 170h164l-36 -170h-164z" />
    <glyph glyph-name="Ygrave" unicode="&#x1ef2;" horiz-adv-x="740" 
d="M911 722l-345 -472l-53 -250h-285l53 250l-146 472h290l39 -303l165 303h282zM486 772l-118 170h232l62 -170h-176z" />
    <glyph glyph-name="ygrave" unicode="&#x1ef3;" 
d="M740 500l-385 -692h-261l104 177l-95 515h258l12 -274l126 274h241zM556 552h-177l-118 170h235z" />
    <glyph glyph-name="uni2010" unicode="&#x2010;" horiz-adv-x="407" 
d="M452 349l-36 -167h-349l36 167h349z" />
    <glyph glyph-name="endash" unicode="&#x2013;" horiz-adv-x="500" 
d="M38 182l36 170h500l-36 -170h-500z" />
    <glyph glyph-name="emdash" unicode="&#x2014;" horiz-adv-x="1000" 
d="M38 182l36 170h1000l-36 -170h-1000z" />
    <glyph glyph-name="quoteleft" unicode="&#x2018;" horiz-adv-x="352" 
d="M112 422l176 300h194l-138 -300h-232z" />
    <glyph glyph-name="quoteright" unicode="&#x2019;" horiz-adv-x="352" 
d="M112 422l138 300h232l-176 -300h-194z" />
    <glyph glyph-name="quotesinglbase" unicode="&#x201a;" horiz-adv-x="352" 
d="M3 -94l137 300h232l-175 -300h-194z" />
    <glyph glyph-name="quotedblleft" unicode="&#x201c;" horiz-adv-x="592" 
d="M94 422l176 300h194l-138 -300h-232zM370 422l176 300h194l-138 -300h-232z" />
    <glyph glyph-name="quotedblright" unicode="&#x201d;" horiz-adv-x="592" 
d="M370 422l138 300h232l-176 -300h-194zM94 422l138 300h232l-176 -300h-194z" />
    <glyph glyph-name="quotedblbase" unicode="&#x201e;" horiz-adv-x="592" 
d="M261 -94l137 300h232l-175 -300h-194zM-14 -94l136 300h232l-175 -300h-193z" />
    <glyph glyph-name="dagger" unicode="&#x2020;" horiz-adv-x="704" 
d="M249 0l87 412h-162l35 164h162l31 146h206l-31 -146h162l-35 -164h-162l-87 -412h-206z" />
    <glyph glyph-name="daggerdbl" unicode="&#x2021;" horiz-adv-x="704" 
d="M255 0l24 116h-168l33 154h168l39 182h-168l32 154h168l25 116h194l-25 -116h168l-32 -154h-168l-39 -182h168l-33 -154h-168l-24 -116h-194z" />
    <glyph glyph-name="bullet" unicode="&#x2022;" horiz-adv-x="500" 
d="M490 360q0 -75 -53 -128t-128 -53t-128 53t-53 128t53 128t128 53t128 -53t53 -128z" />
    <glyph glyph-name="ellipsis" unicode="&#x2026;" horiz-adv-x="1000" 
d="M46 0l43 206h242l-43 -206h-242zM379 0l43 206h242l-43 -206h-242zM712 0l43 206h242l-43 -206h-242z" />
    <glyph glyph-name="perthousand" unicode="&#x2030;" horiz-adv-x="1166" 
d="M111 509q49 232 226 232q75 0 107 -56t10 -160q-49 -232 -226 -232q-75 0 -107 56t-10 160zM248 517q-15 -73 -13 -95.5t22 -22.5t32 23.5t27 94.5q8 37 11 59.5t2 36t-6.5 18t-15.5 4.5q-20 0 -32 -23t-27 -95zM492 197q50 232 227 232q75 0 107 -56t10 -160
q-50 -232 -227 -232q-75 0 -107 56t-10 160zM630 205q-8 -37 -11 -59.5t-2 -36t6.5 -18t15.5 -4.5q20 0 32 23t27 95q8 37 11 59.5t2 36t-6.5 18t-15.5 4.5q-20 0 -32 -23t-27 -95zM864 197q50 232 227 232q75 0 107 -56t10 -160q-50 -232 -227 -232q-75 0 -107 56t-10 160z
M1002 205q-8 -37 -11 -59.5t-2 -36t6.5 -18t15.5 -4.5q20 0 32 23t27 95q8 37 11 59.5t2 36t-6.5 18t-15.5 4.5q-20 0 -32 -23t-27 -95zM135 -25l567 772h106l-567 -772h-106z" />
    <glyph glyph-name="guilsinglleft" unicode="&#x2039;" horiz-adv-x="352" 
d="M155 0l-99 250l205 250h194l-161 -250l55 -250h-194z" />
    <glyph glyph-name="guilsinglright" unicode="&#x203a;" horiz-adv-x="352" 
d="M164 250l-55 250h194l99 -250l-205 -250h-194z" />
    <glyph glyph-name="interrobang" unicode="&#x203d;" horiz-adv-x="537" 
d="M93 0l34 164h240l-34 -164h-240zM156 208l40 310h176q4 33 -18.5 49.5t-58.5 16.5q-59 0 -147 -25l32 149q123 33 219 33q99 0 165.5 -42.5t66.5 -127.5q0 -23 -6 -50q-3 -15 -7 -27.5t-12 -25t-13 -21t-18 -20t-18 -17t-22 -17l-22 -15t-25.5 -16.5t-24.5 -16l-19 -12
q-62 -41 -74 -80l-13 -46h-201z" />
    <glyph glyph-name="fraction" unicode="&#x2044;" horiz-adv-x="167" 
d="M-176 -25l566 772h106l-566 -772h-106z" />
    <glyph glyph-name="zero.superior" unicode="&#x2070;" horiz-adv-x="458" 
d="M286 277q-79 0 -120 42t-41 121q0 36 9 80q46 212 241 212q172 0 172 -158q0 -34 -10 -82q-22 -107 -82 -161t-169 -54zM312 390q11 0 20 8.5t16 27.5t10.5 34t9.5 43q14 65 14 88q0 28 -21 28t-33.5 -25t-26.5 -95q-12 -56 -12 -76q0 -33 23 -33z" />
    <glyph glyph-name="four.superior" unicode="&#x2074;" horiz-adv-x="444" 
d="M276 289l14 68h-201l27 125l201 240h217l-53 -249h54l-25 -116h-54l-14 -68h-166zM247 473h71l27 126z" />
    <glyph glyph-name="five.superior" unicode="&#x2075;" horiz-adv-x="444" 
d="M287 277q-83 0 -129.5 29t-46.5 83q0 16 2 24h163q-1 -4 -1 -11q0 -21 20 -21q16 0 25 10t16 44q4 16 4 30q0 25 -22 25q-25 0 -35 -33h-152l65 265h347l-23 -109h-202q-3 -8 -7.5 -25t-8.5 -29q39 25 91 25q55 0 86 -33t31 -85q0 -44 -19.5 -83.5t-52.5 -63.5
q-57 -42 -151 -42z" />
    <glyph glyph-name="six.superior" unicode="&#x2076;" horiz-adv-x="458" 
d="M311 277q-91 0 -134.5 48t-43.5 127q0 74 31 144.5t82 101.5q53 34 134 34q80 0 120.5 -24t40.5 -81q0 -18 -2 -28h-151q1 4 1 10q0 21 -21 21q-15 0 -25 -8.5t-14 -18t-11 -29.5t-11 -30q37 29 92 29t90 -32.5t35 -84.5q0 -43 -21 -82.5t-54 -60.5q-54 -36 -138 -36z
M318 381q35 0 46 51q3 12 3 21q0 28 -31 28q-35 0 -46 -49q-2 -12 -2 -16q0 -35 30 -35z" />
    <glyph glyph-name="seven.superior" unicode="&#x2077;" horiz-adv-x="444" 
d="M123 289l231 311h-192l26 122h380l-21 -97l-236 -336h-188z" />
    <glyph glyph-name="eight.superior" unicode="&#x2078;" horiz-adv-x="444" 
d="M286 277q-45 0 -83 8.5t-68.5 35t-30.5 68.5q0 37 26 74.5t71 44.5q-45 23 -45 75q0 72 57.5 110.5t152.5 38.5q86 0 129.5 -28.5t43.5 -80.5q0 -44 -21.5 -74.5t-61.5 -39.5q57 -22 57 -79q0 -153 -227 -153zM300 380q44 0 44 56q0 23 -25 23q-45 0 -45 -52
q0 -27 26 -27zM340 560q36 0 36 47q0 23 -21 23q-36 0 -36 -47q0 -23 21 -23z" />
    <glyph glyph-name="nine.superior" unicode="&#x2079;" horiz-adv-x="458" 
d="M287 277q-70 0 -114 24.5t-44 77.5q0 16 4 31h151q-1 -4 -1 -11q0 -20 19 -20q24 0 37 21.5t22 64.5q-33 -28 -91 -28q-55 0 -89 31.5t-34 83.5q0 81 63 130.5t155 49.5q175 0 175 -164q0 -137 -69.5 -214t-183.5 -77zM335 528q20 0 34 19t14 51q0 30 -31 30
q-19 0 -32.5 -19t-13.5 -52q0 -29 29 -29z" />
    <glyph glyph-name="plus.superior" unicode="&#x207a;" horiz-adv-x="380" 
d="M225 289v104h-104v96h104v104h96v-104h104v-96h-104v-104h-96z" />
    <glyph glyph-name="minus.superior" unicode="&#x207b;" horiz-adv-x="380" 
d="M130 393v96h304v-96h-304z" />
    <glyph glyph-name="equal.superior" unicode="&#x207c;" horiz-adv-x="380" 
d="M127 323v97h310v-97h-310zM127 462v97h310v-97h-310z" />
    <glyph glyph-name="parenleft.superior" unicode="&#x207d;" horiz-adv-x="244" 
d="M154 201q-24 113 -24 187q0 137 135 334h115q-79 -154 -98 -226t-19 -194q0 -47 6 -101h-115z" />
    <glyph glyph-name="parenright.superior" unicode="&#x207e;" horiz-adv-x="244" 
d="M59 201q73 138 96 214t23 178q0 45 -8 129h115q25 -98 25 -177q0 -134 -136 -344h-115z" />
    <glyph glyph-name="n.superior" unicode="&#x207f;" horiz-adv-x="428" 
d="M120 416l66 312h154l-5 -36q45 46 108 46q41 0 66.5 -22t25.5 -60q0 -20 -7 -52l-40 -188h-160l40 190q2 12 2 15q0 19 -16 19q-26 0 -32 -36l-40 -188h-162z" />
    <glyph glyph-name="zero.inferior" unicode="&#x2080;" horiz-adv-x="458" 
d="M226 -12q-79 0 -120 42t-41 121q0 37 9 80q46 212 241 212q172 0 172 -158q0 -34 -10 -82q-22 -107 -82 -161t-169 -54zM252 101q11 0 20 8.5t16 27.5t10.5 34t9.5 43q14 65 14 88q0 28 -21 28t-33.5 -25t-26.5 -95q-12 -56 -12 -76q0 -33 23 -33z" />
    <glyph glyph-name="one.inferior" unicode="&#x2081;" horiz-adv-x="444" 
d="M152 0l58 273q-60 -35 -104 -43l27 128q57 18 86.5 33.5t60.5 41.5h139l-92 -433h-175z" />
    <glyph glyph-name="two.inferior" unicode="&#x2082;" horiz-adv-x="444" 
d="M36 0l25 116l113 62q63 35 97 63q51 40 51 72q0 20 -24 20q-35 0 -45 -44v-4h-160l1 5q31 151 228 151q83 0 124.5 -29t41.5 -81q0 -74 -75 -132q-33 -27 -52 -38.5t-78 -42.5h162l-25 -118h-384z" />
    <glyph glyph-name="three.inferior" unicode="&#x2083;" horiz-adv-x="444" 
d="M221 -12q-88 0 -133.5 30.5t-45.5 87.5q0 18 4 34h156q-2 -7 -2 -18q0 -29 32 -29q20 0 33.5 12.5t13.5 34.5q0 31 -63 31q-12 0 -21 -1l21 98q6 -1 22 -1q74 0 74 50q0 22 -30 22q-35 0 -43 -46h-154l1 5q15 76 71.5 110.5t154.5 34.5q81 0 124.5 -27.5t43.5 -76.5
q0 -93 -98 -112q66 -11 66 -75q0 -83 -59.5 -123.5t-167.5 -40.5z" />
    <glyph glyph-name="four.inferior" unicode="&#x2084;" horiz-adv-x="444" 
d="M216 0l14 68h-201l27 125l201 240h217l-53 -249h54l-25 -116h-54l-14 -68h-166zM187 184h71l27 126z" />
    <glyph glyph-name="five.inferior" unicode="&#x2085;" horiz-adv-x="444" 
d="M227 -12q-83 0 -129.5 29t-46.5 83q0 16 2 24h163q-1 -4 -1 -11q0 -21 20 -21q16 0 25 10t16 44q4 16 4 30q0 25 -22 25q-25 0 -35 -33h-152l65 265h347l-23 -109h-202q-3 -8 -7.5 -25t-8.5 -29q39 25 91 25q55 0 86 -33t31 -85q0 -44 -19.5 -83.5t-52.5 -63.5
q-57 -42 -151 -42z" />
    <glyph glyph-name="six.inferior" unicode="&#x2086;" horiz-adv-x="458" 
d="M251 -12q-91 0 -134.5 48t-43.5 127q0 74 31 144.5t82 101.5q53 34 134 34q80 0 120.5 -24t40.5 -81q0 -18 -2 -28h-151q1 4 1 10q0 21 -21 21q-15 0 -25 -8.5t-14 -18t-11 -29.5t-11 -30q37 29 92 29t90 -32.5t35 -84.5q0 -43 -21 -82.5t-54 -60.5q-54 -36 -138 -36z
M258 92q35 0 46 51q3 12 3 21q0 28 -31 28q-35 0 -46 -49q-2 -12 -2 -16q0 -35 30 -35z" />
    <glyph glyph-name="seven.inferior" unicode="&#x2087;" horiz-adv-x="444" 
d="M63 0l231 311h-192l26 122h380l-21 -97l-236 -336h-188z" />
    <glyph glyph-name="eight.inferior" unicode="&#x2088;" horiz-adv-x="444" 
d="M226 -12q-45 0 -83 8.5t-68.5 35t-30.5 68.5q0 37 26 74.5t71 44.5q-45 23 -45 75q0 72 57.5 110.5t152.5 38.5q86 0 129.5 -28.5t43.5 -80.5q0 -44 -21.5 -74.5t-61.5 -39.5q57 -22 57 -79q0 -153 -227 -153zM240 91q44 0 44 56q0 23 -25 23q-45 0 -45 -52q0 -27 26 -27
zM280 271q36 0 36 47q0 23 -21 23q-36 0 -36 -47q0 -23 21 -23z" />
    <glyph glyph-name="nine.inferior" unicode="&#x2089;" horiz-adv-x="458" 
d="M227 -12q-70 0 -114 24.5t-44 77.5q0 16 4 31h151q-1 -4 -1 -11q0 -20 19 -20q24 0 37 21.5t22 64.5q-33 -28 -91 -28q-55 0 -89 31.5t-34 83.5q0 81 63 130.5t155 49.5q175 0 175 -164q0 -137 -69.5 -214t-183.5 -77zM275 239q20 0 34 19t14 51q0 30 -31 30
q-19 0 -32.5 -19t-13.5 -52q0 -29 29 -29z" />
    <glyph glyph-name="plus.inferior" unicode="&#x208a;" horiz-adv-x="380" 
d="M174 0v104h-104v96h104v104h96v-104h104v-96h-104v-104h-96z" />
    <glyph glyph-name="minus.inferior" unicode="&#x208b;" horiz-adv-x="380" 
d="M70 104v96h304v-96h-304z" />
    <glyph glyph-name="equal.inferior" unicode="&#x208c;" horiz-adv-x="380" 
d="M67 34v97h310v-97h-310zM67 173v97h310v-97h-310z" />
    <glyph glyph-name="parenleft.inferior" unicode="&#x208d;" horiz-adv-x="244" 
d="M94 -88q-24 113 -24 187q0 137 135 334h115q-79 -154 -98 -226t-19 -194q0 -47 6 -101h-115z" />
    <glyph glyph-name="parenright.inferior" unicode="&#x208e;" horiz-adv-x="244" 
d="M-1 -88q73 138 96 214t23 178q0 45 -8 129h115q25 -98 25 -177q0 -134 -136 -344h-115z" />
    <glyph glyph-name="Euro" unicode="&#x20ac;" horiz-adv-x="704" 
d="M493 209h248q-16 -76 -70 -129t-124.5 -76t-153.5 -23q-132 0 -197 66.5t-65 186.5h-72l46 93h34l11 54h-60l46 93h46q51 118 146.5 184.5t224.5 66.5q132 0 203 -52.5t48 -167.5h-248q6 38 -3.5 51.5t-31.5 13.5q-47 0 -77 -96h165l-46 -93h-142l-11 -54h126l-46 -93
h-96q-11 -98 34 -98q46 0 65 73z" />
    <glyph glyph-name="afii61248" unicode="&#x2105;" horiz-adv-x="1036" 
d="M336 407q-80 0 -123.5 33t-43.5 98q0 27 5 48q16 76 72.5 114t141.5 38q159 0 159 -117q0 -14 -1 -22h-148q4 26 4 31q0 24 -22 24t-31.5 -20t-20.5 -70q-6 -26 -6 -43q0 -31 25 -31q30 0 40 60h150q-25 -143 -201 -143zM244 -25l567 772h106l-567 -772h-106zM790 -13
q-76 0 -122 39.5t-46 102.5q0 46 20.5 87t54.5 65q58 41 149 41q82 0 127.5 -37t45.5 -101q0 -46 -20 -89t-52 -65q-58 -43 -157 -43zM803 75q18 0 28.5 18.5t20.5 64.5q7 35 7 46q0 28 -21 28q-18 0 -28.5 -16.5t-21.5 -67.5q-7 -35 -7 -47q0 -26 22 -26z" />
    <glyph glyph-name="afii61289" unicode="&#x2113;" horiz-adv-x="634" 
d="M404 484l-20 -94q96 79 109 140q7 31 1.5 49.5t-21.5 18.5q-44 0 -69 -114zM560 232l70 -85q-126 -157 -300 -157q-79 0 -123.5 30t-54.5 102v6q-25 -14 -54 -28q-4 14 -27 103l104 60l39 180q29 137 103 206t175 69q85 0 124 -51t21 -137q-10 -45 -30.5 -82.5t-61.5 -76
t-81.5 -68.5l-114.5 -81l-1 -5q-7 -31 9.5 -50t51.5 -19q25 0 58 14q40 20 93 70z" />
    <glyph glyph-name="afii61352" unicode="&#x2116;" horiz-adv-x="1310" 
d="M51 0l153 722h333l61 -437h2l92 437h242l-153 -722h-333l-59 442h-2l-94 -442h-242zM829 0l25 117h451l-25 -117h-451zM1088 158q-98 0 -146.5 35.5t-48.5 94.5q0 52 22.5 90.5t61.5 59t83 30t95 9.5q99 0 148 -36t49 -95q0 -52 -23 -90.5t-62.5 -59t-84 -29.5t-94.5 -9z
M1109 252q37 0 51 68q4 16 4 30q0 33 -28 33q-19 0 -31.5 -15.5t-20.5 -53.5q-4 -16 -4 -30q0 -32 29 -32z" />
    <glyph glyph-name="published" unicode="&#x2117;" horiz-adv-x="800" 
d="M474 -19q-158 0 -269 111.5t-111 268.5t111 268.5t269 111.5t269 -111.5t111 -268.5t-111 -268.5t-269 -111.5zM474 99q109 0 185.5 76.5t76.5 185.5t-76.5 185.5t-185.5 76.5t-185.5 -76.5t-76.5 -185.5t76.5 -185.5t185.5 -76.5zM342 164v401h134q70 0 105 -13
q35 -12 54.5 -40.5t19.5 -66.5q0 -60 -39 -96q-35 -31 -115 -31h-49v-154h-110zM450 387h13q28 0 44 2.5t29 16t13 39.5q0 32 -20 41t-58 9h-21v-108z" />
    <glyph glyph-name="trademark" unicode="&#x2122;" horiz-adv-x="1000" 
d="M982 366h-98v261l-79 -261h-79l-79 261v-261h-99v356h160l57 -190l57 190h160v-356zM518 639h-103v-273h-106v273h-103v83h312v-83z" />
    <glyph glyph-name="Omega" unicode="&#x2126;" horiz-adv-x="799" 
d="M53 0l34 161h177l1 8q-58 18 -91 74.5t-33 131.5q0 162 114.5 264t275.5 102q145 0 226.5 -73.5t81.5 -188.5q0 -121 -69.5 -209.5t-166.5 -100.5l-1 -8h177l-34 -161h-314l56 266q28 5 47 18t31 37t17.5 43.5t13.5 55.5q9 45 9 69q0 82 -81 82q-74 0 -114.5 -67
t-40.5 -162q0 -71 54 -76l-56 -266h-314z" />
    <glyph glyph-name="estimated" unicode="&#x212e;" horiz-adv-x="772" 
d="M796 354h-532v-240q78 -78 191 -78q82 0 143.5 38t110.5 120l14 -8.5l16.5 -10l14.5 -8.5q-61 -95 -129 -136t-170 -41q-152 0 -245.5 104t-93.5 260t93.5 260t245.5 104q151 0 245 -101.5t96 -262.5zM264 401h383v191q-82 79 -193 79q-113 0 -190 -79v-191z" />
    <glyph glyph-name="onethird" unicode="&#x2153;" horiz-adv-x="1055" 
d="M208 289l58 273q-60 -35 -104 -43l27 128q57 18 86.5 33.5t60.5 41.5h139l-92 -433h-175zM246 -25l566 772h106l-566 -772h-106zM831 -12q-88 0 -133.5 30.5t-45.5 87.5q0 18 4 34h156q-2 -7 -2 -18q0 -29 32 -29q20 0 33.5 12.5t13.5 34.5q0 31 -63 31q-12 0 -21 -1
l21 98q6 -1 22 -1q74 0 74 50q0 22 -30 22q-35 0 -43 -46h-154l1 5q15 76 71.5 110.5t154.5 34.5q81 0 124.5 -27.5t43.5 -76.5q0 -93 -98 -112q66 -11 66 -75q0 -83 -59.5 -123.5t-167.5 -40.5z" />
    <glyph glyph-name="twothirds" unicode="&#x2154;" horiz-adv-x="1055" 
d="M86 289l25 116l113 62q63 35 97 63q51 40 51 72q0 20 -24 20q-35 0 -45 -44v-4h-160l1 5q31 151 228 151q83 0 124.5 -29t41.5 -81q0 -74 -75 -132q-33 -27 -52 -38.5t-78 -42.5h162l-25 -118h-384zM276 -25l566 772h106l-566 -772h-106zM832 -12q-88 0 -133.5 30.5
t-45.5 87.5q0 18 4 34h156q-2 -7 -2 -18q0 -29 32 -29q20 0 33.5 12.5t13.5 34.5q0 31 -63 31q-12 0 -21 -1l21 98q6 -1 22 -1q74 0 74 50q0 22 -30 22q-35 0 -43 -46h-154l1 5q15 76 71.5 110.5t154.5 34.5q81 0 124.5 -27.5t43.5 -76.5q0 -93 -98 -112q66 -11 66 -75
q0 -83 -59.5 -123.5t-167.5 -40.5z" />
    <glyph glyph-name="oneeighth" unicode="&#x215b;" horiz-adv-x="1055" 
d="M212 289l58 273q-60 -35 -104 -43l27 128q57 18 86.5 33.5t60.5 41.5h139l-92 -433h-175zM248 -25l566 772h106l-566 -772h-106zM832 -12q-45 0 -83 8.5t-68.5 35t-30.5 68.5q0 37 26 74.5t71 44.5q-45 23 -45 75q0 72 57.5 110.5t152.5 38.5q86 0 129.5 -28.5
t43.5 -80.5q0 -44 -21.5 -74.5t-61.5 -39.5q57 -22 57 -79q0 -153 -227 -153zM846 91q44 0 44 56q0 23 -25 23q-45 0 -45 -52q0 -27 26 -27zM886 271q36 0 36 47q0 23 -21 23q-36 0 -36 -47q0 -23 21 -23z" />
    <glyph glyph-name="threeeighths" unicode="&#x215c;" horiz-adv-x="1055" 
d="M281 277q-88 0 -133.5 30.5t-45.5 87.5q0 18 4 34h156q-2 -7 -2 -18q0 -29 32 -29q20 0 33.5 12.5t13.5 34.5q0 31 -63 31q-12 0 -21 -1l21 98q5 0 12 -0.5t10 -0.5q74 0 74 50q0 22 -30 22q-35 0 -43 -46h-154l1 5q15 76 71.5 110.5t154.5 34.5q81 0 124.5 -27.5
t43.5 -76.5q0 -93 -98 -112q66 -11 66 -75q0 -83 -59.5 -123.5t-167.5 -40.5zM266 -25l566 772h106l-566 -772h-106zM834 -12q-45 0 -83 8.5t-68.5 35t-30.5 68.5q0 37 26 74.5t71 44.5q-45 23 -45 75q0 72 57.5 110.5t152.5 38.5q86 0 129.5 -28.5t43.5 -80.5
q0 -44 -21.5 -74.5t-61.5 -39.5q57 -22 57 -79q0 -153 -227 -153zM848 91q44 0 44 56q0 23 -25 23q-45 0 -45 -52q0 -27 26 -27zM888 271q36 0 36 47q0 23 -21 23q-36 0 -36 -47q0 -23 21 -23z" />
    <glyph glyph-name="fiveeighths" unicode="&#x215d;" horiz-adv-x="1055" 
d="M289 277q-83 0 -129.5 29t-46.5 83q0 16 2 24h163q-1 -4 -1 -11q0 -21 20 -21q16 0 25 10t16 44q4 16 4 30q0 25 -22 25q-25 0 -35 -33h-152l65 265h347l-23 -109h-202q-3 -8 -7.5 -25t-8.5 -29q39 25 91 25q55 0 86 -33t31 -85q0 -44 -19.5 -83.5t-52.5 -63.5
q-57 -42 -151 -42zM267 -25l566 772h106l-566 -772h-106zM835 -12q-45 0 -83 8.5t-68.5 35t-30.5 68.5q0 37 26 74.5t71 44.5q-45 23 -45 75q0 72 57.5 110.5t152.5 38.5q86 0 129.5 -28.5t43.5 -80.5q0 -44 -21.5 -74.5t-61.5 -39.5q57 -22 57 -79q0 -153 -227 -153z
M849 91q44 0 44 56q0 23 -25 23q-45 0 -45 -52q0 -27 26 -27zM889 271q36 0 36 47q0 23 -21 23q-36 0 -36 -47q0 -23 21 -23z" />
    <glyph glyph-name="seveneighths" unicode="&#x215e;" horiz-adv-x="1055" 
d="M136 289l231 311h-192l26 122h380l-21 -97l-236 -336h-188zM234 -25l566 772h106l-566 -772h-106zM836 -12q-45 0 -83 8.5t-68.5 35t-30.5 68.5q0 37 26 74.5t71 44.5q-45 23 -45 75q0 72 57.5 110.5t152.5 38.5q86 0 129.5 -28.5t43.5 -80.5q0 -44 -21.5 -74.5
t-61.5 -39.5q57 -22 57 -79q0 -153 -227 -153zM850 91q44 0 44 56q0 23 -25 23q-45 0 -45 -52q0 -27 26 -27zM890 271q36 0 36 47q0 23 -21 23q-36 0 -36 -47q0 -23 21 -23z" />
    <glyph glyph-name="partialdiff" unicode="&#x2202;" horiz-adv-x="593" 
d="M624 358q-12 -56 -29 -105.5t-45.5 -100t-64.5 -86t-88 -58t-113 -22.5q-108 0 -161.5 65t-30.5 172q20 98 98.5 164t175.5 66q65 0 114 -41q6 41 8.5 83.5t-20 75t-67.5 32.5q-61 0 -133 -58l-64 93q109 83 218 83q62 0 106 -20.5t68 -55t34 -82t8 -98t-14 -107.5z
M449 273q1 4 2.5 11t1.5 10q-14 18 -38 30.5t-48 12.5q-48 0 -82 -35.5t-45 -85.5q-9 -46 7.5 -81t60.5 -35q38 0 69.5 31t47.5 67.5t24 74.5z" />
    <glyph glyph-name="Delta" unicode="&#x2206;" horiz-adv-x="786" 
d="M-10 0l405 722h279l122 -722h-806zM309 152h241l-43 390z" />
    <glyph glyph-name="product" unicode="&#x220f;" horiz-adv-x="759" 
d="M791 -214h-156v845h-350v-845h-157v1000h663v-1000z" />
    <glyph glyph-name="summation" unicode="&#x2211;" horiz-adv-x="704" 
d="M754 -214h-644v135l286 372l-275 356v137h621v-156h-413l251 -337l-266 -351h440v-156z" />
    <glyph glyph-name="minus" unicode="&#x2212;" horiz-adv-x="600" 
d="M97 185v136h506v-136h-506z" />
    <glyph glyph-name="uni2215" unicode="&#x2215;" horiz-adv-x="167" 
d="M-176 -25l566 772h106l-566 -772h-106z" />
    <glyph glyph-name="uni2219" unicode="&#x2219;" horiz-adv-x="352" 
d="M335 182h-243l44 208h243z" />
    <glyph glyph-name="radical" unicode="&#x221a;" horiz-adv-x="611" 
d="M784 786l-438 -1000h-142l-79 286l-64 -27l-32 122l217 91l55 -232l317 760h166z" />
    <glyph glyph-name="infinity" unicode="&#x221e;" horiz-adv-x="889" 
d="M904 276q0 -96 -54 -158t-149 -62q-108 0 -197 117q-42 -56 -86.5 -86.5t-104.5 -30.5q-96 0 -152 61.5t-56 158.5q0 95 54 154.5t149 59.5q64 0 107 -31.5t89 -94.5q44 63 87.5 94.5t109.5 31.5q95 0 149 -59.5t54 -154.5zM772 273q0 34 -21 57t-55 23q-54 0 -113 -82
q55 -77 116 -77q35 0 54 22t19 57zM425 271q-59 82 -116 82q-33 0 -52.5 -23.5t-19.5 -57.5q0 -35 19.5 -56.5t53.5 -21.5q60 0 115 77z" />
    <glyph glyph-name="integral" unicode="&#x222b;" horiz-adv-x="667" 
d="M623 684q0 -32 -20.5 -52.5t-51.5 -20.5q-33 0 -49 17t-17 37.5t-5.5 37.5t-17.5 17q-20 0 -20 -40q0 -34 4 -101t4 -101l1 -302q0 -143 -5 -186q-21 -175 -146 -201q-22 -4 -48 -4q-52 0 -97 26.5t-45 75.5q0 32 20 52.5t51 20.5q32 0 48.5 -17t18 -37t6.5 -37t17 -17
q20 0 20 42q0 29 -4.5 86.5t-4.5 86.5v389v50t2 48t5.5 52t11.5 46t19 46t29 36t41 32q36 20 90 20t98.5 -26t44.5 -76z" />
    <glyph glyph-name="approxequal" unicode="&#x2248;" horiz-adv-x="593" 
d="M639 503q-3 -49 -19 -95.5t-53 -83.5t-87 -37q-35 0 -124.5 30t-128.5 30q-22 0 -36 -15.5t-16 -38.5h-101q0 76 43.5 146t114.5 70q39 0 127.5 -29.5t126.5 -29.5q46 0 51 53h102zM639 253q-2 -35 -11.5 -70.5t-27 -69.5t-47 -55.5t-67.5 -21.5q-42 0 -131 30t-127 30
q-46 0 -53 -52h-101q0 44 17.5 92t54 85t82.5 37q44 0 129.5 -29.5t128.5 -29.5q25 0 36 14t15 40h102z" />
    <glyph glyph-name="notequal" unicode="&#x2260;" horiz-adv-x="593" 
d="M629 72h-285l-80 -163l-138 68l46 95h-89v157h167l42 87h-209v158h287l80 161l137 -68l-46 -93h88v-158h-165l-43 -87h208v-157z" />
    <glyph glyph-name="lessequal" unicode="&#x2264;" horiz-adv-x="593" 
d="M609 128l-546 164v156l546 148v-160l-326 -66l326 -81v-161zM609 -53h-546v157h546v-157z" />
    <glyph glyph-name="greaterequal" unicode="&#x2265;" horiz-adv-x="593" 
d="M619 292l-546 -164v161l327 81l-327 66v160l546 -148v-156zM619 -53h-546v157h546v-157z" />
    <glyph glyph-name="lozenge" unicode="&#x25ca;" horiz-adv-x="593" 
d="M632 356l-196 -391h-142l-194 391l196 391h140zM470 356l-104 231l-105 -231l105 -231z" />
    <glyph glyph-name="f_i" unicode="&#xf001;" horiz-adv-x="704" 
d="M54 0l75 354h-54l31 148h54l11 50q17 83 84 129.5t156 46.5q78 0 132 -14l-30 -142q-34 2 -51 2q-44 0 -54 -43l-6 -29h85l-31 -148h-85l-75 -354h-242zM426 0l106 502h242l-106 -502h-242zM546 568l33 154h242l-33 -154h-242z" />
    <glyph glyph-name="f_l" unicode="&#xf002;" horiz-adv-x="704" 
d="M54 0l75 354h-54l31 148h54l11 50q17 83 84 129.5t156 46.5q78 0 132 -14l-30 -142q-34 2 -51 2q-44 0 -54 -43l-6 -29h85l-31 -148h-85l-75 -354h-242zM426 0l153 722h242l-153 -722h-242z" />
    <glyph glyph-name="uniF8FF" unicode="&#xf8ff;" horiz-adv-x="485" 
d="M323 111h-53v63h53v-63zM317 222h-46v16q0 50 11.5 75.5t45.5 55.5q28 27 37 44t9 36q0 33 -21 56.5t-51 23.5q-67 0 -77 -90q-8 1 -24 3.5t-24 4.5q7 66 41 98t87 32q52 0 85 -34t33 -90q0 -32 -12.5 -56.5t-47.5 -56.5q-35 -33 -40.5 -48.5t-5.5 -69.5zM107 47h391v585
h-391v-585zM60 680h485v-680h-485v680z" />
    <glyph glyph-name="grave.cap" horiz-adv-x="278" 
d="M240 772l-118 170h232l62 -170h-176z" />
    <glyph glyph-name="acute.cap" horiz-adv-x="278" 
d="M180 772l134 170h232l-190 -170h-176z" />
    <glyph glyph-name="circumflex.cap" horiz-adv-x="278" 
d="M347 772l-28 76l-60 -76h-182l150 170h224l78 -170h-182z" />
    <glyph glyph-name="caron.cap" horiz-adv-x="278" 
d="M191 772l-78 170h182l28 -76l60 76h182l-150 -170h-224z" />
    <glyph glyph-name="caron.alt" horiz-adv-x="352" 
d="M462 722l-170 -182h-136l81 182h225z" />
    <glyph glyph-name="tilde.cap" horiz-adv-x="278" 
d="M429 936h124q-33 -164 -173 -164q-26 0 -79 17t-64 17q-19 0 -25 -28h-124l4 19q14 64 56.5 104.5t100.5 40.5q32 0 87.5 -17t64.5 -17q21 0 28 28z" />
    <glyph glyph-name="dieresis.cap" horiz-adv-x="278" 
d="M101 772l36 170h164l-36 -170h-164zM341 772l36 170h164l-36 -170h-164z" />
    <glyph glyph-name="macron.cap" horiz-adv-x="278" 
d="M95 801l25 118h428l-25 -118h-428z" />
    <glyph glyph-name="breve.cap" horiz-adv-x="278" 
d="M142 942h148q-5 -29 6 -43.5t30 -14.5t36.5 14.5t25.5 43.5h148q-29 -90 -91.5 -133t-143.5 -43q-80 0 -124 43t-35 133z" />
    <glyph glyph-name="ring.cap" horiz-adv-x="278" 
d="M196 886q11 54 58 92.5t101 38.5t84 -38.5t19 -92.5t-58 -92.5t-101 -38.5t-84 38.5t-19 92.5zM284 886q-4 -18 6 -30.5t28 -12.5t33 12.5t19 30.5t-6 30.5t-28 12.5t-33 -12.5t-19 -30.5z" />
    <glyph glyph-name="hungarumlaut.cap" horiz-adv-x="278" 
d="M-4 772l133 170h232l-190 -170h-175zM285 772l134 170h232l-190 -170h-176z" />
    <glyph glyph-name="dotaccent.cap" horiz-adv-x="278" 
d="M221 772l36 170h164l-36 -170h-164z" />
    <glyph glyph-name="commaaccent" horiz-adv-x="352" 
d="M298 -50l-180 -182h-135l90 182h225z" />
    <glyph glyph-name="commaaccent.alt" horiz-adv-x="352" 
d="M140 552l180 182h136l-91 -182h-225z" />
    </font>
</defs>
</svg>
