<svg xmlns="http://www.w3.org/2000/svg">
<defs>
<font id="UniversLTCYR-45LightOblique" horiz-adv-x="556" >
  <font-face 
    font-family="Univers LT CYR 45 Light"
    font-weight="300"
    font-style="oblique"
    font-stretch="normal"
    units-per-em="1000"
    panose-1="2 11 4 3 2 2 2 9 2 4"
    ascent="724"
    descent="-276"
    x-height="502"
    cap-height="722"
    bbox="-151 -274 1144 974"
    underline-thickness="50"
    underline-position="-50"
    slope="-12"
    unicode-range="U+000D-U+FB04"
  />
<missing-glyph horiz-adv-x="512" 
d="M278 117h-56v67h56v-67zM271 234h-46l-2 17q0 56 13 81q15 28 46 59q30 28 40 45.5t10 37.5q0 36 -22.5 60.5t-53.5 24.5q-71 0 -82 -95l-50 8q6 69 42 103t93 34q55 0 89.5 -36t34.5 -95q0 -34 -13 -60t-50 -60q-37 -33 -43 -52q-6 -20 -6 -72zM50 50h412v617h-412v-617
zM0 718h512v-718h-512v718z" />
    <glyph glyph-name="IJ" unicode="IJ" horiz-adv-x="765" 
d="M172 0h-65l154 725h65zM316 178h70q-8 -59 21.5 -96t87.5 -37q64 0 106.5 53t58.5 127l105 497h65l-103 -487q-24 -118 -88 -179q-74 -71 -178 -71q-83 0 -117.5 53.5t-27.5 139.5z" />
    <glyph glyph-name="ij" unicode="ij" horiz-adv-x="423" 
d="M188 502h60l-107 -502h-60zM299 722l-15 -75h-70l15 75h70zM163 -192l12 55q14 0 24 1t18.5 1.5t15 5.5t11.5 7.5t9 12.5t7 14.5t6.5 20.5l5.5 24.5t6.5 31t7.5 35.5l103 485h60l-112 -524q-12 -57 -20 -83t-26.5 -50.5t-48 -31t-79.5 -5.5zM500 722l-15 -75h-70l15 75
h70z" />
    <glyph glyph-name="napostrophe" unicode="&#x22;n" 
d="M201 289l-61 -289h-60l83 389q5 23 11 63.5t8 49.5h62l-13 -74l2 -2q70 91 176 91q39 0 67.5 -10.5t43 -29.5t22.5 -39.5t8 -45.5t-1.5 -42.5t-5.5 -35.5l-67 -314h-60l69 324q13 65 -14 101.5t-89 36.5q-70 0 -117.5 -50t-63.5 -123zM227 722h66l-95 -146h-40z" />
    <glyph glyph-name="f_f" unicode="ff" horiz-adv-x="616" 
d="M183 0h-60l95 447h-101l11 55h101l23 107q14 65 49 95t99 30q7 0 54 -11l-10 -48q-24 4 -36 4q-30 0 -48.5 -6.5t-29.5 -24.5t-15.5 -33t-11.5 -49l-14 -64h94l-11 -55h-94zM466 0h-60l95 447h-81l11 55h81l23 107q14 65 49 95t99 30q7 0 54 -11l-10 -48q-24 4 -36 4
q-30 0 -48.5 -6.5t-29.5 -24.5t-15.5 -33t-11.5 -49l-14 -64h114l-11 -55h-114z" />
    <glyph glyph-name="fi" unicode="fi" 
d="M513 502h60l-107 -502h-60zM624 722l-15 -75h-70l15 75h70zM183 0h-60l95 447h-101l12 55h101l22 107q14 65 49 95t99 30q8 0 55 -11l-11 -48q-22 4 -36 4q-56 0 -75 -25t-30 -88l-13 -64h114l-12 -55h-114z" />
    <glyph glyph-name="fl" unicode="fl" 
d="M185 0h-60l95 447h-101l12 55h101l22 107q14 65 49 95t99 30q8 0 55 -11l-11 -48q-22 4 -36 4q-56 0 -75 -25t-30 -88l-13 -64h114l-12 -55h-114zM623 722l-153 -722h-60l153 722h60z" />
    <glyph glyph-name="f_f_i" unicode="ffi" horiz-adv-x="830" 
d="M183 0h-60l95 447h-101l11 55h101l23 107q14 65 49 95t99 30q7 0 54 -11l-10 -48q-24 4 -36 4q-30 0 -48.5 -6.5t-29.5 -24.5t-15.5 -33t-11.5 -49l-14 -64h94l-11 -55h-94zM466 0h-60l95 447h-81l11 55h81l23 107q14 65 49 95t99 30q7 0 54 -11l-10 -48q-24 4 -36 4
q-30 0 -48.5 -6.5t-29.5 -24.5t-15.5 -33t-11.5 -49l-14 -64h114l-11 -55h-114zM795 502h60l-106 -502h-60zM907 722l-16 -75h-70l16 75h70z" />
    <glyph glyph-name="f_f_l" unicode="ffl" horiz-adv-x="832" 
d="M183 0h-60l95 447h-101l11 55h101l23 107q14 65 49 95t99 30q7 0 54 -11l-10 -48q-24 4 -36 4q-30 0 -48.5 -6.5t-29.5 -24.5t-15.5 -33t-11.5 -49l-14 -64h94l-11 -55h-94zM466 0h-60l95 447h-81l11 55h81l23 107q14 65 49 95t99 30q7 0 54 -11l-10 -48q-24 4 -36 4
q-30 0 -48.5 -6.5t-29.5 -24.5t-15.5 -33t-11.5 -49l-14 -64h114l-11 -55h-114zM904 722l-153 -722h-60l153 722h60z" />
    <glyph glyph-name=".notdef" horiz-adv-x="512" 
d="M278 117h-56v67h56v-67zM271 234h-46l-2 17q0 56 13 81q15 28 46 59q30 28 40 45.5t10 37.5q0 36 -22.5 60.5t-53.5 24.5q-71 0 -82 -95l-50 8q6 69 42 103t93 34q55 0 89.5 -36t34.5 -95q0 -34 -13 -60t-50 -60q-37 -33 -43 -52q-6 -20 -6 -72zM50 50h412v617h-412v-617
zM0 718h512v-718h-512v718z" />
    <glyph glyph-name=".null" horiz-adv-x="500" 
 />
    <glyph glyph-name="nonmarkingreturn" horiz-adv-x="333" 
 />
    <glyph glyph-name="CR" unicode="&#xd;" horiz-adv-x="0" 
 />
    <glyph glyph-name="space" unicode=" " horiz-adv-x="278" 
 />
    <glyph glyph-name="exclam" unicode="!" horiz-adv-x="389" 
d="M259 171h-56l104 551h82zM173 86h80l-18 -86h-80z" />
    <glyph glyph-name="quotedbl" unicode="&#x22;" horiz-adv-x="278" 
d="M163 496l48 226h52l-48 -226h-52zM273 496l48 226h52l-48 -226h-52z" />
    <glyph glyph-name="numbersign" unicode="#" 
d="M451 423h-135l-51 -137h137zM630 483l-13 -60h-107l-49 -137h101l-13 -60h-110l-79 -226h-59l79 226h-136l-82 -226h-58l82 226h-109l13 60h118l49 137h-111l13 60h119l76 209h59l-75 -209h135l74 209h59l-75 -209h99z" />
    <glyph glyph-name="dollar" unicode="$" 
d="M367 309l-56 -264q58 4 108.5 38.5t62.5 92.5q6 29 0.5 50.5t-26 37t-34.5 22.5t-45 19q-7 3 -10 4zM298 -15l-11 -53h-50l11 53q-88 3 -140 51.5t-29 139.5h70q-18 -62 15.5 -94.5t96.5 -36.5l58 275q-7 3 -21.5 8.5l-27 10.5t-29.5 13.5t-28.5 18t-25.5 24t-18.5 31
t-8.5 39.5t4 50q17 77 90.5 134.5t146.5 57.5l10 48h50l-10 -48q78 0 127.5 -47t37.5 -128h-70q12 58 -21 86.5t-86 30.5l-59 -275q94 -32 126 -55q66 -50 46 -145q-20 -91 -93.5 -140t-160.5 -49zM334 389l55 258q-52 -1 -97 -37t-57 -94q-11 -53 17 -81t82 -46z" />
    <glyph glyph-name="percent" unicode="%" horiz-adv-x="1000" 
d="M418 662q-53 0 -88 -43.5t-47 -100.5q-5 -34 -4.5 -66t20.5 -55t57 -23q53 0 88 43.5t47 100.5q5 34 4.5 66t-20.5 55t-57 23zM803 707h58l-540 -707h-58zM427 707q73 0 104.5 -55.5t14.5 -133.5t-71.5 -133.5t-127.5 -55.5t-104.5 55.5t-14.5 133.5t71.5 133.5
t127.5 55.5zM800 363q73 0 104.5 -55.5t14.5 -133.5t-71.5 -133.5t-127.5 -55.5t-104.5 55.5t-14.5 133.5t71.5 133.5t127.5 55.5zM791 318q-53 0 -88 -43.5t-47 -100.5q-5 -34 -4.5 -66t20.5 -55t57 -23q53 0 88 43.5t47 100.5q5 34 4.5 66t-20.5 55t-57 23z" />
    <glyph glyph-name="ampersand" unicode="&#x26;" horiz-adv-x="722" 
d="M530 138l-174 243q-63 -35 -120.5 -81.5t-66.5 -87.5q-16 -76 30 -121.5t123 -45.5q57 0 105.5 23t102.5 70zM385 461l37 29t44 36t29 34t22 45q7 35 -15 53.5t-58 18.5q-39 0 -68.5 -17.5t-37.5 -54.5q-12 -58 47 -144zM320 422q1 2 5 4q-23 35 -34.5 55t-20.5 56t-2 69
q13 63 67 97t119 34t105.5 -33t27.5 -95q-6 -31 -22.5 -58.5t-44 -52t-49 -40.5t-56.5 -39l163 -225q36 55 64.5 130t38.5 137h70q-24 -80 -35 -113t-40 -94.5t-63 -104.5l105 -149h-93l-66 96q-117 -111 -244 -111q-113 0 -176 58t-43 155q7 32 25 61.5t35.5 48.5t52.5 44
t52.5 35.5z" />
    <glyph glyph-name="quotesingle" unicode="'" horiz-adv-x="278" 
d="M218 496l48 226h52l-48 -226h-52z" />
    <glyph glyph-name="parenleft" unicode="(" horiz-adv-x="278" 
d="M214 -96h-51q-1 9 -8 48.5l-9 51.5t-7 47.5t-6 53t-3 49.5t-0.5 54t4.5 50.5t9 54.5q26 125 141 320q5 9 53 89h50q-136 -226 -174 -409q-40 -181 1 -409z" />
    <glyph glyph-name="parenright" unicode=")" horiz-adv-x="278" 
d="M75 -96h-51q134 223 175 409q39 187 -2 409h50q13 -70 18 -103t12 -93.5t4.5 -111.5t-12.5 -101q-7 -35 -20.5 -73t-25.5 -66t-35.5 -72.5t-34.5 -63.5l-40.5 -70z" />
    <glyph glyph-name="asterisk" unicode="*" 
d="M364 722l40 -136l95 136l46 -28l-115 -127l145 12l-12 -58l-140 11l59 -129l-58 -27l-36 138l-98 -140l-43 29l114 128l-146 -10l12 58l143 -12l-65 126z" />
    <glyph glyph-name="plus" unicode="+" horiz-adv-x="660" 
d="M300 281v221h60v-221h220v-60h-220v-221h-60v221h-220v60h220z" />
    <glyph glyph-name="comma" unicode="," horiz-adv-x="278" 
d="M119 81h81l-115 -205h-52z" />
    <glyph glyph-name="hyphen" unicode="-" horiz-adv-x="278" 
d="M63 237l13 60h252l-13 -60h-252z" />
    <glyph glyph-name="period" unicode="." horiz-adv-x="278" 
d="M179 0h-80l18 86h80z" />
    <glyph glyph-name="slash" unicode="/" horiz-adv-x="278" 
d="M-43 -96l432 818h65l-434 -818h-63z" />
    <glyph glyph-name="zero" unicode="0" 
d="M416 647q-42 0 -77.5 -22t-58.5 -53.5t-42 -75.5t-28.5 -78t-17.5 -72q-64 -301 96 -301t224 301q61 301 -96 301zM428 707q230 0 154 -361q-78 -361 -307 -361q-231 0 -153 361q76 361 306 361z" />
    <glyph glyph-name="one" unicode="1" 
d="M226 518l14 65q93 35 182 109h62l-147 -692h-65l132 622q-73 -58 -178 -104z" />
    <glyph glyph-name="two" unicode="2" 
d="M485 0h-435l14 68l115 90l139.5 119.5t134.5 137t64 109.5q13 58 -20 90.5t-92 32.5q-62 0 -109.5 -38.5t-60.5 -99.5h-70q19 90 90.5 144t163.5 54q89 0 138.5 -46.5t30.5 -132.5q-7 -33 -27.5 -70.5t-54.5 -76.5t-66 -72t-80.5 -73.5l-78 -64.5l-78 -62l-62.5 -49h357z
" />
    <glyph glyph-name="three" unicode="3" 
d="M295 329l13 63q46 -5 90.5 5.5t81.5 43t47 81.5q12 58 -25 91.5t-101 33.5q-66 0 -112 -33t-66 -93h-70q18 84 91.5 135t159.5 51q97 0 154.5 -47.5t37.5 -141.5q-13 -60 -62 -101.5t-112 -54.5v-2q64 -15 96.5 -61t17.5 -114q-19 -92 -102 -146t-177 -54
q-96 0 -149.5 51.5t-36.5 146.5h70q-12 -62 26.5 -100t101.5 -38q73 0 128.5 38.5t70.5 109.5q17 78 -37.5 113t-135.5 23z" />
    <glyph glyph-name="four" unicode="4" 
d="M347 0l34 161h-325l14 63l403 468h86l-101 -477h111l-12 -54h-111l-34 -161h-65zM393 215l87 412h-2l-355 -412h270z" />
    <glyph glyph-name="five" unicode="5" 
d="M138 291l101 401h381l-13 -60h-319l-63 -247l1 -2q79 73 168 73q95 0 138.5 -67.5t23.5 -163.5q-22 -102 -97.5 -171t-175.5 -69q-95 0 -148.5 46t-36.5 139h70q-10 -60 24.5 -92.5t96.5 -32.5q77 0 128.5 51.5t68.5 131.5q17 77 -13 122.5t-106 45.5q-51 0 -96 -28.5
t-66 -76.5h-67z" />
    <glyph glyph-name="six" unicode="6" 
d="M380 394q-80 0 -135.5 -51.5t-72.5 -131.5q-15 -67 20 -116.5t101 -49.5q74 0 126 47.5t68 123.5q16 75 -9.5 126.5t-97.5 51.5zM447 707q89 0 137 -45.5t31 -131.5h-70q9 53 -22 85t-85 32q-48 0 -87.5 -20.5t-65 -50.5t-46.5 -75t-32 -82t-21 -83h2q35 56 89 84.5
t117 28.5q100 0 143 -63.5t21 -165.5t-95 -168.5t-173 -66.5q-70 0 -114.5 27.5t-60.5 73t-18 104.5t14 121q13 61 28 110t42.5 105t61.5 93.5t87 62.5t117 25z" />
    <glyph glyph-name="seven" unicode="7" 
d="M639 692l-12 -58l-404 -634h-76l411 632h-373l13 60h441z" />
    <glyph glyph-name="eight" unicode="8" 
d="M270 359l1 2q-60 6 -90.5 52t-16.5 108q19 90 95.5 138t168.5 48t148.5 -48t37.5 -138q-13 -61 -60.5 -103.5t-112.5 -56.5v-1q141 -39 112 -172q-21 -98 -101.5 -150.5t-176.5 -52.5t-154.5 52.5t-37.5 150.5q13 66 64 111t123 60zM229 521q-14 -62 23 -96t109 -34
q71 0 122.5 33.5t65.5 96.5q14 65 -26.5 98t-105.5 33t-119.5 -33t-68.5 -98zM153 188q-15 -70 25 -106.5t110 -36.5t125 36.5t70 106.5t-25 106.5t-110 36.5t-125 -36.5t-70 -106.5z" />
    <glyph glyph-name="nine" unicode="9" 
d="M405 647q-74 0 -123 -47.5t-66 -123.5q-14 -69 17 -112t98 -43q72 0 129.5 46t72.5 118q15 71 -21 116.5t-107 45.5zM83 170h70q-22 -125 124 -125q45 0 84 24.5t64 59.5t46 83t31.5 84.5t18.5 75.5h-2q-36 -50 -90.5 -78t-114.5 -28q-93 0 -140 61t-27 154
q21 100 95 163t174 63q246 0 174 -342q-13 -61 -29.5 -111.5t-45 -102t-64.5 -87t-88.5 -57.5t-116.5 -22q-90 0 -132 50t-31 135z" />
    <glyph glyph-name="colon" unicode=":" horiz-adv-x="278" 
d="M206 502h80l-19 -86h-80zM117 86h80l-18 -86h-80z" />
    <glyph glyph-name="semicolon" unicode=";" horiz-adv-x="278" 
d="M138 81h81l-115 -205h-52zM214 502h80l-19 -86h-80z" />
    <glyph glyph-name="less" unicode="&#x3c;" horiz-adv-x="660" 
d="M158 251l421 -197l1 -64l-500 235l-1 53l500 223l1 -64z" />
    <glyph glyph-name="equal" unicode="=" horiz-adv-x="660" 
d="M579 378l1 -60h-500l-1 60h500zM579 184v-60h-500v60h500z" />
    <glyph glyph-name="greater" unicode="&#x3e;" horiz-adv-x="660" 
d="M500 251l-421 197l1 64l500 -235v-53l-501 -223l1 64z" />
    <glyph glyph-name="question" unicode="?" horiz-adv-x="500" 
d="M270 169h-60l23 108q8 31 44.5 66t76.5 62t77.5 68t46.5 83q14 65 -26 93t-110 28q-44 0 -97 -15l13 61q48 14 113 14q91 0 141.5 -46t31.5 -133q-8 -39 -32 -74.5t-45 -54t-65 -54.5l-44 -36.5l-33.5 -27.5t-19.5 -19.5t-14.5 -24t-5.5 -28.5zM182 86h80l-18 -86h-80z
" />
    <glyph glyph-name="at" unicode="@" horiz-adv-x="800" 
d="M319 290q-9 -38 6 -66t51 -28q63 1 133 91.5t85 166.5q7 30 -7.5 50.5t-44.5 20.5q-73 0 -140 -79t-83 -156zM650 520l24 46h66l-163 -300q-11 -19 -16.5 -31t-8 -23.5t4 -17t20.5 -5.5q60 0 125 77.5t83 160.5q25 117 -41.5 188.5t-183.5 71.5q-136 0 -245.5 -96.5
t-138.5 -233.5q-29 -135 42 -228.5t205 -93.5q78 0 156 35.5t136 99.5h58q-64 -85 -162.5 -135t-197.5 -50q-159 0 -244 110.5t-52 268.5q33 154 166.5 263.5t285.5 109.5q144 0 224 -89.5t51 -223.5q-24 -114 -117 -202t-176 -88q-29 0 -50 13.5t-23 38.5q-60 -50 -130 -50
q-62 0 -90.5 43t-14.5 106q23 108 114 204t195 96q36 0 63 -17t35 -48z" />
    <glyph glyph-name="A" unicode="A" horiz-adv-x="667" 
d="M227 255h315l-69 407zM76 0h-67l439 722h76l135 -722h-71l-36 195h-359z" />
    <glyph glyph-name="B" unicode="B" horiz-adv-x="667" 
d="M238 344l-60 -284h159q97 -2 153 30t73 112q9 45 -1.5 74t-41.5 43.5t-68 19.5t-94 5h-120zM251 404h157q71 0 126 31.5t70 99.5q8 38 -1 64t-32 39t-49.5 18.5t-61.5 5.5h-154zM375 0h-275l153 722l259 -1q84 0 132 -48.5t31 -131.5q-13 -59 -60.5 -104t-108.5 -59v-2
q73 -12 107 -59.5t18 -123.5q-17 -80 -82 -136.5t-174 -56.5z" />
    <glyph glyph-name="C" unicode="C" horiz-adv-x="667" 
d="M730 553h-70q4 62 -36.5 93t-107.5 31q-66 0 -121 -28t-91.5 -75.5t-60 -100.5t-35.5 -112q-15 -55 -12.5 -111.5t18 -102t59 -74t109.5 -28.5q65 0 122 33t83 97h70q-34 -88 -115.5 -139t-172.5 -51q-79 0 -134.5 30.5t-79.5 82.5t-30 120t13 143q34 161 135.5 268.5
t255.5 107.5q96 0 154.5 -46t46.5 -138z" />
    <glyph glyph-name="D" unicode="D" horiz-adv-x="722" 
d="M169 60h146q285 0 350 301q33 156 -37 231t-229 70h-102zM244 722h195q180 0 257 -92t39 -269q-38 -178 -154 -269.5t-295 -91.5h-195z" />
    <glyph glyph-name="E" unicode="E" horiz-adv-x="611" 
d="M546 0h-444l153 722h429l-12 -60h-364l-55 -259h350l-13 -60h-350l-60 -283h379z" />
    <glyph glyph-name="F" unicode="F" 
d="M160 0h-65l153 722h408l-12 -60h-343l-54 -255h331l-13 -60h-331z" />
    <glyph glyph-name="G" unicode="G" horiz-adv-x="722" 
d="M463 368h246l-72 -338q-124 -45 -268 -45q-145 0 -204.5 103t-23.5 273q32 152 136.5 264t251.5 112q97 0 160.5 -51t52.5 -142h-74q4 65 -39.5 99t-112.5 34q-62 0 -115.5 -28t-90.5 -74.5t-61.5 -100.5t-37.5 -113q-31 -146 17 -231t188 -85q58 0 166 30l49 233h-181z
" />
    <glyph glyph-name="H" unicode="H" horiz-adv-x="722" 
d="M164 0h-65l153 722h65l-67 -317h394l67 317h65l-153 -722h-65l73 345h-394z" />
    <glyph glyph-name="I" unicode="I" horiz-adv-x="278" 
d="M172 0h-65l154 725h65z" />
    <glyph glyph-name="J" unicode="J" horiz-adv-x="500" 
d="M51 178h70q-8 -59 21.5 -96t87.5 -37q64 0 106.5 53t58.5 127l105 497h65l-103 -487q-24 -118 -88 -179q-74 -71 -178 -71q-83 0 -117.5 53.5t-27.5 139.5z" />
    <glyph glyph-name="K" unicode="K" horiz-adv-x="611" 
d="M170 0h-64l153 722h64l-66 -318l390 318h82l-402 -326l279 -396h-89l-266 377z" />
    <glyph glyph-name="L" unicode="L" 
d="M528 0h-428l153 722h65l-140 -662h363z" />
    <glyph glyph-name="M" unicode="M" horiz-adv-x="944" 
d="M162 0h-65l153 722h104l138 -629l410 629h99l-153 -722h-65l142 667h-2l-418 -667h-65l-135 664h-2z" />
    <glyph glyph-name="N" unicode="N" horiz-adv-x="722" 
d="M92 0l153 722h74l263 -635h2l135 635h65l-153 -722h-82l-257 624h-2l-133 -624h-65z" />
    <glyph glyph-name="O" unicode="O" horiz-adv-x="778" 
d="M214 361q-15 -59 -10.5 -116t23 -101.5t63 -71.5t109.5 -27t120.5 27t94 72.5t65 100t39.5 116.5q15 59 10.5 116t-23 101.5t-63 71.5t-109.5 27q-126 0 -209 -92.5t-110 -223.5zM788 361q-37 -172 -143 -274t-259 -102t-216 102t-26 274t143 274t259 102t216 -102
t26 -274z" />
    <glyph glyph-name="P" unicode="P" horiz-adv-x="611" 
d="M306 662l-62 -288h158q183 0 214 144q7 42 0 70t-31 44.5t-53 23t-68 6.5h-158zM165 0h-65l153 722h181q58 1 104.5 -7t87 -29t57 -63.5t3.5 -104.5t-47.5 -104.5t-84 -63.5t-99.5 -29t-107 -7h-116z" />
    <glyph glyph-name="Q" unicode="Q" horiz-adv-x="778" 
d="M738 0h-147q-9 0 -35.5 2t-50.5 2t-42 -5q-47 -14 -77 -14q-153 0 -216 102t-26 274t143 274t259 102t216 -102t26 -274q-20 -92 -70.5 -174t-126.5 -132l1 -2q23 4 49 5t59.5 1t50.5 1zM214 361q-15 -59 -10.5 -116t23 -101.5t63 -71.5t109.5 -27t120.5 27t94 72.5
t65 100t39.5 116.5q15 59 10.5 116t-23 101.5t-63 71.5t-109.5 27q-126 0 -209 -92.5t-110 -223.5z" />
    <glyph glyph-name="R" unicode="R" horiz-adv-x="667" 
d="M254 404h139q34 0 57.5 1.5t56 8.5t53.5 20t40 38.5t26 60.5q5 24 4 43t-7 32t-16 23t-23 15.5t-27.5 9.5t-30 4.5t-30 1.5t-28.5 0h-13h-146zM241 344l-73 -344h-65l153 722h236q55 0 92.5 -7.5t69.5 -30.5q65 -44 42 -151q-12 -58 -58 -98.5t-114 -56.5v-2
q43 -7 64.5 -29.5t24 -55.5t-1.5 -76q-3 -30 -9 -74.5t-7.5 -62.5t0 -40t8.5 -38h-75q-7 48 7 150q6 47 8 72.5t0 50.5t-8.5 36t-22 20.5t-37 12t-55.5 2.5h-179z" />
    <glyph glyph-name="S" unicode="S" horiz-adv-x="611" 
d="M593 190q-16 -75 -67 -122.5t-114.5 -65t-141.5 -17.5q-88 0 -138 57.5t-34 145.5h70q-15 -77 27.5 -110t123.5 -33q67 0 128.5 37t74.5 102q19 89 -86 126q-12 4 -37 13q-116 38 -158 73q-70 56 -51 146t99.5 142.5t172.5 52.5q31 0 58.5 -4.5t56 -16.5t47.5 -30.5
t29.5 -49.5t6.5 -71h-70q8 42 -11 68t-50 35t-72 9q-64 0 -123 -32.5t-72 -93.5q-9 -41 7.5 -71t48.5 -47t72.5 -31t81 -30t71.5 -37t46 -58t4 -87z" />
    <glyph glyph-name="T" unicode="T" 
d="M248 0l140 662h-233l12 60h528l-12 -60h-229l-142 -662h-64z" />
    <glyph glyph-name="U" unicode="U" horiz-adv-x="722" 
d="M250 722h65l-99 -467q-17 -98 24.5 -154t130.5 -56t153.5 56t89.5 154l99 467h65l-99 -468q-27 -121 -110.5 -195t-210.5 -74t-179 74t-28 195z" />
    <glyph glyph-name="V" unicode="V" horiz-adv-x="611" 
d="M230 722l93 -657h2l368 657h65l-414 -722h-74l-111 722h71z" />
    <glyph glyph-name="W" unicode="W" horiz-adv-x="1000" 
d="M636 655l-346 -655h-92l-35 722h69l29 -657h2l350 657h79l81 -657h2l306 657h63l-343 -722h-89l-74 655h-2z" />
    <glyph glyph-name="X" unicode="X" horiz-adv-x="611" 
d="M370 323l-288 -323h-74l336 372l-170 350h85l140 -304l276 304h73l-324 -350l179 -372h-83z" />
    <glyph glyph-name="Y" unicode="Y" horiz-adv-x="611" 
d="M274 0l66 312l-179 410h83l147 -349l295 349h70l-350 -408l-67 -314h-65z" />
    <glyph glyph-name="Z" unicode="Z" 
d="M517 0h-478l13 60l529 602h-401l12 60h478l-12 -60l-530 -602h402z" />
    <glyph glyph-name="bracketleft" unicode="[" horiz-adv-x="278" 
d="M202 -96h-137l173 818h137l-10 -50h-72l-153 -718h72z" />
    <glyph glyph-name="backslash" unicode="\" horiz-adv-x="278" 
d="M258 0l-149 722h65l149 -722h-65z" />
    <glyph glyph-name="bracketright" unicode="]" horiz-adv-x="278" 
d="M209 722h137l-173 -818h-137l10 50h72l153 718h-72z" />
    <glyph glyph-name="asciicircum" unicode="^" horiz-adv-x="660" 
d="M132 239h-58l229 453h52l232 -453h-57l-202 392z" />
    <glyph glyph-name="underscore" unicode="_" horiz-adv-x="500" 
d="M474 -124h-500l12 56h500z" />
    <glyph glyph-name="grave" unicode="`" horiz-adv-x="278" 
d="M170 707h80l61 -143h-44z" />
    <glyph glyph-name="a" unicode="a" horiz-adv-x="500" 
d="M131 140q-11 -49 16 -74.5t76 -25.5q161 0 195 213q-10 0 -41 -0.5t-49.5 -1.5t-49 -4t-51 -10.5t-42 -19.5t-35 -31.5t-19.5 -45.5zM429 308l10 46q9 59 -15.5 83.5t-80.5 24.5q-113 0 -141 -87h-64q51 142 218 142q86 0 124 -41t19 -125l-51 -238q-7 -28 -19 -113h-62
l14 74h-2l-5 -7q-24 -33 -74.5 -57.5t-99.5 -24.5q-72 0 -110.5 42t-23.5 113q10 50 45.5 88t86.5 57q33 13 70 17.5t91 4.5t70 1z" />
    <glyph glyph-name="b" unicode="b" 
d="M390 462q-82 0 -134.5 -58t-70.5 -143q-10 -59 -7.5 -108t36.5 -81t96 -32q41 0 75 20.5t56 54.5t36.5 69t22.5 74q9 36 7 72.5t-12 65.5t-37 47.5t-68 18.5zM146 74l-19 -74h-62q26 98 29 113l129 609h60l-62 -294l2 -2q34 43 86.5 67t104.5 24q54 0 90.5 -23
t50.5 -60.5t17.5 -84.5t-8.5 -96q-11 -50 -32 -95.5t-53 -85t-77.5 -63.5t-97.5 -24q-112 0 -155 93z" />
    <glyph glyph-name="c" unicode="c" horiz-adv-x="500" 
d="M536 348h-65q16 114 -113 114q-67 0 -120.5 -61t-72.5 -149q-19 -89 9 -150.5t95 -61.5q58 0 102.5 32.5t58.5 84.5h65q-60 -172 -232 -172q-106 0 -147 77.5t-17 188.5q23 110 99 188t182 78q80 0 124.5 -45.5t31.5 -123.5z" />
    <glyph glyph-name="d" unicode="d" 
d="M480 263q18 84 -10 141.5t-110 57.5q-78 0 -127 -59t-67 -143q-8 -39 -9 -74.5t6.5 -70t32.5 -55t66 -20.5q91 0 144.5 63t73.5 160zM429 0l13 74l-1 4q-84 -93 -192 -93q-53 0 -89.5 24t-51 62.5t-18 86.5t9.5 95q23 109 90.5 186.5t171.5 77.5q52 0 94 -24t59 -67l2 2
l62 294h60l-129 -609q-8 -41 -19 -113h-62z" />
    <glyph glyph-name="e" unicode="e" 
d="M553 237h-388q-16 -87 15 -142t118 -55q53 0 100 34t70 86h63q-82 -175 -264 -175q-106 0 -147 77.5t-17 188.5q23 110 99 188t182 78q119 0 158 -76.5t11 -203.5zM179 292h321q11 76 -20.5 123t-106.5 47q-69 0 -120.5 -49t-73.5 -121z" />
    <glyph glyph-name="f" unicode="f" horiz-adv-x="333" 
d="M183 0h-60l95 447h-101l12 55h101l22 107q14 65 49 95t99 30q8 0 55 -11l-11 -48q-22 4 -36 4q-56 0 -75 -25t-30 -88l-13 -64h114l-12 -55h-114z" />
    <glyph glyph-name="g" unicode="g" 
d="M482 262q17 79 -13 139.5t-106 60.5q-75 0 -128 -61.5t-70 -140.5q-9 -34 -5.5 -70.5t14.5 -65.5t38.5 -48t66.5 -19q80 0 132.5 61t70.5 144zM517 428l19 74h62q-19 -65 -29 -113l-64 -301q-23 -106 -43 -146q-37 -77 -118 -111q-53 -23 -119 -23q-37 0 -68.5 7
t-58.5 21.5t-39 42t-4 64.5h65q-4 -41 33 -60.5t92 -19.5q61 0 114 39t67 100l20 94h-2q-30 -43 -81.5 -68.5t-101.5 -25.5q-107 0 -146 71t-16 182q24 112 93 187t177 75q100 0 145 -93z" />
    <glyph glyph-name="h" unicode="h" 
d="M293 722l-62 -296h2q70 91 176 91q39 0 67.5 -10.5t43 -29.5t22.5 -39.5t8 -45.5t-1.5 -42.5t-5.5 -35.5l-67 -314h-60l69 324q13 65 -14 101.5t-89 36.5q-70 0 -117.5 -50t-63.5 -123l-61 -289h-60l153 722h60z" />
    <glyph glyph-name="i" unicode="i" horiz-adv-x="222" 
d="M188 502h60l-107 -502h-60zM299 722l-15 -75h-70l15 75h70z" />
    <glyph glyph-name="j" unicode="j" horiz-adv-x="222" 
d="M-38 -192l12 55q14 0 24 1t18.5 1.5t15 5.5t11.5 7.5t9 12.5t7 14.5t6.5 20.5l5.5 24.5t6.5 31t7.5 35.5l103 485h60l-112 -524q-12 -57 -20 -83t-26.5 -50.5t-48 -31t-79.5 -5.5zM299 722l-15 -75h-70l15 75h70z" />
    <glyph glyph-name="k" unicode="k" horiz-adv-x="500" 
d="M299 722l-90 -425l287 205h77l-300 -217l213 -285h-76l-206 272l-58 -272h-60l153 722h60z" />
    <glyph glyph-name="l" unicode="l" horiz-adv-x="222" 
d="M294 722l-153 -722h-60l153 722h60z" />
    <glyph glyph-name="m" unicode="m" horiz-adv-x="889" 
d="M243 502l-13 -74l2 -2q70 91 176 91q59 0 96.5 -30t43.5 -80q91 110 196 110q39 0 67.5 -10.5t43 -29.5t22.5 -39.5t8 -45.5t-1.5 -42.5t-5.5 -35.5l-67 -314h-60l69 324q13 65 -14 101.5t-89 36.5q-70 0 -117.5 -50t-63.5 -123l-61 -289h-60l69 324q13 65 -14 101.5
t-89 36.5q-70 0 -117.5 -50t-63.5 -123l-61 -289h-60l83 389q5 23 11 63.5t8 49.5h62z" />
    <glyph glyph-name="n" unicode="n" 
d="M201 289l-61 -289h-60l83 389q5 23 11 63.5t8 49.5h62l-13 -74l2 -2q70 91 176 91q39 0 67.5 -10.5t43 -29.5t22.5 -39.5t8 -45.5t-1.5 -42.5t-5.5 -35.5l-67 -314h-60l69 324q13 65 -14 101.5t-89 36.5q-70 0 -117.5 -50t-63.5 -123z" />
    <glyph glyph-name="o" unicode="o" 
d="M500 251q10 35 6.5 72.5t-15.5 68t-42 50.5t-73 20q-83 0 -140 -65t-74 -146q-9 -35 -5.5 -72.5t15.5 -68t42 -50.5t73 -20q83 0 139.5 65t73.5 146zM388 517q58 0 99 -23t60 -60.5t25 -85.5t-7 -97q-23 -109 -100 -187.5t-190 -78.5q-58 0 -99.5 23t-60 60.5t-25 85.5
t6.5 97q23 108 100.5 187t190.5 79z" />
    <glyph glyph-name="p" unicode="p" 
d="M186 263q-10 -59 -7.5 -108.5t36 -82t95.5 -32.5q41 0 75 20.5t56 55t36.5 70t22.5 74.5q10 36 8 72t-12 65t-37.5 47t-68.5 18q-82 0 -134 -57t-70 -142zM147 78l-58 -270h-60l124 581q5 23 11.5 65t7.5 48h62l-13 -74l2 -2q34 43 86.5 67t104.5 24q54 0 90.5 -23
t50.5 -60.5t17.5 -84.5t-8.5 -96q-11 -50 -32 -95.5t-53 -85t-77.5 -63.5t-97.5 -24q-112 0 -155 93h-2z" />
    <glyph glyph-name="q" unicode="q" 
d="M482 263q18 84 -10 141.5t-110 57.5q-79 0 -128.5 -59.5t-67.5 -142.5q-8 -49 -9 -98t26 -85.5t81 -36.5q91 0 144.5 63t73.5 160zM517 428l19 74h62q-19 -65 -29 -113l-124 -580h-60l58 269h-2q-84 -93 -195 -93q-52 0 -88 24t-50 62.5t-17 86.5t9 95q23 109 90.5 186.5
t171.5 77.5q52 0 94 -23.5t59 -65.5l-1 -3h2z" />
    <glyph glyph-name="r" unicode="r" horiz-adv-x="333" 
d="M204 302l-64 -302h-60l83 389q5 23 11.5 65t7.5 48h62l-13 -74h2q22 39 58 63.5t74 25.5q20 1 60 -1l-13 -58q-3 0 -16 2t-20 2q-65 0 -109.5 -43t-62.5 -117z" />
    <glyph glyph-name="s" unicode="s" horiz-adv-x="500" 
d="M143 377q10 49 46 82t78 45.5t90 12.5q79 0 121.5 -32.5t31.5 -106.5h-65q6 44 -24 64t-82 20q-47 0 -84 -20t-46 -61q-5 -21 2.5 -35t28.5 -23.5t44.5 -16l63 -17.5t70.5 -23q36 -13 52 -44.5t8 -72.5q-17 -80 -88 -122t-158 -42q-34 0 -64 8.5t-54.5 25.5t-35.5 47.5
t-3 70.5h65q-8 -52 26.5 -74.5t92.5 -22.5q53 0 97 25.5t55 74.5q12 55 -53 80q-19 6 -85 22q-35 9 -56 16.5t-43.5 22.5t-30 39t-0.5 57z" />
    <glyph glyph-name="t" unicode="t" horiz-adv-x="333" 
d="M151 134l67 313h-100l12 55h100l22 107l66 26l-28 -133h114l-12 -55h-114l-71 -336q-17 -71 54 -71q33 0 53 6l-11 -52q-36 -9 -63 -9q-96 0 -100 67q-2 21 11 82z" />
    <glyph glyph-name="u" unicode="u" 
d="M461 213l62 289h60l-83 -389q-8 -41 -19 -113h-62l13 74l-2 2q-70 -91 -176 -91q-39 0 -67.5 10.5t-43 29.5t-22.5 39.5t-8 45.5t1.5 42.5t5.5 35.5l67 314h60l-69 -324q-14 -65 13.5 -101.5t89.5 -36.5q70 0 117.5 50t62.5 123z" />
    <glyph glyph-name="v" unicode="v" horiz-adv-x="500" 
d="M121 502h66l84 -419l256 419h66l-306 -502h-68z" />
    <glyph glyph-name="w" unicode="w" horiz-adv-x="833" 
d="M189 502l60 -423h2l242 423h71l59 -419h2l234 419h66l-294 -502h-57l-62 433h-2l-249 -433h-61l-77 502h66z" />
    <glyph glyph-name="x" unicode="x" horiz-adv-x="500" 
d="M317 300l194 202h63l-232 -243l141 -259h-79l-115 218l-204 -218h-68l2 2l247 255l-133 245h80z" />
    <glyph glyph-name="y" unicode="y" horiz-adv-x="500" 
d="M115 502h73l79 -420l258 420h65l-425 -694h-66l117 192z" />
    <glyph glyph-name="z" unicode="z" horiz-adv-x="444" 
d="M40 0l12 55l376 392h-293l12 55h364l-12 -55l-374 -392h291l-12 -55h-364z" />
    <glyph glyph-name="braceleft" unicode="{" horiz-adv-x="278" 
d="M238 -46l-10 -50h-50q-33 3 -54 33t-11 76l30 143q15 54 6.5 88.5t-51.5 39.5l12 55q45 5 65.5 36t34.5 94l30 144q10 46 43.5 76t67.5 33h50l-10 -50h-33q-42 -9 -56 -75l-31 -143q-18 -88 -95 -142q56 -48 35 -141l-30 -142q-14 -66 24 -75h33z" />
    <glyph glyph-name="bar" unicode="|" horiz-adv-x="407" 
d="M251 822h56v-1096h-56v1096z" />
    <glyph glyph-name="braceright" unicode="}" horiz-adv-x="278" 
d="M173 672l10 50h50q33 -3 54 -33t11 -76l-30 -143q-15 -55 -6.5 -89.5t50.5 -39.5l-11 -55q-44 -5 -65 -36t-35 -93l-30 -144q-10 -46 -43.5 -76t-67.5 -33h-50l10 50h33q42 9 56 75l31 143q18 88 95 142q-56 48 -35 141l30 142q14 66 -24 75h-33z" />
    <glyph glyph-name="asciitilde" unicode="~" horiz-adv-x="660" 
d="M289 319q39 0 109 -36q72 -36 96 -36q52 0 117 87l33 -34q-81 -109 -163 -109q-33 0 -126 42q-6 3 -22.5 12t-29.5 14t-26 5q-24 0 -51 -18t-40.5 -33.5l-36.5 -43.5l-23 47q26 30 44.5 47.5t52 36.5t66.5 19z" />
    <glyph glyph-name="uni00A0" unicode="&#xa0;" horiz-adv-x="278" 
 />
    <glyph glyph-name="exclamdown" unicode="&#xa1;" horiz-adv-x="389" 
d="M270 542h80l-18 -86h-80zM246 371h56l-104 -551h-82z" />
    <glyph glyph-name="cent" unicode="&#xa2;" 
d="M219 71l192 389q-20 2 -29 2q-67 0 -120.5 -61t-72.5 -149q-13 -57 -5 -105.5t35 -75.5zM437 514l62 125h44l-67 -134q47 -18 70 -58.5t14 -98.5h-65q12 77 -45 102l-198 -402q19 -8 41 -8q58 0 102.5 32.5t58.5 84.5h65q-60 -172 -232 -172q-37 0 -61 9l-63 -127h-45
l71 144q-50 32 -66.5 98.5t0.5 141.5q23 110 99 188t182 78q20 0 33 -3z" />
    <glyph glyph-name="sterling" unicode="&#xa3;" 
d="M505 0h-445l13 60h60l66 312h-74l13 60h75q10 60 27 105.5t47.5 86t81.5 62t121 21.5q79 0 124 -38t33 -105h-70q7 38 -23 60.5t-84 22.5q-74 0 -121 -48t-63 -125l-9 -42h162l-13 -60h-162l-66 -312h320z" />
    <glyph glyph-name="currency" unicode="&#xa4;" 
d="M55 110l52 42q-33 69 -16 148q17 82 80 151l-34 43l63 53l35 -43q75 49 165 49q75 0 135 -49l53 43l41 -53l-52 -43q33 -71 15 -156q-15 -72 -79 -143l34 -42l-63 -53l-35 43q-79 -50 -165 -50q-74 0 -135 50l-53 -43zM302 120q75 0 140 53.5t81 129.5q16 72 -25 126.5
t-113 53.5q-78 2 -143.5 -51.5t-80.5 -131.5q-17 -72 25.5 -126t115.5 -54z" />
    <glyph glyph-name="yen" unicode="&#xa5;" 
d="M312 0h-65l29 136h-203l13 60h203l12 60h-203l13 60h201l-164 376h83l133 -319l268 319h70l-322 -376h199l-13 -60h-200l-12 -60h200l-13 -60h-200z" />
    <glyph glyph-name="brokenbar" unicode="&#xa6;" horiz-adv-x="406" 
d="M251 740h55v-383h-55v383zM251 191h55v-382h-55v382z" />
    <glyph glyph-name="section" unicode="&#xa7;" 
d="M358 461q-3 -2 -25.5 -13.5t-28.5 -16l-20 -15.5t-20.5 -23t-9.5 -28q-3 -11 0.5 -22t8.5 -17.5t17 -14.5t18 -11t21.5 -10t17.5 -8q5 2 27 12.5t31 16t24 16t23 22.5t11 27q5 24 -10 39t-46.5 28.5t-38.5 17.5zM558 718l-12 -55q-15 7 -45.5 13t-49.5 6q-46 0 -85.5 -18
t-48.5 -60q-6 -28 15 -49.5t54.5 -35.5t67 -29.5t53.5 -41t13 -60.5q-15 -73 -130 -122q101 -42 84 -127q-16 -76 -81 -115t-144 -39q-71 0 -125 22l13 57q52 -24 119 -24q53 0 97.5 24t54.5 74q6 29 -17.5 48.5t-60 32t-73 26.5t-58 42.5t-12.5 71.5q9 40 47 71t86 50
q-39 24 -58 51.5t-10 69.5q15 70 73.5 103t131.5 33q33 0 101 -19z" />
    <glyph glyph-name="dieresis" unicode="&#xa8;" horiz-adv-x="278" 
d="M395 619h-74l18 88h74zM221 619h-74l18 88h74z" />
    <glyph glyph-name="copyright" unicode="&#xa9;" horiz-adv-x="800" 
d="M399 741q156 0 267 -110.5t111 -267.5q0 -158 -111.5 -269t-266.5 -111q-154 0 -266 111t-112 269q0 157 112.5 267.5t265.5 110.5zM399 700q-139 0 -238.5 -99t-99.5 -238q0 -142 99.5 -241t238.5 -99q140 0 238.5 99t98.5 241q0 138 -98 237.5t-239 99.5zM548 479h-43
q-5 38 -33.5 56.5t-68.5 18.5q-76 0 -110 -55.5t-34 -133.5t34 -133.5t110 -55.5q39 0 69 19.5t38 57.5h42q-9 -52 -52 -82.5t-97 -30.5q-93 0 -139.5 64t-46.5 161q0 96 47 160.5t139 64.5q58 0 99 -28t46 -83z" />
    <glyph glyph-name="ordfeminine" unicode="&#xaa;" horiz-adv-x="300" 
d="M354 574v-2q-6 0 -29 -0.5t-36 -1t-34.5 -4t-34 -9.5t-24 -18t-14.5 -28q-6 -29 8 -41t46 -12q100 0 120 116h-2zM362 612l6 27q4 35 -10 46.5t-51 11.5q-33 0 -54 -8.5t-30 -36.5h-46q30 85 140 85q117 0 95 -99l-35 -165q-2 -7 -3 -15t-1.5 -17t-1.5 -14h-46l5 40h-2
q-15 -20 -45 -34.5t-62 -14.5q-47 0 -72.5 25t-16.5 68q12 61 84 87q22 8 46.5 10.5t56 2.5t43.5 1z" />
    <glyph glyph-name="guillemotleft" unicode="&#xab;" 
d="M486 462h51l-134 -195l50 -195h-50l-64 195zM306 462h51l-134 -195l50 -195h-50l-64 195z" />
    <glyph glyph-name="logicalnot" unicode="&#xac;" horiz-adv-x="660" 
d="M520 112v206h-440l-1 60h500l1 -266h-60z" />
    <glyph glyph-name="uni00AD" unicode="&#xad;" horiz-adv-x="278" 
d="M63 237l13 60h252l-13 -60h-252z" />
    <glyph glyph-name="registered" unicode="&#xae;" horiz-adv-x="400" 
d="M148 566h41q18 0 29.5 1.5t22 11t10.5 26.5q0 18 -11 27t-20 10t-25 1h-4h-43v-77zM148 548v-103h-20v216h71q32 0 51 -11q22 -13 22 -45q0 -35 -42 -47q33 -6 36 -49q1 -8 2 -21.5t2 -19t3 -12t5 -11.5h-23q-5 15 -7 45q-3 39 -10.5 48.5t-36.5 9.5h-53zM199 741
q78 0 133.5 -55t55.5 -134t-55.5 -134.5t-133.5 -55.5q-77 0 -133 55.5t-56 134.5t56 134t133 55zM199 721q-70 0 -119.5 -49.5t-49.5 -119.5q0 -71 49.5 -120.5t119.5 -49.5t119 49.5t49 120.5q0 69 -49 119t-119 50z" />
    <glyph glyph-name="macron" unicode="&#xaf;" horiz-adv-x="278" 
d="M400 647h-245l12 60h245z" />
    <glyph glyph-name="degree" unicode="&#xb0;" horiz-adv-x="400" 
d="M468 557q-13 -62 -66 -106t-115 -44t-97 44t-22 106t66.5 106t115.5 44t96.5 -44.5t21.5 -105.5zM213 557q-10 -46 13.5 -75.5t69.5 -29.5q45 0 81 29.5t46 75.5q10 45 -13.5 75t-69.5 30q-45 0 -81.5 -30t-45.5 -75z" />
    <glyph glyph-name="plusminus" unicode="&#xb1;" horiz-adv-x="660" 
d="M299 330l1 172h60l-1 -172h220v-60h-220v-170h-60v170h-220v60h220zM80 0v60h500v-60h-500z" />
    <glyph glyph-name="twosuperior" unicode="&#xb2;" horiz-adv-x="360" 
d="M376 284h-282l9 41q261 184 278 267q6 28 -12.5 48t-53.5 20q-39 0 -68.5 -21t-35.5 -50h-48q11 54 57 86.5t106 32.5q56 0 88.5 -30.5t21.5 -82.5q-8 -35 -42.5 -78t-69 -72l-82 -66t-58.5 -47h202z" />
    <glyph glyph-name="threesuperior" unicode="&#xb3;" horiz-adv-x="360" 
d="M250 477l10 48q47 -5 85 13t47 60q5 27 -16.5 44.5t-61.5 17.5q-81 0 -103 -62h-54q10 50 57.5 80t103.5 30q63 0 101 -28t26 -84q-8 -37 -39.5 -61.5t-72.5 -32.5v-2q42 -8 63.5 -38t12.5 -71q-12 -55 -65 -86.5t-114 -31.5q-63 0 -98.5 30t-25.5 87h54
q-5 -30 17.5 -49.5t61.5 -19.5q46 0 77.5 20t39.5 55q9 45 -23 66.5t-83 14.5z" />
    <glyph glyph-name="acute" unicode="&#xb4;" horiz-adv-x="278" 
d="M328 707h80l-157 -143h-44z" />
    <glyph glyph-name="mu" unicode="&#xb5;" 
d="M461 213l62 289h60l-83 -389q-8 -41 -19 -113h-62l13 74l-2 2q-70 -91 -176 -91q-52 0 -112 25l-43 -202h-60l148 694h60l-69 -324q-14 -65 13.5 -101.5t89.5 -36.5q70 0 117.5 50t62.5 123z" />
    <glyph glyph-name="paragraph" unicode="&#xb6;" horiz-adv-x="650" 
d="M227 -146l102 482q-77 -1 -122 56t-29 134q20 94 89 145t175 51h217l-184 -868h-65l172 808h-118l-172 -808h-65z" />
    <glyph glyph-name="periodcentered" unicode="&#xb7;" horiz-adv-x="278" 
d="M241 294l-18 -86h-80l18 86h80z" />
    <glyph glyph-name="cedilla" unicode="&#xb8;" horiz-adv-x="278" 
d="M-6 -161l13 28q44 -18 83 -25q7 -1 22.5 2.5t22.5 8.5q15 11 19 32q4 19 -8.5 27.5t-32.5 8.5q-5 0 -10.5 -0.5t-12 -1.5t-10.5 -1l46 87h23l-27 -55q22 0 37 -2t29.5 -8.5t20 -21t0.5 -35.5q-7 -32 -39.5 -49t-67.5 -17q-15 0 -25.5 0.5t-22 3.5t-17 4t-21 6.5
t-22.5 7.5z" />
    <glyph glyph-name="onesuperior" unicode="&#xb9;" horiz-adv-x="360" 
d="M296 284h-51l76 356q-50 -36 -116 -62l11 50q59 20 118 65h49z" />
    <glyph glyph-name="ordmasculine" unicode="&#xba;" horiz-adv-x="334" 
d="M188 578q-10 -47 8.5 -83.5t67.5 -36.5t83.5 36.5t44.5 83.5q10 46 -9 82.5t-68 36.5t-83 -36t-44 -83zM324 737q73 0 102.5 -47t15.5 -112q-14 -66 -63.5 -113t-122.5 -47t-102.5 47t-15.5 113q14 65 63.5 112t122.5 47z" />
    <glyph glyph-name="guillemotright" unicode="&#xbb;" 
d="M183 72h-51l135 195l-51 195h50l65 -195zM363 72h-51l135 195l-51 195h50l65 -195z" />
    <glyph glyph-name="onequarter" unicode="&#xbc;" horiz-adv-x="834" 
d="M248 284h-51l76 356q-50 -36 -116 -62l11 50q59 20 118 65h49zM776 707l-565 -707h-55l567 707h53zM665 0l20 97h-195l8 37l243 281h63l-59 -274h67l-9 -44h-67l-20 -97h-51zM694 141l47 218h-1l-184 -218h138z" />
    <glyph glyph-name="onehalf" unicode="&#xbd;" horiz-adv-x="834" 
d="M250 284h-51l76 356q-50 -36 -116 -62l11 50q59 20 118 65h49zM770 707l-565 -707h-55l567 707h53zM797 0h-282l8 41q261 184 279 267q6 28 -13 48t-54 20q-39 0 -68.5 -21t-35.5 -50h-48q12 54 58 86.5t106 32.5q56 0 88.5 -30.5t21.5 -82.5q-8 -35 -42.5 -78
t-69.5 -72.5l-81.5 -66l-58.5 -46.5h202z" />
    <glyph glyph-name="threequarters" unicode="&#xbe;" horiz-adv-x="834" 
d="M255 477l10 48q47 -5 85 13t47 60q5 27 -16.5 44.5t-61.5 17.5q-81 0 -103 -62h-54q10 50 57.5 80t103.5 30q63 0 101 -28t26 -84q-8 -37 -39.5 -61.5t-72.5 -32.5v-2q42 -8 63.5 -38t12.5 -71q-12 -55 -65 -86.5t-114 -31.5q-63 0 -98.5 30t-25.5 87h54
q-5 -30 17.5 -49.5t61.5 -19.5q46 0 77.5 20t39.5 55q9 45 -23 66.5t-83 14.5zM833 707l-565 -707h-55l567 707h53zM678 0l20 97h-195l8 37l243 281h63l-59 -274h67l-9 -44h-67l-20 -97h-51zM707 141l47 218h-1l-184 -218h138z" />
    <glyph glyph-name="questiondown" unicode="&#xbf;" horiz-adv-x="500" 
d="M345 376h60l-23 -108q-8 -31 -44.5 -66t-77 -62t-77.5 -68t-46 -83q-14 -65 26 -93t110 -28q44 0 97 15l-13 -61q-48 -14 -113 -14q-91 0 -141.5 46t-31.5 133q8 39 32 74.5t45 54t65 54.5l44 36.5l33.5 27.5t19.5 19.5t14.5 24t5.5 28.5zM370 542h80l-18 -86h-80z" />
    <glyph glyph-name="Agrave" unicode="&#xc0;" horiz-adv-x="667" 
d="M227 255h315l-70 407zM76 0h-67l439 722h76l135 -722h-71l-36 195h-359zM412 927h80l60 -143h-44z" />
    <glyph glyph-name="Aacute" unicode="&#xc1;" horiz-adv-x="667" 
d="M227 255h315l-70 407zM76 0h-67l439 722h76l135 -722h-71l-36 195h-359zM570 927h80l-158 -143h-44z" />
    <glyph glyph-name="Acircumflex" unicode="&#xc2;" horiz-adv-x="667" 
d="M227 255h315l-70 407zM76 0h-67l439 722h76l135 -722h-71l-36 195h-359zM364 782l131 145h73l68 -145h-47l-67 106l-112 -106h-46z" />
    <glyph glyph-name="Atilde" unicode="&#xc3;" horiz-adv-x="667" 
d="M227 255h315l-70 407zM76 0h-67l439 722h76l135 -722h-71l-36 195h-359zM628 915h38q-40 -85 -109 -85q-19 0 -43 11q-30 10 -52 10q-40 0 -53 -29h-38q19 43 51.5 65t73.5 15q8 -1 38 -11q34 -9 37 -9q38 0 57 33z" />
    <glyph glyph-name="Adieresis" unicode="&#xc4;" horiz-adv-x="667" 
d="M227 255h315l-70 407zM76 0h-67l439 722h76l135 -722h-71l-36 195h-359zM636 839h-74l19 88h74zM462 839h-74l19 88h74z" />
    <glyph glyph-name="Aring" unicode="&#xc5;" horiz-adv-x="667" 
d="M227 255h315l-69 407zM76 0h-67l439 722h76l135 -722h-71l-36 195h-359zM423 869q8 38 41 65.5t71 27.5q39 0 60 -27.5t13 -65.5t-41 -65t-71 -27q-37 0 -59 27t-14 65zM571 869q5 23 -8 39.5t-36 16.5t-43 -16.5t-25 -39.5t8 -39.5t36 -16.5t43 16.5t25 39.5z" />
    <glyph glyph-name="AE" unicode="&#xc6;" horiz-adv-x="1000" 
d="M579 722h499l-12 -60h-389l-12 -259h328l-13 -60h-319l-13 -283h299l-13 -60h-356l8 196h-350l-156 -196h-72zM606 662l-324 -406h308l18 406h-2z" />
    <glyph glyph-name="Ccedilla" unicode="&#xc7;" horiz-adv-x="667" 
d="M214 -161l13 28q44 -18 83 -25q7 -1 22.5 2.5t22.5 8.5q15 11 19 32q4 19 -8.5 27.5t-32.5 8.5l-33 -3l37 70q-70 6 -118 38.5t-69 83t-25.5 115.5t13.5 136q34 161 135.5 268.5t255.5 107.5q96 0 154.5 -46t46.5 -138h-70q4 62 -36.5 93t-107.5 31q-66 0 -121 -28
t-91.5 -75.5t-60 -100.5t-35.5 -112q-15 -55 -12.5 -111.5t18 -102t59 -74t109.5 -28.5q65 0 122 33t83 97h70q-34 -88 -115.5 -139t-172.5 -51q-7 0 -9 1l-18 -36q22 0 37 -2t29.5 -8.5t20 -21t0.5 -35.5q-7 -32 -39.5 -49t-67.5 -17q-15 0 -25.5 0.5t-22 3.5t-17 4
t-21 6.5t-22.5 7.5z" />
    <glyph glyph-name="Egrave" unicode="&#xc8;" horiz-adv-x="611" 
d="M546 0h-444l153 722h429l-13 -60h-364l-55 -259h350l-13 -60h-350l-60 -283h379zM384 927h80l60 -143h-44z" />
    <glyph glyph-name="Eacute" unicode="&#xc9;" horiz-adv-x="611" 
d="M546 0h-444l153 722h429l-13 -60h-364l-55 -259h350l-13 -60h-350l-60 -283h379zM542 927h80l-158 -143h-44z" />
    <glyph glyph-name="Ecircumflex" unicode="&#xca;" horiz-adv-x="611" 
d="M546 0h-444l153 722h429l-13 -60h-364l-55 -259h350l-13 -60h-350l-60 -283h379zM336 782l131 145h73l68 -145h-47l-67 106l-112 -106h-46z" />
    <glyph glyph-name="Edieresis" unicode="&#xcb;" horiz-adv-x="611" 
d="M546 0h-444l153 722h429l-13 -60h-364l-55 -259h350l-13 -60h-350l-60 -283h379zM608 839h-74l19 88h74zM434 839h-74l19 88h74z" />
    <glyph glyph-name="Igrave" unicode="&#xcc;" horiz-adv-x="278" 
d="M172 0h-65l153 722h65zM217 927h80l60 -143h-44z" />
    <glyph glyph-name="Iacute" unicode="&#xcd;" horiz-adv-x="278" 
d="M172 0h-65l153 722h65zM375 927h80l-158 -143h-44z" />
    <glyph glyph-name="Icircumflex" unicode="&#xce;" horiz-adv-x="278" 
d="M172 0h-65l153 722h65zM169 782l131 145h73l68 -145h-47l-67 106l-112 -106h-46z" />
    <glyph glyph-name="Idieresis" unicode="&#xcf;" horiz-adv-x="278" 
d="M172 0h-65l153 722h65zM438 824h-74l18 88h74zM264 824h-74l18 88h74z" />
    <glyph glyph-name="Eth" unicode="&#xd0;" horiz-adv-x="722" 
d="M297 662l-52 -242h216l-9 -45h-216l-67 -315h146q285 0 350 301q33 156 -37 231t-229 70h-102zM91 0l80 375h-68l9 45h68l64 302h195q180 0 257 -92t39 -269q-38 -178 -154 -269.5t-295 -91.5h-195z" />
    <glyph glyph-name="Ntilde" unicode="&#xd1;" horiz-adv-x="722" 
d="M92 0l153 722h74l263 -635h2l135 635h65l-153 -722h-82l-258 624h-2l-132 -624h-65zM655 915h38q-40 -85 -109 -85q-19 0 -43 11q-30 10 -52 10q-40 0 -53 -29h-38q19 43 51.5 65t73.5 15q8 -1 38 -11q34 -9 37 -9q38 0 57 33z" />
    <glyph glyph-name="Ograve" unicode="&#xd2;" horiz-adv-x="778" 
d="M213 361q-15 -59 -10 -116t23 -101.5t62.5 -71.5t109.5 -27q85 0 154 47t108.5 116.5t56.5 152.5q11 49 12 94t-10 85.5t-33.5 70.5t-62 48t-91.5 18q-66 0 -121.5 -26.5t-94 -72.5t-64 -100.5t-39.5 -116.5zM787 361q-37 -172 -143 -274t-259 -102t-216 102t-26 274
t143 274t259 102t216 -102t26 -274zM467 927h80l60 -143h-44z" />
    <glyph glyph-name="Oacute" unicode="&#xd3;" horiz-adv-x="778" 
d="M213 361q-15 -59 -10 -116t23 -101.5t62.5 -71.5t109.5 -27q85 0 154 47t108.5 116.5t56.5 152.5q11 49 12 94t-10 85.5t-33.5 70.5t-62 48t-91.5 18q-66 0 -121.5 -26.5t-94 -72.5t-64 -100.5t-39.5 -116.5zM787 361q-37 -172 -143 -274t-259 -102t-216 102t-26 274
t143 274t259 102t216 -102t26 -274zM625 927h80l-158 -143h-44z" />
    <glyph glyph-name="Ocircumflex" unicode="&#xd4;" horiz-adv-x="778" 
d="M213 361q-15 -59 -10 -116t23 -101.5t62.5 -71.5t109.5 -27q85 0 154 47t108.5 116.5t56.5 152.5q11 49 12 94t-10 85.5t-33.5 70.5t-62 48t-91.5 18q-66 0 -121.5 -26.5t-94 -72.5t-64 -100.5t-39.5 -116.5zM787 361q-37 -172 -143 -274t-259 -102t-216 102t-26 274
t143 274t259 102t216 -102t26 -274zM419 782l131 145h73l68 -145h-47l-67 106l-112 -106h-46z" />
    <glyph glyph-name="Otilde" unicode="&#xd5;" horiz-adv-x="778" 
d="M213 361q-15 -59 -10 -116t23 -101.5t62.5 -71.5t109.5 -27q85 0 154 47t108.5 116.5t56.5 152.5q11 49 12 94t-10 85.5t-33.5 70.5t-62 48t-91.5 18q-66 0 -121.5 -26.5t-94 -72.5t-64 -100.5t-39.5 -116.5zM787 361q-37 -172 -143 -274t-259 -102t-216 102t-26 274
t143 274t259 102t216 -102t26 -274zM683 915h38q-40 -85 -109 -85q-19 0 -43 11q-30 10 -52 10q-40 0 -53 -29h-38q19 43 51.5 65t73.5 15q7 -1 38 -11q34 -9 37 -9q38 0 57 33z" />
    <glyph glyph-name="Odieresis" unicode="&#xd6;" horiz-adv-x="778" 
d="M213 361q-15 -59 -10 -116t23 -101.5t62.5 -71.5t109.5 -27q85 0 154 47t108.5 116.5t56.5 152.5q11 49 12 94t-10 85.5t-33.5 70.5t-62 48t-91.5 18q-66 0 -121.5 -26.5t-94 -72.5t-64 -100.5t-39.5 -116.5zM787 361q-37 -172 -143 -274t-259 -102t-216 102t-26 274
t143 274t259 102t216 -102t26 -274zM691 839h-74l19 88h74zM517 839h-74l19 88h74z" />
    <glyph glyph-name="multiply" unicode="&#xd7;" horiz-adv-x="660" 
d="M331 216l-215 -210l-36 36l214 211l-214 211l37 38l214 -212l212 212l37 -38l-212 -211l212 -211l-38 -36z" />
    <glyph glyph-name="Oslash" unicode="&#xd8;" horiz-adv-x="778" 
d="M220 160l477 433q-48 84 -164 84q-126 0 -209 -92.5t-110 -223.5q-26 -120 6 -201zM179 76l-99 -91l-23 27l104 94q-51 94 -17 255q37 172 143 274t259 102q141 0 208 -92l102 92l21 -25l-105 -97q49 -98 16 -254q-37 -172 -143 -274t-259 -102q-141 0 -207 91zM712 561
l-476 -434q48 -82 163 -82q65 0 120.5 27t94 72.5t65 100t39.5 116.5q24 117 -6 200z" />
    <glyph glyph-name="Ugrave" unicode="&#xd9;" horiz-adv-x="722" 
d="M250 722h65l-99 -467q-17 -99 23.5 -154.5t130.5 -55.5t154.5 55.5t89.5 154.5l99 467h65l-100 -468q-27 -122 -110 -195.5t-211 -73.5q-127 0 -178.5 73.5t-28.5 195.5zM439 927h80l60 -143h-44z" />
    <glyph glyph-name="Uacute" unicode="&#xda;" horiz-adv-x="722" 
d="M250 722h65l-99 -467q-17 -99 23.5 -154.5t130.5 -55.5t154.5 55.5t89.5 154.5l99 467h65l-100 -468q-27 -122 -110 -195.5t-211 -73.5q-127 0 -178.5 73.5t-28.5 195.5zM597 927h80l-158 -143h-44z" />
    <glyph glyph-name="Ucircumflex" unicode="&#xdb;" horiz-adv-x="722" 
d="M250 722h65l-99 -467q-17 -99 23.5 -154.5t130.5 -55.5t154.5 55.5t89.5 154.5l99 467h65l-100 -468q-27 -122 -110 -195.5t-211 -73.5q-127 0 -178.5 73.5t-28.5 195.5zM391 782l131 145h73l68 -145h-47l-67 106l-112 -106h-46z" />
    <glyph glyph-name="Udieresis" unicode="&#xdc;" horiz-adv-x="722" 
d="M250 722h65l-99 -467q-17 -99 23.5 -154.5t130.5 -55.5t154.5 55.5t89.5 154.5l99 467h65l-100 -468q-27 -122 -110 -195.5t-211 -73.5q-127 0 -178.5 73.5t-28.5 195.5zM663 839h-74l19 88h74zM489 839h-74l19 88h74z" />
    <glyph glyph-name="Yacute" unicode="&#xdd;" horiz-adv-x="611" 
d="M274 0l66 312l-179 410h83l147 -349l295 349h70l-351 -408l-66 -314h-65zM542 927h80l-158 -143h-44z" />
    <glyph glyph-name="Thorn" unicode="&#xde;" horiz-adv-x="611" 
d="M273 507l-61 -288h158q182 0 213 144q7 42 0 70t-31 44.5t-53 23t-68 6.5h-158zM100 0l153 722h65l-32 -155h143q56 0 97.5 -8t77.5 -29t49 -63t0 -104t-44 -104t-76 -63t-90 -29t-101 -8h-143l-34 -159h-65z" />
    <glyph glyph-name="germandbls" unicode="&#xdf;" horiz-adv-x="611" 
d="M251 488l-104 -488h-60l108 509q24 106 87.5 167t166.5 61q74 0 118 -41.5t29 -113.5q-7 -34 -44 -68.5t-73 -63t-40 -48.5q-5 -27 12.5 -48t46 -37.5t56 -35.5t43 -51.5t6.5 -75.5q-17 -78 -76 -123.5t-132 -45.5q-72 0 -107 41.5t-22 114.5h65q-11 -45 10 -73t64 -28
q51 0 85.5 28t46.5 83q7 32 -10 56.5t-45 42l-56 35.5t-44.5 46t-8.5 64q6 29 30 56t50 45t49.5 41.5t28.5 46.5q10 47 -21 72.5t-80 25.5q-52 0 -91 -31.5t-58 -72t-30 -90.5z" />
    <glyph glyph-name="agrave" unicode="&#xe0;" horiz-adv-x="500" 
d="M281 707h80l60 -143h-44zM130 140q-9 -49 17 -74.5t75 -25.5q147 0 189 181q2 6 3.5 17.5t3.5 16.5q-13 2 -70 2q-192 0 -218 -117zM429 308l10 46q11 59 -14 83.5t-82 24.5q-113 0 -142 -87h-64q51 142 218 142q179 0 144 -161l-51 -243q-10 -36 -19 -113h-62l13 74h-2
l-4 -7q-26 -35 -71 -58.5t-104 -23.5q-72 0 -110.5 42t-23.5 113q11 50 46 86.5t85 55.5q70 26 233 26z" />
    <glyph glyph-name="aacute" unicode="&#xe1;" horiz-adv-x="500" 
d="M439 707h80l-158 -143h-44zM130 140q-9 -49 17 -74.5t75 -25.5q147 0 189 181q2 6 3.5 17.5t3.5 16.5q-13 2 -70 2q-192 0 -218 -117zM429 308l10 46q11 59 -14 83.5t-82 24.5q-113 0 -142 -87h-64q51 142 218 142q179 0 144 -161l-51 -243q-10 -36 -19 -113h-62l13 74
h-2l-4 -7q-26 -35 -71 -58.5t-104 -23.5q-72 0 -110.5 42t-23.5 113q11 50 46 86.5t85 55.5q70 26 233 26z" />
    <glyph glyph-name="acircumflex" unicode="&#xe2;" horiz-adv-x="500" 
d="M233 562l131 145h73l68 -145h-47l-67 106l-112 -106h-46zM130 140q-9 -49 17 -74.5t75 -25.5q147 0 189 181q2 6 3.5 17.5t3.5 16.5q-13 2 -70 2q-192 0 -218 -117zM429 308l10 46q11 59 -14 83.5t-82 24.5q-113 0 -142 -87h-64q51 142 218 142q179 0 144 -161l-51 -243
q-10 -36 -19 -113h-62l13 74h-2l-4 -7q-26 -35 -71 -58.5t-104 -23.5q-72 0 -110.5 42t-23.5 113q11 50 46 86.5t85 55.5q70 26 233 26z" />
    <glyph glyph-name="atilde" unicode="&#xe3;" horiz-adv-x="500" 
d="M497 695h38q-16 -37 -44.5 -61t-64.5 -24q-19 0 -43 11q-26 10 -51 10q-38 0 -54 -29h-38q19 43 51.5 65t73.5 15q8 -1 38 -11q34 -9 37 -9q38 0 57 33zM130 140q-9 -49 17 -74.5t75 -25.5q147 0 189 181q2 6 3.5 17.5t3.5 16.5q-13 2 -70 2q-192 0 -218 -117zM429 308
l10 46q11 59 -14 83.5t-82 24.5q-113 0 -142 -87h-64q51 142 218 142q179 0 144 -161l-51 -243q-10 -36 -19 -113h-62l13 74h-2l-4 -7q-26 -35 -71 -58.5t-104 -23.5q-72 0 -110.5 42t-23.5 113q11 50 46 86.5t85 55.5q70 26 233 26z" />
    <glyph glyph-name="adieresis" unicode="&#xe4;" horiz-adv-x="500" 
d="M505 641h-67l16 78h67zM338 641h-67l16 78h67zM130 140q-9 -49 17 -74.5t75 -25.5q147 0 189 181q2 6 3.5 17.5t3.5 16.5q-13 2 -70 2q-192 0 -218 -117zM429 308l10 46q11 59 -14 83.5t-82 24.5q-113 0 -142 -87h-64q51 142 218 142q179 0 144 -161l-51 -243
q-10 -36 -19 -113h-62l13 74h-2l-4 -7q-26 -35 -71 -58.5t-104 -23.5q-72 0 -110.5 42t-23.5 113q11 50 46 86.5t85 55.5q70 26 233 26z" />
    <glyph glyph-name="aring" unicode="&#xe5;" horiz-adv-x="500" 
d="M296 650q8 38 41 65.5t70 27.5q38 0 60 -27.5t14 -65.5q-7 -37 -41 -64.5t-72 -27.5t-59 27t-13 65zM444 650q5 23 -8 39.5t-36 16.5t-43 -16.5t-25 -39.5t8 -39.5t36 -16.5t43 16.5t25 39.5zM130 140q-9 -49 17 -74.5t75 -25.5q147 0 189 181q2 6 3.5 17.5t3.5 16.5
q-13 2 -70 2q-192 0 -218 -117zM429 308l10 46q11 59 -14 83.5t-82 24.5q-113 0 -142 -87h-64q51 142 218 142q179 0 144 -161l-51 -243q-10 -36 -19 -113h-62l13 74h-2l-4 -7q-26 -35 -71 -58.5t-104 -23.5q-72 0 -110.5 42t-23.5 113q11 50 46 86.5t85 55.5q70 26 233 26z
" />
    <glyph glyph-name="ae" unicode="&#xe6;" horiz-adv-x="833" 
d="M492 299h285q15 72 -11 117.5t-101 45.5q-64 0 -113.5 -51.5t-59.5 -111.5zM202 375h-64q51 142 218 142q55 -4 94.5 -31t40.5 -74h2q32 50 80 76.5t96 28.5q76 0 119 -37.5t49.5 -98t-7.5 -137.5h-350q-10 -52 -9.5 -97.5t26.5 -76t76 -30.5q53 0 100 34t70 86h63
q-82 -175 -244 -175q-56 5 -94 35t-48 84q-63 -109 -220 -119q-72 0 -110.5 42t-23.5 113q19 92 130 137q33 13 69 17.5t93 4t69 0.5l11 55q9 59 -15 83.5t-80 24.5q-113 0 -141 -87zM415 243l-77 1q-34 0 -55.5 -1t-50.5 -7.5t-47 -18.5t-34 -35t-23 -56q-9 -41 22.5 -63.5
t74.5 -22.5q46 0 80.5 16.5t56 47t33.5 63.5t20 76z" />
    <glyph glyph-name="ccedilla" unicode="&#xe7;" horiz-adv-x="500" 
d="M124 -161l13 28q44 -18 83 -25q7 -1 22.5 2.5t22.5 8.5q15 11 19 32q4 19 -8.5 27.5t-32.5 8.5q-5 0 -10.5 -0.5t-12 -1.5t-10.5 -1l36 68q-50 3 -84.5 26.5t-50.5 60t-20 83t8 95.5q23 110 99 188t182 78q80 0 124.5 -45.5t31.5 -123.5h-65q16 114 -113 114
q-67 0 -120.5 -61t-72.5 -149q-19 -89 9 -150.5t95 -61.5q58 0 102.5 32.5t58.5 84.5h65q-60 -169 -225 -171l-18 -36q22 0 37 -2t29.5 -8.5t20 -21t0.5 -35.5q-7 -32 -39.5 -49t-67.5 -17q-15 0 -25.5 0.5t-22 3.5t-17 4t-21 6.5t-22.5 7.5z" />
    <glyph glyph-name="egrave" unicode="&#xe8;" 
d="M553 237h-388q-18 -87 13.5 -142t118.5 -55q53 0 100 33.5t71 86.5h63q-82 -175 -265 -175q-54 0 -92.5 22.5t-56 59.5t-22.5 85t8 99q23 110 98.5 188t181.5 78q81 0 126 -37.5t51.5 -100t-7.5 -142.5zM179 292h321q10 77 -21 123.5t-106 46.5q-69 0 -120.5 -49
t-73.5 -121zM309 707h80l60 -143h-44z" />
    <glyph glyph-name="eacute" unicode="&#xe9;" 
d="M553 237h-388q-18 -87 13.5 -142t118.5 -55q53 0 100 33.5t71 86.5h63q-82 -175 -265 -175q-54 0 -92.5 22.5t-56 59.5t-22.5 85t8 99q23 110 98.5 188t181.5 78q81 0 126 -37.5t51.5 -100t-7.5 -142.5zM179 292h321q10 77 -21 123.5t-106 46.5q-69 0 -120.5 -49
t-73.5 -121zM467 707h80l-158 -143h-44z" />
    <glyph glyph-name="ecircumflex" unicode="&#xea;" 
d="M553 237h-388q-18 -87 13.5 -142t118.5 -55q53 0 100 33.5t71 86.5h63q-82 -175 -265 -175q-54 0 -92.5 22.5t-56 59.5t-22.5 85t8 99q23 110 98.5 188t181.5 78q81 0 126 -37.5t51.5 -100t-7.5 -142.5zM179 292h321q10 77 -21 123.5t-106 46.5q-69 0 -120.5 -49
t-73.5 -121zM261 562l131 145h73l68 -145h-47l-67 106l-112 -106h-46z" />
    <glyph glyph-name="edieresis" unicode="&#xeb;" 
d="M553 237h-388q-18 -87 13.5 -142t118.5 -55q53 0 100 33.5t71 86.5h63q-82 -175 -265 -175q-54 0 -92.5 22.5t-56 59.5t-22.5 85t8 99q23 110 98.5 188t181.5 78q81 0 126 -37.5t51.5 -100t-7.5 -142.5zM179 292h321q10 77 -21 123.5t-106 46.5q-69 0 -120.5 -49
t-73.5 -121zM539 645h-67l16 78h67zM372 645h-67l16 78h67z" />
    <glyph glyph-name="igrave" unicode="&#xec;" horiz-adv-x="222" 
d="M141 0h-60l106 502h60zM142 707h80l60 -143h-44z" />
    <glyph glyph-name="iacute" unicode="&#xed;" horiz-adv-x="222" 
d="M141 0h-60l106 502h60zM300 707h80l-158 -143h-44z" />
    <glyph glyph-name="icircumflex" unicode="&#xee;" horiz-adv-x="222" 
d="M141 0h-60l106 502h60zM94 562l131 145h73l68 -145h-47l-67 106l-112 -106h-46z" />
    <glyph glyph-name="idieresis" unicode="&#xef;" horiz-adv-x="222" 
d="M141 0h-60l106 502h60zM367 645h-67l16 78h67zM200 645h-67l16 78h67z" />
    <glyph glyph-name="eth" unicode="&#xf0;" 
d="M303 697l26 40q67 -16 117 -45l105 58l24 -28l-96 -53q150 -119 90 -401q-28 -133 -104.5 -208t-189.5 -75q-58 0 -99.5 22t-60.5 57.5t-26 80.5t5 92q22 103 97.5 178t182.5 75q126 0 151 -129l2 2q10 78 -12.5 153.5t-89.5 122.5l-105 -57l-23 29l94 51q-35 19 -88 35z
M159 237q-9 -33 -5 -68.5t16 -64.5t42.5 -48t73.5 -19q83 0 139 61.5t72 138.5q9 33 5 69t-15.5 65t-42 48t-73.5 19q-83 0 -139 -62t-73 -139z" />
    <glyph glyph-name="ntilde" unicode="&#xf1;" 
d="M201 289l-61 -289h-60l82 389q9 46 19 113h62l-13 -74l2 -2q69 91 176 91q39 0 67.5 -10.5t43 -29t22.5 -39.5t8.5 -45.5t-1.5 -42.5t-6 -36l-66 -314h-60l68 324q14 66 -13 102t-89 36q-70 0 -118 -50t-63 -123zM525 695h38q-16 -37 -44.5 -61t-64.5 -24q-19 0 -43 11
q-26 10 -51 10q-38 0 -54 -29h-38q19 43 51.5 65t73.5 15q7 -1 38 -11q34 -9 37 -9q38 0 57 33z" />
    <glyph glyph-name="ograve" unicode="&#xf2;" 
d="M500 251q9 35 5.5 72.5t-15 68t-41 50.5t-73.5 20q-83 0 -140.5 -65.5t-73.5 -145.5q-8 -49 -4 -96t38 -81t90 -34q84 0 139.5 64.5t74.5 146.5zM387 517q76 0 123 -39.5t56.5 -98.5t-1.5 -128q-24 -109 -101 -187.5t-190 -78.5q-57 0 -98.5 23t-60.5 60.5t-25 85.5t7 97
q22 108 100 187t190 79zM309 707h80l60 -143h-44z" />
    <glyph glyph-name="oacute" unicode="&#xf3;" 
d="M500 251q9 35 5.5 72.5t-15 68t-41 50.5t-73.5 20q-83 0 -140.5 -65.5t-73.5 -145.5q-8 -49 -4 -96t38 -81t90 -34q84 0 139.5 64.5t74.5 146.5zM387 517q76 0 123 -39.5t56.5 -98.5t-1.5 -128q-24 -109 -101 -187.5t-190 -78.5q-57 0 -98.5 23t-60.5 60.5t-25 85.5t7 97
q22 108 100 187t190 79zM467 707h80l-158 -143h-44z" />
    <glyph glyph-name="ocircumflex" unicode="&#xf4;" 
d="M500 251q9 35 5.5 72.5t-15 68t-41 50.5t-73.5 20q-83 0 -140.5 -65.5t-73.5 -145.5q-8 -49 -4 -96t38 -81t90 -34q84 0 139.5 64.5t74.5 146.5zM387 517q76 0 123 -39.5t56.5 -98.5t-1.5 -128q-24 -109 -101 -187.5t-190 -78.5q-57 0 -98.5 23t-60.5 60.5t-25 85.5t7 97
q22 108 100 187t190 79zM261 562l131 145h73l68 -145h-47l-67 106l-112 -106h-46z" />
    <glyph glyph-name="otilde" unicode="&#xf5;" 
d="M500 251q9 35 5.5 72.5t-15 68t-41 50.5t-73.5 20q-83 0 -140.5 -65.5t-73.5 -145.5q-8 -49 -4 -96t38 -81t90 -34q84 0 139.5 64.5t74.5 146.5zM387 517q76 0 123 -39.5t56.5 -98.5t-1.5 -128q-24 -109 -101 -187.5t-190 -78.5q-57 0 -98.5 23t-60.5 60.5t-25 85.5t7 97
q22 108 100 187t190 79zM525 695h38q-16 -37 -44.5 -61t-64.5 -24q-19 0 -43 11q-26 10 -51 10q-38 0 -54 -29h-38q19 43 51.5 65t73.5 15q7 -1 38 -11q34 -9 37 -9q38 0 57 33z" />
    <glyph glyph-name="odieresis" unicode="&#xf6;" 
d="M500 251q9 35 5.5 72.5t-15 68t-41 50.5t-73.5 20q-83 0 -140.5 -65.5t-73.5 -145.5q-8 -49 -4 -96t38 -81t90 -34q84 0 139.5 64.5t74.5 146.5zM387 517q76 0 123 -39.5t56.5 -98.5t-1.5 -128q-24 -109 -101 -187.5t-190 -78.5q-57 0 -98.5 23t-60.5 60.5t-25 85.5t7 97
q22 108 100 187t190 79zM531 645h-67l16 78h67zM364 645h-67l16 78h67z" />
    <glyph glyph-name="divide" unicode="&#xf7;" horiz-adv-x="660" 
d="M80 221v60h500v-60h-500zM368 0h-75v88h75v-88zM368 414h-75v88h75v-88z" />
    <glyph glyph-name="oslash" unicode="&#xf8;" 
d="M167 127l315 280q-33 55 -106 55q-83 0 -140 -65t-74 -146q-14 -71 5 -124zM495 377l-315 -280q33 -57 107 -57q83 0 139.5 65t73.5 146q15 71 -5 126zM35 10l77 68q-36 71 -15 173q23 108 100.5 187t190.5 79q99 0 145 -64l73 64l19 -25l-74 -66q36 -74 14 -175
q-23 -109 -100 -187.5t-190 -78.5q-100 0 -147 65l-74 -65z" />
    <glyph glyph-name="ugrave" unicode="&#xf9;" 
d="M461 213l61 289h60l-82 -389q-8 -32 -19 -113h-62l12 74l-1 2q-71 -91 -177 -91q-47 0 -78 16t-44 38t-17 53t-2 52t7 44l67 314h60l-69 -324q-14 -66 13 -102t90 -36q70 0 118 50t63 123zM309 707h80l60 -143h-44z" />
    <glyph glyph-name="uacute" unicode="&#xfa;" 
d="M461 213l61 289h60l-82 -389q-8 -32 -19 -113h-62l12 74l-1 2q-71 -91 -177 -91q-47 0 -78 16t-44 38t-17 53t-2 52t7 44l67 314h60l-69 -324q-14 -66 13 -102t90 -36q70 0 118 50t63 123zM467 707h80l-158 -143h-44z" />
    <glyph glyph-name="ucircumflex" unicode="&#xfb;" 
d="M461 213l61 289h60l-82 -389q-8 -32 -19 -113h-62l12 74l-1 2q-71 -91 -177 -91q-47 0 -78 16t-44 38t-17 53t-2 52t7 44l67 314h60l-69 -324q-14 -66 13 -102t90 -36q70 0 118 50t63 123zM261 562l131 145h73l68 -145h-47l-67 106l-112 -106h-46z" />
    <glyph glyph-name="udieresis" unicode="&#xfc;" 
d="M461 213l61 289h60l-82 -389q-8 -32 -19 -113h-62l12 74l-1 2q-71 -91 -177 -91q-47 0 -78 16t-44 38t-17 53t-2 52t7 44l67 314h60l-69 -324q-14 -66 13 -102t90 -36q70 0 118 50t63 123zM535 645h-67l16 78h67zM368 645h-67l16 78h67z" />
    <glyph glyph-name="yacute" unicode="&#xfd;" horiz-adv-x="500" 
d="M439 707h80l-158 -143h-44zM114 502h73l82 -426l255 426h65l-424 -694h-66l117 192z" />
    <glyph glyph-name="thorn" unicode="&#xfe;" 
d="M186 263q-10 -59 -7.5 -108.5t36 -82t95.5 -32.5q41 0 75 20.5t56 55t36.5 70t22.5 74.5q10 36 8 72t-12 65t-37.5 47t-68.5 18q-82 0 -134 -57t-70 -142zM147 78l-58 -270h-60l194 914h60l-62 -294l2 -2q34 43 86.5 67t104.5 24q54 0 90.5 -23t50.5 -60.5t17.5 -84.5
t-8.5 -96q-11 -50 -32 -95.5t-53 -85t-77.5 -63.5t-97.5 -24q-112 0 -155 93h-2z" />
    <glyph glyph-name="ydieresis" unicode="&#xff;" horiz-adv-x="500" 
d="M505 641h-67l16 78h67zM338 641h-67l16 78h67zM114 502h73l82 -426l255 426h65l-424 -694h-66l117 192z" />
    <glyph glyph-name="Amacron" unicode="&#x100;" horiz-adv-x="667" 
d="M227 255h315l-69 407zM76 0h-67l439 722h76l135 -722h-71l-36 195h-359zM631 843h-245l11 50h245z" />
    <glyph glyph-name="amacron" unicode="&#x101;" horiz-adv-x="500" 
d="M131 140q-11 -49 16 -74.5t76 -25.5q161 0 195 213q-10 0 -41 -0.5t-49.5 -1.5t-49 -4t-51 -10.5t-42 -19.5t-35 -31.5t-19.5 -45.5zM429 308l10 46q9 59 -15.5 83.5t-80.5 24.5q-113 0 -141 -87h-64q51 142 218 142q86 0 124 -41t19 -125l-51 -238q-7 -28 -19 -113h-62
l14 74h-2l-5 -7q-24 -33 -74.5 -57.5t-99.5 -24.5q-72 0 -110.5 42t-23.5 113q10 50 45.5 88t86.5 57q33 13 70 17.5t91 4.5t70 1zM513 647h-245l12 60h245z" />
    <glyph glyph-name="Abreve" unicode="&#x102;" horiz-adv-x="667" 
d="M227 255h315l-69 407zM76 0h-67l439 722h76l135 -722h-71l-36 195h-359zM622 937h21q-31 -108 -148 -108q-52 0 -79.5 28t-16.5 80h23q0 -33 24.5 -47.5t58.5 -14.5q86 0 117 62z" />
    <glyph glyph-name="abreve" unicode="&#x103;" horiz-adv-x="500" 
d="M131 140q-11 -49 16 -74.5t76 -25.5q161 0 195 213q-10 0 -41 -0.5t-49.5 -1.5t-49 -4t-51 -10.5t-42 -19.5t-35 -31.5t-19.5 -45.5zM429 308l10 46q9 59 -15.5 83.5t-80.5 24.5q-113 0 -141 -87h-64q51 142 218 142q86 0 124 -41t19 -125l-51 -238q-7 -28 -19 -113h-62
l14 74h-2l-5 -7q-24 -33 -74.5 -57.5t-99.5 -24.5q-72 0 -110.5 42t-23.5 113q10 50 45.5 88t86.5 57q33 13 70 17.5t91 4.5t70 1zM502 717h21q-31 -108 -148 -108q-52 0 -79.5 28t-16.5 80h23q0 -33 24.5 -47.5t58.5 -14.5q86 0 117 62z" />
    <glyph glyph-name="Aogonek" unicode="&#x104;" horiz-adv-x="667" 
d="M623 -134l-7 -34q-40 -14 -72 -14q-34 0 -57.5 17t-14.5 57q12 64 119 108h-3l-36 195h-359l-117 -195h-67l439 722h76l135 -722h-28q-56 -31 -81 -52t-31 -51q-9 -42 41 -42q27 0 63 11zM227 255h315l-70 407z" />
    <glyph glyph-name="aogonek" unicode="&#x105;" horiz-adv-x="500" 
d="M429 308l10 46q11 59 -14 83.5t-82 24.5q-113 0 -142 -87h-64q51 142 218 142q179 0 144 -161l-51 -243q-10 -36 -19 -113h-12q-56 -31 -81 -52t-31 -51q-9 -42 41 -42q27 0 63 11l-7 -34q-40 -14 -72 -14q-34 0 -57.5 17t-14.5 57q12 64 119 108h-10l13 74h-2l-4 -7
q-26 -35 -71 -58.5t-104 -23.5q-72 0 -110.5 42t-23.5 113q11 50 46 86.5t85 55.5q70 26 233 26zM130 140q-9 -49 17 -74.5t75 -25.5q147 0 189 181q2 6 3.5 17.5t3.5 16.5q-13 2 -70 2q-192 0 -218 -117z" />
    <glyph glyph-name="Cacute" unicode="&#x106;" horiz-adv-x="667" 
d="M730 553h-70q4 62 -36.5 93t-107.5 31q-66 0 -121 -28t-91.5 -75.5t-60 -100.5t-35.5 -112q-15 -55 -12.5 -111.5t18 -102t59 -74t109.5 -28.5q65 0 122 33t83 97h70q-34 -88 -115.5 -139t-172.5 -51q-79 0 -134.5 30.5t-79.5 82.5t-30 120t13 143q34 161 135.5 268.5
t255.5 107.5q96 0 154.5 -46t46.5 -138zM616 927h80l-158 -143h-44z" />
    <glyph glyph-name="cacute" unicode="&#x107;" horiz-adv-x="500" 
d="M536 348h-65q16 114 -113 114q-67 0 -120.5 -61t-72.5 -149q-19 -89 9 -150.5t95 -61.5q58 0 102.5 32.5t58.5 84.5h65q-60 -172 -232 -172q-106 0 -147 77.5t-17 188.5q23 110 99 188t182 78q80 0 124.5 -45.5t31.5 -123.5zM462 707h80l-157 -143h-44z" />
    <glyph glyph-name="Ccircumflex" unicode="&#x108;" horiz-adv-x="667" 
d="M730 553h-70q4 62 -36.5 93t-107.5 31q-66 0 -121 -28t-91.5 -75.5t-60 -100.5t-35.5 -112q-15 -55 -12.5 -111.5t18 -102t59 -74t109.5 -28.5q65 0 122 33t83 97h70q-34 -88 -115.5 -139t-172.5 -51q-79 0 -134.5 30.5t-79.5 82.5t-30 120t13 143q34 161 135.5 268.5
t255.5 107.5q96 0 154.5 -46t46.5 -138zM403 782l131 145h73l68 -145h-47l-67 106l-112 -106h-46z" />
    <glyph glyph-name="ccircumflex" unicode="&#x109;" horiz-adv-x="500" 
d="M536 348h-65q16 114 -113 114q-67 0 -120.5 -61t-72.5 -149q-19 -89 9 -150.5t95 -61.5q58 0 102.5 32.5t58.5 84.5h65q-60 -172 -232 -172q-106 0 -147 77.5t-17 188.5q23 110 99 188t182 78q80 0 124.5 -45.5t31.5 -123.5zM250 562l131 145h73l68 -145h-47l-66 106
l-113 -106h-46z" />
    <glyph glyph-name="Cdotaccent" unicode="&#x10a;" horiz-adv-x="667" 
d="M730 553h-70q4 62 -36.5 93t-107.5 31q-66 0 -121 -28t-91.5 -75.5t-60 -100.5t-35.5 -112q-15 -55 -12.5 -111.5t18 -102t59 -74t109.5 -28.5q65 0 122 33t83 97h70q-34 -88 -115.5 -139t-172.5 -51q-79 0 -134.5 30.5t-79.5 82.5t-30 120t13 143q34 161 135.5 268.5
t255.5 107.5q96 0 154.5 -46t46.5 -138zM581 839h-74l19 88h74z" />
    <glyph glyph-name="cdotaccent" unicode="&#x10b;" horiz-adv-x="500" 
d="M536 348h-65q16 114 -113 114q-67 0 -120.5 -61t-72.5 -149q-19 -89 9 -150.5t95 -61.5q58 0 102.5 32.5t58.5 84.5h65q-60 -172 -232 -172q-106 0 -147 77.5t-17 188.5q23 110 99 188t182 78q80 0 124.5 -45.5t31.5 -123.5zM434 619h-74l19 88h74z" />
    <glyph glyph-name="Ccaron" unicode="&#x10c;" horiz-adv-x="667" 
d="M730 553h-70q4 62 -36.5 93t-107.5 31q-66 0 -121 -28t-91.5 -75.5t-60 -100.5t-35.5 -112q-15 -55 -12.5 -111.5t18 -102t59 -74t109.5 -28.5q65 0 122 33t83 97h70q-34 -88 -115.5 -139t-172.5 -51q-79 0 -134.5 30.5t-79.5 82.5t-30 120t13 143q34 161 135.5 268.5
t255.5 107.5q96 0 154.5 -46t46.5 -138zM715 927l-131 -145h-73l-68 145h47l66 -106l113 106h46z" />
    <glyph glyph-name="ccaron" unicode="&#x10d;" horiz-adv-x="500" 
d="M536 348h-65q16 114 -113 114q-67 0 -120.5 -61t-72.5 -149q-19 -89 9 -150.5t95 -61.5q58 0 102.5 32.5t58.5 84.5h65q-60 -172 -232 -172q-106 0 -147 77.5t-17 188.5q23 110 99 188t182 78q80 0 124.5 -45.5t31.5 -123.5zM556 707l-131 -145h-73l-68 145h47l66 -106
l113 106h46z" />
    <glyph glyph-name="Dcaron" unicode="&#x10e;" horiz-adv-x="722" 
d="M169 60h146q285 0 350 301q33 156 -37 231t-229 70h-102zM244 722h195q180 0 257 -92t39 -269q-38 -178 -154 -269.5t-295 -91.5h-195zM626 927l-131 -145h-73l-68 145h47l66 -106l113 106h46z" />
    <glyph glyph-name="dcaron" unicode="&#x10f;" 
d="M480 263q18 84 -10 141.5t-110 57.5q-78 0 -127 -59t-67 -143q-8 -39 -9 -74.5t6.5 -70t32.5 -55t66 -20.5q91 0 144.5 63t73.5 160zM429 0l13 74l-1 4q-84 -93 -192 -93q-53 0 -89.5 24t-51 62.5t-18 86.5t9.5 95q23 109 90.5 186.5t171.5 77.5q52 0 94 -24t59 -67l2 2
l62 294h60l-129 -609q-8 -41 -19 -113h-62zM733 722h66l-95 -146h-40z" />
    <glyph glyph-name="Dcroat" unicode="&#x110;" horiz-adv-x="722" 
d="M296 662l-51 -242h216l-10 -45h-216l-67 -315h146q147 0 234 79.5t116 221.5q34 156 -36.5 230.5t-229.5 70.5h-102zM91 0l79 375h-68l10 45h68l64 302h195q181 0 257 -91t38 -270q-38 -178 -153.5 -269.5t-294.5 -91.5h-195z" />
    <glyph glyph-name="dcroat" unicode="&#x111;" 
d="M679 583h-70l-99 -470q-7 -32 -19 -113h-62l12 74l-1 4q-85 -93 -192 -93q-53 0 -89.5 24t-51 62.5t-18 86.5t9.5 95q22 108 90 186t172 78q53 0 94.5 -23.5t58.5 -67.5l2 2l33 155h-129l8 37h129l22 102h60l-22 -102h70zM479 263q9 52 4.5 96.5t-36 73.5t-87.5 29
q-78 0 -128 -60t-66 -142q-9 -38 -10 -74t6.5 -70t32.5 -55t66 -21q91 0 144.5 63t73.5 160z" />
    <glyph glyph-name="Emacron" unicode="&#x112;" horiz-adv-x="611" 
d="M546 0h-444l153 722h429l-12 -60h-364l-55 -259h350l-13 -60h-350l-60 -283h379zM604 843h-245l11 50h245z" />
    <glyph glyph-name="emacron" unicode="&#x113;" 
d="M553 237h-388q-16 -87 15 -142t118 -55q53 0 100 34t70 86h63q-82 -175 -264 -175q-106 0 -147 77.5t-17 188.5q23 110 99 188t182 78q119 0 158 -76.5t11 -203.5zM179 292h321q11 76 -20.5 123t-106.5 47q-69 0 -120.5 -49t-73.5 -121zM543 647h-245l12 60h245z" />
    <glyph glyph-name="Ebreve" unicode="&#x114;" horiz-adv-x="611" 
d="M546 0h-444l153 722h429l-12 -60h-364l-55 -259h350l-13 -60h-350l-60 -283h379zM601 937h21q-31 -108 -148 -108q-52 0 -79.5 28t-16.5 80h23q0 -33 24.5 -47.5t58.5 -14.5q86 0 117 62z" />
    <glyph glyph-name="ebreve" unicode="&#x115;" 
d="M553 237h-388q-16 -87 15 -142t118 -55q53 0 100 34t70 86h63q-82 -175 -264 -175q-106 0 -147 77.5t-17 188.5q23 110 99 188t182 78q119 0 158 -76.5t11 -203.5zM179 292h321q11 76 -20.5 123t-106.5 47q-69 0 -120.5 -49t-73.5 -121zM534 717h21q-31 -108 -148 -108
q-52 0 -79.5 28t-16.5 80h23q0 -33 24.5 -47.5t58.5 -14.5q86 0 117 62z" />
    <glyph glyph-name="Edotaccent" unicode="&#x116;" horiz-adv-x="611" 
d="M546 0h-444l153 722h429l-12 -60h-364l-55 -259h350l-13 -60h-350l-60 -283h379zM525 839h-74l19 88h74z" />
    <glyph glyph-name="edotaccent" unicode="&#x117;" 
d="M553 237h-388q-16 -87 15 -142t118 -55q53 0 100 34t70 86h63q-82 -175 -264 -175q-106 0 -147 77.5t-17 188.5q23 110 99 188t182 78q119 0 158 -76.5t11 -203.5zM179 292h321q11 76 -20.5 123t-106.5 47q-69 0 -120.5 -49t-73.5 -121zM453 619h-74l19 88h74z" />
    <glyph glyph-name="Eogonek" unicode="&#x118;" horiz-adv-x="611" 
d="M512 -134l-7 -34q-40 -14 -72 -14q-34 0 -57.5 17t-14.5 57q12 64 119 108h-378l153 722h429l-13 -60h-364l-55 -259h350l-13 -60h-350l-60 -283h379l-12 -60h-26q-56 -31 -81 -52t-31 -51q-9 -42 41 -42q27 0 63 11z" />
    <glyph glyph-name="eogonek" unicode="&#x119;" 
d="M334 -134l-7 -34q-40 -14 -72 -14q-34 0 -57.5 17t-14.5 57q12 56 84 93h-1q-54 0 -92.5 22.5t-56 59.5t-22.5 85t8 99q23 110 98.5 188t181.5 78q81 0 126 -37.5t51.5 -100t-7.5 -142.5h-388q-18 -87 13.5 -142t118.5 -55q53 0 100 33.5t71 86.5h63q-71 -148 -209 -171
q-45 -26 -65.5 -45.5t-26.5 -46.5q-9 -42 41 -42q27 0 63 11zM179 292h321q10 77 -21 123.5t-106 46.5q-69 0 -120.5 -49t-73.5 -121z" />
    <glyph glyph-name="Ecaron" unicode="&#x11a;" horiz-adv-x="611" 
d="M546 0h-444l153 722h429l-12 -60h-364l-55 -259h350l-13 -60h-350l-60 -283h379zM633 927l-131 -145h-73l-68 145h47l66 -106l113 106h46z" />
    <glyph glyph-name="ecaron" unicode="&#x11b;" 
d="M553 237h-388q-16 -87 15 -142t118 -55q53 0 100 34t70 86h63q-82 -175 -264 -175q-106 0 -147 77.5t-17 188.5q23 110 99 188t182 78q119 0 158 -76.5t11 -203.5zM179 292h321q11 76 -20.5 123t-106.5 47q-69 0 -120.5 -49t-73.5 -121zM564 707l-131 -145h-73l-68 145
h47l66 -106l113 106h46z" />
    <glyph glyph-name="Gcircumflex" unicode="&#x11c;" horiz-adv-x="722" 
d="M463 368h246l-72 -338q-122 -45 -269 -45q-145 0 -205 103.5t-23 272.5q33 153 137 264.5t251 111.5q97 0 160.5 -51t52.5 -142h-74q6 65 -38.5 99t-113.5 34q-62 0 -115.5 -28t-90.5 -74.5t-61.5 -100.5t-37.5 -113q-32 -146 17 -231t188 -85q56 0 166 30l50 233h-181z
M397 782l131 145h73l68 -145h-47l-67 106l-112 -106h-46z" />
    <glyph glyph-name="gcircumflex" unicode="&#x11d;" 
d="M482 262q17 79 -13 139.5t-106 60.5q-75 0 -128 -61.5t-70 -140.5q-9 -34 -5.5 -70.5t14.5 -65.5t38.5 -48t66.5 -19q80 0 132.5 61t70.5 144zM517 428l19 74h62q-19 -65 -29 -113l-64 -301q-23 -106 -43 -146q-37 -77 -118 -111q-53 -23 -119 -23q-37 0 -68.5 7
t-58.5 21.5t-39 42t-4 64.5h65q-4 -41 33 -60.5t92 -19.5q61 0 114 39t67 100l20 94h-2q-30 -43 -81.5 -68.5t-101.5 -25.5q-107 0 -146 71t-16 182q24 112 93 187t177 75q100 0 145 -93zM254 562l131 145h73l68 -145h-47l-66 106l-113 -106h-46z" />
    <glyph glyph-name="Gbreve" unicode="&#x11e;" horiz-adv-x="722" 
d="M463 368h246l-72 -338q-122 -45 -269 -45q-145 0 -205 103.5t-23 272.5q33 153 137 264.5t251 111.5q97 0 160.5 -51t52.5 -142h-74q6 65 -38.5 99t-113.5 34q-62 0 -115.5 -28t-90.5 -74.5t-61.5 -100.5t-37.5 -113q-32 -146 17 -231t188 -85q56 0 166 30l50 233h-181z
M673 937h21q-31 -108 -148 -108q-52 0 -79.5 28t-16.5 80h23q0 -33 24.5 -47.5t58.5 -14.5q86 0 117 62z" />
    <glyph glyph-name="gbreve" unicode="&#x11f;" 
d="M482 262q17 79 -13 139.5t-106 60.5q-75 0 -128 -61.5t-70 -140.5q-9 -34 -5.5 -70.5t14.5 -65.5t38.5 -48t66.5 -19q80 0 132.5 61t70.5 144zM517 428l19 74h62q-19 -65 -29 -113l-64 -301q-23 -106 -43 -146q-37 -77 -118 -111q-53 -23 -119 -23q-37 0 -68.5 7
t-58.5 21.5t-39 42t-4 64.5h65q-4 -41 33 -60.5t92 -19.5q61 0 114 39t67 100l20 94h-2q-30 -43 -81.5 -68.5t-101.5 -25.5q-107 0 -146 71t-16 182q24 112 93 187t177 75q100 0 145 -93zM528 717h21q-31 -108 -148 -108q-52 0 -79.5 28t-16.5 80h23q0 -33 24.5 -47.5
t58.5 -14.5q86 0 117 62z" />
    <glyph glyph-name="Gdotaccent" unicode="&#x120;" horiz-adv-x="722" 
d="M463 368h246l-72 -338q-122 -45 -269 -45q-145 0 -205 103.5t-23 272.5q33 153 137 264.5t251 111.5q97 0 160.5 -51t52.5 -142h-74q6 65 -38.5 99t-113.5 34q-62 0 -115.5 -28t-90.5 -74.5t-61.5 -100.5t-37.5 -113q-32 -146 17 -231t188 -85q56 0 166 30l50 233h-181z
M585 839h-74l19 88h74z" />
    <glyph glyph-name="gdotaccent" unicode="&#x121;" 
d="M482 262q17 79 -13 139.5t-106 60.5q-75 0 -128 -61.5t-70 -140.5q-9 -34 -5.5 -70.5t14.5 -65.5t38.5 -48t66.5 -19q80 0 132.5 61t70.5 144zM517 428l19 74h62q-19 -65 -29 -113l-64 -301q-23 -106 -43 -146q-37 -77 -118 -111q-53 -23 -119 -23q-37 0 -68.5 7
t-58.5 21.5t-39 42t-4 64.5h65q-4 -41 33 -60.5t92 -19.5q61 0 114 39t67 100l20 94h-2q-30 -43 -81.5 -68.5t-101.5 -25.5q-107 0 -146 71t-16 182q24 112 93 187t177 75q100 0 145 -93zM436 619h-74l19 88h74z" />
    <glyph glyph-name="Gcommaaccent" unicode="&#x122;" horiz-adv-x="722" 
d="M463 368h246l-72 -338q-122 -45 -269 -45q-145 0 -205 103.5t-23 272.5q33 153 137 264.5t251 111.5q97 0 160.5 -51t52.5 -142h-74q6 65 -38.5 99t-113.5 34q-62 0 -115.5 -28t-90.5 -74.5t-61.5 -100.5t-37.5 -113q-32 -146 17 -231t188 -85q56 0 166 30l50 233h-181z
M327 -74h67l-90 -145h-43z" />
    <glyph glyph-name="gcommaaccent" unicode="&#x123;" 
d="M482 262q17 79 -13 139.5t-106 60.5q-75 0 -128 -61.5t-70 -140.5q-9 -34 -5.5 -70.5t14.5 -65.5t38.5 -48t66.5 -19q80 0 132.5 61t70.5 144zM517 428l19 74h62q-19 -65 -29 -113l-64 -301q-23 -106 -43 -146q-37 -77 -118 -111q-53 -23 -119 -23q-37 0 -68.5 7
t-58.5 21.5t-39 42t-4 64.5h65q-4 -41 33 -60.5t92 -19.5q61 0 114 39t67 100l20 94h-2q-30 -43 -81.5 -68.5t-101.5 -25.5q-107 0 -146 71t-16 182q24 112 93 187t177 75q100 0 145 -93zM419 564h-67l90 145h43z" />
    <glyph glyph-name="Hcircumflex" unicode="&#x124;" horiz-adv-x="722" 
d="M164 0h-65l153 722h65l-67 -317h394l67 317h65l-153 -722h-65l73 345h-394zM389 782l131 145h73l68 -145h-47l-67 106l-112 -106h-46z" />
    <glyph glyph-name="hcircumflex" unicode="&#x125;" 
d="M293 722l-62 -296h2q70 91 176 91q39 0 67.5 -10.5t43 -29.5t22.5 -39.5t8 -45.5t-1.5 -42.5t-5.5 -35.5l-67 -314h-60l69 324q13 65 -14 101.5t-89 36.5q-70 0 -117.5 -50t-63.5 -123l-61 -289h-60l153 722h60zM152 761l131 145h73l68 -145h-47l-66 106l-113 -106h-46z
" />
    <glyph glyph-name="Hbar" unicode="&#x126;" horiz-adv-x="722" 
d="M164 0h-65l153 722h65l-39 -185h394l39 185h65l-153 -722h-65l73 345h-394zM250 405h394l19 90h-394z" />
    <glyph glyph-name="hbar" unicode="&#x127;" 
d="M293 722l-22 -102h126l-8 -37h-126l-33 -157h2q69 91 176 91q39 0 67.5 -10.5t43 -29t22.5 -39.5t8.5 -45.5t-1.5 -42.5t-6 -36l-66 -314h-60l68 324q14 66 -13 102t-89 36q-70 0 -118 -50t-63 -123l-61 -289h-60l123 583h-73l8 37h73l22 102h60z" />
    <glyph glyph-name="Itilde" unicode="&#x128;" horiz-adv-x="278" 
d="M172 0h-65l154 725h65zM423 915h38q-40 -85 -109 -85q-19 0 -43 11q-30 10 -52 10q-40 0 -53 -29h-38q19 43 51.5 65t73.5 15q8 -1 38 -11q34 -9 37 -9q38 0 57 33z" />
    <glyph glyph-name="itilde" unicode="&#x129;" horiz-adv-x="222" 
d="M141 0h-60l107 502h60zM361 695h38q-40 -85 -109 -85q-16 0 -43 11q-28 10 -52 10q-40 0 -53 -29h-38q18 42 51 64.5t74 15.5q10 -1 38 -11q31 -9 37 -9q37 0 57 33z" />
    <glyph glyph-name="Imacron" unicode="&#x12a;" horiz-adv-x="278" 
d="M172 0h-65l154 725h65zM432 843h-245l11 50h245z" />
    <glyph glyph-name="imacron" unicode="&#x12b;" horiz-adv-x="222" 
d="M141 0h-60l107 502h60zM374 647h-245l12 60h245z" />
    <glyph glyph-name="Ibreve" unicode="&#x12c;" horiz-adv-x="278" 
d="M172 0h-65l154 725h65zM439 937h21q-31 -108 -148 -108q-52 0 -79.5 28t-16.5 80h23q0 -33 24.5 -47.5t58.5 -14.5q86 0 117 62z" />
    <glyph glyph-name="ibreve" unicode="&#x12d;" horiz-adv-x="222" 
d="M141 0h-60l107 502h60zM364 717h21q-31 -108 -148 -108q-52 0 -79.5 28t-16.5 80h23q0 -33 24.5 -47.5t58.5 -14.5q86 0 117 62z" />
    <glyph glyph-name="Iogonek" unicode="&#x12e;" horiz-adv-x="278" 
d="M153 -134l-7 -34q-40 -14 -72 -14q-34 0 -57.5 17t-14.5 57q12 64 119 108h-14l153 722h65l-153 -722h-11q-56 -31 -81 -52t-31 -51q-9 -42 41 -42q27 0 63 11z" />
    <glyph glyph-name="iogonek" unicode="&#x12f;" horiz-adv-x="222" 
d="M127 -134l-7 -34q-40 -14 -72 -14q-35 0 -57.5 17t-13.5 57q12 63 118 108h-14l106 502h60l-106 -502h-6q-56 -31 -81 -52t-31 -51q-9 -42 41 -42q27 0 63 11zM299 722l-16 -75h-70l16 75h70z" />
    <glyph glyph-name="Idotaccent" unicode="&#x130;" horiz-adv-x="278" 
d="M172 0h-65l154 725h65zM352 839h-74l19 88h74z" />
    <glyph glyph-name="dotlessi" unicode="&#x131;" horiz-adv-x="222" 
d="M141 0h-60l107 502h60z" />
    <glyph glyph-name="Jcircumflex" unicode="&#x134;" horiz-adv-x="500" 
d="M51 178h70q-8 -59 21.5 -96t87.5 -37q64 0 106.5 53t58.5 127l105 497h65l-103 -487q-24 -118 -88 -179q-74 -71 -178 -71q-83 0 -117.5 53.5t-27.5 139.5zM395 782l131 145h73l68 -145h-47l-67 106l-112 -106h-46z" />
    <glyph glyph-name="jcircumflex" unicode="&#x135;" horiz-adv-x="222" 
d="M-37 -192l11 55q15 0 26 0.5t20 4t15 5.5t11.5 11t8 14t7 20.5t6.5 25.5l7 33.5t9 39.5l103 485h60l-111 -524q-8 -35 -12 -50.5t-11.5 -39.5t-14.5 -33t-19.5 -22t-28 -16.5t-37 -6.5t-50.5 -2zM95 562l131 145h73l68 -145h-47l-66 106l-113 -106h-46z" />
    <glyph glyph-name="Kcommaaccent" unicode="&#x136;" horiz-adv-x="611" 
d="M170 0h-64l153 722h64l-66 -318l390 318h82l-402 -326l279 -396h-89l-266 377zM292 -74h67l-90 -145h-43z" />
    <glyph glyph-name="kcommaaccent" unicode="&#x137;" horiz-adv-x="500" 
d="M299 722l-90 -425l287 205h77l-300 -217l213 -285h-76l-206 272l-58 -272h-60l153 722h60zM214 -74h67l-90 -145h-43z" />
    <glyph glyph-name="kgreenlandic" unicode="&#x138;" horiz-adv-x="500" 
d="M252 502l-43 -205l286 205h77l-300 -217l214 -285h-76l-207 272l-57 -272h-60l106 502h60z" />
    <glyph glyph-name="Lacute" unicode="&#x139;" 
d="M528 0h-428l153 722h65l-140 -662h363zM386 927h80l-158 -143h-44z" />
    <glyph glyph-name="lacute" unicode="&#x13a;" horiz-adv-x="222" 
d="M294 722l-153 -722h-60l153 722h60zM363 898h80l-157 -143h-44z" />
    <glyph glyph-name="Lcommaaccent" unicode="&#x13b;" 
d="M528 0h-428l153 722h65l-140 -662h363zM274 -74h67l-90 -145h-43z" />
    <glyph glyph-name="lcommaaccent" unicode="&#x13c;" horiz-adv-x="222" 
d="M294 722l-153 -722h-60l153 722h60zM68 -74h67l-90 -145h-43z" />
    <glyph glyph-name="Lcaron" unicode="&#x13d;" 
d="M528 0h-428l153 722h65l-140 -662h363zM524 722h66l-95 -146h-40z" />
    <glyph glyph-name="lcaron" unicode="&#x13e;" horiz-adv-x="222" 
d="M294 722l-153 -722h-60l153 722h60zM399 722h66l-95 -146h-40z" />
    <glyph glyph-name="Ldot" unicode="&#x13f;" 
d="M528 0h-428l153 722h65l-140 -662h363zM514 362h-74l19 88h74z" />
    <glyph glyph-name="ldot" unicode="&#x140;" horiz-adv-x="311" 
d="M294 722l-153 -722h-60l153 722h60zM372 340h-74l19 88h74z" />
    <glyph glyph-name="Lslash" unicode="&#x141;" 
d="M528 0h-428l85 399l-102 -37l8 40l102 37l60 283h65l-54 -257l102 37l-9 -40l-102 -37l-77 -365h363z" />
    <glyph glyph-name="lslash" unicode="&#x142;" horiz-adv-x="222" 
d="M234 722h60l-53 -250l83 30l-8 -34l-82 -31l-93 -437h-60l88 413l-83 -30l8 34l82 31z" />
    <glyph glyph-name="Nacute" unicode="&#x143;" horiz-adv-x="722" 
d="M92 0l153 722h74l263 -635h2l135 635h65l-153 -722h-82l-257 624h-2l-133 -624h-65zM615 927h80l-158 -143h-44z" />
    <glyph glyph-name="nacute" unicode="&#x144;" 
d="M201 289l-61 -289h-60l83 389q5 23 11 63.5t8 49.5h62l-13 -74l2 -2q70 91 176 91q39 0 67.5 -10.5t43 -29.5t22.5 -39.5t8 -45.5t-1.5 -42.5t-5.5 -35.5l-67 -314h-60l69 324q13 65 -14 101.5t-89 36.5q-70 0 -117.5 -50t-63.5 -123zM482 707h80l-157 -143h-44z" />
    <glyph glyph-name="Ncommaaccent" unicode="&#x145;" horiz-adv-x="722" 
d="M92 0l153 722h74l263 -635h2l135 635h65l-153 -722h-82l-257 624h-2l-133 -624h-65zM340 -74h67l-90 -145h-43z" />
    <glyph glyph-name="ncommaaccent" unicode="&#x146;" 
d="M201 289l-61 -289h-60l83 389q5 23 11 63.5t8 49.5h62l-13 -74l2 -2q70 91 176 91q39 0 67.5 -10.5t43 -29.5t22.5 -39.5t8 -45.5t-1.5 -42.5t-5.5 -35.5l-67 -314h-60l69 324q13 65 -14 101.5t-89 36.5q-70 0 -117.5 -50t-63.5 -123zM232 -74h67l-90 -145h-43z" />
    <glyph glyph-name="Ncaron" unicode="&#x147;" horiz-adv-x="722" 
d="M92 0l153 722h74l263 -635h2l135 635h65l-153 -722h-82l-257 624h-2l-133 -624h-65zM683 927l-131 -145h-73l-68 145h47l66 -106l113 106h46z" />
    <glyph glyph-name="ncaron" unicode="&#x148;" 
d="M201 289l-61 -289h-60l83 389q5 23 11 63.5t8 49.5h62l-13 -74l2 -2q70 91 176 91q39 0 67.5 -10.5t43 -29.5t22.5 -39.5t8 -45.5t-1.5 -42.5t-5.5 -35.5l-67 -314h-60l69 324q13 65 -14 101.5t-89 36.5q-70 0 -117.5 -50t-63.5 -123zM565 707l-131 -145h-73l-68 145h47
l66 -106l113 106h46z" />
    <glyph glyph-name="Eng" unicode="&#x14a;" horiz-adv-x="722" 
d="M418 -192l11 55q33 0 50.5 2.5t32 8t23 22t14.5 36.5t15 60l-273 632h-2l-132 -624h-65l153 722h74l266 -620h2l132 620h65l-158 -744q-10 -45 -17 -68t-21 -47.5t-34.5 -34.5t-53.5 -15.5t-82 -4.5z" />
    <glyph glyph-name="eng" unicode="&#x14b;" horiz-adv-x="552" 
d="M267 -192l11 55q29 0 46 1t32 8t21.5 12.5t14.5 26t12 36t12 53.5l68 324q14 66 -13.5 102t-88.5 36q-70 0 -118 -50t-63 -123l-61 -289h-60l82 389q8 41 19 113h62l-13 -74l2 -2q70 91 176 91q47 0 78 -16t44 -38t17 -52.5t2 -52.5t-7 -44l-71 -336q-8 -39 -13 -58
t-15 -43t-22.5 -34.5t-33.5 -20.5t-50 -12.5t-70 -1.5z" />
    <glyph glyph-name="Omacron" unicode="&#x14c;" horiz-adv-x="778" 
d="M214 361q-15 -59 -10.5 -116t23 -101.5t63 -71.5t109.5 -27t120.5 27t94 72.5t65 100t39.5 116.5q15 59 10.5 116t-23 101.5t-63 71.5t-109.5 27q-126 0 -209 -92.5t-110 -223.5zM788 361q-37 -172 -143 -274t-259 -102t-216 102t-26 274t143 274t259 102t216 -102
t26 -274zM691 843h-245l11 50h245z" />
    <glyph glyph-name="omacron" unicode="&#x14d;" 
d="M500 251q10 35 6.5 72.5t-15.5 68t-42 50.5t-73 20q-83 0 -140 -65t-74 -146q-9 -35 -5.5 -72.5t15.5 -68t42 -50.5t73 -20q83 0 139.5 65t73.5 146zM388 517q58 0 99 -23t60 -60.5t25 -85.5t-7 -97q-23 -109 -100 -187.5t-190 -78.5q-58 0 -99.5 23t-60 60.5t-25 85.5
t6.5 97q23 108 100.5 187t190.5 79zM540 647h-245l12 60h245z" />
    <glyph glyph-name="Obreve" unicode="&#x14e;" horiz-adv-x="778" 
d="M214 361q-15 -59 -10.5 -116t23 -101.5t63 -71.5t109.5 -27t120.5 27t94 72.5t65 100t39.5 116.5q15 59 10.5 116t-23 101.5t-63 71.5t-109.5 27q-126 0 -209 -92.5t-110 -223.5zM788 361q-37 -172 -143 -274t-259 -102t-216 102t-26 274t143 274t259 102t216 -102
t26 -274zM689 937h21q-31 -108 -148 -108q-52 0 -79.5 28t-16.5 80h23q0 -33 24.5 -47.5t58.5 -14.5q86 0 117 62z" />
    <glyph glyph-name="obreve" unicode="&#x14f;" 
d="M500 251q10 35 6.5 72.5t-15.5 68t-42 50.5t-73 20q-83 0 -140 -65t-74 -146q-9 -35 -5.5 -72.5t15.5 -68t42 -50.5t73 -20q83 0 139.5 65t73.5 146zM388 517q58 0 99 -23t60 -60.5t25 -85.5t-7 -97q-23 -109 -100 -187.5t-190 -78.5q-58 0 -99.5 23t-60 60.5t-25 85.5
t6.5 97q23 108 100.5 187t190.5 79zM532 717h21q-31 -108 -148 -108q-52 0 -79.5 28t-16.5 80h23q0 -33 24.5 -47.5t58.5 -14.5q86 0 117 62z" />
    <glyph glyph-name="Ohungarumlaut" unicode="&#x150;" horiz-adv-x="778" 
d="M214 361q-15 -59 -10.5 -116t23 -101.5t63 -71.5t109.5 -27t120.5 27t94 72.5t65 100t39.5 116.5q15 59 10.5 116t-23 101.5t-63 71.5t-109.5 27q-126 0 -209 -92.5t-110 -223.5zM788 361q-37 -172 -143 -274t-259 -102t-216 102t-26 274t143 274t259 102t216 -102
t26 -274zM464 786l125 141h81l-159 -141h-47zM595 786l125 141h81l-159 -141h-47z" />
    <glyph glyph-name="ohungarumlaut" unicode="&#x151;" 
d="M500 251q10 35 6.5 72.5t-15.5 68t-42 50.5t-73 20q-83 0 -140 -65t-74 -146q-9 -35 -5.5 -72.5t15.5 -68t42 -50.5t73 -20q83 0 139.5 65t73.5 146zM388 517q58 0 99 -23t60 -60.5t25 -85.5t-7 -97q-23 -109 -100 -187.5t-190 -78.5q-58 0 -99.5 23t-60 60.5t-25 85.5
t6.5 97q23 108 100.5 187t190.5 79zM297 566l125 141h81l-159 -141h-47zM428 566l125 141h81l-159 -141h-47z" />
    <glyph glyph-name="OE" unicode="&#x152;" horiz-adv-x="1000" 
d="M208 361q-15 -59 -11 -116t21 -101.5t57 -71.5t98 -27q89 3 149 48.5t78 127.5l54 253q23 107 -14.5 155t-132.5 48q-76 0 -140.5 -47t-103 -116.5t-55.5 -152.5zM555 0l15 69h-4q-40 -41 -96 -62.5t-110 -21.5q-139 0 -198.5 103t-23.5 273t139.5 273t242.5 103
q115 0 175 -78l13 63h376l-12 -60h-311l-55 -259h297l-13 -60h-297l-60 -283h326l-13 -60h-391z" />
    <glyph glyph-name="oe" unicode="&#x153;" horiz-adv-x="889" 
d="M479 256q10 35 8 71.5t-11 67t-37.5 49.5t-71.5 18q-77 0 -132.5 -65.5t-72.5 -145.5q-9 -35 -5.5 -72.5t14.5 -68t39 -50.5t68 -20q44 0 80 19t59.5 51.5t38 68.5t23.5 77zM552 292h285q16 77 -9.5 123.5t-100.5 46.5q-64 0 -114 -52.5t-61 -117.5zM890 237h-350
q-9 -49 -8.5 -93.5t27 -74.5t76.5 -29q53 0 100 34t70 86h63q-82 -175 -244 -175q-60 0 -100.5 32t-43.5 93h-2q-34 -60 -89 -92.5t-114 -32.5q-58 0 -99.5 23t-60 60.5t-25 85.5t6.5 97q23 108 100.5 187t190.5 79q60 0 100 -33t51 -92q32 60 86 92.5t106 32.5
q112 0 149 -77t10 -203z" />
    <glyph glyph-name="Racute" unicode="&#x154;" horiz-adv-x="667" 
d="M254 404h139q34 0 57.5 1.5t56 8.5t53.5 20t40 38.5t26 60.5q5 24 4 43t-7 32t-16 23t-23 15.5t-27.5 9.5t-30 4.5t-30 1.5t-28.5 0h-13h-146zM241 344l-73 -344h-65l153 722h236q55 0 92.5 -7.5t69.5 -30.5q65 -44 42 -151q-12 -58 -58 -98.5t-114 -56.5v-2
q43 -7 64.5 -29.5t24 -55.5t-1.5 -76q-3 -30 -9 -74.5t-7.5 -62.5t0 -40t8.5 -38h-75q-7 48 7 150q6 47 8 72.5t0 50.5t-8.5 36t-22 20.5t-37 12t-55.5 2.5h-179zM563 927h80l-158 -143h-44z" />
    <glyph glyph-name="racute" unicode="&#x155;" horiz-adv-x="333" 
d="M204 302l-64 -302h-60l83 389q5 23 11.5 65t7.5 48h62l-13 -74h2q22 39 58 63.5t74 25.5q20 1 60 -1l-13 -58q-3 0 -16 2t-20 2q-65 0 -109.5 -43t-62.5 -117zM360 707h80l-157 -143h-44z" />
    <glyph glyph-name="Rcommaaccent" unicode="&#x156;" horiz-adv-x="667" 
d="M254 404h139q34 0 57.5 1.5t56 8.5t53.5 20t40 38.5t26 60.5q5 24 4 43t-7 32t-16 23t-23 15.5t-27.5 9.5t-30 4.5t-30 1.5t-28.5 0h-13h-146zM241 344l-73 -344h-65l153 722h236q55 0 92.5 -7.5t69.5 -30.5q65 -44 42 -151q-12 -58 -58 -98.5t-114 -56.5v-2
q43 -7 64.5 -29.5t24 -55.5t-1.5 -76q-3 -30 -9 -74.5t-7.5 -62.5t0 -40t8.5 -38h-75q-7 48 7 150q6 47 8 72.5t0 50.5t-8.5 36t-22 20.5t-37 12t-55.5 2.5h-179zM316 -74h67l-90 -145h-43z" />
    <glyph glyph-name="rcommaaccent" unicode="&#x157;" horiz-adv-x="333" 
d="M204 302l-64 -302h-60l83 389q5 23 11.5 65t7.5 48h62l-13 -74h2q22 39 58 63.5t74 25.5q20 1 60 -1l-13 -58q-3 0 -16 2t-20 2q-65 0 -109.5 -43t-62.5 -117zM68 -74h67l-90 -145h-43z" />
    <glyph glyph-name="Rcaron" unicode="&#x158;" horiz-adv-x="667" 
d="M254 404h139q34 0 57.5 1.5t56 8.5t53.5 20t40 38.5t26 60.5q5 24 4 43t-7 32t-16 23t-23 15.5t-27.5 9.5t-30 4.5t-30 1.5t-28.5 0h-13h-146zM241 344l-73 -344h-65l153 722h236q55 0 92.5 -7.5t69.5 -30.5q65 -44 42 -151q-12 -58 -58 -98.5t-114 -56.5v-2
q43 -7 64.5 -29.5t24 -55.5t-1.5 -76q-3 -30 -9 -74.5t-7.5 -62.5t0 -40t8.5 -38h-75q-7 48 7 150q6 47 8 72.5t0 50.5t-8.5 36t-22 20.5t-37 12t-55.5 2.5h-179zM662 927l-131 -145h-73l-68 145h47l66 -106l113 106h46z" />
    <glyph glyph-name="rcaron" unicode="&#x159;" horiz-adv-x="333" 
d="M204 302l-64 -302h-60l83 389q5 23 11.5 65t7.5 48h62l-13 -74h2q22 39 58 63.5t74 25.5q20 1 60 -1l-13 -58q-3 0 -16 2t-20 2q-65 0 -109.5 -43t-62.5 -117zM443 707l-131 -145h-73l-68 145h47l66 -106l113 106h46z" />
    <glyph glyph-name="Sacute" unicode="&#x15a;" horiz-adv-x="611" 
d="M593 190q-16 -75 -67 -122.5t-114.5 -65t-141.5 -17.5q-88 0 -138 57.5t-34 145.5h70q-15 -77 27.5 -110t123.5 -33q67 0 128.5 37t74.5 102q19 89 -86 126q-12 4 -37 13q-116 38 -158 73q-70 56 -51 146t99.5 142.5t172.5 52.5q31 0 58.5 -4.5t56 -16.5t47.5 -30.5
t29.5 -49.5t6.5 -71h-70q8 42 -11 68t-50 35t-72 9q-64 0 -123 -32.5t-72 -93.5q-9 -41 7.5 -71t48.5 -47t72.5 -31t81 -30t71.5 -37t46 -58t4 -87zM564 927h80l-158 -143h-44z" />
    <glyph glyph-name="sacute" unicode="&#x15b;" horiz-adv-x="500" 
d="M143 377q10 49 46 82t78 45.5t90 12.5q79 0 121.5 -32.5t31.5 -106.5h-65q6 44 -24 64t-82 20q-47 0 -84 -20t-46 -61q-5 -21 2.5 -35t28.5 -23.5t44.5 -16l63 -17.5t70.5 -23q36 -13 52 -44.5t8 -72.5q-17 -80 -88 -122t-158 -42q-34 0 -64 8.5t-54.5 25.5t-35.5 47.5
t-3 70.5h65q-8 -52 26.5 -74.5t92.5 -22.5q53 0 97 25.5t55 74.5q12 55 -53 80q-19 6 -85 22q-35 9 -56 16.5t-43.5 22.5t-30 39t-0.5 57zM437 707h80l-157 -143h-44z" />
    <glyph glyph-name="Scircumflex" unicode="&#x15c;" horiz-adv-x="611" 
d="M593 190q-16 -75 -67 -122.5t-114.5 -65t-141.5 -17.5q-88 0 -138 57.5t-34 145.5h70q-15 -77 27.5 -110t123.5 -33q67 0 128.5 37t74.5 102q19 89 -86 126q-12 4 -37 13q-116 38 -158 73q-70 56 -51 146t99.5 142.5t172.5 52.5q31 0 58.5 -4.5t56 -16.5t47.5 -30.5
t29.5 -49.5t6.5 -71h-70q8 42 -11 68t-50 35t-72 9q-64 0 -123 -32.5t-72 -93.5q-9 -41 7.5 -71t48.5 -47t72.5 -31t81 -30t71.5 -37t46 -58t4 -87zM341 782l131 145h73l68 -145h-47l-67 106l-112 -106h-46z" />
    <glyph glyph-name="scircumflex" unicode="&#x15d;" horiz-adv-x="500" 
d="M143 377q10 49 46 82t78 45.5t90 12.5q79 0 121.5 -32.5t31.5 -106.5h-65q6 44 -24 64t-82 20q-47 0 -84 -20t-46 -61q-5 -21 2.5 -35t28.5 -23.5t44.5 -16l63 -17.5t70.5 -23q36 -13 52 -44.5t8 -72.5q-17 -80 -88 -122t-158 -42q-34 0 -64 8.5t-54.5 25.5t-35.5 47.5
t-3 70.5h65q-8 -52 26.5 -74.5t92.5 -22.5q53 0 97 25.5t55 74.5q12 55 -53 80q-19 6 -85 22q-35 9 -56 16.5t-43.5 22.5t-30 39t-0.5 57zM230 562l131 145h73l68 -145h-47l-66 106l-113 -106h-46z" />
    <glyph glyph-name="Scedilla" unicode="&#x15e;" horiz-adv-x="611" 
d="M171 -172l13 28q38 -12 72 -12q61 0 69 41q3 20 -10 28t-34 8q-22 0 -30 -2l35 66q-100 2 -154 52.5t-35 150.5h70q-27 -143 151 -143q69 0 129 36t75 106q7 32 0.5 54.5t-30 39.5t-48 27.5t-71.5 26.5q-110 37 -156 80.5t-27 126.5q19 89 99 142t172 53q46 0 82 -7.5
t66.5 -26t44 -53.5t6.5 -85h-70q11 61 -28.5 86.5t-105.5 25.5q-65 0 -123 -32.5t-71 -93.5q-3 -14 -3.5 -27t2.5 -23.5t6.5 -19.5t11.5 -17.5t14.5 -14.5t19 -12.5l21 -11t23.5 -10t24 -8.5l26 -9q96 -36 124 -53q83 -52 63 -152q-21 -98 -98.5 -149.5t-183.5 -57.5
l-18 -36q45 0 70.5 -13.5t17.5 -48.5q-6 -26 -30.5 -43t-49 -22.5t-48.5 -5.5q-45 0 -83 11z" />
    <glyph glyph-name="scedilla" unicode="&#x15f;" horiz-adv-x="500" 
d="M115 -172l13 28q38 -12 72 -12q61 0 69 41q3 20 -10 28t-34 8q-22 0 -30 -2l35 66q-75 0 -122.5 37.5t-32.5 114.5h65q-8 -51 26 -74t92 -23q53 0 97 25.5t55 74.5q12 54 -50 78q-13 5 -87 24q-34 8 -55.5 16t-44 23t-30 39t-0.5 57q15 71 76.5 105.5t136.5 34.5
q171 0 154 -139h-65q6 44 -24.5 64t-81.5 20q-48 0 -85 -20t-46 -61q-5 -21 2.5 -35t28.5 -23.5t44.5 -16l63 -17.5t70.5 -23q36 -14 52.5 -45t7.5 -72q-15 -74 -77.5 -115t-143.5 -48l-18 -36q45 0 70.5 -13.5t17.5 -48.5q-6 -26 -30.5 -43t-49 -22.5t-48.5 -5.5
q-45 0 -83 11z" />
    <glyph glyph-name="Scaron" unicode="&#x160;" horiz-adv-x="611" 
d="M593 190q-16 -75 -67 -122.5t-114.5 -65t-141.5 -17.5q-88 0 -138 57.5t-34 145.5h70q-15 -77 27.5 -110t123.5 -33q67 0 128.5 37t74.5 102q19 89 -86 126q-12 4 -37 13q-116 38 -158 73q-70 56 -51 146t99.5 142.5t172.5 52.5q31 0 58.5 -4.5t56 -16.5t47.5 -30.5
t29.5 -49.5t6.5 -71h-70q8 42 -11 68t-50 35t-72 9q-64 0 -123 -32.5t-72 -93.5q-9 -41 7.5 -71t48.5 -47t72.5 -31t81 -30t71.5 -37t46 -58t4 -87zM639 927l-131 -145h-73l-68 145h47l67 -106l112 106h46z" />
    <glyph glyph-name="scaron" unicode="&#x161;" horiz-adv-x="500" 
d="M143 377q15 71 76.5 105.5t136.5 34.5q171 0 154 -139h-65q6 44 -24.5 64t-81.5 20q-48 0 -85 -20t-46 -61q-5 -21 2.5 -35t28.5 -23.5t44.5 -16l63 -17.5t70.5 -23q36 -14 52.5 -45t7.5 -72q-17 -80 -87.5 -122t-158.5 -42q-48 0 -85 14t-59 49.5t-12 88.5h65
q-8 -51 26 -74t92 -23q53 0 97 25.5t55 74.5q12 54 -50 78q-13 5 -87 24q-34 8 -55.5 16t-44 23t-30 39t-0.5 57zM536 707l-131 -145h-73l-68 145h47l66 -106l113 106h46z" />
    <glyph glyph-name="Tcommaaccent" unicode="&#x162;" 
d="M248 0l140 662h-233l12 60h528l-12 -60h-229l-142 -662h-64zM233 -74h67l-90 -145h-43z" />
    <glyph glyph-name="tcommaaccent" unicode="&#x163;" horiz-adv-x="333" 
d="M151 134l67 313h-100l12 55h100l22 107l66 26l-28 -133h114l-12 -55h-114l-71 -336q-17 -71 54 -71q33 0 53 6l-11 -52q-36 -9 -63 -9q-96 0 -100 67q-2 21 11 82zM134 -74h67l-90 -145h-43z" />
    <glyph glyph-name="Tcaron" unicode="&#x164;" 
d="M248 0l140 662h-233l12 60h528l-12 -60h-229l-142 -662h-64zM611 927l-131 -145h-73l-68 145h47l66 -106l113 106h46z" />
    <glyph glyph-name="tcaron" unicode="&#x165;" horiz-adv-x="333" 
d="M151 134l67 313h-100l12 55h100l22 107l66 26l-28 -133h114l-12 -55h-114l-71 -336q-17 -71 54 -71q33 0 53 6l-11 -52q-36 -9 -63 -9q-96 0 -100 67q-2 21 11 82zM464 722h66l-95 -146h-40z" />
    <glyph glyph-name="Tbar" unicode="&#x166;" 
d="M529 430h-126l-91 -430h-64l90 430h-125l8 40h125l41 192h-233l13 60h528l-13 -60h-229l-42 -192h126z" />
    <glyph glyph-name="tbar" unicode="&#x167;" horiz-adv-x="333" 
d="M151 134l32 149h-71l8 37h71l27 127h-100l11 55h100l23 107l65 26l-28 -133h114l-11 -55h-114l-27 -127h98l-8 -37h-98l-37 -172q-17 -71 54 -71q33 0 53 6l-11 -52q-36 -9 -63 -9q-94 0 -99 63q-2 19 11 86z" />
    <glyph glyph-name="Utilde" unicode="&#x168;" horiz-adv-x="722" 
d="M250 722h65l-99 -467q-17 -98 24.5 -154t130.5 -56t153.5 56t89.5 154l99 467h65l-99 -468q-27 -121 -110.5 -195t-210.5 -74t-179 74t-28 195zM673 915h38q-40 -85 -109 -85q-19 0 -43 11q-30 10 -52 10q-40 0 -53 -29h-38q19 43 51.5 65t73.5 15q8 -1 38 -11
q34 -9 37 -9q38 0 57 33z" />
    <glyph glyph-name="utilde" unicode="&#x169;" 
d="M461 213l62 289h60l-83 -389q-8 -41 -19 -113h-62l13 74l-2 2q-70 -91 -176 -91q-39 0 -67.5 10.5t-43 29.5t-22.5 39.5t-8 45.5t1.5 42.5t5.5 35.5l67 314h60l-69 -324q-14 -65 13.5 -101.5t89.5 -36.5q70 0 117.5 50t62.5 123zM530 695h38q-40 -85 -109 -85
q-15 0 -43 11q-28 10 -52 10q-40 0 -53 -29h-38q18 42 51 64.5t74 15.5q10 -1 38 -11q31 -9 37 -9q37 0 57 33z" />
    <glyph glyph-name="Umacron" unicode="&#x16a;" horiz-adv-x="722" 
d="M250 722h65l-99 -467q-17 -98 24.5 -154t130.5 -56t153.5 56t89.5 154l99 467h65l-99 -468q-27 -121 -110.5 -195t-210.5 -74t-179 74t-28 195zM665 843h-245l11 50h245z" />
    <glyph glyph-name="umacron" unicode="&#x16b;" 
d="M461 213l62 289h60l-83 -389q-8 -41 -19 -113h-62l13 74l-2 2q-70 -91 -176 -91q-39 0 -67.5 10.5t-43 29.5t-22.5 39.5t-8 45.5t1.5 42.5t5.5 35.5l67 314h60l-69 -324q-14 -65 13.5 -101.5t89.5 -36.5q70 0 117.5 50t62.5 123zM540 647h-245l12 60h245z" />
    <glyph glyph-name="Ubreve" unicode="&#x16c;" horiz-adv-x="722" 
d="M250 722h65l-99 -467q-17 -98 24.5 -154t130.5 -56t153.5 56t89.5 154l99 467h65l-99 -468q-27 -121 -110.5 -195t-210.5 -74t-179 74t-28 195zM664 937h21q-31 -108 -148 -108q-52 0 -79.5 28t-16.5 80h23q0 -33 24.5 -47.5t58.5 -14.5q86 0 117 62z" />
    <glyph glyph-name="ubreve" unicode="&#x16d;" 
d="M461 213l62 289h60l-83 -389q-8 -41 -19 -113h-62l13 74l-2 2q-70 -91 -176 -91q-39 0 -67.5 10.5t-43 29.5t-22.5 39.5t-8 45.5t1.5 42.5t5.5 35.5l67 314h60l-69 -324q-14 -65 13.5 -101.5t89.5 -36.5q70 0 117.5 50t62.5 123zM534 717h21q-31 -108 -148 -108
q-52 0 -79.5 28t-16.5 80h23q0 -33 24.5 -47.5t58.5 -14.5q86 0 117 62z" />
    <glyph glyph-name="Uring" unicode="&#x16e;" horiz-adv-x="722" 
d="M250 722h65l-99 -467q-17 -98 24.5 -154t130.5 -56t153.5 56t89.5 154l99 467h65l-99 -468q-27 -121 -110.5 -195t-210.5 -74t-179 74t-28 195zM448 869q8 38 41 65.5t71 27.5q39 0 60 -27.5t13 -65.5t-41 -65t-71 -27q-37 0 -59 27t-14 65zM596 869q5 23 -8 39.5
t-36 16.5t-43 -16.5t-25 -39.5t8 -39.5t36 -16.5t43 16.5t25 39.5z" />
    <glyph glyph-name="uring" unicode="&#x16f;" 
d="M461 213l62 289h60l-83 -389q-8 -41 -19 -113h-62l13 74l-2 2q-70 -91 -176 -91q-39 0 -67.5 10.5t-43 29.5t-22.5 39.5t-8 45.5t1.5 42.5t5.5 35.5l67 314h60l-69 -324q-14 -65 13.5 -101.5t89.5 -36.5q70 0 117.5 50t62.5 123zM323 650q8 38 41 65.5t70 27.5
q38 0 60 -27.5t14 -65.5q-7 -37 -41 -64.5t-72 -27.5t-59 27t-13 65zM471 650q5 23 -8 39.5t-36 16.5t-43 -16.5t-25 -39.5t8 -39.5t36 -16.5t43 16.5t25 39.5z" />
    <glyph glyph-name="Uhungarumlaut" unicode="&#x170;" horiz-adv-x="722" 
d="M250 722h65l-99 -467q-17 -98 24.5 -154t130.5 -56t153.5 56t89.5 154l99 467h65l-99 -468q-27 -121 -110.5 -195t-210.5 -74t-179 74t-28 195zM426 786l125 141h81l-159 -141h-47zM557 786l125 141h81l-159 -141h-47z" />
    <glyph glyph-name="uhungarumlaut" unicode="&#x171;" 
d="M461 213l62 289h60l-83 -389q-8 -41 -19 -113h-62l13 74l-2 2q-70 -91 -176 -91q-39 0 -67.5 10.5t-43 29.5t-22.5 39.5t-8 45.5t1.5 42.5t5.5 35.5l67 314h60l-69 -324q-14 -65 13.5 -101.5t89.5 -36.5q70 0 117.5 50t62.5 123zM304 566l125 141h81l-159 -141h-47z
M435 566l125 141h81l-159 -141h-47z" />
    <glyph glyph-name="Uogonek" unicode="&#x172;" horiz-adv-x="722" 
d="M406 -134l-7 -34q-40 -14 -72 -14q-34 0 -57.5 17t-14.5 57q12 56 86 94q-118 6 -166 79t-25 189l100 468h65l-99 -467q-17 -99 23.5 -154.5t130.5 -55.5t154.5 55.5t89.5 154.5l99 467h65l-100 -468q-25 -113 -99.5 -185.5t-188.5 -81.5q-42 -24 -62 -43.5t-26 -46.5
q-9 -42 41 -42q27 0 63 11z" />
    <glyph glyph-name="uogonek" unicode="&#x173;" 
d="M470 -134l-7 -34q-40 -14 -72 -14q-34 0 -57.5 17t-14.5 57q12 64 119 108h-19l12 74l-1 2q-71 -91 -177 -91q-47 0 -78 16t-44 38t-17 53t-2 52t7 44l67 314h60l-69 -324q-14 -66 13 -102t90 -36q70 0 118 50t63 123l61 289h60l-82 -389q-8 -32 -19 -113h-3
q-56 -31 -81 -52t-31 -51q-9 -42 41 -42q27 0 63 11z" />
    <glyph glyph-name="Wcircumflex" unicode="&#x174;" horiz-adv-x="1000" 
d="M636 655l-346 -655h-92l-35 722h69l29 -657h2l350 657h79l81 -657h2l306 657h63l-343 -722h-89l-74 655h-2zM530 782l131 145h73l68 -145h-47l-67 106l-112 -106h-46z" />
    <glyph glyph-name="wcircumflex" unicode="&#x175;" horiz-adv-x="833" 
d="M189 502l60 -423h2l242 423h71l59 -419h2l234 419h66l-294 -502h-57l-62 433h-2l-249 -433h-61l-77 502h66zM402 562l131 145h73l68 -145h-47l-66 106l-113 -106h-46z" />
    <glyph glyph-name="Ycircumflex" unicode="&#x176;" horiz-adv-x="611" 
d="M274 0l66 312l-179 410h83l147 -349l295 349h70l-350 -408l-67 -314h-65zM340 782l131 145h73l68 -145h-47l-67 106l-112 -106h-46z" />
    <glyph glyph-name="ycircumflex" unicode="&#x177;" horiz-adv-x="500" 
d="M114 502h73l80 -420l257 420h65l-424 -694h-66l117 192zM243 562l131 145h73l68 -145h-47l-67 106l-112 -106h-46z" />
    <glyph glyph-name="Ydieresis" unicode="&#x178;" horiz-adv-x="611" 
d="M274 0l66 312l-179 410h83l147 -349l295 349h70l-351 -408l-66 -314h-65zM608 839h-74l19 88h74zM434 839h-74l19 88h74z" />
    <glyph glyph-name="Zacute" unicode="&#x179;" 
d="M517 0h-478l13 60l529 602h-401l12 60h478l-12 -60l-530 -602h402zM529 927h80l-158 -143h-44z" />
    <glyph glyph-name="zacute" unicode="&#x17a;" horiz-adv-x="444" 
d="M40 0l12 55l376 392h-293l12 55h364l-12 -55l-374 -392h291l-12 -55h-364zM425 707h80l-157 -143h-44z" />
    <glyph glyph-name="Zdotaccent" unicode="&#x17b;" 
d="M517 0h-478l13 60l529 602h-401l12 60h478l-12 -60l-530 -602h402zM493 839h-74l19 88h74z" />
    <glyph glyph-name="zdotaccent" unicode="&#x17c;" horiz-adv-x="444" 
d="M40 0l12 55l376 392h-293l12 55h364l-12 -55l-374 -392h291l-12 -55h-364zM393 619h-74l19 88h74z" />
    <glyph glyph-name="Zcaron" unicode="&#x17d;" 
d="M517 0h-478l12 60l529 602h-401l13 60h478l-13 -60l-530 -602h402zM611 927l-131 -145h-73l-68 145h47l66 -106l113 106h46z" />
    <glyph glyph-name="zcaron" unicode="&#x17e;" horiz-adv-x="444" 
d="M40 0l11 55l377 392h-293l11 55h364l-11 -55l-375 -392h291l-11 -55h-364zM508 707l-131 -145h-73l-68 145h47l66 -106l113 106h46z" />
    <glyph glyph-name="florin" unicode="&#x192;" 
d="M320 408h-94l21 60h94l33 80q13 34 24 55.5t31 48.5t48.5 41t64.5 14q30 0 70 -7l-20 -57q-19 4 -43 4q-42 0 -63.5 -19.5t-36.5 -59.5l-42 -100h106l-20 -60h-107l-147 -363q-4 -11 -16 -41.5t-19 -46.5t-20 -43.5t-26.5 -42.5t-31.5 -31.5t-40.5 -24t-48.5 -7.5
q-23 0 -45 6l23 54q27 -7 48 -1q8 2 16 7t15.5 14t12 15t11.5 19l9.5 17.5t9.5 20t7 16.5z" />
    <glyph glyph-name="Aringacute" unicode="&#x1fa;" horiz-adv-x="667" 
d="M403 764q8 38 41 65.5t71 27.5t59.5 -27.5t13.5 -65.5q-11 -48 -56 -75l127 -689h-71l-36 195h-359l-117 -195h-67l417 688q-34 27 -23 76zM227 255h315l-70 407zM551 764q5 23 -8 39.5t-36 16.5t-43.5 -16.5t-24.5 -39.5q-5 -23 8 -39.5t36 -16.5t43 16.5t25 39.5z
M567 974l66 -31l-190 -82l-37 18z" />
    <glyph glyph-name="aringacute" unicode="&#x1fb;" horiz-adv-x="500" 
d="M131 140q-11 -49 16 -74.5t76 -25.5q161 0 195 213q-10 0 -41 -0.5t-49.5 -1.5t-49 -4t-51 -10.5t-42 -19.5t-35 -31.5t-19.5 -45.5zM429 308l10 46q9 59 -15.5 83.5t-80.5 24.5q-113 0 -141 -87h-64q51 142 218 142q86 0 124 -41t19 -125l-51 -238q-7 -28 -19 -113h-62
l14 74h-2l-5 -7q-24 -33 -74.5 -57.5t-99.5 -24.5q-72 0 -110.5 42t-23.5 113q10 50 45.5 88t86.5 57q33 13 70 17.5t91 4.5t70 1zM295 650q8 38 41 65.5t70 27.5q38 0 60 -27.5t14 -65.5q-7 -37 -41 -64.5t-72 -27.5t-59 27t-13 65zM443 650q5 23 -8 39.5t-36 16.5
t-43 -16.5t-25 -39.5t8 -39.5t36 -16.5t43 16.5t25 39.5zM465 917h80l-157 -143h-44z" />
    <glyph glyph-name="AEacute" unicode="&#x1fc;" horiz-adv-x="1000" 
d="M579 722h499l-12 -60h-389l-12 -259h328l-13 -60h-319l-13 -283h299l-13 -60h-356l8 196h-350l-156 -196h-72zM606 662l-324 -406h308l18 406h-2zM832 923h80l-158 -143h-44z" />
    <glyph glyph-name="aeacute" unicode="&#x1fd;" horiz-adv-x="833" 
d="M492 299h285q15 72 -11 117.5t-101 45.5q-64 0 -113.5 -51.5t-59.5 -111.5zM202 375h-64q51 142 218 142q55 -4 94.5 -31t40.5 -74h2q32 50 80 76.5t96 28.5q76 0 119 -37.5t49.5 -98t-7.5 -137.5h-350q-10 -52 -9.5 -97.5t26.5 -76t76 -30.5q53 0 100 34t70 86h63
q-82 -175 -244 -175q-56 5 -94 35t-48 84q-63 -109 -220 -119q-72 0 -110.5 42t-23.5 113q19 92 130 137q33 13 69 17.5t93 4t69 0.5l11 55q9 59 -15 83.5t-80 24.5q-113 0 -141 -87zM415 243l-77 1q-34 0 -55.5 -1t-50.5 -7.5t-47 -18.5t-34 -35t-23 -56q-9 -41 22.5 -63.5
t74.5 -22.5q46 0 80.5 16.5t56 47t33.5 63.5t20 76zM632 707h80l-157 -143h-44z" />
    <glyph glyph-name="Oslashacute" unicode="&#x1fe;" horiz-adv-x="778" 
d="M220 160l477 433q-48 84 -164 84q-126 0 -209 -92.5t-110 -223.5q-26 -120 6 -201zM179 76l-99 -91l-23 27l104 94q-51 94 -17 255q37 172 143 274t259 102q141 0 208 -92l102 92l21 -25l-105 -97q49 -98 16 -254q-37 -172 -143 -274t-259 -102q-141 0 -207 91zM712 561
l-476 -434q48 -82 163 -82q65 0 120.5 27t94 72.5t65 100t39.5 116.5q24 117 -6 200zM623 927h80l-158 -143h-44z" />
    <glyph glyph-name="oslashacute" unicode="&#x1ff;" 
d="M167 127l315 280q-33 55 -106 55q-83 0 -140 -65t-74 -146q-14 -71 5 -124zM495 377l-315 -280q33 -57 107 -57q83 0 139.5 65t73.5 146q15 71 -5 126zM35 10l77 68q-36 71 -15 173q23 108 100.5 187t190.5 79q99 0 145 -64l73 64l19 -25l-74 -66q36 -74 14 -175
q-23 -109 -100 -187.5t-190 -78.5q-100 0 -147 65l-74 -65zM468 707h80l-157 -143h-44z" />
    <glyph glyph-name="Scommaaccent" unicode="&#x218;" horiz-adv-x="611" 
d="M593 190q-16 -75 -67 -122.5t-114.5 -65t-141.5 -17.5q-88 0 -138 57.5t-34 145.5h70q-15 -77 27.5 -110t123.5 -33q67 0 128.5 37t74.5 102q19 89 -86 126q-12 4 -37 13q-116 38 -158 73q-70 56 -51 146t99.5 142.5t172.5 52.5q31 0 58.5 -4.5t56 -16.5t47.5 -30.5
t29.5 -49.5t6.5 -71h-70q8 42 -11 68t-50 35t-72 9q-64 0 -123 -32.5t-72 -93.5q-9 -41 7.5 -71t48.5 -47t72.5 -31t81 -30t71.5 -37t46 -58t4 -87zM262 -74h67l-90 -145h-43z" />
    <glyph glyph-name="scommaaccent" unicode="&#x219;" horiz-adv-x="500" 
d="M143 377q10 49 46 82t78 45.5t90 12.5q79 0 121.5 -32.5t31.5 -106.5h-65q6 44 -24 64t-82 20q-47 0 -84 -20t-46 -61q-5 -21 2.5 -35t28.5 -23.5t44.5 -16l63 -17.5t70.5 -23q36 -13 52 -44.5t8 -72.5q-17 -80 -88 -122t-158 -42q-34 0 -64 8.5t-54.5 25.5t-35.5 47.5
t-3 70.5h65q-8 -52 26.5 -74.5t92.5 -22.5q53 0 97 25.5t55 74.5q12 55 -53 80q-19 6 -85 22q-35 9 -56 16.5t-43.5 22.5t-30 39t-0.5 57zM210 -74h67l-90 -145h-43z" />
    <glyph glyph-name="uni021A" unicode="&#x21a;" 
d="M248 0l140 662h-233l12 60h528l-12 -60h-229l-142 -662h-64zM233 -74h67l-90 -145h-43z" />
    <glyph glyph-name="uni021B" unicode="&#x21b;" horiz-adv-x="333" 
d="M151 134l67 313h-100l12 55h100l22 107l66 26l-28 -133h114l-12 -55h-114l-71 -336q-17 -71 54 -71q33 0 53 6l-11 -52q-36 -9 -63 -9q-96 0 -100 67q-2 21 11 82zM134 -74h67l-90 -145h-43z" />
    <glyph glyph-name="dotlessj" unicode="&#x237;" horiz-adv-x="222" 
d="M-37 -192l11 55q15 0 26 0.5t20 4t15 5.5t11.5 11t8 14t7 20.5t6.5 25.5l7 33.5t9 39.5l103 485h60l-111 -524q-8 -35 -12 -50.5t-11.5 -39.5t-14.5 -33t-19.5 -22t-28 -16.5t-37 -6.5t-50.5 -2z" />
    <glyph glyph-name="circumflex" unicode="&#x2c6;" horiz-adv-x="278" 
d="M122 562l131 145h73l68 -145h-47l-66 106l-113 -106h-46z" />
    <glyph glyph-name="caron" unicode="&#x2c7;" horiz-adv-x="278" 
d="M425 707l-131 -145h-73l-68 145h47l66 -106l113 106h46z" />
    <glyph glyph-name="uni02C9" unicode="&#x2c9;" horiz-adv-x="278" 
d="M394 623h-245l11 50h245z" />
    <glyph glyph-name="breve" unicode="&#x2d8;" horiz-adv-x="278" 
d="M392 717h21q-31 -108 -148 -108q-52 0 -79.5 28t-16.5 80h23q0 -33 24.5 -47.5t58.5 -14.5q86 0 117 62z" />
    <glyph glyph-name="dotaccent" unicode="&#x2d9;" horiz-adv-x="278" 
d="M307 619h-74l19 88h74z" />
    <glyph glyph-name="ring" unicode="&#x2da;" horiz-adv-x="278" 
d="M184 650q8 38 41 65.5t70 27.5q38 0 60 -27.5t14 -65.5q-7 -37 -41 -64.5t-72 -27.5t-59 27t-13 65zM332 650q5 23 -8 39.5t-36 16.5t-43 -16.5t-25 -39.5t8 -39.5t36 -16.5t43 16.5t25 39.5z" />
    <glyph glyph-name="ogonek" unicode="&#x2db;" horiz-adv-x="278" 
d="M163 -134l-7 -34q-40 -14 -72 -14q-34 0 -57.5 17t-14.5 57q12 64 119 108h40q-56 -31 -81 -52t-31 -51q-9 -42 41 -42q27 0 63 11z" />
    <glyph glyph-name="tilde" unicode="&#x2dc;" horiz-adv-x="278" 
d="M387 695h38q-40 -85 -109 -85q-16 0 -43 11q-28 10 -52 10q-40 0 -53 -29h-38q18 42 51 64.5t74 15.5q10 -1 38 -11q32 -9 37 -9q37 0 57 33z" />
    <glyph glyph-name="hungarumlaut" unicode="&#x2dd;" 
d="M245 566l125 141h81l-159 -141h-47zM376 566l125 141h81l-159 -141h-47z" />
    <glyph glyph-name="uni0394" unicode="&#x394;" horiz-adv-x="670" 
d="M657 0h-642l432 712h74zM574 62l-105 583l-350 -583h455z" />
    <glyph glyph-name="uni03A9" unicode="&#x3a9;" horiz-adv-x="744" 
d="M685 0h-251l38 181q91 15 152 78t82 156q22 107 -35.5 176t-164.5 69t-194.5 -70t-109.5 -175q-19 -92 15 -156t119 -78l-38 -181h-251l12 58h197l17 82q-86 26 -122 102t-16 174q27 132 139.5 218.5t245.5 86.5q132 0 206.5 -86.5t46.5 -217.5q-21 -99 -89.5 -175.5
t-166.5 -101.5l-17 -82h197z" />
    <glyph glyph-name="uni03BC" unicode="&#x3bc;" 
d="M461 213l61 289h60l-82 -389q-8 -32 -19 -113h-62l12 74l-1 2q-71 -91 -177 -91q-53 0 -111 25l-43 -202h-60l147 694h60l-69 -324q-14 -66 13 -102t90 -36q70 0 118 50t63 123z" />
    <glyph glyph-name="pi" unicode="&#x3c0;" horiz-adv-x="563" 
d="M542 60l-10 -49q-37 -17 -68 -17q-22 0 -35.5 7t-19.5 15.5t-5.5 27.5t2.5 30.5t7 36.5l72 336h-224l-95 -447h-60l95 447h-74l11 55h494l-11 -55h-76l-73 -343q-8 -22 -3 -38t29 -16q23 0 44 10z" />
    <glyph glyph-name="uni0400" unicode="&#x400;" horiz-adv-x="611" 
d="M102 0l153 722h429l-12 -57h-364l-55 -261h350l-12 -57h-350l-62 -289h379l-12 -58h-444zM384 927h80l60 -143h-44z" />
    <glyph glyph-name="afii10023" unicode="&#x401;" horiz-adv-x="611" 
d="M102 0l153 722h429l-12 -57h-364l-55 -261h350l-12 -57h-350l-62 -289h379l-12 -58h-444zM434 839h-74l19 88h74zM608 839h-74l19 88h74z" />
    <glyph glyph-name="afii10051" unicode="&#x402;" horiz-adv-x="740" 
d="M403 422q85 31 173 31q176 0 176 -174q0 -92 -32 -174t-102 -139t-165 -57h-34l11 55h34q71 0 124 50t76 117.5t23 136.5q0 128 -126 128q-77 0 -170 -31l-78 -365h-66l141 665h-233l12 57h528l-12 -57h-229z" />
    <glyph glyph-name="afii10052" unicode="&#x403;" 
d="M160 0h-65l153 722h408l-12 -57h-343zM570 927h80l-157 -143h-44z" />
    <glyph glyph-name="afii10053" unicode="&#x404;" horiz-adv-x="667" 
d="M656 175q-33 -85 -112.5 -135t-182.5 -50q-122 0 -180 69t-58 183q0 90 26.5 177t75.5 157.5t127 114t171 43.5q54 0 98.5 -12.5t77.5 -48t33 -90.5q0 -15 -3 -30h-70v14q0 51 -38.5 80.5t-106.5 29.5q-112 0 -187.5 -78t-108.5 -196h331l-13 -58h-331q-8 -48 -8 -87
q0 -95 44.5 -152.5t142.5 -57.5q69 0 124.5 35.5t76.5 91.5h71z" />
    <glyph glyph-name="afii10054" unicode="&#x405;" horiz-adv-x="611" 
d="M98 188h68q-4 -17 -4 -35q0 -54 40 -80.5t108 -26.5q83 0 151.5 44.5t68.5 123.5q0 33 -23 55.5t-75 41.5l-68 25q-35 13 -61 26t-56 33.5t-46 49t-16 62.5q0 104 81 165t193 61q83 0 144 -33.5t61 -100.5q0 -18 -4 -34h-67q2 8 2 22q0 45 -37 68t-96 23q-50 0 -96 -16.5
t-79.5 -54t-33.5 -88.5q0 -38 26 -61q35 -31 143 -69q31 -11 52 -20t46.5 -24t41 -31t26 -40t10.5 -52q0 -71 -45 -125.5t-110.5 -80t-138.5 -25.5q-92 0 -151 40.5t-59 116.5q0 12 4 40z" />
    <glyph glyph-name="afii10055" unicode="&#x406;" horiz-adv-x="278" 
d="M106 0l153 722h65l-153 -722h-65z" />
    <glyph glyph-name="afii10056" unicode="&#x407;" horiz-adv-x="278" 
d="M106 0l153 722h65l-153 -722h-65zM267 839h-74l19 88h74zM441 839h-74l19 88h74z" />
    <glyph glyph-name="afii10057" unicode="&#x408;" horiz-adv-x="500" 
d="M50 178h70q-1 -7 -1 -19q0 -48 25.5 -79t75.5 -31q53 0 98 36q56 44 78 151l103 486h65l-104 -490q-22 -104 -66 -157q-71 -83 -189 -83q-71 0 -114.5 38.5t-43.5 108.5q0 18 3 39z" />
    <glyph glyph-name="afii10058" unicode="&#x409;" horiz-adv-x="1035" 
d="M971 239q0 107 -156 107h-158l-62 -288h158q96 0 157 44.5t61 136.5zM759 0h-241l141 665h-294l-61 -290q-15 -72 -26.5 -115.5t-35 -100.5t-52.5 -94q-55 -69 -139 -69q-27 0 -41 7l12 56q4 -3 28 -3q104 0 164 215q13 48 38 166l60 285h424l-67 -318h176
q94 0 145.5 -40t51.5 -113q0 -116 -81.5 -183.5t-201.5 -67.5z" />
    <glyph glyph-name="afii10059" unicode="&#x40a;" horiz-adv-x="1035" 
d="M595 58h158q96 0 157 44.5t61 136.5q0 107 -156 107h-158zM669 404h176q94 0 145.5 -40t51.5 -113q0 -116 -81.5 -183.5t-201.5 -67.5h-241l73 345h-354l-73 -345h-65l153 722h65l-67 -317h354l67 317h65z" />
    <glyph glyph-name="afii10060" unicode="&#x40b;" horiz-adv-x="760" 
d="M313 0h-66l141 665h-233l12 57h528l-12 -57h-229l-51 -243q94 27 167 27q94 0 145.5 -34t51.5 -121q0 -38 -10 -84l-45 -210h-65l47 221q6 30 6 53q0 120 -144 120q-40 0 -165 -25z" />
    <glyph glyph-name="afii10061" unicode="&#x40c;" horiz-adv-x="611" 
d="M570 927h80l-157 -143h-44zM106 0l153 722h66l-67 -318l385 318h87l-405 -335l282 -387h-80l-275 377l-80 -377h-66z" />
    <glyph glyph-name="uni040D" unicode="&#x40d;" horiz-adv-x="722" 
d="M623 0h-65l135 635h-3l-517 -635h-74l153 722h65l-132 -625h3l506 625h82zM422 927h80l60 -143h-44z" />
    <glyph glyph-name="afii10062" unicode="&#x40e;" horiz-adv-x="611" 
d="M475 800q-107 0 -107 103q0 7 2 25h38q5 -71 80 -71q76 0 113 71h40q-19 -62 -62 -95t-104 -33zM312 206l-153 516h73l128 -450l325 450h74l-519 -722h-77z" />
    <glyph glyph-name="afii10145" unicode="&#x40f;" horiz-adv-x="722" 
d="M776 722l-153 -722h-221l-34 -161h-65l34 161h-238l153 722h65l-141 -664h394l141 664h65z" />
    <glyph glyph-name="afii10017" unicode="&#x410;" horiz-adv-x="667" 
d="M544 252l-70 409l-245 -409h315zM5 0l438 722h77l135 -722h-64l-36 198h-359l-118 -198h-73z" />
    <glyph glyph-name="afii10018" unicode="&#x411;" horiz-adv-x="667" 
d="M177 58h199q97 0 158 46t61 138q0 107 -157 107h-199zM251 406h217q198 0 198 -148q0 -123 -79 -190.5t-205 -67.5h-282l153 722h458l-12 -57h-393z" />
    <glyph glyph-name="afii10019" unicode="&#x412;" horiz-adv-x="667" 
d="M177 58h131q76 0 115 9q58 13 101 61t43 106q0 37 -20 65q-19 26 -49.5 36.5t-88.5 10.5h-170zM251 403h157q40 0 69 7q55 13 93 58.5t38 101.5q0 48 -35.5 71.5t-90.5 23.5h-176zM100 0l153 722h202q64 0 92 -4t55 -15q36 -16 57 -49t21 -74q0 -72 -51.5 -129.5
t-122.5 -73.5q61 -9 95.5 -46.5t34.5 -93.5q0 -105 -89 -173q-53 -40 -110 -52t-135 -12h-202z" />
    <glyph glyph-name="afii10020" unicode="&#x413;" 
d="M160 0h-65l153 722h408l-12 -57h-343z" />
    <glyph glyph-name="afii10021" unicode="&#x414;" horiz-adv-x="722" 
d="M561 58l129 607h-272l-33 -155q-26 -124 -81.5 -246t-132.5 -206h390zM668 -161h-63l34 161h-557l-34 -161h-63l46 219h62q173 180 240 506l33 158h401l-141 -664h88z" />
    <glyph glyph-name="afii10022" unicode="&#x415;" horiz-adv-x="611" 
d="M102 0l153 722h429l-12 -57h-364l-55 -261h350l-12 -57h-350l-62 -289h379l-12 -58h-444z" />
    <glyph glyph-name="afii10024" unicode="&#x416;" horiz-adv-x="935" 
d="M583 722h65l-67 -318h2l384 318h86l-404 -333l281 -389h-80l-273 377h-2l-80 -377h-65l80 377h-2l-420 -377h-93l450 401l-267 321h77l259 -318h2z" />
    <glyph glyph-name="afii10025" unicode="&#x417;" horiz-adv-x="611" 
d="M480 382q49 -14 71 -35q43 -41 43 -106q0 -114 -92 -183t-211 -69q-76 0 -129.5 28.5t-68.5 90.5q-5 22 -5 36t5 49h70q-2 -11 -2 -31q0 -56 36 -86t106 -30q85 0 153 52.5t68 134.5q0 52 -37.5 83t-101.5 31q-18 0 -48 -3l14 66q14 -1 37 -1q74 0 131 45.5t57 118.5
q0 48 -35 76t-96 28q-69 0 -122 -39q-37 -27 -59 -84h-72q12 45 26 66q35 54 97.5 85t138.5 31q90 0 141 -40t51 -109q0 -51 -22.5 -96.5t-63.5 -73.5q-28 -19 -79 -33z" />
    <glyph glyph-name="afii10026" unicode="&#x418;" horiz-adv-x="722" 
d="M623 0h-65l135 635h-3l-517 -635h-74l153 722h65l-132 -625h3l506 625h82z" />
    <glyph glyph-name="afii10027" unicode="&#x419;" horiz-adv-x="722" 
d="M537 800q-107 0 -107 103q0 7 2 25h38q5 -71 80 -71q76 0 113 71h40q-19 -62 -62 -95t-104 -33zM623 0h-65l135 635h-3l-517 -635h-74l153 722h65l-132 -625h3l506 625h82z" />
    <glyph glyph-name="afii10028" unicode="&#x41a;" horiz-adv-x="611" 
d="M106 0l153 722h66l-67 -318l385 318h87l-405 -335l282 -387h-80l-275 377l-80 -377h-66z" />
    <glyph glyph-name="afii10029" unicode="&#x41b;" horiz-adv-x="697" 
d="M370 665l-61 -290q-23 -107 -48.5 -182t-67.5 -128q-55 -69 -137 -69q-27 0 -41 7l12 56q5 -3 28 -3q104 0 164 215q13 48 38 166l60 285h434l-153 -722h-65l141 665h-304z" />
    <glyph glyph-name="afii10030" unicode="&#x41c;" horiz-adv-x="944" 
d="M97 0l153 722h97l141 -629l406 629h105l-153 -722h-64l141 664l-422 -664h-54l-146 661l-140 -661h-64z" />
    <glyph glyph-name="afii10031" unicode="&#x41d;" horiz-adv-x="722" 
d="M99 0l153 722h65l-67 -318h394l67 318h65l-153 -722h-65l74 346h-394l-74 -346h-65z" />
    <glyph glyph-name="afii10032" unicode="&#x41e;" horiz-adv-x="778" 
d="M204 262q0 -102 51 -158.5t144 -56.5q77 0 141 38.5t103.5 100.5t61 135t21.5 146q0 100 -50 155.5t-143 55.5q-62 0 -116.5 -25t-92.5 -67t-65.5 -96t-41 -112t-13.5 -116zM543 736q130 0 193.5 -69t63.5 -187q0 -73 -17.5 -143.5t-52.5 -133.5t-84 -110.5t-116.5 -75.5
t-145.5 -28q-129 0 -191 70t-62 188q0 123 46.5 232.5t142.5 183t223 73.5z" />
    <glyph glyph-name="afii10033" unicode="&#x41f;" horiz-adv-x="722" 
d="M164 0h-65l153 722h524l-153 -722h-65l141 665h-394z" />
    <glyph glyph-name="afii10034" unicode="&#x420;" horiz-adv-x="611" 
d="M244 375h139q63 0 95 6q65 12 103.5 62t38.5 117q0 105 -158 105h-157zM100 0l153 722h202q74 0 106.5 -7t67.5 -29q62 -39 62 -122q0 -60 -31.5 -116t-82.5 -88q-71 -43 -208 -43h-138l-67 -317h-64z" />
    <glyph glyph-name="afii10035" unicode="&#x421;" horiz-adv-x="667" 
d="M730 553h-70v14q0 52 -36.5 81t-104.5 29q-76 0 -139 -40t-101.5 -103.5t-59.5 -137t-21 -146.5q0 -93 44.5 -147.5t142.5 -54.5q69 0 124.5 35.5t76.5 91.5h71q-33 -85 -112.5 -135t-182.5 -50q-121 0 -179.5 71.5t-58.5 186.5q0 71 16.5 140.5t50.5 132t81 110
t112 75.5t140 28q53 0 98 -13.5t78 -49t33 -88.5q0 -15 -3 -30z" />
    <glyph glyph-name="afii10036" unicode="&#x422;" 
d="M248 0l141 665h-234l12 57h528l-12 -57h-229l-141 -665h-65z" />
    <glyph glyph-name="afii10037" unicode="&#x423;" horiz-adv-x="611" 
d="M312 206l-153 516h73l128 -450l325 450h74l-519 -722h-77z" />
    <glyph glyph-name="afii10038" unicode="&#x424;" horiz-adv-x="791" 
d="M390 125l102 483q-136 0 -212 -88.5t-76 -225.5q0 -82 47.5 -125.5t138.5 -43.5zM745 448q0 160 -188 160l-102 -483q134 0 212 94t78 229zM443 70l-15 -70h-65l15 70q-117 0 -182 59t-65 163q0 162 104.5 266t268.5 104l12 60h65l-12 -60q116 0 182.5 -53.5t66.5 -156.5
q0 -161 -107 -271.5t-268 -110.5z" />
    <glyph glyph-name="afii10039" unicode="&#x425;" horiz-adv-x="611" 
d="M747 722l-324 -355l179 -367h-73l-154 314l-287 -314h-81l340 371l-172 351h75l146 -298l272 298h79z" />
    <glyph glyph-name="afii10040" unicode="&#x426;" horiz-adv-x="740" 
d="M642 0h-543l154 722h65l-142 -664h394l142 664h65l-142 -664h82l-46 -219h-63z" />
    <glyph glyph-name="afii10041" unicode="&#x427;" horiz-adv-x="667" 
d="M589 404l67 318h65l-153 -722h-65l74 350q-4 -2 -12 -3q-125 -26 -187 -26q-98 0 -144.5 39t-46.5 125q0 41 13 106l27 131h65l-30 -142q-9 -45 -9 -80q0 -63 34 -92.5t106 -29.5q82 0 196 26z" />
    <glyph glyph-name="afii10042" unicode="&#x428;" horiz-adv-x="1066" 
d="M966 0h-867l153 722h65l-141 -664h336l141 664h65l-141 -664h336l141 664h65z" />
    <glyph glyph-name="afii10043" unicode="&#x429;" horiz-adv-x="1083" 
d="M1014 -161h-63l34 161h-886l153 722h65l-141 -664h336l141 664h65l-141 -664h336l141 664h65l-141 -664h82z" />
    <glyph glyph-name="afii10044" unicode="&#x42a;" horiz-adv-x="722" 
d="M350 346l-62 -288h158q97 0 157.5 44.5t60.5 136.5q0 107 -156 107h-158zM352 665h-197l12 57h262l-67 -318h176q94 0 145.5 -40t51.5 -113q0 -116 -81.5 -183.5t-201.5 -67.5h-241z" />
    <glyph glyph-name="afii10045" unicode="&#x42b;" horiz-adv-x="852" 
d="M239 346l-62 -288h158q97 0 157.5 44.5t60.5 136.5q0 107 -156 107h-158zM100 0l153 722h65l-67 -318h176q94 0 145.5 -40t51.5 -113q0 -116 -81.5 -183.5t-201.5 -67.5h-241zM841 722h65l-153 -722h-65z" />
    <glyph glyph-name="afii10046" unicode="&#x42c;" horiz-adv-x="611" 
d="M239 346l-62 -288h158q97 0 157.5 44.5t60.5 136.5q0 107 -156 107h-158zM100 0l153 722h65l-67 -318h176q94 0 145.5 -40t51.5 -113q0 -116 -81.5 -183.5t-201.5 -67.5h-241z" />
    <glyph glyph-name="afii10047" unicode="&#x42d;" horiz-adv-x="667" 
d="M687 361q-22 -103 -71.5 -185t-133.5 -134t-188 -52q-99 0 -152.5 45.5t-53.5 127.5v12h72v-7q0 -53 41 -86.5t107 -33.5q60 0 112 25.5t89 68.5t62.5 94.5t40.5 108.5h-332l13 58h330q6 36 6 71q0 92 -43 147.5t-139 55.5q-73 0 -127.5 -33.5t-72.5 -90.5h-70
q12 49 42 85.5t69.5 56.5t81.5 29.5t85 9.5q119 0 182.5 -65t63.5 -185q0 -60 -14 -123z" />
    <glyph glyph-name="afii10048" unicode="&#x42e;" horiz-adv-x="998" 
d="M947 467q0 100 -50 155.5t-143 55.5q-62 0 -116.5 -25t-92.5 -67t-65.5 -96t-41 -112t-13.5 -116q0 -102 51 -158.5t144 -56.5q77 0 141 38.5t103.5 100.5t61 135t21.5 146zM362 345h-125l-73 -345h-65l153 722h65l-67 -319h125q43 158 145 245.5t244 87.5
q130 0 193.5 -69t63.5 -187q0 -73 -17.5 -143.5t-52.5 -133.5t-84 -110.5t-116.5 -75.5t-145.5 -28q-129 0 -191 70t-62 188q0 49 10 98z" />
    <glyph glyph-name="afii10049" unicode="&#x42f;" horiz-adv-x="667" 
d="M595 403l55 262h-154q-37 0 -65.5 -2.5t-61 -11.5t-53.5 -25t-35.5 -45.5t-14.5 -70.5q0 -107 182 -107h147zM574 0h-65l74 346h-187q-94 0 -126.5 -32t-71.5 -162l-10 -33q-22 -72 -47 -119h-75q13 16 20 29q19 35 40 108q26 89 41 128q21 52 52.5 76.5t85.5 36.5l1 2
q-110 36 -110 132q0 61 25.5 104.5t69.5 65.5t90.5 31t101.5 9h244z" />
    <glyph glyph-name="afii10065" unicode="&#x430;" horiz-adv-x="500" 
d="M419 258h-32q-47 0 -82.5 -4t-81.5 -16.5t-72 -43t-26 -77.5q0 -35 25 -56.5t68 -21.5q81 0 137 59q33 36 55 124zM202 375h-64q22 70 78.5 105t134.5 35q40 0 72.5 -8t58.5 -33t26 -65q0 -31 -31 -164q-26 -112 -34 -169q-7 -63 -9 -76h-60q3 15 7.5 43.5t7.5 43.5
q-34 -45 -84 -71.5t-107 -26.5q-62 0 -99 32t-37 84q0 58 29.5 99.5t78 62.5t98 30t102.5 9q18 0 58 -3q15 62 15 85q0 41 -24 59.5t-79 18.5q-107 0 -138 -91z" />
    <glyph glyph-name="afii10066" unicode="&#x431;" 
d="M508 322q0 66 -34 103.5t-96 37.5q-78 0 -136 -56t-78 -152q-8 -35 -8 -71q0 -68 34 -104.5t98 -36.5q66 0 118 44.5t77 107t25 127.5zM277 -11q-89 0 -137.5 49.5t-48.5 136.5q0 46 14 111q26 120 59.5 198.5t86.5 127.5q32 29 74 47t66.5 22.5t77.5 11.5q73 9 87 29h82
q-18 -36 -51.5 -56t-92.5 -27q-103 -11 -139 -24q-43 -15 -78 -45q-36 -31 -62.5 -81.5t-37.5 -96.5l2 -2q89 125 219 125q80 0 128.5 -51t48.5 -130q0 -87 -34.5 -165t-104 -129t-159.5 -51z" />
    <glyph glyph-name="afii10067" unicode="&#x432;" horiz-adv-x="520" 
d="M147 52h162q55 0 94.5 29.5t39.5 82.5q0 68 -102 68h-156zM196 284h143q56 0 92.5 26t36.5 79q0 62 -87 62h-149zM420 263q42 -7 65 -33t23 -63q0 -70 -57 -118.5t-129 -48.5h-247l107 502h224q61 0 95.5 -24.5t34.5 -68.5q0 -50 -34 -91.5t-82 -53.5v-1z" />
    <glyph glyph-name="afii10068" unicode="&#x433;" horiz-adv-x="444" 
d="M502 449h-266l-95 -449h-61l107 502h327z" />
    <glyph glyph-name="afii10069" unicode="&#x434;" 
d="M425 53l84 396h-194l-3 -17q-46 -257 -160 -379h273zM516 -141h-61l30 141h-413l-30 -141h-61l41 194h56q76 68 118 176q13 34 21.5 64t13.5 52l22 97l13 60h316l-96 -449h71z" />
    <glyph glyph-name="afii10070" unicode="&#x435;" 
d="M500 292q3 21 3 39q0 63 -33.5 98t-94.5 35q-65 0 -117.5 -45.5t-78.5 -126.5h321zM554 242h-388q-6 -33 -6 -61q0 -66 34.5 -102.5t97.5 -36.5q57 0 103.5 31t72.5 87h63q-32 -79 -98 -125t-149 -46q-91 0 -140.5 53t-49.5 137q0 57 20.5 116t56.5 108.5t92 80.5t121 31
q86 0 134 -48t48 -133q0 -34 -10 -86z" />
    <glyph glyph-name="afii10072" unicode="&#x436;" horiz-adv-x="740" 
d="M730 0h-74l-203 250l-53 -250h-60l53 250l-300 -250h-83l324 265l-197 237h72l189 -231l49 231h60l-49 -231l278 231h81l-300 -245z" />
    <glyph glyph-name="afii10073" unicode="&#x437;" horiz-adv-x="500" 
d="M391 266q41 -5 66.5 -30t25.5 -63q0 -58 -36 -101t-87 -63t-107 -20q-69 0 -120 28.5t-51 90.5q0 14 3 32h65q-1 -7 -1 -18q0 -79 115 -79q65 0 109 31.5t44 92.5q0 72 -103 72h-9q-29 0 -43 -2l12 53l36 -2q57 -3 101 26.5t44 84.5q0 64 -96 64q-107 0 -140 -87h-63
q26 75 77.5 107t136.5 32q70 0 108 -26t38 -74q0 -54 -36 -95.5t-89 -52.5v-1z" />
    <glyph glyph-name="afii10074" unicode="&#x438;" 
d="M476 0h-61l88 414h-3l-350 -414h-70l107 502h61l-90 -421h3l352 421h70z" />
    <glyph glyph-name="afii10075" unicode="&#x439;" 
d="M476 0h-61l88 414h-3l-350 -414h-70l107 502h61l-90 -421h3l352 421h70zM406 592q-105 0 -105 99q0 15 1 23h33q5 -71 83 -71t115 71h34q-18 -59 -59.5 -90.5t-101.5 -31.5z" />
    <glyph glyph-name="afii10076" unicode="&#x43a;" horiz-adv-x="500" 
d="M251 502l-49 -229l288 229h81l-307 -245l220 -257h-72l-215 248l-53 -248h-61l107 502h61z" />
    <glyph glyph-name="afii10077" unicode="&#x43b;" 
d="M582 502l-107 -502h-61l95 449h-207l-34 -162q-33 -157 -79 -225.5t-114 -68.5q-32 0 -46 7l11 52q8 -3 27 -3q31 0 46 14q31 27 53.5 80.5t44.5 160.5l42 198h329z" />
    <glyph glyph-name="afii10078" unicode="&#x43c;" horiz-adv-x="689" 
d="M609 0h-60l96 450h-3l-262 -450h-71l-70 450h-3l-96 -450h-60l107 502h94l69 -454h3l264 454h99z" />
    <glyph glyph-name="afii10079" unicode="&#x43d;" 
d="M476 0h-61l50 234h-274l-50 -234h-61l107 502h61l-46 -215h274l46 215h61z" />
    <glyph glyph-name="afii10080" unicode="&#x43e;" 
d="M156 184q0 -68 34 -104.5t98 -36.5q66 0 118 44.5t77 107t25 127.5q0 66 -34 103.5t-96 37.5q-69 0 -121 -44t-76.5 -106t-24.5 -129zM388 515q93 0 139.5 -50.5t46.5 -135.5q0 -86 -35 -163t-104.5 -127t-157.5 -50q-90 0 -139 49.5t-49 137.5q0 134 83.5 236.5
t215.5 102.5z" />
    <glyph glyph-name="afii10081" unicode="&#x43f;" 
d="M476 0h-61l95 449h-274l-95 -449h-61l107 502h396z" />
    <glyph glyph-name="afii10082" unicode="&#x440;" 
d="M294 42q67 0 117 46.5t72.5 109.5t22.5 128t-31 101.5t-88 36.5q-67 0 -116.5 -46.5t-71.5 -109t-22 -127.5q0 -62 27.5 -100.5t89.5 -38.5zM147 76l-56 -268h-60l105 500q18 84 35 194h60l-12 -76q87 87 186 87q81 0 125 -46t44 -130q0 -83 -32 -161.5t-98 -132.5
t-152 -54q-105 0 -145 87z" />
    <glyph glyph-name="afii10083" unicode="&#x441;" horiz-adv-x="500" 
d="M535 344h-69q2 18 2 24q0 95 -100 95q-68 0 -118.5 -46.5t-72.5 -110t-22 -130.5q0 -65 31.5 -99.5t90.5 -34.5q55 0 96 31.5t55 82.5h67q-26 -82 -86 -124.5t-144 -42.5q-83 0 -129 47.5t-46 132.5q0 84 33.5 162t101.5 131t154 53q70 0 115 -36.5t45 -99.5
q0 -11 -4 -35z" />
    <glyph glyph-name="afii10084" unicode="&#x442;" horiz-adv-x="487" 
d="M562 449h-192l-95 -449h-61l95 449h-192l12 53h445z" />
    <glyph glyph-name="afii10085" unicode="&#x443;" horiz-adv-x="500" 
d="M218 6l-98 496h68l78 -418l257 418h70l-425 -694h-71z" />
    <glyph glyph-name="afii10086" unicode="&#x444;" horiz-adv-x="754" 
d="M367 92l68 323q-23 45 -77 45q-67 0 -115.5 -47.5t-68.5 -110t-20 -128.5q0 -63 28.5 -96.5t81.5 -33.5q24 0 53.5 15t49.5 33zM708 332q0 128 -115 128q-54 0 -97 -45l-68 -323q11 -18 34 -33t47 -15q65 0 112 49t67 112.5t20 126.5zM509 -9q-27 0 -53 13.5t-40 31.5
l-49 -227h-61l49 227q-22 -18 -54 -31.5t-59 -13.5q-71 0 -112 48t-41 131q0 58 17.5 117.5t50 110.5t84 83t113.5 32q25 0 51.5 -13t41.5 -31l53 253h61l-53 -253q23 18 54.5 31t56.5 13q74 0 114 -45.5t40 -128.5q0 -45 -11 -93t-33 -93.5t-53 -81.5t-74.5 -58t-92.5 -22z
" />
    <glyph glyph-name="afii10087" unicode="&#x445;" horiz-adv-x="500" 
d="M573 502l-230 -245l141 -257h-71l-116 209l-196 -209h-83l250 263l-132 239h72l105 -191l182 191h78z" />
    <glyph glyph-name="afii10088" unicode="&#x446;" horiz-adv-x="564" 
d="M490 0h-410l107 502h61l-96 -449h274l96 449h61l-96 -449h75l-41 -194h-61z" />
    <glyph glyph-name="afii10089" unicode="&#x447;" horiz-adv-x="500" 
d="M427 279l48 223h61l-107 -502h-61l49 230q-63 -26 -145 -26q-143 0 -143 123q0 25 6 55l26 120h61l-28 -128q-4 -19 -4 -38q0 -82 103 -82q76 0 134 25z" />
    <glyph glyph-name="afii10090" unicode="&#x448;" horiz-adv-x="811" 
d="M80 0l107 502h61l-96 -449h234l96 449h61l-96 -449h234l96 449h61l-107 -502h-651z" />
    <glyph glyph-name="afii10091" unicode="&#x449;" horiz-adv-x="816" 
d="M773 -141h-61l30 141h-662l107 502h61l-96 -449h234l96 449h61l-96 -449h234l96 449h61l-96 -449h72z" />
    <glyph glyph-name="afii10092" unicode="&#x44a;" horiz-adv-x="611" 
d="M260 53h144q60 0 101 35.5t41 93.5q0 73 -105 73h-138zM283 449h-159l12 53h220l-42 -194h159q65 0 102.5 -33t37.5 -88q0 -79 -56 -133t-140 -54h-229z" />
    <glyph glyph-name="afii10093" unicode="&#x44b;" horiz-adv-x="667" 
d="M149 53h124q60 0 101 35.5t41 93.5q0 73 -105 73h-118zM203 308h139q65 0 102.5 -33t37.5 -88q0 -80 -57 -133.5t-142 -53.5h-206l107 502h61zM637 502h61l-107 -502h-61z" />
    <glyph glyph-name="afii10094" unicode="&#x44c;" horiz-adv-x="500" 
d="M149 53h144q60 0 101 35.5t41 93.5q0 73 -105 73h-138zM203 308h159q65 0 102.5 -33t37.5 -88q0 -80 -57 -133.5t-142 -53.5h-226l107 502h61z" />
    <glyph glyph-name="afii10095" unicode="&#x44d;" horiz-adv-x="500" 
d="M238 -11q-75 0 -121 35t-46 106q0 18 1 27h67q-1 -7 -1 -21q0 -42 28 -67.5t76 -25.5q72 0 123.5 51t74.5 143h-210l12 55h208q3 24 3 45q0 126 -114 126q-57 0 -98.5 -29.5t-58.5 -85.5h-69q24 84 87 125.5t150 41.5q82 0 125 -46.5t43 -131.5q0 -86 -30.5 -163.5
t-96 -131t-153.5 -53.5z" />
    <glyph glyph-name="afii10096" unicode="&#x44e;" horiz-adv-x="746" 
d="M692 322q0 66 -34 103.5t-96 37.5q-69 0 -121 -44t-76.5 -106t-24.5 -129q0 -68 34 -104.5t98 -36.5q66 0 118 44.5t77 107t25 127.5zM279 237h-91l-50 -237h-61l107 502h61l-45 -210h92q32 103 107 163t173 60q93 0 139.5 -50.5t46.5 -135.5q0 -86 -35 -163t-104.5 -127
t-157.5 -50q-90 0 -139 49.5t-49 137.5q0 28 6 61z" />
    <glyph glyph-name="afii10097" unicode="&#x44f;" horiz-adv-x="520" 
d="M438 274l37 175h-145q-55 0 -93.5 -28.5t-38.5 -80.5q0 -66 101 -66h139zM441 0h-61l47 223h-150q-58 0 -85 -27q-12 -12 -23 -32.5t-16 -35.5t-11 -37t-7 -25q-12 -40 -25 -66h-63q1 3 3.5 8t4 7.5t1.5 4.5q4 10 30 89q1 4 5 16.5t5.5 16.5l5.5 14.5t6 14.5l6 12
t7.5 12.5l8.5 11t11 11l13 9.5q24 16 66 23l1 2q-86 20 -86 92q0 73 58.5 115.5t134.5 42.5h220z" />
    <glyph glyph-name="uni0450" unicode="&#x450;" 
d="M500 292q3 21 3 39q0 63 -33.5 98t-94.5 35q-65 0 -117.5 -45.5t-78.5 -126.5h321zM554 242h-388q-6 -33 -6 -61q0 -66 34.5 -102.5t97.5 -36.5q57 0 103.5 31t72.5 87h63q-32 -79 -98 -125t-149 -46q-91 0 -140.5 53t-49.5 137q0 57 20.5 116t56.5 108.5t92 80.5t121 31
q86 0 134 -48t48 -133q0 -34 -10 -86zM310 707h80l61 -143h-44z" />
    <glyph glyph-name="afii10071" unicode="&#x451;" 
d="M360 619h-74l18 88h74zM534 619h-74l18 88h74zM500 292q3 21 3 39q0 63 -33.5 98t-94.5 35q-65 0 -117.5 -45.5t-78.5 -126.5h321zM554 242h-388q-6 -33 -6 -61q0 -66 34.5 -102.5t97.5 -36.5q57 0 103.5 31t72.5 87h63q-32 -79 -98 -125t-149 -46q-91 0 -140.5 53
t-49.5 137q0 57 20.5 116t56.5 108.5t92 80.5t121 31q86 0 134 -48t48 -133q0 -34 -10 -86z" />
    <glyph glyph-name="afii10099" unicode="&#x452;" horiz-adv-x="545" 
d="M241 -147q68 7 117.5 60.5t69.5 147.5l20 97q5 23 5 40q0 47 -27.5 72.5t-78.5 25.5q-66 0 -115 -47t-65 -126l-26 -123h-61l95 450h-68l11 52h68l47 220h61l-47 -220h236l-11 -52h-236l-40 -190h2q26 32 51 50q57 41 126 41q140 0 140 -132q0 -29 -8 -71l-24 -116
q-5 -23 -19.5 -55t-43 -73.5t-78.5 -71t-112 -30.5z" />
    <glyph glyph-name="afii10100" unicode="&#x453;" horiz-adv-x="444" 
d="M502 449h-266l-95 -449h-61l107 502h327zM458 707h80l-157 -143h-44z" />
    <glyph glyph-name="afii10101" unicode="&#x454;" horiz-adv-x="500" 
d="M495 157q-25 -80 -84 -123.5t-136 -43.5q-87 0 -136 45t-49 135q0 83 29.5 160t92.5 131t146 54q80 0 130 -34.5t50 -101.5q0 -9 -2 -31h-69q1 7 1 20q0 47 -29 71t-81 24q-131 0 -183 -171h208l-12 -55h-209q-6 -33 -6 -60q0 -65 31 -99.5t90 -34.5q55 0 96 31.5
t55 82.5h67z" />
    <glyph glyph-name="afii10102" unicode="&#x455;" horiz-adv-x="500" 
d="M73 136h67q-1 -6 -1 -16q0 -83 113 -83q63 0 112 30.5t49 90.5q0 7 -1 13.5t-4.5 12t-6 9t-9 7.5t-10 6.5t-12 6t-12.5 5t-14.5 5l-13.5 4.5l-97 33q-49 16 -71 38.5t-22 59.5q0 80 60 118.5t149 38.5q79 0 122 -28.5t43 -84.5q0 -7 -2 -25h-67q1 5 1 15q0 75 -105 75
q-53 0 -94.5 -25.5t-41.5 -75.5q0 -10 4 -18.5t7.5 -13.5t14.5 -10l15.5 -7t19 -6.5t17.5 -5.5l97 -32q101 -34 101 -108q0 -84 -68.5 -130t-161.5 -46q-82 0 -131 31.5t-49 87.5q0 18 2 28z" />
    <glyph glyph-name="afii10103" unicode="&#x456;" horiz-adv-x="222" 
d="M80 0l107 502h61l-107 -502h-61zM213 646l16 76h71l-16 -76h-71z" />
    <glyph glyph-name="afii10104" unicode="&#x457;" horiz-adv-x="222" 
d="M80 0l107 502h61l-107 -502h-61zM193 619h-74l18 88h74zM367 619h-74l18 88h74z" />
    <glyph glyph-name="afii10105" unicode="&#x458;" horiz-adv-x="222" 
d="M189 502h61l-125 -589q-12 -55 -39 -79q-33 -30 -98 -30q-1 0 -25 2l11 53q8 -1 17 -1q33 0 51 17t26 57zM212 646l16 76h71l-16 -76h-71z" />
    <glyph glyph-name="afii10106" unicode="&#x459;" horiz-adv-x="816" 
d="M751 182q0 73 -105 73h-126l-43 -202h132q60 0 101 35.5t41 93.5zM622 0h-217l95 449h-204l-34 -162q-34 -163 -79 -228.5t-114 -65.5q-26 0 -40 7l11 52q8 -3 21 -3q33 0 48 14q30 26 51.5 79.5t44.5 161.5l42 198h326l-42 -195h147q65 0 102 -33.5t37 -89.5
q0 -77 -55.5 -130.5t-139.5 -53.5z" />
    <glyph glyph-name="afii10107" unicode="&#x45a;" horiz-adv-x="816" 
d="M818 184q0 -77 -56.5 -130.5t-139.5 -53.5h-217l53 249h-264l-53 -249h-61l107 502h61l-43 -201h264l43 201h61l-43 -201h147q66 0 103.5 -31.5t37.5 -85.5zM750 178q0 71 -105 71h-126l-42 -196h132q60 0 100.5 33.5t40.5 91.5z" />
    <glyph glyph-name="afii10108" unicode="&#x45b;" 
d="M476 0h-61l33 154q5 23 5 40q0 47 -27.5 72.5t-78.5 25.5q-66 0 -114.5 -46.5t-65.5 -126.5l-26 -119h-61l96 449h-68l11 53h68l46 220h61l-46 -220h236l-11 -53h-236l-41 -193h2q26 32 51 50q57 41 126 41q140 0 140 -130q0 -37 -8 -73z" />
    <glyph glyph-name="afii10109" unicode="&#x45c;" horiz-adv-x="500" 
d="M251 502l-49 -229l292 229h77l-305 -240l218 -262h-77l-210 248l-53 -248h-61l107 502h61zM458 707h80l-157 -143h-44z" />
    <glyph glyph-name="uni045D" unicode="&#x45d;" 
d="M476 0h-61l88 414h-3l-350 -414h-70l107 502h61l-90 -421h3l352 421h70zM292 707h80l61 -143h-44z" />
    <glyph glyph-name="afii10110" unicode="&#x45e;" horiz-adv-x="500" 
d="M383 592q-105 0 -105 99q0 15 1 23h33q5 -71 83 -71t115 71h34q-18 -59 -59.5 -90.5t-101.5 -31.5zM218 6l-98 496h68l78 -418l257 418h70l-424 -694h-71z" />
    <glyph glyph-name="afii10193" unicode="&#x45f;" 
d="M583 502l-107 -502h-165l-30 -141h-61l30 141h-170l107 502h61l-96 -449h274l96 449h61z" />
    <glyph glyph-name="afii10146" unicode="&#x462;" horiz-adv-x="627" 
d="M593 542h-297l-30 -138h176q110 0 161 -53.5t31 -148.5q-20 -96 -93 -149t-184 -53h-241l115 542h-116l12 60h116l26 120h65l-26 -120h297zM254 346l-61 -288h158q184 0 213 143q16 72 -22.5 108.5t-129.5 36.5h-158z" />
    <glyph glyph-name="afii10194" unicode="&#x463;" horiz-adv-x="546" 
d="M118 447l11 55h100l47 220h61l-47 -220h227l-11 -55h-227l-30 -139h159q78 0 114.5 -39t20.5 -111q-15 -73 -66 -115.5t-125 -42.5h-229l95 447h-100zM195 53h144q54 0 91 27.5t47 74.5q11 50 -14.5 75t-86.5 25h-138z" />
    <glyph glyph-name="afii10147" unicode="&#x472;" horiz-adv-x="778" 
d="M144 363q37 175 142.5 274t256.5 99q82 0 139 -29t83.5 -79t33.5 -118.5t-12 -146.5q-36 -166 -140 -270t-264 -104q-81 0 -137.5 30t-82 81t-32 119t12.5 144zM398 47q110 0 192 77.5t117 212.5h-498q-21 -135 29 -212.5t160 -77.5zM533 678q-109 0 -192.5 -75
t-118.5 -206h498q20 132 -29.5 206.5t-157.5 74.5z" />
    <glyph glyph-name="afii10195" unicode="&#x473;" 
d="M97 254q25 119 104.5 190t186.5 71q113 0 157 -74t20 -190q-25 -121 -103.5 -191.5t-185.5 -70.5q-109 0 -157 71.5t-22 193.5zM288 43q70 0 125 50t80 136h-334q-13 -88 21 -137t108 -49zM378 463q-72 0 -127.5 -48t-79.5 -131h334q11 83 -23 131t-104 48z" />
    <glyph glyph-name="afii10148" unicode="&#x474;" horiz-adv-x="690" 
d="M230 722l92 -657h2l276 514q43 82 91 117.5t124 35.5h25l-13 -61h-26q-53 0 -83.5 -23.5t-61.5 -79.5l-312 -568h-74l-111 722h71z" />
    <glyph glyph-name="afii10196" unicode="&#x475;" horiz-adv-x="550" 
d="M120 502h66l84 -419l180 314q63 110 172 110h20l-12 -58h-18q-35 0 -61.5 -18.5t-54.5 -67.5l-209 -363h-68z" />
    <glyph glyph-name="afii10050" unicode="&#x490;" 
d="M301 665l-141 -665h-65l153 722h343l27 127h65l-39 -184h-343z" />
    <glyph glyph-name="afii10098" unicode="&#x491;" horiz-adv-x="444" 
d="M502 449h-266l-95 -449h-61l107 502h267l26 126h60z" />
    <glyph glyph-name="Wgrave" unicode="&#x1e80;" horiz-adv-x="1000" 
d="M636 655l-346 -655h-92l-35 722h69l29 -657h2l350 657h79l81 -657h2l306 657h63l-343 -722h-89l-74 655h-2zM546 927h80l60 -143h-44z" />
    <glyph glyph-name="wgrave" unicode="&#x1e81;" horiz-adv-x="833" 
d="M189 502l60 -423h2l242 423h71l59 -419h2l234 419h66l-294 -502h-57l-62 433h-2l-249 -433h-61l-77 502h66zM411 707h80l61 -143h-44z" />
    <glyph glyph-name="Wacute" unicode="&#x1e82;" horiz-adv-x="1000" 
d="M636 655l-346 -655h-92l-35 722h69l29 -657h2l350 657h79l81 -657h2l306 657h63l-343 -722h-89l-74 655h-2zM771 927h80l-158 -143h-44z" />
    <glyph glyph-name="wacute" unicode="&#x1e83;" horiz-adv-x="833" 
d="M189 502l60 -423h2l242 423h71l59 -419h2l234 419h66l-294 -502h-57l-62 433h-2l-249 -433h-61l-77 502h66zM653 707h80l-157 -143h-44z" />
    <glyph glyph-name="Wdieresis" unicode="&#x1e84;" horiz-adv-x="1000" 
d="M636 655l-346 -655h-92l-35 722h69l29 -657h2l350 657h79l81 -657h2l306 657h63l-343 -722h-89l-74 655h-2zM802 839h-74l19 88h74zM628 839h-74l19 88h74z" />
    <glyph glyph-name="wdieresis" unicode="&#x1e85;" horiz-adv-x="833" 
d="M189 502l60 -423h2l242 423h71l59 -419h2l234 419h66l-294 -502h-57l-62 433h-2l-249 -433h-61l-77 502h66zM673 619h-74l18 88h74zM499 619h-74l18 88h74z" />
    <glyph glyph-name="Ygrave" unicode="&#x1ef2;" horiz-adv-x="611" 
d="M274 0l66 312l-179 410h83l147 -349l295 349h70l-350 -408l-67 -314h-65zM372 927h80l60 -143h-44z" />
    <glyph glyph-name="ygrave" unicode="&#x1ef3;" horiz-adv-x="500" 
d="M115 502h73l79 -420l258 420h65l-425 -694h-66l117 192zM278 707h80l61 -143h-44z" />
    <glyph glyph-name="uni2010" unicode="&#x2010;" horiz-adv-x="278" 
d="M63 237l13 60h252l-13 -60h-252z" />
    <glyph glyph-name="endash" unicode="&#x2013;" horiz-adv-x="500" 
d="M550 237h-500l13 60h500z" />
    <glyph glyph-name="emdash" unicode="&#x2014;" horiz-adv-x="1000" 
d="M1050 237h-1000l13 60h1000z" />
    <glyph glyph-name="quoteleft" unicode="&#x2018;" horiz-adv-x="278" 
d="M264 517h-81l115 205h52z" />
    <glyph glyph-name="quoteright" unicode="&#x2019;" horiz-adv-x="278" 
d="M277 722h81l-115 -205h-52z" />
    <glyph glyph-name="quotesinglbase" unicode="&#x201a;" horiz-adv-x="278" 
d="M141 81h81l-115 -205h-52z" />
    <glyph glyph-name="quotedblleft" unicode="&#x201c;" 
d="M494 517h-81l115 205h52zM310 517h-81l115 205h52z" />
    <glyph glyph-name="quotedblright" unicode="&#x201d;" 
d="M509 722h81l-115 -205h-52zM325 722h81l-115 -205h-52z" />
    <glyph glyph-name="quotedblbase" unicode="&#x201e;" 
d="M371 81h81l-115 -205h-52zM187 81h81l-115 -205h-52z" />
    <glyph glyph-name="dagger" unicode="&#x2020;" 
d="M352 487h-172l11 55h172l38 180h60l-38 -180h172l-11 -55h-172l-104 -487h-60z" />
    <glyph glyph-name="daggerdbl" unicode="&#x2021;" 
d="M352 487h-172l11 55h172l38 180h60l-38 -180h172l-11 -55h-172l-55 -255h172l-11 -55h-172l-38 -177h-60l38 177h-172l11 55h172z" />
    <glyph glyph-name="bullet" unicode="&#x2022;" horiz-adv-x="500" 
d="M430 361q0 -74 -53.5 -127t-128.5 -53q-73 0 -125.5 53t-52.5 127q0 75 52.5 127.5t126.5 52.5q75 0 128 -52.5t53 -127.5z" />
    <glyph glyph-name="ellipsis" unicode="&#x2026;" horiz-adv-x="1000" 
d="M145 86h80l-18 -86h-80zM478 86h80l-18 -86h-80zM811 86h80l-18 -86h-80z" />
    <glyph glyph-name="perthousand" unicode="&#x2030;" horiz-adv-x="1000" 
d="M88 -15l571 722h53l-568 -722h-56zM316 662q-44 0 -74 -35t-40 -82t5 -82t59 -35t74 35t40 82t-5 82t-59 35zM534 264q-44 0 -74 -35t-40 -82q-9 -47 5.5 -82t58.5 -35q45 0 75 35t39 82q10 47 -5 82t-59 35zM475 -15q-70 0 -98 44.5t-12 117.5t62.5 117.5t116.5 44.5
t97.5 -44.5t11.5 -117.5t-62 -117.5t-116 -44.5zM256 383q-70 0 -97.5 44.5t-11.5 117.5t62 117.5t116 44.5t98 -44.5t12 -117.5t-62.5 -117.5t-116.5 -44.5zM822 -15q-70 0 -98 44.5t-12 117.5t62.5 117.5t116.5 44.5t97.5 -44.5t11.5 -117.5t-62 -117.5t-116 -44.5z
M881 264q-44 0 -74 -35t-40 -82q-9 -47 5.5 -82t58.5 -35q45 0 75 35t39 82q10 47 -5 82t-59 35z" />
    <glyph glyph-name="guilsinglleft" unicode="&#x2039;" horiz-adv-x="278" 
d="M262 462h51l-134 -195l50 -195h-50l-64 195z" />
    <glyph glyph-name="guilsinglright" unicode="&#x203a;" horiz-adv-x="278" 
d="M129 72h-51l135 195l-51 195h50l65 -195z" />
    <glyph glyph-name="interrobang" unicode="&#x203d;" horiz-adv-x="500" 
d="M270 171h-60l70 381h72l-49 -192l40 32t46.5 38.5t36 35t35.5 45.5t17 45q14 65 -26 93t-111 28q-44 0 -97 -15l13 61q50 14 113 14q91 0 141.5 -46t31.5 -133q-8 -39 -32 -74.5t-45 -54t-65 -54.5l-38 -30.5l-30.5 -24.5t-19.5 -17.5t-15.5 -19t-7.5 -18.5t-6 -26z
M182 86h80l-18 -86h-80z" />
    <glyph glyph-name="fraction" unicode="&#x2044;" horiz-adv-x="167" 
d="M469 707l-565 -707h-55l567 707h53z" />
    <glyph glyph-name="zero.superior" unicode="&#x2070;" horiz-adv-x="360" 
d="M320 660q-97 0 -132 -168q-35 -169 60 -169q97 0 132 169q6 27 7.5 52.5t-2 53.5t-20 45t-45.5 17zM330 708q43 0 69.5 -18.5t35.5 -51t8.5 -68t-9.5 -78.5q-12 -59 -33.5 -104.5t-64 -79t-98.5 -33.5q-149 0 -104 217q12 59 33.5 104t63.5 78.5t99 33.5z" />
    <glyph glyph-name="four.superior" unicode="&#x2074;" horiz-adv-x="360" 
d="M282 284l20 97h-200l8 37l248 281h63l-58 -274h67l-10 -44h-67l-20 -97h-51zM312 425l46 218h-1l-188 -218h143z" />
    <glyph glyph-name="five.superior" unicode="&#x2075;" horiz-adv-x="360" 
d="M143 459l60 240h253l-10 -48h-204l-34 -132l1 -1q46 46 100 46q66 0 94 -40t15 -105q-14 -61 -60.5 -102.5t-115.5 -41.5q-65 0 -97.5 27t-25.5 84h54q-2 -29 18.5 -46t55.5 -17q48 0 78 27.5t40 73.5q9 41 -10 66.5t-64 25.5q-59 0 -96 -57h-52z" />
    <glyph glyph-name="six.superior" unicode="&#x2076;" horiz-adv-x="360" 
d="M299 514q-50 0 -81.5 -27.5t-40.5 -69.5t9.5 -68t63.5 -26t75.5 25.5t39.5 68.5q9 40 -8.5 68.5t-57.5 28.5zM340 708q62 0 93 -27.5t20 -82.5h-54q4 27 -15 44.5t-52 17.5q-112 0 -144 -161h1q43 60 120 60q66 0 95 -38.5t16 -101.5q-14 -63 -61.5 -103.5t-112.5 -40.5
q-58 0 -89.5 28.5t-34.5 72t6 95.5q10 47 22.5 83t36 74t62.5 59t91 21z" />
    <glyph glyph-name="seven.superior" unicode="&#x2077;" horiz-adv-x="360" 
d="M456 699l-10 -47l-251 -368h-58l256 367h-224l10 48h277z" />
    <glyph glyph-name="eight.superior" unicode="&#x2078;" horiz-adv-x="360" 
d="M222 499v2q-35 3 -51.5 30.5t-8.5 65.5q12 54 60 82.5t107 28.5q62 0 96.5 -28.5t22.5 -82.5q-7 -38 -34.5 -63t-65.5 -33v-1q37 -11 55.5 -37.5t9.5 -65.5q-13 -59 -64 -90.5t-112 -31.5q-65 0 -100.5 31t-22.5 91q8 39 38 66t70 36zM213 594q-7 -31 16 -50t61 -19
q42 0 71 18.5t36 50.5q7 33 -16.5 51t-61.5 18t-68.5 -18t-37.5 -51zM169 400q-8 -37 14.5 -57t63.5 -20t73 20t40 57q7 36 -16.5 56.5t-63.5 20.5q-41 0 -72.5 -20.5t-38.5 -56.5z" />
    <glyph glyph-name="nine.superior" unicode="&#x2079;" horiz-adv-x="360" 
d="M268 469q50 0 81.5 27.5t40.5 69.5t-10 68t-63 26q-45 0 -75.5 -25.5t-39.5 -68.5q-9 -40 8.5 -68.5t57.5 -28.5zM227 275q-62 0 -90 27.5t-20 89.5h54q-4 -34 13.5 -51.5t50.5 -17.5q112 0 144 161h-1q-21 -28 -53.5 -44t-66.5 -16q-66 0 -95 38.5t-16 101.5
q14 64 60 104t114 40q161 0 118 -196q-10 -47 -22.5 -83t-36 -74t-62.5 -59t-91 -21z" />
    <glyph glyph-name="plus.superior" unicode="&#x207a;" horiz-adv-x="360" 
d="M155 459v126h48v-126h132v-48h-132v-127h-48v127h-132v48h132z" />
    <glyph glyph-name="minus.superior" unicode="&#x207b;" horiz-adv-x="360" 
d="M23 411v48h312v-48h-312z" />
    <glyph glyph-name="equal.superior" unicode="&#x207c;" horiz-adv-x="360" 
d="M335 517v-48h-312v48h312zM335 400v-48h-312v48h312z" />
    <glyph glyph-name="parenleft.superior" unicode="&#x207d;" horiz-adv-x="230" 
d="M211 226h-42q-38 126 -12 246q26 122 116 245h42q-74 -102 -104 -245q-33 -149 0 -246z" />
    <glyph glyph-name="parenright.superior" unicode="&#x207e;" horiz-adv-x="230" 
d="M148 226h-43q71 92 105 246q32 153 -1 245h42q39 -125 13 -245q-25 -116 -116 -246z" />
    <glyph glyph-name="n.superior" unicode="&#x207f;" horiz-adv-x="360" 
d="M205 457l-37 -173h-48l49 233q6 31 12 68h49l-6 -39v-1q44 49 101 49q101 0 77 -122l-40 -188h-48l41 194q7 34 -8.5 52.5t-46.5 18.5q-36 0 -61.5 -27t-33.5 -65z" />
    <glyph glyph-name="zero.inferior" unicode="&#x2080;" horiz-adv-x="360" 
d="M259 376q-96 0 -131 -168q-35 -169 60 -169q97 0 132 169q6 27 7.5 52.5t-2 53.5t-20.5 45t-46 17zM270 424q43 0 69.5 -18.5t35.5 -51t8.5 -68t-9.5 -78.5t-24 -79t-37.5 -68.5t-57 -51t-77.5 -18.5q-57 0 -85.5 32.5t-28.5 81t10 103.5q12 59 33.5 104t63.5 78.5
t99 33.5z" />
    <glyph glyph-name="one.inferior" unicode="&#x2081;" horiz-adv-x="360" 
d="M236 0h-51l75 356q-47 -35 -115 -62l11 50q61 20 117 65h49z" />
    <glyph glyph-name="two.inferior" unicode="&#x2082;" horiz-adv-x="360" 
d="M316 0h-282l8 41q261 184 279 267q6 28 -13 48t-54 20q-39 0 -68.5 -21t-35.5 -50h-48q12 54 58 86.5t106 32.5q56 0 88.5 -30.5t21.5 -82.5q-8 -35 -42.5 -78t-69.5 -72.5l-81.5 -66l-58.5 -46.5h202z" />
    <glyph glyph-name="three.inferior" unicode="&#x2083;" horiz-adv-x="360" 
d="M190 193l10 48q46 -5 84.5 13.5t46.5 59.5q6 27 -16 44.5t-62 17.5q-79 0 -103 -62h-54q11 50 58.5 80t103.5 30q63 0 101 -28t26 -84q-8 -37 -39.5 -61.5t-72.5 -32.5l-1 -2q42 -8 63.5 -38t12.5 -71q-11 -55 -64.5 -86.5t-114.5 -31.5q-63 0 -98.5 30t-24.5 87h54
q-5 -30 17 -49.5t61 -19.5q46 0 78 20t39 55q10 45 -22.5 66.5t-82.5 14.5z" />
    <glyph glyph-name="four.inferior" unicode="&#x2084;" horiz-adv-x="360" 
d="M216 0l20 97h-195l8 37l243 281h63l-59 -274h67l-9 -44h-67l-20 -97h-51zM245 141l47 218h-1l-184 -218h138z" />
    <glyph glyph-name="five.inferior" unicode="&#x2085;" horiz-adv-x="360" 
d="M83 175l60 240h253l-10 -48h-204l-35 -132l1 -1q48 46 101 46q66 0 94 -40.5t14 -104.5q-13 -61 -59.5 -102.5t-115.5 -41.5q-65 0 -98 27t-26 84h54q-1 -29 19.5 -46t55.5 -17q48 0 78 27.5t39 73.5q9 41 -9.5 66.5t-63.5 25.5q-60 0 -96 -57h-52z" />
    <glyph glyph-name="six.inferior" unicode="&#x2086;" horiz-adv-x="360" 
d="M238 230q-50 0 -81 -27.5t-40 -69.5t9.5 -68t63.5 -26t75.5 25.5t39.5 68.5q9 40 -9 68.5t-58 28.5zM280 424q62 0 92.5 -27.5t19.5 -82.5h-54q4 27 -15 44.5t-52 17.5q-109 0 -144 -161h1q44 60 121 60q66 0 95 -38.5t15 -101.5q-13 -63 -60.5 -103.5t-112.5 -40.5
q-44 0 -73 16.5t-40 44t-13.5 63t7.5 72.5q10 47 23 83t36.5 74t62.5 59t91 21z" />
    <glyph glyph-name="seven.inferior" unicode="&#x2087;" horiz-adv-x="360" 
d="M396 415l-10 -47l-251 -368h-58l256 367h-224l10 48h277z" />
    <glyph glyph-name="eight.inferior" unicode="&#x2088;" horiz-adv-x="360" 
d="M161 215l1 2q-35 3 -51.5 30.5t-8.5 65.5q11 54 59 82.5t108 28.5q62 0 96 -28.5t23 -82.5q-8 -38 -35 -63t-65 -33l-1 -1q37 -11 55.5 -37t10.5 -66q-13 -59 -64 -90.5t-112 -31.5q-65 0 -100.5 31t-22.5 91q8 38 38 65.5t69 36.5zM152 310q-7 -31 16.5 -50t61.5 -19
q42 0 70.5 18.5t35.5 50.5q7 33 -16 51t-61 18t-69 -18t-38 -51zM108 116q-8 -37 15 -57t64 -20t72.5 20t39.5 57q8 36 -15.5 56.5t-63.5 20.5q-41 0 -72.5 -20.5t-39.5 -56.5z" />
    <glyph glyph-name="nine.inferior" unicode="&#x2089;" horiz-adv-x="360" 
d="M208 185q50 0 81 27.5t40 69.5t-9.5 68t-63.5 26t-75.5 -25.5t-39.5 -68.5q-8 -40 9.5 -68.5t57.5 -28.5zM167 -9q-62 0 -90.5 27.5t-20.5 89.5h54q-4 -34 13.5 -51.5t51.5 -17.5q109 0 144 161h-1q-21 -28 -54 -44t-67 -16q-66 0 -94.5 38.5t-15.5 101.5q13 64 59.5 104
t114.5 40q159 0 118 -196q-10 -48 -23 -83t-36 -73.5t-62 -59.5t-91 -21z" />
    <glyph glyph-name="plus.inferior" unicode="&#x208a;" horiz-adv-x="360" 
d="M155 175v126h48v-126h132v-48h-132l1 -127h-48l-1 127h-132v48h132z" />
    <glyph glyph-name="minus.inferior" unicode="&#x208b;" horiz-adv-x="360" 
d="M23 127v48h312v-48h-312z" />
    <glyph glyph-name="equal.inferior" unicode="&#x208c;" horiz-adv-x="360" 
d="M335 233v-48h-312v48h312zM335 116v-48h-312v48h312z" />
    <glyph glyph-name="parenleft.inferior" unicode="&#x208d;" horiz-adv-x="230" 
d="M150 -58h-42q-37 126 -12 246q26 120 117 245h42q-73 -98 -105 -245q-32 -152 0 -246z" />
    <glyph glyph-name="parenright.inferior" unicode="&#x208e;" horiz-adv-x="230" 
d="M87 -58h-43q74 95 105 246q33 150 0 245h42q38 -124 12 -245q-24 -116 -116 -246z" />
    <glyph glyph-name="Euro" unicode="&#x20ac;" 
d="M109 321h46l5 25q9 36 12 45h-60l23 46h52q41 116 126 193t197 77q125 0 153 -64l-41 -68q-27 72 -126 72q-82 0 -143.5 -60t-95.5 -150h303l-23 -46h-295q-7 -21 -13 -45l-5 -25h279l-24 -46h-261q-11 -99 22 -164.5t119 -65.5q96 0 165 61l-15 -73q-63 -48 -162 -48
q-60 0 -102.5 22.5t-64.5 63.5t-29 92t-1 112h-65z" />
    <glyph glyph-name="afii61248" unicode="&#x2105;" horiz-adv-x="1000" 
d="M823 707h58l-540 -707h-58zM800 363q73 0 104 -55.5t14 -133.5t-71.5 -133.5t-127.5 -55.5t-104.5 55.5t-14.5 133.5t72 133.5t128 55.5zM790 318q-53 0 -88 -43.5t-47 -100.5q-12 -58 4.5 -101t69.5 -43q54 0 88.5 43.5t45.5 100.5q5 34 4.5 66t-20.5 55t-57 23z
M283 518q-14 -63 7 -104.5t72 -41.5q83 0 108 76h56q-14 -55 -61 -87t-111 -32q-81 0 -112 54.5t-15 133.5q17 79 71.5 133.5t135.5 54.5q64 0 97.5 -32t23.5 -87h-56q4 37 -15.5 56.5t-60.5 19.5q-51 0 -89 -40.5t-51 -103.5z" />
    <glyph glyph-name="afii61289" unicode="&#x2113;" horiz-adv-x="500" 
d="M407 76l16 -35q-70 -55 -141 -55q-57 0 -85.5 32.5t-14.5 95.5l24 114l-71 -62h-2l-18 37l104 84l55 259q18 82 64 128.5t102 46.5q49 0 72.5 -34.5t10.5 -93.5q-30 -141 -239 -318l-32 -150q-11 -47 7.5 -67t49.5 -20q45 0 96 38h2zM464 588q8 38 -1.5 61.5t-32.5 23.5
q-25 0 -49.5 -30t-36.5 -86l-47 -222q144 136 167 253z" />
    <glyph glyph-name="afii61352" unicode="&#x2116;" horiz-adv-x="1020" 
d="M83 0l148 693h72l230 -606l130 606h62l-148 -693h-79l-225 593l-127 -593h-63zM762 240q0 -38 20 -59.5t55 -21.5q52 0 88 45t36 98q0 37 -20.5 59.5t-55.5 22.5q-53 0 -88 -45t-35 -99zM967 50l-11 -50h-304l11 50h304zM892 431q59 0 92.5 -31.5t33.5 -86.5
q0 -80 -56 -140.5t-135 -60.5q-57 0 -89.5 32t-32.5 86q0 80 54 140.5t133 60.5z" />
    <glyph glyph-name="published" unicode="&#x2117;" horiz-adv-x="800" 
d="M399 741q156 0 267 -110.5t111 -267.5q0 -158 -111.5 -269t-266.5 -111q-154 0 -266 111t-112 269q0 157 112.5 267.5t265.5 110.5zM399 700q-139 0 -238.5 -99t-99.5 -238q0 -142 99.5 -241t238.5 -99q140 0 238.5 99t98.5 241q0 138 -98 237.5t-239 99.5zM328 545v-172
h95q109 0 109 87q0 85 -109 85h-95zM328 149h-39v432h109q176 0 176 -121q0 -124 -176 -124h-70v-187z" />
    <glyph glyph-name="trademark" unicode="&#x2122;" horiz-adv-x="940" 
d="M502 722l-8 -40h-132l-81 -381h-55l81 381h-133l8 40h320zM676 722l54 -311h2l184 311h99l-89 -421h-55l80 377h-2l-225 -377h-34l-65 377h-2l-80 -377h-55l89 421h99z" />
    <glyph glyph-name="Omega" unicode="&#x2126;" horiz-adv-x="744" 
d="M685 0h-251l38 181q91 15 152 78t82 156q22 107 -35.5 176t-164.5 69t-194.5 -70t-109.5 -175q-19 -92 15 -156t119 -78l-38 -181h-251l12 58h197l17 82q-86 26 -122 102t-16 174q27 132 139.5 218.5t245.5 86.5q132 0 206.5 -86.5t46.5 -217.5q-21 -99 -89.5 -175.5
t-166.5 -101.5l-17 -82h197z" />
    <glyph glyph-name="estimated" unicode="&#x212e;" horiz-adv-x="600" 
d="M156 295h291v145q-63 60 -147 60t-144 -60v-145zM560 259h-404v-181q59 -59 145 -59q63 0 109 28.5t84 91.5l35 -21q-46 -73 -98 -104t-130 -31q-116 0 -186.5 79t-71.5 197q0 118 71.5 197t186.5 79t187 -77t72 -199z" />
    <glyph glyph-name="onethird" unicode="&#x2153;" horiz-adv-x="834" 
d="M245 284h-51l76 356q-50 -36 -116 -62l11 50q59 20 118 65h49zM768 707l-565 -707h-55l567 707h53zM666 193l10 48q46 -5 84.5 13.5t46.5 59.5q6 27 -16 44.5t-62 17.5q-79 0 -103 -62h-54q11 50 58.5 80t103.5 30q63 0 101 -28t26 -84q-8 -37 -39.5 -61.5t-72.5 -32.5
l-1 -2q42 -8 63.5 -38t12.5 -71q-11 -55 -64.5 -86.5t-114.5 -31.5q-63 0 -98.5 30t-24.5 87h54q-5 -30 17 -49.5t61 -19.5q46 0 78 20t39 55q10 45 -22.5 66.5t-82.5 14.5z" />
    <glyph glyph-name="twothirds" unicode="&#x2154;" horiz-adv-x="834" 
d="M369 284h-282l9 41q261 184 278 267q6 28 -12.5 48t-53.5 20q-39 0 -68.5 -21t-35.5 -50h-48q11 54 57 86.5t106 32.5q56 0 88.5 -30.5t21.5 -82.5q-8 -35 -42.5 -78t-69 -72l-82 -66t-58.5 -47h202zM814 707l-565 -707h-55l567 707h53zM670 193l10 48q46 -5 84.5 13.5
t46.5 59.5q6 27 -16 44.5t-62 17.5q-79 0 -103 -62h-54q11 50 58.5 80t103.5 30q63 0 101 -28t26 -84q-8 -37 -39.5 -61.5t-72.5 -32.5l-1 -2q42 -8 63.5 -38t12.5 -71q-11 -55 -64.5 -86.5t-114.5 -31.5q-63 0 -98.5 30t-24.5 87h54q-5 -30 17 -49.5t61 -19.5q46 0 78 20
t39 55q10 45 -22.5 66.5t-82.5 14.5z" />
    <glyph glyph-name="oneeighth" unicode="&#x215b;" horiz-adv-x="834" 
d="M247 284h-51l76 356q-50 -36 -116 -62l11 50q59 20 118 65h49zM759 707l-565 -707h-55l567 707h53zM631 215l1 2q-35 3 -51.5 30.5t-8.5 65.5q11 54 59 82.5t108 28.5q62 0 96 -28.5t23 -82.5q-8 -38 -35 -63t-65 -33l-1 -1q37 -11 55.5 -37t10.5 -66q-13 -59 -64 -90.5
t-112 -31.5q-65 0 -100.5 31t-22.5 91q8 38 38 65.5t69 36.5zM622 310q-7 -31 16.5 -50t61.5 -19q42 0 70.5 18.5t35.5 50.5q7 33 -16 51t-61 18t-69 -18t-38 -51zM578 116q-8 -37 15 -57t64 -20t72.5 20t39.5 57q8 36 -15.5 56.5t-63.5 20.5q-41 0 -72.5 -20.5t-39.5 -56.5
z" />
    <glyph glyph-name="threeeighths" unicode="&#x215c;" horiz-adv-x="834" 
d="M257 477l10 48q47 -5 85 13t47 60q5 27 -16.5 44.5t-61.5 17.5q-81 0 -103 -62h-54q10 50 57.5 80t103.5 30q63 0 101 -28t26 -84q-8 -37 -39.5 -61.5t-72.5 -32.5v-2q42 -8 63.5 -38t12.5 -71q-12 -55 -65 -86.5t-114 -31.5q-63 0 -98.5 30t-25.5 87h54
q-5 -30 17.5 -49.5t61.5 -19.5q46 0 77.5 20t39.5 55q9 45 -23 66.5t-83 14.5zM806 707l-565 -707h-55l567 707h53zM635 215l1 2q-35 3 -51.5 30.5t-8.5 65.5q11 54 59 82.5t108 28.5q62 0 96 -28.5t23 -82.5q-8 -38 -35 -63t-65 -33l-1 -1q37 -11 55.5 -37t10.5 -66
q-13 -59 -64 -90.5t-112 -31.5q-65 0 -100.5 31t-22.5 91q8 38 38 65.5t69 36.5zM626 310q-7 -31 16.5 -50t61.5 -19q42 0 70.5 18.5t35.5 50.5q7 33 -16 51t-61 18t-69 -18t-38 -51zM582 116q-8 -37 15 -57t64 -20t72.5 20t39.5 57q8 36 -15.5 56.5t-63.5 20.5
q-41 0 -72.5 -20.5t-39.5 -56.5z" />
    <glyph glyph-name="fiveeighths" unicode="&#x215d;" horiz-adv-x="834" 
d="M143 459l60 240h253l-10 -48h-204l-34 -132l1 -1q46 46 100 46q66 0 94 -40t15 -105q-14 -61 -60.5 -102.5t-115.5 -41.5q-65 0 -97.5 27t-25.5 84h54q-2 -29 18.5 -46t55.5 -17q48 0 78 27.5t40 73.5q9 41 -10 66.5t-64 25.5q-59 0 -96 -57h-52zM809 707l-565 -707h-55
l567 707h53zM648 215l1 2q-35 3 -51.5 30.5t-8.5 65.5q11 54 59 82.5t108 28.5q62 0 96 -28.5t23 -82.5q-8 -38 -35 -63t-65 -33l-1 -1q37 -11 55.5 -37t10.5 -66q-13 -59 -64 -90.5t-112 -31.5q-65 0 -100.5 31t-22.5 91q8 38 38 65.5t69 36.5zM639 310q-7 -31 16.5 -50
t61.5 -19q42 0 70.5 18.5t35.5 50.5q7 33 -16 51t-61 18t-69 -18t-38 -51zM595 116q-8 -37 15 -57t64 -20t72.5 20t39.5 57q8 36 -15.5 56.5t-63.5 20.5q-41 0 -72.5 -20.5t-39.5 -56.5z" />
    <glyph glyph-name="seveneighths" unicode="&#x215e;" horiz-adv-x="834" 
d="M481 699l-10 -47l-251 -368h-58l256 367h-224l10 48h277zM764 707l-565 -707h-55l567 707h53zM623 215l1 2q-35 3 -51.5 30.5t-8.5 65.5q11 54 59 82.5t108 28.5q62 0 96 -28.5t23 -82.5q-8 -38 -35 -63t-65 -33l-1 -1q37 -11 55.5 -37t10.5 -66q-13 -59 -64 -90.5
t-112 -31.5q-65 0 -100.5 31t-22.5 91q8 38 38 65.5t69 36.5zM614 310q-7 -31 16.5 -50t61.5 -19q42 0 70.5 18.5t35.5 50.5q7 33 -16 51t-61 18t-69 -18t-38 -51zM570 116q-8 -37 15 -57t64 -20t72.5 20t39.5 57q8 36 -15.5 56.5t-63.5 20.5q-41 0 -72.5 -20.5t-39.5 -56.5
z" />
    <glyph glyph-name="partialdiff" unicode="&#x2202;" horiz-adv-x="496" 
d="M454 363q0 -50 -4.5 -96t-19.5 -99t-38.5 -91t-65.5 -63.5t-97 -25.5q-91 0 -144.5 65.5t-54.5 158.5q0 90 52.5 151.5t141.5 61.5q97 0 166 -84q0 9 0.5 26t0.5 26q0 46 -9 90.5t-28.5 87t-56 69t-85.5 26.5q-52 0 -112 -46l-36 43q67 58 145 58q69 0 119 -33t76 -88.5
t38 -114t12 -122.5zM385 278q-70 91 -155 91q-65 0 -100.5 -46t-36.5 -113q1 -67 37 -118t100 -51q41 0 72 23.5t48 61.5t25 75.5t10 76.5z" />
    <glyph glyph-name="Delta" unicode="&#x2206;" horiz-adv-x="670" 
d="M657 0h-642l432 712h74zM574 62l-105 583l-350 -583h455z" />
    <glyph glyph-name="product" unicode="&#x220f;" horiz-adv-x="711" 
d="M640 -214h-66v938h-438v-938h-66v1000h570v-1000z" />
    <glyph glyph-name="summation" unicode="&#x2211;" horiz-adv-x="604" 
d="M577 -214h-552v55l328 448l-315 441v56h527v-62h-442l309 -435l-328 -442h473v-61z" />
    <glyph glyph-name="minus" unicode="&#x2212;" horiz-adv-x="660" 
d="M79 221v60h500v-60h-500z" />
    <glyph glyph-name="uni2215" unicode="&#x2215;" horiz-adv-x="167" 
d="M469 707l-565 -707h-55l567 707h53z" />
    <glyph glyph-name="uni2219" unicode="&#x2219;" horiz-adv-x="278" 
d="M241 294l-18 -86h-80l18 86h80z" />
    <glyph glyph-name="radical" unicode="&#x221a;" horiz-adv-x="493" 
d="M501 786l-210 -1000h-66l-164 340l-46 -22l-23 50l99 48l158 -332l189 916h63z" />
    <glyph glyph-name="infinity" unicode="&#x221e;" horiz-adv-x="741" 
d="M699 252q-1 -64 -39 -106t-101 -42q-36 0 -73.5 18.5t-59 36.5t-56.5 52q-10 -8 -33.5 -28.5t-36.5 -30.5t-34 -23.5t-42 -19t-44 -5.5q-63 0 -101 41t-39 104q1 63 38 105.5t100 42.5q36 0 75 -20.5t58 -37t59 -54.5l19.5 19.5t21 20.5l20.5 18t23 18l22.5 14t26 13
t26 7t28.5 3q63 0 103 -41.5t39 -104.5zM642 249q0 40 -21.5 66t-61.5 26q-16 0 -32.5 -5.5t-34 -18l-28.5 -21t-31 -26t-25 -22.5q3 -3 13 -11.5l14 -12l13.5 -11.5t15 -11.5l15 -10t16 -10t16 -8t17 -6.5t16.5 -3.5t18 -1.5q37 0 58 24.5t22 62.5zM332 249q-3 2 -8 7
q-28 25 -45.5 39t-47.5 29.5t-54 15.5q-37 0 -58 -26.5t-22 -63.5q0 -39 22.5 -63.5t61.5 -24.5q59 0 151 87z" />
    <glyph glyph-name="integral" unicode="&#x222b;" horiz-adv-x="543" 
d="M405 736q0 -34 -37 -34q-13 0 -21 6t-11.5 14t-8.5 14t-11 6q-10 0 -17 -9.5t-10.5 -25.5t-5.5 -34t-2.5 -39t0 -36.5l1 -30t0.5 -16.5v-504q-1 -115 -13 -159q-25 -101 -109 -101q-24 0 -42 12t-18 35q0 14 9.5 23t23.5 9q15 0 23.5 -9.5t14 -19t12.5 -9.5
q23 0 28.5 60.5t3.5 98.5l1 21v495q0 8 -1 43.5t0 53.5t3.5 52t10.5 53t20.5 40t34.5 31t51 10q27 0 48.5 -12.5t21.5 -37.5z" />
    <glyph glyph-name="approxequal" unicode="&#x2248;" horiz-adv-x="660" 
d="M549 402h43q-6 -58 -37 -97.5t-86 -39.5q-46 0 -145 37q-93 36 -133 36q-32 0 -53 -23.5t-26 -56.5h-45q8 59 38.5 99t85.5 40q50 0 143 -36q99 -37 136 -37q61 0 79 78zM548 232h44q-8 -60 -38 -99t-86 -39q-49 0 -144 37q-93 36 -133 36q-32 0 -53 -23.5t-26 -56.5h-45
q8 59 38 99.5t85 40.5q47 0 144 -36q95 -37 136 -37q60 0 78 78z" />
    <glyph glyph-name="notequal" unicode="&#x2260;" horiz-adv-x="660" 
d="M580 120h-287l-76 -144l-52 27l62 117h-149v60h181l68 130h-249v60h282l77 147l52 -28l-63 -119h154v-60h-186l-69 -130h255v-60z" />
    <glyph glyph-name="lessequal" unicode="&#x2264;" horiz-adv-x="660" 
d="M580 108l-502 188v65l502 189v-65l-419 -157l419 -155v-65zM580 6h-502v59h502v-59z" />
    <glyph glyph-name="greaterequal" unicode="&#x2265;" horiz-adv-x="660" 
d="M580 296l-502 -188v65l420 155l-420 157v65l502 -189v-65zM580 6h-502v59h502v-59z" />
    <glyph glyph-name="lozenge" unicode="&#x25ca;" horiz-adv-x="593" 
d="M497 356l-171 -391h-63l-169 391l169 391h63zM432 356l-137 325l-136 -325l136 -325z" />
    <glyph glyph-name="f_i" unicode="&#xf001;" 
d="M513 502h60l-107 -502h-60zM624 722l-15 -75h-70l15 75h70zM183 0h-60l95 447h-101l12 55h101l22 107q14 65 49 95t99 30q8 0 55 -11l-11 -48q-22 4 -36 4q-56 0 -75 -25t-30 -88l-13 -64h114l-12 -55h-114z" />
    <glyph glyph-name="f_l" unicode="&#xf002;" 
d="M185 0h-60l95 447h-101l12 55h101l22 107q14 65 49 95t99 30q8 0 55 -11l-11 -48q-22 4 -36 4q-56 0 -75 -25t-30 -88l-13 -64h114l-12 -55h-114zM623 722l-153 -722h-60l153 722h60z" />
    <glyph glyph-name="uniF8FF" unicode="&#xf8ff;" horiz-adv-x="512" 
d="M278 117h-56v67h56v-67zM271 234h-46l-2 17q0 56 13 81q15 28 46 59q30 28 40 45.5t10 37.5q0 36 -22.5 60.5t-53.5 24.5q-71 0 -82 -95l-50 8q6 69 42 103t93 34q55 0 89.5 -36t34.5 -95q0 -34 -13 -60t-50 -60q-37 -33 -43 -52q-6 -20 -6 -72zM50 50h412v617h-412v-617
zM0 718h512v-718h-512v718z" />
    <glyph glyph-name="grave.cap" horiz-adv-x="278" 
d="M217 927h80l60 -143h-44z" />
    <glyph glyph-name="acute.cap" horiz-adv-x="278" 
d="M375 927h80l-158 -143h-44z" />
    <glyph glyph-name="circumflex.cap" horiz-adv-x="278" 
d="M169 782l131 145h73l68 -145h-47l-67 106l-112 -106h-46z" />
    <glyph glyph-name="caron.cap" horiz-adv-x="278" 
d="M472 927l-131 -145h-73l-68 145h47l66 -106l113 106h46z" />
    <glyph glyph-name="caron.alt" horiz-adv-x="278" 
d="M281 722h66l-95 -146h-40z" />
    <glyph glyph-name="tilde.cap" horiz-adv-x="278" 
d="M433 915h38q-40 -85 -109 -85q-19 0 -43 11q-30 10 -52 10q-40 0 -53 -29h-38q19 43 51.5 65t73.5 15q7 -1 38 -11q34 -9 37 -9q38 0 57 33z" />
    <glyph glyph-name="dieresis.cap" horiz-adv-x="278" 
d="M441 839h-74l19 88h74zM267 839h-74l19 88h74z" />
    <glyph glyph-name="macron.cap" horiz-adv-x="278" 
d="M441 843h-245l11 50h245z" />
    <glyph glyph-name="breve.cap" horiz-adv-x="278" 
d="M439 937h21q-31 -108 -148 -108q-52 0 -79.5 28t-16.5 80h23q0 -33 24.5 -47.5t58.5 -14.5q86 0 117 62z" />
    <glyph glyph-name="ring.cap" horiz-adv-x="278" 
d="M230 869q8 38 41 65.5t71 27.5q39 0 60 -27.5t13 -65.5t-41 -65t-71 -27q-37 0 -59 27t-14 65zM378 869q5 23 -8 39.5t-36 16.5t-43 -16.5t-25 -39.5t8 -39.5t36 -16.5t43 16.5t25 39.5z" />
    <glyph glyph-name="hungarumlaut.cap" 
d="M292 786l125 141h81l-159 -141h-47zM423 786l125 141h81l-159 -141h-47z" />
    <glyph glyph-name="dotaccent.cap" horiz-adv-x="278" 
d="M354 839h-74l19 88h74z" />
    <glyph glyph-name="commaaccent" horiz-adv-x="278" 
d="M93 -74h67l-90 -145h-43z" />
    <glyph glyph-name="commaaccent.alt" horiz-adv-x="278" 
d="M270 564h-67l90 145h43z" />
    </font>
</defs>
</svg>
