<?xml version="1.0" standalone="no"?>
<!DOCTYPE svg PUBLIC "-//W3C//DTD SVG 1.1//EN" "http://www.w3.org/Graphics/SVG/1.1/DTD/svg11.dtd" >
<svg>
<metadata>
Created by FontForge 20090622 at Tue Dec  6 10:38:18 2016
 By deploy user
Copyright &#194;&#169; 2009 Linotype Corp., www.linotype.com. All rights reserved. This font software may not be reproduced, modified, disclosed or transferred without the express written approval of Linotype Corp. Univers is a trademark of Linotype Corp. registered in the U.S. Patent and Trademark Office and may be registered in certain other jurisdictions in the name of Linotype Corp. or its licensee Linotype GmbH. This typeface is original artwork of Adrian Frutiger. The design may be protected in certain jurisdictions. 
</metadata>
<defs>
<font id="UniversLTCYR-57Condensed" horiz-adv-x="500" >
  <font-face 
    font-family="Univers LT CYR 57 Cn"
    font-weight="400"
    font-stretch="condensed"
    units-per-em="1000"
    panose-1="2 11 5 6 2 2 2 5 2 4"
    ascent="800"
    descent="-200"
    x-height="505"
    cap-height="722"
    bbox="-166 -225 1000 989"
    underline-thickness="50"
    underline-position="-50"
    unicode-range="U+000D-U+FB04"
  />
<missing-glyph horiz-adv-x="485" 
d="M263 111h-53v63h53v-63zM257 222h-46v16q0 50 11 75.5t46 55.5q28 27 37 44t9 36q0 33 -21 56.5t-51 23.5q-67 0 -77 -90q-8 1 -24 3.5t-24 4.5q7 66 41 98t87 32q52 0 85 -34t33 -90q0 -32 -12.5 -56.5t-47.5 -56.5t-40.5 -47.5t-5.5 -70.5zM47 47h391v585h-391v-585z
M0 680h485v-680h-485v680z" />
    <glyph glyph-name="IJ" unicode="IJ" horiz-adv-x="726" 
d="M186 0h-93v722h93v-722zM636 185q0 -95 -48.5 -147t-146.5 -52q-185 0 -185 204q0 20 1 36h96q-1 -14 -1 -21q0 -31 2.5 -51t10.5 -43.5t27.5 -35t49.5 -11.5q102 0 102 140v518h92v-537z" />
    <glyph glyph-name="ij" unicode="ij" horiz-adv-x="426" 
d="M157 634h-92v88h92v-88zM154 0h-86v505h86v-505zM361 634h-92v88h92v-88zM358 -90q0 -48 -31.5 -74t-89.5 -26q-12 0 -25 1v67q38 1 49 16t11 55v556h86v-595z" />
    <glyph glyph-name="napostrophe" unicode="&#x22;n" 
d="M430 0h-86v335q0 53 -16.5 83.5t-66.5 30.5q-53 0 -78 -35t-25 -90v-324h-86v440l-2 65h87v-65q23 40 54.5 57.5t80.5 17.5q79 0 108.5 -43.5t29.5 -123.5v-348zM136 722l-54 -141h-50l13 141h91z" />
    <glyph glyph-name="f_f" unicode="ff" horiz-adv-x="532" 
d="M9 505h78v98q0 122 145 122q21 0 39 -3v-59l-18 1q-49 0 -66.5 -19.5t-17.5 -53.5v-86h177v98q0 122 145 122q21 0 39 -3v-59l-18 1q-49 0 -66.5 -19.5t-17.5 -53.5v-86h102v-62h-102v-443h-82v443h-177v-443h-82v443h-78v62z" />
    <glyph glyph-name="fi" unicode="fi" 
d="M9 505h78v98q0 122 145 122q21 0 39 -3v-59q-59 4 -80.5 -15.5t-21.5 -56.5v-86h102v-62h-102v-443h-82v443h-78v62zM423 505v-505h-82v505h82zM336 634v88h92v-88h-92z" />
    <glyph glyph-name="fl" unicode="fl" 
d="M9 505h78v98q0 122 145 122q21 0 39 -3v-59q-59 4 -80.5 -15.5t-21.5 -56.5v-86h102v-62h-102v-443h-82v443h-78v62zM430 722v-722h-82v722h82z" />
    <glyph glyph-name="f_f_i" unicode="ffi" horiz-adv-x="754" 
d="M9 505h78v98q0 122 145 122q21 0 39 -3v-59l-18 1q-49 0 -66.5 -19.5t-17.5 -53.5v-86h177v98q0 122 145 122q21 0 39 -3v-59l-18 1q-49 0 -66.5 -19.5t-17.5 -53.5v-86h102v-62h-102v-443h-82v443h-177v-443h-82v443h-78v62zM682 505v-505h-82v505h82zM595 634v88h92
v-88h-92z" />
    <glyph glyph-name="f_f_l" unicode="ffl" horiz-adv-x="759" 
d="M9 505h78v98q0 122 145 122q21 0 39 -3v-59l-18 1q-49 0 -66.5 -19.5t-17.5 -53.5v-86h177v98q0 122 145 122q21 0 39 -3v-59l-18 1q-49 0 -66.5 -19.5t-17.5 -53.5v-86h102v-62h-102v-443h-82v443h-177v-443h-82v443h-78v62zM689 722v-722h-82v722h82z" />
    <glyph glyph-name=".notdef" horiz-adv-x="485" 
d="M263 111h-53v63h53v-63zM257 222h-46v16q0 50 11 75.5t46 55.5q28 27 37 44t9 36q0 33 -21 56.5t-51 23.5q-67 0 -77 -90q-8 1 -24 3.5t-24 4.5q7 66 41 98t87 32q52 0 85 -34t33 -90q0 -32 -12.5 -56.5t-47.5 -56.5t-40.5 -47.5t-5.5 -70.5zM47 47h391v585h-391v-585z
M0 680h485v-680h-485v680z" />
    <glyph glyph-name=".null" 
 />
    <glyph glyph-name="nonmarkingreturn" horiz-adv-x="333" 
 />
    <glyph glyph-name="CR" unicode="&#xd;" horiz-adv-x="0" 
 />
    <glyph glyph-name="space" unicode=" " horiz-adv-x="222" 
 />
    <glyph glyph-name="exclam" unicode="!" horiz-adv-x="333" 
d="M220 722l-20 -555h-70l-19 555h109zM212 0h-94v98h94v-98z" />
    <glyph glyph-name="quotedbl" unicode="&#x22;" horiz-adv-x="250" 
d="M85 491h-46l-9 217h65zM211 491h-47l-10 217h66z" />
    <glyph glyph-name="numbersign" unicode="#" horiz-adv-x="444" 
d="M115 0h-64l39 215h-77v57h88l31 167h-78v57h88l40 212h64l-39 -212h81l39 212h64l-39 -212h79v-57h-89l-31 -167h78v-57h-88l-41 -215h-64l40 215h-81zM246 272l32 167h-81l-32 -167h81z" />
    <glyph glyph-name="dollar" unicode="$" horiz-adv-x="444" 
d="M241 295v-235q45 5 73 36t28 78q0 40 -26 67.5t-75 53.5zM202 416v214q-37 -5 -59.5 -33.5t-22.5 -69.5q0 -68 82 -111zM241 -13v-63h-39v63q-101 0 -154 67q-39 53 -39 152h94q0 -61 23.5 -101.5t75.5 -44.5v257q-41 20 -65 34.5t-53.5 38.5t-43.5 55.5t-14 71.5
q0 83 50 135.5t126 52.5v64h39v-64q194 0 194 -199h-101q0 59 -20.5 90t-72.5 34v-236q92 -44 122 -68q73 -57 73 -149q0 -95 -59.5 -142.5t-135.5 -47.5z" />
    <glyph glyph-name="percent" unicode="%" horiz-adv-x="778" 
d="M569 708l-313 -719h-64l312 719h65zM322 512q0 -34 -1.5 -56.5t-8.5 -49t-20 -42.5t-37 -27t-58 -11q-35 0 -59.5 12.5t-36.5 28.5t-18 46.5t-7 49.5t-1 56q0 36 1.5 58t8 50t19.5 43.5t37.5 26.5t59.5 11q25 0 45 -6.5t32.5 -15t21.5 -26t13 -30.5t6 -38t2.5 -38.5
t0.5 -41.5zM257 521q0 36 -1 54.5t-6.5 40t-17.5 30.5t-33 9q-39 0 -48.5 -31t-9.5 -128v-7q0 -23 1 -36.5t5.5 -33.5t17 -30t32.5 -10q11 0 20 3t15 10t10.5 14t7.5 18t4.5 19t2 21.5t0.5 20.5v20v16zM703 175q0 -34 -1.5 -56.5t-8.5 -49t-20 -42.5t-37 -27t-58 -11
q-35 0 -59.5 12.5t-36.5 28.5t-18 46.5t-7 49.5t-1 56q0 36 1.5 58t8 50t19.5 43.5t37.5 26.5t59.5 11q25 0 45 -6.5t32.5 -15t21.5 -26t13 -30.5t6 -38t2.5 -38.5t0.5 -41.5zM638 184q0 36 -1 54.5t-6.5 40t-17.5 30.5t-33 9q-39 0 -48.5 -31t-9.5 -128v-7q0 -23 1 -36.5
t5.5 -33.5t17 -30t32.5 -10q11 0 20 3t15 10t10.5 14t7.5 18t4.5 19t2 21.5t0.5 20.5v20v16z" />
    <glyph glyph-name="ampersand" unicode="&#x26;" horiz-adv-x="667" 
d="M648 0h-104l-58 74q-41 -49 -86 -69t-112 -20q-110 0 -174 56.5t-64 153.5q0 78 40 124.5t118 92.5q-39 39 -66.5 88t-27.5 95q0 65 45.5 100.5t128.5 35.5q81 0 124.5 -36t43.5 -103q0 -96 -117 -193l141 -179q17 61 17 175q0 15 -1 30h76v-20q0 -61 -1 -89t-10.5 -77
t-28.5 -84zM365 590q0 33 -20.5 52t-56.5 19q-37 0 -59 -19.5t-22 -53.5q0 -51 78 -132q80 68 80 134zM437 134l-178 225q-28 -18 -44 -31t-35.5 -32.5t-28.5 -43t-9 -51.5q0 -64 42 -103t110 -39q94 0 143 75z" />
    <glyph glyph-name="quotesingle" unicode="'" horiz-adv-x="250" 
d="M149 491h-46l-10 217h65z" />
    <glyph glyph-name="parenleft" unicode="(" horiz-adv-x="278" 
d="M211 756q-2 -10 -10.5 -48t-11 -50.5t-10 -47t-10 -51t-8 -47t-7.5 -51t-5 -47.5t-4 -51.5t-1 -49.5q0 -204 64 -432h-58q-3 10 -26 81t-29.5 94.5l-20.5 78t-19 97t-5 85.5q0 44 5 86.5t19 97t21 79.5t29.5 94.5l26.5 81.5h60z" />
    <glyph glyph-name="parenright" unicode=")" horiz-adv-x="278" 
d="M229 320q0 -43 -5 -86t-19 -96.5t-22 -81t-30 -94.5t-26 -81h-60l34 150t23 138.5t11 153.5q0 191 -64 433h57l26.5 -81.5t29.5 -93t21.5 -80t18.5 -95.5t5 -86z" />
    <glyph glyph-name="asterisk" unicode="*" horiz-adv-x="444" 
d="M413 579l-1 -69l-158 14l88 -130l-56 -34l-65 147l-67 -144l-58 32l89 130l-154 -15v66l156 -12l-90 127l59 34l65 -142l62 143l62 -32l-92 -130z" />
    <glyph glyph-name="plus" unicode="+" 
d="M488 219h-207v-207h-65v207h-207v65h207v207h65v-207h207v-65z" />
    <glyph glyph-name="comma" unicode="," horiz-adv-x="222" 
d="M189 104l-91 -232h-64l52 232h103z" />
    <glyph glyph-name="hyphen" unicode="-" horiz-adv-x="333" 
d="M277 234h-220v74h220v-74z" />
    <glyph glyph-name="period" unicode="." horiz-adv-x="222" 
d="M159 0h-97v104h97v-104z" />
    <glyph glyph-name="slash" unicode="/" horiz-adv-x="278" 
d="M284 740l-216 -751h-74l216 751h74z" />
    <glyph glyph-name="zero" unicode="0" horiz-adv-x="444" 
d="M408 305q0 -34 -0.5 -54.5t-2.5 -53.5t-7.5 -54t-14 -47.5t-22.5 -43t-33.5 -32t-46.5 -22.5t-61 -7q-30 0 -55 6.5t-43 15.5t-32 26.5t-23 31.5t-15 39.5t-9 41.5t-5 46t-2 45.5v46.5v114v46.5t1.5 45.5t4.5 47t9.5 42.5t15 41t22.5 32.5t32 27.5t43 16t55 6.5
q52 0 89 -19t56 -45.5t29.5 -72.5t12.5 -80t2 -87v-100zM318 329v80q0 226 -96 226q-28 0 -47.5 -18.5t-28.5 -41t-14 -61.5t-5.5 -59.5t-0.5 -55.5v-12v-127q0 -198 93 -198q18 0 33 6.5t25 19.5t18 26.5t12 35l7 37.5t3.5 40.5t1 38t0 35.5t-0.5 28z" />
    <glyph glyph-name="one" unicode="1" horiz-adv-x="444" 
d="M289 0h-92v593q-48 -37 -104 -70v88q25 11 60 36.5t53 46.5h83v-694z" />
    <glyph glyph-name="two" unicode="2" horiz-adv-x="444" 
d="M415 0h-372v83l175 238q44 59 66 106t22 104q0 49 -22 75.5t-62 26.5q-83 0 -83 -105v-13h-94q0 5 -0.5 12.5t-0.5 8.5q0 83 46 126t131 43q177 0 177 -182q0 -71 -29.5 -132t-84.5 -131l-143 -180h274v-80z" />
    <glyph glyph-name="three" unicode="3" horiz-adv-x="444" 
d="M409 186q0 -97 -51 -148.5t-146 -51.5q-98 0 -142.5 46.5t-44.5 124.5v34h89v-16q0 -51 25 -82t75 -31q105 0 105 131q0 69 -31 99.5t-100 30.5h-19v81q11 -1 22 -1q121 0 121 118q0 52 -25.5 81t-71.5 29q-43 0 -66 -27.5t-23 -78.5v-18h-91v22q0 87 46.5 132t134.5 45
q89 0 138 -46.5t49 -131.5q0 -143 -137 -165q81 -15 112 -52.5t31 -124.5z" />
    <glyph glyph-name="four" unicode="4" horiz-adv-x="444" 
d="M425 174h-82v-174h-91v175h-227v98l196 421h122v-445h82v-75zM252 249v311l3 51l-161 -362h158z" />
    <glyph glyph-name="five" unicode="5" horiz-adv-x="444" 
d="M409 223q0 -108 -42.5 -168.5t-145.5 -60.5q-88 0 -130 42.5t-42 131.5h91v-11q0 -41 22.5 -67t62.5 -26q33 0 53.5 15t29 43.5t11 51t2.5 56.5q0 85 -21 120t-71 35q-72 0 -87 -81h-89l11 390h319v-74h-231l-11 -220q42 57 121 57q39 0 67.5 -14.5t43.5 -36t23.5 -55.5
t10.5 -61.5t2 -66.5z" />
    <glyph glyph-name="six" unicode="6" horiz-adv-x="444" 
d="M411 226q0 -48 -9 -88t-29.5 -73t-57 -51.5t-87.5 -18.5q-76 0 -123 45t-55 120q-10 98 -10 204v22q0 46 1 74t6.5 71t17.5 70t32 54t53.5 40t78.5 13q81 0 125.5 -45.5t44.5 -116.5v-10h-92v3q0 43 -23 70.5t-58 27.5q-27 0 -45.5 -15t-28 -35.5t-14.5 -58t-6 -65.5
t-1 -76q17 29 48.5 45.5t66.5 16.5q47 0 80.5 -18.5t51.5 -52t25.5 -70.5t7.5 -82zM321 231q0 144 -93 144q-94 0 -94 -151q0 -159 93 -159q31 0 51.5 15.5t29 44t11 51.5t2.5 55z" />
    <glyph glyph-name="seven" unicode="7" horiz-adv-x="444" 
d="M389 615l-185 -615h-102l192 616h-264v78h359v-79z" />
    <glyph glyph-name="eight" unicode="8" horiz-adv-x="444" 
d="M406 191q0 -95 -46 -147.5t-140 -52.5q-88 0 -135 51.5t-47 149.5q0 74 29 118t95 58q-116 24 -116 159q0 85 46.5 132.5t129.5 47.5t129.5 -47t46.5 -130q0 -133 -119 -162q127 -12 127 -177zM309 530q0 50 -23 79.5t-63 29.5t-64 -30t-24 -80q0 -55 23 -87.5t62 -32.5
q41 0 65 32.5t24 88.5zM317 195q0 63 -25 98t-70 35q-51 0 -72 -39t-21 -95q0 -129 94 -129q44 0 69 34.5t25 95.5z" />
    <glyph glyph-name="nine" unicode="9" horiz-adv-x="444" 
d="M404 341q0 -85 -4 -146q-6 -99 -53 -151.5t-132 -52.5q-74 0 -121.5 45.5t-47.5 118.5v10h92q1 -47 22 -73.5t57 -26.5q32 0 53 18t30.5 54.5t12.5 72.5t3 91q0 4 -0.5 16t-0.5 21q-37 -67 -120 -67q-76 0 -118 56t-42 156q0 98 44 159.5t138 61.5q31 0 56 -7t43 -17
t32.5 -29.5t23.5 -35.5t15.5 -45t9.5 -48.5t5 -55.5t2 -55.5v-58.5v-11zM310 491q0 68 -24 105t-68 37q-94 0 -94 -149q0 -56 20.5 -98.5t70.5 -42.5q95 0 95 148z" />
    <glyph glyph-name="colon" unicode=":" horiz-adv-x="222" 
d="M160 397h-97v108h97v-108zM160 0h-97v104h97v-104z" />
    <glyph glyph-name="semicolon" unicode=";" horiz-adv-x="222" 
d="M162 398h-97v107h97v-107zM176 104l-90 -232h-65l52 232h103z" />
    <glyph glyph-name="less" unicode="&#x3c;" 
d="M25 212v65l451 179v-67l-372 -144l372 -144v-67z" />
    <glyph glyph-name="equal" unicode="=" 
d="M476 307h-452v64h452v-64zM476 132h-452v64h452v-64z" />
    <glyph glyph-name="greater" unicode="&#x3e;" 
d="M476 212l-451 -178v67l372 144l-372 144v67l451 -179v-65z" />
    <glyph glyph-name="question" unicode="?" horiz-adv-x="444" 
d="M394 567q0 -34 -7 -63.5t-26 -61.5t-30.5 -47.5l-41.5 -54.5q-20 -26 -25 -40t-5 -45v-72h-80v87q0 42 5.5 63t25.5 45q86 101 86 191q0 45 -19 71t-53 26q-74 0 -74 -114v-22h-94v24q0 88 44 134.5t128 46.5q79 0 122.5 -44t43.5 -124zM264 0h-93v98h93v-98z" />
    <glyph glyph-name="at" unicode="@" horiz-adv-x="889" 
d="M531 396q0 70 -61 70q-26 0 -45.5 -13.5t-30.5 -38t-18 -48t-13 -52.5q-1 -8 -2 -11q-15 -73 -15 -99q0 -66 53 -66q24 0 42.5 11.5t30.5 26.5t22 42.5t15 48t12 53.5q10 45 10 76zM520 172q-23 -40 -60.5 -64t-81.5 -24q-57 0 -86 32.5t-29 84.5q0 42 16 116
q11 47 22.5 78.5t31.5 63.5t51.5 47.5t75.5 15.5q61 0 92 -54l11 48h83l-51 -232q-17 -77 -17 -91q0 -47 52 -47q70 0 121 79t51 169q0 134 -97 212t-238 78q-174 0 -277.5 -110.5t-103.5 -283.5q0 -168 99 -267t264 -99q92 0 168 27t158 83l31 -40q-171 -125 -360 -125
q-187 0 -303 113.5t-116 308.5q0 198 123 323.5t317 125.5q106 0 194.5 -40t144.5 -120.5t56 -187.5q0 -71 -27 -140t-85 -118t-134 -49q-40 0 -67.5 21.5t-28.5 65.5z" />
    <glyph glyph-name="A" unicode="A" horiz-adv-x="611" 
d="M596 0h-103l-52 172h-279l-53 -172h-94l229 722h117zM418 250l-118 387l-116 -387h234z" />
    <glyph glyph-name="B" unicode="B" horiz-adv-x="611" 
d="M538 203q0 -115 -62.5 -159t-170.5 -44h-215v722h239q84 0 135 -45.5t51 -126.5q0 -140 -124 -169v-5q75 -10 111 -52t36 -121zM423 530q0 32 -10.5 54.5t-24 34t-36 17.5t-36.5 7t-35 1h-98v-227h95q32 0 51.5 2.5t44 12.5t37 34.5t12.5 63.5zM444 210q0 41 -19.5 74
t-56.5 44q-35 10 -120 10h-65v-258h61q39 0 61 1t52.5 8t46.5 20t28 38.5t12 62.5z" />
    <glyph glyph-name="C" unicode="C" horiz-adv-x="556" 
d="M504 205q0 -216 -217 -216q-35 0 -64 7.5t-50 18t-37.5 31t-27 37.5t-18 46.5t-11 49t-5.5 54.5t-2 53v55v100q0 54 5 93.5t19.5 78.5t39.5 63t67 39t100 15q98 0 145 -47t47 -145v-21h-96v12q0 61 -22.5 92t-81.5 31q-27 0 -48 -7.5t-34.5 -17t-23 -30t-14 -34.5
t-7 -42.5t-2.5 -42v-44.5v-153q0 -116 28 -164.5t95 -48.5q118 0 120 151h95v-14z" />
    <glyph glyph-name="D" unicode="D" horiz-adv-x="611" 
d="M531 345q0 -74 -5.5 -123.5t-22.5 -95t-48.5 -71t-83.5 -40.5t-127 -15h-161v722h210q64 0 108 -17.5t69.5 -46t39 -80t17.5 -102.5t4 -131zM439 372q0 161 -30.5 215.5t-131.5 54.5h-101v-562h71q53 0 85.5 8.5t55 26t33 54t14.5 82t4 121.5z" />
    <glyph glyph-name="E" unicode="E" 
d="M460 0h-379v722h372v-80h-280v-232h260v-79h-260v-251h287v-80z" />
    <glyph glyph-name="F" unicode="F" horiz-adv-x="444" 
d="M432 642h-265v-232h251v-79h-251v-331h-93v722h358v-80z" />
    <glyph glyph-name="G" unicode="G" horiz-adv-x="611" 
d="M523 529h-96q0 132 -117 132q-21 0 -38.5 -2t-31.5 -9t-24 -13t-18 -20.5l-13.5 -24t-8.5 -32.5t-5 -36t-3 -44.5t-1 -49v-56.5v-16q0 -141 8 -183q17 -88 91 -106q22 -6 51 -6q68 0 110 31v214h-132v82h225v-351q-95 -53 -207 -53q-38 0 -70 6.5t-55.5 17t-41.5 29
t-30 36t-20.5 46t-13 50.5t-7 57t-3 59t-0.5 63v27v56t1.5 52.5t4.5 52t8.5 46.5t15 43.5l22.5 36t31 31.5t41 22t53 15.5t66 4.5q113 0 160.5 -48t47.5 -160z" />
    <glyph glyph-name="H" unicode="H" horiz-adv-x="611" 
d="M524 0h-92v333h-253v-333h-92v722h92v-309h253v309h92v-722z" />
    <glyph glyph-name="I" unicode="I" horiz-adv-x="278" 
d="M186 0h-93v722h93v-722z" />
    <glyph glyph-name="J" unicode="J" 
d="M410 185q0 -95 -48.5 -147t-146.5 -52q-185 0 -185 204q0 20 1 36h96q-1 -14 -1 -21q0 -31 2.5 -51t10.5 -43.5t27.5 -35t49.5 -11.5q102 0 102 140v518h92v-537z" />
    <glyph glyph-name="K" unicode="K" horiz-adv-x="556" 
d="M547 0h-118l-256 377v-377h-92v722h92v-317l255 317h104l-263 -326z" />
    <glyph glyph-name="L" unicode="L" horiz-adv-x="444" 
d="M438 0h-356v722h92v-642h264v-80z" />
    <glyph glyph-name="M" unicode="M" horiz-adv-x="833" 
d="M748 0h-88v641l-204 -641h-86l-201 641v-641h-85v722h149l183 -606l185 606h147v-722z" />
    <glyph glyph-name="N" unicode="N" horiz-adv-x="667" 
d="M581 0h-125l-287 626v-626h-83v722h129l284 -618v618h82v-722z" />
    <glyph glyph-name="O" unicode="O" horiz-adv-x="611" 
d="M532 343q0 -39 -0.5 -60.5t-2.5 -56.5t-6 -55.5t-12 -49t-19.5 -45t-29.5 -35.5t-40.5 -29t-53.5 -17t-69 -7q-66 0 -111 21.5t-68 63t-32.5 89.5t-9.5 112v164q0 55 4 94t17 81t37 68t66.5 42.5t101.5 16.5q61 0 104.5 -18.5t67.5 -46.5t37 -74.5t16 -87t3 -100.5v-70z
M438 314v110q0 108 -11 148q-26 89 -123 89q-69 0 -100.5 -42t-31.5 -135v-214q0 -112 29.5 -158t101.5 -46q32 0 55 6.5t38 22.5t23.5 33t12.5 50t5 60.5t1 75.5z" />
    <glyph glyph-name="P" unicode="P" horiz-adv-x="556" 
d="M506 518q0 -200 -216 -200h-105v-318h-92v722h204q47 0 82.5 -9t65.5 -30.5t45.5 -63t15.5 -101.5zM414 524q0 118 -124 118h-105v-244h70q23 0 36.5 1t35 4t34.5 11.5t26.5 21.5t20 35.5t6.5 52.5z" />
    <glyph glyph-name="Q" unicode="Q" horiz-adv-x="611" 
d="M602 0h-188l-39 -3q-26 -1 -79 -1q-66 0 -111 21.5t-68 63t-32.5 89.5t-9.5 112v156q0 55 4 94t17 81t37 68t66.5 42.5t101.5 16.5q61 0 104.5 -18.5t67.5 -46.5t37 -74.5t16 -87t3 -100.5v-70q0 -112 -10.5 -168.5t-53.5 -110.5q41 15 102 15h35v-79zM435 314v110
q0 108 -11 148q-26 89 -123 89q-69 0 -100.5 -42t-31.5 -135v-206q0 -112 29.5 -158t101.5 -46q32 0 55 5.5t38 21t23.5 31.5t12.5 48t5 59t1 75z" />
    <glyph glyph-name="R" unicode="R" horiz-adv-x="556" 
d="M513 0h-96q-14 32 -17 81l-6 111q-5 83 -30 111.5t-107 28.5h-84v-332h-93v722h260q17 0 36.5 -4t42.5 -16.5t41.5 -31.5t30.5 -52t12 -75q0 -68 -34.5 -111.5t-97.5 -55.5q64 -10 89 -48.5t28 -118.5l1 -26q3 -100 24 -183zM409 531q0 18 -3 33t-7.5 26t-12 19.5
t-14.5 14t-16.5 9.5t-16.5 5.5t-17 2.5t-14.5 1h-12.5h-8h-114v-232h107q129 0 129 121z" />
    <glyph glyph-name="S" unicode="S" horiz-adv-x="556" 
d="M496 183q0 -89 -60.5 -141.5t-162.5 -52.5q-103 0 -158 51.5t-55 149.5v31h91v-20q0 -62 33 -97.5t91 -35.5q57 0 92 31.5t35 83.5q0 35 -22.5 64t-56.5 47l-102 54q-76 40 -110 86t-34 109q0 89 58 140.5t158 51.5q96 0 146.5 -49.5t50.5 -145.5v-16h-96v13
q0 118 -109 118q-53 0 -83.5 -27.5t-30.5 -76.5q0 -27 11.5 -49.5t34 -40t41.5 -28.5t47 -24q48 -22 102 -61q50 -39 69.5 -75.5t19.5 -89.5z" />
    <glyph glyph-name="T" unicode="T" 
d="M486 642h-190v-642h-93v642h-189v80h472v-80z" />
    <glyph glyph-name="U" unicode="U" horiz-adv-x="611" 
d="M529 241q0 -120 -51.5 -187.5t-172.5 -67.5q-110 0 -166.5 61t-56.5 172v503h92v-501q0 -76 33.5 -116t98.5 -40q75 0 104 44.5t29 124.5v488h90v-481z" />
    <glyph glyph-name="V" unicode="V" horiz-adv-x="556" 
d="M543 722l-211 -722h-110l-209 722h100l166 -635l170 635h94z" />
    <glyph glyph-name="W" unicode="W" horiz-adv-x="889" 
d="M882 722l-191 -722h-112l-138 626l-147 -626h-112l-176 722h98l137 -626l146 626h119l132 -626l148 626h96z" />
    <glyph glyph-name="X" unicode="X" horiz-adv-x="556" 
d="M547 0h-111l-168 309l-159 -309h-100l208 374l-197 348h105l149 -280l150 280h101l-195 -348z" />
    <glyph glyph-name="Y" unicode="Y" 
d="M492 722l-198 -432v-290h-91v292l-195 430h103l142 -349l145 349h94z" />
    <glyph glyph-name="Z" unicode="Z" 
d="M476 0h-451v90l337 552h-325v80h431v-83l-348 -559h356v-80z" />
    <glyph glyph-name="bracketleft" unicode="[" horiz-adv-x="278" 
d="M236 -122h-165v875h165v-54h-87v-768h87v-53z" />
    <glyph glyph-name="backslash" unicode="\" horiz-adv-x="278" 
d="M284 -11h-74l-216 751h74z" />
    <glyph glyph-name="bracketright" unicode="]" horiz-adv-x="278" 
d="M207 -122h-166v55h88v768h-87v52h165v-875z" />
    <glyph glyph-name="asciicircum" unicode="^" 
d="M49 291l169 417h63l169 -417h-68l-134 338l-130 -338h-69z" />
    <glyph glyph-name="underscore" unicode="_" 
d="M0 -125v50h500v-50h-500z" />
    <glyph glyph-name="grave" unicode="`" horiz-adv-x="278" 
d="M218 579h-67l-131 141h109z" />
    <glyph glyph-name="a" unicode="a" 
d="M423 0h-85l-4 73h-2q-36 -84 -129 -84q-66 0 -101.5 40.5t-35.5 115.5q0 89 53.5 128.5t174.5 39.5h37v32q0 22 -1.5 35t-8.5 33t-25.5 30.5t-47.5 10.5q-38 0 -60 -20.5t-22 -57.5q0 -1 0.5 -5.5t0.5 -7.5h-89q1 78 43 115.5t128 37.5q164 0 164 -153v-261
q0 -50 10 -102zM332 218q0 16 -1 33q-14 1 -25 1q-35 0 -58 -3t-48.5 -12.5t-38 -31.5t-12.5 -56q0 -43 21.5 -67.5t59.5 -24.5q30 0 51.5 15.5t31.5 41t14.5 51t4.5 53.5z" />
    <glyph glyph-name="b" unicode="b" 
d="M444 239q0 -51 -6 -90.5t-22.5 -77.5t-51 -59t-86.5 -21q-74 0 -112 69v-60h-86v722h87v-268q44 61 112 61q38 0 67 -11t46.5 -33.5t28.5 -46t15.5 -59.5t6 -62t1.5 -64zM358 250q0 35 -1 56.5t-6 51.5t-15 47.5t-29 30t-46 12.5q-32 0 -53 -15t-30.5 -44t-12.5 -57
t-3 -67q0 -48 3.5 -81t13 -63.5t29 -46t49.5 -15.5q27 0 46.5 11.5t30 28t16 44t7 50.5t1.5 57z" />
    <glyph glyph-name="c" unicode="c" 
d="M426 168q0 -80 -45 -129t-128 -49q-46 0 -79.5 15t-52.5 38t-30 59t-14 69t-3 77q0 149 42 208t148 59q76 0 117 -40.5t41 -117.5v-14h-85q0 55 -19.5 80t-60.5 25q-58 0 -78 -50.5t-20 -145.5q0 -100 22.5 -146.5t71.5 -46.5q45 0 66 30.5t21 78.5h86z" />
    <glyph glyph-name="d" unicode="d" 
d="M420 0h-85v60q-37 -69 -113 -69q-41 0 -71.5 15t-48 37.5t-28 56.5t-14 66t-3.5 71q0 34 0.5 55t4 53.5t9.5 53.5t18 45t29 38t43.5 23.5t59.5 9.5q40 0 64.5 -14t48.5 -47v268h86v-722zM339 265q0 29 -1 47.5t-6 47t-15 45.5t-29.5 30t-47.5 13q-33 0 -54 -16
t-29.5 -48.5t-11 -61t-2.5 -74.5q0 -42 3 -70.5t12.5 -58.5t31 -45t54.5 -15q23 0 40 8t27 26t16 34t8.5 45t3 45.5t0.5 47.5z" />
    <glyph glyph-name="e" unicode="e" 
d="M437 226h-285q0 -23 0.5 -37t3 -37t9 -37.5t16.5 -29.5t27.5 -22.5t40.5 -7.5q82 0 93 98h90q-4 -165 -181 -165q-52 0 -88 15.5t-55.5 37.5t-29.5 61.5t-12.5 72.5t-2.5 86q0 138 43.5 197.5t143.5 59.5q58 0 96 -17.5t57.5 -52t26.5 -74.5t7 -97v-51zM349 288v12
q0 31 -3.5 54.5t-13 47.5t-30.5 37.5t-53 13.5t-53 -15.5t-29.5 -43.5t-11.5 -51.5t-3 -54.5h197z" />
    <glyph glyph-name="f" unicode="f" horiz-adv-x="278" 
d="M269 440h-99v-440h-85v440h-77v65h77v71q0 80 31 115t112 35q21 0 41 -4v-60q-6 1 -19 1q-24 0 -39.5 -6t-23.5 -13t-12 -24t-4.5 -28.5t-0.5 -37.5v-49h99v-65z" />
    <glyph glyph-name="g" unicode="g" 
d="M422 -35q0 -82 -42.5 -121t-129.5 -39q-73 0 -120 30.5t-47 99.5v8h92q2 -72 80 -72q18 0 31.5 4.5t22 9t14.5 17.5t8.5 19.5t4 26.5t1.5 26v30v59q-32 -60 -113 -60q-52 0 -86 23t-49.5 64.5t-21 80t-5.5 89.5q0 128 40 190t123 62q76 0 115 -69v62h82v-540zM343 245
q0 103 -15 142q-23 59 -82 59q-27 0 -46.5 -12.5t-29 -29t-15 -44t-6.5 -46t-1 -46.5q0 -26 0.5 -40t3 -42t8.5 -44.5t16.5 -35.5t28 -28t41.5 -9q27 0 46.5 12.5t29 29t14.5 44t6 45t1 45.5z" />
    <glyph glyph-name="h" unicode="h" 
d="M429 0h-86v335q0 52 -17 83t-66 31q-53 0 -78 -35t-25 -90v-324h-86v722h85v-282q22 40 53.5 57.5t81.5 17.5q138 0 138 -157v-358z" />
    <glyph glyph-name="i" unicode="i" horiz-adv-x="222" 
d="M157 634h-92v88h92v-88zM154 0h-86v505h86v-505z" />
    <glyph glyph-name="j" unicode="j" horiz-adv-x="222" 
d="M157 634h-92v88h92v-88zM154 -90q0 -48 -31.5 -74t-89.5 -26q-12 0 -25 1v67q38 1 49 16t11 55v556h86v-595z" />
    <glyph glyph-name="k" unicode="k" horiz-adv-x="444" 
d="M440 0h-105l-178 278v-278h-85v722h85v-430l153 213h99l-167 -217z" />
    <glyph glyph-name="l" unicode="l" horiz-adv-x="222" 
d="M154 0h-86v722h86v-722z" />
    <glyph glyph-name="m" unicode="m" horiz-adv-x="722" 
d="M656 0h-86v367q0 83 -82 83q-49 0 -66.5 -29.5t-17.5 -82.5v-338h-85v346q0 47 -15.5 75t-59.5 28q-52 0 -71.5 -29.5t-19.5 -82.5v-337h-86v440l-2 65h85v-63q34 74 124 74q95 0 120 -66q38 66 130 66q62 0 97 -35.5t35 -99.5v-381z" />
    <glyph glyph-name="n" unicode="n" 
d="M430 0h-86v335q0 53 -16.5 83.5t-66.5 30.5q-53 0 -78 -35t-25 -90v-324h-86v440l-2 65h87v-65q23 40 54.5 57.5t80.5 17.5q79 0 108.5 -43.5t29.5 -123.5v-348z" />
    <glyph glyph-name="o" unicode="o" 
d="M442 248q0 -49 -4 -84.5t-16 -71t-33 -57.5t-57.5 -35.5t-86.5 -13.5q-51 0 -86.5 15t-55 37t-30.5 60.5t-13.5 72t-2.5 84.5q0 63 6 104.5t25 81t59 59t102 19.5q51 0 87.5 -14.5t56.5 -36.5t31.5 -59.5t14.5 -73t3 -87.5zM354 272q0 30 -1 48.5t-6.5 46.5t-15.5 44
t-30 28t-49 12q-26 0 -45 -8t-30 -25.5t-18 -32.5t-9.5 -42.5t-3 -42t-0.5 -42.5v-43.5t2 -40t5.5 -39.5t11 -31t18 -27.5t27.5 -15t39 -6.5t39 7.5t28 17t18.5 29t11.5 33.5t6 42t2 42.5v45.5z" />
    <glyph glyph-name="p" unicode="p" 
d="M442 268q0 -41 -1 -65t-5.5 -61.5t-15 -60.5t-28 -46.5t-46.5 -34.5t-68 -11q-74 0 -112 62v-243h-87v697h86v-61q38 70 112 70q51 0 85.5 -20.5t51 -58.5t22.5 -76.5t6 -90.5zM357 277q0 33 -3 57.5t-12.5 53t-31.5 43.5t-55 15q-27 0 -46.5 -14.5t-28.5 -33t-14 -50.5
t-5.5 -50t-0.5 -49v-10q0 -36 2.5 -60t11 -56.5t30.5 -50t56 -17.5q18 0 32.5 6t24.5 16t17.5 23.5t11.5 29.5t7 33t3.5 34.5l1 33.5t-0.5 30v16z" />
    <glyph glyph-name="q" unicode="q" 
d="M421 -192h-86v243q-39 -62 -113 -62q-38 0 -67 11.5t-46.5 34.5t-28 46.5t-15.5 59.5t-6 61t-1 63q0 249 165 249q74 0 113 -70v61h85v-697zM340 240q0 48 -2.5 77t-11 62.5t-28.5 50t-53 16.5q-53 0 -77 -41t-24 -130q0 -53 2.5 -84.5t11.5 -66.5t29.5 -51.5t53.5 -16.5
q28 0 47.5 13t29.5 30.5t15 46t6 47t1 47.5z" />
    <glyph glyph-name="r" unicode="r" horiz-adv-x="333" 
d="M317 424q-17 3 -41 3q-53 0 -83 -29t-30 -81v-317h-86v440l-2 65h86v-78q21 49 49 66.5t85 17.5q17 0 22 -2v-85z" />
    <glyph glyph-name="s" unicode="s" horiz-adv-x="444" 
d="M397 135q0 -69 -46 -106.5t-131 -37.5t-129 39t-44 114v9h88v-9q0 -87 85 -87q43 0 67.5 19t24.5 53q0 41 -43 63l-127 66q-83 43 -83 117q0 70 49 103.5t122 33.5q77 0 119 -34.5t42 -99.5v-10h-85v4l1 2q0 75 -85 75q-38 0 -59 -17t-21 -48q0 -22 13.5 -36.5
t54.5 -34.5l108 -54q79 -39 79 -124z" />
    <glyph glyph-name="t" unicode="t" horiz-adv-x="278" 
d="M279 2q-36 -7 -80 -7q-60 0 -87 20t-27 78v347h-85v65h85v97l85 37v-134h107v-65h-107v-299q0 -44 13.5 -62t58.5 -18q20 0 37 4v-63z" />
    <glyph glyph-name="u" unicode="u" 
d="M425 0h-85v61h-3q-42 -69 -132 -69q-131 0 -131 140v373h85v-368q0 -35 23.5 -57.5t59.5 -22.5q42 0 68.5 32t26.5 82v334h86v-440z" />
    <glyph glyph-name="v" unicode="v" horiz-adv-x="444" 
d="M430 505l-159 -505h-106l-151 505h93l113 -429l124 429h86z" />
    <glyph glyph-name="w" unicode="w" horiz-adv-x="722" 
d="M714 505l-136 -505h-110l-109 426l-114 -426h-110l-126 505h91l92 -429l113 429h116l104 -429l101 429h88z" />
    <glyph glyph-name="x" unicode="x" horiz-adv-x="444" 
d="M434 0h-101l-119 207l-112 -207h-93l156 263l-142 242h100l99 -184l106 184h92l-150 -242z" />
    <glyph glyph-name="y" unicode="y" horiz-adv-x="444" 
d="M436 505l-230 -697h-84l57 190l-172 507h95l123 -411l122 411h89z" />
    <glyph glyph-name="z" unicode="z" horiz-adv-x="389" 
d="M354 0h-318v71l214 369h-204v65h301v-66l-217 -374h224v-65z" />
    <glyph glyph-name="braceleft" unicode="{" horiz-adv-x="274" 
d="M123 -37q-21 40 -21 140v41q0 77 -29 109.5t-88 32.5v56q117 0 117 141v31q0 100 14 136q23 59 64.5 81t109.5 22v-53q-58 0 -84 -35t-26 -104v-51q0 -40 -2.5 -64.5t-11.5 -53.5t-30 -48t-55 -30q29 -9 48.5 -25t29.5 -31t15 -42.5t5.5 -45t0.5 -52.5v-34
q0 -80 22.5 -116.5t87.5 -36.5v-52q-66 0 -103 16.5t-64 67.5z" />
    <glyph glyph-name="bar" unicode="|" horiz-adv-x="250" 
d="M92 -214v1000h65v-1000h-65z" />
    <glyph glyph-name="braceright" unicode="}" horiz-adv-x="274" 
d="M290 286q-59 0 -88 -32.5t-29 -109.5v-41q0 -100 -21 -140q-27 -51 -64 -67.5t-103 -16.5v52q65 0 87.5 36.5t22.5 116.5v34q0 35 0.5 52.5t5.5 45t15 42.5t29.5 31t48.5 25q-34 11 -55 30t-30 48t-11.5 53.5t-2.5 64.5v51q0 69 -26 104t-84 35v53q68 0 109.5 -22
t64.5 -81q14 -36 14 -136v-31q0 -141 117 -141v-56z" />
    <glyph glyph-name="asciitilde" unicode="~" 
d="M465 319q-16 -139 -108 -139q-40 0 -116.5 36t-102.5 36q-45 0 -57 -78h-48q18 141 107 141q36 0 112.5 -36t108.5 -36q18 0 30 12t17 26t9 38h48z" />
    <glyph glyph-name="uni00A0" unicode="&#xa0;" horiz-adv-x="222" 
 />
    <glyph glyph-name="exclamdown" unicode="&#xa1;" horiz-adv-x="333" 
d="M132 364h71l18 -555h-109zM214 531v-104h-94v104h94z" />
    <glyph glyph-name="cent" unicode="&#xa2;" horiz-adv-x="444" 
d="M311 168h86q0 -80 -48.5 -129.5t-110.5 -49.5q-64 0 -102 20l-28 -67l-37 16l31 75q-56 59 -56 212q0 51 3 85.5t14.5 72.5t31.5 60.5t56 37t87 14.5q34 0 61 -9l26 63l35 -15l-26 -64q64 -41 59 -147h-85q0 40 -8 63l-133 -321q23 -29 71 -29q36 0 54 32.5t19 79.5z
M145 134l126 305q-12 9 -33 9q-52 0 -79 -35.5t-27 -132.5q0 -99 11 -146h2z" />
    <glyph glyph-name="sterling" unicode="&#xa3;" horiz-adv-x="444" 
d="M432 528h-96v12q0 93 -81 93q-85 0 -85 -104v-125h136v-73h-136v-251h258v-80h-424v80h74v251h-74v73h74v115q0 90 47.5 139.5t134.5 49.5q80 0 126 -43t46 -116v-21z" />
    <glyph glyph-name="currency" unicode="&#xa4;" horiz-adv-x="444" 
d="M-10 150l56 57q-42 56 -42 130q0 70 42 130l-56 57l47 48l56 -56q63 42 129 42q68 0 129 -42l57 56l46 -48l-56 -57q43 -64 43 -130q0 -69 -43 -130l56 -58l-46 -48l-57 57q-65 -43 -128 -43q-71 0 -129 43l-57 -57zM222 488q-61 0 -103 -45t-42 -106t42 -106.5
t103 -45.5t103.5 45.5t42.5 106.5t-42.5 106t-103.5 45z" />
    <glyph glyph-name="yen" unicode="&#xa5;" horiz-adv-x="444" 
d="M66 132v67h114v66h-114v67h89l-157 362h97l130 -321l134 321h88l-160 -362h91v-67h-116v-66h116v-67h-116v-132h-82v132h-114z" />
    <glyph glyph-name="brokenbar" unicode="&#xa6;" horiz-adv-x="250" 
d="M159 411h-69v250h69v-250zM159 -89h-69v250h69v-250z" />
    <glyph glyph-name="section" unicode="&#xa7;" horiz-adv-x="444" 
d="M389 133q0 -68 -52.5 -108.5t-140.5 -40.5q-66 0 -126 21l2 81l30 -10.5t32.5 -11t27 -5.5t35.5 -3q46 0 71.5 20t25.5 55q0 46 -55 63l-49 20q-62 19 -98 47.5t-36 82.5q0 83 104 128q-91 35 -91 117q0 62 49 100t128 38q56 0 110 -19v-74q-60 27 -111 27q-35 0 -58 -18
t-23 -46q0 -50 55 -67l32 -10q132 -41 132 -131q0 -43 -27.5 -77.5t-75.5 -52.5q109 -30 109 -126zM300 375q0 54 -85 75q-32 -12 -54.5 -34.5t-22.5 -53.5q0 -24 14.5 -42.5t39.5 -26.5l27 -9q25 11 40 20.5t28 28t13 42.5z" />
    <glyph glyph-name="dieresis" unicode="&#xa8;" horiz-adv-x="278" 
d="M98 694v-104h-94v104h94zM274 694v-104h-94v104h94z" />
    <glyph glyph-name="copyright" unicode="&#xa9;" horiz-adv-x="800" 
d="M400 740q155 0 265.5 -110.5t110.5 -265.5t-110.5 -265.5t-265.5 -110.5q-156 0 -266 110.5t-110 265.5t110 265.5t266 110.5zM400 45q130 0 223 94t93 225t-93 225t-223 94q-131 0 -224 -94t-93 -225t93 -225t224 -94zM580 435h-59q-8 46 -39.5 72t-77.5 26
q-59 0 -96.5 -45.5t-37.5 -118.5q0 -76 39 -123t101 -47q44 0 74 24t40 67h59q-8 -64 -56.5 -104.5t-116.5 -40.5q-89 0 -148.5 63t-59.5 158q0 96 56.5 159t142.5 63q73 0 123.5 -43.5t55.5 -109.5z" />
    <glyph glyph-name="ordfeminine" unicode="&#xaa;" horiz-adv-x="300" 
d="M122 421q-42 0 -65.5 25t-23.5 71q0 56 34 80t113 24h10v9q0 31 -9.5 43.5t-32.5 12.5q-40 0 -40 -37q0 -9 1 -15h-69q1 53 27 78t82 25q106 0 106 -95v-138l6 -77h-66l-2 25q-27 -31 -71 -31zM138 476q24 0 37 18q15 19 15 70v6h-23q-69 0 -69 -50q0 -44 40 -44z" />
    <glyph glyph-name="guillemotleft" unicode="&#xab;" horiz-adv-x="444" 
d="M371 447l-79 -196l78 -193h-78l-90 193l93 196h76zM200 447l-79 -196l78 -193h-78l-90 193l92 196h77z" />
    <glyph glyph-name="logicalnot" unicode="&#xac;" 
d="M24 310v60h452v-250h-62v190h-390z" />
    <glyph glyph-name="uni00AD" unicode="&#xad;" horiz-adv-x="333" 
d="M56 234v77h220v-77h-220z" />
    <glyph glyph-name="registered" unicode="&#xae;" horiz-adv-x="400" 
d="M192 721q76 0 129.5 -54t53.5 -130t-53.5 -129.5t-129.5 -53.5q-75 0 -128.5 53.5t-53.5 129.5t53 130t129 54zM192 692q-64 0 -109 -45.5t-45 -109.5q0 -63 45.5 -109t108.5 -46q64 0 109.5 45.5t45.5 109.5q0 65 -45.5 110t-109.5 45zM121 632h71q84 0 84 -54
q0 -33 -35 -46q20 -8 26 -22.5t6.5 -34.5t5.5 -31h-36q-5 12 -5 34t-10 31t-44 9h-29v-74h-34v188zM155 546h36q50 0 50 30q0 28 -49 28h-37v-58z" />
    <glyph glyph-name="macron" unicode="&#xaf;" horiz-adv-x="278" 
d="M1 664h276v-56h-276v56z" />
    <glyph glyph-name="degree" unicode="&#xb0;" horiz-adv-x="400" 
d="M350 555q0 -62 -44 -106t-106 -44t-106 44t-44 106q-1 61 43.5 105.5t106.5 44.5t106 -44.5t44 -105.5zM288 555q0 36 -26 62t-63 26q-36 0 -62 -26t-25 -62q0 -37 25.5 -62.5t62.5 -25.5q36 0 62 25.5t26 62.5z" />
    <glyph glyph-name="plusminus" unicode="&#xb1;" 
d="M217 93v173h-178v60h178v174h66v-174h178v-60h-178v-173h-66zM39 -10v60h422v-60h-422z" />
    <glyph glyph-name="twosuperior" unicode="&#xb2;" horiz-adv-x="293" 
d="M29 278v58l106 140q26 35 37 56q15 27 15 61q0 52 -44 52q-41 0 -41 -58v-11h-72v14q0 112 114 112t114 -114q0 -41 -17 -75q-21 -42 -54 -81l-75 -92h156v-62h-239z" />
    <glyph glyph-name="threesuperior" unicode="&#xb3;" horiz-adv-x="293" 
d="M137 270q-57 0 -86 29.5t-29 104.5h69v-9q0 -36 11.5 -51t39.5 -15q56 0 56 69q0 36 -16.5 51.5t-54.5 15.5h-19v63q10 -1 19 -1q67 0 67 61q0 55 -51 55q-46 0 -46 -54q0 -10 1 -17h-70v20q0 54 30 82t86 28q57 0 88.5 -29t31.5 -81q0 -68 -60 -96q34 -12 48.5 -35
t14.5 -68q0 -60 -33 -91.5t-97 -31.5z" />
    <glyph glyph-name="acute" unicode="&#xb4;" horiz-adv-x="278" 
d="M149 722h109l-131 -141h-67z" />
    <glyph glyph-name="mu" unicode="&#xb5;" 
d="M159 -192h-85v697h85v-368q0 -35 23.5 -57.5t59.5 -22.5q42 0 68.5 32t26.5 82v334h86v-440l2 -65h-85v61h-3q-41 -67 -112 -67q-50 0 -66 29v-215z" />
    <glyph glyph-name="paragraph" unicode="&#xb6;" horiz-adv-x="440" 
d="M450 659h-53v-835h-64v835h-52v-835h-64v435q-96 6 -151 65t-55 155q0 82 44.5 142t123.5 81q41 10 89 10h182v-53z" />
    <glyph glyph-name="periodcentered" unicode="&#xb7;" horiz-adv-x="222" 
d="M159 243h-97v104h97v-104z" />
    <glyph glyph-name="cedilla" unicode="&#xb8;" horiz-adv-x="278" 
d="M82 -105l-17 19l63 86h48l-46 -60l2 -2q16 6 30 6q35 0 59 -20.5t24 -55.5q0 -47 -35.5 -70t-80.5 -23t-99 22l17 40q41 -15 65 -15q22 0 39.5 9.5t17.5 30.5q0 20 -14 30.5t-35 10.5q-6 0 -38 -8z" />
    <glyph glyph-name="onesuperior" unicode="&#xb9;" horiz-adv-x="293" 
d="M128 278v336l-62 -39v70q45 20 72 51h61v-418h-71z" />
    <glyph glyph-name="ordmasculine" unicode="&#xba;" horiz-adv-x="300" 
d="M148 417q-63 0 -91 33t-28 128q0 76 25 117.5t95 41.5q66 0 94 -35t28 -127q0 -85 -28 -121.5t-95 -36.5zM150 472q32 0 43 24.5t11 92.5q0 52 -12 73t-41 21q-28 0 -41 -19.5t-13 -82.5q0 -70 10.5 -89.5t42.5 -19.5z" />
    <glyph glyph-name="guillemotright" unicode="&#xbb;" horiz-adv-x="444" 
d="M412 251l-90 -193h-78l78 193l-79 196h76zM241 251l-91 -193h-77l77 193l-78 196h76z" />
    <glyph glyph-name="onequarter" unicode="&#xbc;" horiz-adv-x="754" 
d="M145 -30h-63l437 749h62zM117 278v336l-62 -39v70q45 20 72 51h61v-418h-71zM560 0v101h-137v67l120 250h85v-258h50v-59h-50v-101h-68zM483 160h77v166z" />
    <glyph glyph-name="onehalf" unicode="&#xbd;" horiz-adv-x="754" 
d="M144 -30h-63l437 749h62zM117 278v336l-62 -39v70q45 20 72 51h61v-418h-71zM452 0v58l106 140q26 35 37 56q15 27 15 61q0 52 -44 52q-41 0 -41 -58v-11h-72v14q0 112 114 112t114 -114q0 -41 -17 -75q-21 -42 -54 -81l-75 -92h156v-62h-239z" />
    <glyph glyph-name="threequarters" unicode="&#xbe;" horiz-adv-x="754" 
d="M177 -30h-63l437 749h62zM576 0v101h-137v67l120 250h85v-258h50v-59h-50v-101h-68zM499 160h77v166zM137 270q-57 0 -86 29.5t-29 104.5h69v-9q0 -36 11.5 -51t39.5 -15q56 0 56 69q0 36 -16.5 51.5t-54.5 15.5h-19v63q10 -1 19 -1q67 0 67 61q0 55 -51 55
q-46 0 -46 -54q0 -10 1 -17h-70v20q0 54 30 82t86 28q57 0 88.5 -29t31.5 -81q0 -68 -60 -96q34 -12 48.5 -35t14.5 -68q0 -60 -33 -91.5t-97 -31.5z" />
    <glyph glyph-name="questiondown" unicode="&#xbf;" horiz-adv-x="444" 
d="M266 348v-114q0 -29 -19 -62t-41.5 -59.5t-41.5 -68t-19 -85.5q0 -38 19 -68t56 -30q77 0 74 139h94q8 -206 -174 -206q-76 0 -119.5 45t-43.5 122q0 56 21 105t45.5 76t45.5 58t21 55v93h82zM272 531v-104h-94v104h94z" />
    <glyph glyph-name="Agrave" unicode="&#xc0;" horiz-adv-x="611" 
d="M596 0h-103l-52 172h-279l-53 -172h-94l229 722h117zM418 250l-118 387l-116 -387h234zM187 939h109l89 -141h-67z" />
    <glyph glyph-name="Aacute" unicode="&#xc1;" horiz-adv-x="611" 
d="M596 0h-103l-52 172h-279l-53 -172h-94l229 722h117zM418 250l-118 387l-116 -387h234zM316 939h109l-131 -141h-67z" />
    <glyph glyph-name="Acircumflex" unicode="&#xc2;" horiz-adv-x="611" 
d="M596 0h-103l-52 172h-279l-53 -172h-94l229 722h117zM418 250l-118 387l-116 -387h234zM372 798l-66 94l-66 -94h-80l100 141h92l100 -141h-80z" />
    <glyph glyph-name="Atilde" unicode="&#xc3;" horiz-adv-x="611" 
d="M596 0h-103l-52 172h-279l-53 -172h-94l229 722h117zM418 250l-118 387l-116 -387h234zM425 911h51q-5 -45 -31 -76q-28 -33 -73 -33q-19 0 -72 19q-48 19 -72 19q-17 0 -30.5 -14t-15.5 -31h-46q5 49 31 78.5t73 29.5q29 0 75 -18q44 -19 59 -19q47 0 51 45z" />
    <glyph glyph-name="Adieresis" unicode="&#xc4;" horiz-adv-x="611" 
d="M596 0h-103l-52 172h-279l-53 -172h-94l229 722h117zM418 250l-118 387l-116 -387h234zM265 911v-104h-94v104h94zM441 911v-104h-94v104h94z" />
    <glyph glyph-name="Aring" unicode="&#xc5;" horiz-adv-x="611" 
d="M596 0h-103l-52 172h-279l-53 -172h-94l229 722h117zM418 250l-118 387l-116 -387h234zM305 787q-42 0 -71.5 29.5t-29.5 71.5t29.5 71.5t71.5 29.5t71.5 -29.5t29.5 -71.5t-29.5 -71.5t-71.5 -29.5zM365 888q0 25 -18 42.5t-42 17.5q-25 0 -42.5 -17.5t-17.5 -42.5
q0 -24 17.5 -42t42.5 -18q24 0 42 18t18 42z" />
    <glyph glyph-name="AE" unicode="&#xc6;" horiz-adv-x="833" 
d="M112 0h-97l317 722h448v-80h-297l31 -232h258v-80h-244l35 -250h227v-80h-306l-25 172h-274zM448 252l-55 396h-2l-169 -396h226z" />
    <glyph glyph-name="Ccedilla" unicode="&#xc7;" horiz-adv-x="556" 
d="M222 -105l-17 19l56 76q-40 3 -70.5 17t-50 31.5t-33.5 49t-20.5 55t-10 66t-4 65t-0.5 67.5v100q0 54 5 93.5t19.5 78.5t39.5 63t67 39t100 15q98 0 145 -47t47 -145v-21h-96v12q0 61 -22.5 92t-81.5 31q-27 0 -48 -7.5t-34.5 -17t-23 -30t-14 -34.5t-7 -42.5t-2.5 -42
v-44.5v-153q0 -116 28 -164.5t95 -48.5q118 0 120 151h95v-14q0 -206 -196 -215l-38 -50l2 -2q16 6 30 6q35 0 59 -20.5t24 -55.5q0 -47 -35.5 -70t-80.5 -23t-99 22l17 40q41 -15 65 -15q22 0 39.5 9.5t17.5 30.5q0 20 -14 30.5t-35 10.5q-6 0 -38 -8z" />
    <glyph glyph-name="Egrave" unicode="&#xc8;" 
d="M460 0h-379v722h372v-80h-280v-232h260v-79h-260v-251h287v-80zM131 939h109l89 -141h-67z" />
    <glyph glyph-name="Eacute" unicode="&#xc9;" 
d="M460 0h-379v722h372v-80h-280v-232h260v-79h-260v-251h287v-80zM260 939h109l-131 -141h-67z" />
    <glyph glyph-name="Ecircumflex" unicode="&#xca;" 
d="M460 0h-379v722h372v-80h-280v-232h260v-79h-260v-251h287v-80zM316 798l-66 94l-66 -94h-80l100 141h92l100 -141h-80z" />
    <glyph glyph-name="Edieresis" unicode="&#xcb;" 
d="M460 0h-379v722h372v-80h-280v-232h260v-79h-260v-251h287v-80zM209 911v-104h-94v104h94zM385 911v-104h-94v104h94z" />
    <glyph glyph-name="Igrave" unicode="&#xcc;" horiz-adv-x="278" 
d="M186 0h-93v722h93v-722zM20 939h109l89 -141h-67z" />
    <glyph glyph-name="Iacute" unicode="&#xcd;" horiz-adv-x="278" 
d="M186 0h-93v722h93v-722zM149 939h109l-131 -141h-67z" />
    <glyph glyph-name="Icircumflex" unicode="&#xce;" horiz-adv-x="278" 
d="M186 0h-93v722h93v-722zM205 798l-66 94l-66 -94h-80l100 141h92l100 -141h-80z" />
    <glyph glyph-name="Idieresis" unicode="&#xcf;" horiz-adv-x="278" 
d="M186 0h-93v722h93v-722zM98 911v-104h-94v104h94zM274 911v-104h-94v104h94z" />
    <glyph glyph-name="Eth" unicode="&#xd0;" horiz-adv-x="611" 
d="M9 408h74v314h210q64 0 108 -17.5t69.5 -46t39 -80t17.5 -102.5t4 -131q0 -74 -5.5 -123.5t-22.5 -95t-48.5 -71t-83.5 -40.5t-127 -15h-161v333h-74v75zM439 372q0 161 -30.5 215.5t-131.5 54.5h-101v-234h147v-75h-147v-253h71q53 0 85.5 8.5t55 26t33 54t14.5 82
t4 121.5z" />
    <glyph glyph-name="Ntilde" unicode="&#xd1;" horiz-adv-x="667" 
d="M581 0h-125l-287 626v-626h-83v722h129l284 -618v618h82v-722zM453 911h51q-5 -45 -31 -76q-28 -33 -73 -33q-19 0 -72 19q-47 19 -72 19q-17 0 -30.5 -14t-15.5 -31h-46q5 49 31 78.5t73 29.5q29 0 75 -18q44 -19 59 -19q47 0 51 45z" />
    <glyph glyph-name="Ograve" unicode="&#xd2;" horiz-adv-x="611" 
d="M532 343q0 -39 -0.5 -60.5t-2.5 -56.5t-6 -55.5t-12 -49t-19.5 -45t-29.5 -35.5t-40.5 -29t-53.5 -17t-69 -7q-66 0 -111 21.5t-68 63t-32.5 89.5t-9.5 112v164q0 55 4 94t17 81t37 68t66.5 42.5t101.5 16.5q61 0 104.5 -18.5t67.5 -46.5t37 -74.5t16 -87t3 -100.5v-70z
M438 314v110q0 108 -11 148q-26 89 -123 89q-69 0 -100.5 -42t-31.5 -135v-214q0 -112 29.5 -158t101.5 -46q32 0 55 6.5t38 22.5t23.5 33t12.5 50t5 60.5t1 75.5zM187 939h109l89 -141h-67z" />
    <glyph glyph-name="Oacute" unicode="&#xd3;" horiz-adv-x="611" 
d="M532 343q0 -39 -0.5 -60.5t-2.5 -56.5t-6 -55.5t-12 -49t-19.5 -45t-29.5 -35.5t-40.5 -29t-53.5 -17t-69 -7q-66 0 -111 21.5t-68 63t-32.5 89.5t-9.5 112v164q0 55 4 94t17 81t37 68t66.5 42.5t101.5 16.5q61 0 104.5 -18.5t67.5 -46.5t37 -74.5t16 -87t3 -100.5v-70z
M438 314v110q0 108 -11 148q-26 89 -123 89q-69 0 -100.5 -42t-31.5 -135v-214q0 -112 29.5 -158t101.5 -46q32 0 55 6.5t38 22.5t23.5 33t12.5 50t5 60.5t1 75.5zM316 939h109l-131 -141h-67z" />
    <glyph glyph-name="Ocircumflex" unicode="&#xd4;" horiz-adv-x="611" 
d="M532 343q0 -39 -0.5 -60.5t-2.5 -56.5t-6 -55.5t-12 -49t-19.5 -45t-29.5 -35.5t-40.5 -29t-53.5 -17t-69 -7q-66 0 -111 21.5t-68 63t-32.5 89.5t-9.5 112v164q0 55 4 94t17 81t37 68t66.5 42.5t101.5 16.5q61 0 104.5 -18.5t67.5 -46.5t37 -74.5t16 -87t3 -100.5v-70z
M438 314v110q0 108 -11 148q-26 89 -123 89q-69 0 -100.5 -42t-31.5 -135v-214q0 -112 29.5 -158t101.5 -46q32 0 55 6.5t38 22.5t23.5 33t12.5 50t5 60.5t1 75.5zM372 798l-66 94l-66 -94h-80l100 141h92l100 -141h-80z" />
    <glyph glyph-name="Otilde" unicode="&#xd5;" horiz-adv-x="611" 
d="M532 343q0 -39 -0.5 -60.5t-2.5 -56.5t-6 -55.5t-12 -49t-19.5 -45t-29.5 -35.5t-40.5 -29t-53.5 -17t-69 -7q-66 0 -111 21.5t-68 63t-32.5 89.5t-9.5 112v164q0 55 4 94t17 81t37 68t66.5 42.5t101.5 16.5q61 0 104.5 -18.5t67.5 -46.5t37 -74.5t16 -87t3 -100.5v-70z
M438 314v110q0 108 -11 148q-26 89 -123 89q-69 0 -100.5 -42t-31.5 -135v-214q0 -112 29.5 -158t101.5 -46q32 0 55 6.5t38 22.5t23.5 33t12.5 50t5 60.5t1 75.5zM425 911h51q-5 -45 -31 -76q-28 -33 -73 -33q-19 0 -72 19q-48 19 -72 19q-17 0 -30.5 -14t-15.5 -31h-46
q5 49 31 78.5t73 29.5q29 0 75 -18q44 -19 59 -19q47 0 51 45z" />
    <glyph glyph-name="Odieresis" unicode="&#xd6;" horiz-adv-x="611" 
d="M532 343q0 -39 -0.5 -60.5t-2.5 -56.5t-6 -55.5t-12 -49t-19.5 -45t-29.5 -35.5t-40.5 -29t-53.5 -17t-69 -7q-66 0 -111 21.5t-68 63t-32.5 89.5t-9.5 112v164q0 55 4 94t17 81t37 68t66.5 42.5t101.5 16.5q61 0 104.5 -18.5t67.5 -46.5t37 -74.5t16 -87t3 -100.5v-70z
M438 314v110q0 108 -11 148q-26 89 -123 89q-69 0 -100.5 -42t-31.5 -135v-214q0 -112 29.5 -158t101.5 -46q32 0 55 6.5t38 22.5t23.5 33t12.5 50t5 60.5t1 75.5zM265 911v-104h-94v104h94zM441 911v-104h-94v104h94z" />
    <glyph glyph-name="multiply" unicode="&#xd7;" 
d="M249 202l-159 -159l-50 50l159 160l-159 159l50 50l159 -159l160 159l50 -50l-159 -159l159 -160l-50 -50z" />
    <glyph glyph-name="Oslash" unicode="&#xd8;" horiz-adv-x="611" 
d="M25 -8l76 117q-23 64 -23 165v164q0 55 4 94t17 81t37 68t66.5 42.5t101.5 16.5q113 0 168 -62l46 70l55 -33l-65 -100q24 -65 24 -202v-70q0 -39 -0.5 -60.5t-2.5 -56.5t-6 -55.5t-12 -49t-19.5 -45t-29.5 -35.5t-40.5 -29t-53.5 -17t-69 -7q-109 0 -161 60l-58 -89z
M172 270q0 -35 1 -51l245 376q-29 66 -114 66q-69 0 -100.5 -42t-31.5 -135v-214zM438 314v110q0 54 -1 82l-245 -376q27 -64 111 -64q32 0 55 6.5t38 22.5t23.5 33t12.5 50t5 60.5t1 75.5z" />
    <glyph glyph-name="Ugrave" unicode="&#xd9;" horiz-adv-x="611" 
d="M529 241q0 -120 -51.5 -187.5t-172.5 -67.5q-110 0 -166.5 61t-56.5 172v503h92v-501q0 -76 33.5 -116t98.5 -40q75 0 104 44.5t29 124.5v488h90v-481zM187 939h109l89 -141h-67z" />
    <glyph glyph-name="Uacute" unicode="&#xda;" horiz-adv-x="611" 
d="M529 241q0 -120 -51.5 -187.5t-172.5 -67.5q-110 0 -166.5 61t-56.5 172v503h92v-501q0 -76 33.5 -116t98.5 -40q75 0 104 44.5t29 124.5v488h90v-481zM316 939h109l-131 -141h-67z" />
    <glyph glyph-name="Ucircumflex" unicode="&#xdb;" horiz-adv-x="611" 
d="M529 241q0 -120 -51.5 -187.5t-172.5 -67.5q-110 0 -166.5 61t-56.5 172v503h92v-501q0 -76 33.5 -116t98.5 -40q75 0 104 44.5t29 124.5v488h90v-481zM372 798l-66 94l-66 -94h-80l100 141h92l100 -141h-80z" />
    <glyph glyph-name="Udieresis" unicode="&#xdc;" horiz-adv-x="611" 
d="M529 241q0 -120 -51.5 -187.5t-172.5 -67.5q-110 0 -166.5 61t-56.5 172v503h92v-501q0 -76 33.5 -116t98.5 -40q75 0 104 44.5t29 124.5v488h90v-481zM265 911v-104h-94v104h94zM441 911v-104h-94v104h94z" />
    <glyph glyph-name="Yacute" unicode="&#xdd;" 
d="M492 722l-198 -432v-290h-91v292l-195 430h103l142 -349l145 349h94zM260 939h109l-131 -141h-67z" />
    <glyph glyph-name="Thorn" unicode="&#xde;" horiz-adv-x="556" 
d="M93 0v722h92v-122h122q201 0 201 -206q0 -58 -20.5 -99.5t-53.5 -61.5t-64.5 -28.5t-63.5 -8.5h-121v-196h-92zM185 520v-244h101q19 0 37 4t40.5 15t36.5 37.5t14 66.5q0 38 -12.5 64.5t-31.5 37.5t-33 15t-25 4h-127z" />
    <glyph glyph-name="germandbls" unicode="&#xdf;" horiz-adv-x="556" 
d="M501 155q0 -20 -2 -37.5t-11 -42.5t-24.5 -42.5t-45.5 -30.5t-71 -13q-149 0 -149 136h86q-2 -32 14 -50.5t48 -18.5q69 0 69 92q0 39 -26 70t-56.5 49.5t-56.5 52t-26 77.5q0 32 52 90q51 59 51 91q0 45 -24.5 68.5t-68.5 23.5q-30 0 -51.5 -8.5t-32.5 -19t-16.5 -30
t-6.5 -32.5t-1 -34v-546h-82v579q0 45 21 78t52.5 49t60.5 23.5t54 7.5q83 0 135 -35t52 -116q0 -53 -53 -106q-3 -3 -15.5 -14.5t-16.5 -16l-11.5 -13.5t-10 -17t-2.5 -17q0 -19 17 -38t41 -37t48.5 -39.5t41.5 -56t17 -76.5z" />
    <glyph glyph-name="agrave" unicode="&#xe0;" 
d="M423 0h-85l-4 73h-2q-36 -84 -129 -84q-66 0 -101.5 40.5t-35.5 115.5q0 89 53.5 128.5t174.5 39.5h37v32q0 22 -1.5 35t-8.5 33t-25.5 30.5t-47.5 10.5q-38 0 -60 -20.5t-22 -57.5q0 -1 0.5 -5.5t0.5 -7.5h-89q1 78 43 115.5t128 37.5q164 0 164 -153v-261
q0 -50 10 -102zM332 218q0 16 -1 33q-14 1 -25 1q-35 0 -58 -3t-48.5 -12.5t-38 -31.5t-12.5 -56q0 -43 21.5 -67.5t59.5 -24.5q30 0 51.5 15.5t31.5 41t14.5 51t4.5 53.5zM329 579h-67l-131 141h109z" />
    <glyph glyph-name="aacute" unicode="&#xe1;" 
d="M423 0h-85l-4 73h-2q-36 -84 -129 -84q-66 0 -101.5 40.5t-35.5 115.5q0 89 53.5 128.5t174.5 39.5h37v32q0 22 -1.5 35t-8.5 33t-25.5 30.5t-47.5 10.5q-38 0 -60 -20.5t-22 -57.5q0 -1 0.5 -5.5t0.5 -7.5h-89q1 78 43 115.5t128 37.5q164 0 164 -153v-261
q0 -50 10 -102zM332 218q0 16 -1 33q-14 1 -25 1q-35 0 -58 -3t-48.5 -12.5t-38 -31.5t-12.5 -56q0 -43 21.5 -67.5t59.5 -24.5q30 0 51.5 15.5t31.5 41t14.5 51t4.5 53.5zM260 722h109l-131 -141h-67z" />
    <glyph glyph-name="acircumflex" unicode="&#xe2;" 
d="M423 0h-85l-4 73h-2q-36 -84 -129 -84q-66 0 -101.5 40.5t-35.5 115.5q0 89 53.5 128.5t174.5 39.5h37v32q0 22 -1.5 35t-8.5 33t-25.5 30.5t-47.5 10.5q-38 0 -60 -20.5t-22 -57.5q0 -1 0.5 -5.5t0.5 -7.5h-89q1 78 43 115.5t128 37.5q164 0 164 -153v-261
q0 -50 10 -102zM332 218q0 16 -1 33q-14 1 -25 1q-35 0 -58 -3t-48.5 -12.5t-38 -31.5t-12.5 -56q0 -43 21.5 -67.5t59.5 -24.5q30 0 51.5 15.5t31.5 41t14.5 51t4.5 53.5zM316 581l-66 94l-66 -94h-80l100 141h92l100 -141h-80z" />
    <glyph glyph-name="atilde" unicode="&#xe3;" 
d="M423 0h-85l-4 73h-2q-36 -84 -129 -84q-66 0 -101.5 40.5t-35.5 115.5q0 89 53.5 128.5t174.5 39.5h37v32q0 22 -1.5 35t-8.5 33t-25.5 30.5t-47.5 10.5q-38 0 -60 -20.5t-22 -57.5q0 -1 0.5 -5.5t0.5 -7.5h-89q1 78 43 115.5t128 37.5q164 0 164 -153v-261
q0 -50 10 -102zM332 218q0 16 -1 33q-14 1 -25 1q-35 0 -58 -3t-48.5 -12.5t-38 -31.5t-12.5 -56q0 -43 21.5 -67.5t59.5 -24.5q30 0 51.5 15.5t31.5 41t14.5 51t4.5 53.5zM369 694h51q-5 -45 -31 -76q-28 -33 -73 -33q-19 0 -72 19q-48 19 -72 19q-17 0 -30.5 -14
t-15.5 -31h-46q5 49 31 78.5t73 29.5q29 0 75 -18q44 -19 59 -19q47 0 51 45z" />
    <glyph glyph-name="adieresis" unicode="&#xe4;" 
d="M423 0h-85l-4 73h-2q-36 -84 -129 -84q-66 0 -101.5 40.5t-35.5 115.5q0 89 53.5 128.5t174.5 39.5h37v32q0 22 -1.5 35t-8.5 33t-25.5 30.5t-47.5 10.5q-38 0 -60 -20.5t-22 -57.5q0 -1 0.5 -5.5t0.5 -7.5h-89q1 78 43 115.5t128 37.5q164 0 164 -153v-261
q0 -50 10 -102zM332 218q0 16 -1 33q-14 1 -25 1q-35 0 -58 -3t-48.5 -12.5t-38 -31.5t-12.5 -56q0 -43 21.5 -67.5t59.5 -24.5q30 0 51.5 15.5t31.5 41t14.5 51t4.5 53.5zM209 694v-104h-94v104h94zM385 694v-104h-94v104h94z" />
    <glyph glyph-name="aring" unicode="&#xe5;" 
d="M423 0h-85l-4 73h-2q-36 -84 -129 -84q-66 0 -101.5 40.5t-35.5 115.5q0 89 53.5 128.5t174.5 39.5h37v32q0 22 -1.5 35t-8.5 33t-25.5 30.5t-47.5 10.5q-38 0 -60 -20.5t-22 -57.5q0 -1 0.5 -5.5t0.5 -7.5h-89q1 78 43 115.5t128 37.5q164 0 164 -153v-261
q0 -50 10 -102zM332 218q0 16 -1 33q-14 1 -25 1q-35 0 -58 -3t-48.5 -12.5t-38 -31.5t-12.5 -56q0 -43 21.5 -67.5t59.5 -24.5q30 0 51.5 15.5t31.5 41t14.5 51t4.5 53.5zM250 570q-42 0 -71.5 29.5t-29.5 71.5t29.5 71.5t71.5 29.5t71.5 -29.5t29.5 -71.5t-29.5 -71.5
t-71.5 -29.5zM310 671q0 25 -18 42.5t-42 17.5q-25 0 -42.5 -17.5t-17.5 -42.5q0 -24 17.5 -42t42.5 -18q24 0 42 18t18 42z" />
    <glyph glyph-name="ae" unicode="&#xe6;" horiz-adv-x="778" 
d="M711 240h-283q3 -89 12 -119q20 -64 85 -64q89 0 94 105h89q0 -33 -6 -58.5t-23.5 -53.5t-58 -44t-100.5 -16q-50 0 -90.5 23t-54.5 68q-39 -91 -159 -91q-72 0 -110.5 39.5t-38.5 111.5q0 31 7.5 55t17.5 40t30 27.5t35 18t43.5 10.5t45 5t49 2.5t46.5 2.5v51
q0 51 -22 75.5t-72 24.5q-41 0 -62 -25t-17 -65h-89q3 82 45.5 117t125.5 35q55 0 92 -15t52 -58h2q11 37 47.5 55t80.5 18q21 0 36.5 -1.5t38 -7t38 -16.5t32.5 -31.5t26.5 -48.5t14.5 -71.5t1 -98.5zM341 240h-15q-26 0 -39.5 -0.5t-37 -2.5t-36.5 -8.5t-27.5 -17
t-21 -28.5t-6.5 -42q0 -39 19.5 -61.5t59.5 -22.5q49 0 79 37.5t25 145.5zM428 302h196q4 151 -100 151q-96 0 -96 -151z" />
    <glyph glyph-name="ccedilla" unicode="&#xe7;" 
d="M188 -105l-17 19l56 77q-49 5 -81 27.5t-47 61t-20 77t-5 91.5q0 149 42 208t148 59q76 0 117 -40.5t41 -117.5v-14h-85q0 55 -19.5 80t-60.5 25q-58 0 -78 -50.5t-20 -145.5q0 -100 22.5 -146.5t71.5 -46.5q45 0 66 30.5t21 78.5h86q0 -74 -39.5 -122t-111.5 -55
l-39 -51l2 -2q16 6 30 6q35 0 59 -20.5t24 -55.5q0 -47 -35.5 -70t-80.5 -23t-99 22l17 40q41 -15 65 -15q22 0 39.5 9.5t17.5 30.5q0 20 -14 30.5t-35 10.5q-6 0 -38 -8z" />
    <glyph glyph-name="egrave" unicode="&#xe8;" 
d="M437 226h-285q0 -23 0.5 -37t3 -37t9 -37.5t16.5 -29.5t27.5 -22.5t40.5 -7.5q82 0 93 98h90q-4 -165 -181 -165q-52 0 -88 15.5t-55.5 37.5t-29.5 61.5t-12.5 72.5t-2.5 86q0 138 43.5 197.5t143.5 59.5q58 0 96 -17.5t57.5 -52t26.5 -74.5t7 -97v-51zM349 288v12
q0 31 -3.5 54.5t-13 47.5t-30.5 37.5t-53 13.5t-53 -15.5t-29.5 -43.5t-11.5 -51.5t-3 -54.5h197zM329 579h-67l-131 141h109z" />
    <glyph glyph-name="eacute" unicode="&#xe9;" 
d="M437 226h-285q0 -23 0.5 -37t3 -37t9 -37.5t16.5 -29.5t27.5 -22.5t40.5 -7.5q82 0 93 98h90q-4 -165 -181 -165q-52 0 -88 15.5t-55.5 37.5t-29.5 61.5t-12.5 72.5t-2.5 86q0 138 43.5 197.5t143.5 59.5q58 0 96 -17.5t57.5 -52t26.5 -74.5t7 -97v-51zM349 288v12
q0 31 -3.5 54.5t-13 47.5t-30.5 37.5t-53 13.5t-53 -15.5t-29.5 -43.5t-11.5 -51.5t-3 -54.5h197zM260 722h109l-131 -141h-67z" />
    <glyph glyph-name="ecircumflex" unicode="&#xea;" 
d="M437 226h-285q0 -23 0.5 -37t3 -37t9 -37.5t16.5 -29.5t27.5 -22.5t40.5 -7.5q82 0 93 98h90q-4 -165 -181 -165q-52 0 -88 15.5t-55.5 37.5t-29.5 61.5t-12.5 72.5t-2.5 86q0 138 43.5 197.5t143.5 59.5q58 0 96 -17.5t57.5 -52t26.5 -74.5t7 -97v-51zM349 288v12
q0 31 -3.5 54.5t-13 47.5t-30.5 37.5t-53 13.5t-53 -15.5t-29.5 -43.5t-11.5 -51.5t-3 -54.5h197zM316 581l-66 94l-66 -94h-80l100 141h92l100 -141h-80z" />
    <glyph glyph-name="edieresis" unicode="&#xeb;" 
d="M437 226h-285q0 -23 0.5 -37t3 -37t9 -37.5t16.5 -29.5t27.5 -22.5t40.5 -7.5q82 0 93 98h90q-4 -165 -181 -165q-52 0 -88 15.5t-55.5 37.5t-29.5 61.5t-12.5 72.5t-2.5 86q0 138 43.5 197.5t143.5 59.5q58 0 96 -17.5t57.5 -52t26.5 -74.5t7 -97v-51zM349 288v12
q0 31 -3.5 54.5t-13 47.5t-30.5 37.5t-53 13.5t-53 -15.5t-29.5 -43.5t-11.5 -51.5t-3 -54.5h197zM209 694v-104h-94v104h94zM385 694v-104h-94v104h94z" />
    <glyph glyph-name="igrave" unicode="&#xec;" horiz-adv-x="222" 
d="M152 0h-82v505h82v-505zM190 579h-67l-131 141h109z" />
    <glyph glyph-name="iacute" unicode="&#xed;" horiz-adv-x="222" 
d="M152 0h-82v505h82v-505zM121 722h109l-131 -141h-67z" />
    <glyph glyph-name="icircumflex" unicode="&#xee;" horiz-adv-x="222" 
d="M152 0h-82v505h82v-505zM177 581l-66 94l-66 -94h-80l100 141h92l100 -141h-80z" />
    <glyph glyph-name="idieresis" unicode="&#xef;" horiz-adv-x="222" 
d="M152 0h-82v505h82v-505zM70 694v-104h-94v104h94zM246 694v-104h-94v104h94z" />
    <glyph glyph-name="eth" unicode="&#xf0;" 
d="M140 570l-31 30l83 49q-42 35 -84 57l55 47q50 -25 97 -64l93 55l30 -33l-91 -53q78 -79 114 -171.5t36 -246.5q0 -79 -14 -131t-42.5 -76.5t-59.5 -33.5t-76 -9t-76 9t-59.5 33.5t-42.5 76.5t-14 131q0 50 3 84t13.5 71t29.5 59t53 36.5t81 14.5q52 0 89 -37l2 2
q-24 70 -101 151zM250 56q62 0 84 47.5t22 170.5q0 95 -27 130t-79 35t-79 -35t-27 -130q0 -123 22 -170.5t84 -47.5z" />
    <glyph glyph-name="ntilde" unicode="&#xf1;" 
d="M430 0h-86v335q0 53 -16.5 83.5t-66.5 30.5q-53 0 -78 -35t-25 -90v-324h-86v440l-2 65h87v-65q23 40 54.5 57.5t80.5 17.5q79 0 108.5 -43.5t29.5 -123.5v-348zM369 694h51q-5 -45 -31 -76q-28 -33 -73 -33q-19 0 -72 19q-48 19 -72 19q-17 0 -30.5 -14t-15.5 -31h-46
q5 49 31 78.5t73 29.5q29 0 75 -18q44 -19 59 -19q47 0 51 45z" />
    <glyph glyph-name="ograve" unicode="&#xf2;" 
d="M442 248q0 -49 -4 -84.5t-16 -71t-33 -57.5t-57.5 -35.5t-86.5 -13.5q-51 0 -86.5 15t-55 37t-30.5 60.5t-13.5 72t-2.5 84.5q0 63 6 104.5t25 81t59 59t102 19.5q51 0 87.5 -14.5t56.5 -36.5t31.5 -59.5t14.5 -73t3 -87.5zM354 272q0 30 -1 48.5t-6.5 46.5t-15.5 44
t-30 28t-49 12q-26 0 -45 -8t-30 -25.5t-18 -32.5t-9.5 -42.5t-3 -42t-0.5 -42.5v-43.5t2 -40t5.5 -39.5t11 -31t18 -27.5t27.5 -15t39 -6.5t39 7.5t28 17t18.5 29t11.5 33.5t6 42t2 42.5v45.5zM329 579h-67l-131 141h109z" />
    <glyph glyph-name="oacute" unicode="&#xf3;" 
d="M442 248q0 -49 -4 -84.5t-16 -71t-33 -57.5t-57.5 -35.5t-86.5 -13.5q-51 0 -86.5 15t-55 37t-30.5 60.5t-13.5 72t-2.5 84.5q0 63 6 104.5t25 81t59 59t102 19.5q51 0 87.5 -14.5t56.5 -36.5t31.5 -59.5t14.5 -73t3 -87.5zM354 272q0 30 -1 48.5t-6.5 46.5t-15.5 44
t-30 28t-49 12q-26 0 -45 -8t-30 -25.5t-18 -32.5t-9.5 -42.5t-3 -42t-0.5 -42.5v-43.5t2 -40t5.5 -39.5t11 -31t18 -27.5t27.5 -15t39 -6.5t39 7.5t28 17t18.5 29t11.5 33.5t6 42t2 42.5v45.5zM260 722h109l-131 -141h-67z" />
    <glyph glyph-name="ocircumflex" unicode="&#xf4;" 
d="M442 248q0 -49 -4 -84.5t-16 -71t-33 -57.5t-57.5 -35.5t-86.5 -13.5q-51 0 -86.5 15t-55 37t-30.5 60.5t-13.5 72t-2.5 84.5q0 63 6 104.5t25 81t59 59t102 19.5q51 0 87.5 -14.5t56.5 -36.5t31.5 -59.5t14.5 -73t3 -87.5zM354 272q0 30 -1 48.5t-6.5 46.5t-15.5 44
t-30 28t-49 12q-26 0 -45 -8t-30 -25.5t-18 -32.5t-9.5 -42.5t-3 -42t-0.5 -42.5v-43.5t2 -40t5.5 -39.5t11 -31t18 -27.5t27.5 -15t39 -6.5t39 7.5t28 17t18.5 29t11.5 33.5t6 42t2 42.5v45.5zM316 581l-66 94l-66 -94h-80l100 141h92l100 -141h-80z" />
    <glyph glyph-name="otilde" unicode="&#xf5;" 
d="M442 248q0 -49 -4 -84.5t-16 -71t-33 -57.5t-57.5 -35.5t-86.5 -13.5q-51 0 -86.5 15t-55 37t-30.5 60.5t-13.5 72t-2.5 84.5q0 63 6 104.5t25 81t59 59t102 19.5q51 0 87.5 -14.5t56.5 -36.5t31.5 -59.5t14.5 -73t3 -87.5zM354 272q0 30 -1 48.5t-6.5 46.5t-15.5 44
t-30 28t-49 12q-26 0 -45 -8t-30 -25.5t-18 -32.5t-9.5 -42.5t-3 -42t-0.5 -42.5v-43.5t2 -40t5.5 -39.5t11 -31t18 -27.5t27.5 -15t39 -6.5t39 7.5t28 17t18.5 29t11.5 33.5t6 42t2 42.5v45.5zM369 694h51q-5 -45 -31 -76q-28 -33 -73 -33q-19 0 -72 19q-48 19 -72 19
q-17 0 -30.5 -14t-15.5 -31h-46q5 49 31 78.5t73 29.5q29 0 75 -18q44 -19 59 -19q47 0 51 45z" />
    <glyph glyph-name="odieresis" unicode="&#xf6;" 
d="M442 248q0 -49 -4 -84.5t-16 -71t-33 -57.5t-57.5 -35.5t-86.5 -13.5q-51 0 -86.5 15t-55 37t-30.5 60.5t-13.5 72t-2.5 84.5q0 63 6 104.5t25 81t59 59t102 19.5q51 0 87.5 -14.5t56.5 -36.5t31.5 -59.5t14.5 -73t3 -87.5zM354 272q0 30 -1 48.5t-6.5 46.5t-15.5 44
t-30 28t-49 12q-26 0 -45 -8t-30 -25.5t-18 -32.5t-9.5 -42.5t-3 -42t-0.5 -42.5v-43.5t2 -40t5.5 -39.5t11 -31t18 -27.5t27.5 -15t39 -6.5t39 7.5t28 17t18.5 29t11.5 33.5t6 42t2 42.5v45.5zM209 694v-104h-94v104h94zM385 694v-104h-94v104h94z" />
    <glyph glyph-name="divide" unicode="&#xf7;" 
d="M297 122v-104h-94v104h94zM297 481v-104h-94v104h94zM45 217v65h412v-65h-412z" />
    <glyph glyph-name="oslash" unicode="&#xf8;" 
d="M69 -41l-46 31l59 83q-25 55 -25 182q0 63 6 104.5t25 81t59 59t102 19.5q80 0 127 -36l43 60l47 -30l-54 -75q30 -55 30 -190q0 -49 -4 -84.5t-16 -71t-33 -57.5t-57.5 -35.5t-86.5 -13.5q-85 0 -129 39zM354 272q0 53 -4 79l-182 -254q24 -42 81 -42q22 0 39 7.5t28 17
t18.5 29t11.5 33.5t6 42t2 42.5v45.5zM146 258q0 -64 3 -93l178 250q-25 36 -75 36q-26 0 -45 -8t-30 -25.5t-18 -32.5t-9.5 -42.5t-3 -42t-0.5 -42.5z" />
    <glyph glyph-name="ugrave" unicode="&#xf9;" 
d="M425 0h-85v61h-3q-42 -69 -132 -69q-131 0 -131 140v373h85v-368q0 -35 23.5 -57.5t59.5 -22.5q42 0 68.5 32t26.5 82v334h86v-440zM329 579h-67l-131 141h109z" />
    <glyph glyph-name="uacute" unicode="&#xfa;" 
d="M425 0h-85v61h-3q-42 -69 -132 -69q-131 0 -131 140v373h85v-368q0 -35 23.5 -57.5t59.5 -22.5q42 0 68.5 32t26.5 82v334h86v-440zM260 722h109l-131 -141h-67z" />
    <glyph glyph-name="ucircumflex" unicode="&#xfb;" 
d="M425 0h-85v61h-3q-42 -69 -132 -69q-131 0 -131 140v373h85v-368q0 -35 23.5 -57.5t59.5 -22.5q42 0 68.5 32t26.5 82v334h86v-440zM316 581l-66 94l-66 -94h-80l100 141h92l100 -141h-80z" />
    <glyph glyph-name="udieresis" unicode="&#xfc;" 
d="M425 0h-85v61h-3q-42 -69 -132 -69q-131 0 -131 140v373h85v-368q0 -35 23.5 -57.5t59.5 -22.5q42 0 68.5 32t26.5 82v334h86v-440zM209 694v-104h-94v104h94zM385 694v-104h-94v104h94z" />
    <glyph glyph-name="yacute" unicode="&#xfd;" horiz-adv-x="444" 
d="M436 505l-230 -697h-84l57 190l-172 507h95l123 -411l122 411h89zM232 722h109l-131 -141h-67z" />
    <glyph glyph-name="thorn" unicode="&#xfe;" 
d="M79 -191v913h82v-277h2q42 70 112 70q34 0 60.5 -9t44 -22t29.5 -36.5t18.5 -43.5t10 -51.5t4 -53t0.5 -55.5q0 -80 -13.5 -133t-38.5 -78t-50.5 -34t-60.5 -9q-72 0 -115 61h-3v-242h-82zM161 273q0 -102 8 -137q19 -79 84 -79q21 0 38 7t27.5 16.5t18 26.5t11.5 30.5
t5.5 36t2 35t0.5 34.5q0 111 -19 158t-81 47q-22 0 -38.5 -8t-26.5 -23t-16.5 -31t-9 -38.5t-3.5 -38t-1 -36.5z" />
    <glyph glyph-name="ydieresis" unicode="&#xff;" horiz-adv-x="444" 
d="M436 505l-230 -697h-84l57 190l-172 507h95l123 -411l122 411h89zM181 694v-104h-94v104h94zM357 694v-104h-94v104h94z" />
    <glyph glyph-name="Amacron" unicode="&#x100;" horiz-adv-x="611" 
d="M596 0h-103l-52 172h-279l-53 -172h-94l229 722h117zM418 250l-118 387l-116 -387h234zM163 881h276v-56h-276v56z" />
    <glyph glyph-name="amacron" unicode="&#x101;" 
d="M423 0h-85l-4 73h-2q-36 -84 -129 -84q-66 0 -101.5 40.5t-35.5 115.5q0 89 53.5 128.5t174.5 39.5h37v32q0 22 -1.5 35t-8.5 33t-25.5 30.5t-47.5 10.5q-38 0 -60 -20.5t-22 -57.5q0 -1 0.5 -5.5t0.5 -7.5h-89q1 78 43 115.5t128 37.5q164 0 164 -153v-261
q0 -50 10 -102zM332 218q0 16 -1 33q-14 1 -25 1q-35 0 -58 -3t-48.5 -12.5t-38 -31.5t-12.5 -56q0 -43 21.5 -67.5t59.5 -24.5q30 0 51.5 15.5t31.5 41t14.5 51t4.5 53.5zM113 664h276v-56h-276v56z" />
    <glyph glyph-name="Abreve" unicode="&#x102;" horiz-adv-x="611" 
d="M596 0h-103l-52 172h-279l-53 -172h-94l229 722h117zM418 250l-118 387l-116 -387h234zM147 939h49q7 -40 35 -59.5t70 -19.5q88 0 105 79h49q-8 -64 -47 -99.5t-104 -35.5q-149 0 -157 135z" />
    <glyph glyph-name="abreve" unicode="&#x103;" 
d="M423 0h-85l-4 73h-2q-36 -84 -129 -84q-66 0 -101.5 40.5t-35.5 115.5q0 89 53.5 128.5t174.5 39.5h37v32q0 22 -1.5 35t-8.5 33t-25.5 30.5t-47.5 10.5q-38 0 -60 -20.5t-22 -57.5q0 -1 0.5 -5.5t0.5 -7.5h-89q1 78 43 115.5t128 37.5q164 0 164 -153v-261
q0 -50 10 -102zM332 218q0 16 -1 33q-14 1 -25 1q-35 0 -58 -3t-48.5 -12.5t-38 -31.5t-12.5 -56q0 -43 21.5 -67.5t59.5 -24.5q30 0 51.5 15.5t31.5 41t14.5 51t4.5 53.5zM97 722h49q7 -40 35 -59.5t70 -19.5q88 0 105 79h49q-8 -64 -47 -99.5t-104 -35.5q-149 0 -157 135z
" />
    <glyph glyph-name="Aogonek" unicode="&#x104;" horiz-adv-x="611" 
d="M596 -115v-54q-58 -22 -107 -22q-40 0 -73 21.5t-33 60.5q0 45 36.5 71t84.5 38h-11l-52 172h-279l-53 -172h-94l229 722h117l235 -722h-33q-46 -16 -72 -43.5t-26 -53.5q0 -38 46 -38q28 0 85 20zM418 250l-118 387l-116 -387h234z" />
    <glyph glyph-name="aogonek" unicode="&#x105;" 
d="M430 -115v-54q-58 -22 -107 -22q-40 0 -73 21.5t-33 60.5q0 45 36.5 71t84.5 38l-4 73h-2q-36 -84 -129 -84q-66 0 -101.5 40.5t-35.5 115.5q0 89 53.5 128.5t174.5 39.5h37v32q0 22 -1.5 35t-8.5 33t-25.5 30.5t-47.5 10.5q-38 0 -60 -20.5t-22 -57.5q0 -1 0.5 -5.5
t0.5 -7.5h-89q1 78 43 115.5t128 37.5q164 0 164 -153v-261q0 -50 10 -102h-26q-46 -16 -72 -43.5t-26 -53.5q0 -38 46 -38q28 0 85 20zM332 218q0 16 -1 33q-14 1 -25 1q-35 0 -58 -3t-48.5 -12.5t-38 -31.5t-12.5 -56q0 -43 21.5 -67.5t59.5 -24.5q30 0 51.5 15.5t31.5 41
t14.5 51t4.5 53.5z" />
    <glyph glyph-name="Cacute" unicode="&#x106;" horiz-adv-x="556" 
d="M504 205q0 -216 -217 -216q-35 0 -64 7.5t-50 18t-37.5 31t-27 37.5t-18 46.5t-11 49t-5.5 54.5t-2 53v55v100q0 54 5 93.5t19.5 78.5t39.5 63t67 39t100 15q98 0 145 -47t47 -145v-21h-96v12q0 61 -22.5 92t-81.5 31q-27 0 -48 -7.5t-34.5 -17t-23 -30t-14 -34.5
t-7 -42.5t-2.5 -42v-44.5v-153q0 -116 28 -164.5t95 -48.5q118 0 120 151h95v-14zM317 939h109l-131 -141h-67z" />
    <glyph glyph-name="cacute" unicode="&#x107;" 
d="M426 168q0 -80 -45 -129t-128 -49q-46 0 -79.5 15t-52.5 38t-30 59t-14 69t-3 77q0 149 42 208t148 59q76 0 117 -40.5t41 -117.5v-14h-85q0 55 -19.5 80t-60.5 25q-58 0 -78 -50.5t-20 -145.5q0 -100 22.5 -146.5t71.5 -46.5q45 0 66 30.5t21 78.5h86zM278 722h109
l-131 -141h-67z" />
    <glyph glyph-name="Ccircumflex" unicode="&#x108;" horiz-adv-x="556" 
d="M504 205q0 -216 -217 -216q-35 0 -64 7.5t-50 18t-37.5 31t-27 37.5t-18 46.5t-11 49t-5.5 54.5t-2 53v55v100q0 54 5 93.5t19.5 78.5t39.5 63t67 39t100 15q98 0 145 -47t47 -145v-21h-96v12q0 61 -22.5 92t-81.5 31q-27 0 -48 -7.5t-34.5 -17t-23 -30t-14 -34.5
t-7 -42.5t-2.5 -42v-44.5v-153q0 -116 28 -164.5t95 -48.5q118 0 120 151h95v-14zM359 798l-66 94l-66 -94h-80l100 141h92l100 -141h-80z" />
    <glyph glyph-name="ccircumflex" unicode="&#x109;" 
d="M426 168q0 -80 -45 -129t-128 -49q-46 0 -79.5 15t-52.5 38t-30 59t-14 69t-3 77q0 149 42 208t148 59q76 0 117 -40.5t41 -117.5v-14h-85q0 55 -19.5 80t-60.5 25q-58 0 -78 -50.5t-20 -145.5q0 -100 22.5 -146.5t71.5 -46.5q45 0 66 30.5t21 78.5h86zM319 581l-66 94
l-66 -94h-80l100 141h92l100 -141h-80z" />
    <glyph glyph-name="Cdotaccent" unicode="&#x10a;" horiz-adv-x="556" 
d="M504 205q0 -216 -217 -216q-35 0 -64 7.5t-50 18t-37.5 31t-27 37.5t-18 46.5t-11 49t-5.5 54.5t-2 53v55v100q0 54 5 93.5t19.5 78.5t39.5 63t67 39t100 15q98 0 145 -47t47 -145v-21h-96v12q0 61 -22.5 92t-81.5 31q-27 0 -48 -7.5t-34.5 -17t-23 -30t-14 -34.5
t-7 -42.5t-2.5 -42v-44.5v-153q0 -116 28 -164.5t95 -48.5q118 0 120 151h95v-14zM340 911v-104h-94v104h94z" />
    <glyph glyph-name="cdotaccent" unicode="&#x10b;" 
d="M426 168q0 -80 -45 -129t-128 -49q-46 0 -79.5 15t-52.5 38t-30 59t-14 69t-3 77q0 149 42 208t148 59q76 0 117 -40.5t41 -117.5v-14h-85q0 55 -19.5 80t-60.5 25q-58 0 -78 -50.5t-20 -145.5q0 -100 22.5 -146.5t71.5 -46.5q45 0 66 30.5t21 78.5h86zM300 694v-104h-94
v104h94z" />
    <glyph glyph-name="Ccaron" unicode="&#x10c;" horiz-adv-x="556" 
d="M504 205q0 -216 -217 -216q-35 0 -64 7.5t-50 18t-37.5 31t-27 37.5t-18 46.5t-11 49t-5.5 54.5t-2 53v55v100q0 54 5 93.5t19.5 78.5t39.5 63t67 39t100 15q98 0 145 -47t47 -145v-21h-96v12q0 61 -22.5 92t-81.5 31q-27 0 -48 -7.5t-34.5 -17t-23 -30t-14 -34.5
t-7 -42.5t-2.5 -42v-44.5v-153q0 -116 28 -164.5t95 -48.5q118 0 120 151h95v-14zM359 939h80l-100 -141h-92l-100 141h80l66 -94z" />
    <glyph glyph-name="ccaron" unicode="&#x10d;" 
d="M426 168q0 -80 -45 -129t-128 -49q-46 0 -79.5 15t-52.5 38t-30 59t-14 69t-3 77q0 149 42 208t148 59q76 0 117 -40.5t41 -117.5v-14h-85q0 55 -19.5 80t-60.5 25q-58 0 -78 -50.5t-20 -145.5q0 -100 22.5 -146.5t71.5 -46.5q45 0 66 30.5t21 78.5h86zM319 722h80
l-100 -141h-92l-100 141h80l66 -94z" />
    <glyph glyph-name="Dcaron" unicode="&#x10e;" horiz-adv-x="611" 
d="M531 345q0 -74 -5.5 -123.5t-22.5 -95t-48.5 -71t-83.5 -40.5t-127 -15h-161v722h210q64 0 108 -17.5t69.5 -46t39 -80t17.5 -102.5t4 -131zM439 372q0 161 -30.5 215.5t-131.5 54.5h-101v-562h71q53 0 85.5 8.5t55 26t33 54t14.5 82t4 121.5zM329 939h80l-100 -141h-92
l-100 141h80l66 -94z" />
    <glyph glyph-name="dcaron" unicode="&#x10f;" 
d="M420 0h-85v60q-37 -69 -113 -69q-41 0 -71.5 15t-48 37.5t-28 56.5t-14 66t-3.5 71q0 34 0.5 55t4 53.5t9.5 53.5t18 45t29 38t43.5 23.5t59.5 9.5q40 0 64.5 -14t48.5 -47v268h86v-722zM339 265q0 29 -1 47.5t-6 47t-15 45.5t-29.5 30t-47.5 13q-33 0 -54 -16
t-29.5 -48.5t-11 -61t-2.5 -74.5q0 -42 3 -70.5t12.5 -58.5t31 -45t54.5 -15q23 0 40 8t27 26t16 34t8.5 45t3 45.5t0.5 47.5zM579 722l-54 -141h-50l13 141h91z" />
    <glyph glyph-name="Dcroat" unicode="&#x110;" horiz-adv-x="611" 
d="M9 408h74v314h210q64 0 108 -17.5t69.5 -46t39 -80t17.5 -102.5t4 -131q0 -74 -5.5 -123.5t-22.5 -95t-48.5 -71t-83.5 -40.5t-127 -15h-161v333h-74v75zM439 372q0 161 -30.5 215.5t-131.5 54.5h-101v-234h147v-75h-147v-253h71q53 0 85.5 8.5t55 26t33 54t14.5 82
t4 121.5z" />
    <glyph glyph-name="dcroat" unicode="&#x111;" 
d="M178 635h156v87h86v-87h80v-62h-80v-573h-85v60q-37 -69 -113 -69q-41 0 -71.5 15t-48 37.5t-28 56.5t-14 66t-3.5 71q0 34 0.5 55t4 53.5t9.5 53.5t18 45t29 38t43.5 23.5t59.5 9.5q40 0 64.5 -14t48.5 -47v119h-156v62zM339 265q0 29 -1 47.5t-6 47t-15 45.5t-29.5 30
t-47.5 13q-33 0 -54 -16t-29.5 -48.5t-11 -61t-2.5 -74.5q0 -42 3 -70.5t12.5 -58.5t31 -45t54.5 -15q23 0 40 8t27 26t16 34t8.5 45t3 45.5t0.5 47.5z" />
    <glyph glyph-name="Emacron" unicode="&#x112;" 
d="M460 0h-379v722h372v-80h-280v-232h260v-79h-260v-251h287v-80zM111 881h276v-56h-276v56z" />
    <glyph glyph-name="emacron" unicode="&#x113;" 
d="M437 226h-285q0 -23 0.5 -37t3 -37t9 -37.5t16.5 -29.5t27.5 -22.5t40.5 -7.5q82 0 93 98h90q-4 -165 -181 -165q-52 0 -88 15.5t-55.5 37.5t-29.5 61.5t-12.5 72.5t-2.5 86q0 138 43.5 197.5t143.5 59.5q58 0 96 -17.5t57.5 -52t26.5 -74.5t7 -97v-51zM349 288v12
q0 31 -3.5 54.5t-13 47.5t-30.5 37.5t-53 13.5t-53 -15.5t-29.5 -43.5t-11.5 -51.5t-3 -54.5h197zM109 664h276v-56h-276v56z" />
    <glyph glyph-name="Ebreve" unicode="&#x114;" 
d="M460 0h-379v722h372v-80h-280v-232h260v-79h-260v-251h287v-80zM95 939h49q7 -40 35 -59.5t70 -19.5q88 0 105 79h49q-8 -64 -47 -99.5t-104 -35.5q-149 0 -157 135z" />
    <glyph glyph-name="ebreve" unicode="&#x115;" 
d="M437 226h-285q0 -23 0.5 -37t3 -37t9 -37.5t16.5 -29.5t27.5 -22.5t40.5 -7.5q82 0 93 98h90q-4 -165 -181 -165q-52 0 -88 15.5t-55.5 37.5t-29.5 61.5t-12.5 72.5t-2.5 86q0 138 43.5 197.5t143.5 59.5q58 0 96 -17.5t57.5 -52t26.5 -74.5t7 -97v-51zM349 288v12
q0 31 -3.5 54.5t-13 47.5t-30.5 37.5t-53 13.5t-53 -15.5t-29.5 -43.5t-11.5 -51.5t-3 -54.5h197zM93 722h49q7 -40 35 -59.5t70 -19.5q88 0 105 79h49q-8 -64 -47 -99.5t-104 -35.5q-149 0 -157 135z" />
    <glyph glyph-name="Edotaccent" unicode="&#x116;" 
d="M460 0h-379v722h372v-80h-280v-232h260v-79h-260v-251h287v-80zM296 911v-104h-94v104h94z" />
    <glyph glyph-name="edotaccent" unicode="&#x117;" 
d="M437 226h-285q0 -23 0.5 -37t3 -37t9 -37.5t16.5 -29.5t27.5 -22.5t40.5 -7.5q82 0 93 98h90q-4 -165 -181 -165q-52 0 -88 15.5t-55.5 37.5t-29.5 61.5t-12.5 72.5t-2.5 86q0 138 43.5 197.5t143.5 59.5q58 0 96 -17.5t57.5 -52t26.5 -74.5t7 -97v-51zM349 288v12
q0 31 -3.5 54.5t-13 47.5t-30.5 37.5t-53 13.5t-53 -15.5t-29.5 -43.5t-11.5 -51.5t-3 -54.5h197zM294 694v-104h-94v104h94z" />
    <glyph glyph-name="Eogonek" unicode="&#x118;" 
d="M460 -115v-54q-58 -22 -107 -22q-40 0 -73 21.5t-33 60.5q0 45 36.5 71t84.5 38h-287v722h372v-80h-280v-232h260v-79h-260v-251h287v-80h-33q-46 -16 -72 -43.5t-26 -53.5q0 -38 46 -38q28 0 85 20z" />
    <glyph glyph-name="eogonek" unicode="&#x119;" 
d="M367 -115v-54q-58 -22 -107 -22q-40 0 -73 21.5t-33 60.5q0 65 83 97q-40 2 -70 12t-48.5 30.5t-30 42.5t-17 56t-7 62t-1.5 70q0 138 43.5 197.5t143.5 59.5q58 0 96 -17.5t57.5 -52t26.5 -74.5t7 -97v-51h-285q0 -23 0.5 -37t3 -37t9 -37.5t16.5 -29.5t27.5 -22.5
t40.5 -7.5q82 0 93 98h90q-5 -128 -107 -156q-42 -16 -65.5 -42t-23.5 -52q0 -38 46 -38q28 0 85 20zM349 288v12q0 31 -3.5 54.5t-13 47.5t-30.5 37.5t-53 13.5t-53 -15.5t-29.5 -43.5t-11.5 -51.5t-3 -54.5h197z" />
    <glyph glyph-name="Ecaron" unicode="&#x11a;" 
d="M460 0h-379v722h372v-80h-280v-232h260v-79h-260v-251h287v-80zM315 939h80l-100 -141h-92l-100 141h80l66 -94z" />
    <glyph glyph-name="ecaron" unicode="&#x11b;" 
d="M437 226h-285q0 -23 0.5 -37t3 -37t9 -37.5t16.5 -29.5t27.5 -22.5t40.5 -7.5q82 0 93 98h90q-4 -165 -181 -165q-52 0 -88 15.5t-55.5 37.5t-29.5 61.5t-12.5 72.5t-2.5 86q0 138 43.5 197.5t143.5 59.5q58 0 96 -17.5t57.5 -52t26.5 -74.5t7 -97v-51zM349 288v12
q0 31 -3.5 54.5t-13 47.5t-30.5 37.5t-53 13.5t-53 -15.5t-29.5 -43.5t-11.5 -51.5t-3 -54.5h197zM313 722h80l-100 -141h-92l-100 141h80l66 -94z" />
    <glyph glyph-name="Gcircumflex" unicode="&#x11c;" horiz-adv-x="611" 
d="M523 529h-96q0 132 -117 132q-21 0 -38.5 -2t-31.5 -9t-24 -13t-18 -20.5l-13.5 -24t-8.5 -32.5t-5 -36t-3 -44.5t-1 -49v-56.5v-16q0 -141 8 -183q17 -88 91 -106q22 -6 51 -6q68 0 110 31v214h-132v82h225v-351q-95 -53 -207 -53q-38 0 -70 6.5t-55.5 17t-41.5 29
t-30 36t-20.5 46t-13 50.5t-7 57t-3 59t-0.5 63v27v56t1.5 52.5t4.5 52t8.5 46.5t15 43.5l22.5 36t31 31.5t41 22t53 15.5t66 4.5q113 0 160.5 -48t47.5 -160zM363 798l-66 94l-66 -94h-80l100 141h92l100 -141h-80z" />
    <glyph glyph-name="gcircumflex" unicode="&#x11d;" 
d="M422 -35q0 -82 -42.5 -121t-129.5 -39q-73 0 -120 30.5t-47 99.5v8h92q2 -72 80 -72q18 0 31.5 4.5t22 9t14.5 17.5t8.5 19.5t4 26.5t1.5 26v30v59q-32 -60 -113 -60q-52 0 -86 23t-49.5 64.5t-21 80t-5.5 89.5q0 128 40 190t123 62q76 0 115 -69v62h82v-540zM343 245
q0 103 -15 142q-23 59 -82 59q-27 0 -46.5 -12.5t-29 -29t-15 -44t-6.5 -46t-1 -46.5q0 -26 0.5 -40t3 -42t8.5 -44.5t16.5 -35.5t28 -28t41.5 -9q27 0 46.5 12.5t29 29t14.5 44t6 45t1 45.5zM325 581l-66 94l-66 -94h-80l100 141h92l100 -141h-80z" />
    <glyph glyph-name="Gbreve" unicode="&#x11e;" horiz-adv-x="611" 
d="M523 529h-96q0 132 -117 132q-21 0 -38.5 -2t-31.5 -9t-24 -13t-18 -20.5l-13.5 -24t-8.5 -32.5t-5 -36t-3 -44.5t-1 -49v-56.5v-16q0 -141 8 -183q17 -88 91 -106q22 -6 51 -6q68 0 110 31v214h-132v82h225v-351q-95 -53 -207 -53q-38 0 -70 6.5t-55.5 17t-41.5 29
t-30 36t-20.5 46t-13 50.5t-7 57t-3 59t-0.5 63v27v56t1.5 52.5t4.5 52t8.5 46.5t15 43.5l22.5 36t31 31.5t41 22t53 15.5t66 4.5q113 0 160.5 -48t47.5 -160zM143 939h49q7 -40 35 -59.5t70 -19.5q88 0 105 79h49q-8 -64 -47 -99.5t-104 -35.5q-149 0 -157 135z" />
    <glyph glyph-name="gbreve" unicode="&#x11f;" 
d="M422 -35q0 -82 -42.5 -121t-129.5 -39q-73 0 -120 30.5t-47 99.5v8h92q2 -72 80 -72q18 0 31.5 4.5t22 9t14.5 17.5t8.5 19.5t4 26.5t1.5 26v30v59q-32 -60 -113 -60q-52 0 -86 23t-49.5 64.5t-21 80t-5.5 89.5q0 128 40 190t123 62q76 0 115 -69v62h82v-540zM343 245
q0 103 -15 142q-23 59 -82 59q-27 0 -46.5 -12.5t-29 -29t-15 -44t-6.5 -46t-1 -46.5q0 -26 0.5 -40t3 -42t8.5 -44.5t16.5 -35.5t28 -28t41.5 -9q27 0 46.5 12.5t29 29t14.5 44t6 45t1 45.5zM105 722h49q7 -40 35 -59.5t70 -19.5q88 0 105 79h49q-8 -64 -47 -99.5
t-104 -35.5q-149 0 -157 135z" />
    <glyph glyph-name="Gdotaccent" unicode="&#x120;" horiz-adv-x="611" 
d="M523 529h-96q0 132 -117 132q-21 0 -38.5 -2t-31.5 -9t-24 -13t-18 -20.5l-13.5 -24t-8.5 -32.5t-5 -36t-3 -44.5t-1 -49v-56.5v-16q0 -141 8 -183q17 -88 91 -106q22 -6 51 -6q68 0 110 31v214h-132v82h225v-351q-95 -53 -207 -53q-38 0 -70 6.5t-55.5 17t-41.5 29
t-30 36t-20.5 46t-13 50.5t-7 57t-3 59t-0.5 63v27v56t1.5 52.5t4.5 52t8.5 46.5t15 43.5l22.5 36t31 31.5t41 22t53 15.5t66 4.5q113 0 160.5 -48t47.5 -160zM344 911v-104h-94v104h94z" />
    <glyph glyph-name="gdotaccent" unicode="&#x121;" 
d="M422 -35q0 -82 -42.5 -121t-129.5 -39q-73 0 -120 30.5t-47 99.5v8h92q2 -72 80 -72q18 0 31.5 4.5t22 9t14.5 17.5t8.5 19.5t4 26.5t1.5 26v30v59q-32 -60 -113 -60q-52 0 -86 23t-49.5 64.5t-21 80t-5.5 89.5q0 128 40 190t123 62q76 0 115 -69v62h82v-540zM343 245
q0 103 -15 142q-23 59 -82 59q-27 0 -46.5 -12.5t-29 -29t-15 -44t-6.5 -46t-1 -46.5q0 -26 0.5 -40t3 -42t8.5 -44.5t16.5 -35.5t28 -28t41.5 -9q27 0 46.5 12.5t29 29t14.5 44t6 45t1 45.5zM306 694v-104h-94v104h94z" />
    <glyph glyph-name="Gcommaaccent" unicode="&#x122;" horiz-adv-x="611" 
d="M523 529h-96q0 132 -117 132q-21 0 -38.5 -2t-31.5 -9t-24 -13t-18 -20.5l-13.5 -24t-8.5 -32.5t-5 -36t-3 -44.5t-1 -49v-56.5v-16q0 -141 8 -183q17 -88 91 -106q22 -6 51 -6q68 0 110 31v214h-132v82h225v-351q-95 -53 -207 -53q-38 0 -70 6.5t-55.5 17t-41.5 29
t-30 36t-20.5 46t-13 50.5t-7 57t-3 59t-0.5 63v27v56t1.5 52.5t4.5 52t8.5 46.5t15 43.5l22.5 36t31 31.5t41 22t53 15.5t66 4.5q113 0 160.5 -48t47.5 -160zM372 -50l-74 -141h-54l33 141h95z" />
    <glyph glyph-name="gcommaaccent" unicode="&#x123;" 
d="M422 -35q0 -82 -42.5 -121t-129.5 -39q-73 0 -120 30.5t-47 99.5v8h92q2 -72 80 -72q18 0 31.5 4.5t22 9t14.5 17.5t8.5 19.5t4 26.5t1.5 26v30v59q-32 -60 -113 -60q-52 0 -86 23t-49.5 64.5t-21 80t-5.5 89.5q0 128 40 190t123 62q76 0 115 -69v62h82v-540zM343 245
q0 103 -15 142q-23 59 -82 59q-27 0 -46.5 -12.5t-29 -29t-15 -44t-6.5 -46t-1 -46.5q0 -26 0.5 -40t3 -42t8.5 -44.5t16.5 -35.5t28 -28t41.5 -9q27 0 46.5 12.5t29 29t14.5 44t6 45t1 45.5zM201 581l74 141h54l-33 -141h-95z" />
    <glyph glyph-name="Hcircumflex" unicode="&#x124;" horiz-adv-x="611" 
d="M524 0h-92v333h-253v-333h-92v722h92v-309h253v309h92v-722zM372 798l-66 94l-66 -94h-80l100 141h92l100 -141h-80z" />
    <glyph glyph-name="hcircumflex" unicode="&#x125;" 
d="M429 0h-86v335q0 52 -17 83t-66 31q-53 0 -78 -35t-25 -90v-324h-86v722h85v-282q22 40 53.5 57.5t81.5 17.5q138 0 138 -157v-358zM283 760l-66 94l-66 -94h-80l100 141h92l100 -141h-80z" />
    <glyph glyph-name="Hbar" unicode="&#x126;" horiz-adv-x="611" 
d="M524 0h-92v333h-253v-333h-92v722h92v-142h253v142h92v-722zM179 413h253v93h-253v-93z" />
    <glyph glyph-name="hbar" unicode="&#x127;" 
d="M-10 635h81v87h85v-87h156v-62h-156v-133q22 40 53.5 57.5t81.5 17.5q138 0 138 -157v-358h-86v335q0 52 -17 83t-66 31q-53 0 -78 -35t-25 -90v-324h-86v573h-81v62z" />
    <glyph glyph-name="Itilde" unicode="&#x128;" horiz-adv-x="278" 
d="M186 0h-93v722h93v-722zM258 911h51q-5 -45 -31 -76q-28 -33 -73 -33q-19 0 -72 19q-47 19 -72 19q-17 0 -30.5 -14t-15.5 -31h-46q5 49 31 78.5t73 29.5q29 0 75 -18q44 -19 59 -19q47 0 51 45z" />
    <glyph glyph-name="itilde" unicode="&#x129;" horiz-adv-x="222" 
d="M152 0h-82v505h82v-505zM232 694h51q-5 -45 -31 -76q-28 -33 -73 -33q-19 0 -72 19q-48 19 -72 19q-17 0 -30.5 -14t-15.5 -31h-46q5 49 31 78.5t73 29.5q29 0 75 -18q44 -19 59 -19q47 0 51 45z" />
    <glyph glyph-name="Imacron" unicode="&#x12a;" horiz-adv-x="278" 
d="M186 0h-93v722h93v-722zM1 881h276v-56h-276v56z" />
    <glyph glyph-name="imacron" unicode="&#x12b;" horiz-adv-x="222" 
d="M152 0h-82v505h82v-505zM-25 664h276v-56h-276v56z" />
    <glyph glyph-name="Ibreve" unicode="&#x12c;" horiz-adv-x="278" 
d="M186 0h-93v722h93v-722zM-15 939h49q7 -40 35 -59.5t70 -19.5q88 0 105 79h49q-8 -64 -47 -99.5t-104 -35.5q-149 0 -157 135z" />
    <glyph glyph-name="ibreve" unicode="&#x12d;" horiz-adv-x="222" 
d="M152 0h-82v505h82v-505zM-43 722h49q7 -40 35 -59.5t70 -19.5q88 0 105 79h49q-8 -64 -47 -99.5t-104 -35.5q-149 0 -157 135z" />
    <glyph glyph-name="Iogonek" unicode="&#x12e;" horiz-adv-x="278" 
d="M202 -115v-54q-58 -22 -107 -22q-40 0 -73 21.5t-33 60.5q0 45 36.5 71t84.5 38h-17v722h93v-722h-17q-46 -16 -72 -43.5t-26 -53.5q0 -38 46 -38q28 0 85 20z" />
    <glyph glyph-name="iogonek" unicode="&#x12f;" horiz-adv-x="222" 
d="M176 -115v-54q-58 -22 -107 -22q-40 0 -73 21.5t-33 60.5q0 45 36.5 71t84.5 38h-16v505h86v-505h-11q-46 -16 -72 -43.5t-26 -53.5q0 -38 46 -38q28 0 85 20zM157 634h-92v88h92v-88z" />
    <glyph glyph-name="Idotaccent" unicode="&#x130;" horiz-adv-x="278" 
d="M186 0h-93v722h93v-722zM186 911v-104h-94v104h94z" />
    <glyph glyph-name="dotlessi" unicode="&#x131;" horiz-adv-x="222" 
d="M152 0h-82v505h82v-505z" />
    <glyph glyph-name="Jcircumflex" unicode="&#x134;" 
d="M410 185q0 -95 -48.5 -147t-146.5 -52q-185 0 -185 204q0 20 1 36h96q-1 -14 -1 -21q0 -31 2.5 -51t10.5 -43.5t27.5 -35t49.5 -11.5q102 0 102 140v518h92v-537zM429 798l-66 94l-66 -94h-80l100 141h92l100 -141h-80z" />
    <glyph glyph-name="jcircumflex" unicode="&#x135;" horiz-adv-x="222" 
d="M70 -74v579h82v-575q0 -65 -29 -93t-114 -28v70q31 0 46 9t15 38zM177 581l-66 94l-66 -94h-80l100 141h92l100 -141h-80z" />
    <glyph glyph-name="Kcommaaccent" unicode="&#x136;" horiz-adv-x="556" 
d="M547 0h-118l-256 377v-377h-92v722h92v-317l255 317h104l-263 -326zM338 -50l-74 -141h-54l33 141h95z" />
    <glyph glyph-name="kcommaaccent" unicode="&#x137;" horiz-adv-x="444" 
d="M440 0h-105l-178 278v-278h-85v722h85v-430l153 213h99l-167 -217zM287 -50l-74 -141h-54l33 141h95z" />
    <glyph glyph-name="kgreenlandic" unicode="&#x138;" horiz-adv-x="444" 
d="M157 259v-259h-85v505h85v-242l159 242h94l-161 -237l191 -268h-104z" />
    <glyph glyph-name="Lacute" unicode="&#x139;" horiz-adv-x="444" 
d="M438 0h-356v722h92v-642h264v-80zM194 939h109l-131 -141h-67z" />
    <glyph glyph-name="lacute" unicode="&#x13a;" horiz-adv-x="222" 
d="M154 0h-86v722h86v-722zM129 939h109l-131 -141h-67z" />
    <glyph glyph-name="Lcommaaccent" unicode="&#x13b;" horiz-adv-x="444" 
d="M438 0h-356v722h92v-642h264v-80zM307 -50l-74 -141h-54l33 141h95z" />
    <glyph glyph-name="lcommaaccent" unicode="&#x13c;" horiz-adv-x="222" 
d="M154 0h-86v722h86v-722zM177 -50l-74 -141h-54l33 141h95z" />
    <glyph glyph-name="Lcaron" unicode="&#x13d;" horiz-adv-x="444" 
d="M438 0h-356v722h92v-642h264v-80zM319 722l-54 -141h-50l13 141h91z" />
    <glyph glyph-name="lcaron" unicode="&#x13e;" horiz-adv-x="222" 
d="M154 0h-86v722h86v-722zM305 722l-54 -141h-50l13 141h91z" />
    <glyph glyph-name="Ldot" unicode="&#x13f;" horiz-adv-x="444" 
d="M438 0h-356v722h92v-642h264v-80zM386 404v-104h-94v104h94z" />
    <glyph glyph-name="ldot" unicode="&#x140;" horiz-adv-x="311" 
d="M154 0h-86v722h86v-722zM316 404v-104h-94v104h94z" />
    <glyph glyph-name="Lslash" unicode="&#x141;" horiz-adv-x="444" 
d="M82 0v311l-67 -41v70l67 41v341h92v-293l144 88v-71l-144 -88v-278h264v-80h-356z" />
    <glyph glyph-name="lslash" unicode="&#x142;" horiz-adv-x="222" 
d="M154 0h-86v333l-54 -37v65l54 37v324h86v-276l59 41v-65l-59 -41v-381z" />
    <glyph glyph-name="Nacute" unicode="&#x143;" horiz-adv-x="667" 
d="M581 0h-125l-287 626v-626h-83v722h129l284 -618v618h82v-722zM373 939h109l-131 -141h-67z" />
    <glyph glyph-name="nacute" unicode="&#x144;" 
d="M430 0h-86v335q0 53 -16.5 83.5t-66.5 30.5q-53 0 -78 -35t-25 -90v-324h-86v440l-2 65h87v-65q23 40 54.5 57.5t80.5 17.5q79 0 108.5 -43.5t29.5 -123.5v-348zM277 722h109l-131 -141h-67z" />
    <glyph glyph-name="Ncommaaccent" unicode="&#x145;" horiz-adv-x="667" 
d="M581 0h-125l-287 626v-626h-83v722h129l284 -618v618h82v-722zM380 -50l-74 -141h-54l33 141h95z" />
    <glyph glyph-name="ncommaaccent" unicode="&#x146;" 
d="M430 0h-86v335q0 53 -16.5 83.5t-66.5 30.5q-53 0 -78 -35t-25 -90v-324h-86v440l-2 65h87v-65q23 40 54.5 57.5t80.5 17.5q79 0 108.5 -43.5t29.5 -123.5v-348zM310 -50l-74 -141h-54l33 141h95z" />
    <glyph glyph-name="Ncaron" unicode="&#x147;" horiz-adv-x="667" 
d="M581 0h-125l-287 626v-626h-83v722h129l284 -618v618h82v-722zM405 939h80l-100 -141h-92l-100 141h80l66 -94z" />
    <glyph glyph-name="ncaron" unicode="&#x148;" 
d="M430 0h-86v335q0 53 -16.5 83.5t-66.5 30.5q-53 0 -78 -35t-25 -90v-324h-86v440l-2 65h87v-65q23 40 54.5 57.5t80.5 17.5q79 0 108.5 -43.5t29.5 -123.5v-348zM317 722h80l-100 -141h-92l-100 141h80l66 -94z" />
    <glyph glyph-name="Eng" unicode="&#x14a;" horiz-adv-x="667" 
d="M499 -74v74h-44l-285 626h-2v-626h-82v722h130l281 -618h2v618h82v-792q0 -65 -29 -93t-114 -28v70q31 0 46 9t15 38z" />
    <glyph glyph-name="eng" unicode="&#x14b;" 
d="M346 -74v424q0 98 -89 98q-103 0 -103 -149v-299h-82v400q0 47 -5 105h87v-65h4q24 42 54.5 58.5t80.5 16.5q76 0 105.5 -41.5t29.5 -123.5v-420q0 -65 -29 -93t-114 -28v70q31 0 46 9t15 38z" />
    <glyph glyph-name="Omacron" unicode="&#x14c;" horiz-adv-x="611" 
d="M532 343q0 -39 -0.5 -60.5t-2.5 -56.5t-6 -55.5t-12 -49t-19.5 -45t-29.5 -35.5t-40.5 -29t-53.5 -17t-69 -7q-66 0 -111 21.5t-68 63t-32.5 89.5t-9.5 112v164q0 55 4 94t17 81t37 68t66.5 42.5t101.5 16.5q61 0 104.5 -18.5t67.5 -46.5t37 -74.5t16 -87t3 -100.5v-70z
M438 314v110q0 108 -11 148q-26 89 -123 89q-69 0 -100.5 -42t-31.5 -135v-214q0 -112 29.5 -158t101.5 -46q32 0 55 6.5t38 22.5t23.5 33t12.5 50t5 60.5t1 75.5zM169 881h276v-56h-276v56z" />
    <glyph glyph-name="omacron" unicode="&#x14d;" 
d="M442 248q0 -49 -4 -84.5t-16 -71t-33 -57.5t-57.5 -35.5t-86.5 -13.5q-51 0 -86.5 15t-55 37t-30.5 60.5t-13.5 72t-2.5 84.5q0 63 6 104.5t25 81t59 59t102 19.5q51 0 87.5 -14.5t56.5 -36.5t31.5 -59.5t14.5 -73t3 -87.5zM354 272q0 30 -1 48.5t-6.5 46.5t-15.5 44
t-30 28t-49 12q-26 0 -45 -8t-30 -25.5t-18 -32.5t-9.5 -42.5t-3 -42t-0.5 -42.5v-43.5t2 -40t5.5 -39.5t11 -31t18 -27.5t27.5 -15t39 -6.5t39 7.5t28 17t18.5 29t11.5 33.5t6 42t2 42.5v45.5zM113 664h276v-56h-276v56z" />
    <glyph glyph-name="Obreve" unicode="&#x14e;" horiz-adv-x="611" 
d="M532 343q0 -39 -0.5 -60.5t-2.5 -56.5t-6 -55.5t-12 -49t-19.5 -45t-29.5 -35.5t-40.5 -29t-53.5 -17t-69 -7q-66 0 -111 21.5t-68 63t-32.5 89.5t-9.5 112v164q0 55 4 94t17 81t37 68t66.5 42.5t101.5 16.5q61 0 104.5 -18.5t67.5 -46.5t37 -74.5t16 -87t3 -100.5v-70z
M438 314v110q0 108 -11 148q-26 89 -123 89q-69 0 -100.5 -42t-31.5 -135v-214q0 -112 29.5 -158t101.5 -46q32 0 55 6.5t38 22.5t23.5 33t12.5 50t5 60.5t1 75.5zM153 939h49q7 -40 35 -59.5t70 -19.5q88 0 105 79h49q-8 -64 -47 -99.5t-104 -35.5q-149 0 -157 135z" />
    <glyph glyph-name="obreve" unicode="&#x14f;" 
d="M442 248q0 -49 -4 -84.5t-16 -71t-33 -57.5t-57.5 -35.5t-86.5 -13.5q-51 0 -86.5 15t-55 37t-30.5 60.5t-13.5 72t-2.5 84.5q0 63 6 104.5t25 81t59 59t102 19.5q51 0 87.5 -14.5t56.5 -36.5t31.5 -59.5t14.5 -73t3 -87.5zM354 272q0 30 -1 48.5t-6.5 46.5t-15.5 44
t-30 28t-49 12q-26 0 -45 -8t-30 -25.5t-18 -32.5t-9.5 -42.5t-3 -42t-0.5 -42.5v-43.5t2 -40t5.5 -39.5t11 -31t18 -27.5t27.5 -15t39 -6.5t39 7.5t28 17t18.5 29t11.5 33.5t6 42t2 42.5v45.5zM97 722h49q7 -40 35 -59.5t70 -19.5q88 0 105 79h49q-8 -64 -47 -99.5
t-104 -35.5q-149 0 -157 135z" />
    <glyph glyph-name="Ohungarumlaut" unicode="&#x150;" horiz-adv-x="611" 
d="M532 343q0 -39 -0.5 -60.5t-2.5 -56.5t-6 -55.5t-12 -49t-19.5 -45t-29.5 -35.5t-40.5 -29t-53.5 -17t-69 -7q-66 0 -111 21.5t-68 63t-32.5 89.5t-9.5 112v164q0 55 4 94t17 81t37 68t66.5 42.5t101.5 16.5q61 0 104.5 -18.5t67.5 -46.5t37 -74.5t16 -87t3 -100.5v-70z
M438 314v110q0 108 -11 148q-26 89 -123 89q-69 0 -100.5 -42t-31.5 -135v-214q0 -112 29.5 -158t101.5 -46q32 0 55 6.5t38 22.5t23.5 33t12.5 50t5 60.5t1 75.5zM289 939h109l-131 -141h-67zM472 939h109l-131 -141h-67z" />
    <glyph glyph-name="ohungarumlaut" unicode="&#x151;" 
d="M442 248q0 -49 -4 -84.5t-16 -71t-33 -57.5t-57.5 -35.5t-86.5 -13.5q-51 0 -86.5 15t-55 37t-30.5 60.5t-13.5 72t-2.5 84.5q0 63 6 104.5t25 81t59 59t102 19.5q51 0 87.5 -14.5t56.5 -36.5t31.5 -59.5t14.5 -73t3 -87.5zM354 272q0 30 -1 48.5t-6.5 46.5t-15.5 44
t-30 28t-49 12q-26 0 -45 -8t-30 -25.5t-18 -32.5t-9.5 -42.5t-3 -42t-0.5 -42.5v-43.5t2 -40t5.5 -39.5t11 -31t18 -27.5t27.5 -15t39 -6.5t39 7.5t28 17t18.5 29t11.5 33.5t6 42t2 42.5v45.5zM213 722h109l-131 -141h-67zM396 722h109l-131 -141h-67z" />
    <glyph glyph-name="OE" unicode="&#x152;" horiz-adv-x="833" 
d="M793 722v-80h-280v-232h260v-80h-260v-250h286v-80h-477q-132 0 -191 62t-59 207v168q0 153 55.5 219t167.5 66h498zM421 80v562h-132q-43 0 -68.5 -15.5t-40 -62.5t-14.5 -131v-160q0 -95 28 -144t103 -49h124z" />
    <glyph glyph-name="oe" unicode="&#x153;" horiz-adv-x="778" 
d="M723 226h-284q0 -99 24.5 -134t77.5 -35q40 0 63 27.5t25 68.5h90q-1 -82 -47.5 -122.5t-128.5 -40.5q-123 0 -153 80q-23 -45 -57 -62.5t-83 -17.5q-45 0 -76 9t-59.5 34.5t-42.5 78t-14 133.5q0 51 3 85.5t14.5 72.5t31.5 60.5t56 37t87 14.5q54 0 95 -19.5t49 -64.5h2
q33 84 147 84q104 0 142 -57.5t38 -188.5v-43zM250 57q62 0 84 48.5t22 174.5q0 97 -27 132.5t-79 35.5t-79 -35.5t-27 -132.5q0 -126 22 -174.5t84 -48.5zM439 288h197q0 53 -7 86.5t-22 49t-30.5 20t-41.5 4.5q-46 0 -70.5 -32t-25.5 -128z" />
    <glyph glyph-name="Racute" unicode="&#x154;" horiz-adv-x="556" 
d="M513 0h-96q-14 32 -17 81l-6 111q-5 83 -30 111.5t-107 28.5h-84v-332h-93v722h260q17 0 36.5 -4t42.5 -16.5t41.5 -31.5t30.5 -52t12 -75q0 -68 -34.5 -111.5t-97.5 -55.5q64 -10 89 -48.5t28 -118.5l1 -26q3 -100 24 -183zM409 531q0 18 -3 33t-7.5 26t-12 19.5
t-14.5 14t-16.5 9.5t-16.5 5.5t-17 2.5t-14.5 1h-12.5h-8h-114v-232h107q129 0 129 121zM300 939h109l-131 -141h-67z" />
    <glyph glyph-name="racute" unicode="&#x155;" horiz-adv-x="333" 
d="M317 424q-17 3 -41 3q-53 0 -83 -29t-30 -81v-317h-86v440l-2 65h86v-78q21 49 49 66.5t85 17.5q17 0 22 -2v-85zM170 722h109l-131 -141h-67z" />
    <glyph glyph-name="Rcommaaccent" unicode="&#x156;" horiz-adv-x="556" 
d="M513 0h-96q-14 32 -17 81l-6 111q-5 83 -30 111.5t-107 28.5h-84v-332h-93v722h260q17 0 36.5 -4t42.5 -16.5t41.5 -31.5t30.5 -52t12 -75q0 -68 -34.5 -111.5t-97.5 -55.5q64 -10 89 -48.5t28 -118.5l1 -26q3 -100 24 -183zM409 531q0 18 -3 33t-7.5 26t-12 19.5
t-14.5 14t-16.5 9.5t-16.5 5.5t-17 2.5t-14.5 1h-12.5h-8h-114v-232h107q129 0 129 121zM339 -50l-74 -141h-54l33 141h95z" />
    <glyph glyph-name="rcommaaccent" unicode="&#x157;" horiz-adv-x="333" 
d="M317 424q-17 3 -41 3q-53 0 -83 -29t-30 -81v-317h-86v440l-2 65h86v-78q21 49 49 66.5t85 17.5q17 0 22 -2v-85zM183 -50l-74 -141h-54l33 141h95z" />
    <glyph glyph-name="Rcaron" unicode="&#x158;" horiz-adv-x="556" 
d="M513 0h-96q-14 32 -17 81l-6 111q-5 83 -30 111.5t-107 28.5h-84v-332h-93v722h260q17 0 36.5 -4t42.5 -16.5t41.5 -31.5t30.5 -52t12 -75q0 -68 -34.5 -111.5t-97.5 -55.5q64 -10 89 -48.5t28 -118.5l1 -26q3 -100 24 -183zM409 531q0 18 -3 33t-7.5 26t-12 19.5
t-14.5 14t-16.5 9.5t-16.5 5.5t-17 2.5t-14.5 1h-12.5h-8h-114v-232h107q129 0 129 121zM331 939h80l-100 -141h-92l-100 141h80l66 -94z" />
    <glyph glyph-name="rcaron" unicode="&#x159;" horiz-adv-x="333" 
d="M317 424q-17 3 -41 3q-53 0 -83 -29t-30 -81v-317h-86v440l-2 65h86v-78q21 49 49 66.5t85 17.5q17 0 22 -2v-85zM221 722h80l-100 -141h-92l-100 141h80l66 -94z" />
    <glyph glyph-name="Sacute" unicode="&#x15a;" horiz-adv-x="556" 
d="M496 183q0 -89 -60.5 -141.5t-162.5 -52.5q-103 0 -158 51.5t-55 149.5v31h91v-20q0 -62 33 -97.5t91 -35.5q57 0 92 31.5t35 83.5q0 35 -22.5 64t-56.5 47l-102 54q-76 40 -110 86t-34 109q0 89 58 140.5t158 51.5q96 0 146.5 -49.5t50.5 -145.5v-16h-96v13
q0 118 -109 118q-53 0 -83.5 -27.5t-30.5 -76.5q0 -27 11.5 -49.5t34 -40t41.5 -28.5t47 -24q48 -22 102 -61q50 -39 69.5 -75.5t19.5 -89.5zM311 939h109l-131 -141h-67z" />
    <glyph glyph-name="sacute" unicode="&#x15b;" horiz-adv-x="444" 
d="M397 135q0 -69 -46 -106.5t-131 -37.5t-129 39t-44 114v9h88v-9q0 -87 85 -87q43 0 67.5 19t24.5 53q0 41 -43 63l-127 66q-83 43 -83 117q0 70 49 103.5t122 33.5q77 0 119 -34.5t42 -99.5v-10h-85v4l1 2q0 75 -85 75q-38 0 -59 -17t-21 -48q0 -22 13.5 -36.5
t54.5 -34.5l108 -54q79 -39 79 -124zM242 722h109l-131 -141h-67z" />
    <glyph glyph-name="Scircumflex" unicode="&#x15c;" horiz-adv-x="556" 
d="M496 183q0 -89 -60.5 -141.5t-162.5 -52.5q-103 0 -158 51.5t-55 149.5v31h91v-20q0 -62 33 -97.5t91 -35.5q57 0 92 31.5t35 83.5q0 35 -22.5 64t-56.5 47l-102 54q-76 40 -110 86t-34 109q0 89 58 140.5t158 51.5q96 0 146.5 -49.5t50.5 -145.5v-16h-96v13
q0 118 -109 118q-53 0 -83.5 -27.5t-30.5 -76.5q0 -27 11.5 -49.5t34 -40t41.5 -28.5t47 -24q48 -22 102 -61q50 -39 69.5 -75.5t19.5 -89.5zM351 798l-66 94l-66 -94h-80l100 141h92l100 -141h-80z" />
    <glyph glyph-name="scircumflex" unicode="&#x15d;" horiz-adv-x="444" 
d="M397 135q0 -69 -46 -106.5t-131 -37.5t-129 39t-44 114v9h88v-9q0 -87 85 -87q43 0 67.5 19t24.5 53q0 41 -43 63l-127 66q-83 43 -83 117q0 70 49 103.5t122 33.5q77 0 119 -34.5t42 -99.5v-10h-85v4l1 2q0 75 -85 75q-38 0 -59 -17t-21 -48q0 -22 13.5 -36.5
t54.5 -34.5l108 -54q79 -39 79 -124zM295 581l-66 94l-66 -94h-80l100 141h92l100 -141h-80z" />
    <glyph glyph-name="Scedilla" unicode="&#x15e;" horiz-adv-x="556" 
d="M222 -105l-17 19l55 75q-98 4 -149 55.5t-51 145.5v31h91v-20q0 -62 33 -97.5t91 -35.5q57 0 92 31.5t35 83.5q0 35 -22.5 64t-56.5 47l-102 54q-76 40 -110 86t-34 109q0 89 58 140.5t158 51.5q96 0 146.5 -49.5t50.5 -145.5v-16h-96v13q0 118 -109 118
q-53 0 -83.5 -27.5t-30.5 -76.5q0 -27 11.5 -49.5t34 -40t41.5 -28.5t47 -24q48 -22 102 -61q50 -39 69.5 -75.5t19.5 -89.5q0 -81 -50.5 -132.5t-136.5 -59.5l-39 -51l2 -2q16 6 30 6q35 0 59 -20.5t24 -55.5q0 -47 -35.5 -70t-80.5 -23t-99 22l17 40q41 -15 65 -15
q22 0 39.5 9.5t17.5 30.5q0 20 -14 30.5t-35 10.5q-6 0 -38 -8z" />
    <glyph glyph-name="scedilla" unicode="&#x15f;" horiz-adv-x="444" 
d="M166 -105l-17 19l56 78q-77 3 -117.5 41.5t-40.5 110.5v9h88v-9q0 -87 85 -87q43 0 67.5 19t24.5 53q0 41 -43 63l-127 66q-83 43 -83 117q0 70 49 103.5t122 33.5q77 0 119 -34.5t42 -99.5v-10h-85v4l1 2q0 75 -85 75q-38 0 -59 -17t-21 -48q0 -22 13.5 -36.5
t54.5 -34.5l108 -54q79 -39 79 -124q0 -61 -37 -97.5t-106 -44.5l-40 -53l2 -2q16 6 30 6q35 0 59 -20.5t24 -55.5q0 -47 -35.5 -70t-80.5 -23t-99 22l17 40q41 -15 65 -15q22 0 39.5 9.5t17.5 30.5q0 20 -14 30.5t-35 10.5q-6 0 -38 -8z" />
    <glyph glyph-name="Scaron" unicode="&#x160;" horiz-adv-x="556" 
d="M496 183q0 -89 -60.5 -141.5t-162.5 -52.5q-103 0 -158 51.5t-55 149.5v31h91v-20q0 -62 33 -97.5t91 -35.5q57 0 92 31.5t35 83.5q0 35 -22.5 64t-56.5 47l-102 54q-76 40 -110 86t-34 109q0 89 58 140.5t158 51.5q96 0 146.5 -49.5t50.5 -145.5v-16h-96v13
q0 118 -109 118q-53 0 -83.5 -27.5t-30.5 -76.5q0 -27 11.5 -49.5t34 -40t41.5 -28.5t47 -24q48 -22 102 -61q50 -39 69.5 -75.5t19.5 -89.5zM344 939h80l-100 -141h-92l-100 141h80l66 -94z" />
    <glyph glyph-name="scaron" unicode="&#x161;" horiz-adv-x="444" 
d="M397 135q0 -69 -46 -106.5t-131 -37.5t-129 39t-44 114v9h88v-9q0 -87 85 -87q43 0 67.5 19t24.5 53q0 41 -43 63l-127 66q-83 43 -83 117q0 70 49 103.5t122 33.5q77 0 119 -34.5t42 -99.5v-10h-85v4l1 2q0 75 -85 75q-38 0 -59 -17t-21 -48q0 -22 13.5 -36.5
t54.5 -34.5l108 -54q79 -39 79 -124zM288 722h80l-100 -141h-92l-100 141h80l66 -94z" />
    <glyph glyph-name="Tcommaaccent" unicode="&#x162;" 
d="M486 642h-190v-642h-93v642h-189v80h472v-80zM305 -50l-74 -141h-54l33 141h95z" />
    <glyph glyph-name="tcommaaccent" unicode="&#x163;" horiz-adv-x="278" 
d="M279 2q-36 -7 -80 -7q-60 0 -87 20t-27 78v347h-85v65h85v97l85 37v-134h107v-65h-107v-299q0 -44 13.5 -62t58.5 -18q20 0 37 4v-63zM206 -50l-74 -141h-54l33 141h95z" />
    <glyph glyph-name="Tcaron" unicode="&#x164;" 
d="M486 642h-190v-642h-93v642h-189v80h472v-80zM315 939h80l-100 -141h-92l-100 141h80l66 -94z" />
    <glyph glyph-name="tcaron" unicode="&#x165;" horiz-adv-x="278" 
d="M279 2q-36 -7 -80 -7q-60 0 -87 20t-27 78v347h-85v65h85v97l85 37v-134h107v-65h-107v-299q0 -44 13.5 -62t58.5 -18q20 0 37 4v-63zM320 722l-54 -141h-50l13 141h91z" />
    <glyph glyph-name="Tbar" unicode="&#x166;" 
d="M80 408h123v234h-189v80h472v-80h-190v-234h125v-76h-125v-332h-93v332h-123v76z" />
    <glyph glyph-name="tbar" unicode="&#x167;" horiz-adv-x="278" 
d="M0 375h85v65h-85v65h85v97l85 37v-134h107v-65h-107v-65h107v-65h-107v-169q0 -44 13.5 -62t58.5 -18q20 0 37 4v-63q-36 -7 -80 -7q-60 0 -87 20t-27 78v217h-85v65z" />
    <glyph glyph-name="Utilde" unicode="&#x168;" horiz-adv-x="611" 
d="M529 241q0 -120 -51.5 -187.5t-172.5 -67.5q-110 0 -166.5 61t-56.5 172v503h92v-501q0 -76 33.5 -116t98.5 -40q75 0 104 44.5t29 124.5v488h90v-481zM428 911h51q-5 -45 -31 -76q-28 -33 -73 -33q-19 0 -72 19q-47 19 -72 19q-17 0 -30.5 -14t-15.5 -31h-46
q5 49 31 78.5t73 29.5q29 0 75 -18q44 -19 59 -19q47 0 51 45z" />
    <glyph glyph-name="utilde" unicode="&#x169;" 
d="M425 0h-85v61h-3q-42 -69 -132 -69q-131 0 -131 140v373h85v-368q0 -35 23.5 -57.5t59.5 -22.5q42 0 68.5 32t26.5 82v334h86v-440zM364 694h51q-5 -45 -31 -76q-28 -33 -73 -33q-19 0 -72 19q-48 19 -72 19q-17 0 -30.5 -14t-15.5 -31h-46q5 49 31 78.5t73 29.5
q29 0 75 -18q44 -19 59 -19q47 0 51 45z" />
    <glyph glyph-name="Umacron" unicode="&#x16a;" horiz-adv-x="611" 
d="M529 241q0 -120 -51.5 -187.5t-172.5 -67.5q-110 0 -166.5 61t-56.5 172v503h92v-501q0 -76 33.5 -116t98.5 -40q75 0 104 44.5t29 124.5v488h90v-481zM171 881h276v-56h-276v56z" />
    <glyph glyph-name="umacron" unicode="&#x16b;" 
d="M425 0h-85v61h-3q-42 -69 -132 -69q-131 0 -131 140v373h85v-368q0 -35 23.5 -57.5t59.5 -22.5q42 0 68.5 32t26.5 82v334h86v-440zM107 664h276v-56h-276v56z" />
    <glyph glyph-name="Ubreve" unicode="&#x16c;" horiz-adv-x="611" 
d="M529 241q0 -120 -51.5 -187.5t-172.5 -67.5q-110 0 -166.5 61t-56.5 172v503h92v-501q0 -76 33.5 -116t98.5 -40q75 0 104 44.5t29 124.5v488h90v-481zM155 939h49q7 -40 35 -59.5t70 -19.5q88 0 105 79h49q-8 -64 -47 -99.5t-104 -35.5q-149 0 -157 135z" />
    <glyph glyph-name="ubreve" unicode="&#x16d;" 
d="M425 0h-85v61h-3q-42 -69 -132 -69q-131 0 -131 140v373h85v-368q0 -35 23.5 -57.5t59.5 -22.5q42 0 68.5 32t26.5 82v334h86v-440zM91 722h49q7 -40 35 -59.5t70 -19.5q88 0 105 79h49q-8 -64 -47 -99.5t-104 -35.5q-149 0 -157 135z" />
    <glyph glyph-name="Uring" unicode="&#x16e;" horiz-adv-x="611" 
d="M529 241q0 -120 -51.5 -187.5t-172.5 -67.5q-110 0 -166.5 61t-56.5 172v503h92v-501q0 -76 33.5 -116t98.5 -40q75 0 104 44.5t29 124.5v488h90v-481zM309 787q-42 0 -71.5 29.5t-29.5 71.5t29.5 71.5t71.5 29.5t71.5 -29.5t29.5 -71.5t-29.5 -71.5t-71.5 -29.5z
M369 888q0 25 -18 42.5t-42 17.5q-25 0 -42.5 -17.5t-17.5 -42.5q0 -24 17.5 -42t42.5 -18q24 0 42 18t18 42z" />
    <glyph glyph-name="uring" unicode="&#x16f;" 
d="M425 0h-85v61h-3q-42 -69 -132 -69q-131 0 -131 140v373h85v-368q0 -35 23.5 -57.5t59.5 -22.5q42 0 68.5 32t26.5 82v334h86v-440zM253 570q-42 0 -71.5 29.5t-29.5 71.5t29.5 71.5t71.5 29.5t71.5 -29.5t29.5 -71.5t-29.5 -71.5t-71.5 -29.5zM313 671q0 25 -18 42.5
t-42 17.5q-25 0 -42.5 -17.5t-17.5 -42.5q0 -24 17.5 -42t42.5 -18q24 0 42 18t18 42z" />
    <glyph glyph-name="Uhungarumlaut" unicode="&#x170;" horiz-adv-x="611" 
d="M529 241q0 -120 -51.5 -187.5t-172.5 -67.5q-110 0 -166.5 61t-56.5 172v503h92v-501q0 -76 33.5 -116t98.5 -40q75 0 104 44.5t29 124.5v488h90v-481zM268 939h109l-131 -141h-67zM451 939h109l-131 -141h-67z" />
    <glyph glyph-name="uhungarumlaut" unicode="&#x171;" 
d="M425 0h-85v61h-3q-42 -69 -132 -69q-131 0 -131 140v373h85v-368q0 -35 23.5 -57.5t59.5 -22.5q42 0 68.5 32t26.5 82v334h86v-440zM209 722h109l-131 -141h-67zM392 722h109l-131 -141h-67z" />
    <glyph glyph-name="Uogonek" unicode="&#x172;" horiz-adv-x="611" 
d="M434 -115v-54q-58 -22 -107 -22q-40 0 -73 21.5t-33 60.5q0 61 78 95q-107 1 -162 62.5t-55 170.5v503h92v-501q0 -76 33.5 -116t98.5 -40q75 0 104 44.5t29 124.5v488h90v-481q0 -197 -131 -241h3q-46 -16 -72 -43.5t-26 -53.5q0 -38 46 -38q28 0 85 20z" />
    <glyph glyph-name="uogonek" unicode="&#x173;" 
d="M432 -115v-54q-58 -22 -107 -22q-40 0 -73 21.5t-33 60.5q0 45 36.5 71t84.5 38v61h-3q-42 -69 -132 -69q-131 0 -131 140v373h85v-368q0 -35 23.5 -57.5t59.5 -22.5q42 0 68.5 32t26.5 82v334h86v-440l2 -65h-26q-46 -16 -72 -43.5t-26 -53.5q0 -38 46 -38q28 0 85 20z
" />
    <glyph glyph-name="Wcircumflex" unicode="&#x174;" horiz-adv-x="889" 
d="M882 722l-191 -722h-112l-138 626l-147 -626h-112l-176 722h98l137 -626l146 626h119l132 -626l148 626h96zM508 798l-66 94l-66 -94h-80l100 141h92l100 -141h-80z" />
    <glyph glyph-name="wcircumflex" unicode="&#x175;" horiz-adv-x="722" 
d="M714 505l-136 -505h-110l-109 426l-114 -426h-110l-126 505h91l92 -429l113 429h116l104 -429l101 429h88zM425 581l-66 94l-66 -94h-80l100 141h92l100 -141h-80z" />
    <glyph glyph-name="Ycircumflex" unicode="&#x176;" 
d="M492 722l-198 -432v-290h-91v292l-195 430h103l142 -349l145 349h94zM319 798l-66 94l-66 -94h-80l100 141h92l100 -141h-80z" />
    <glyph glyph-name="ycircumflex" unicode="&#x177;" horiz-adv-x="444" 
d="M436 505l-230 -697h-84l57 190l-172 507h95l123 -411l122 411h89zM291 581l-66 94l-66 -94h-80l100 141h92l100 -141h-80z" />
    <glyph glyph-name="Ydieresis" unicode="&#x178;" 
d="M492 722l-198 -432v-290h-91v292l-195 430h103l142 -349l145 349h94zM209 911v-104h-94v104h94zM385 911v-104h-94v104h94z" />
    <glyph glyph-name="Zacute" unicode="&#x179;" 
d="M476 0h-451v90l337 552h-325v80h431v-83l-348 -559h356v-80zM254 939h109l-131 -141h-67z" />
    <glyph glyph-name="zacute" unicode="&#x17a;" horiz-adv-x="389" 
d="M354 0h-318v71l214 369h-204v65h301v-66l-217 -374h224v-65zM218 722h109l-131 -141h-67z" />
    <glyph glyph-name="Zdotaccent" unicode="&#x17b;" 
d="M476 0h-451v90l337 552h-325v80h431v-83l-348 -559h356v-80zM294 911v-104h-94v104h94z" />
    <glyph glyph-name="zdotaccent" unicode="&#x17c;" horiz-adv-x="389" 
d="M354 0h-318v71l214 369h-204v65h301v-66l-217 -374h224v-65zM244 694v-104h-94v104h94z" />
    <glyph glyph-name="Zcaron" unicode="&#x17d;" 
d="M476 0h-451v90l337 552h-325v80h431v-83l-348 -559h356v-80zM316 939h80l-100 -141h-92l-100 141h80l66 -94z" />
    <glyph glyph-name="zcaron" unicode="&#x17e;" horiz-adv-x="389" 
d="M354 0h-318v71l214 369h-204v65h301v-66l-217 -374h224v-65zM261 722h80l-100 -141h-92l-100 141h80l66 -94z" />
    <glyph glyph-name="florin" unicode="&#x192;" horiz-adv-x="444" 
d="M406 704l-9 -67q-14 2 -24 2q-46 0 -65 -39q-23 -47 -32 -146h97l-8 -60h-99l-47 -332q-14 -98 -23.5 -131t-27.5 -58q-32 -43 -110 -43q-4 0 -13 0.5t-14 0.5l12 72q6 -1 13 -1q35 0 49 28t29 123l51 341h-90l9 60h92l3 23q15 111 40 163q33 68 124 68q24 0 43 -4z" />
    <glyph glyph-name="Aringacute" unicode="&#x1fa;" horiz-adv-x="611" 
d="M15 0l220 693q-33 28 -33 75q0 42 29.5 71.5t71.5 29.5t71.5 -29.5t29.5 -71.5q0 -45 -34 -76l226 -692h-103l-52 172h-279l-54 -172h-93zM416 252l-116 385h-2l-113 -385h231zM363 768q0 25 -18 42.5t-42 17.5q-25 0 -42.5 -17.5t-17.5 -42.5q0 -24 17.5 -42t42.5 -18
q24 0 42 18t18 42zM258 895l87 94h105l-128 -94h-64z" />
    <glyph glyph-name="aringacute" unicode="&#x1fb;" 
d="M332 0v73h-2q-36 -83 -127 -83q-76 0 -107 43.5t-31 122.5q0 44 17.5 75t42 47t63.5 24.5t69.5 10t72.5 0.5q0 20 0.5 40t-4 38t-13 32t-26 22t-42.5 8q-41 0 -62 -25t-17 -65h-89q3 82 45.5 117t125.5 35q91 0 127.5 -40.5t36.5 -111.5v-243q0 -55 10 -120h-90zM330 251
q-89 -1 -118 -10q-65 -20 -65 -91q0 -40 20 -66.5t59 -26.5q114 0 104 194zM250 569q-42 0 -71.5 29.5t-29.5 71.5t29.5 71.5t71.5 29.5t71.5 -29.5t29.5 -71.5t-29.5 -71.5t-71.5 -29.5zM310 670q0 25 -18 42.5t-42 17.5q-25 0 -42.5 -17.5t-17.5 -42.5q0 -24 17.5 -42
t42.5 -18q24 0 42 18t18 42zM198 815l87 94h105l-128 -94h-64z" />
    <glyph glyph-name="AEacute" unicode="&#x1fc;" horiz-adv-x="833" 
d="M112 0h-97l317 722h448v-80h-297l31 -232h258v-80h-244l35 -250h227v-80h-306l-25 172h-274zM448 252l-55 396h-2l-169 -396h226zM483 939h109l-131 -141h-67z" />
    <glyph glyph-name="aeacute" unicode="&#x1fd;" horiz-adv-x="778" 
d="M711 240h-283q3 -89 12 -119q20 -64 85 -64q89 0 94 105h89q0 -33 -6 -58.5t-23.5 -53.5t-58 -44t-100.5 -16q-50 0 -90.5 23t-54.5 68q-39 -91 -159 -91q-72 0 -110.5 39.5t-38.5 111.5q0 31 7.5 55t17.5 40t30 27.5t35 18t43.5 10.5t45 5t49 2.5t46.5 2.5v51
q0 51 -22 75.5t-72 24.5q-41 0 -62 -25t-17 -65h-89q3 82 45.5 117t125.5 35q55 0 92 -15t52 -58h2q11 37 47.5 55t80.5 18q21 0 36.5 -1.5t38 -7t38 -16.5t32.5 -31.5t26.5 -48.5t14.5 -71.5t1 -98.5zM341 240h-15q-26 0 -39.5 -0.5t-37 -2.5t-36.5 -8.5t-27.5 -17
t-21 -28.5t-6.5 -42q0 -39 19.5 -61.5t59.5 -22.5q49 0 79 37.5t25 145.5zM428 302h196q4 151 -100 151q-96 0 -96 -151zM436 722h109l-131 -141h-67z" />
    <glyph glyph-name="Oslashacute" unicode="&#x1fe;" horiz-adv-x="611" 
d="M25 -8l76 117q-23 64 -23 165v164q0 55 4 94t17 81t37 68t66.5 42.5t101.5 16.5q113 0 168 -62l46 70l55 -33l-65 -100q24 -65 24 -202v-70q0 -39 -0.5 -60.5t-2.5 -56.5t-6 -55.5t-12 -49t-19.5 -45t-29.5 -35.5t-40.5 -29t-53.5 -17t-69 -7q-109 0 -161 60l-58 -89z
M172 270q0 -35 1 -51l245 376q-29 66 -114 66q-69 0 -100.5 -42t-31.5 -135v-214zM438 314v110q0 54 -1 82l-245 -376q27 -64 111 -64q32 0 55 6.5t38 22.5t23.5 33t12.5 50t5 60.5t1 75.5zM316 939h109l-131 -141h-67z" />
    <glyph glyph-name="oslashacute" unicode="&#x1ff;" 
d="M69 -41l-46 31l59 83q-25 55 -25 182q0 63 6 104.5t25 81t59 59t102 19.5q80 0 127 -36l43 60l47 -30l-54 -75q30 -55 30 -190q0 -49 -4 -84.5t-16 -71t-33 -57.5t-57.5 -35.5t-86.5 -13.5q-85 0 -129 39zM354 272q0 53 -4 79l-182 -254q24 -42 81 -42q22 0 39 7.5t28 17
t18.5 29t11.5 33.5t6 42t2 42.5v45.5zM146 258q0 -64 3 -93l178 250q-25 36 -75 36q-26 0 -45 -8t-30 -25.5t-18 -32.5t-9.5 -42.5t-3 -42t-0.5 -42.5zM260 722h109l-131 -141h-67z" />
    <glyph glyph-name="Scommaaccent" unicode="&#x218;" horiz-adv-x="556" 
d="M496 183q0 -89 -60.5 -141.5t-162.5 -52.5q-103 0 -158 51.5t-55 149.5v31h91v-20q0 -62 33 -97.5t91 -35.5q57 0 92 31.5t35 83.5q0 35 -22.5 64t-56.5 47l-102 54q-76 40 -110 86t-34 109q0 89 58 140.5t158 51.5q96 0 146.5 -49.5t50.5 -145.5v-16h-96v13
q0 118 -109 118q-53 0 -83.5 -27.5t-30.5 -76.5q0 -27 11.5 -49.5t34 -40t41.5 -28.5t47 -24q48 -22 102 -61q50 -39 69.5 -75.5t19.5 -89.5zM332 -50l-74 -141h-54l33 141h95z" />
    <glyph glyph-name="scommaaccent" unicode="&#x219;" horiz-adv-x="444" 
d="M397 135q0 -69 -46 -106.5t-131 -37.5t-129 39t-44 114v9h88v-9q0 -87 85 -87q43 0 67.5 19t24.5 53q0 41 -43 63l-127 66q-83 43 -83 117q0 70 49 103.5t122 33.5q77 0 119 -34.5t42 -99.5v-10h-85v4l1 2q0 75 -85 75q-38 0 -59 -17t-21 -48q0 -22 13.5 -36.5
t54.5 -34.5l108 -54q79 -39 79 -124zM282 -50l-74 -141h-54l33 141h95z" />
    <glyph glyph-name="uni021A" unicode="&#x21a;" 
d="M486 642h-190v-642h-93v642h-189v80h472v-80zM305 -50l-74 -141h-54l33 141h95z" />
    <glyph glyph-name="uni021B" unicode="&#x21b;" horiz-adv-x="278" 
d="M279 2q-36 -7 -80 -7q-60 0 -87 20t-27 78v347h-85v65h85v97l85 37v-134h107v-65h-107v-299q0 -44 13.5 -62t58.5 -18q20 0 37 4v-63zM206 -50l-74 -141h-54l33 141h95z" />
    <glyph glyph-name="dotlessj" unicode="&#x237;" horiz-adv-x="222" 
d="M70 -74v579h82v-575q0 -65 -29 -93t-114 -28v70q31 0 46 9t15 38z" />
    <glyph glyph-name="circumflex" unicode="&#x2c6;" horiz-adv-x="278" 
d="M205 581l-66 94l-66 -94h-80l100 141h92l100 -141h-80z" />
    <glyph glyph-name="caron" unicode="&#x2c7;" horiz-adv-x="278" 
d="M205 722h80l-100 -141h-92l-100 141h80l66 -94z" />
    <glyph glyph-name="uni02C9" unicode="&#x2c9;" horiz-adv-x="278" 
d="M1 664h276v-56h-276v56z" />
    <glyph glyph-name="breve" unicode="&#x2d8;" horiz-adv-x="278" 
d="M-15 722h49q7 -40 35 -59.5t70 -19.5q88 0 105 79h49q-8 -64 -47 -99.5t-104 -35.5q-149 0 -157 135z" />
    <glyph glyph-name="dotaccent" unicode="&#x2d9;" horiz-adv-x="278" 
d="M186 694v-104h-94v104h94z" />
    <glyph glyph-name="ring" unicode="&#x2da;" horiz-adv-x="278" 
d="M139 570q-42 0 -71.5 29.5t-29.5 71.5t29.5 71.5t71.5 29.5t71.5 -29.5t29.5 -71.5t-29.5 -71.5t-71.5 -29.5zM199 671q0 25 -18 42.5t-42 17.5q-25 0 -42.5 -17.5t-17.5 -42.5q0 -24 17.5 -42t42.5 -18q24 0 42 18t18 42z" />
    <glyph glyph-name="ogonek" unicode="&#x2db;" horiz-adv-x="278" 
d="M245 -115v-54q-58 -22 -107 -22q-40 0 -73 21.5t-33 60.5q0 45 36.5 71t84.5 38h59q-46 -16 -72 -43.5t-26 -53.5q0 -38 46 -38q28 0 85 20z" />
    <glyph glyph-name="tilde" unicode="&#x2dc;" horiz-adv-x="278" 
d="M258 694h51q-5 -45 -31 -76q-28 -33 -73 -33q-19 0 -72 19q-47 19 -72 19q-17 0 -30.5 -14t-15.5 -31h-46q5 49 31 78.5t73 29.5q29 0 75 -18q44 -19 59 -19q47 0 51 45z" />
    <glyph glyph-name="hungarumlaut" unicode="&#x2dd;" horiz-adv-x="444" 
d="M129 722h109l-131 -141h-67zM312 722h109l-131 -141h-67z" />
    <glyph glyph-name="uni0394" unicode="&#x394;" horiz-adv-x="580" 
d="M573 0h-566l222 722h113zM451 80l-166 551l-161 -551h327z" />
    <glyph glyph-name="uni03A9" unicode="&#x3a9;" horiz-adv-x="600" 
d="M76 0v80h107v63q-111 53 -111 228v113q0 54 11.5 98t37 80.5t71 57t108.5 20.5t108.5 -20.5t71 -57t37 -80.5t11.5 -98v-113q0 -174 -111 -228v-63h107v-80h-184v200q55 17 75 69.5t20 147.5v34q0 36 -2 61.5t-9.5 56t-21 49t-39.5 31.5t-62 13t-62 -13t-40 -31.5
t-22 -49t-10 -56t-2 -61.5v-34q0 -95 20 -147.5t75 -69.5v-200h-184z" />
    <glyph glyph-name="uni03BC" unicode="&#x3bc;" 
d="M159 -192h-85v697h85v-368q0 -35 23.5 -57.5t59.5 -22.5q42 0 68.5 32t26.5 82v334h86v-440l2 -65h-85v61h-3q-41 -67 -112 -67q-50 0 -66 29v-215z" />
    <glyph glyph-name="pi" unicode="&#x3c0;" horiz-adv-x="450" 
d="M432 67v-54q-38 -19 -70 -19q-46 0 -63.5 27t-21.5 74q-2 34 -2 53v295h-111v-443h-76v443h-70v62h410v-62h-76v-327q0 -20 1.5 -31t10.5 -20.5t26 -9.5q20 0 42 12z" />
    <glyph glyph-name="uni0400" unicode="&#x400;" 
d="M81 0v722h372v-80h-280v-232h260v-79h-260v-251h287v-80h-379zM131 939h109l89 -141h-67z" />
    <glyph glyph-name="afii10023" unicode="&#x401;" 
d="M81 0v722h372v-80h-280v-232h260v-79h-260v-251h287v-80h-379zM209 911v-104h-94v104h94zM385 911v-104h-94v104h94z" />
    <glyph glyph-name="afii10051" unicode="&#x402;" horiz-adv-x="681" 
d="M203 0v642h-189v80h472v-80h-190v-232q52 35 131 35q98 0 151 -54t53 -164q0 -113 -57.5 -174.5t-168.5 -61.5q-25 0 -35 2v78h10q84 0 120.5 36t36.5 125q0 134 -129 134q-33 0 -64.5 -13t-47.5 -30v-323h-93z" />
    <glyph glyph-name="afii10052" unicode="&#x403;" horiz-adv-x="444" 
d="M87 0v722h348v-80h-256v-642h-92zM262 939h109l-131 -141h-67z" />
    <glyph glyph-name="afii10053" unicode="&#x404;" horiz-adv-x="556" 
d="M300 -11q-25 0 -41.5 1t-42.5 7t-44 16.5t-38.5 31.5t-32.5 50.5t-20.5 75.5t-8.5 104v196q0 144 58.5 203t167.5 59q198 0 198 -210h-95q4 132 -110 132q-34 0 -59.5 -13t-33.5 -24t-11 -19q0 -1 -2.5 -5.5t-4.5 -9.5t-4.5 -16.5t-4.5 -26t-3.5 -39t-1.5 -53.5v-39h199
v-79h-199v-67q0 -64 9.5 -105.5t29 -60.5t40 -25.5t50.5 -6.5q12 0 23 1.5t29 10t30.5 23t22 43.5t9.5 69h95q0 -47 -9.5 -84t-22 -60t-34.5 -39.5t-37.5 -24t-40 -11.5t-34 -4.5t-26.5 -0.5z" />
    <glyph glyph-name="afii10054" unicode="&#x405;" horiz-adv-x="556" 
d="M273 -11q-103 0 -158 51.5t-55 149.5v31h91v-20q0 -62 33 -97.5t91 -35.5q57 0 92 31.5t35 83.5q0 35 -22.5 64t-56.5 47l-102 54q-76 40 -110 86t-34 109q0 89 58 140.5t158 51.5q96 0 146.5 -49.5t50.5 -145.5v-16h-96v13q0 118 -109 118q-53 0 -83.5 -27.5
t-30.5 -76.5q0 -27 11.5 -49.5t34 -40t41.5 -28.5t47 -24q48 -22 102 -61q50 -39 69.5 -75.5t19.5 -89.5q0 -89 -60.5 -141.5t-162.5 -52.5z" />
    <glyph glyph-name="afii10055" unicode="&#x406;" horiz-adv-x="278" 
d="M93 0v722h93v-722h-93z" />
    <glyph glyph-name="afii10056" unicode="&#x407;" horiz-adv-x="278" 
d="M93 0v722h93v-722h-93zM98 911v-104h-94v104h94zM274 911v-104h-94v104h94z" />
    <glyph glyph-name="afii10057" unicode="&#x408;" 
d="M215 -14q-185 0 -185 204q0 20 1 36h96q-1 -14 -1 -21q0 -31 2.5 -51t10.5 -43.5t27.5 -35t49.5 -11.5q102 0 102 140v518h92v-537q0 -95 -48.5 -147t-146.5 -52z" />
    <glyph glyph-name="afii10058" unicode="&#x409;" horiz-adv-x="865" 
d="M59 -7q-12 0 -23.5 2t-16.5 4l-5 2v76q14 -5 30 -5q73 0 96 87q16 61 16 251v10v302h358v-304h101q32 0 63.5 -9t64.5 -30t53.5 -63t20.5 -100q0 -121 -53 -168.5t-168 -47.5h-174v642h-181v-323q0 -168 -44.5 -247t-137.5 -79zM514 80h77q65 0 98.5 27t33.5 104
t-38.5 102t-109.5 25h-61v-258z" />
    <glyph glyph-name="afii10059" unicode="&#x40a;" horiz-adv-x="865" 
d="M87 0v722h92v-304h243v304h92v-304h101q32 0 63.5 -9t64.5 -30t53.5 -63t20.5 -100q0 -121 -53 -168.5t-168 -47.5h-174v338h-243v-338h-92zM514 80h77q65 0 98.5 27t33.5 104t-38.5 102t-109.5 25h-61v-258z" />
    <glyph glyph-name="afii10060" unicode="&#x40b;" horiz-adv-x="669" 
d="M203 0v642h-189v80h472v-80h-190v-226q59 22 109 22q40 0 71 -8t60.5 -29t46 -65t16.5 -108v-228h-93v239q0 63 -21.5 91.5t-82.5 28.5q-55 0 -106 -23v-336h-93z" />
    <glyph glyph-name="afii10061" unicode="&#x40c;" horiz-adv-x="556" 
d="M81 0v722h92v-317l255 317h104l-263 -326l278 -396h-118l-256 377v-377h-92zM308 939h109l-131 -141h-67z" />
    <glyph glyph-name="uni040D" unicode="&#x40d;" horiz-adv-x="623" 
d="M87 0v722h92v-538h3l262 538h92v-722h-92v538h-3l-262 -538h-92zM171 939h109l89 -141h-67z" />
    <glyph glyph-name="afii10062" unicode="&#x40e;" horiz-adv-x="536" 
d="M127 0l98 219l-217 503h98l166 -403l162 403h94l-303 -722h-98zM280 777q-149 0 -157 135h62q13 -69 92 -69q37 0 60.5 15t31.5 54h62q-8 -64 -47 -99.5t-104 -35.5z" />
    <glyph glyph-name="afii10145" unicode="&#x40f;" horiz-adv-x="611" 
d="M262 -161v161h-175v722h92v-642h253v642h92v-722h-175v-161h-87z" />
    <glyph glyph-name="afii10017" unicode="&#x410;" horiz-adv-x="611" 
d="M15 0l229 722h117l235 -722h-103l-52 172h-279l-53 -172h-94zM184 250h234l-118 387z" />
    <glyph glyph-name="afii10018" unicode="&#x411;" horiz-adv-x="600" 
d="M87 0v722h396v-80h-304v-216h152q36 0 69 -9.5t65.5 -30.5t52 -64t19.5 -102q0 -123 -54.5 -171.5t-170.5 -48.5h-225zM179 80h128q66 0 101 28t35 107t-40 105t-112 26h-112v-266z" />
    <glyph glyph-name="afii10019" unicode="&#x412;" horiz-adv-x="611" 
d="M90 0v722h239q84 0 135 -45.5t51 -126.5q0 -140 -124 -169v-5q75 -10 111 -52t36 -121q0 -115 -62.5 -159t-170.5 -44h-215zM183 80h61q39 0 61 1t52.5 8t46.5 20t28 38.5t12 62.5q0 41 -19.5 74t-56.5 44q-35 10 -120 10h-65v-258zM183 417h95q32 0 51.5 2.5t44 12.5
t37 34.5t12.5 63.5q0 32 -10.5 54.5t-24 34t-36 17.5t-36.5 7t-35 1h-98v-227z" />
    <glyph glyph-name="afii10020" unicode="&#x413;" horiz-adv-x="444" 
d="M87 0v722h348v-80h-256v-642h-92z" />
    <glyph glyph-name="afii10021" unicode="&#x414;" horiz-adv-x="611" 
d="M9 -141v221h37q38 49 62 109.5t33.5 134.5t12 126t2.5 132v140h361v-642h54v-221h-87v141h-388v-141h-87zM147 80h278v562h-186v-50q0 -86 -0.5 -113.5t-4.5 -95.5t-13 -105t-27.5 -92t-46.5 -106z" />
    <glyph glyph-name="afii10022" unicode="&#x415;" 
d="M81 0v722h372v-80h-280v-232h260v-79h-260v-251h287v-80h-379z" />
    <glyph glyph-name="afii10024" unicode="&#x416;" horiz-adv-x="808" 
d="M4 0l257 391l-242 331h102l234 -322h3v322h92v-322h3l234 322h102l-242 -331l257 -391h-112l-239 372h-3v-372h-92v372h-3l-239 -372h-112z" />
    <glyph glyph-name="afii10025" unicode="&#x417;" horiz-adv-x="556" 
d="M255 -14q-61 0 -105 20.5t-64.5 53t-29 61t-8.5 56.5v33h96v-10q0 -60 28.5 -97t90.5 -37q65 0 98 35t33 95q0 82 -36.5 113t-118.5 31q-2 0 -15.5 -0.5t-15.5 -0.5v84q8 -1 34 -1q61 0 103 31t42 90q0 50 -34 82t-87 32q-54 0 -82 -33t-28 -79v-16h-96v31
q0 83 55.5 130.5t150.5 47.5q104 0 160.5 -48t56.5 -141q0 -39 -12 -69t-25.5 -46t-38.5 -28.5t-35 -15.5t-32 -8v-3q82 -12 116 -56t34 -129q0 -98 -59.5 -153t-175.5 -55z" />
    <glyph glyph-name="afii10026" unicode="&#x418;" horiz-adv-x="623" 
d="M87 0v722h92v-538h3l262 538h92v-722h-92v538h-3l-262 -538h-92z" />
    <glyph glyph-name="afii10027" unicode="&#x419;" horiz-adv-x="623" 
d="M87 0v722h92v-538h3l262 538h92v-722h-92v538h-3l-262 -538h-92zM315 777q-149 0 -157 135h62q13 -69 92 -69q37 0 60.5 15t31.5 54h62q-8 -64 -47 -99.5t-104 -35.5z" />
    <glyph glyph-name="afii10028" unicode="&#x41a;" horiz-adv-x="556" 
d="M81 0v722h92v-317l255 317h104l-263 -326l278 -396h-118l-256 377v-377h-92z" />
    <glyph glyph-name="afii10029" unicode="&#x41b;" horiz-adv-x="611" 
d="M59 -7q-12 0 -23.5 2t-16.5 3l-5 2v76q14 -5 30 -5q73 0 96 87q16 61 16 251v11v302h368v-722h-92v642h-191v-323q0 -168 -44.5 -247t-137.5 -79z" />
    <glyph glyph-name="afii10030" unicode="&#x41c;" horiz-adv-x="833" 
d="M84 0v722h149l183 -606l185 606h147v-722h-88v641l-204 -641h-86l-201 641v-641h-85z" />
    <glyph glyph-name="afii10031" unicode="&#x41d;" horiz-adv-x="611" 
d="M87 0v722h92v-312h253v312h92v-722h-92v330h-253v-330h-92z" />
    <glyph glyph-name="afii10032" unicode="&#x41e;" horiz-adv-x="611" 
d="M299 -12q-66 0 -111 21.5t-68 63t-32.5 89.5t-9.5 112v164q0 55 4 94t17 81t37 68t66.5 42.5t101.5 16.5q61 0 104.5 -18.5t67.5 -46.5t37 -74.5t16 -87t3 -100.5v-70q0 -39 -0.5 -60.5t-2.5 -56.5t-6 -55.5t-12 -49t-19.5 -45t-29.5 -35.5t-40.5 -29t-53.5 -17t-69 -7z
M303 66q32 0 55 6.5t38 22.5t23.5 33t12.5 50t5 60.5t1 75.5v110q0 108 -11 148q-26 89 -123 89q-69 0 -100.5 -42t-31.5 -135v-214q0 -112 29.5 -158t101.5 -46z" />
    <glyph glyph-name="afii10033" unicode="&#x41f;" horiz-adv-x="611" 
d="M87 0v722h437v-722h-92v642h-253v-642h-92z" />
    <glyph glyph-name="afii10034" unicode="&#x420;" horiz-adv-x="556" 
d="M93 0v722h204q47 0 82.5 -9t65.5 -30.5t45.5 -63t15.5 -101.5q0 -200 -216 -200h-105v-318h-92zM185 398h70q23 0 36.5 1t35 4t34.5 11.5t26.5 21.5t20 35.5t6.5 52.5q0 118 -124 118h-105v-244z" />
    <glyph glyph-name="afii10035" unicode="&#x421;" horiz-adv-x="556" 
d="M287 -11q-35 0 -64 7.5t-50 18t-37.5 31t-27 37.5t-18 46.5t-11 49t-5.5 54.5t-2 53v55v100q0 54 5 93.5t19.5 78.5t39.5 63t67 39t100 15q98 0 145 -47t47 -145v-21h-96v12q0 61 -22.5 92t-81.5 31q-27 0 -48 -7.5t-34.5 -17t-23 -30t-14 -34.5t-7 -42.5t-2.5 -42v-44.5
v-153q0 -116 28 -164.5t95 -48.5q118 0 120 151h95v-14q0 -216 -217 -216z" />
    <glyph glyph-name="afii10036" unicode="&#x422;" 
d="M203 0v642h-189v80h472v-80h-190v-642h-93z" />
    <glyph glyph-name="afii10037" unicode="&#x423;" horiz-adv-x="536" 
d="M127 0l98 219l-217 503h98l166 -403l162 403h94l-303 -722h-98z" />
    <glyph glyph-name="afii10038" unicode="&#x424;" horiz-adv-x="802" 
d="M355 0v77q-149 3 -220 78t-71 229q0 147 79.5 218t211.5 73v47h92v-47q132 -2 211.5 -73t79.5 -218q0 -154 -71 -229t-220 -78v-77h-92zM355 155v445q-114 -6 -155.5 -57t-41.5 -163q0 -107 46.5 -163t150.5 -62zM447 155q104 6 150.5 62t46.5 163q0 112 -41.5 163
t-155.5 57v-445z" />
    <glyph glyph-name="afii10039" unicode="&#x425;" horiz-adv-x="556" 
d="M9 0l208 374l-197 348h105l149 -280l150 280h101l-195 -348l217 -374h-111l-168 309l-159 -309h-100z" />
    <glyph glyph-name="afii10040" unicode="&#x426;" horiz-adv-x="623" 
d="M489 -141v141h-402v722h92v-642h253v642h92v-642h52v-221h-87z" />
    <glyph glyph-name="afii10041" unicode="&#x427;" horiz-adv-x="566" 
d="M387 0v307q-68 -16 -123 -16q-112 0 -159.5 45t-47.5 160v226h92v-201q0 -82 24 -116.5t81 -34.5q68 0 133 13v339h92v-722h-92z" />
    <glyph glyph-name="afii10042" unicode="&#x428;" horiz-adv-x="906" 
d="M87 0v722h92v-642h228v642h92v-642h228v642h92v-722h-732z" />
    <glyph glyph-name="afii10043" unicode="&#x429;" horiz-adv-x="918" 
d="M784 -141v141h-697v722h92v-642h228v642h92v-642h228v642h92v-642h52v-221h-87z" />
    <glyph glyph-name="afii10044" unicode="&#x42a;" horiz-adv-x="659" 
d="M188 0v642h-174v80h266v-296h123q32 0 64.5 -9.5t66 -30.5t54.5 -64t21 -102q0 -123 -54.5 -171.5t-170.5 -48.5h-196zM280 80h99q66 0 101 28t35 107t-40 105t-112 26h-83v-266z" />
    <glyph glyph-name="afii10045" unicode="&#x42b;" horiz-adv-x="750" 
d="M87 0v722h92v-296h115q32 0 64.5 -9.5t66 -30.5t54.5 -64t21 -102q0 -123 -54.5 -171.5t-170.5 -48.5h-188zM179 80h91q66 0 101 28t35 107t-40 105t-112 26h-75v-266zM571 0v722h92v-722h-92z" />
    <glyph glyph-name="afii10046" unicode="&#x42c;" horiz-adv-x="564" 
d="M93 0v722h92v-296h123q32 0 64.5 -9.5t66 -30.5t54.5 -64t21 -102q0 -123 -54.5 -171.5t-170.5 -48.5h-196zM185 80h99q66 0 101 28t35 107t-40 105t-112 26h-83v-266z" />
    <glyph glyph-name="afii10047" unicode="&#x42d;" horiz-adv-x="556" 
d="M257 -11q-25 0 -42.5 1.5t-51 13.5t-55 33.5t-38.5 67t-17 108.5h95q0 -40 9.5 -69t22 -43.5t30.5 -23t29 -10t23 -1.5q30 0 50.5 6.5t40 25.5t29 60.5t9.5 105.5v67h-199v79h199v39q0 29 -1.5 53.5t-3.5 39t-4.5 26t-4.5 16.5t-4.5 9.5t-2.5 5.5q-3 8 -11 19t-33.5 24
t-59.5 13q-114 0 -110 -132h-95q0 210 198 210q109 0 167.5 -59t58.5 -203v-196q0 -58 -8.5 -104t-20.5 -75.5t-32.5 -50.5t-38.5 -31.5t-44 -16.5t-42.5 -7t-41.5 -1z" />
    <glyph glyph-name="afii10048" unicode="&#x42e;" horiz-adv-x="827" 
d="M522 -15q-117 0 -172 65.5t-55 213.5v66h-116v-330h-92v722h92v-312h116v91q0 111 57.5 173.5t169.5 62.5t169.5 -62.5t57.5 -173.5v-237q0 -148 -55 -213.5t-172 -65.5zM522 62q69 0 101 42.5t32 155.5v244q0 43 -11.5 74t-26.5 46.5t-36 24t-33.5 10t-25.5 1.5
t-25.5 -1.5t-33.5 -10t-36 -24t-26.5 -46.5t-11.5 -74v-244q0 -113 32 -155.5t101 -42.5z" />
    <glyph glyph-name="afii10049" unicode="&#x42f;" horiz-adv-x="568" 
d="M43 0q9 30 20.5 95t14.5 94q9 79 38 112.5t88 42.5v2q-66 5 -105.5 50t-39.5 125q0 87 46 144t137 57h239v-722h-92v318h-84q-38 0 -62 -7t-36.5 -25.5t-18 -37.5t-9.5 -55q-15 -121 -37 -193h-99zM251 398h138v244h-139q-49 0 -73 -35.5t-24 -81.5q0 -51 25.5 -89
t72.5 -38z" />
    <glyph glyph-name="afii10065" unicode="&#x430;" 
d="M203 -11q-66 0 -101.5 40.5t-35.5 115.5q0 89 53.5 128.5t174.5 39.5h37v32q0 22 -1.5 35t-8.5 33t-25.5 30.5t-47.5 10.5q-82 0 -82 -83v-8h-88q0 153 171 153q164 0 164 -153v-261q0 -50 10 -102h-85l-4 73h-2q-36 -84 -129 -84zM230 57q30 0 51.5 15.5t31.5 41
t14.5 51t4.5 53.5q0 16 -1 33q-14 1 -25 1q-35 0 -58 -3t-48.5 -12.5t-38 -31.5t-12.5 -56q0 -43 21.5 -67.5t59.5 -24.5z" />
    <glyph glyph-name="afii10066" unicode="&#x431;" 
d="M255 -10q-44 0 -74.5 10.5t-56.5 38.5t-39 83t-13 137q0 173 5 219q11 96 61 138t149 60q30 6 49.5 20t19.5 26h83q-8 -57 -38.5 -80t-102.5 -36q-89 -16 -125 -52t-44 -144h3q42 95 138 95q44 0 76 -13.5t50.5 -35t29 -56.5t13.5 -70.5t3 -84.5q0 -76 -13.5 -128
t-40.5 -79t-58.5 -37.5t-74.5 -10.5zM256 57q61 0 79.5 45.5t18.5 167.5q0 97 -26 132.5t-78 35.5q-49 0 -72 -38t-23 -130q0 -117 21.5 -165t79.5 -48z" />
    <glyph glyph-name="afii10067" unicode="&#x432;" horiz-adv-x="490" 
d="M72 0v505h190q154 0 154 -122q0 -27 -9 -48t-20 -32.5t-29.5 -20.5t-28 -12t-24.5 -6v-1q66 -4 94.5 -30.5t28.5 -93.5q0 -139 -174 -139h-182zM158 65h100q46 0 64.5 19.5t18.5 57.5q0 51 -26.5 71.5t-91.5 20.5h-65v-169zM158 291h65q49 0 77.5 21t28.5 57q0 71 -69 71
h-102v-149z" />
    <glyph glyph-name="afii10068" unicode="&#x433;" horiz-adv-x="367" 
d="M74 0v505h287v-67h-201v-438h-86z" />
    <glyph glyph-name="afii10069" unicode="&#x434;" horiz-adv-x="508" 
d="M17 -118v185h33q43 53 59.5 146.5t16.5 241.5v50h302v-438h49v-185h-82v118h-296v-118h-82zM141 67h201v373h-136v-21q0 -268 -65 -352z" />
    <glyph glyph-name="afii10070" unicode="&#x435;" 
d="M251 -12q-52 0 -88 15.5t-55.5 37.5t-29.5 61.5t-12.5 72.5t-2.5 86q0 138 43.5 197.5t143.5 59.5q58 0 96 -17.5t57.5 -52t26.5 -74.5t7 -97v-51h-285q0 -23 0.5 -37t3 -37t9 -37.5t16.5 -29.5t27.5 -22.5t40.5 -7.5q82 0 93 98h90q-4 -165 -181 -165zM152 288h197v12
q0 31 -3.5 54.5t-13 47.5t-30.5 37.5t-53 13.5t-53 -15.5t-29.5 -43.5t-11.5 -51.5t-3 -54.5z" />
    <glyph glyph-name="afii10072" unicode="&#x436;" horiz-adv-x="664" 
d="M3 0l198 266l-168 239h95l158 -237h3v237h86v-237h3l158 237h95l-168 -239l198 -266h-102l-181 258h-3v-258h-86v258h-3l-181 -258h-102z" />
    <glyph glyph-name="afii10073" unicode="&#x437;" horiz-adv-x="464" 
d="M219 -10q-51 0 -86.5 16t-51.5 40.5t-22 45t-6 39.5v19h86v-10q0 -36 21.5 -59t64.5 -23q93 0 93 89q0 49 -23 68.5t-71 19.5q-4 0 -18 -0.5t-18 -0.5v62q4 -1 31 -1q90 0 90 84q0 32 -20.5 53.5t-58.5 21.5q-39 0 -62 -23t-23 -60v-15h-83v20q0 68 45 103.5t126 35.5
q79 0 121.5 -33t42.5 -99q0 -101 -107 -116v-2q63 -6 89.5 -34t26.5 -95q0 -73 -49.5 -109.5t-137.5 -36.5z" />
    <glyph glyph-name="afii10074" unicode="&#x438;" horiz-adv-x="508" 
d="M72 0v505h86v-372h3l179 372h96v-505h-86v372h-3l-179 -372h-96z" />
    <glyph glyph-name="afii10075" unicode="&#x439;" horiz-adv-x="508" 
d="M72 0v505h86v-372h3l179 372h96v-505h-86v372h-3l-179 -372h-96zM257 577q-134 0 -142 122h56q6 -34 27 -45.5t56 -11.5t55 11t28 46h56q-7 -58 -42.5 -90t-93.5 -32z" />
    <glyph glyph-name="afii10076" unicode="&#x43a;" horiz-adv-x="455" 
d="M73 0v505h86v-235h2l171 235h98l-183 -237l203 -268h-105l-184 260h-2v-260h-86z" />
    <glyph glyph-name="afii10077" unicode="&#x43b;" 
d="M64 -6l-47 6v66q20 -2 29 -2q31 0 47 27q12 21 18 69.5t7 87t1 111.5v21v125h308v-505h-86v438h-140v-91q0 -272 -54 -325q-29 -28 -83 -28z" />
    <glyph glyph-name="afii10078" unicode="&#x43c;" horiz-adv-x="653" 
d="M72 0v505h127l126 -394h3l123 394h130v-505h-84v425h-3l-137 -425h-65l-137 425h-3v-425h-80z" />
    <glyph glyph-name="afii10079" unicode="&#x43d;" 
d="M72 0v505h86v-212h184v212h86v-505h-86v226h-184v-226h-86z" />
    <glyph glyph-name="afii10080" unicode="&#x43e;" 
d="M245 -14q-51 0 -86.5 15t-55 37t-30.5 60.5t-13.5 72t-2.5 84.5q0 63 6 104.5t25 81t59 59t102 19.5q51 0 87.5 -14.5t56.5 -36.5t31.5 -59.5t14.5 -73t3 -87.5q0 -49 -4 -84.5t-16 -71t-33 -57.5t-57.5 -35.5t-86.5 -13.5zM249 55q22 0 39 7.5t28 17t18.5 29t11.5 33.5
t6 42t2 42.5v45.5q0 30 -1 48.5t-6.5 46.5t-15.5 44t-30 28t-49 12q-26 0 -45 -8t-30 -25.5t-18 -32.5t-9.5 -42.5t-3 -42t-0.5 -42.5v-43.5t2 -40t5.5 -39.5t11 -31t18 -27.5t27.5 -15t39 -6.5z" />
    <glyph glyph-name="afii10081" unicode="&#x43f;" 
d="M72 0v505h356v-505h-86v438h-184v-438h-86z" />
    <glyph glyph-name="afii10082" unicode="&#x440;" 
d="M79 -192v697h86v-61q38 70 112 70q51 0 85.5 -20.5t51 -58.5t22.5 -76.5t6 -90.5q0 -41 -1 -65t-5.5 -61.5t-15 -60.5t-28 -46.5t-46.5 -34.5t-68 -11q-74 0 -112 62v-243h-87zM260 55q18 0 32.5 6t24.5 16t17.5 23.5t11.5 29.5t7 33t3.5 34.5l1 33.5t-0.5 30v16
q0 33 -3 57.5t-12.5 53t-31.5 43.5t-55 15q-27 0 -46.5 -14.5t-28.5 -33t-14 -50.5t-5.5 -50t-0.5 -49v-10q0 -36 2.5 -60t11 -56.5t30.5 -50t56 -17.5z" />
    <glyph glyph-name="afii10083" unicode="&#x441;" 
d="M253 -10q-46 0 -79.5 15t-52.5 38t-30 59t-14 69t-3 77q0 149 42 208t148 59q76 0 117 -40.5t41 -117.5v-14h-85q0 55 -19.5 80t-60.5 25q-58 0 -78 -50.5t-20 -145.5q0 -100 22.5 -146.5t71.5 -46.5q45 0 66 30.5t21 78.5h86q0 -80 -45 -129t-128 -49z" />
    <glyph glyph-name="afii10084" unicode="&#x442;" horiz-adv-x="386" 
d="M150 0v438h-145v67h376v-67h-145v-438h-86z" />
    <glyph glyph-name="afii10085" unicode="&#x443;" horiz-adv-x="444" 
d="M122 -192l57 190l-172 507h95l123 -411l122 411h89l-230 -697h-84z" />
    <glyph glyph-name="afii10086" unicode="&#x444;" horiz-adv-x="722" 
d="M318 -192v231h-3q-15 -15 -24.5 -23t-28 -15.5t-40.5 -7.5q-34 0 -60.5 9t-43.5 21.5t-29 36t-18 42.5t-9 51.5t-3.5 52t-0.5 55.5q0 65 8 111t21.5 73t35 42t43 19.5t52.5 4.5q29 0 55.5 -17t42.5 -40h2v240h86v-240h2q16 23 42.5 40t55.5 17q31 0 52.5 -4.5t43 -19.5
t35 -42t21.5 -73t8 -111q0 -36 -0.5 -55.5t-3.5 -52t-9 -51.5t-18 -42.5t-29 -36t-43.5 -21.5t-60.5 -9q-32 0 -51.5 11.5t-41.5 34.5h-3v-231h-86zM236 60q54 0 82 47v292q-33 45 -79 45q-27 0 -45.5 -11t-27.5 -24.5t-14 -42.5t-5.5 -48t-0.5 -57q0 -49 1 -73.5t5.5 -54
t14 -42.5t26.5 -22t43 -9zM486 60q26 0 43 9t26.5 22t14 42.5t5.5 54t1 73.5q0 38 -0.5 57t-5.5 48t-14 42.5t-27.5 24.5t-45.5 11q-46 0 -79 -45v-292q28 -47 82 -47z" />
    <glyph glyph-name="afii10087" unicode="&#x445;" horiz-adv-x="444" 
d="M9 0l156 263l-142 242h100l99 -184l106 184h92l-150 -242l164 -263h-101l-119 207l-112 -207h-93z" />
    <glyph glyph-name="afii10088" unicode="&#x446;" horiz-adv-x="508" 
d="M395 -118v118h-323v505h86v-438h184v438h86v-438h49v-185h-82z" />
    <glyph glyph-name="afii10089" unicode="&#x447;" horiz-adv-x="469" 
d="M311 0v215q-55 -19 -108 -19q-81 0 -113.5 35.5t-32.5 114.5v159h86v-140q0 -62 17 -82t69 -20q46 0 82 16v226h86v-505h-86z" />
    <glyph glyph-name="afii10090" unicode="&#x448;" horiz-adv-x="732" 
d="M72 0v505h86v-438h165v438h86v-438h165v438h86v-505h-588z" />
    <glyph glyph-name="afii10091" unicode="&#x449;" horiz-adv-x="740" 
d="M627 -118v118h-555v505h86v-438h165v438h86v-438h165v438h86v-438h49v-185h-82z" />
    <glyph glyph-name="afii10092" unicode="&#x44a;" horiz-adv-x="540" 
d="M143 0v438h-137v67h223v-196h88q38 0 68 -6.5t57.5 -22.5t42.5 -47.5t15 -77.5q0 -77 -46.5 -116t-127.5 -39h-183zM229 67h99q83 0 83 85q0 49 -20.5 69.5t-77.5 20.5h-84v-175z" />
    <glyph glyph-name="afii10093" unicode="&#x44b;" horiz-adv-x="654" 
d="M72 0v505h86v-196h88q38 0 68 -6.5t57.5 -22.5t42.5 -47.5t15 -77.5q0 -77 -46.5 -116t-127.5 -39h-183zM158 67h99q83 0 83 85q0 49 -20.5 69.5t-77.5 20.5h-84v-175zM496 0v505h86v-505h-86z" />
    <glyph glyph-name="afii10094" unicode="&#x44c;" horiz-adv-x="470" 
d="M72 0v505h86v-196h88q38 0 68 -6.5t57.5 -22.5t42.5 -47.5t15 -77.5q0 -77 -46.5 -116t-127.5 -39h-183zM158 67h99q83 0 83 85q0 49 -20.5 69.5t-77.5 20.5h-84v-175z" />
    <glyph glyph-name="afii10095" unicode="&#x44d;" 
d="M233 -10q-24 0 -49 8t-51 25t-42.5 52.5t-16.5 83.5h85q0 -31 8.5 -53t21.5 -31.5t24 -13.5t20 -4q56 0 79.5 38t27.5 131h-143v64h144q-1 91 -28.5 124.5t-79.5 33.5q-28 0 -49.5 -22t-21.5 -73h-85q0 79 40 120.5t116 41.5q51 0 87 -14.5t56 -37t31.5 -60.5t14.5 -72.5
t3 -85.5q0 -81 -14 -133.5t-42.5 -78t-59.5 -34.5t-76 -9z" />
    <glyph glyph-name="afii10096" unicode="&#x44e;" horiz-adv-x="695" 
d="M445 -10q-34 0 -59.5 4.5t-51 19.5t-42 40t-27.5 68.5t-12 103.5h-95v-226h-86v505h86v-212h96q2 52 10.5 88.5t28 69t57.5 48.5t95 16q51 0 87 -14.5t56 -37t31.5 -60.5t14.5 -72.5t3 -85.5q0 -81 -14 -133.5t-42.5 -78t-59.5 -34.5t-76 -9zM445 57q62 0 84 48.5
t22 174.5q0 97 -27 132.5t-79 35.5t-79 -35.5t-27 -132.5q0 -126 22 -174.5t84 -48.5z" />
    <glyph glyph-name="afii10097" unicode="&#x44f;" 
d="M58 0q17 62 27 123q11 67 37 93.5t74 29.5q-63 2 -94.5 30.5t-31.5 99.5q0 66 43 97.5t117 31.5h194v-505h-86v211h-59q-59 0 -78 -18.5t-29 -73.5q-10 -57 -25 -119h-89zM243 278h95v160h-107q-37 0 -55 -22t-18 -54q0 -36 23 -60t62 -24z" />
    <glyph glyph-name="uni0450" unicode="&#x450;" 
d="M251 -12q-52 0 -88 15.5t-55.5 37.5t-29.5 61.5t-12.5 72.5t-2.5 86q0 138 43.5 197.5t143.5 59.5q58 0 96 -17.5t57.5 -52t26.5 -74.5t7 -97v-51h-285q0 -23 0.5 -37t3 -37t9 -37.5t16.5 -29.5t27.5 -22.5t40.5 -7.5q82 0 93 98h90q-4 -165 -181 -165zM152 288h197v12
q0 31 -3.5 54.5t-13 47.5t-30.5 37.5t-53 13.5t-53 -15.5t-29.5 -43.5t-11.5 -51.5t-3 -54.5zM309 579h-67l-131 141h109z" />
    <glyph glyph-name="afii10071" unicode="&#x451;" 
d="M251 -12q-52 0 -88 15.5t-55.5 37.5t-29.5 61.5t-12.5 72.5t-2.5 86q0 138 43.5 197.5t143.5 59.5q58 0 96 -17.5t57.5 -52t26.5 -74.5t7 -97v-51h-285q0 -23 0.5 -37t3 -37t9 -37.5t16.5 -29.5t27.5 -22.5t40.5 -7.5q82 0 93 98h90q-4 -165 -181 -165zM152 288h197v12
q0 31 -3.5 54.5t-13 47.5t-30.5 37.5t-53 13.5t-53 -15.5t-29.5 -43.5t-11.5 -51.5t-3 -54.5zM209 694v-104h-94v104h94zM385 694v-104h-94v104h94z" />
    <glyph glyph-name="afii10099" unicode="&#x452;" 
d="M252 -145v66q55 0 78.5 27t23.5 88v289q0 52 -17 83t-66 31q-53 0 -78.5 -35t-25.5 -90v-314h-85v573h-92v62h92v87h85v-87h166v-62h-166v-143q22 40 53.5 57.5t81.5 17.5q138 0 138 -157v-320q0 -46 -11 -79t-27 -50.5t-40.5 -28t-44 -13t-44.5 -2.5h-21z" />
    <glyph glyph-name="afii10100" unicode="&#x453;" horiz-adv-x="367" 
d="M74 0v505h287v-67h-201v-438h-86zM223 722h109l-131 -141h-67z" />
    <glyph glyph-name="afii10101" unicode="&#x454;" 
d="M266 -10q-45 0 -76 9t-59.5 34.5t-42.5 78t-14 133.5q0 51 3 85.5t14.5 72.5t31.5 60.5t56 37t87 14.5q76 0 116 -41.5t40 -120.5h-85q0 51 -21.5 73t-49.5 22q-52 0 -79.5 -33.5t-28.5 -124.5h144v-64h-143q4 -93 27.5 -131t79.5 -38q9 0 20 4t24 13.5t21.5 31.5t8.5 53
h85q0 -48 -16.5 -83.5t-42.5 -52.5t-51 -25t-49 -8z" />
    <glyph glyph-name="afii10102" unicode="&#x455;" horiz-adv-x="444" 
d="M220 -9q-85 0 -129 39t-44 114v9h88v-9q0 -87 85 -87q43 0 67.5 19t24.5 53q0 41 -43 63l-127 66q-83 43 -83 117q0 70 49 103.5t122 33.5q77 0 119 -34.5t42 -99.5v-10h-84v6q0 75 -85 75q-38 0 -59 -17t-21 -48q0 -22 13.5 -36.5t54.5 -34.5l108 -54q79 -39 79 -124
q0 -69 -46 -106.5t-131 -37.5z" />
    <glyph glyph-name="afii10103" unicode="&#x456;" horiz-adv-x="222" 
d="M68 0v505h86v-505h-86zM65 634v88h92v-88h-92z" />
    <glyph glyph-name="afii10104" unicode="&#x457;" horiz-adv-x="222" 
d="M152 0h-82v505h82v-505zM70 694v-104h-94v104h94zM246 694v-104h-94v104h94z" />
    <glyph glyph-name="afii10105" unicode="&#x458;" horiz-adv-x="222" 
d="M8 -189v67q38 1 49 16t11 55v556h86v-595q0 -48 -31.5 -74t-89.5 -26q-12 0 -25 1zM65 634v88h92v-88h-92z" />
    <glyph glyph-name="afii10106" unicode="&#x459;" horiz-adv-x="700" 
d="M67 -6l-47 6v66q20 -2 29 -2q31 0 47 27q12 21 18 69.5t7 87t1 111.5v21v125h296v-198h58q83 0 133 -32.5t50 -119.5q0 -77 -46.5 -116t-127.5 -39h-149v438h-132v-91q0 -272 -54 -325q-29 -28 -83 -28zM418 67h69q83 0 83 85q0 48 -20.5 68t-77.5 20h-54v-173z" />
    <glyph glyph-name="afii10107" unicode="&#x45a;" horiz-adv-x="700" 
d="M72 0v505h86v-198h174v198h86v-198h58q83 0 133 -32.5t50 -119.5q0 -77 -46.5 -116t-127.5 -39h-153v240h-174v-240h-86zM418 67h69q83 0 83 85q0 48 -20.5 68t-77.5 20h-54v-173z" />
    <glyph glyph-name="afii10108" unicode="&#x45b;" 
d="M82 0v573h-92v62h92v87h85v-87h166v-62h-166v-143q22 40 53.5 57.5t81.5 17.5q138 0 138 -157v-348h-86v325q0 52 -17 83t-66 31q-53 0 -78.5 -35t-25.5 -90v-314h-85z" />
    <glyph glyph-name="afii10109" unicode="&#x45c;" horiz-adv-x="455" 
d="M73 0v505h86v-235h2l171 235h98l-183 -237l203 -268h-105l-184 260h-2v-260h-86zM257 722h109l-131 -141h-67z" />
    <glyph glyph-name="uni045D" unicode="&#x45d;" horiz-adv-x="508" 
d="M72 0v505h86v-372h3l179 372h96v-505h-86v372h-3l-179 -372h-96zM313 579h-67l-131 141h109z" />
    <glyph glyph-name="afii10110" unicode="&#x45e;" horiz-adv-x="444" 
d="M122 -192l57 190l-172 507h95l123 -411l122 411h89l-230 -697h-84zM228 577q-134 0 -142 122h56q6 -34 27 -45.5t56 -11.5t55 11t28 46h56q-7 -58 -42.5 -90t-93.5 -32z" />
    <glyph glyph-name="afii10193" unicode="&#x45f;" 
d="M215 -118v118h-143v505h86v-438h184v438h86v-505h-131v-118h-82z" />
    <glyph glyph-name="afii10146" unicode="&#x462;" horiz-adv-x="610" 
d="M139 0v537h-139v80h139v105h92v-105h139v-80h-139v-139h101q33 0 63.5 -7.5t64 -26.5t54 -59.5t20.5 -98.5q0 -119 -52.5 -162.5t-168.5 -43.5h-174zM231 80h77q33 0 54 3.5t40.5 15.5t28.5 37t9 65q0 41 -11 66t-35 35.5t-44.5 13t-57.5 2.5h-61v-238z" />
    <glyph glyph-name="afii10194" unicode="&#x463;" horiz-adv-x="509" 
d="M111 0v438h-111v67h111v217h86v-217h111v-67h-111v-129h88q38 0 68 -6.5t57.5 -22.5t42.5 -47.5t15 -77.5q0 -77 -46.5 -116t-127.5 -39h-183zM197 67h99q83 0 83 85q0 49 -20.5 69.5t-77.5 20.5h-84v-175z" />
    <glyph glyph-name="afii10147" unicode="&#x472;" horiz-adv-x="611" 
d="M299 -12q-66 0 -111 21.5t-68 63t-32.5 89.5t-9.5 112v164q0 55 4 94t17 81t37 68t66.5 42.5t101.5 16.5q61 0 104.5 -18.5t67.5 -46.5t37 -74.5t16 -87t3 -100.5v-70q0 -39 -0.5 -60.5t-2.5 -56.5t-6 -55.5t-12 -49t-19.5 -45t-29.5 -35.5t-40.5 -29t-53.5 -17t-69 -7z
M303 66q32 0 55 6.5t38 22.5t23.5 33t12.5 50t5 60.5t1 75.5v26q-29 -20 -65 -20q-24 0 -68.5 21.5t-70.5 21.5q-42 0 -62 -26v-67q0 -112 29.5 -158t101.5 -46zM377 388q40 0 61 25v11q0 108 -11 148q-26 89 -123 89q-69 0 -100.5 -42t-31.5 -135v-71q29 19 63 19
q33 0 77.5 -22t64.5 -22z" />
    <glyph glyph-name="afii10195" unicode="&#x473;" 
d="M245 -14q-51 0 -86.5 15t-55 37t-30.5 60.5t-13.5 72t-2.5 84.5q0 63 6 104.5t25 81t59 59t102 19.5q51 0 87.5 -14.5t56.5 -36.5t31.5 -59.5t14.5 -73t3 -87.5q0 -49 -4 -84.5t-16 -71t-33 -57.5t-57.5 -35.5t-86.5 -13.5zM249 55q34 0 56 14.5t32 42.5t13.5 55.5
t3.5 68.5q-23 -19 -57 -19q-17 0 -49 16t-51 16q-40 0 -51 -22q0 -40 3 -66t13 -52.5t31.5 -40t55.5 -13.5zM302 276q40 0 52 25q-1 31 -5 54t-14 47t-31 36.5t-52 12.5q-33 0 -55.5 -14t-32.5 -39.5t-14 -49.5t-4 -57q23 18 52 18q24 0 56 -16.5t48 -16.5z" />
    <glyph glyph-name="afii10148" unicode="&#x474;" horiz-adv-x="556" 
d="M217 0l-204 722h100l161 -635l139 555q12 48 37.5 70t74.5 22l39 -3v-71q-4 0 -13 0.5t-11 0.5q-20 0 -29 -11t-16 -34l-168 -616h-110z" />
    <glyph glyph-name="afii10196" unicode="&#x475;" horiz-adv-x="444" 
d="M160 0l-146 505h93l108 -429l92 353q11 42 35 61.5t73 19.5q5 0 29 -2v-63q-3 0 -8.5 0.5t-7.5 0.5q-34 0 -45 -40l-117 -406h-106z" />
    <glyph glyph-name="afii10050" unicode="&#x490;" horiz-adv-x="444" 
d="M87 0v722h261v142h87v-222h-256v-642h-92z" />
    <glyph glyph-name="afii10098" unicode="&#x491;" horiz-adv-x="367" 
d="M73 0v505h206v118h82v-185h-201v-438h-87z" />
    <glyph glyph-name="Wgrave" unicode="&#x1e80;" horiz-adv-x="889" 
d="M882 722l-191 -722h-112l-138 626l-147 -626h-112l-176 722h98l137 -626l146 626h119l132 -626l148 626h96zM319 939h109l89 -141h-67z" />
    <glyph glyph-name="wgrave" unicode="&#x1e81;" horiz-adv-x="722" 
d="M714 505l-136 -505h-110l-109 426l-114 -426h-110l-126 505h91l92 -429l113 429h116l104 -429l101 429h88zM442 579h-67l-131 141h109z" />
    <glyph glyph-name="Wacute" unicode="&#x1e82;" horiz-adv-x="889" 
d="M882 722l-191 -722h-112l-138 626l-147 -626h-112l-176 722h98l137 -626l146 626h119l132 -626l148 626h96zM489 939h109l-131 -141h-67z" />
    <glyph glyph-name="wacute" unicode="&#x1e83;" horiz-adv-x="722" 
d="M714 505l-136 -505h-110l-109 426l-114 -426h-110l-126 505h91l92 -429l113 429h116l104 -429l101 429h88zM379 722h109l-131 -141h-67z" />
    <glyph glyph-name="Wdieresis" unicode="&#x1e84;" horiz-adv-x="889" 
d="M882 722l-191 -722h-112l-138 626l-147 -626h-112l-176 722h98l137 -626l146 626h119l132 -626l148 626h96zM401 911v-104h-94v104h94zM577 911v-104h-94v104h94z" />
    <glyph glyph-name="wdieresis" unicode="&#x1e85;" horiz-adv-x="722" 
d="M714 505l-136 -505h-110l-109 426l-114 -426h-110l-126 505h91l92 -429l113 429h116l104 -429l101 429h88zM317 694v-104h-94v104h94zM493 694v-104h-94v104h94z" />
    <glyph glyph-name="Ygrave" unicode="&#x1ef2;" 
d="M492 722l-198 -432v-290h-91v292l-195 430h103l142 -349l145 349h94zM123 939h109l89 -141h-67z" />
    <glyph glyph-name="ygrave" unicode="&#x1ef3;" horiz-adv-x="444" 
d="M436 505l-230 -697h-84l57 190l-172 507h95l123 -411l122 411h89zM297 579h-67l-131 141h109z" />
    <glyph glyph-name="uni2010" unicode="&#x2010;" horiz-adv-x="333" 
d="M277 234h-220v74h220v-74z" />
    <glyph glyph-name="endash" unicode="&#x2013;" 
d="M500 243h-500v56h500v-56z" />
    <glyph glyph-name="emdash" unicode="&#x2014;" horiz-adv-x="1000" 
d="M1000 243h-1000v56h1000v-56z" />
    <glyph glyph-name="quoteleft" unicode="&#x2018;" horiz-adv-x="222" 
d="M186 726l-42 -201h-108l82 201h68z" />
    <glyph glyph-name="quoteright" unicode="&#x2019;" horiz-adv-x="222" 
d="M187 726l-83 -201h-68l43 201h108z" />
    <glyph glyph-name="quotesinglbase" unicode="&#x201a;" horiz-adv-x="222" 
d="M187 88l-83 -200h-68l43 200h108z" />
    <glyph glyph-name="quotedblleft" unicode="&#x201c;" horiz-adv-x="444" 
d="M381 725l-43 -201h-107l82 201h68zM213 725l-42 -201h-108l82 201h68z" />
    <glyph glyph-name="quotedblright" unicode="&#x201d;" horiz-adv-x="444" 
d="M381 726l-82 -201h-68l43 201h107zM214 726l-83 -201h-68l43 201h108z" />
    <glyph glyph-name="quotedblbase" unicode="&#x201e;" horiz-adv-x="444" 
d="M381 88l-82 -200h-68l43 200h107zM214 88l-83 -200h-68l43 200h108z" />
    <glyph glyph-name="dagger" unicode="&#x2020;" horiz-adv-x="444" 
d="M404 499h-142v-499h-79v499h-142v72h142v151h79v-151h142v-72z" />
    <glyph glyph-name="daggerdbl" unicode="&#x2021;" horiz-adv-x="444" 
d="M403 152h-141v-152h-80v152h-140v69h140v280h-140v70h140v151h80v-151h141v-70h-141v-280h141v-69z" />
    <glyph glyph-name="bullet" unicode="&#x2022;" horiz-adv-x="333" 
d="M166 534q74 0 126 -52t52 -126t-52 -126t-126 -52t-126 52t-52 126t52 126t126 52z" />
    <glyph glyph-name="ellipsis" unicode="&#x2026;" horiz-adv-x="1000" 
d="M214 104v-104h-94v104h94zM880 104v-104h-94v104h94zM547 104v-104h-94v104h94z" />
    <glyph glyph-name="perthousand" unicode="&#x2030;" horiz-adv-x="889" 
d="M867 173q0 -34 -1 -55t-8 -48.5t-19 -43t-36 -27t-58 -11.5q-29 0 -49.5 9t-32 23.5t-18 39t-8.5 47.5t-2 57q0 96 27 136t92 40q31 0 52.5 -9.5t33 -23.5t18 -38t8 -44.5t1.5 -51.5zM255 541q0 -34 -1 -55t-8 -48.5t-19 -43t-36 -27t-58 -11.5q-29 0 -49.5 9t-32 23.5
t-18 39t-8.5 47.5t-2 57q0 96 27 136t92 40q31 0 52.5 -9.5t33 -23.5t18 -38t8 -44.5t1.5 -51.5zM485 708l-312 -722h-61l311 722h62zM576 173q0 -34 -1 -55t-8 -48.5t-19 -43t-36 -27t-58 -11.5q-29 0 -49.5 9t-32 23.5t-18 39t-8.5 47.5t-2 57q0 96 27 136t92 40
q31 0 52.5 -9.5t33 -23.5t18 -38t8 -44.5t1.5 -51.5zM802 173q0 79 -11 98q-12 20 -37 20q-30 0 -41 -25q-12 -25 -12 -101q0 -44 3 -75q5 -50 46 -50q27 0 39 24q13 25 13 109zM190 541q0 79 -11 98q-12 20 -37 20q-30 0 -41 -25q-12 -25 -12 -101q0 -43 3 -75
q5 -50 46 -50q27 0 39 24q13 25 13 109zM511 173q0 79 -11 98q-12 20 -37 20q-30 0 -41 -25q-12 -25 -12 -101q0 -44 3 -75q5 -50 46 -50q27 0 39 24q13 25 13 109z" />
    <glyph glyph-name="guilsinglleft" unicode="&#x2039;" horiz-adv-x="222" 
d="M192 447l-79 -196l78 -193h-78l-90 193l93 196h76z" />
    <glyph glyph-name="guilsinglright" unicode="&#x203a;" horiz-adv-x="222" 
d="M198 251l-90 -193h-78l78 193l-79 196h76z" />
    <glyph glyph-name="interrobang" unicode="&#x203d;" horiz-adv-x="444" 
d="M267 582l-5 -130q34 62 34 117q0 45 -19 71t-53 26q-80 0 -80 -114v-22h-88v24q0 88 44 134.5t128 46.5q79 0 122.5 -44t43.5 -124q0 -34 -7 -63.5t-26 -61.5t-30.5 -47.5l-41.5 -54.5q-20 -26 -25 -40t-5 -45v-72h-76l-14 399h98zM264 0h-93v98h93v-98z" />
    <glyph glyph-name="fraction" unicode="&#x2044;" horiz-adv-x="167" 
d="M-103 -30h-63l437 749h62z" />
    <glyph glyph-name="zero.superior" unicode="&#x2070;" horiz-adv-x="293" 
d="M143 270q-64 0 -90 41t-26 123v108q0 84 27 122t92 38q68 0 94 -41t26 -131v-65q0 -37 -1.5 -61t-8.5 -52t-20 -44t-36.5 -27t-56.5 -11zM145 327q29 0 39.5 25t10.5 94v70q0 70 -9.5 99t-38.5 29q-30 0 -40.5 -28t-10.5 -100v-84q0 -57 11.5 -81t37.5 -24z" />
    <glyph glyph-name="four.superior" unicode="&#x2074;" horiz-adv-x="293" 
d="M164 278v101h-137v67l120 250h85v-258h50v-59h-50v-101h-68zM87 438h77v166z" />
    <glyph glyph-name="five.superior" unicode="&#x2075;" horiz-adv-x="293" 
d="M148 270q-54 0 -83 25.5t-29 91.5h71v-9q0 -52 43 -52q27 0 38.5 20.5t11.5 68.5q0 46 -10.5 64t-36.5 18q-20 0 -31 -10.5t-15 -36.5h-68l7 246h207v-59h-140l-4 -103q27 20 63 20q48 0 72 -32.5t24 -110.5q0 -141 -120 -141z" />
    <glyph glyph-name="six.superior" unicode="&#x2076;" horiz-adv-x="293" 
d="M148 270q-65 0 -91.5 44.5t-26.5 134.5v46q0 40 2 68t9.5 56t20 45t35 27.5t53.5 10.5q47 0 79 -27t32 -79v-10h-72v8q0 23 -11 37t-29 14q-49 0 -49 -101v-18q31 23 61 23q50 0 78 -35.5t28 -100.5q0 -143 -119 -143zM150 326q48 0 48 87q0 77 -48 77q-49 0 -49 -77
q0 -87 49 -87z" />
    <glyph glyph-name="seven.superior" unicode="&#x2077;" horiz-adv-x="293" 
d="M68 278l115 357h-156v61h231v-55l-113 -363h-77z" />
    <glyph glyph-name="eight.superior" unicode="&#x2078;" horiz-adv-x="293" 
d="M145 270q-56 0 -86.5 32.5t-30.5 91.5q0 76 55 103q-51 28 -51 92q0 52 30.5 82t83.5 30q52 0 82.5 -29.5t30.5 -80.5q0 -66 -50 -93q55 -25 55 -104q0 -59 -31 -91.5t-88 -32.5zM146 329q49 0 49 68q0 69 -49 69q-48 0 -48 -70q0 -67 48 -67zM145 529q21 0 33 16.5
t12 45.5q0 26 -11.5 40.5t-31.5 14.5q-21 0 -33.5 -15t-12.5 -40q0 -29 12 -45.5t32 -16.5z" />
    <glyph glyph-name="nine.superior" unicode="&#x2079;" horiz-adv-x="293" 
d="M142 270q-48 0 -78.5 28.5t-30.5 74.5v13h70v-1q0 -57 41 -57q28 0 38.5 25t11.5 106q-29 -27 -64 -27q-49 0 -76.5 36t-27.5 98q0 64 30.5 99.5t86.5 35.5q66 0 93 -44.5t27 -142.5v-49q0 -99 -23.5 -147t-97.5 -48zM142 492q49 0 49 78q0 75 -47 75q-49 0 -49 -79
q0 -74 47 -74z" />
    <glyph glyph-name="plus.superior" unicode="&#x207a;" horiz-adv-x="293" 
d="M122 285v119h-120v49h120v120h49v-120h119v-49h-119v-119h-49z" />
    <glyph glyph-name="minus.superior" unicode="&#x207b;" horiz-adv-x="293" 
d="M11 404v49h272v-49h-272z" />
    <glyph glyph-name="equal.superior" unicode="&#x207c;" horiz-adv-x="293" 
d="M11 352v49h272v-49h-272zM11 457v49h272v-49h-272z" />
    <glyph glyph-name="parenleft.superior" unicode="&#x207d;" horiz-adv-x="183" 
d="M94 207q-3 10 -14.5 41.5t-15.5 45l-12.5 41t-12 45.5t-6.5 42t-3 46q0 26 3 52t12 58t14 48t19 56.5l17 49.5h49q-44 -178 -44 -266q0 -118 41 -259h-47z" />
    <glyph glyph-name="parenright.superior" unicode="&#x207e;" horiz-adv-x="183" 
d="M89 207h-47q41 141 41 259q0 88 -44 266h49l17 -49.5t19 -56.5t14 -48t12 -58t3 -52q0 -22 -3 -46t-6.5 -42t-12 -45.5l-12.5 -41t-15.5 -45t-14.5 -41.5z" />
    <glyph glyph-name="n.superior" unicode="&#x207f;" horiz-adv-x="300" 
d="M37 423v306h66v-21q23 27 72 27q52 0 70.5 -26.5t18.5 -77.5v-208h-67v201q0 56 -41 56q-26 0 -39 -17.5t-13 -45.5v-194h-67z" />
    <glyph glyph-name="zero.inferior" unicode="&#x2080;" horiz-adv-x="293" 
d="M143 -8q-64 0 -90 41t-26 123v108q0 84 27 122t92 38q68 0 94 -41t26 -131v-65q0 -37 -1.5 -61t-8.5 -52t-20 -44t-36.5 -27t-56.5 -11zM145 49q29 0 39.5 25t10.5 94v70q0 70 -9.5 99t-38.5 29q-30 0 -40.5 -28t-10.5 -100v-84q0 -57 11.5 -81t37.5 -24z" />
    <glyph glyph-name="one.inferior" unicode="&#x2081;" horiz-adv-x="293" 
d="M128 0v336q-40 -26 -62 -39v70q45 20 72 51h61v-418h-71z" />
    <glyph glyph-name="two.inferior" unicode="&#x2082;" horiz-adv-x="293" 
d="M29 0v58l106 140q26 35 37 56q15 27 15 61q0 52 -44 52q-41 0 -41 -58v-11h-72v14q0 112 114 112t114 -114q0 -41 -17 -75q-21 -42 -54 -81l-75 -92h156v-62h-239z" />
    <glyph glyph-name="three.inferior" unicode="&#x2083;" horiz-adv-x="293" 
d="M137 -8q-57 0 -86 29.5t-29 104.5h69v-9q0 -36 11.5 -51t39.5 -15q56 0 56 69q0 36 -16.5 51.5t-54.5 15.5h-19v63q10 -1 19 -1q67 0 67 61q0 55 -51 55q-46 0 -46 -54q0 -10 1 -17h-70v20q0 54 30 82t86 28q57 0 88.5 -29t31.5 -81q0 -68 -60 -96q34 -12 48.5 -35
t14.5 -68q0 -60 -33 -91.5t-97 -31.5z" />
    <glyph glyph-name="four.inferior" unicode="&#x2084;" horiz-adv-x="293" 
d="M164 0v101h-137v67l120 250h85v-258h50v-59h-50v-101h-68zM87 160h77v166z" />
    <glyph glyph-name="five.inferior" unicode="&#x2085;" horiz-adv-x="293" 
d="M148 -8q-54 0 -83 25.5t-29 91.5h71v-9q0 -52 43 -52q27 0 38.5 20.5t11.5 68.5q0 46 -10.5 64t-36.5 18q-20 0 -31 -10.5t-15 -36.5h-68l7 246h207v-59h-140l-4 -103q27 20 63 20q48 0 72 -32.5t24 -110.5q0 -141 -120 -141z" />
    <glyph glyph-name="six.inferior" unicode="&#x2086;" horiz-adv-x="293" 
d="M148 -8q-65 0 -91.5 44.5t-26.5 134.5v46q0 40 2 68t9.5 56t20 45t35 27.5t53.5 10.5q47 0 79 -27t32 -79v-10h-72v8q0 23 -11 37t-29 14q-49 0 -49 -101v-18q31 23 61 23q50 0 78 -35.5t28 -100.5q0 -143 -119 -143zM150 48q48 0 48 87q0 77 -48 77q-49 0 -49 -77
q0 -87 49 -87z" />
    <glyph glyph-name="seven.inferior" unicode="&#x2087;" horiz-adv-x="293" 
d="M68 0l115 357h-156v61h231v-55l-113 -363h-77z" />
    <glyph glyph-name="eight.inferior" unicode="&#x2088;" horiz-adv-x="293" 
d="M145 -8q-56 0 -86.5 32.5t-30.5 91.5q0 76 55 103q-51 28 -51 92q0 52 30.5 82t83.5 30q52 0 82.5 -29.5t30.5 -80.5q0 -66 -50 -93q55 -25 55 -104q0 -59 -31 -91.5t-88 -32.5zM146 51q49 0 49 68q0 69 -49 69q-48 0 -48 -70q0 -67 48 -67zM145 251q21 0 33 16.5
t12 45.5q0 26 -11.5 40.5t-31.5 14.5q-21 0 -33.5 -15t-12.5 -40q0 -29 12 -45.5t32 -16.5z" />
    <glyph glyph-name="nine.inferior" unicode="&#x2089;" horiz-adv-x="293" 
d="M142 -8q-48 0 -78.5 28.5t-30.5 74.5v13h70v-1q0 -57 41 -57q28 0 38.5 25t11.5 106q-29 -27 -64 -27q-49 0 -76.5 36t-27.5 98q0 64 30.5 99.5t86.5 35.5q66 0 93 -44.5t27 -142.5v-49q0 -99 -23.5 -147t-97.5 -48zM142 214q49 0 49 78q0 75 -47 75q-49 0 -49 -79
q0 -74 47 -74z" />
    <glyph glyph-name="plus.inferior" unicode="&#x208a;" horiz-adv-x="293" 
d="M122 7v119h-120v49h120v120h49v-120h119v-49h-119v-119h-49z" />
    <glyph glyph-name="minus.inferior" unicode="&#x208b;" horiz-adv-x="293" 
d="M11 126v49h272v-49h-272z" />
    <glyph glyph-name="equal.inferior" unicode="&#x208c;" horiz-adv-x="293" 
d="M11 74v49h272v-49h-272zM11 179v49h272v-49h-272z" />
    <glyph glyph-name="parenleft.inferior" unicode="&#x208d;" horiz-adv-x="183" 
d="M94 -71q-3 10 -14.5 41.5t-15.5 45l-12.5 41t-12 45.5t-6.5 42t-3 46q0 26 3 52t12 58t14 48t19 56.5l17 49.5h49q-44 -178 -44 -266q0 -118 41 -259h-47z" />
    <glyph glyph-name="parenright.inferior" unicode="&#x208e;" horiz-adv-x="183" 
d="M89 -71h-47q41 141 41 259q0 88 -44 266h49l17 -49.5t19 -56.5t14 -48t12 -58t3 -52q0 -22 -3 -46t-6.5 -42t-12 -45.5l-12.5 -41t-15.5 -45t-14.5 -41.5z" />
    <glyph glyph-name="Euro" unicode="&#x20ac;" horiz-adv-x="444" 
d="M18 314h46v66h-57l11 67h48v49q0 213 182 213q84 0 129.5 -44.5t45.5 -135.5h-89q0 100 -86 100q-89 0 -89 -123v-59h160l-11 -67h-150v-66h138l-11 -67h-126v-59q0 -64 22.5 -95.5t71.5 -31.5q45 0 64.5 23.5t19.5 77.5h87q0 -176 -176 -176q-183 0 -183 201v60h-58z
" />
    <glyph glyph-name="afii61248" unicode="&#x2105;" horiz-adv-x="754" 
d="M191 419q-36 0 -59.5 12.5t-34.5 37t-15 49t-4 58.5q0 90 26.5 125.5t92.5 35.5q49 0 75 -25.5t26 -73.5v-16h-65q0 60 -40 60q-29 0 -39 -27t-10 -77q0 -102 47 -102q44 0 44 63h66q0 -54 -28.5 -87t-81.5 -33zM434 153q0 76 25 117.5t95 41.5q66 0 94 -35t28 -127
q0 -85 -28 -121.5t-95 -36.5q-63 0 -91 33t-28 128zM555 47q31 0 42.5 24.5t11.5 92.5q0 52 -12 73t-41 21q-28 0 -41 -19.5t-13 -82.5q0 -70 10.5 -89.5t42.5 -19.5zM173 -30h-63l437 749h62z" />
    <glyph glyph-name="afii61289" unicode="&#x2113;" horiz-adv-x="427" 
d="M173 504v-187q102 127 102 255q0 41 -13.5 60.5t-31.5 19.5q-25 0 -41 -36t-16 -112zM346 117l12 -11.5l14.5 -14t11.5 -12.5q-54 -88 -147 -88q-71 0 -102 40t-36 136q0 9 -1 13l-43 -34q-8 12 -25 44q23 17 67 57v206q0 142 34 200t99 58q46 0 77.5 -36t31.5 -102
q0 -164 -166 -335v-29q0 -78 14 -110.5t43 -37.5l13 -1q7 0 21 2q41 3 82 55z" />
    <glyph glyph-name="afii61352" unicode="&#x2116;" horiz-adv-x="887" 
d="M431 694h92v-694h-136l-227 598h-2v-598h-92v694h140l223 -590h2v590zM717 177q40 0 52 28t12 105q0 59 -15.5 79.5t-48.5 20.5t-48.5 -20.5t-15.5 -79.5q0 -77 12 -105t52 -28zM717 136q-62 0 -96 30.5t-34 122.5q0 79 26 120.5t104 41.5t104 -41.5t26 -120.5
q0 -48 -10 -80t-29.5 -47t-40.5 -20.5t-50 -5.5zM587 0v56h260v-56h-260z" />
    <glyph glyph-name="published" unicode="&#x2117;" horiz-adv-x="800" 
d="M435 337h-87v-191h-66v438h154q71 0 102.5 -27t31.5 -91t-32 -96.5t-103 -32.5zM348 533v-145h74q44 0 63.5 18.5t19.5 61.5q0 35 -16.5 50t-50.5 15h-90zM400 740q155 0 265.5 -110.5t110.5 -265.5t-110.5 -265.5t-265.5 -110.5q-156 0 -266 110.5t-110 265.5t110 265.5
t266 110.5zM400 45q130 0 223 94t93 225t-93 225t-223 94q-131 0 -224 -94t-93 -225t93 -225t224 -94z" />
    <glyph glyph-name="trademark" unicode="&#x2122;" horiz-adv-x="825" 
d="M144 366v314h-122v42h293v-42h-122v-314h-49zM379 366v356h73l107 -283l108 283h70v-356h-44v309l-115 -309h-40l-116 309v-309h-43z" />
    <glyph glyph-name="Omega" unicode="&#x2126;" horiz-adv-x="600" 
d="M76 0v80h107v63q-111 53 -111 228v113q0 54 11.5 98t37 80.5t71 57t108.5 20.5t108.5 -20.5t71 -57t37 -80.5t11.5 -98v-113q0 -174 -111 -228v-63h107v-80h-184v200q55 17 75 69.5t20 147.5v34q0 36 -2 61.5t-9.5 56t-21 49t-39.5 31.5t-62 13t-62 -13t-40 -31.5
t-22 -49t-10 -56t-2 -61.5v-34q0 -95 20 -147.5t75 -69.5v-200h-184z" />
    <glyph glyph-name="estimated" unicode="&#x212e;" horiz-adv-x="764" 
d="M719 350h-526v-237q77 -77 188 -77q82 0 142.5 37.5t108.5 119.5l46 -27q-61 -95 -128 -135.5t-169 -40.5q-151 0 -243.5 103t-92.5 257q0 155 92.5 258t243.5 103q150 0 243 -101t95 -260zM193 398h379v188q-81 78 -192 78q-112 0 -187 -78v-188z" />
    <glyph glyph-name="onethird" unicode="&#x2153;" horiz-adv-x="754" 
d="M145 -30h-63l437 749h62zM117 278v336l-62 -39v70q45 20 72 51h61v-418h-71zM558 -8q-57 0 -86 29.5t-29 104.5h69v-9q0 -36 11.5 -51t39.5 -15q56 0 56 69q0 36 -16.5 51.5t-54.5 15.5h-19v63q10 -1 19 -1q67 0 67 61q0 55 -51 55q-46 0 -46 -54q0 -10 1 -17h-70v20
q0 54 30 82t86 28q57 0 88.5 -29t31.5 -81q0 -68 -60 -96q34 -12 48.5 -35t14.5 -68q0 -60 -33 -91.5t-97 -31.5z" />
    <glyph glyph-name="twothirds" unicode="&#x2154;" horiz-adv-x="754" 
d="M186 -30h-63l437 749h62zM29 278v58l106 140q26 35 37 56q15 27 15 61q0 52 -44 52q-41 0 -41 -58v-11h-72v14q0 112 114 112t114 -114q0 -41 -17 -75q-21 -42 -54 -81l-75 -92h156v-62h-239zM578 -8q-57 0 -86 29.5t-29 104.5h69v-9q0 -36 11.5 -51t39.5 -15q56 0 56 69
q0 36 -16.5 51.5t-54.5 15.5h-19v63q10 -1 19 -1q67 0 67 61q0 55 -51 55q-46 0 -46 -54q0 -10 1 -17h-70v20q0 54 30 82t86 28q57 0 88.5 -29t31.5 -81q0 -68 -60 -96q34 -12 48.5 -35t14.5 -68q0 -60 -33 -91.5t-97 -31.5z" />
    <glyph glyph-name="oneeighth" unicode="&#x215b;" horiz-adv-x="754" 
d="M140 -30h-63l437 749h62zM118 278v336l-62 -39v70q45 20 72 51h61v-418h-71zM560 -8q-56 0 -86.5 32.5t-30.5 91.5q0 76 55 103q-51 28 -51 92q0 52 30.5 82t83.5 30q52 0 82.5 -29.5t30.5 -80.5q0 -66 -50 -93q55 -25 55 -104q0 -59 -31 -91.5t-88 -32.5zM561 51
q49 0 49 68q0 69 -49 69q-48 0 -48 -70q0 -67 48 -67zM560 251q21 0 33 16.5t12 45.5q0 26 -11.5 40.5t-31.5 14.5q-21 0 -33.5 -15t-12.5 -40q0 -29 12 -45.5t32 -16.5z" />
    <glyph glyph-name="threeeighths" unicode="&#x215c;" horiz-adv-x="754" 
d="M174 -30h-63l437 749h62zM147 270q-57 0 -86 29.5t-29 104.5h69v-9q0 -36 11.5 -51t39.5 -15q56 0 56 69q0 36 -16.5 51.5t-54.5 15.5h-19v63q10 -1 19 -1q67 0 67 61q0 55 -51 55q-46 0 -46 -54q0 -10 1 -17h-70v20q0 54 30 82t86 28q57 0 88.5 -29t31.5 -81
q0 -68 -60 -96q34 -12 48.5 -35t14.5 -68q0 -60 -33 -91.5t-97 -31.5zM583 -8q-56 0 -86.5 32.5t-30.5 91.5q0 76 55 103q-51 28 -51 92q0 52 30.5 82t83.5 30q52 0 82.5 -29.5t30.5 -80.5q0 -66 -50 -93q55 -25 55 -104q0 -59 -31 -91.5t-88 -32.5zM584 51q49 0 49 68
q0 69 -49 69q-48 0 -48 -70q0 -67 48 -67zM583 251q21 0 33 16.5t12 45.5q0 26 -11.5 40.5t-31.5 14.5q-21 0 -33.5 -15t-12.5 -40q0 -29 12 -45.5t32 -16.5z" />
    <glyph glyph-name="fiveeighths" unicode="&#x215d;" horiz-adv-x="754" 
d="M180 -30h-63l437 749h62zM150 270q-54 0 -83 25.5t-29 91.5h71v-9q0 -52 43 -52q27 0 38.5 20.5t11.5 68.5q0 46 -10.5 64t-36.5 18q-20 0 -31 -10.5t-15 -36.5h-68l7 246h207v-59h-140l-4 -103q27 20 63 20q48 0 72 -32.5t24 -110.5q0 -141 -120 -141zM578 -8
q-56 0 -86.5 32.5t-30.5 91.5q0 76 55 103q-51 28 -51 92q0 52 30.5 82t83.5 30q52 0 82.5 -29.5t30.5 -80.5q0 -66 -50 -93q55 -25 55 -104q0 -59 -31 -91.5t-88 -32.5zM579 51q49 0 49 68q0 69 -49 69q-48 0 -48 -70q0 -67 48 -67zM578 251q21 0 33 16.5t12 45.5
q0 26 -11.5 40.5t-31.5 14.5q-21 0 -33.5 -15t-12.5 -40q0 -29 12 -45.5t32 -16.5z" />
    <glyph glyph-name="seveneighths" unicode="&#x215e;" horiz-adv-x="754" 
d="M143 -30h-63l437 749h62zM561 -8q-56 0 -86.5 32.5t-30.5 91.5q0 76 55 103q-51 28 -51 92q0 52 30.5 82t83.5 30q52 0 82.5 -29.5t30.5 -80.5q0 -66 -50 -93q55 -25 55 -104q0 -59 -31 -91.5t-88 -32.5zM562 51q49 0 49 68q0 69 -49 69q-48 0 -48 -70q0 -67 48 -67z
M561 251q21 0 33 16.5t12 45.5q0 26 -11.5 40.5t-31.5 14.5q-21 0 -33.5 -15t-12.5 -40q0 -29 12 -45.5t32 -16.5zM81 278l115 357h-156v61h231v-55l-113 -363h-77z" />
    <glyph glyph-name="partialdiff" unicode="&#x2202;" horiz-adv-x="473" 
d="M79 649l-26 60q70 49 151 49q97 0 166 -104t69 -276q0 -191 -69.5 -289.5t-166.5 -98.5q-79 0 -124 57t-45 152q0 105 55.5 175.5t138.5 70.5q84 0 124 -68q0 3 0.5 10t0.5 11q0 125 -46 205.5t-112 80.5q-68 0 -116 -35zM212 62q52 0 89.5 68.5t42.5 164.5
q-12 36 -38.5 57.5t-60.5 21.5q-51 0 -86.5 -49.5t-35.5 -123.5q0 -71 24.5 -105t64.5 -34z" />
    <glyph glyph-name="Delta" unicode="&#x2206;" horiz-adv-x="580" 
d="M573 0h-566l222 722h113zM451 80l-166 551l-161 -551h327z" />
    <glyph glyph-name="product" unicode="&#x220f;" horiz-adv-x="625" 
d="M570 753v-883h-86v806h-344v-806h-86v883h516z" />
    <glyph glyph-name="summation" unicode="&#x2211;" horiz-adv-x="554" 
d="M550 -130h-538v56l207 381l-194 383v63h499v-76h-387v-3l179 -362l-192 -362v-5h426v-75z" />
    <glyph glyph-name="minus" unicode="&#x2212;" 
d="M43 222v62h414v-62h-414z" />
    <glyph glyph-name="uni2215" unicode="&#x2215;" horiz-adv-x="167" 
d="M-103 -30h-63l437 749h62z" />
    <glyph glyph-name="uni2219" unicode="&#x2219;" horiz-adv-x="222" 
d="M159 243h-97v104h97v-104z" />
    <glyph glyph-name="radical" unicode="&#x221a;" horiz-adv-x="522" 
d="M528 800l-212 -890h-75l-150 406l-72 -27l-18 51l143 57l108 -306q1 -3 21 -79q2 7 5.5 28.5t6.5 34.5l12 51l155 674h76z" />
    <glyph glyph-name="infinity" unicode="&#x221e;" horiz-adv-x="744" 
d="M558 114q-35 0 -71.5 17.5t-59 36.5t-54.5 50q-3 -2 -18 -15.5l-19 -17l-18 -15.5t-20.5 -15.5t-19.5 -12.5t-22 -12t-22 -8t-25.5 -6.5t-25.5 -1.5q-63 0 -103 42.5t-40 106.5q0 63 40 107.5t104 44.5q14 0 29 -3t26 -6.5t26 -12.5l23 -13.5t23 -17.5l20.5 -17.5
t22 -19.5t19.5 -18q30 29 41.5 39t39.5 31.5t53 29.5t53 8q64 0 104 -42.5t40 -107.5q0 -64 -40 -107.5t-106 -43.5zM560 179q35 0 56.5 24t21.5 60q0 38 -21.5 62.5t-58.5 24.5q-24 0 -54 -17t-44 -29.5l-44 -40.5q1 -1 16.5 -15.5t20 -17.5t18.5 -14.5t21.5 -15.5
l20 -10.5t24 -8.5t23.5 -2zM187 179q58 0 143 83q-4 4 -29.5 26t-38.5 31.5t-35.5 20t-41.5 10.5q-34 0 -56.5 -25.5t-22.5 -61.5q0 -37 22.5 -60.5t58.5 -23.5z" />
    <glyph glyph-name="integral" unicode="&#x222b;" horiz-adv-x="332" 
d="M132 93v30l-5 157q-6 155 -5 221v40q7 221 149 221q27 0 47 -8l-12 -65q-13 4 -30 4q-40 0 -56.5 -38.5t-16.5 -138.5v-21q0 -59 5.5 -169t5.5 -181q0 -166 -36.5 -229.5t-110.5 -63.5q-35 0 -53 10q4 33 12 66q17 -5 33 -5q73 0 73 170z" />
    <glyph glyph-name="approxequal" unicode="&#x2248;" 
d="M465 403q-16 -140 -108 -140q-41 0 -117.5 36.5t-101.5 36.5q-45 0 -57 -79h-48q18 141 107 141q30 0 84 -23l76 -32q40 -16 61 -16q26 0 38 19.5t18 56.5h48zM465 232q-16 -140 -108 -140q-41 0 -117.5 36.5t-101.5 36.5q-45 0 -57 -78h-48q18 140 107 140
q36 0 111.5 -35.5t109.5 -35.5q26 0 38 19.5t18 56.5h48z" />
    <glyph glyph-name="notequal" unicode="&#x2260;" 
d="M149 3l-52 27l54 102h-127v64h161l60 111h-221v64h255l70 133l52 -28l-56 -105h131v-64h-165l-59 -111h224v-64h-258z" />
    <glyph glyph-name="lessequal" unicode="&#x2264;" 
d="M25 263v65l451 170v-65l-368 -138l368 -135v-65zM25 32h451v-59h-451v59z" />
    <glyph glyph-name="greaterequal" unicode="&#x2265;" 
d="M476 263l-451 -168v65l368 135l-368 138v65l451 -170v-65zM476 -27h-451v59h451v-59z" />
    <glyph glyph-name="lozenge" unicode="&#x25ca;" horiz-adv-x="523" 
d="M473 328l-173 -360h-77l-173 360l173 365h77zM388 326l-117 261q-8 17 -10 28h-2q-3 -9 -8 -20l-117 -264l107 -237q19 -42 20 -49h3l8 22z" />
    <glyph glyph-name="f_i" unicode="&#xf001;" 
d="M9 505h78v98q0 122 145 122q21 0 39 -3v-59q-59 4 -80.5 -15.5t-21.5 -56.5v-86h102v-62h-102v-443h-82v443h-78v62zM423 505v-505h-82v505h82zM336 634v88h92v-88h-92z" />
    <glyph glyph-name="f_l" unicode="&#xf002;" 
d="M9 505h78v98q0 122 145 122q21 0 39 -3v-59q-59 4 -80.5 -15.5t-21.5 -56.5v-86h102v-62h-102v-443h-82v443h-78v62zM430 722v-722h-82v722h82z" />
    <glyph glyph-name="uniF8FF" unicode="&#xf8ff;" horiz-adv-x="485" 
d="M263 111h-53v63h53v-63zM257 222h-46v16q0 50 11 74.5t46 56.5q46 44 46 80q0 33 -21 56.5t-51 23.5q-67 0 -77 -90l-48 8q7 66 41 98t87 32q52 0 85 -34t33 -90q0 -32 -12.5 -56.5t-47.5 -56.5q-32 -29 -39 -44.5t-7 -51.5v-22zM47 47h391v585h-391v-585zM0 680h485
v-680h-485v680z" />
    <glyph glyph-name="grave.cap" horiz-adv-x="278" 
d="M20 939h109l89 -141h-67z" />
    <glyph glyph-name="acute.cap" horiz-adv-x="278" 
d="M149 939h109l-131 -141h-67z" />
    <glyph glyph-name="circumflex.cap" horiz-adv-x="278" 
d="M205 798l-66 94l-66 -94h-80l100 141h92l100 -141h-80z" />
    <glyph glyph-name="caron.cap" horiz-adv-x="278" 
d="M205 939h80l-100 -141h-92l-100 141h80l66 -94z" />
    <glyph glyph-name="caron.alt" horiz-adv-x="222" 
d="M158 722l-54 -141h-50l13 141h91z" />
    <glyph glyph-name="tilde.cap" horiz-adv-x="278" 
d="M258 911h51q-5 -45 -31 -76q-28 -33 -73 -33q-19 0 -72 19q-47 19 -72 19q-17 0 -30.5 -14t-15.5 -31h-46q5 49 31 78.5t73 29.5q29 0 75 -18q44 -19 59 -19q47 0 51 45z" />
    <glyph glyph-name="dieresis.cap" horiz-adv-x="278" 
d="M98 911v-104h-94v104h94zM274 911v-104h-94v104h94z" />
    <glyph glyph-name="macron.cap" horiz-adv-x="278" 
d="M1 881h276v-56h-276v56z" />
    <glyph glyph-name="breve.cap" horiz-adv-x="278" 
d="M-15 939h49q7 -40 35 -59.5t70 -19.5q88 0 105 79h49q-8 -64 -47 -99.5t-104 -35.5q-149 0 -157 135z" />
    <glyph glyph-name="ring.cap" horiz-adv-x="278" 
d="M139 787q-42 0 -71.5 29.5t-29.5 71.5t29.5 71.5t71.5 29.5t71.5 -29.5t29.5 -71.5t-29.5 -71.5t-71.5 -29.5zM199 888q0 25 -18 42.5t-42 17.5q-25 0 -42.5 -17.5t-17.5 -42.5q0 -24 17.5 -42t42.5 -18q24 0 42 18t18 42z" />
    <glyph glyph-name="hungarumlaut.cap" horiz-adv-x="444" 
d="M129 939h109l-131 -141h-67zM312 939h109l-131 -141h-67z" />
    <glyph glyph-name="dotaccent.cap" horiz-adv-x="278" 
d="M186 911v-104h-94v104h94z" />
    <glyph glyph-name="commaaccent" horiz-adv-x="222" 
d="M169 -50l-74 -141h-54l33 141h95z" />
    <glyph glyph-name="commaaccent.alt" horiz-adv-x="222" 
d="M33 581l74 141h54l-33 -141h-95z" />
    </font>
</defs>
</svg>
