<?xml version="1.0" standalone="no"?>
<!DOCTYPE svg PUBLIC "-//W3C//DTD SVG 1.1//EN" "http://www.w3.org/Graphics/SVG/1.1/DTD/svg11.dtd" >
<svg>
<metadata>
Created by FontForge 20090622 at Tue Dec  6 10:34:21 2016
 By deploy user
Copyright &#194;&#169; 2009 Linotype Corp., www.linotype.com. All rights reserved. This font software may not be reproduced, modified, disclosed or transferred without the express written approval of Linotype Corp. Univers is a trademark of Linotype Corp. registered in the U.S. Patent and Trademark Office and may be registered in certain other jurisdictions in the name of Linotype Corp. or its licensee Linotype GmbH. This typeface is original artwork of Adrian Frutiger. The design may be protected in certain jurisdictions. 
</metadata>
<defs>
<font id="UniversLTCYR-47LightCondObl" horiz-adv-x="444" >
  <font-face 
    font-family="Univers LT CYR 47 Lt Cn"
    font-weight="300"
    font-style="italic"
    font-stretch="condensed"
    units-per-em="1000"
    panose-1="2 11 3 6 2 2 2 9 2 4"
    ascent="800"
    descent="-200"
    x-height="505"
    cap-height="722"
    bbox="-169 -221 1063 1031"
    underline-thickness="50"
    underline-position="-50"
    slope="-12"
    unicode-range="U+000D-U+FB04"
  />
<missing-glyph horiz-adv-x="485" 
d="M263 111h-53v63h53v-63zM257 222h-46v16q0 50 11 75.5t46 55.5q28 27 37 44t9 36q0 33 -21 56.5t-51 23.5q-67 0 -77 -90q-8 1 -24 3.5t-24 4.5q7 66 41 98t87 32q52 0 85 -34t33 -90q0 -32 -12.5 -56.5t-47.5 -56.5t-40.5 -47.5t-5.5 -70.5zM47 47h391v585h-391v-585z
M0 680h485v-680h-485v680z" />
    <glyph glyph-name="IJ" unicode="IJ" horiz-adv-x="635" 
d="M296 722l-153 -722h-64l153 722h64zM714 722l-111 -523q-24 -113 -70 -162.5t-140 -49.5q-147 0 -147 135q0 34 10 82h63q-10 -52 -10 -78q0 -85 88 -85q30 0 54 11.5t38 27t25.5 43t17 47.5t12.5 52l106 500h64z" />
    <glyph glyph-name="ij" unicode="ij" horiz-adv-x="407" 
d="M300 722l-16 -76h-72l16 76h72zM247 505l-107 -505h-59l107 505h59zM488 722l-16 -76h-74l16 76h74zM437 505l-121 -571q-15 -70 -43.5 -100t-95.5 -30q-16 0 -31 3l11 52q7 -1 21 -1q38 0 54 16.5t24 55.5l122 575h59z" />
    <glyph glyph-name="napostrophe" unicode="&#x22;n" 
d="M465 399q0 -23 -6 -49l-74 -350h-60l74 347q4 19 4 40q0 73 -69 73q-55 0 -94.5 -45.5t-56.5 -127.5l-61 -287h-59l107 505h55l-15 -70q57 76 135 76q61 0 90.5 -30t29.5 -82zM114 585l59 137h73l-79 -137h-53z" />
    <glyph glyph-name="f_f" unicode="ff" horiz-adv-x="486" 
d="M614 674q-4 0 -11 0.5t-10 0.5q-48 0 -69.5 -20t-31.5 -70l-17 -80h102l-10 -48h-102l-97 -457h-60l97 457h-148l-97 -457h-60l97 457h-81l10 48h81l19 91q28 131 161 131q8 0 30 -2l-11 -51q-4 0 -11 0.5t-10 0.5q-48 0 -69.5 -20t-31.5 -70l-17 -80h148l19 91
q28 131 161 131q8 0 30 -2z" />
    <glyph glyph-name="fi" unicode="fi" 
d="M369 0h-60l107 505h60zM513 646h-74l16 76h74zM100 0l97 457h-81l10 48h81l18 85q6 25 13 43t23.5 42t47.5 37.5t74 13.5q5 0 33 -4l-10 -50h-45q-20 0 -34.5 -8t-22.5 -22.5t-11.5 -24.5t-6.5 -26l-19 -86h102l-10 -48h-102l-97 -457h-60z" />
    <glyph glyph-name="fl" unicode="fl" 
d="M100 0l97 457h-81l10 48h81l18 85q6 25 13 43t23.5 42t47.5 37.5t74 13.5q5 0 33 -4l-10 -50h-45q-20 0 -34.5 -8t-22.5 -22.5t-11.5 -24.5t-6.5 -26l-19 -86h102l-10 -48h-102l-97 -457h-60zM368 0h-60l153 722h60z" />
    <glyph glyph-name="f_f_i" unicode="ffi" horiz-adv-x="652" 
d="M614 674q-4 0 -11 0.5t-10 0.5q-48 0 -69.5 -20t-31.5 -70l-17 -80h102l-10 -48h-102l-97 -457h-60l97 457h-148l-97 -457h-60l97 457h-81l10 48h81l19 91q28 131 161 131q8 0 30 -2l-11 -51q-4 0 -11 0.5t-10 0.5q-48 0 -69.5 -20t-31.5 -70l-17 -80h148l19 91
q28 131 161 131q8 0 30 -2zM577 0h-60l107 505h60zM721 646h-74l16 76h74z" />
    <glyph glyph-name="f_f_l" unicode="ffl" horiz-adv-x="652" 
d="M614 674q-4 0 -11 0.5t-10 0.5q-48 0 -69.5 -20t-31.5 -70l-17 -80h102l-10 -48h-102l-97 -457h-60l97 457h-148l-97 -457h-60l97 457h-81l10 48h81l19 91q28 131 161 131q8 0 30 -2l-11 -51q-4 0 -11 0.5t-10 0.5q-48 0 -69.5 -20t-31.5 -70l-17 -80h148l19 91
q28 131 161 131q8 0 30 -2zM576 0h-60l153 722h60z" />
    <glyph glyph-name=".notdef" horiz-adv-x="485" 
d="M263 111h-53v63h53v-63zM257 222h-46v16q0 50 11 75.5t46 55.5q28 27 37 44t9 36q0 33 -21 56.5t-51 23.5q-67 0 -77 -90q-8 1 -24 3.5t-24 4.5q7 66 41 98t87 32q52 0 85 -34t33 -90q0 -32 -12.5 -56.5t-47.5 -56.5t-40.5 -47.5t-5.5 -70.5zM47 47h391v585h-391v-585z
M0 680h485v-680h-485v680z" />
    <glyph glyph-name=".null" horiz-adv-x="500" 
 />
    <glyph glyph-name="nonmarkingreturn" horiz-adv-x="333" 
 />
    <glyph glyph-name="CR" unicode="&#xd;" horiz-adv-x="0" 
 />
    <glyph glyph-name="space" unicode=" " horiz-adv-x="222" 
 />
    <glyph glyph-name="exclam" unicode="!" horiz-adv-x="333" 
d="M352 722l-127 -552h-54l112 552h69zM216 79l-17 -79h-73l17 79h73z" />
    <glyph glyph-name="quotedbl" unicode="&#x22;" horiz-adv-x="309" 
d="M387 710l-51 -207h-36l38 207h49zM273 710l-50 -207h-36l37 207h49z" />
    <glyph glyph-name="numbersign" unicode="#" 
d="M533 492l-10 -43h-95l-73 -188h86l-9 -43h-94l-87 -218h-47l86 218h-98l-86 -218h-48l86 218h-86l9 43h94l73 188h-86l10 43h94l87 218h47l-86 -218h98l87 218h48l-87 -218h87zM380 449h-98l-73 -188h98z" />
    <glyph glyph-name="dollar" unicode="$" 
d="M519 556q0 -9 -10 -57h-62q7 30 7 51q0 44 -19 62.5t-61 20.5l-56 -267q58 -40 93 -80.5t35 -94.5q0 -198 -209 -203l-16 -78h-37l17 79q-134 11 -134 131q0 13 10 65h62l-2 -10q-6 -31 -6 -54q0 -39 19.5 -58t61.5 -22l59 281q-121 82 -121 176q0 89 58 135.5t140 49.5
l19 88h37l-19 -89q134 -11 134 -126zM337 632q-57 -5 -89.5 -38t-32.5 -91q0 -65 70 -115zM379 180q0 66 -75 120l-55 -260q130 7 130 140z" />
    <glyph glyph-name="percent" unicode="%" horiz-adv-x="778" 
d="M457 597q0 -57 -16 -111.5t-56.5 -97t-97.5 -42.5q-109 0 -109 114q0 57 16 111.5t57 96.5t99 42q107 0 107 -113zM704 710l-443 -724h-45l442 724h46zM748 241q0 -57 -16.5 -111.5t-57 -97t-98.5 -42.5q-107 0 -107 112q0 57 16 112t57 97.5t99 42.5q107 0 107 -113z
M404 598q0 66 -56 66q-39 0 -67.5 -38t-39 -82.5t-10.5 -84.5q0 -68 57 -68q39 0 67 38.5t38.5 83.5t10.5 85zM695 242q0 66 -56 66q-39 0 -67.5 -38t-39 -82.5t-10.5 -84.5q0 -68 57 -68q39 0 67 38.5t38.5 83.5t10.5 85z" />
    <glyph glyph-name="ampersand" unicode="&#x26;" horiz-adv-x="611" 
d="M622 405q-44 -173 -101 -278l78 -127h-83l-39 72q-84 -85 -200 -85q-76 0 -130.5 41t-54.5 116q0 83 44.5 139.5t138.5 113.5l-27 47t-18.5 45t-9.5 54q0 91 48.5 141.5t142.5 50.5q64 0 97.5 -30t33.5 -84q0 -71 -53 -133q-13 -15 -30.5 -30t-28 -23t-35.5 -25t-33 -22
l127 -206q44 94 71 214l2 9h60zM478 620q0 63 -74 63q-55 0 -87.5 -37t-32.5 -92q0 -12 2.5 -24.5t4.5 -20.5t8.5 -20.5t9.5 -17.5l12.5 -20.5t12.5 -19.5q44 26 80 58q64 57 64 131zM448 122l-144 232q-69 -39 -106.5 -88t-37.5 -119q0 -103 121 -103q105 0 167 78z" />
    <glyph glyph-name="quotesingle" unicode="'" horiz-adv-x="198" 
d="M275 710l-51 -207h-36l38 207h49z" />
    <glyph glyph-name="parenleft" unicode="(" horiz-adv-x="222" 
d="M323 743q-120 -258 -162 -453q-29 -138 -29 -295q0 -77 5 -128h-49q-13 136 -13 223q0 117 19 204q37 180 184 449h45z" />
    <glyph glyph-name="parenright" unicode=")" horiz-adv-x="222" 
d="M271 518q0 -121 -23 -225q-14 -68 -45 -148.5t-57.5 -135.5l-71.5 -143h-49q113 219 155 422q35 163 35 334q0 68 -4 120h45q15 -139 15 -224z" />
    <glyph glyph-name="asterisk" unicode="*" 
d="M507 591l-12 -54l-134 14l55 -115l-52 -27l-30 127l-86 -127l-42 29l105 114l-141 -14l12 53l132 -11l-52 112l51 28l33 -126l85 125l40 -27l-104 -111z" />
    <glyph glyph-name="plus" unicode="+" 
d="M499 229h-199v-199h-49v199h-200v49h200v200h49v-200h199v-49z" />
    <glyph glyph-name="comma" unicode="," horiz-adv-x="222" 
d="M176 79l-100 -183h-51l79 183h72z" />
    <glyph glyph-name="hyphen" unicode="-" horiz-adv-x="278" 
d="M303 295l-12 -57h-202l12 57h202z" />
    <glyph glyph-name="period" unicode="." horiz-adv-x="222" 
d="M166 79l-17 -79h-75l17 79h75z" />
    <glyph glyph-name="slash" unicode="/" horiz-adv-x="333" 
d="M475 729l-412 -741h-53l411 741h54z" />
    <glyph glyph-name="zero" unicode="0" 
d="M509 572q0 -45 -15 -116l-48 -226q-10 -45 -19 -76t-26.5 -65t-40 -54t-57.5 -33.5t-81 -13.5q-145 0 -145 144q0 43 12 98l50 234q12 57 25.5 94.5t38 75.5t64 57t95.5 19q82 0 114.5 -37t32.5 -101zM449 567q0 90 -92 90q-37 0 -65 -17t-45.5 -48.5t-27 -59.5
t-17.5 -67l-45 -210q-18 -87 -18 -118q0 -95 91 -95q30 0 54 12t39.5 29t27.5 43.5t19 49t13 52.5l49 230q17 83 17 109z" />
    <glyph glyph-name="one" unicode="1" 
d="M421 697l-148 -697h-62l131 617q-62 -51 -143 -98l15 69q91 51 149 109h58z" />
    <glyph glyph-name="two" unicode="2" 
d="M514 589q0 -52 -27.5 -101t-77.5 -105l-290 -329h286l-11 -54h-355l12 56l324 373q73 84 73 154q0 71 -92 71q-60 0 -96.5 -33t-44.5 -94h-63q13 87 64.5 134t138.5 47q68 0 113.5 -30.5t45.5 -88.5z" />
    <glyph glyph-name="three" unicode="3" 
d="M506 578q0 -76 -40.5 -139.5t-110.5 -77.5q86 -12 86 -111q0 -109 -55.5 -185t-161.5 -76q-160 0 -160 128q0 25 6 54h64q-6 -30 -6 -45q0 -40 25.5 -61.5t72.5 -21.5q75 0 112.5 60.5t37.5 140.5q0 53 -24.5 72t-82.5 19q-9 0 -27 -2l11 55q6 0 12 -0.5t7 -0.5
q71 0 109 34q28 24 45.5 67t17.5 82q0 41 -23 63t-67 22q-113 0 -136 -128h-62q19 89 65.5 135t131.5 46q75 0 114 -34t39 -96z" />
    <glyph glyph-name="four" unicode="4" 
d="M484 697l-100 -469h83l-11 -54h-83l-37 -174h-59l37 174h-250l15 70l311 453h94zM412 635l-283 -407h196z" />
    <glyph glyph-name="five" unicode="5" 
d="M529 697l-12 -55h-255l-59 -248q31 26 57 37t64 11q143 0 143 -131q0 -40 -11 -89q-11 -54 -26 -92t-40 -72t-65 -51.5t-94 -17.5q-72 0 -111 32.5t-39 91.5q0 12 7 54h64q-6 -30 -6 -47q0 -77 91 -77q63 0 98 42t56 142q11 50 11 79q0 86 -90 86q-42 0 -77.5 -20.5
t-48.5 -52.5h-60l88 378h315z" />
    <glyph glyph-name="six" unicode="6" 
d="M510 585q0 -24 -4 -45h-63q4 36 4 39q0 79 -80 79q-64 0 -104 -45q-40 -46 -71 -197l-11 -54q34 41 66 58.5t78 17.5q131 0 131 -131q0 -38 -10 -86q-12 -56 -25 -92.5t-37 -70.5t-62.5 -50.5t-92.5 -16.5q-150 0 -150 140q0 36 10 86l51 238q12 58 26 97t39.5 77.5
t67.5 58t101 19.5q63 0 99.5 -30t36.5 -92zM381 221q7 34 9 57t-1.5 50.5t-24 42t-56.5 14.5q-54 0 -94 -37q-20 -19 -34.5 -46.5t-19 -45.5t-12.5 -53q-8 -45 -8 -81t22.5 -58t69.5 -22q30 0 53.5 11t38 27.5t26.5 42.5t18.5 47t12.5 51z" />
    <glyph glyph-name="seven" unicode="7" 
d="M533 697l-12 -59l-352 -638h-66l357 642h-292l12 55h353z" />
    <glyph glyph-name="eight" unicode="8" 
d="M517 584q0 -79 -37 -140.5t-109 -77.5q82 -17 82 -104q0 -25 -9 -70q-22 -102 -71 -153.5t-146 -51.5q-156 0 -156 135q0 27 8 64q17 84 50.5 125.5t93.5 53.5q-72 24 -72 104q0 105 54 172t158 67q154 0 154 -124zM450 580q0 39 -20.5 59t-68.5 20q-72 0 -109.5 -55.5
t-37.5 -130.5q0 -86 89 -86q72 0 109.5 58.5t37.5 134.5zM387 253q0 85 -92 85q-70 0 -104 -40t-50 -114q-6 -28 -6 -54q0 -93 93 -93q69 0 102.5 41.5t49.5 115.5q7 29 7 59z" />
    <glyph glyph-name="nine" unicode="9" 
d="M511 582q0 -32 -10 -82l-52 -248l-12 -54t-12.5 -48.5t-16.5 -46.5t-20.5 -38t-27.5 -33.5t-35.5 -23.5t-46.5 -16.5t-58 -4.5q-144 0 -144 122q0 23 4 46h64l-2 -8q-4 -16 -4 -34q0 -71 85 -71q25 0 45.5 7t35 15t27 26.5t19.5 30t15 39t10.5 38.5t8.5 43t8 40
q6 27 11 57q-39 -62 -132 -62q-136 0 -136 140q0 39 10 84q21 99 70.5 154.5t142.5 55.5q83 0 118 -32.5t35 -95.5zM447 575q0 81 -91 81q-68 0 -99.5 -44t-48.5 -121q-9 -43 -9 -74q0 -88 81 -88q38 0 71.5 18t50.5 47q17 30 38 125q7 35 7 56z" />
    <glyph glyph-name="colon" unicode=":" horiz-adv-x="222" 
d="M255 505l-16 -79h-74l16 79h74zM165 79l-17 -79h-74l17 79h74z" />
    <glyph glyph-name="semicolon" unicode=";" horiz-adv-x="222" 
d="M260 505l-16 -79h-74l16 79h74zM175 79l-99 -183h-53l79 183h73z" />
    <glyph glyph-name="less" unicode="&#x3c;" 
d="M460 48l-418 178v48l418 180v-48l-363 -156l363 -154v-48z" />
    <glyph glyph-name="equal" unicode="=" 
d="M473 316h-403v49h403v-49zM473 148h-403v49h403v-49z" />
    <glyph glyph-name="greater" unicode="&#x3e;" 
d="M501 226l-418 -178v48l363 154l-363 156v48l418 -180v-48z" />
    <glyph glyph-name="question" unicode="?" horiz-adv-x="389" 
d="M447 631q0 -31 -7 -62q-11 -51 -24.5 -81t-45.5 -68q-8 -10 -28 -32t-35.5 -41t-23.5 -34q-17 -29 -33 -106l-8 -37h-57l9 41q16 68 26 97q19 49 83 116q35 37 48.5 66.5t25.5 83.5q8 36 8 54q0 55 -61 55q-46 0 -71 -33t-29 -81h-63q10 80 49 122.5t116 42.5
q121 0 121 -103zM232 79l-17 -79h-73l17 79h73z" />
    <glyph glyph-name="at" unicode="@" horiz-adv-x="889" 
d="M462 -131q-171 0 -274.5 102.5t-103.5 273.5q0 221 139.5 358t351.5 137q150 0 255 -89.5t105 -233.5q0 -54 -19 -111t-53 -106.5t-89 -81.5t-120 -32q-33 0 -57.5 19.5t-24.5 52.5q0 4 2 16q-49 -89 -143 -89q-53 0 -81 28t-28 74q0 48 27 143q27 91 76 141.5t118 50.5
q70 0 98 -57l17 51h63l-95 -294q-8 -22 -8 -40q0 -48 53 -48q58 0 108.5 47t77.5 112t27 125q0 124 -90.5 198.5t-224.5 74.5q-193 0 -313.5 -124.5t-120.5 -319.5q0 -151 90 -240.5t244 -89.5q94 0 174 27t169 84l24 -36q-186 -123 -374 -123zM439 130q33 0 59 16t44 48
t28 57t23 67q19 66 19 92q0 64 -64 64q-30 0 -53.5 -15t-38.5 -41.5t-24 -50t-18 -53.5q-2 -7 -3 -11q-25 -81 -25 -117q0 -56 53 -56z" />
    <glyph glyph-name="A" unicode="A" horiz-adv-x="556" 
d="M542 0h-62l-18 190h-283l-97 -190h-69l381 722h76zM457 244l-37 408l-210 -408h247z" />
    <glyph glyph-name="B" unicode="B" horiz-adv-x="500" 
d="M560 595q0 -25 -6 -55q-15 -72 -46 -109t-95 -55q47 -13 68.5 -40.5t21.5 -72.5q0 -23 -9 -68q-23 -105 -75 -150t-155 -45h-198l153 722h176q92 0 128.5 -30.5t36.5 -96.5zM494 588q0 80 -82 80h-140l-57 -270h118q64 0 101.5 35t53.5 109q6 26 6 46zM435 250
q0 94 -106 94h-126l-62 -290h107q81 0 122 29t59 114q6 30 6 53z" />
    <glyph glyph-name="C" unicode="C" horiz-adv-x="500" 
d="M575 600q0 -25 -10 -73h-66q12 60 12 74q0 41 -23 61t-76 20q-40 0 -72.5 -17t-51.5 -39.5t-35 -61t-23 -65.5t-16 -70l-42 -197q-8 -36 -8 -71q0 -120 111 -120q71 0 104.5 42.5t55.5 123.5h68q-16 -102 -73.5 -161.5t-159.5 -59.5q-169 0 -169 173q0 49 18 137
q30 142 54 227q30 107 88.5 160t151.5 53q162 0 162 -136z" />
    <glyph glyph-name="D" unicode="D" horiz-adv-x="556" 
d="M598 541q0 -44 -13 -106l-14 -70q-30 -151 -57 -210q-59 -129 -194 -150q-30 -5 -63 -5h-182l153 722h161q109 0 159 -43t50 -138zM532 549q0 62 -37.5 90.5t-124.5 28.5h-89l-131 -614h81q31 0 56 2.5t46.5 10t38 14.5t31.5 23.5l25 28t20.5 37.5t17 43.5t15.5 53.5
t14 60l15 70q22 101 22 152z" />
    <glyph glyph-name="E" unicode="E" 
d="M555 722l-11 -54h-263l-57 -270h251l-12 -54h-251l-62 -290h270l-11 -54h-334l153 722h327z" />
    <glyph glyph-name="F" unicode="F" horiz-adv-x="389" 
d="M526 722l-11 -54h-241l-57 -270h224l-12 -54h-224l-73 -344h-65l153 722h306z" />
    <glyph glyph-name="G" unicode="G" horiz-adv-x="556" 
d="M606 597q0 -29 -7 -60h-65q6 27 6 50q0 96 -105 96q-92 0 -141 -58.5t-72 -171.5l-25 -120q-24 -116 -24 -162q0 -133 130 -133q69 0 125 23l56 264h-147l11 52h210l-77 -361q-98 -31 -180 -31q-108 0 -151.5 47t-43.5 131q0 65 30 201l14 65q12 56 23 94.5t33 82.5
t50 70t73 43.5t103 17.5q174 0 174 -140z" />
    <glyph glyph-name="H" unicode="H" horiz-adv-x="556" 
d="M637 722l-153 -722h-64l73 344h-284l-73 -344h-64l153 722h64l-68 -324h284l68 324h64z" />
    <glyph glyph-name="I" unicode="I" horiz-adv-x="222" 
d="M296 722l-153 -722h-64l153 722h64z" />
    <glyph glyph-name="J" unicode="J" 
d="M523 722l-111 -523q-24 -113 -70 -162.5t-140 -49.5q-147 0 -147 135q0 34 10 82h63q-10 -52 -10 -78q0 -85 88 -85q30 0 54 11.5t38 27t25.5 43t17 47.5t12.5 52l106 500h64z" />
    <glyph glyph-name="K" unicode="K" horiz-adv-x="500" 
d="M630 722l-342 -347l197 -375h-76l-189 370l-79 -370h-64l153 722h64l-70 -331l321 331h85z" />
    <glyph glyph-name="L" unicode="L" horiz-adv-x="389" 
d="M381 54l-11 -54h-303l153 722h64l-142 -668h239z" />
    <glyph glyph-name="M" unicode="M" horiz-adv-x="778" 
d="M852 722l-153 -722h-61l140 659l-354 -659h-74l-77 659l-140 -659h-61l153 722h101l75 -649l345 649h106z" />
    <glyph glyph-name="N" unicode="N" horiz-adv-x="611" 
d="M688 722l-153 -722h-95l-163 650l-138 -650h-63l153 722h94l164 -650l138 650h63z" />
    <glyph glyph-name="O" unicode="O" horiz-adv-x="556" 
d="M593 457l-31 -147q-16 -76 -35 -129t-51 -100.5t-80.5 -71t-115.5 -23.5q-112 0 -151.5 72.5t-12.5 201.5l52 245q22 102 88.5 168.5t167.5 66.5q62 0 103 -23t57.5 -61.5t19.5 -90t-11 -108.5zM526 448q11 52 13.5 89.5t-5 73.5t-35.5 55t-76 19q-40 0 -71.5 -14
t-52 -35.5t-37 -54t-25 -61.5t-16.5 -66l-38 -182q-27 -119 -3.5 -175.5t106.5 -56.5q118 0 171 130q21 50 50 188z" />
    <glyph glyph-name="P" unicode="P" 
d="M543 599q0 -29 -7 -63q-25 -118 -78 -159t-150 -41h-110l-71 -336h-63l153 722h178q148 0 148 -123zM476 596q0 21 -7.5 35.5t-17 21.5t-29 10.5t-30.5 4t-36 0.5h-12h-75l-59 -278h73q24 0 34.5 0.5t31.5 3t31.5 7.5t27 15.5t26 26t19.5 39t16 54.5q7 34 7 60z" />
    <glyph glyph-name="Q" unicode="Q" horiz-adv-x="556" 
d="M604 554q0 -25 -4 -55.5t-7.5 -48.5t-12 -57t-10.5 -49q-11 -55 -18 -81.5t-23 -72t-40.5 -78t-59.5 -58.5h127l-11 -54h-138l-14 -1q-99 -6 -112 -6q-175 0 -175 177q0 42 11 97l51 238q22 102 88.5 168.5t167.5 66.5q94 0 137 -50t43 -136zM541 560q0 125 -118 125
q-40 0 -71.5 -14t-52 -35.5t-37 -54t-25 -61.5t-16.5 -66l-37 -175q-14 -68 -14 -112q0 -61 28 -90.5t89 -29.5q117 0 170 127q21 50 51 191l8.5 36.5t9.5 41.5t7 37t6 42t2 38z" />
    <glyph glyph-name="R" unicode="R" horiz-adv-x="500" 
d="M566 604q0 -28 -7 -60q-17 -82 -49.5 -117.5t-100.5 -50.5q81 -10 81 -85q0 -17 -5 -40l-31 -166l-11 -85h-65q6 58 8 68l5 32l26 134q6 32 6 53q0 36 -25.5 49.5t-95.5 13.5h-96l-74 -350h-64l153 722h164q94 0 137.5 -27t43.5 -91zM500 593q0 46 -32 60.5t-102 14.5
h-92l-56 -264h82q45 0 72.5 4.5t54 19t42.5 45t27 80.5q4 20 4 40z" />
    <glyph glyph-name="S" unicode="S" horiz-adv-x="500" 
d="M565 599q0 -21 -8 -63h-65q7 37 7 58q0 42 -23.5 63t-78.5 21q-73 0 -113 -38t-40 -106q0 -63 85 -122l30.5 -20.5t33 -23l28.5 -22.5t28.5 -27.5t20 -28.5t16 -35t4.5 -39q0 -108 -59 -168t-171 -60q-172 0 -172 145q0 27 9 67h66q-9 -39 -9 -68q0 -45 25.5 -67.5
t84.5 -22.5q76 0 116 46.5t40 123.5q0 31 -18.5 55t-66.5 55q-79 53 -102 74q-56 55 -56 132q0 98 59.5 151.5t163.5 53.5q81 0 123 -39t42 -95z" />
    <glyph glyph-name="T" unicode="T" 
d="M582 722l-11 -54h-175l-142 -668h-64l142 668h-175l11 54h414z" />
    <glyph glyph-name="U" unicode="U" horiz-adv-x="556" 
d="M640 722l-98 -465q-13 -59 -28.5 -101t-43.5 -84t-75 -64t-111 -22q-89 0 -133 45t-44 124q0 35 9 76l104 491h64l-108 -510q-6 -30 -6 -54q0 -57 30.5 -87.5t87.5 -30.5q144 0 186 201l102 481h64z" />
    <glyph glyph-name="V" unicode="V" horiz-adv-x="500" 
d="M644 722l-354 -722h-79l-48 722h64l35 -647l316 647h66z" />
    <glyph glyph-name="W" unicode="W" horiz-adv-x="833" 
d="M976 722l-332 -722h-82l-10 642l-286 -642h-82l-21 722h65l12 -637l283 637h87l11 -633l289 633h66z" />
    <glyph glyph-name="X" unicode="X" horiz-adv-x="500" 
d="M627 722l-262 -356l121 -366h-70l-99 330l-235 -330h-72l275 379l-103 343h66l89 -301l218 301h72z" />
    <glyph glyph-name="Y" unicode="Y" horiz-adv-x="500" 
d="M641 722l-297 -432l-62 -290h-64l62 290l-113 432h68l89 -359l249 359h68z" />
    <glyph glyph-name="Z" unicode="Z" 
d="M569 722l-14 -66l-450 -602h325l-11 -54h-396l12 58l457 610h-308l11 54h374z" />
    <glyph glyph-name="bracketleft" unicode="[" horiz-adv-x="222" 
d="M346 743l-9 -44h-84l-168 -787h84l-9 -44h-139l186 875h139z" />
    <glyph glyph-name="backslash" unicode="\" horiz-adv-x="222" 
d="M261 -12h-53l-96 741h54z" />
    <glyph glyph-name="bracketright" unicode="]" horiz-adv-x="222" 
d="M322 743l-186 -875h-139l9 44h84l168 787h-84l9 44h139z" />
    <glyph glyph-name="asciicircum" unicode="^" 
d="M503 297h-50l-141 358l-139 -358h-51l167 413h48z" />
    <glyph glyph-name="underscore" unicode="_" horiz-adv-x="500" 
d="M500 -125h-500v50h500v-50z" />
    <glyph glyph-name="grave" unicode="`" horiz-adv-x="278" 
d="M320 558h-46l-113 139h73z" />
    <glyph glyph-name="a" unicode="a" 
d="M464 410q0 -20 -4 -39l-56 -263l-12 -64l-6 -44h-60l13 68q-64 -75 -150 -75q-57 0 -90.5 30t-33.5 82q0 54 21 92.5t50.5 59t77 32t83.5 14.5t88 4l13 62q4 16 4 32q0 66 -83 66q-47 0 -78 -21.5t-39 -61.5l-1 -2h-65q11 68 62 100.5t126 32.5q140 0 140 -105zM376 260
q-9 1 -20 1q-45 0 -79.5 -5t-70.5 -19.5t-56 -45.5t-20 -78q0 -35 19 -54t54 -19q56 0 101 43t58 106q8 39 14 71z" />
    <glyph glyph-name="b" unicode="b" 
d="M470 381q0 -50 -18 -131q-10 -45 -18 -75t-24.5 -68.5t-36.5 -61t-52.5 -39t-73.5 -16.5q-93 0 -123 75l-15 -65h-57l12 49l13 48l132 625h60l-58 -276q46 68 131 68q128 0 128 -133zM408 383q0 41 -18 60.5t-62 19.5q-31 0 -56.5 -14t-41.5 -33.5t-29 -51.5t-20 -57
t-15 -61q-13 -63 -13 -103q0 -105 79 -105q31 0 56 14.5t40.5 34.5t28.5 53t19 57t14 60q18 83 18 126z" />
    <glyph glyph-name="c" unicode="c" horiz-adv-x="389" 
d="M432 407q0 -22 -6 -49h-60q5 25 5 43q0 64 -66 64q-64 0 -93 -50t-54 -171q-19 -92 -19 -128q0 -41 17 -60.5t57 -19.5q85 0 108 111h60q-16 -79 -55 -120t-113 -41q-137 0 -137 140q0 39 10 82l15 68q11 49 18 74t23 61.5t35 54.5t52.5 32t77.5 14q125 0 125 -105z" />
    <glyph glyph-name="d" unicode="d" 
d="M536 722l-120 -567l-22 -113l-7 -42h-58l12 67q-62 -76 -136 -76q-124 0 -124 145q0 54 15 124q9 40 17.5 69.5t25.5 66.5t38 60t54.5 39.5t74.5 16.5q76 0 110 -66l58 276h62zM394 360q0 102 -88 102q-30 0 -54 -13t-38 -31.5t-25.5 -47.5t-17 -50.5t-11.5 -51.5l-3 -15
q-17 -79 -17 -121q0 -93 77 -93q28 0 51 9t39.5 28.5t27.5 37t20.5 50t14.5 51t12 54.5q12 55 12 91z" />
    <glyph glyph-name="e" unicode="e" 
d="M470 381q0 -35 -10 -83l-12 -56h-286l-7 -33q-10 -45 -10 -79q0 -93 90 -93q54 0 87.5 31.5t45.5 84.5h62q-37 -165 -196 -165q-81 0 -115 37.5t-34 106.5q0 54 16 128q10 47 20 80t28 68.5t40.5 57t57.5 35.5t79 14q144 0 144 -134zM410 380q0 88 -87 88
q-63 0 -96.5 -41t-48.5 -112l-6 -27h225q13 56 13 92z" />
    <glyph glyph-name="f" unicode="f" horiz-adv-x="278" 
d="M417 725l-11 -51q-4 0 -11 0.5t-10 0.5q-48 0 -69 -20t-32 -70l-17 -80h102l-10 -48h-102l-97 -457h-60l97 457h-81l10 48h81l20 91q28 131 161 131q7 0 29 -2z" />
    <glyph glyph-name="g" unicode="g" 
d="M491 505l-23 -98l-92 -431q-19 -90 -63.5 -133t-134.5 -43q-63 0 -100.5 28.5t-37.5 80.5q0 19 4 35h61q-3 -15 -3 -29q0 -69 77 -69q67 0 93 31.5t43 104.5q10 42 11 44q6 36 6 41q-47 -62 -122 -62q-68 0 -100 36.5t-32 97.5q0 32 7 63l21 100q22 104 68 158t133 54
q90 0 111 -73l15 64h58zM393 364q0 101 -84 101q-31 0 -56 -15t-39.5 -34t-27 -52t-17 -53l-11.5 -53q-1 -7 -2 -10q-16 -73 -16 -107q0 -89 79 -89q29 0 52 10t40 32.5t28 41t20.5 52t13 48.5l10.5 47q10 45 10 81z" />
    <glyph glyph-name="h" unicode="h" 
d="M460 397q0 -23 -7 -56l-72 -341h-59l67 313q11 55 11 79q0 69 -69 69q-53 0 -92.5 -43t-55.5 -121l-63 -297h-60l153 722h60l-59 -279q20 32 54.5 51t73.5 19q61 0 89.5 -31.5t28.5 -84.5z" />
    <glyph glyph-name="i" unicode="i" horiz-adv-x="222" 
d="M300 722l-16 -76h-72l16 76h72zM247 505l-107 -505h-59l107 505h59z" />
    <glyph glyph-name="j" unicode="j" horiz-adv-x="222" 
d="M303 722l-16 -76h-74l16 76h74zM252 505l-121 -571q-15 -70 -43.5 -100t-95.5 -30q-16 0 -31 3l11 52q7 -1 21 -1q38 0 54 16.5t24 55.5l122 575h59z" />
    <glyph glyph-name="k" unicode="k" horiz-adv-x="389" 
d="M476 505l-229 -231l134 -274h-69l-131 275l-58 -275h-59l153 722h59l-93 -440l218 223h75z" />
    <glyph glyph-name="l" unicode="l" horiz-adv-x="222" 
d="M293 722l-153 -722h-59l153 722h59z" />
    <glyph glyph-name="m" unicode="m" horiz-adv-x="667" 
d="M689 403q0 -23 -4 -42l-77 -361h-63l77 361q4 19 4 39q0 61 -59 61q-46 0 -82.5 -38t-49.5 -98l-69 -325h-62l75 354q6 26 6 48q0 59 -61 59q-50 0 -83 -36.5t-44 -87.5l-72 -337h-62l107 505h54l-14 -69q47 77 126 77q92 0 101 -77q57 76 140 76q57 0 84.5 -30t27.5 -79
z" />
    <glyph glyph-name="n" unicode="n" 
d="M465 399q0 -23 -6 -49l-74 -350h-60l74 347q4 19 4 40q0 73 -69 73q-55 0 -94.5 -45.5t-56.5 -127.5l-61 -287h-59l107 505h55l-15 -70q57 76 135 76q61 0 90.5 -30t29.5 -82z" />
    <glyph glyph-name="o" unicode="o" 
d="M471 384q0 -38 -11 -87l-21 -100q-23 -109 -68.5 -159.5t-145.5 -50.5q-144 0 -144 136q0 36 9 78l21 100q23 108 69 161t146 53q78 0 111.5 -34t33.5 -97zM410 378q0 89 -85 89q-38 0 -66.5 -15t-45.5 -44t-27 -57.5t-18 -68.5l-13 -63q-14 -64 -14 -94q0 -91 92 -91
q23 0 42 7t32.5 16t25.5 27t18.5 31t14 37.5t10.5 36.5t8 37l15 70q11 53 11 82z" />
    <glyph glyph-name="p" unicode="p" 
d="M473 380q0 -47 -17 -128l-14 -61t-17 -58t-26 -58t-35 -43.5t-50.5 -33t-66.5 -10.5q-85 0 -116 70l-53 -250h-60l148 697h58l-14 -66q50 74 135 74q128 0 128 -133zM412 382q0 82 -77 82q-37 0 -66 -19t-48.5 -54.5t-31.5 -71t-22 -82.5q-11 -51 -11 -93q0 -107 87 -107
q30 0 54 14t37.5 31.5t26 52t17.5 54.5t13 60q21 103 21 133z" />
    <glyph glyph-name="q" unicode="q" 
d="M493 505q-20 -72 -37 -155l-115 -542h-62l54 251q-20 -31 -54.5 -48.5t-72.5 -17.5q-126 0 -126 138q0 55 18 136q13 61 26 100t35.5 75.5t58.5 54t87 17.5q81 0 114 -76l14 67h60zM393 362q0 103 -85 103q-31 0 -56 -15.5t-39.5 -35t-27.5 -55t-18 -56.5t-13 -59
q-17 -81 -17 -115q0 -86 78 -86q34 0 60.5 14t43 35.5t28.5 51t19 57t13 55.5q2 11 3 16q11 51 11 90z" />
    <glyph glyph-name="r" unicode="r" horiz-adv-x="278" 
d="M375 512l-13 -58q-2 0 -7 0.5t-8 0.5q-57 0 -97.5 -34.5t-53.5 -95.5l-69 -325h-60l90 422l15 83h57l-15 -73q63 80 150 80h11z" />
    <glyph glyph-name="s" unicode="s" horiz-adv-x="389" 
d="M425 414q0 -22 -6 -47h-59q5 20 5 38q0 60 -69 60q-42 0 -70 -26.5t-28 -68.5q0 -11 4.5 -21t9 -16.5t15.5 -15.5t16.5 -12.5t19.5 -11.5t17 -10q47 -28 71.5 -56t25.5 -70q2 -80 -42.5 -125t-125.5 -45q-139 0 -139 107q0 24 5 54h61q-5 -32 -5 -49q0 -35 17.5 -50.5
t55.5 -15.5q48 0 78 30.5t30 78.5q0 47 -63 83q-53 31 -83 63.5t-30 79.5q0 69 45.5 107t117.5 38q126 0 126 -99z" />
    <glyph glyph-name="t" unicode="t" horiz-adv-x="278" 
d="M366 505l-10 -48h-102l-72 -339q-4 -17 -4 -34q0 -19 11.5 -27t39.5 -8q21 0 41 4l-11 -53q-19 -3 -54 -3q-44 0 -67 19.5t-23 53.5q0 12 3 24l77 363h-82l10 48h82l22 104l65 26l-28 -130h102z" />
    <glyph glyph-name="u" unicode="u" 
d="M486 505l-92 -434q-3 -14 -7.5 -39t-5.5 -32h-59l12 56q-47 -66 -130 -66q-57 0 -85 31t-28 84q0 25 6 50l74 350h60l-76 -361q-4 -16 -4 -33q0 -70 69 -70q48 0 84.5 35.5t49.5 94.5l71 334h61z" />
    <glyph glyph-name="v" unicode="v" horiz-adv-x="389" 
d="M485 505l-256 -505h-69l-43 505h60l31 -431l214 431h63z" />
    <glyph glyph-name="w" unicode="w" horiz-adv-x="667" 
d="M764 505l-246 -505h-75l-21 429l-198 -429h-75l-32 505h60l22 -436l200 436h74l21 -436l206 436h64z" />
    <glyph glyph-name="x" unicode="x" horiz-adv-x="389" 
d="M471 505l-180 -238l87 -267h-66l-66 219l-162 -219h-73l207 274l-73 231h68l52 -190l136 190h70z" />
    <glyph glyph-name="y" unicode="y" horiz-adv-x="389" 
d="M485 505l-357 -697h-62l102 196l-51 501h61l36 -414l208 414h63z" />
    <glyph glyph-name="z" unicode="z" horiz-adv-x="333" 
d="M406 505l-12 -57l-284 -400h204l-10 -48h-275l10 49l295 408h-196l10 48h258z" />
    <glyph glyph-name="braceleft" unicode="{" horiz-adv-x="351" 
d="M493 740l-7 -32q-65 -4 -105 -36q-22 -17 -36.5 -44.5t-18.5 -42.5t-12 -53l-6 -28q-8 -36 -13 -56.5t-18 -49.5t-28.5 -45t-43 -30.5t-63.5 -19.5q53 -9 74.5 -34t21.5 -67q0 -35 -14 -96l-9 -41q-11 -48 -11 -73q0 -87 110 -94l-6 -32q-149 7 -149 123q0 29 15 100
l10 48q8 40 8 61q0 45 -31.5 64t-84.5 25l7 32q43 0 86.5 20.5t62.5 57.5q13 25 23 72l9 42q11 49 17.5 72.5t27 59.5t52.5 59q49 34 132 38z" />
    <glyph glyph-name="bar" unicode="|" horiz-adv-x="222" 
d="M211 -214h-48v1000h48v-1000z" />
    <glyph glyph-name="braceright" unicode="}" horiz-adv-x="351" 
d="M404 319l-7 -32q-82 -9 -119 -40.5t-53 -109.5l-10 -48q-9 -46 -16.5 -71t-28.5 -60t-54 -56q-49 -32 -129 -36l6 32q90 5 134 66q21 28 37 101l9 41q10 46 18.5 72.5t26 56t47 45.5t72.5 23q-52 8 -73 33.5t-21 68.5q0 29 14 99l6 28q12 54 12 80q0 91 -110 96l7 32
q70 -3 109 -31.5t39 -94.5q0 -30 -15 -103l-9 -42q-9 -43 -9 -65q0 -41 36.5 -63t80.5 -22z" />
    <glyph glyph-name="asciitilde" unicode="~" 
d="M481 307q-7 -53 -30 -88.5t-64 -35.5q-14 0 -37 6.5t-39 13l-43.5 18.5t-33.5 14q-51 22 -73 22q-47 0 -58 -83h-38q18 126 94 126q29 0 81 -22l82 -34q45 -18 64 -18q26 0 38.5 21t19.5 60h37z" />
    <glyph glyph-name="uni00A0" unicode="&#xa0;" horiz-adv-x="222" 
 />
    <glyph glyph-name="exclamdown" unicode="&#xa1;" horiz-adv-x="333" 
d="M222 439l16 76h74l-16 -76h-74zM214 345h52l-105 -536h-70z" />
    <glyph glyph-name="cent" unicode="&#xa2;" 
d="M380 538l52 118h37l-56 -129q62 -30 62 -110q0 -27 -5 -49l-2 -8h-58l1 6q4 19 4 38q0 41 -29 64l-182 -410q15 -5 35 -5q55 0 89 32t52 116h58l-3 -15q-18 -90 -69.5 -140.5t-124.5 -50.5q-39 0 -66 5l-68 -151h-40l75 161q-29 20 -42 43.5t-13 66.5q0 46 18 133
q28 132 61 189q57 99 177 99q19 0 37 -3zM355 481q-15 3 -25 3q-60 0 -96.5 -44t-61.5 -164q-22 -110 -22 -141q0 -45 21 -62z" />
    <glyph glyph-name="sterling" unicode="&#xa3;" 
d="M530 596q0 -31 -9 -67h-61q8 30 8 57q0 69 -73 69q-16 0 -30 -4t-25 -9t-21 -16t-16.5 -19t-13.5 -24l-10.5 -24.5t-8.5 -28t-6.5 -27t-6 -28t-5.5 -25.5l-11 -52h147l-12 -54h-147l-62 -290h242l-11 -54h-379l11 54h74l62 290h-81l12 54h81l23 109q21 98 63 148.5
t135 50.5q131 0 131 -110z" />
    <glyph glyph-name="currency" unicode="&#xa4;" 
d="M70 156l64 63q-46 52 -46 131q0 72 45 130l-63 64l34 34l63 -63q64 45 131 45q69 0 131 -45l63 63l34 -34l-63 -64q46 -64 46 -131q0 -66 -46 -130l63 -64l-34 -34l-64 64q-67 -46 -130 -46q-72 0 -130 46l-64 -64zM298 508q-65 0 -111.5 -46.5t-46.5 -112.5
q0 -65 46.5 -111.5t111.5 -46.5q66 0 112.5 46.5t46.5 111.5q0 66 -46.5 112.5t-112.5 46.5z" />
    <glyph glyph-name="yen" unicode="&#xa5;" 
d="M223 160h-146l9 46h146l12 55l-5 15h-138l10 47h117l-96 374h69l88 -363l250 363h68l-256 -374h120l-10 -47h-142l-10 -15l-12 -55h149l-9 -46h-149l-34 -160h-65z" />
    <glyph glyph-name="brokenbar" unicode="&#xa6;" horiz-adv-x="222" 
d="M213 411h-48v250h48v-250zM213 -89h-48v250h48v-250z" />
    <glyph glyph-name="section" unicode="&#xa7;" 
d="M497 713l-12 -56q-57 19 -108 19q-40 0 -74.5 -20.5t-34.5 -58.5q0 -22 19.5 -42.5t47.5 -37l56 -33.5t47.5 -40.5t19.5 -51.5q0 -17 -7.5 -33t-15 -26.5t-26 -24.5t-26.5 -18.5l-32 -18t-27 -15.5q37 -17 60 -48t23 -69q0 -75 -56.5 -114t-135.5 -39q-85 0 -138 20
l12 57q58 -26 124 -26q46 0 85.5 25.5t39.5 69.5q0 30 -31 58t-68 47t-68 50t-31 66q0 17 7.5 33t15.5 26t27.5 22.5t27.5 17t33 15.5t28 13q-2 2 -20 17t-23 20.5t-15.5 19t-14 27t-3.5 29.5q0 69 53.5 102t123.5 33q42 0 117 -15zM392 386q0 14 -9 26t-16 17t-27 15.5
l-22 11.5q-113 -56 -113 -98q0 -38 80 -79q1 1 11 7l13.5 8t13.5 8.5t14.5 10.5t13.5 10.5t13.5 11.5l10.5 12t9 13t5.5 12.5t2.5 13.5z" />
    <glyph glyph-name="dieresis" unicode="&#xa8;" horiz-adv-x="278" 
d="M149 571l21 101h64l-21 -101h-64zM307 571l21 101h64l-21 -101h-64z" />
    <glyph glyph-name="copyright" unicode="&#xa9;" horiz-adv-x="800" 
d="M480 740q156 0 267 -110.5t111 -267.5q0 -156 -111 -266.5t-267 -110.5q-157 0 -267.5 110.5t-110.5 266.5q0 157 110.5 267.5t267.5 110.5zM480 693q-137 0 -234 -96.5t-97 -233.5t97 -234t234 -97t234 97t97 233q0 137 -97 234t-234 97zM662 285q-8 -61 -56.5 -100.5
t-114.5 -39.5q-88 0 -146.5 63t-58.5 157q0 95 56 157.5t141 62.5q71 0 121 -42t55 -106h-53q-8 46 -40.5 72.5t-79.5 26.5q-61 0 -99.5 -47t-38.5 -121q0 -76 40.5 -125t104.5 -49q44 0 75 24.5t41 66.5h53z" />
    <glyph glyph-name="ordfeminine" unicode="&#xaa;" horiz-adv-x="289" 
d="M210 424q-74 0 -74 79q0 55 44 84t147 29l5 22q3 12 3 22q0 35 -44 35q-53 0 -62 -42l-1 -7h-52q23 90 126 90q37 0 61 -15t24 -41q0 -16 -7 -47l-31 -145q-2 -9 -5.5 -27.5t-6.5 -32.5h-48l6 27q-41 -31 -85 -31zM225 464q69 0 90 95l4 18h-3q-66 0 -96.5 -17t-30.5 -59
q0 -37 36 -37z" />
    <glyph glyph-name="guillemotleft" unicode="&#xab;" horiz-adv-x="389" 
d="M437 447l-124 -201l36 -187h-49l-50 194l131 194h56zM288 447l-124 -201l36 -187h-49l-50 194l131 194h56z" />
    <glyph glyph-name="logicalnot" unicode="&#xac;" 
d="M461 133h-45v183h-341v49h386v-232z" />
    <glyph glyph-name="uni00AD" unicode="&#xad;" horiz-adv-x="278" 
d="M290 238h-202l12 57h202z" />
    <glyph glyph-name="registered" unicode="&#xae;" horiz-adv-x="400" 
d="M498 539q0 -76 -54 -130t-129 -54q-76 0 -129.5 54t-53.5 130q0 75 53.5 129t129.5 54t129.5 -53.5t53.5 -129.5zM472 539q0 65 -46 111.5t-111 46.5t-111.5 -46.5t-46.5 -111.5t46.5 -112t111.5 -47t111 47t46 112zM400 446h-30q-5 10 -4.5 33t-10.5 33t-48 10h-33v-76
h-29v187h71q81 0 81 -54q0 -34 -34 -45q20 -10 25.5 -24.5t5.5 -33.5t6 -30zM369 579q0 31 -53 31h-42v-64h41q54 0 54 33z" />
    <glyph glyph-name="macron" unicode="&#xaf;" horiz-adv-x="278" 
d="M146 648h260l-10 -48h-260z" />
    <glyph glyph-name="degree" unicode="&#xb0;" horiz-adv-x="400" 
d="M465 564q0 -61 -42.5 -103.5t-103.5 -42.5q-60 0 -103 42.5t-43 103.5t42.5 103.5t103.5 42.5t103.5 -42.5t42.5 -103.5zM422 564q0 43 -30 73t-73 30q-42 0 -72.5 -30t-30.5 -73t30 -73t73 -30t73 30t30 73z" />
    <glyph glyph-name="plusminus" unicode="&#xb1;" 
d="M465 264h-184v-181h-47v181h-184v43h184v181h47v-181h184v-43zM465 -7h-415v44h415v-44z" />
    <glyph glyph-name="twosuperior" unicode="&#xb2;" horiz-adv-x="293" 
d="M88 277l9 41l195 219q41 48 41 84t-49 36q-64 0 -76 -64l-3 -10h-51q0 3 1 7.5t1 6.5q11 49 46 77t83 28q102 0 102 -80q0 -47 -65 -119l-163 -180h165l-10 -46h-226z" />
    <glyph glyph-name="threesuperior" unicode="&#xb3;" horiz-adv-x="293" 
d="M207 271q-102 0 -102 83q0 19 4 36h52q-4 -17 -4 -30q0 -45 53 -45q32 0 50 18.5t27 58.5q4 19 4 35q0 26 -14 35.5t-46 9.5q-3 0 -10 -1t-13 -1l10 46h18q39 0 60.5 17t30.5 58q3 12 3 22q0 45 -49 45q-31 0 -48 -17t-25 -55l-1 -3h-51l3 14q11 50 45.5 77.5t85.5 27.5
q92 0 92 -75q0 -17 -4 -33q-8 -37 -23.5 -60.5t-45.5 -38.5q36 -19 36 -58q0 -15 -5 -42q-14 -63 -45.5 -93.5t-87.5 -30.5z" />
    <glyph glyph-name="acute" unicode="&#xb4;" horiz-adv-x="278" 
d="M194 560l137 137h85l-167 -137h-55z" />
    <glyph glyph-name="mu" unicode="&#xb5;" 
d="M488 505l-92 -434q-3 -14 -7.5 -39t-5.5 -32h-56l13 59q-31 -27 -47 -38.5t-40.5 -20t-56.5 -8.5q-48 0 -69 18l-43 -202h-62l148 697h62l-73 -347q-6 -15 -6 -47q0 -73 64 -73q54 0 90.5 38t43.5 73l75 356h62z" />
    <glyph glyph-name="paragraph" unicode="&#xb6;" horiz-adv-x="564" 
d="M644 722l-8 -40h-34l-181 -853h-48l181 853h-70l-181 -853h-48l94 446q-73 0 -120.5 47.5t-47.5 123.5q0 129 84.5 202.5t213.5 73.5h165z" />
    <glyph glyph-name="periodcentered" unicode="&#xb7;" horiz-adv-x="222" 
d="M218 339l-17 -79h-75l17 79h75z" />
    <glyph glyph-name="cedilla" unicode="&#xb8;" horiz-adv-x="278" 
d="M-9 -188l20 30q38 -14 61 -14q27 0 51 12t24 38q0 16 -12.5 25.5t-29.5 9.5q-24 0 -40 -10l-17 15l78 82h38l-53 -55l1 -2q12 5 31 5q27 0 46 -17t19 -46q0 -47 -38 -69.5t-89 -22.5q-49 0 -90 19z" />
    <glyph glyph-name="onesuperior" unicode="&#xb9;" horiz-adv-x="293" 
d="M191 277l75 352q-28 -22 -84 -54l12 56q57 31 93 66h45l-90 -420h-51z" />
    <glyph glyph-name="ordmasculine" unicode="&#xba;" horiz-adv-x="289" 
d="M236 422q-89 0 -89 86q0 22 7 57l14 66q11 53 41.5 79t87.5 26q43 0 67 -21.5t24 -63.5q0 -19 -4 -38l-14 -65q-14 -66 -42.5 -96t-91.5 -30zM243 462q32 0 49.5 20.5t30.5 80.5l9 40q7 33 7 49q0 43 -45 43q-35 0 -53 -19.5t-29 -72.5l-12 -56q-5 -25 -5 -39
q0 -46 48 -46z" />
    <glyph glyph-name="guillemotright" unicode="&#xbb;" horiz-adv-x="389" 
d="M391 253l-129 -194h-60l129 200l-41 188h51zM243 253l-129 -194h-60l129 200l-41 188h51z" />
    <glyph glyph-name="onequarter" unicode="&#xbc;" horiz-adv-x="754" 
d="M191 277l75 352q-28 -22 -84 -54l12 56q57 31 93 66h45l-90 -420h-51zM118 -29l596 751h55l-595 -751h-56zM621 0l22 103h-150l11 49l189 268h67l-58 -272h50l-10 -45h-50l-22 -103h-49zM553 148h100l43 201z" />
    <glyph glyph-name="onehalf" unicode="&#xbd;" horiz-adv-x="754" 
d="M191 277l75 352q-28 -22 -84 -54l12 56q57 31 93 66h45l-90 -420h-51zM116 -29l596 751h55l-595 -751h-56zM491 0l9 41l195 219q41 48 41 84t-49 36q-64 0 -76 -64l-3 -10h-51q0 3 1 7.5t1 6.5q11 50 47.5 77.5t92.5 27.5q43 0 67 -18.5t24 -51.5q0 -57 -65 -129
l-163 -180h165l-10 -46h-226z" />
    <glyph glyph-name="threequarters" unicode="&#xbe;" horiz-adv-x="754" 
d="M207 271q-102 0 -102 83q0 19 4 36h52q-4 -17 -4 -30q0 -45 53 -45q32 0 50 18.5t27 58.5q4 19 4 35q0 26 -14 35.5t-46 9.5q-3 0 -10 -1t-13 -1l10 46h18q39 0 60.5 17t30.5 58q3 12 3 22q0 45 -49 45q-31 0 -48 -17t-25 -55l-1 -3h-51l3 14q11 50 45.5 77.5t85.5 27.5
q92 0 92 -75q0 -17 -4 -33q-8 -37 -23.5 -60.5t-45.5 -38.5q36 -19 36 -58q0 -15 -5 -42q-14 -63 -45.5 -93.5t-87.5 -30.5zM141 -29l596 751h55l-595 -751h-56zM620 0l22 103h-150l11 49l189 268h67l-58 -272h50l-10 -45h-50l-22 -103h-49zM552 148h100l43 201z" />
    <glyph glyph-name="questiondown" unicode="&#xbf;" horiz-adv-x="389" 
d="M253 345h60l-19 -87q-10 -45 -27.5 -77t-37 -52l-39 -41t-38 -57t-29.5 -86q-4 -20 -6 -31t-3 -26.5t2.5 -23t10 -16t19 -12t31.5 -3.5q25 0 43 9.5t28.5 27t16.5 35t10 41.5h64q-13 -77 -55.5 -122t-116.5 -45q-83 0 -105 39t-3 128q13 64 40.5 111t52.5 69.5t49 54.5
t32 70zM266 439l16 76h74l-16 -76h-74z" />
    <glyph glyph-name="Agrave" unicode="&#xc0;" horiz-adv-x="556" 
d="M542 0h-62l-18 190h-283l-97 -190h-69l381 722h76zM457 244l-37 408l-210 -408h247zM507 777h-45l-119 137h75z" />
    <glyph glyph-name="Aacute" unicode="&#xc1;" horiz-adv-x="556" 
d="M542 0h-62l-18 190h-283l-97 -190h-69l381 722h76zM457 244l-37 408l-210 -408h247zM379 777l137 137h85l-167 -137h-55z" />
    <glyph glyph-name="Acircumflex" unicode="&#xc2;" horiz-adv-x="556" 
d="M542 0h-62l-18 190h-283l-97 -190h-69l381 722h76zM457 244l-37 408l-210 -408h247zM467 877l-104 -102h-67l143 139h67l83 -139h-61z" />
    <glyph glyph-name="Atilde" unicode="&#xc3;" horiz-adv-x="556" 
d="M542 0h-62l-18 190h-283l-97 -190h-69l381 722h76zM457 244l-37 408l-210 -408h247zM332 812h-38q13 40 41 69q33 33 69 33q8 0 17.5 -3t16.5 -6.5l17.5 -9l16.5 -8.5t16.5 -9l16 -9t14 -6t15.5 -3q37 0 56 54h38q-13 -41 -38 -68q-29 -34 -66 -34q-9 0 -19 3t-16.5 6
t-18 9t-16.5 9q-6 3 -16 9t-16 9t-15 6t-17 3q-18 0 -34.5 -17t-23.5 -37z" />
    <glyph glyph-name="Adieresis" unicode="&#xc4;" horiz-adv-x="556" 
d="M542 0h-62l-18 190h-283l-97 -190h-69l381 722h76zM457 244l-37 408l-210 -408h247zM335 788l21 101h64l-21 -101h-64zM493 788l21 101h64l-21 -101h-64z" />
    <glyph glyph-name="Aring" unicode="&#xc5;" horiz-adv-x="556" 
d="M542 0h-62l-18 190h-283l-97 -190h-69l381 722h76zM457 244l-37 408l-210 -408h247zM475 953q38 0 59 -22.5t21 -55.5q0 -45 -31 -77t-77 -32q-36 0 -58.5 22.5t-22.5 59.5q0 42 33 73.5t76 31.5zM474 918q-28 0 -50 -19.5t-22 -50.5q0 -20 13.5 -33.5t33.5 -13.5
q29 0 49.5 22t20.5 49q0 20 -12.5 33t-32.5 13z" />
    <glyph glyph-name="AE" unicode="&#xc6;" horiz-adv-x="778" 
d="M79 0h-66l484 722h387l-11 -54h-286l-31 -270h248l-12 -54h-243l-37 -290h241l-11 -54h-301l24 190h-259zM523 674l-280 -430h229l53 430h-2z" />
    <glyph glyph-name="Ccedilla" unicode="&#xc7;" horiz-adv-x="500" 
d="M103 -188l20 30q38 -14 61 -14q27 0 51 12t24 38q0 16 -12.5 25.5t-29.5 9.5q-24 0 -40 -10l-17 15l68 71q-127 20 -127 170q0 49 18 137q30 142 54 227q30 107 88.5 160t151.5 53q162 0 162 -136q0 -25 -10 -73h-66q12 60 12 74q0 41 -23 61t-76 20q-40 0 -72.5 -17
t-51.5 -39.5t-35 -61t-23 -65.5t-16 -70l-42 -197q-8 -36 -8 -71q0 -120 111 -120q71 0 104.5 42.5t55.5 123.5h68q-16 -102 -73.5 -161.5t-159.5 -59.5h-8l-39 -41l1 -2q12 5 31 5q27 0 46 -17t19 -46q0 -47 -38 -69.5t-89 -22.5q-49 0 -90 19z" />
    <glyph glyph-name="Egrave" unicode="&#xc8;" 
d="M555 722l-11 -54h-263l-57 -270h251l-12 -54h-251l-62 -290h270l-11 -54h-334l153 722h327zM452 777h-45l-119 137h75z" />
    <glyph glyph-name="Eacute" unicode="&#xc9;" 
d="M555 722l-11 -54h-263l-57 -270h251l-12 -54h-251l-62 -290h270l-11 -54h-334l153 722h327zM323 777l137 137h85l-167 -137h-55z" />
    <glyph glyph-name="Ecircumflex" unicode="&#xca;" 
d="M555 722l-11 -54h-263l-57 -270h251l-12 -54h-251l-62 -290h270l-11 -54h-334l153 722h327zM417 877l-104 -102h-67l143 139h67l83 -139h-61z" />
    <glyph glyph-name="Edieresis" unicode="&#xcb;" 
d="M555 722l-11 -54h-263l-57 -270h251l-12 -54h-251l-62 -290h270l-11 -54h-334l153 722h327zM298 788l21 101h64l-21 -101h-64zM456 788l21 101h64l-21 -101h-64z" />
    <glyph glyph-name="Igrave" unicode="&#xcc;" horiz-adv-x="222" 
d="M296 722l-153 -722h-64l153 722h64zM341 777h-45l-119 137h75z" />
    <glyph glyph-name="Iacute" unicode="&#xcd;" horiz-adv-x="222" 
d="M296 722l-153 -722h-64l153 722h64zM212 777l137 137h85l-167 -137h-55z" />
    <glyph glyph-name="Icircumflex" unicode="&#xce;" horiz-adv-x="222" 
d="M296 722l-153 -722h-64l153 722h64zM300 877l-104 -102h-67l143 139h67l83 -139h-61z" />
    <glyph glyph-name="Idieresis" unicode="&#xcf;" horiz-adv-x="222" 
d="M296 722l-153 -722h-64l153 722h64zM167 788l21 101h64l-21 -101h-64zM325 788l21 101h64l-21 -101h-64z" />
    <glyph glyph-name="Eth" unicode="&#xd0;" horiz-adv-x="556" 
d="M98 398h61l69 324h161q109 0 159 -43t50 -138q0 -44 -13 -106l-14 -70q-30 -151 -57 -210q-59 -129 -194 -150q-30 -5 -63 -5h-182l72 344h-61zM532 549q0 62 -37.5 90.5t-124.5 28.5h-89l-58 -270h152l-12 -54h-152l-61 -290h81q31 0 56 2.5t46.5 10t38 14.5t31.5 23.5
l25 28t20.5 37.5t17 43.5t15.5 53.5t14 60l15 70q22 101 22 152z" />
    <glyph glyph-name="Ntilde" unicode="&#xd1;" horiz-adv-x="611" 
d="M688 722l-153 -722h-95l-163 650l-138 -650h-63l153 722h94l164 -650l138 650h63zM360 812h-38q13 40 41 69q33 33 69 33q8 0 17.5 -3t16.5 -6.5l17.5 -9l16.5 -8.5t16.5 -9l16 -9t14 -6t15.5 -3q37 0 56 54h38q-13 -41 -38 -68q-29 -34 -66 -34q-9 0 -19 3t-16.5 6
t-18 9t-16.5 9q-6 3 -16 9t-16 9t-15 6t-17 3q-18 0 -34.5 -17t-23.5 -37z" />
    <glyph glyph-name="Ograve" unicode="&#xd2;" horiz-adv-x="556" 
d="M593 457l-31 -147q-16 -76 -35 -129t-51 -100.5t-80.5 -71t-115.5 -23.5q-112 0 -151.5 72.5t-12.5 201.5l52 245q22 102 88.5 168.5t167.5 66.5q62 0 103 -23t57.5 -61.5t19.5 -90t-11 -108.5zM526 448q11 52 13.5 89.5t-5 73.5t-35.5 55t-76 19q-40 0 -71.5 -14
t-52 -35.5t-37 -54t-25 -61.5t-16.5 -66l-38 -182q-27 -119 -3.5 -175.5t106.5 -56.5q118 0 171 130q21 50 50 188zM508 777h-45l-119 137h75z" />
    <glyph glyph-name="Oacute" unicode="&#xd3;" horiz-adv-x="556" 
d="M593 457l-31 -147q-16 -76 -35 -129t-51 -100.5t-80.5 -71t-115.5 -23.5q-112 0 -151.5 72.5t-12.5 201.5l52 245q22 102 88.5 168.5t167.5 66.5q62 0 103 -23t57.5 -61.5t19.5 -90t-11 -108.5zM526 448q11 52 13.5 89.5t-5 73.5t-35.5 55t-76 19q-40 0 -71.5 -14
t-52 -35.5t-37 -54t-25 -61.5t-16.5 -66l-38 -182q-27 -119 -3.5 -175.5t106.5 -56.5q118 0 171 130q21 50 50 188zM379 777l137 137h85l-167 -137h-55z" />
    <glyph glyph-name="Ocircumflex" unicode="&#xd4;" horiz-adv-x="556" 
d="M593 457l-31 -147q-16 -76 -35 -129t-51 -100.5t-80.5 -71t-115.5 -23.5q-112 0 -151.5 72.5t-12.5 201.5l52 245q22 102 88.5 168.5t167.5 66.5q62 0 103 -23t57.5 -61.5t19.5 -90t-11 -108.5zM526 448q11 52 13.5 89.5t-5 73.5t-35.5 55t-76 19q-40 0 -71.5 -14
t-52 -35.5t-37 -54t-25 -61.5t-16.5 -66l-38 -182q-27 -119 -3.5 -175.5t106.5 -56.5q118 0 171 130q21 50 50 188zM467 877l-104 -102h-67l143 139h67l83 -139h-61z" />
    <glyph glyph-name="Otilde" unicode="&#xd5;" horiz-adv-x="556" 
d="M593 457l-31 -147q-16 -76 -35 -129t-51 -100.5t-80.5 -71t-115.5 -23.5q-112 0 -151.5 72.5t-12.5 201.5l52 245q22 102 88.5 168.5t167.5 66.5q62 0 103 -23t57.5 -61.5t19.5 -90t-11 -108.5zM526 448q11 52 13.5 89.5t-5 73.5t-35.5 55t-76 19q-40 0 -71.5 -14
t-52 -35.5t-37 -54t-25 -61.5t-16.5 -66l-38 -182q-27 -119 -3.5 -175.5t106.5 -56.5q118 0 171 130q21 50 50 188zM332 812h-38q13 40 41 69q33 33 69 33q8 0 17.5 -3t16.5 -6.5l17.5 -9l16.5 -8.5t16.5 -9l16 -9t14 -6t15.5 -3q37 0 56 54h38q-13 -41 -38 -68
q-29 -34 -66 -34q-9 0 -19 3t-16.5 6t-18 9t-16.5 9q-6 3 -16 9t-16 9t-15 6t-17 3q-18 0 -34.5 -17t-23.5 -37z" />
    <glyph glyph-name="Odieresis" unicode="&#xd6;" horiz-adv-x="556" 
d="M593 457l-31 -147q-16 -76 -35 -129t-51 -100.5t-80.5 -71t-115.5 -23.5q-112 0 -151.5 72.5t-12.5 201.5l52 245q22 102 88.5 168.5t167.5 66.5q62 0 103 -23t57.5 -61.5t19.5 -90t-11 -108.5zM526 448q11 52 13.5 89.5t-5 73.5t-35.5 55t-76 19q-40 0 -71.5 -14
t-52 -35.5t-37 -54t-25 -61.5t-16.5 -66l-38 -182q-27 -119 -3.5 -175.5t106.5 -56.5q118 0 171 130q21 50 50 188zM335 788l21 101h64l-21 -101h-64zM493 788l21 101h64l-21 -101h-64z" />
    <glyph glyph-name="multiply" unicode="&#xd7;" 
d="M272 216l-165 -165l-37 37l165 165l-165 165l37 37l165 -165l165 165l37 -37l-165 -165l165 -165l-37 -37z" />
    <glyph glyph-name="Oslash" unicode="&#xd8;" horiz-adv-x="556" 
d="M280 -14q-101 0 -145 61l-60 -78l-33 20l74 96q-11 30 -11 78q0 42 11 97l52 245q22 102 88.5 168.5t167.5 66.5q106 0 149 -66l66 85l30 -21l-78 -101q13 -35 13 -82q0 -45 -11 -98l-31 -147q-16 -76 -35 -129t-51 -100.5t-80.5 -71t-115.5 -23.5zM286 40q118 0 171 130
q21 50 50 188l19 90q15 75 15 113v11l-364 -470q22 -62 109 -62zM169 153l363 468q-23 64 -109 64q-40 0 -71.5 -14t-52 -35.5t-37 -54t-25 -61.5t-16.5 -66l-38 -182q-14 -67 -14 -111v-8z" />
    <glyph glyph-name="Ugrave" unicode="&#xd9;" horiz-adv-x="556" 
d="M640 722l-98 -465q-13 -59 -28.5 -101t-43.5 -84t-75 -64t-111 -22q-89 0 -133 45t-44 124q0 35 9 76l104 491h64l-108 -510q-6 -30 -6 -54q0 -57 30.5 -87.5t87.5 -30.5q144 0 186 201l102 481h64zM507 777h-45l-119 137h75z" />
    <glyph glyph-name="Uacute" unicode="&#xda;" horiz-adv-x="556" 
d="M640 722l-98 -465q-13 -59 -28.5 -101t-43.5 -84t-75 -64t-111 -22q-89 0 -133 45t-44 124q0 35 9 76l104 491h64l-108 -510q-6 -30 -6 -54q0 -57 30.5 -87.5t87.5 -30.5q144 0 186 201l102 481h64zM379 777l137 137h85l-167 -137h-55z" />
    <glyph glyph-name="Ucircumflex" unicode="&#xdb;" horiz-adv-x="556" 
d="M640 722l-98 -465q-13 -59 -28.5 -101t-43.5 -84t-75 -64t-111 -22q-89 0 -133 45t-44 124q0 35 9 76l104 491h64l-108 -510q-6 -30 -6 -54q0 -57 30.5 -87.5t87.5 -30.5q144 0 186 201l102 481h64zM467 877l-104 -102h-67l143 139h67l83 -139h-61z" />
    <glyph glyph-name="Udieresis" unicode="&#xdc;" horiz-adv-x="556" 
d="M640 722l-98 -465q-13 -59 -28.5 -101t-43.5 -84t-75 -64t-111 -22q-89 0 -133 45t-44 124q0 35 9 76l104 491h64l-108 -510q-6 -30 -6 -54q0 -57 30.5 -87.5t87.5 -30.5q144 0 186 201l102 481h64zM335 788l21 101h64l-21 -101h-64zM493 788l21 101h64l-21 -101h-64z
" />
    <glyph glyph-name="Yacute" unicode="&#xdd;" horiz-adv-x="500" 
d="M641 722l-297 -432l-62 -290h-64l62 290l-113 432h68l89 -359l249 359h68zM351 777l137 137h85l-167 -137h-55z" />
    <glyph glyph-name="Thorn" unicode="&#xde;" 
d="M64 0l153 722h64l-35 -164h134q127 0 127 -122q0 -26 -8 -66q-23 -109 -71.5 -153.5t-141.5 -44.5h-122l-36 -172h-64zM235 504l-59 -278h119q54 0 88.5 32.5t51.5 112.5q7 32 7 58q0 46 -23 60.5t-66 14.5h-118z" />
    <glyph glyph-name="germandbls" unicode="&#xdf;" horiz-adv-x="500" 
d="M485 134q-15 -71 -63 -107.5t-120 -36.5q-66 0 -91.5 35t-9.5 100h60q-9 -44 5 -65.5t58 -21.5q39 0 65 24t35 63q6 28 -6 55.5t-32.5 49l-41 43t-32.5 47t-7 51.5q7 34 31 68t49.5 57.5t49 54.5t29.5 59q8 36 -18 57t-63 21q-110 0 -140 -140l-116 -548h-60l121 568
q6 28 18.5 54t35.5 53.5t64 44t94 16.5q60 0 98 -35t25 -95q-8 -40 -44.5 -81.5l-71 -77.5t-39.5 -62q-4 -21 8.5 -43.5t33 -44t40.5 -45t31 -54.5t4 -64z" />
    <glyph glyph-name="agrave" unicode="&#xe0;" 
d="M464 410q0 -20 -4 -39l-56 -263l-12 -64l-6 -44h-60l13 68q-64 -75 -150 -75q-57 0 -90.5 30t-33.5 82q0 54 21 92.5t50.5 59t77 32t83.5 14.5t88 4l13 62q4 16 4 32q0 66 -83 66q-47 0 -78 -21.5t-39 -61.5l-1 -2h-65q11 68 62 100.5t126 32.5q140 0 140 -105zM376 260
q-9 1 -20 1q-45 0 -79.5 -5t-70.5 -19.5t-56 -45.5t-20 -78q0 -35 19 -54t54 -19q56 0 101 43t58 106q8 39 14 71zM404 558h-46l-113 139h73z" />
    <glyph glyph-name="aacute" unicode="&#xe1;" 
d="M464 410q0 -20 -4 -39l-56 -263l-12 -64l-6 -44h-60l13 68q-64 -75 -150 -75q-57 0 -90.5 30t-33.5 82q0 54 21 92.5t50.5 59t77 32t83.5 14.5t88 4l13 62q4 16 4 32q0 66 -83 66q-47 0 -78 -21.5t-39 -61.5l-1 -2h-65q11 68 62 100.5t126 32.5q140 0 140 -105zM376 260
q-9 1 -20 1q-45 0 -79.5 -5t-70.5 -19.5t-56 -45.5t-20 -78q0 -35 19 -54t54 -19q56 0 101 43t58 106q8 39 14 71zM278 560l137 137h85l-167 -137h-55z" />
    <glyph glyph-name="acircumflex" unicode="&#xe2;" 
d="M464 410q0 -20 -4 -39l-56 -263l-12 -64l-6 -44h-60l13 68q-64 -75 -150 -75q-57 0 -90.5 30t-33.5 82q0 54 21 92.5t50.5 59t77 32t83.5 14.5t88 4l13 62q4 16 4 32q0 66 -83 66q-47 0 -78 -21.5t-39 -61.5l-1 -2h-65q11 68 62 100.5t126 32.5q140 0 140 -105zM376 260
q-9 1 -20 1q-45 0 -79.5 -5t-70.5 -19.5t-56 -45.5t-20 -78q0 -35 19 -54t54 -19q56 0 101 43t58 106q8 39 14 71zM365 660l-104 -102h-67l143 139h67l83 -139h-61z" />
    <glyph glyph-name="atilde" unicode="&#xe3;" 
d="M464 410q0 -20 -4 -39l-56 -263l-12 -64l-6 -44h-60l13 68q-64 -75 -150 -75q-57 0 -90.5 30t-33.5 82q0 54 21 92.5t50.5 59t77 32t83.5 14.5t88 4l13 62q4 16 4 32q0 66 -83 66q-47 0 -78 -21.5t-39 -61.5l-1 -2h-65q11 68 62 100.5t126 32.5q140 0 140 -105zM376 260
q-9 1 -20 1q-45 0 -79.5 -5t-70.5 -19.5t-56 -45.5t-20 -78q0 -35 19 -54t54 -19q56 0 101 43t58 106q8 39 14 71zM231 595h-38q14 42 41 69q33 33 69 33q8 0 17.5 -3t16.5 -6.5l17.5 -9l16.5 -8.5t16.5 -9l16 -9t14 -6t15.5 -3q37 0 56 54h38q-13 -41 -38 -68
q-29 -34 -66 -34q-9 0 -19 3t-16.5 6t-18 9t-16.5 9t-16 9t-17 9t-15 6t-17 3q-19 0 -34.5 -16.5t-22.5 -37.5z" />
    <glyph glyph-name="adieresis" unicode="&#xe4;" 
d="M464 410q0 -20 -4 -39l-56 -263l-12 -64l-6 -44h-60l13 68q-64 -75 -150 -75q-57 0 -90.5 30t-33.5 82q0 54 21 92.5t50.5 59t77 32t83.5 14.5t88 4l13 62q4 16 4 32q0 66 -83 66q-47 0 -78 -21.5t-39 -61.5l-1 -2h-65q11 68 62 100.5t126 32.5q140 0 140 -105zM376 260
q-9 1 -20 1q-45 0 -79.5 -5t-70.5 -19.5t-56 -45.5t-20 -78q0 -35 19 -54t54 -19q56 0 101 43t58 106q8 39 14 71zM232 571l21 101h64l-21 -101h-64zM390 571l21 101h64l-21 -101h-64z" />
    <glyph glyph-name="aring" unicode="&#xe5;" 
d="M464 410q0 -20 -4 -39l-56 -263l-12 -64l-6 -44h-60l13 68q-64 -75 -150 -75q-57 0 -90.5 30t-33.5 82q0 54 21 92.5t50.5 59t77 32t83.5 14.5t88 4l13 62q4 16 4 32q0 66 -83 66q-47 0 -78 -21.5t-39 -61.5l-1 -2h-65q11 68 62 100.5t126 32.5q140 0 140 -105zM376 260
q-9 1 -20 1q-45 0 -79.5 -5t-70.5 -19.5t-56 -45.5t-20 -78q0 -35 19 -54t54 -19q56 0 101 43t58 106q8 39 14 71zM372 736q38 0 59 -22.5t21 -55.5q0 -45 -31 -77t-77 -32q-36 0 -58.5 22.5t-22.5 59.5q0 42 33 73.5t76 31.5zM371 701q-28 0 -50 -19.5t-22 -50.5
q0 -20 13.5 -33.5t33.5 -13.5q29 0 49.5 22t20.5 49q0 20 -12.5 33t-32.5 13z" />
    <glyph glyph-name="ae" unicode="&#xe6;" horiz-adv-x="722" 
d="M131 136q-11 -49 13 -73.5t75 -24.5q38 0 67.5 21.5t47 56.5t27 67.5t14.5 66.5q-12 -1 -37 -1.5t-39 -1t-37 -3.5t-36.5 -7t-31 -12t-28.5 -19.5t-20.5 -29.5t-14.5 -40zM441 298h228q21 76 5 122.5t-83 46.5q-53 0 -93 -46t-57 -123zM719 250h-288l-10 -49
q-6 -37 -7.5 -73.5t20.5 -63t66 -26.5q55 0 90 31.5t46 84.5h63q-44 -164 -209 -164q-50 0 -84.5 24t-38.5 66q-60 -90 -163 -90q-72 0 -112.5 36.5t-25.5 105.5q7 35 22 61.5t31.5 44t43.5 29.5t46.5 18t54 9t53.5 3.5t55 0.5h13q6 26 8.5 40.5t4.5 37.5t-2 36.5
t-12.5 27.5t-26 20.5t-42.5 6.5q-44 0 -76 -22t-41 -65h-64q18 69 71.5 102t124.5 33q46 0 81.5 -19.5t41.5 -57.5q27 35 68 56t80 21q29 0 51.5 -5.5t38 -12t25.5 -22t16 -26t7 -34t1 -36t-4.5 -42t-7 -42z" />
    <glyph glyph-name="ccedilla" unicode="&#xe7;" horiz-adv-x="389" 
d="M51 -188l20 30q38 -14 61 -14q27 0 51 12t24 38q0 16 -12.5 25.5t-29.5 9.5q-24 0 -40 -10l-17 15l67 71q-99 17 -99 137q0 39 10 82l15 68q11 49 18 74t23 61.5t35 54.5t52.5 32t77.5 14q125 0 125 -105q0 -22 -6 -49h-60q5 25 5 43q0 64 -66 64q-64 0 -93 -50t-54 -171
q-19 -92 -19 -128q0 -41 17 -60.5t57 -19.5q85 0 108 111h60q-16 -79 -55 -120t-113 -41h-3l-39 -41l1 -2q12 5 31 5q27 0 46 -17t19 -46q0 -47 -38 -69.5t-89 -22.5q-49 0 -90 19z" />
    <glyph glyph-name="egrave" unicode="&#xe8;" 
d="M470 381q0 -35 -10 -83l-12 -56h-286l-7 -33q-10 -45 -10 -79q0 -93 90 -93q54 0 87.5 31.5t45.5 84.5h62q-37 -165 -196 -165q-81 0 -115 37.5t-34 106.5q0 54 16 128q10 47 20 80t28 68.5t40.5 57t57.5 35.5t79 14q144 0 144 -134zM410 380q0 88 -87 88
q-63 0 -96.5 -41t-48.5 -112l-6 -27h225q13 56 13 92zM404 558h-46l-113 139h73z" />
    <glyph glyph-name="eacute" unicode="&#xe9;" 
d="M470 381q0 -35 -10 -83l-12 -56h-286l-7 -33q-10 -45 -10 -79q0 -93 90 -93q54 0 87.5 31.5t45.5 84.5h62q-37 -165 -196 -165q-81 0 -115 37.5t-34 106.5q0 54 16 128q10 47 20 80t28 68.5t40.5 57t57.5 35.5t79 14q144 0 144 -134zM410 380q0 88 -87 88
q-63 0 -96.5 -41t-48.5 -112l-6 -27h225q13 56 13 92zM277 560l137 137h85l-167 -137h-55z" />
    <glyph glyph-name="ecircumflex" unicode="&#xea;" 
d="M470 381q0 -35 -10 -83l-12 -56h-286l-7 -33q-10 -45 -10 -79q0 -93 90 -93q54 0 87.5 31.5t45.5 84.5h62q-37 -165 -196 -165q-81 0 -115 37.5t-34 106.5q0 54 16 128q10 47 20 80t28 68.5t40.5 57t57.5 35.5t79 14q144 0 144 -134zM410 380q0 88 -87 88
q-63 0 -96.5 -41t-48.5 -112l-6 -27h225q13 56 13 92zM365 660l-104 -102h-67l143 139h67l83 -139h-61z" />
    <glyph glyph-name="edieresis" unicode="&#xeb;" 
d="M470 381q0 -35 -10 -83l-12 -56h-286l-7 -33q-10 -45 -10 -79q0 -93 90 -93q54 0 87.5 31.5t45.5 84.5h62q-37 -165 -196 -165q-81 0 -115 37.5t-34 106.5q0 54 16 128q10 47 20 80t28 68.5t40.5 57t57.5 35.5t79 14q144 0 144 -134zM410 380q0 88 -87 88
q-63 0 -96.5 -41t-48.5 -112l-6 -27h225q13 56 13 92zM232 571l21 101h64l-21 -101h-64zM390 571l21 101h64l-21 -101h-64z" />
    <glyph glyph-name="igrave" unicode="&#xec;" horiz-adv-x="222" 
d="M247 505l-107 -505h-59l107 505h59zM291 558h-46l-113 139h73z" />
    <glyph glyph-name="iacute" unicode="&#xed;" horiz-adv-x="222" 
d="M247 505l-107 -505h-59l107 505h59zM166 560l137 137h85l-167 -137h-55z" />
    <glyph glyph-name="icircumflex" unicode="&#xee;" horiz-adv-x="222" 
d="M247 505l-107 -505h-59l107 505h59zM244 660l-104 -102h-67l143 139h67l83 -139h-61z" />
    <glyph glyph-name="idieresis" unicode="&#xef;" horiz-adv-x="222" 
d="M247 505l-107 -505h-59l107 505h59zM118 571l21 101h64l-21 -101h-64zM276 571l21 101h64l-21 -101h-64z" />
    <glyph glyph-name="eth" unicode="&#xf0;" 
d="M243 618l102 50q-10 7 -14.5 9.5t-11 6.5t-8 5t-9 4.5t-9.5 4t-13 5l-18 7.5l51 37q48 -16 90 -50l100 50l24 -30l-94 -47q28 -35 41 -71.5t11.5 -111.5t-25.5 -188l-22 -101q-21 -100 -76 -154t-142 -54t-119 54t-11 154l23 109q21 100 76 154t142 54q80 0 93 -44l3 2
q8 47 -11 98t-42 69l-105 -52zM321 467q-69 0 -102 -51.5t-57 -162.5q-9 -43 -13 -73.5t-3.5 -59t9.5 -45.5t27.5 -27t47.5 -10q69 0 102.5 52t57.5 163q12 54 15 89.5t-2 66t-25.5 44.5t-56.5 14z" />
    <glyph glyph-name="ntilde" unicode="&#xf1;" 
d="M465 399q0 -23 -6 -49l-74 -350h-60l74 347q4 19 4 40q0 73 -69 73q-55 0 -94.5 -45.5t-56.5 -127.5l-61 -287h-59l107 505h55l-15 -70q57 76 135 76q61 0 90.5 -30t29.5 -82zM230 595h-38q14 42 41 69q33 33 69 33q8 0 17.5 -3t16.5 -6.5l17.5 -9l16.5 -8.5t16.5 -9
l16 -9t14 -6t15.5 -3q37 0 56 54h38q-13 -41 -38 -68q-29 -34 -66 -34q-9 0 -19 3t-16.5 6t-18 9t-16.5 9t-16 9t-17 9t-15 6t-17 3q-19 0 -34.5 -16.5t-22.5 -37.5z" />
    <glyph glyph-name="ograve" unicode="&#xf2;" 
d="M471 384q0 -38 -11 -87l-21 -100q-23 -109 -68.5 -159.5t-145.5 -50.5q-144 0 -144 136q0 36 9 78l21 100q23 108 69 161t146 53q78 0 111.5 -34t33.5 -97zM410 378q0 89 -85 89q-38 0 -66.5 -15t-45.5 -44t-27 -57.5t-18 -68.5l-13 -63q-14 -64 -14 -94q0 -91 92 -91
q23 0 42 7t32.5 16t25.5 27t18.5 31t14 37.5t10.5 36.5t8 37l15 70q11 53 11 82zM403 558h-46l-113 139h73z" />
    <glyph glyph-name="oacute" unicode="&#xf3;" 
d="M471 384q0 -38 -11 -87l-21 -100q-23 -109 -68.5 -159.5t-145.5 -50.5q-144 0 -144 136q0 36 9 78l21 100q23 108 69 161t146 53q78 0 111.5 -34t33.5 -97zM410 378q0 89 -85 89q-38 0 -66.5 -15t-45.5 -44t-27 -57.5t-18 -68.5l-13 -63q-14 -64 -14 -94q0 -91 92 -91
q23 0 42 7t32.5 16t25.5 27t18.5 31t14 37.5t10.5 36.5t8 37l15 70q11 53 11 82zM277 560l137 137h85l-167 -137h-55z" />
    <glyph glyph-name="ocircumflex" unicode="&#xf4;" 
d="M471 384q0 -38 -11 -87l-21 -100q-23 -109 -68.5 -159.5t-145.5 -50.5q-144 0 -144 136q0 36 9 78l21 100q23 108 69 161t146 53q78 0 111.5 -34t33.5 -97zM410 378q0 89 -85 89q-38 0 -66.5 -15t-45.5 -44t-27 -57.5t-18 -68.5l-13 -63q-14 -64 -14 -94q0 -91 92 -91
q23 0 42 7t32.5 16t25.5 27t18.5 31t14 37.5t10.5 36.5t8 37l15 70q11 53 11 82zM365 660l-104 -102h-67l143 139h67l83 -139h-61z" />
    <glyph glyph-name="otilde" unicode="&#xf5;" 
d="M471 384q0 -38 -11 -87l-21 -100q-23 -109 -68.5 -159.5t-145.5 -50.5q-144 0 -144 136q0 36 9 78l21 100q23 108 69 161t146 53q78 0 111.5 -34t33.5 -97zM410 378q0 89 -85 89q-38 0 -66.5 -15t-45.5 -44t-27 -57.5t-18 -68.5l-13 -63q-14 -64 -14 -94q0 -91 92 -91
q23 0 42 7t32.5 16t25.5 27t18.5 31t14 37.5t10.5 36.5t8 37l15 70q11 53 11 82zM230 595h-38q14 42 41 69q33 33 69 33q8 0 17.5 -3t16.5 -6.5l17.5 -9l16.5 -8.5t16.5 -9l16 -9t14 -6t15.5 -3q37 0 56 54h38q-13 -41 -38 -68q-29 -34 -66 -34q-9 0 -19 3t-16.5 6t-18 9
t-16.5 9t-16 9t-17 9t-15 6t-17 3q-19 0 -34.5 -16.5t-22.5 -37.5z" />
    <glyph glyph-name="odieresis" unicode="&#xf6;" 
d="M471 384q0 -38 -11 -87l-21 -100q-23 -109 -68.5 -159.5t-145.5 -50.5q-144 0 -144 136q0 36 9 78l21 100q23 108 69 161t146 53q78 0 111.5 -34t33.5 -97zM410 378q0 89 -85 89q-38 0 -66.5 -15t-45.5 -44t-27 -57.5t-18 -68.5l-13 -63q-14 -64 -14 -94q0 -91 92 -91
q23 0 42 7t32.5 16t25.5 27t18.5 31t14 37.5t10.5 36.5t8 37l15 70q11 53 11 82zM232 571l21 101h64l-21 -101h-64zM390 571l21 101h64l-21 -101h-64z" />
    <glyph glyph-name="divide" unicode="&#xf7;" 
d="M321 393h-74v76h74v-76zM497 233h-427v43h427v-43zM321 40h-74v76h74v-76z" />
    <glyph glyph-name="oslash" unicode="&#xf8;" 
d="M500 548l28 -21l-68 -81q11 -25 11 -62q0 -38 -11 -87l-21 -100q-23 -109 -68.5 -159.5t-145.5 -50.5q-78 0 -115 40l-60 -72l-28 22l69 83q-10 26 -10 63q0 36 9 78l21 100q23 108 69 161t146 53q79 0 115 -38zM410 378v7l-260 -310q20 -41 83 -41q23 0 42 7t32.5 16
t25.5 27t18.5 31t14 37.5t10.5 36.5t8 37l15 70q11 53 11 82zM141 125v-6l259 310q-18 38 -75 38q-38 0 -66.5 -15t-45.5 -44t-27 -57.5t-18 -68.5l-13 -63q-14 -64 -14 -94z" />
    <glyph glyph-name="ugrave" unicode="&#xf9;" 
d="M486 505l-92 -434q-3 -14 -7.5 -39t-5.5 -32h-59l12 56q-47 -66 -130 -66q-57 0 -85 31t-28 84q0 25 6 50l74 350h60l-76 -361q-4 -16 -4 -33q0 -70 69 -70q48 0 84.5 35.5t49.5 94.5l71 334h61zM403 558h-46l-113 139h73z" />
    <glyph glyph-name="uacute" unicode="&#xfa;" 
d="M486 505l-92 -434q-3 -14 -7.5 -39t-5.5 -32h-59l12 56q-47 -66 -130 -66q-57 0 -85 31t-28 84q0 25 6 50l74 350h60l-76 -361q-4 -16 -4 -33q0 -70 69 -70q48 0 84.5 35.5t49.5 94.5l71 334h61zM277 560l137 137h85l-167 -137h-55z" />
    <glyph glyph-name="ucircumflex" unicode="&#xfb;" 
d="M486 505l-92 -434q-3 -14 -7.5 -39t-5.5 -32h-59l12 56q-47 -66 -130 -66q-57 0 -85 31t-28 84q0 25 6 50l74 350h60l-76 -361q-4 -16 -4 -33q0 -70 69 -70q48 0 84.5 35.5t49.5 94.5l71 334h61zM365 660l-104 -102h-67l143 139h67l83 -139h-61z" />
    <glyph glyph-name="udieresis" unicode="&#xfc;" 
d="M486 505l-92 -434q-3 -14 -7.5 -39t-5.5 -32h-59l12 56q-47 -66 -130 -66q-57 0 -85 31t-28 84q0 25 6 50l74 350h60l-76 -361q-4 -16 -4 -33q0 -70 69 -70q48 0 84.5 35.5t49.5 94.5l71 334h61zM232 571l21 101h64l-21 -101h-64zM390 571l21 101h64l-21 -101h-64z" />
    <glyph glyph-name="yacute" unicode="&#xfd;" horiz-adv-x="389" 
d="M485 505l-357 -697h-62l102 196l-51 501h61l36 -414l208 414h63zM250 560l137 137h85l-167 -137h-55z" />
    <glyph glyph-name="thorn" unicode="&#xfe;" 
d="M186 298l-19 -90q-17 -82 5 -126t66 -44q32 0 57 12t40 28t27.5 48t19 56.5t15.5 68.5q8 37 11.5 58t6.5 50t-1 45t-12.5 32.5t-27 23.5t-45.5 7q-37 0 -81 -42.5t-62 -126.5zM22 -191l194 913h60l-59 -278l3 1q57 70 142 70q37 0 62 -11t36.5 -32.5t17 -43t2 -53.5
t-7 -53t-10.5 -51q-3 -12 -4 -18q-9 -41 -17 -70.5t-25.5 -69t-38.5 -64t-55 -42t-76 -17.5q-83 0 -109 66l-2 1l-53 -248h-60z" />
    <glyph glyph-name="ydieresis" unicode="&#xff;" horiz-adv-x="389" 
d="M485 505l-357 -697h-62l102 196l-51 501h61l36 -414l208 414h63zM206 571l21 101h64l-21 -101h-64zM364 571l21 101h64l-21 -101h-64z" />
    <glyph glyph-name="Amacron" unicode="&#x100;" horiz-adv-x="556" 
d="M542 0h-62l-18 190h-283l-97 -190h-69l381 722h76zM457 244l-37 408l-210 -408h247zM329 865h260l-10 -48h-260z" />
    <glyph glyph-name="amacron" unicode="&#x101;" 
d="M464 410q0 -20 -4 -39l-56 -263l-12 -64l-6 -44h-60l13 68q-64 -75 -150 -75q-57 0 -90.5 30t-33.5 82q0 54 21 92.5t50.5 59t77 32t83.5 14.5t88 4l13 62q4 16 4 32q0 66 -83 66q-47 0 -78 -21.5t-39 -61.5l-1 -2h-65q11 68 62 100.5t126 32.5q140 0 140 -105zM376 260
q-9 1 -20 1q-45 0 -79.5 -5t-70.5 -19.5t-56 -45.5t-20 -78q0 -35 19 -54t54 -19q56 0 101 43t58 106q8 39 14 71zM230 648h260l-10 -48h-260z" />
    <glyph glyph-name="Abreve" unicode="&#x102;" horiz-adv-x="556" 
d="M542 0h-62l-18 190h-283l-97 -190h-69l381 722h76zM457 244l-37 408l-210 -408h247zM326 914h39q-2 -41 21.5 -61t66.5 -20q83 0 124 81h37q-20 -63 -63 -96t-104 -33t-95 35t-26 94z" />
    <glyph glyph-name="abreve" unicode="&#x103;" 
d="M464 410q0 -20 -4 -39l-56 -263l-12 -64l-6 -44h-60l13 68q-64 -75 -150 -75q-57 0 -90.5 30t-33.5 82q0 54 21 92.5t50.5 59t77 32t83.5 14.5t88 4l13 62q4 16 4 32q0 66 -83 66q-47 0 -78 -21.5t-39 -61.5l-1 -2h-65q11 68 62 100.5t126 32.5q140 0 140 -105zM376 260
q-9 1 -20 1q-45 0 -79.5 -5t-70.5 -19.5t-56 -45.5t-20 -78q0 -35 19 -54t54 -19q56 0 101 43t58 106q8 39 14 71zM227 697h39q-2 -41 21 -61t66 -20q85 0 125 81h37q-20 -63 -63 -96t-104 -33t-95 35t-26 94z" />
    <glyph glyph-name="Aogonek" unicode="&#x104;" horiz-adv-x="556" 
d="M542 0h-62l-18 190h-283l-97 -190h-69l381 722h76zM457 244l-37 408l-210 -408h247zM481 0l50 2v-2q-53 -23 -80.5 -54t-32.5 -56q-5 -24 10.5 -35t39.5 -11q12 0 68 17l-7 -33q-36 -19 -78 -19q-26 0 -43 2.5t-34 11t-20 25t0 43.5q17 72 127 109z" />
    <glyph glyph-name="aogonek" unicode="&#x105;" 
d="M464 410q0 -20 -4 -39l-56 -263l-12 -64l-6 -44h-60l13 68q-64 -75 -150 -75q-57 0 -90.5 30t-33.5 82q0 54 21 92.5t50.5 59t77 32t83.5 14.5t88 4l13 62q4 16 4 32q0 66 -83 66q-47 0 -78 -21.5t-39 -61.5l-1 -2h-65q11 68 62 100.5t126 32.5q140 0 140 -105zM376 260
q-9 1 -20 1q-45 0 -79.5 -5t-70.5 -19.5t-56 -45.5t-20 -78q0 -35 19 -54t54 -19q56 0 101 43t58 106q8 39 14 71zM326 0l50 2v-2q-53 -23 -80.5 -54t-32.5 -56q-5 -24 10.5 -35t39.5 -11q12 0 68 17l-7 -33q-36 -19 -78 -19q-26 0 -43 2.5t-34 11t-20 25t0 43.5
q17 72 127 109z" />
    <glyph glyph-name="Cacute" unicode="&#x106;" horiz-adv-x="500" 
d="M575 600q0 -25 -10 -73h-66q12 60 12 74q0 41 -23 61t-76 20q-40 0 -72.5 -17t-51.5 -39.5t-35 -61t-23 -65.5t-16 -70l-42 -197q-8 -36 -8 -71q0 -120 111 -120q71 0 104.5 42.5t55.5 123.5h68q-16 -102 -73.5 -161.5t-159.5 -59.5q-169 0 -169 173q0 49 18 137
q30 142 54 227q30 107 88.5 160t151.5 53q162 0 162 -136zM357 777l137 137h85l-167 -137h-55z" />
    <glyph glyph-name="cacute" unicode="&#x107;" horiz-adv-x="389" 
d="M432 407q0 -22 -6 -49h-60q5 25 5 43q0 64 -66 64q-64 0 -93 -50t-54 -171q-19 -92 -19 -128q0 -41 17 -60.5t57 -19.5q85 0 108 111h60q-16 -79 -55 -120t-113 -41q-137 0 -137 140q0 39 10 82l15 68q11 49 18 74t23 61.5t35 54.5t52.5 32t77.5 14q125 0 125 -105z
M251 560l137 137h85l-167 -137h-55z" />
    <glyph glyph-name="Ccircumflex" unicode="&#x108;" horiz-adv-x="500" 
d="M575 600q0 -25 -10 -73h-66q12 60 12 74q0 41 -23 61t-76 20q-40 0 -72.5 -17t-51.5 -39.5t-35 -61t-23 -65.5t-16 -70l-42 -197q-8 -36 -8 -71q0 -120 111 -120q71 0 104.5 42.5t55.5 123.5h68q-16 -102 -73.5 -161.5t-159.5 -59.5q-169 0 -169 173q0 49 18 137
q30 142 54 227q30 107 88.5 160t151.5 53q162 0 162 -136zM445 877l-104 -102h-67l143 139h67l83 -139h-61z" />
    <glyph glyph-name="ccircumflex" unicode="&#x109;" horiz-adv-x="389" 
d="M432 407q0 -22 -6 -49h-60q5 25 5 43q0 64 -66 64q-64 0 -93 -50t-54 -171q-19 -92 -19 -128q0 -41 17 -60.5t57 -19.5q85 0 108 111h60q-16 -79 -55 -120t-113 -41q-137 0 -137 140q0 39 10 82l15 68q11 49 18 74t23 61.5t35 54.5t52.5 32t77.5 14q125 0 125 -105z
M338 660l-104 -102h-67l143 139h67l83 -139h-61z" />
    <glyph glyph-name="Cdotaccent" unicode="&#x10a;" horiz-adv-x="500" 
d="M575 600q0 -25 -10 -73h-66q12 60 12 74q0 41 -23 61t-76 20q-40 0 -72.5 -17t-51.5 -39.5t-35 -61t-23 -65.5t-16 -70l-42 -197q-8 -36 -8 -71q0 -120 111 -120q71 0 104.5 42.5t55.5 123.5h68q-16 -102 -73.5 -161.5t-159.5 -59.5q-169 0 -169 173q0 49 18 137
q30 142 54 227q30 107 88.5 160t151.5 53q162 0 162 -136zM398 788l21 101h64l-21 -101h-64z" />
    <glyph glyph-name="cdotaccent" unicode="&#x10b;" horiz-adv-x="389" 
d="M432 407q0 -22 -6 -49h-60q5 25 5 43q0 64 -66 64q-64 0 -93 -50t-54 -171q-19 -92 -19 -128q0 -41 17 -60.5t57 -19.5q85 0 108 111h60q-16 -79 -55 -120t-113 -41q-137 0 -137 140q0 39 10 82l15 68q11 49 18 74t23 61.5t35 54.5t52.5 32t77.5 14q125 0 125 -105z
M284 571l21 101h64l-21 -101h-64z" />
    <glyph glyph-name="Ccaron" unicode="&#x10c;" horiz-adv-x="500" 
d="M575 600q0 -25 -10 -73h-66q12 60 12 74q0 41 -23 61t-76 20q-40 0 -72.5 -17t-51.5 -39.5t-35 -61t-23 -65.5t-16 -70l-42 -197q-8 -36 -8 -71q0 -120 111 -120q71 0 104.5 42.5t55.5 123.5h68q-16 -102 -73.5 -161.5t-159.5 -59.5q-169 0 -169 173q0 49 18 137
q30 142 54 227q30 107 88.5 160t151.5 53q162 0 162 -136zM426 812l104 102h67l-143 -139h-67l-83 139h61z" />
    <glyph glyph-name="ccaron" unicode="&#x10d;" horiz-adv-x="389" 
d="M432 407q0 -22 -6 -49h-60q5 25 5 43q0 64 -66 64q-64 0 -93 -50t-54 -171q-19 -92 -19 -128q0 -41 17 -60.5t57 -19.5q85 0 108 111h60q-16 -79 -55 -120t-113 -41q-137 0 -137 140q0 39 10 82l15 68q11 49 18 74t23 61.5t35 54.5t52.5 32t77.5 14q125 0 125 -105z
M319 595l104 102h67l-143 -139h-67l-83 139h61z" />
    <glyph glyph-name="Dcaron" unicode="&#x10e;" horiz-adv-x="556" 
d="M598 541q0 -44 -13 -106l-14 -70q-30 -151 -57 -210q-59 -129 -194 -150q-30 -5 -63 -5h-182l153 722h161q109 0 159 -43t50 -138zM532 549q0 62 -37.5 90.5t-124.5 28.5h-89l-131 -614h81q31 0 56 2.5t46.5 10t38 14.5t31.5 23.5l25 28t20.5 37.5t17 43.5t15.5 53.5
t14 60l15 70q22 101 22 152zM419 812l104 102h67l-143 -139h-67l-83 139h61z" />
    <glyph glyph-name="dcaron" unicode="&#x10f;" 
d="M536 722l-120 -567l-22 -113l-7 -42h-58l12 67q-62 -76 -136 -76q-124 0 -124 145q0 54 15 124q9 40 17.5 69.5t25.5 66.5t38 60t54.5 39.5t74.5 16.5q76 0 110 -66l58 276h62zM394 360q0 102 -88 102q-30 0 -54 -13t-38 -31.5t-25.5 -47.5t-17 -50.5t-11.5 -51.5l-3 -15
q-17 -79 -17 -121q0 -93 77 -93q28 0 51 9t39.5 28.5t27.5 37t20.5 50t14.5 51t12 54.5q12 55 12 91zM524 585l59 137h73l-79 -137h-53z" />
    <glyph glyph-name="Dcroat" unicode="&#x110;" horiz-adv-x="556" 
d="M98 398h61l69 324h161q109 0 159 -43t50 -138q0 -44 -13 -106l-14 -70q-30 -151 -57 -210q-59 -129 -194 -150q-30 -5 -63 -5h-182l72 344h-61zM532 549q0 62 -37.5 90.5t-124.5 28.5h-89l-58 -270h152l-12 -54h-152l-61 -290h81q31 0 56 2.5t46.5 10t38 14.5t31.5 23.5
l25 28t20.5 37.5t17 43.5t15.5 53.5t14 60l15 70q22 101 22 152z" />
    <glyph glyph-name="dcroat" unicode="&#x111;" 
d="M333 644h124l17 78h62l-17 -78h52l-10 -48h-52l-93 -441l-22 -113l-7 -42h-58l12 67q-62 -76 -136 -76q-124 0 -124 145q0 54 15 124q9 40 17.5 69.5t25.5 66.5t38 60t54.5 39.5t74.5 16.5q76 0 110 -66l31 150h-124zM394 360q0 102 -88 102q-30 0 -54 -13t-38 -31.5
t-25.5 -47.5t-17 -50.5t-11.5 -51.5l-3 -15q-17 -79 -17 -121q0 -93 77 -93q28 0 51 9t39.5 28.5t27.5 37t20.5 50t14.5 51t12 54.5q12 55 12 91z" />
    <glyph glyph-name="Emacron" unicode="&#x112;" 
d="M555 722l-11 -54h-263l-57 -270h251l-12 -54h-251l-62 -290h270l-11 -54h-334l153 722h327zM294 865h260l-10 -48h-260z" />
    <glyph glyph-name="emacron" unicode="&#x113;" 
d="M470 381q0 -35 -10 -83l-12 -56h-286l-7 -33q-10 -45 -10 -79q0 -93 90 -93q54 0 87.5 31.5t45.5 84.5h62q-37 -165 -196 -165q-81 0 -115 37.5t-34 106.5q0 54 16 128q10 47 20 80t28 68.5t40.5 57t57.5 35.5t79 14q144 0 144 -134zM410 380q0 88 -87 88
q-63 0 -96.5 -41t-48.5 -112l-6 -27h225q13 56 13 92zM229 648h260l-10 -48h-260z" />
    <glyph glyph-name="Ebreve" unicode="&#x114;" 
d="M555 722l-11 -54h-263l-57 -270h251l-12 -54h-251l-62 -290h270l-11 -54h-334l153 722h327zM293 914h39q-2 -41 21.5 -61t66.5 -20q84 0 124 81h37q-20 -63 -63 -96t-104 -33t-95 35t-26 94z" />
    <glyph glyph-name="ebreve" unicode="&#x115;" 
d="M470 381q0 -35 -10 -83l-12 -56h-286l-7 -33q-10 -45 -10 -79q0 -93 90 -93q54 0 87.5 31.5t45.5 84.5h62q-37 -165 -196 -165q-81 0 -115 37.5t-34 106.5q0 54 16 128q10 47 20 80t28 68.5t40.5 57t57.5 35.5t79 14q144 0 144 -134zM410 380q0 88 -87 88
q-63 0 -96.5 -41t-48.5 -112l-6 -27h225q13 56 13 92zM226 697h39q-2 -41 21 -61t66 -20q84 0 125 81h37q-20 -63 -63 -96t-104 -33t-95 35t-26 94z" />
    <glyph glyph-name="Edotaccent" unicode="&#x116;" 
d="M555 722l-11 -54h-263l-57 -270h251l-12 -54h-251l-62 -290h270l-11 -54h-334l153 722h327zM377 788l21 101h64l-21 -101h-64z" />
    <glyph glyph-name="edotaccent" unicode="&#x117;" 
d="M470 381q0 -35 -10 -83l-12 -56h-286l-7 -33q-10 -45 -10 -79q0 -93 90 -93q54 0 87.5 31.5t45.5 84.5h62q-37 -165 -196 -165q-81 0 -115 37.5t-34 106.5q0 54 16 128q10 47 20 80t28 68.5t40.5 57t57.5 35.5t79 14q144 0 144 -134zM410 380q0 88 -87 88
q-63 0 -96.5 -41t-48.5 -112l-6 -27h225q13 56 13 92zM311 571l21 101h64l-21 -101h-64z" />
    <glyph glyph-name="Eogonek" unicode="&#x118;" 
d="M305 0h-230l153 722h327l-12 -54h-263l-57 -270h251l-11 -54h-251l-62 -290h270l-11 -54h-54q-54 -23 -80.5 -53.5t-32.5 -56.5q-5 -24 10.5 -35t39.5 -11q12 0 68 17l-7 -33q-36 -19 -78 -19q-55 0 -81 16t-16 66q7 35 40.5 63t86.5 46z" />
    <glyph glyph-name="eogonek" unicode="&#x119;" 
d="M470 381q0 -35 -10 -83l-12 -56h-286l-7 -33q-10 -45 -10 -79q0 -93 90 -93q54 0 87.5 31.5t45.5 84.5h62q-33 -148 -163 -163q-43 -22 -65.5 -50t-26.5 -50q-5 -24 10.5 -35t39.5 -11q12 0 68 17l-7 -33q-36 -19 -78 -19q-26 0 -43 2.5t-34 11t-20 25t0 43.5
q14 61 98 98q-67 6 -95.5 42.5t-28.5 100.5q0 54 16 128q10 47 20 80t28 68.5t40.5 57t57.5 35.5t79 14q144 0 144 -134zM410 380q0 88 -87 88q-63 0 -96.5 -41t-48.5 -112l-6 -27h225q13 56 13 92z" />
    <glyph glyph-name="Ecaron" unicode="&#x11a;" 
d="M555 722l-11 -54h-263l-57 -270h251l-12 -54h-251l-62 -290h270l-11 -54h-334l153 722h327zM407 812l104 102h67l-143 -139h-67l-83 139h61z" />
    <glyph glyph-name="ecaron" unicode="&#x11b;" 
d="M470 381q0 -35 -10 -83l-12 -56h-286l-7 -33q-10 -45 -10 -79q0 -93 90 -93q54 0 87.5 31.5t45.5 84.5h62q-37 -165 -196 -165q-81 0 -115 37.5t-34 106.5q0 54 16 128q10 47 20 80t28 68.5t40.5 57t57.5 35.5t79 14q144 0 144 -134zM410 380q0 88 -87 88
q-63 0 -96.5 -41t-48.5 -112l-6 -27h225q13 56 13 92zM346 595l104 102h67l-143 -139h-67l-83 139h61z" />
    <glyph glyph-name="Gcircumflex" unicode="&#x11c;" horiz-adv-x="556" 
d="M606 597q0 -29 -7 -60h-65q6 27 6 50q0 96 -105 96q-92 0 -141 -58.5t-72 -171.5l-25 -120q-24 -116 -24 -162q0 -133 130 -133q69 0 125 23l56 264h-147l11 52h210l-77 -361q-98 -31 -180 -31q-108 0 -151.5 47t-43.5 131q0 65 30 201l14 65q12 56 23 94.5t33 82.5
t50 70t73 43.5t103 17.5q174 0 174 -140zM468 877l-104 -102h-67l143 139h67l83 -139h-61z" />
    <glyph glyph-name="gcircumflex" unicode="&#x11d;" 
d="M491 505l-23 -98l-92 -431q-19 -90 -63.5 -133t-134.5 -43q-63 0 -100.5 28.5t-37.5 80.5q0 19 4 35h61q-3 -15 -3 -29q0 -69 77 -69q67 0 93 31.5t43 104.5q10 42 11 44q6 36 6 41q-47 -62 -122 -62q-68 0 -100 36.5t-32 97.5q0 32 7 63l21 100q22 104 68 158t133 54
q90 0 111 -73l15 64h58zM393 364q0 101 -84 101q-31 0 -56 -15t-39.5 -34t-27 -52t-17 -53l-11.5 -53q-1 -7 -2 -10q-16 -73 -16 -107q0 -89 79 -89q29 0 52 10t40 32.5t28 41t20.5 52t13 48.5l10.5 47q10 45 10 81zM356 660l-104 -102h-67l143 139h67l83 -139h-61z" />
    <glyph glyph-name="Gbreve" unicode="&#x11e;" horiz-adv-x="556" 
d="M606 597q0 -29 -7 -60h-65q6 27 6 50q0 96 -105 96q-92 0 -141 -58.5t-72 -171.5l-25 -120q-24 -116 -24 -162q0 -133 130 -133q69 0 125 23l56 264h-147l11 52h210l-77 -361q-98 -31 -180 -31q-108 0 -151.5 47t-43.5 131q0 65 30 201l14 65q12 56 23 94.5t33 82.5
t50 70t73 43.5t103 17.5q174 0 174 -140zM329 914h39q-2 -41 21.5 -61t66.5 -20q84 0 124 81h37q-20 -63 -63 -96t-104 -33t-95 35t-26 94z" />
    <glyph glyph-name="gbreve" unicode="&#x11f;" 
d="M491 505l-23 -98l-92 -431q-19 -90 -63.5 -133t-134.5 -43q-63 0 -100.5 28.5t-37.5 80.5q0 19 4 35h61q-3 -15 -3 -29q0 -69 77 -69q67 0 93 31.5t43 104.5q10 42 11 44q6 36 6 41q-47 -62 -122 -62q-68 0 -100 36.5t-32 97.5q0 32 7 63l21 100q22 104 68 158t133 54
q90 0 111 -73l15 64h58zM393 364q0 101 -84 101q-31 0 -56 -15t-39.5 -34t-27 -52t-17 -53l-11.5 -53q-1 -7 -2 -10q-16 -73 -16 -107q0 -89 79 -89q29 0 52 10t40 32.5t28 41t20.5 52t13 48.5l10.5 47q10 45 10 81zM217 697h39q-2 -41 21 -61t66 -20q85 0 125 81h37
q-20 -63 -63 -96t-104 -33t-95 35t-26 94z" />
    <glyph glyph-name="Gdotaccent" unicode="&#x120;" horiz-adv-x="556" 
d="M606 597q0 -29 -7 -60h-65q6 27 6 50q0 96 -105 96q-92 0 -141 -58.5t-72 -171.5l-25 -120q-24 -116 -24 -162q0 -133 130 -133q69 0 125 23l56 264h-147l11 52h210l-77 -361q-98 -31 -180 -31q-108 0 -151.5 47t-43.5 131q0 65 30 201l14 65q12 56 23 94.5t33 82.5
t50 70t73 43.5t103 17.5q174 0 174 -140zM414 788l21 101h64l-21 -101h-64z" />
    <glyph glyph-name="gdotaccent" unicode="&#x121;" 
d="M491 505l-23 -98l-92 -431q-19 -90 -63.5 -133t-134.5 -43q-63 0 -100.5 28.5t-37.5 80.5q0 19 4 35h61q-3 -15 -3 -29q0 -69 77 -69q67 0 93 31.5t43 104.5q10 42 11 44q6 36 6 41q-47 -62 -122 -62q-68 0 -100 36.5t-32 97.5q0 32 7 63l21 100q22 104 68 158t133 54
q90 0 111 -73l15 64h58zM393 364q0 101 -84 101q-31 0 -56 -15t-39.5 -34t-27 -52t-17 -53l-11.5 -53q-1 -7 -2 -10q-16 -73 -16 -107q0 -89 79 -89q29 0 52 10t40 32.5t28 41t20.5 52t13 48.5l10.5 47q10 45 10 81zM302 571l21 101h64l-21 -101h-64z" />
    <glyph glyph-name="Gcommaaccent" unicode="&#x122;" horiz-adv-x="556" 
d="M606 597q0 -29 -7 -60h-65q6 27 6 50q0 96 -105 96q-92 0 -141 -58.5t-72 -171.5l-25 -120q-24 -116 -24 -162q0 -133 130 -133q69 0 125 23l56 264h-147l11 52h210l-77 -361q-98 -31 -180 -31q-108 0 -151.5 47t-43.5 131q0 65 30 201l14 65q12 56 23 94.5t33 82.5
t50 70t73 43.5t103 17.5q174 0 174 -140zM191 -165l60 137h73l-80 -137h-53z" />
    <glyph glyph-name="gcommaaccent" unicode="&#x123;" 
d="M491 505l-23 -98l-92 -431q-19 -90 -63.5 -133t-134.5 -43q-63 0 -100.5 28.5t-37.5 80.5q0 19 4 35h61q-3 -15 -3 -29q0 -69 77 -69q67 0 93 31.5t43 104.5q10 42 11 44q6 36 6 41q-47 -62 -122 -62q-68 0 -100 36.5t-32 97.5q0 32 7 63l21 100q22 104 68 158t133 54
q90 0 111 -73l15 64h58zM393 364q0 101 -84 101q-31 0 -56 -15t-39.5 -34t-27 -52t-17 -53l-11.5 -53q-1 -7 -2 -10q-16 -73 -16 -107q0 -89 79 -89q29 0 52 10t40 32.5t28 41t20.5 52t13 48.5l10.5 47q10 45 10 81zM423 697l-59 -137h-73l79 137h53z" />
    <glyph glyph-name="Hcircumflex" unicode="&#x124;" horiz-adv-x="556" 
d="M637 722l-153 -722h-64l73 344h-284l-73 -344h-64l153 722h64l-68 -324h284l68 324h64zM467 877l-104 -102h-67l143 139h67l83 -139h-61z" />
    <glyph glyph-name="hcircumflex" unicode="&#x125;" 
d="M460 397q0 -23 -7 -56l-72 -341h-59l67 313q11 55 11 79q0 69 -69 69q-53 0 -92.5 -43t-55.5 -121l-63 -297h-60l153 722h60l-59 -279q20 32 54.5 51t73.5 19q61 0 89.5 -31.5t28.5 -84.5zM310 877l-104 -102h-67l143 139h67l83 -139h-61z" />
    <glyph glyph-name="Hbar" unicode="&#x126;" horiz-adv-x="556" 
d="M136 0h-64l153 722h64l-38 -174h284l38 174h64l-153 -722h-64l73 344h-284zM220 398h284l21 102h-284z" />
    <glyph glyph-name="hbar" unicode="&#x127;" 
d="M121 0h-60l126 596h-54l10 48h54l17 78h60l-17 -78h124l-10 -48h-124l-32 -153h2q64 72 137 72q111 0 111 -99q0 -27 -7 -60l-75 -356h-60l75 353q4 17 4 38q0 76 -73 76q-46 0 -85 -36t-56 -114z" />
    <glyph glyph-name="Itilde" unicode="&#x128;" horiz-adv-x="222" 
d="M296 722l-153 -722h-64l153 722h64zM165 812h-38q13 40 41 69q33 33 69 33q8 0 17.5 -3t16.5 -6.5l17.5 -9l16.5 -8.5t16.5 -9l16 -9t14 -6t15.5 -3q37 0 56 54h38q-13 -41 -38 -68q-29 -34 -66 -34q-9 0 -19 3t-16.5 6t-18 9t-16.5 9q-6 3 -16 9t-16 9t-15 6t-17 3
q-18 0 -34.5 -17t-23.5 -37z" />
    <glyph glyph-name="itilde" unicode="&#x129;" horiz-adv-x="222" 
d="M247 505l-107 -505h-59l107 505h59zM113 595h-38q14 42 41 69q33 33 69 33q8 0 17.5 -3t16.5 -6.5l17.5 -9l16.5 -8.5t16.5 -9l16 -9t14 -6t15.5 -3q37 0 56 54h38q-13 -41 -38 -68q-29 -34 -66 -34q-9 0 -19 3t-16.5 6t-18 9t-16.5 9t-16 9t-17 9t-15 6t-17 3
q-19 0 -34.5 -16.5t-22.5 -37.5z" />
    <glyph glyph-name="Imacron" unicode="&#x12a;" horiz-adv-x="222" 
d="M296 722l-153 -722h-64l153 722h64zM164 865h260l-10 -48h-260z" />
    <glyph glyph-name="imacron" unicode="&#x12b;" horiz-adv-x="222" 
d="M247 505l-107 -505h-59l107 505h59zM110 648h260l-10 -48h-260z" />
    <glyph glyph-name="Ibreve" unicode="&#x12c;" horiz-adv-x="222" 
d="M296 722l-153 -722h-64l153 722h64zM151 914h39q-2 -41 21.5 -61t66.5 -20q84 0 124 81h37q-20 -63 -63 -96t-104 -33t-95 35t-26 94z" />
    <glyph glyph-name="ibreve" unicode="&#x12d;" horiz-adv-x="222" 
d="M247 505l-107 -505h-59l107 505h59zM103 697h39q-2 -41 21 -61t66 -20q85 0 125 81h37q-20 -63 -63 -96t-104 -33t-95 35t-26 94z" />
    <glyph glyph-name="Iogonek" unicode="&#x12e;" horiz-adv-x="222" 
d="M296 722l-153 -722h-64l153 722h64zM79 0l50 2v-2q-53 -23 -80.5 -54t-32.5 -56q-5 -24 10.5 -35t39.5 -11q12 0 68 17l-7 -33q-36 -19 -78 -19q-26 0 -43 2.5t-34 11t-20 25t0 43.5q17 72 127 109z" />
    <glyph glyph-name="iogonek" unicode="&#x12f;" horiz-adv-x="222" 
d="M300 722l-16 -76h-72l16 76h72zM247 505l-107 -505h-59l107 505h59zM81 0l50 2v-2q-53 -23 -80.5 -54t-32.5 -56q-5 -24 10.5 -35t39.5 -11q12 0 68 17l-7 -33q-36 -19 -78 -19q-26 0 -43 2.5t-34 11t-20 25t0 43.5q17 72 127 109z" />
    <glyph glyph-name="Idotaccent" unicode="&#x130;" horiz-adv-x="222" 
d="M296 722l-153 -722h-64l153 722h64zM246 788l21 101h64l-21 -101h-64z" />
    <glyph glyph-name="dotlessi" unicode="&#x131;" horiz-adv-x="222" 
d="M247 505l-107 -505h-59l107 505h59z" />
    <glyph glyph-name="Jcircumflex" unicode="&#x134;" 
d="M523 722l-111 -523q-24 -113 -70 -162.5t-140 -49.5q-147 0 -147 135q0 34 10 82h63q-10 -52 -10 -78q0 -85 88 -85q30 0 54 11.5t38 27t25.5 43t17 47.5t12.5 52l106 500h64zM522 877l-104 -102h-67l143 139h67l83 -139h-61z" />
    <glyph glyph-name="jcircumflex" unicode="&#x135;" horiz-adv-x="222" 
d="M252 505l-121 -571q-15 -70 -43.5 -100t-95.5 -30q-16 0 -31 3l11 52q7 -1 21 -1q38 0 54 16.5t24 55.5l122 575h59zM249 660l-104 -102h-67l143 139h67l83 -139h-61z" />
    <glyph glyph-name="Kcommaaccent" unicode="&#x136;" horiz-adv-x="500" 
d="M630 722l-342 -347l197 -375h-76l-189 370l-79 -370h-64l153 722h64l-70 -331l321 331h85zM147 -165l60 137h73l-80 -137h-53z" />
    <glyph glyph-name="kcommaaccent" unicode="&#x137;" horiz-adv-x="389" 
d="M476 505l-229 -231l134 -274h-69l-131 275l-58 -275h-59l153 722h59l-93 -440l218 223h75zM98 -165l60 137h73l-80 -137h-53z" />
    <glyph glyph-name="kgreenlandic" unicode="&#x138;" horiz-adv-x="389" 
d="M381 0h-66l-137 263l-55 -263h-59l107 505h59l-50 -235l224 235h72l-232 -241z" />
    <glyph glyph-name="Lacute" unicode="&#x139;" horiz-adv-x="389" 
d="M381 54l-11 -54h-303l153 722h64l-142 -668h239zM215 777l137 137h85l-167 -137h-55z" />
    <glyph glyph-name="lacute" unicode="&#x13a;" horiz-adv-x="222" 
d="M293 722l-153 -722h-59l153 722h59zM209 777l137 137h85l-167 -137h-55z" />
    <glyph glyph-name="Lcommaaccent" unicode="&#x13b;" horiz-adv-x="389" 
d="M381 54l-11 -54h-303l153 722h64l-142 -668h239zM115 -165l60 137h73l-80 -137h-53z" />
    <glyph glyph-name="lcommaaccent" unicode="&#x13c;" horiz-adv-x="222" 
d="M293 722l-153 -722h-59l153 722h59zM14 -165l60 137h73l-80 -137h-53z" />
    <glyph glyph-name="Lcaron" unicode="&#x13d;" horiz-adv-x="389" 
d="M381 54l-11 -54h-303l153 722h64l-142 -668h239zM301 585l59 137h73l-79 -137h-53z" />
    <glyph glyph-name="lcaron" unicode="&#x13e;" horiz-adv-x="222" 
d="M293 722l-153 -722h-59l153 722h59zM299 585l59 137h73l-79 -137h-53z" />
    <glyph glyph-name="Ldot" unicode="&#x13f;" horiz-adv-x="389" 
d="M381 54l-11 -54h-303l153 722h64l-142 -668h239zM309 341l21 101h64l-21 -101h-64z" />
    <glyph glyph-name="ldot" unicode="&#x140;" horiz-adv-x="311" 
d="M293 722l-153 -722h-59l153 722h59zM309 341l21 101h64l-21 -101h-64z" />
    <glyph glyph-name="Lslash" unicode="&#x141;" horiz-adv-x="389" 
d="M67 0l79 374l-86 -44l-13 35l109 56l64 301h64l-56 -264l111 57l13 -35l-134 -69l-76 -357h239l-11 -54h-303z" />
    <glyph glyph-name="lslash" unicode="&#x142;" horiz-adv-x="222" 
d="M81 0l83 394l-90 -46l-11 29l110 57l61 288h60l-54 -253l90 46l12 -29l-110 -57l-91 -429h-60z" />
    <glyph glyph-name="Nacute" unicode="&#x143;" horiz-adv-x="611" 
d="M688 722l-153 -722h-95l-163 650l-138 -650h-63l153 722h94l164 -650l138 650h63zM412 777l137 137h85l-167 -137h-55z" />
    <glyph glyph-name="nacute" unicode="&#x144;" 
d="M465 399q0 -23 -6 -49l-74 -350h-60l74 347q4 19 4 40q0 73 -69 73q-55 0 -94.5 -45.5t-56.5 -127.5l-61 -287h-59l107 505h55l-15 -70q57 76 135 76q61 0 90.5 -30t29.5 -82zM269 560l137 137h85l-167 -137h-55z" />
    <glyph glyph-name="Ncommaaccent" unicode="&#x145;" horiz-adv-x="611" 
d="M688 722l-153 -722h-95l-163 650l-138 -650h-63l153 722h94l164 -650l138 650h63zM211 -165l60 137h73l-80 -137h-53z" />
    <glyph glyph-name="ncommaaccent" unicode="&#x146;" 
d="M465 399q0 -23 -6 -49l-74 -350h-60l74 347q4 19 4 40q0 73 -69 73q-55 0 -94.5 -45.5t-56.5 -127.5l-61 -287h-59l107 505h55l-15 -70q57 76 135 76q61 0 90.5 -30t29.5 -82zM123 -165l60 137h73l-80 -137h-53z" />
    <glyph glyph-name="Ncaron" unicode="&#x147;" horiz-adv-x="611" 
d="M688 722l-153 -722h-95l-163 650l-138 -650h-63l153 722h94l164 -650l138 650h63zM481 812l104 102h67l-143 -139h-67l-83 139h61z" />
    <glyph glyph-name="ncaron" unicode="&#x148;" 
d="M465 399q0 -23 -6 -49l-74 -350h-60l74 347q4 19 4 40q0 73 -69 73q-55 0 -94.5 -45.5t-56.5 -127.5l-61 -287h-59l107 505h55l-15 -70q57 76 135 76q61 0 90.5 -30t29.5 -82zM346 595l104 102h67l-143 -139h-67l-83 139h61z" />
    <glyph glyph-name="Eng" unicode="&#x14a;" horiz-adv-x="611" 
d="M374 -200q-20 0 -34 3l12 56q6 -1 22 -1q41 0 58 18t26 60l14 64h-29l-166 650l-138 -650h-63l153 722h94l164 -650l138 650h63l-166 -782q-16 -75 -46.5 -107.5t-101.5 -32.5z" />
    <glyph glyph-name="eng" unicode="&#x14b;" 
d="M232 -196q-17 0 -32 3l12 52q6 -1 20 -1q38 0 54 16.5t24 55.5l88 417q5 23 5 40q0 73 -70 73q-55 0 -94 -45t-56 -128l-61 -287h-59l107 505h55l-15 -70q56 76 144 76q112 0 112 -105q0 -21 -7 -56l-89 -416q-15 -70 -43 -100t-95 -30z" />
    <glyph glyph-name="Omacron" unicode="&#x14c;" horiz-adv-x="556" 
d="M593 457l-31 -147q-16 -76 -35 -129t-51 -100.5t-80.5 -71t-115.5 -23.5q-112 0 -151.5 72.5t-12.5 201.5l52 245q22 102 88.5 168.5t167.5 66.5q62 0 103 -23t57.5 -61.5t19.5 -90t-11 -108.5zM526 448q11 52 13.5 89.5t-5 73.5t-35.5 55t-76 19q-40 0 -71.5 -14
t-52 -35.5t-37 -54t-25 -61.5t-16.5 -66l-38 -182q-27 -119 -3.5 -175.5t106.5 -56.5q118 0 171 130q21 50 50 188zM330 865h260l-10 -48h-260z" />
    <glyph glyph-name="omacron" unicode="&#x14d;" 
d="M471 384q0 -38 -11 -87l-21 -100q-23 -109 -68.5 -159.5t-145.5 -50.5q-144 0 -144 136q0 36 9 78l21 100q23 108 69 161t146 53q78 0 111.5 -34t33.5 -97zM410 378q0 89 -85 89q-38 0 -66.5 -15t-45.5 -44t-27 -57.5t-18 -68.5l-13 -63q-14 -64 -14 -94q0 -91 92 -91
q23 0 42 7t32.5 16t25.5 27t18.5 31t14 37.5t10.5 36.5t8 37l15 70q11 53 11 82zM229 648h260l-10 -48h-260z" />
    <glyph glyph-name="Obreve" unicode="&#x14e;" horiz-adv-x="556" 
d="M593 457l-31 -147q-16 -76 -35 -129t-51 -100.5t-80.5 -71t-115.5 -23.5q-112 0 -151.5 72.5t-12.5 201.5l52 245q22 102 88.5 168.5t167.5 66.5q62 0 103 -23t57.5 -61.5t19.5 -90t-11 -108.5zM526 448q11 52 13.5 89.5t-5 73.5t-35.5 55t-76 19q-40 0 -71.5 -14
t-52 -35.5t-37 -54t-25 -61.5t-16.5 -66l-38 -182q-27 -119 -3.5 -175.5t106.5 -56.5q118 0 171 130q21 50 50 188zM327 914h39q-2 -41 21.5 -61t66.5 -20q84 0 124 81h37q-20 -63 -63 -96t-104 -33t-95 35t-26 94z" />
    <glyph glyph-name="obreve" unicode="&#x14f;" 
d="M471 384q0 -38 -11 -87l-21 -100q-23 -109 -68.5 -159.5t-145.5 -50.5q-144 0 -144 136q0 36 9 78l21 100q23 108 69 161t146 53q78 0 111.5 -34t33.5 -97zM410 378q0 89 -85 89q-38 0 -66.5 -15t-45.5 -44t-27 -57.5t-18 -68.5l-13 -63q-14 -64 -14 -94q0 -91 92 -91
q23 0 42 7t32.5 16t25.5 27t18.5 31t14 37.5t10.5 36.5t8 37l15 70q11 53 11 82zM226 697h39q-2 -41 21 -61t66 -20q84 0 125 81h37q-20 -63 -63 -96t-104 -33t-95 35t-26 94z" />
    <glyph glyph-name="Ohungarumlaut" unicode="&#x150;" horiz-adv-x="556" 
d="M593 457l-31 -147q-16 -76 -35 -129t-51 -100.5t-80.5 -71t-115.5 -23.5q-112 0 -151.5 72.5t-12.5 201.5l52 245q22 102 88.5 168.5t167.5 66.5q62 0 103 -23t57.5 -61.5t19.5 -90t-11 -108.5zM526 448q11 52 13.5 89.5t-5 73.5t-35.5 55t-76 19q-40 0 -71.5 -14
t-52 -35.5t-37 -54t-25 -61.5t-16.5 -66l-38 -182q-27 -119 -3.5 -175.5t106.5 -56.5q118 0 171 130q21 50 50 188zM336 777l142 137h80l-172 -137h-50zM466 777l142 137h80l-172 -137h-50z" />
    <glyph glyph-name="ohungarumlaut" unicode="&#x151;" 
d="M471 384q0 -38 -11 -87l-21 -100q-23 -109 -68.5 -159.5t-145.5 -50.5q-144 0 -144 136q0 36 9 78l21 100q23 108 69 161t146 53q78 0 111.5 -34t33.5 -97zM410 378q0 89 -85 89q-38 0 -66.5 -15t-45.5 -44t-27 -57.5t-18 -68.5l-13 -63q-14 -64 -14 -94q0 -91 92 -91
q23 0 42 7t32.5 16t25.5 27t18.5 31t14 37.5t10.5 36.5t8 37l15 70q11 53 11 82zM243 560l142 137h80l-172 -137h-50zM373 560l142 137h80l-172 -137h-50z" />
    <glyph glyph-name="OE" unicode="&#x152;" horiz-adv-x="778" 
d="M418 53l130 611q-84 8 -105 8q-41 0 -71.5 -7.5t-53.5 -27t-39 -41t-30 -62.5t-23.5 -77.5t-22.5 -98.5l-13 -64t-9.5 -56t-4.5 -50t2.5 -41.5t10 -35t20 -26t31 -20t44 -11t57.5 -4.5q12 0 24.5 0.5t28 1.5t24.5 1zM613 668l-57 -270h249l-12 -54h-249l-62 -290h267
l-11 -54h-331q-15 0 -43 -2q-32 -2 -53 -2q-155 0 -190 78q-26 58 1 201l18 86q28 133 44 178q55 148 185 179q36 8 79 8q19 0 65 -2t47 -2h324l-11 -54h-260z" />
    <glyph glyph-name="oe" unicode="&#x153;" horiz-adv-x="722" 
d="M220 -10q-93 0 -122.5 52.5t-7.5 155.5l26 120q6 27 11 46t20.5 50.5t36.5 50.5t59.5 34.5t87.5 15.5q55 0 84.5 -21t40.5 -67q55 88 153 88q29 0 51 -5t37.5 -12t26 -21.5t16.5 -26.5t7 -34t1 -37.5t-4.5 -44t-8 -45l-10.5 -49.5h-288l-8 -39q-6 -37 -7.5 -73.5
t20.5 -63t66 -26.5q55 0 90 31.5t46 84.5h63q-44 -164 -209 -164q-45 0 -77 15.5t-45 62.5q-36 -46 -68.5 -62t-87.5 -16zM230 38q77 0 116 67q18 28 44 148q27 112 14 163t-83 51q-71 0 -102.5 -47t-56.5 -167q-25 -115 -20 -148q0 -1 1 -6.5t2 -9t4 -10.5t7 -12t10.5 -11
t15 -9.5t21 -6t27.5 -2.5zM447 288h228q22 84 7 131.5t-83 47.5q-67 0 -99.5 -43.5t-52.5 -135.5z" />
    <glyph glyph-name="Racute" unicode="&#x154;" horiz-adv-x="500" 
d="M566 604q0 -28 -7 -60q-17 -82 -49.5 -117.5t-100.5 -50.5q81 -10 81 -85q0 -17 -5 -40l-31 -166l-11 -85h-65q6 58 8 68l5 32l26 134q6 32 6 53q0 36 -25.5 49.5t-95.5 13.5h-96l-74 -350h-64l153 722h164q94 0 137.5 -27t43.5 -91zM500 593q0 46 -32 60.5t-102 14.5
h-92l-56 -264h82q45 0 72.5 4.5t54 19t42.5 45t27 80.5q4 20 4 40zM333 777l137 137h85l-167 -137h-55z" />
    <glyph glyph-name="racute" unicode="&#x155;" horiz-adv-x="278" 
d="M375 512l-13 -58q-2 0 -7 0.5t-8 0.5q-57 0 -97.5 -34.5t-53.5 -95.5l-69 -325h-60l90 422l15 83h57l-15 -73q63 80 150 80h11zM186 560l137 137h85l-167 -137h-55z" />
    <glyph glyph-name="Rcommaaccent" unicode="&#x156;" horiz-adv-x="500" 
d="M566 604q0 -28 -7 -60q-17 -82 -49.5 -117.5t-100.5 -50.5q81 -10 81 -85q0 -17 -5 -40l-31 -166l-11 -85h-65q6 58 8 68l5 32l26 134q6 32 6 53q0 36 -25.5 49.5t-95.5 13.5h-96l-74 -350h-64l153 722h164q94 0 137.5 -27t43.5 -91zM500 593q0 46 -32 60.5t-102 14.5
h-92l-56 -264h82q45 0 72.5 4.5t54 19t42.5 45t27 80.5q4 20 4 40zM155 -165l60 137h73l-80 -137h-53z" />
    <glyph glyph-name="rcommaaccent" unicode="&#x157;" horiz-adv-x="278" 
d="M375 512l-13 -58q-2 0 -7 0.5t-8 0.5q-57 0 -97.5 -34.5t-53.5 -95.5l-69 -325h-60l90 422l15 83h57l-15 -73q63 80 150 80h11zM-1 -165l60 137h73l-80 -137h-53z" />
    <glyph glyph-name="Rcaron" unicode="&#x158;" horiz-adv-x="500" 
d="M566 604q0 -28 -7 -60q-17 -82 -49.5 -117.5t-100.5 -50.5q81 -10 81 -85q0 -17 -5 -40l-31 -166l-11 -85h-65q6 58 8 68l5 32l26 134q6 32 6 53q0 36 -25.5 49.5t-95.5 13.5h-96l-74 -350h-64l153 722h164q94 0 137.5 -27t43.5 -91zM500 593q0 46 -32 60.5t-102 14.5
h-92l-56 -264h82q45 0 72.5 4.5t54 19t42.5 45t27 80.5q4 20 4 40zM405 812l104 102h67l-143 -139h-67l-83 139h61z" />
    <glyph glyph-name="rcaron" unicode="&#x159;" horiz-adv-x="278" 
d="M375 512l-13 -58q-2 0 -7 0.5t-8 0.5q-57 0 -97.5 -34.5t-53.5 -95.5l-69 -325h-60l90 422l15 83h57l-15 -73q63 80 150 80h11zM255 595l104 102h67l-143 -139h-67l-83 139h61z" />
    <glyph glyph-name="Sacute" unicode="&#x15a;" horiz-adv-x="500" 
d="M565 599q0 -21 -8 -63h-65q7 37 7 58q0 42 -23.5 63t-78.5 21q-73 0 -113 -38t-40 -106q0 -63 85 -122l30.5 -20.5t33 -23l28.5 -22.5t28.5 -27.5t20 -28.5t16 -35t4.5 -39q0 -108 -59 -168t-171 -60q-172 0 -172 145q0 27 9 67h66q-9 -39 -9 -68q0 -45 25.5 -67.5
t84.5 -22.5q76 0 116 46.5t40 123.5q0 31 -18.5 55t-66.5 55q-79 53 -102 74q-56 55 -56 132q0 98 59.5 151.5t163.5 53.5q81 0 123 -39t42 -95zM343 777l137 137h85l-167 -137h-55z" />
    <glyph glyph-name="sacute" unicode="&#x15b;" horiz-adv-x="389" 
d="M425 414q0 -22 -6 -47h-59q5 20 5 38q0 60 -69 60q-42 0 -70 -26.5t-28 -68.5q0 -11 4.5 -21t9 -16.5t15.5 -15.5t16.5 -12.5t19.5 -11.5t17 -10q47 -28 71.5 -56t25.5 -70q2 -80 -42.5 -125t-125.5 -45q-139 0 -139 107q0 24 5 54h61q-5 -32 -5 -49q0 -35 17.5 -50.5
t55.5 -15.5q48 0 78 30.5t30 78.5q0 47 -63 83q-53 31 -83 63.5t-30 79.5q0 69 45.5 107t117.5 38q126 0 126 -99zM244 560l137 137h85l-167 -137h-55z" />
    <glyph glyph-name="Scircumflex" unicode="&#x15c;" horiz-adv-x="500" 
d="M565 599q0 -21 -8 -63h-65q7 37 7 58q0 42 -23.5 63t-78.5 21q-73 0 -113 -38t-40 -106q0 -63 85 -122l30.5 -20.5t33 -23l28.5 -22.5t28.5 -27.5t20 -28.5t16 -35t4.5 -39q0 -108 -59 -168t-171 -60q-172 0 -172 145q0 27 9 67h66q-9 -39 -9 -68q0 -45 25.5 -67.5
t84.5 -22.5q76 0 116 46.5t40 123.5q0 31 -18.5 55t-66.5 55q-79 53 -102 74q-56 55 -56 132q0 98 59.5 151.5t163.5 53.5q81 0 123 -39t42 -95zM440 877l-104 -102h-67l143 139h67l83 -139h-61z" />
    <glyph glyph-name="scircumflex" unicode="&#x15d;" horiz-adv-x="389" 
d="M425 414q0 -22 -6 -47h-59q5 20 5 38q0 60 -69 60q-42 0 -70 -26.5t-28 -68.5q0 -11 4.5 -21t9 -16.5t15.5 -15.5t16.5 -12.5t19.5 -11.5t17 -10q47 -28 71.5 -56t25.5 -70q2 -80 -42.5 -125t-125.5 -45q-139 0 -139 107q0 24 5 54h61q-5 -32 -5 -49q0 -35 17.5 -50.5
t55.5 -15.5q48 0 78 30.5t30 78.5q0 47 -63 83q-53 31 -83 63.5t-30 79.5q0 69 45.5 107t117.5 38q126 0 126 -99zM336 660l-104 -102h-67l143 139h67l83 -139h-61z" />
    <glyph glyph-name="Scedilla" unicode="&#x15e;" horiz-adv-x="500" 
d="M113 -188l20 30q38 -14 61 -14q27 0 51 12t24 38q0 16 -12.5 25.5t-29.5 9.5q-24 0 -40 -10l-17 15l67 71q-149 10 -149 144q0 27 9 67h66q-9 -39 -9 -68q0 -45 25.5 -67.5t84.5 -22.5q76 0 116 46.5t40 123.5q0 31 -18.5 55t-66.5 55q-79 53 -102 74q-56 55 -56 132
q0 98 59.5 151.5t163.5 53.5q81 0 123 -39t42 -95q0 -21 -8 -63h-65q7 37 7 58q0 42 -23.5 63t-78.5 21q-73 0 -113 -38t-40 -106q0 -63 85 -122l30.5 -20.5t33 -23l28.5 -22.5t28.5 -27.5t20 -28.5t16 -35t4.5 -39q0 -105 -55 -164.5t-161 -63.5l-41 -43l1 -2q12 5 31 5
q27 0 46 -17t19 -46q0 -47 -38 -69.5t-89 -22.5q-49 0 -90 19z" />
    <glyph glyph-name="scedilla" unicode="&#x15f;" horiz-adv-x="389" 
d="M51 -188l20 30q38 -14 61 -14q27 0 51 12t24 38q0 16 -12.5 25.5t-29.5 9.5q-24 0 -40 -10l-17 15l67 71q-105 12 -105 105q0 24 5 54h61q-5 -32 -5 -49q0 -35 17.5 -50.5t55.5 -15.5q48 0 78 30.5t30 78.5q0 47 -63 83q-53 31 -83 63.5t-30 79.5q0 69 45.5 107t117.5 38
q126 0 126 -99q0 -22 -6 -47h-59q5 20 5 38q0 60 -69 60q-42 0 -70 -26.5t-28 -68.5q0 -11 4.5 -21t9 -16.5t15.5 -15.5t16.5 -12.5t19.5 -11.5t17 -10q47 -28 71.5 -56t25.5 -70q2 -79 -41.5 -124t-124.5 -46l-40 -42l1 -2q12 5 31 5q27 0 46 -17t19 -46q0 -47 -38 -69.5
t-89 -22.5q-49 0 -90 19z" />
    <glyph glyph-name="Scaron" unicode="&#x160;" horiz-adv-x="500" 
d="M575 599q0 -21 -8 -63h-65q7 37 7 58q0 42 -23.5 63t-78.5 21q-73 0 -113 -38t-40 -106q0 -63 85 -122l30.5 -20.5t33 -23l28.5 -22.5t28.5 -27.5t20 -28.5t16 -35t4.5 -39q0 -108 -59 -168t-171 -60q-172 0 -172 145q0 27 9 67h66q-9 -39 -9 -68q0 -45 25.5 -67.5
t84.5 -22.5q76 0 116 46.5t40 123.5q0 31 -18.5 55t-66.5 55q-79 53 -102 74q-56 55 -56 132q0 98 59.5 151.5t163.5 53.5q81 0 123 -39t42 -95zM420 812l104 102h67l-143 -139h-67l-83 139h61z" />
    <glyph glyph-name="scaron" unicode="&#x161;" horiz-adv-x="389" 
d="M425 414q0 -22 -6 -47h-59q5 20 5 38q0 60 -69 60q-42 0 -70 -26.5t-28 -68.5q0 -11 4.5 -21t9 -16.5t15.5 -15.5t16.5 -12.5t19.5 -11.5t17 -10q47 -28 71.5 -56t25.5 -70q2 -80 -42.5 -125t-125.5 -45q-139 0 -139 107q0 24 5 54h61q-5 -32 -5 -49q0 -35 17.5 -50.5
t55.5 -15.5q48 0 78 30.5t30 78.5q0 47 -63 83q-53 31 -83 63.5t-30 79.5q0 69 45.5 107t117.5 38q126 0 126 -99zM319 595l104 102h67l-143 -139h-67l-83 139h61z" />
    <glyph glyph-name="Tcommaaccent" unicode="&#x162;" 
d="M582 722l-11 -54h-175l-142 -668h-64l142 668h-175l11 54h414zM120 -165l60 137h73l-80 -137h-53z" />
    <glyph glyph-name="tcommaaccent" unicode="&#x163;" horiz-adv-x="278" 
d="M366 505l-10 -48h-102l-72 -339q-4 -17 -4 -34q0 -19 11.5 -27t39.5 -8q21 0 41 4l-11 -53q-19 -3 -54 -3q-44 0 -67 19.5t-23 53.5q0 12 3 24l77 363h-82l10 48h82l22 104l65 26l-28 -130h102zM53 -165l60 137h73l-80 -137h-53z" />
    <glyph glyph-name="Tcaron" unicode="&#x164;" 
d="M582 722l-11 -54h-175l-142 -668h-64l142 668h-175l11 54h414zM392 812l104 102h67l-143 -139h-67l-83 139h61z" />
    <glyph glyph-name="tcaron" unicode="&#x165;" horiz-adv-x="278" 
d="M366 505l-10 -48h-102l-72 -339q-4 -17 -4 -34q0 -19 11.5 -27t39.5 -8q21 0 41 4l-11 -53q-19 -3 -54 -3q-44 0 -67 19.5t-23 53.5q0 12 3 24l77 363h-82l10 48h82l22 104l65 26l-28 -130h102zM318 585l59 137h73l-79 -137h-53z" />
    <glyph glyph-name="Tbar" unicode="&#x166;" 
d="M176 398h98l57 270h-176l12 54h416l-12 -54h-176l-57 -270h98l-10 -48h-98l-74 -350h-64l74 350h-98z" />
    <glyph glyph-name="tbar" unicode="&#x167;" horiz-adv-x="278" 
d="M96 379h82l17 78h-82l10 48h82l22 104l65 26l-28 -130h102l-10 -48h-102l-17 -78h102l-10 -48h-102l-45 -213q-4 -17 -4 -34q0 -19 11.5 -27t39.5 -8q21 0 41 4l-11 -53q-19 -3 -54 -3q-44 0 -67 19.5t-23 53.5q0 12 3 24l50 237h-82z" />
    <glyph glyph-name="Utilde" unicode="&#x168;" horiz-adv-x="556" 
d="M640 722l-98 -465q-13 -59 -28.5 -101t-43.5 -84t-75 -64t-111 -22q-89 0 -133 45t-44 124q0 35 9 76l104 491h64l-108 -510q-6 -30 -6 -54q0 -57 30.5 -87.5t87.5 -30.5q144 0 186 201l102 481h64zM332 812h-38q13 40 41 69q33 33 69 33q8 0 17.5 -3t16.5 -6.5l17.5 -9
l16.5 -8.5t16.5 -9l16 -9t14 -6t15.5 -3q37 0 56 54h38q-13 -41 -38 -68q-29 -34 -66 -34q-9 0 -19 3t-16.5 6t-18 9t-16.5 9q-6 3 -16 9t-16 9t-15 6t-17 3q-18 0 -34.5 -17t-23.5 -37z" />
    <glyph glyph-name="utilde" unicode="&#x169;" 
d="M486 505l-92 -434q-3 -14 -7.5 -39t-5.5 -32h-59l12 56q-47 -66 -130 -66q-57 0 -85 31t-28 84q0 25 6 50l74 350h60l-76 -361q-4 -16 -4 -33q0 -70 69 -70q48 0 84.5 35.5t49.5 94.5l71 334h61zM230 595h-38q14 42 41 69q33 33 69 33q8 0 17.5 -3t16.5 -6.5l17.5 -9
l16.5 -8.5t16.5 -9l16 -9t14 -6t15.5 -3q37 0 56 54h38q-13 -41 -38 -68q-29 -34 -66 -34q-9 0 -19 3t-16.5 6t-18 9t-16.5 9t-16 9t-17 9t-15 6t-17 3q-19 0 -34.5 -16.5t-22.5 -37.5z" />
    <glyph glyph-name="Umacron" unicode="&#x16a;" horiz-adv-x="556" 
d="M640 722l-98 -465q-13 -59 -28.5 -101t-43.5 -84t-75 -64t-111 -22q-89 0 -133 45t-44 124q0 35 9 76l104 491h64l-108 -510q-6 -30 -6 -54q0 -57 30.5 -87.5t87.5 -30.5q144 0 186 201l102 481h64zM331 865h260l-10 -48h-260z" />
    <glyph glyph-name="umacron" unicode="&#x16b;" 
d="M486 505l-92 -434q-3 -14 -7.5 -39t-5.5 -32h-59l12 56q-47 -66 -130 -66q-57 0 -85 31t-28 84q0 25 6 50l74 350h60l-76 -361q-4 -16 -4 -33q0 -70 69 -70q48 0 84.5 35.5t49.5 94.5l71 334h61zM229 648h260l-10 -48h-260z" />
    <glyph glyph-name="Ubreve" unicode="&#x16c;" horiz-adv-x="556" 
d="M640 722l-98 -465q-13 -59 -28.5 -101t-43.5 -84t-75 -64t-111 -22q-89 0 -133 45t-44 124q0 35 9 76l104 491h64l-108 -510q-6 -30 -6 -54q0 -57 30.5 -87.5t87.5 -30.5q144 0 186 201l102 481h64zM328 914h39q-2 -41 21.5 -61t66.5 -20q83 0 124 81h37q-20 -63 -63 -96
t-104 -33t-95 35t-26 94z" />
    <glyph glyph-name="ubreve" unicode="&#x16d;" 
d="M486 505l-92 -434q-3 -14 -7.5 -39t-5.5 -32h-59l12 56q-47 -66 -130 -66q-57 0 -85 31t-28 84q0 25 6 50l74 350h60l-76 -361q-4 -16 -4 -33q0 -70 69 -70q48 0 84.5 35.5t49.5 94.5l71 334h61zM226 697h39q-2 -41 21 -61t66 -20q84 0 125 81h37q-20 -63 -63 -96
t-104 -33t-95 35t-26 94z" />
    <glyph glyph-name="Uring" unicode="&#x16e;" horiz-adv-x="556" 
d="M640 722l-98 -465q-13 -59 -28.5 -101t-43.5 -84t-75 -64t-111 -22q-89 0 -133 45t-44 124q0 35 9 76l104 491h64l-108 -510q-6 -30 -6 -54q0 -57 30.5 -87.5t87.5 -30.5q144 0 186 201l102 481h64zM474 953q38 0 59 -22.5t21 -55.5q0 -45 -31 -77t-77 -32
q-36 0 -58.5 22.5t-22.5 59.5q0 42 33 73.5t76 31.5zM473 918q-28 0 -50 -19.5t-22 -50.5q0 -20 13.5 -33.5t33.5 -13.5q29 0 49.5 22t20.5 49q0 20 -12.5 33t-32.5 13z" />
    <glyph glyph-name="uring" unicode="&#x16f;" 
d="M486 505l-92 -434q-3 -14 -7.5 -39t-5.5 -32h-59l12 56q-47 -66 -130 -66q-57 0 -85 31t-28 84q0 25 6 50l74 350h60l-76 -361q-4 -16 -4 -33q0 -70 69 -70q48 0 84.5 35.5t49.5 94.5l71 334h61zM372 736q38 0 59 -22.5t21 -55.5q0 -45 -31 -77t-77 -32q-36 0 -58.5 22.5
t-22.5 59.5q0 42 33 73.5t76 31.5zM371 701q-28 0 -50 -19.5t-22 -50.5q0 -20 13.5 -33.5t33.5 -13.5q29 0 49.5 22t20.5 49q0 20 -12.5 33t-32.5 13z" />
    <glyph glyph-name="Uhungarumlaut" unicode="&#x170;" horiz-adv-x="556" 
d="M640 722l-98 -465q-13 -59 -28.5 -101t-43.5 -84t-75 -64t-111 -22q-89 0 -133 45t-44 124q0 35 9 76l104 491h64l-108 -510q-6 -30 -6 -54q0 -57 30.5 -87.5t87.5 -30.5q144 0 186 201l102 481h64zM336 777l142 137h80l-172 -137h-50zM466 777l142 137h80l-172 -137h-50
z" />
    <glyph glyph-name="uhungarumlaut" unicode="&#x171;" 
d="M486 505l-92 -434q-3 -14 -7.5 -39t-5.5 -32h-59l12 56q-47 -66 -130 -66q-57 0 -85 31t-28 84q0 25 6 50l74 350h60l-76 -361q-4 -16 -4 -33q0 -70 69 -70q48 0 84.5 35.5t49.5 94.5l71 334h61zM233 560l142 137h80l-172 -137h-50zM363 560l142 137h80l-172 -137h-50z
" />
    <glyph glyph-name="Uogonek" unicode="&#x172;" horiz-adv-x="556" 
d="M640 722l-98 -465q-12 -54 -25.5 -92.5t-37 -78.5t-60.5 -64t-88 -32q-43 -22 -65 -50t-26 -50q-5 -24 10.5 -35t39.5 -11q12 0 68 17l-7 -33q-36 -19 -78 -19q-26 0 -43 2.5t-34 11t-20 25t0 43.5q13 58 92 96q-81 4 -121 48.5t-40 119.5q0 35 9 76l104 491h64
l-108 -510q-6 -30 -6 -54q0 -57 30.5 -87.5t87.5 -30.5q144 0 186 201l102 481h64z" />
    <glyph glyph-name="uogonek" unicode="&#x173;" 
d="M486 505l-92 -434q-3 -14 -7.5 -39t-5.5 -32h-59l12 56q-47 -66 -130 -66q-57 0 -85 31t-28 84q0 25 6 50l74 350h60l-76 -361q-4 -16 -4 -33q0 -70 69 -70q48 0 84.5 35.5t49.5 94.5l71 334h61zM322 0l50 2v-2q-53 -23 -80.5 -54t-32.5 -56q-5 -24 10.5 -35t39.5 -11
q12 0 68 17l-7 -33q-36 -19 -78 -19q-26 0 -43 2.5t-34 11t-20 25t0 43.5q17 72 127 109z" />
    <glyph glyph-name="Wcircumflex" unicode="&#x174;" horiz-adv-x="833" 
d="M976 722l-332 -722h-82l-10 642l-286 -642h-82l-21 722h65l12 -637l283 637h87l11 -633l289 633h66zM603 877l-104 -102h-67l143 139h67l83 -139h-61z" />
    <glyph glyph-name="wcircumflex" unicode="&#x175;" horiz-adv-x="667" 
d="M764 505l-246 -505h-75l-21 429l-198 -429h-75l-32 505h60l22 -436l200 436h74l21 -436l206 436h64zM475 660l-104 -102h-67l143 139h67l83 -139h-61z" />
    <glyph glyph-name="Ycircumflex" unicode="&#x176;" horiz-adv-x="500" 
d="M641 722l-297 -432l-62 -290h-64l62 290l-113 432h68l89 -359l249 359h68zM439 877l-104 -102h-67l143 139h67l83 -139h-61z" />
    <glyph glyph-name="ycircumflex" unicode="&#x177;" horiz-adv-x="389" 
d="M485 505l-357 -697h-62l102 196l-51 501h61l36 -414l208 414h63zM342 660l-104 -102h-67l143 139h67l83 -139h-61z" />
    <glyph glyph-name="Ydieresis" unicode="&#x178;" horiz-adv-x="500" 
d="M641 722l-297 -432l-62 -290h-64l62 290l-113 432h68l89 -359l249 359h68zM305 788l21 101h64l-21 -101h-64zM463 788l21 101h64l-21 -101h-64z" />
    <glyph glyph-name="Zacute" unicode="&#x179;" 
d="M569 722l-14 -66l-450 -602h325l-11 -54h-396l12 58l457 610h-308l11 54h374zM323 777l137 137h85l-167 -137h-55z" />
    <glyph glyph-name="zacute" unicode="&#x17a;" horiz-adv-x="333" 
d="M406 505l-12 -57l-284 -400h204l-10 -48h-275l10 49l295 408h-196l10 48h258zM224 560l137 137h85l-167 -137h-55z" />
    <glyph glyph-name="Zdotaccent" unicode="&#x17b;" 
d="M569 722l-14 -66l-450 -602h325l-11 -54h-396l12 58l457 610h-308l11 54h374zM362 788l21 101h64l-21 -101h-64z" />
    <glyph glyph-name="zdotaccent" unicode="&#x17c;" horiz-adv-x="333" 
d="M406 505l-12 -57l-284 -400h204l-10 -48h-275l10 49l295 408h-196l10 48h258zM263 571l21 101h64l-21 -101h-64z" />
    <glyph glyph-name="Zcaron" unicode="&#x17d;" 
d="M569 722l-14 -66l-450 -602h325l-11 -54h-396l12 58l457 610h-308l11 54h374zM392 812l104 102h67l-143 -139h-67l-83 139h61z" />
    <glyph glyph-name="zcaron" unicode="&#x17e;" horiz-adv-x="333" 
d="M406 505l-12 -57l-284 -400h204l-10 -48h-275l10 49l295 408h-196l10 48h258zM292 595l104 102h67l-143 -139h-67l-83 139h61z" />
    <glyph glyph-name="florin" unicode="&#x192;" 
d="M530 741l-21 -56q-13 7 -31 7q-42 0 -66 -41q-24 -42 -60 -159h92l-17 -48h-92l-140 -417q-41 -122 -77 -159q-40 -42 -108 -42q-6 0 -20 2l19 53q8 -2 10 -2q42 0 66 34q10 14 19.5 35t14.5 36l13.5 41.5t11.5 34.5l129 384h-82l18 48h80q40 139 81 196q44 59 118 59
q16 0 42 -6z" />
    <glyph glyph-name="Aringacute" unicode="&#x1fa;" horiz-adv-x="556" 
d="M457 875q38 0 59 -22.5t21 -55.5t-18 -60t-47 -40l70 -697h-62l-18 190h-283l-97 -190h-69l369 700q-34 23 -34 70q0 42 33 73.5t76 31.5zM457 244l-37 408l-210 -408h247zM456 840q-28 0 -50 -19.5t-22 -50.5q0 -20 13.5 -33.5t33.5 -13.5q29 0 49.5 22t20.5 49
q0 20 -12.5 33t-32.5 13zM431 894l142 137h80l-172 -137h-50z" />
    <glyph glyph-name="aringacute" unicode="&#x1fb;" 
d="M464 410q0 -20 -4 -39l-56 -263l-12 -64l-6 -44h-60l13 68q-64 -75 -150 -75q-57 0 -90.5 30t-33.5 82q0 54 21 92.5t50.5 59t77 32t83.5 14.5t88 4l13 62q4 16 4 32q0 66 -83 66q-47 0 -78 -21.5t-39 -61.5l-1 -2h-65q11 68 62 100.5t126 32.5q140 0 140 -105zM376 260
q-9 1 -20 1q-45 0 -79.5 -5t-70.5 -19.5t-56 -45.5t-20 -78q0 -35 19 -54t54 -19q56 0 101 43t58 106q8 39 14 71zM372 736q38 0 59 -22.5t21 -55.5q0 -45 -31 -77t-77 -32q-36 0 -58.5 22.5t-22.5 59.5q0 42 33 73.5t76 31.5zM371 701q-28 0 -50 -19.5t-22 -50.5
q0 -20 13.5 -33.5t33.5 -13.5q29 0 49.5 22t20.5 49q0 20 -12.5 33t-32.5 13zM324 760l137 137h85l-167 -137h-55z" />
    <glyph glyph-name="AEacute" unicode="&#x1fc;" horiz-adv-x="778" 
d="M79 0h-66l484 722h387l-11 -54h-286l-31 -270h248l-12 -54h-243l-37 -290h241l-11 -54h-301l24 190h-259zM523 674l-280 -430h229l53 430h-2zM529 777l137 137h85l-167 -137h-55z" />
    <glyph glyph-name="aeacute" unicode="&#x1fd;" horiz-adv-x="722" 
d="M131 136q-11 -49 13 -73.5t75 -24.5q38 0 67.5 21.5t47 56.5t27 67.5t14.5 66.5q-12 -1 -37 -1.5t-39 -1t-37 -3.5t-36.5 -7t-31 -12t-28.5 -19.5t-20.5 -29.5t-14.5 -40zM441 298h228q21 76 5 122.5t-83 46.5q-53 0 -93 -46t-57 -123zM719 250h-288l-10 -49
q-6 -37 -7.5 -73.5t20.5 -63t66 -26.5q55 0 90 31.5t46 84.5h63q-44 -164 -209 -164q-50 0 -84.5 24t-38.5 66q-60 -90 -163 -90q-72 0 -112.5 36.5t-25.5 105.5q7 35 22 61.5t31.5 44t43.5 29.5t46.5 18t54 9t53.5 3.5t55 0.5h13q6 26 8.5 40.5t4.5 37.5t-2 36.5
t-12.5 27.5t-26 20.5t-42.5 6.5q-44 0 -76 -22t-41 -65h-64q18 69 71.5 102t124.5 33q46 0 81.5 -19.5t41.5 -57.5q27 35 68 56t80 21q29 0 51.5 -5.5t38 -12t25.5 -22t16 -26t7 -34t1 -36t-4.5 -42t-7 -42zM423 560l137 137h85l-167 -137h-55z" />
    <glyph glyph-name="Oslashacute" unicode="&#x1fe;" horiz-adv-x="556" 
d="M280 -14q-101 0 -145 61l-60 -78l-33 20l74 96q-11 30 -11 78q0 42 11 97l52 245q22 102 88.5 168.5t167.5 66.5q106 0 149 -66l66 85l30 -21l-78 -101q13 -35 13 -82q0 -45 -11 -98l-31 -147q-16 -76 -35 -129t-51 -100.5t-80.5 -71t-115.5 -23.5zM286 40q118 0 171 130
q21 50 50 188l19 90q15 75 15 113v11l-364 -470q22 -62 109 -62zM169 153l363 468q-23 64 -109 64q-40 0 -71.5 -14t-52 -35.5t-37 -54t-25 -61.5t-16.5 -66l-38 -182q-14 -67 -14 -111v-8zM379 777l137 137h85l-167 -137h-55z" />
    <glyph glyph-name="oslashacute" unicode="&#x1ff;" 
d="M500 548l28 -21l-68 -81q11 -25 11 -62q0 -38 -11 -87l-21 -100q-23 -109 -68.5 -159.5t-145.5 -50.5q-78 0 -115 40l-60 -72l-28 22l69 83q-10 26 -10 63q0 36 9 78l21 100q23 108 69 161t146 53q79 0 115 -38zM410 378v7l-260 -310q20 -41 83 -41q23 0 42 7t32.5 16
t25.5 27t18.5 31t14 37.5t10.5 36.5t8 37l15 70q11 53 11 82zM141 125v-6l259 310q-18 38 -75 38q-38 0 -66.5 -15t-45.5 -44t-27 -57.5t-18 -68.5l-13 -63q-14 -64 -14 -94zM277 560l137 137h85l-167 -137h-55z" />
    <glyph glyph-name="Scommaaccent" unicode="&#x218;" horiz-adv-x="500" 
d="M565 599q0 -21 -8 -63h-65q7 37 7 58q0 42 -23.5 63t-78.5 21q-73 0 -113 -38t-40 -106q0 -63 85 -122l30.5 -20.5t33 -23l28.5 -22.5t28.5 -27.5t20 -28.5t16 -35t4.5 -39q0 -108 -59 -168t-171 -60q-172 0 -172 145q0 27 9 67h66q-9 -39 -9 -68q0 -45 25.5 -67.5
t84.5 -22.5q76 0 116 46.5t40 123.5q0 31 -18.5 55t-66.5 55q-79 53 -102 74q-56 55 -56 132q0 98 59.5 151.5t163.5 53.5q81 0 123 -39t42 -95zM160 -165l60 137h73l-80 -137h-53z" />
    <glyph glyph-name="scommaaccent" unicode="&#x219;" horiz-adv-x="389" 
d="M425 414q0 -22 -6 -47h-59q5 20 5 38q0 60 -69 60q-42 0 -70 -26.5t-28 -68.5q0 -11 4.5 -21t9 -16.5t15.5 -15.5t16.5 -12.5t19.5 -11.5t17 -10q47 -28 71.5 -56t25.5 -70q2 -80 -42.5 -125t-125.5 -45q-139 0 -139 107q0 24 5 54h61q-5 -32 -5 -49q0 -35 17.5 -50.5
t55.5 -15.5q48 0 78 30.5t30 78.5q0 47 -63 83q-53 31 -83 63.5t-30 79.5q0 69 45.5 107t117.5 38q126 0 126 -99zM105 -165l60 137h73l-80 -137h-53z" />
    <glyph glyph-name="uni021A" unicode="&#x21a;" 
d="M582 722l-11 -54h-175l-142 -668h-64l142 668h-175l11 54h414zM120 -165l60 137h73l-80 -137h-53z" />
    <glyph glyph-name="uni021B" unicode="&#x21b;" horiz-adv-x="278" 
d="M366 505l-10 -48h-102l-72 -339q-4 -17 -4 -34q0 -19 11.5 -27t39.5 -8q21 0 41 4l-11 -53q-19 -3 -54 -3q-44 0 -67 19.5t-23 53.5q0 12 3 24l77 363h-82l10 48h82l22 104l65 26l-28 -130h102zM53 -165l60 137h73l-80 -137h-53z" />
    <glyph glyph-name="dotlessj" unicode="&#x237;" horiz-adv-x="222" 
d="M252 505l-121 -571q-15 -70 -43.5 -100t-95.5 -30q-16 0 -31 3l11 52q7 -1 21 -1q38 0 54 16.5t24 55.5l122 575h59z" />
    <glyph glyph-name="circumflex" unicode="&#x2c6;" horiz-adv-x="278" 
d="M282 660l-104 -102h-67l143 139h67l83 -139h-61z" />
    <glyph glyph-name="caron" unicode="&#x2c7;" horiz-adv-x="278" 
d="M263 595l104 102h67l-143 -139h-67l-83 139h61z" />
    <glyph glyph-name="uni02C9" unicode="&#x2c9;" horiz-adv-x="278" 
d="M146 648h260l-10 -48h-260z" />
    <glyph glyph-name="breve" unicode="&#x2d8;" horiz-adv-x="278" 
d="M143 697h39q-2 -41 21 -61t66 -20q85 0 125 81h37q-20 -63 -63 -96t-104 -33t-95 35t-26 94z" />
    <glyph glyph-name="dotaccent" unicode="&#x2d9;" horiz-adv-x="278" 
d="M228 571l21 101h64l-21 -101h-64z" />
    <glyph glyph-name="ring" unicode="&#x2da;" horiz-adv-x="278" 
d="M289 736q38 0 59 -22.5t21 -55.5q0 -45 -31 -77t-77 -32q-36 0 -58.5 22.5t-22.5 59.5q0 42 33 73.5t76 31.5zM288 701q-28 0 -50 -19.5t-22 -50.5q0 -20 13.5 -33.5t33.5 -13.5q29 0 49.5 22t20.5 49q0 20 -12.5 33t-32.5 13z" />
    <glyph glyph-name="ogonek" unicode="&#x2db;" horiz-adv-x="278" 
d="M143 0l50 2v-2q-53 -23 -80.5 -54t-32.5 -56q-5 -24 10.5 -35t39.5 -11q12 0 68 17l-7 -33q-36 -19 -78 -19q-26 0 -43 2.5t-34 11t-20 25t0 43.5q17 72 127 109z" />
    <glyph glyph-name="tilde" unicode="&#x2dc;" horiz-adv-x="278" 
d="M147 595h-38q14 42 41 69q33 33 69 33q8 0 17.5 -3t16.5 -6.5l17.5 -9l16.5 -8.5t16.5 -9l16 -9t14 -6t15.5 -3q37 0 56 54h38q-13 -41 -38 -68q-29 -34 -66 -34q-9 0 -19 3t-16.5 6t-18 9t-16.5 9t-16 9t-17 9t-15 6t-17 3q-19 0 -34.5 -16.5t-22.5 -37.5z" />
    <glyph glyph-name="hungarumlaut" unicode="&#x2dd;" horiz-adv-x="278" 
d="M119 560l142 137h80l-172 -137h-50zM249 560l142 137h80l-172 -137h-50z" />
    <glyph glyph-name="uni0394" unicode="&#x394;" horiz-adv-x="560" 
d="M549 0h-538l381 722h78zM475 57l-56 605l-310 -605h366z" />
    <glyph glyph-name="uni03A9" unicode="&#x3a9;" horiz-adv-x="556" 
d="M65 0l11 54h114l17 81q-76 39 -76 155q0 40 11 93l24 114q51 243 263 243q89 0 133 -51t44 -134q0 -36 -10 -84l-23 -102q-45 -198 -169 -239l-16 -76h114l-11 -54h-175l36 174q65 12 102.5 66.5t60.5 162.5l11 51q14 63 14 107q0 124 -117 124q-40 0 -71.5 -14
t-52 -35.5t-36.5 -54t-24.5 -61t-16.5 -66.5l-11 -51q-14 -67 -14 -111q0 -102 79 -118l-36 -174h-175z" />
    <glyph glyph-name="uni03BC" unicode="&#x3bc;" 
d="M426 505h60l-107 -505h-52l11 56h-2q-68 -66 -141 -66q-51 0 -69 18l-42 -199h-60l148 696h60l-74 -347q-3 -13 -4 -25.5t0 -38t17 -41t46 -15.5q54 0 89.5 37.5t43.5 73.5z" />
    <glyph glyph-name="pi" unicode="&#x3c0;" horiz-adv-x="487" 
d="M468 10q-37 -16 -65 -16q-62 0 -62 53q0 22 9 62l74 348h-196l-97 -457h-59l97 457h-70l10 48h460l-10 -48h-76l-76 -356q-4 -22 -4 -29q0 -26 30 -26q21 0 44 10z" />
    <glyph glyph-name="uni0400" unicode="&#x400;" 
d="M75 0l153 722h327l-11 -54h-263l-57 -270h251l-12 -54h-251l-62 -290h270l-11 -54h-334zM452 777h-45l-119 137h75z" />
    <glyph glyph-name="afii10023" unicode="&#x401;" 
d="M75 0l153 722h327l-11 -54h-263l-57 -270h251l-12 -54h-251l-62 -290h270l-11 -54h-334zM298 788l21 101h64l-21 -101h-64zM456 788l21 101h64l-21 -101h-64z" />
    <glyph glyph-name="afii10051" unicode="&#x402;" horiz-adv-x="630" 
d="M190 0l141 668h-175l12 54h413l-11 -54h-175l-58 -278q20 14 62.5 29t79.5 15q84 0 125 -37t41 -116q0 -42 -13 -107q-20 -97 -74.5 -143.5t-162.5 -46.5h-19l12 55h6q85 0 123 36.5t54 114.5q11 52 11 88q0 101 -103 101q-39 0 -87.5 -16.5t-68.5 -35.5l-69 -327h-64z
" />
    <glyph glyph-name="afii10052" unicode="&#x403;" horiz-adv-x="385" 
d="M68 0l153 722h305l-11 -54h-241l-142 -668h-64zM311 777l137 137h85l-167 -137h-55z" />
    <glyph glyph-name="afii10053" unicode="&#x404;" horiz-adv-x="500" 
d="M279 -14q-98 0 -137.5 45t-39.5 124q0 53 32 206q4 17 10 49.5t10 52t12 50.5t15.5 50.5t19.5 45.5t25.5 42t33 34t42 28t52.5 16.5t64 6.5q47 0 79.5 -13t48 -35t22 -44t6.5 -48q0 -19 -7 -61h-66q6 29 6 55q0 92 -90 92q-42 0 -74.5 -15t-52.5 -36.5t-37 -62.5t-26 -76
t-21 -94h227l-12 -54h-227q-29 -139 -29 -188q0 -57 26 -86.5t90 -29.5q58 0 97.5 46.5t54.5 113.5h68q-49 -214 -222 -214z" />
    <glyph glyph-name="afii10054" unicode="&#x405;" horiz-adv-x="500" 
d="M260 -12q-172 0 -172 145q0 27 9 67h66q-9 -39 -9 -68q0 -45 25.5 -67.5t84.5 -22.5q76 0 116 46.5t40 123.5q0 31 -18.5 55t-66.5 55q-79 53 -102 74q-56 55 -56 132q0 98 59.5 151.5t163.5 53.5q81 0 123 -39t42 -95q0 -21 -8 -63h-65q7 37 7 58q0 42 -23.5 63
t-78.5 21q-73 0 -113 -38t-40 -106q0 -63 85 -122l30.5 -20.5t33 -23l28.5 -22.5t28.5 -27.5t20 -28.5t16 -35t4.5 -39q0 -108 -59 -168t-171 -60z" />
    <glyph glyph-name="afii10055" unicode="&#x406;" horiz-adv-x="222" 
d="M79 0l153 722h64l-153 -722h-64z" />
    <glyph glyph-name="afii10056" unicode="&#x407;" horiz-adv-x="222" 
d="M79 0l153 722h64l-153 -722h-64zM167 788l21 101h64l-21 -101h-64zM325 788l21 101h64l-21 -101h-64z" />
    <glyph glyph-name="afii10057" unicode="&#x408;" 
d="M202 -13q-147 0 -147 135q0 34 10 82h63q-10 -52 -10 -78q0 -85 88 -85q30 0 54 11.5t38 27t25.5 43t17 47.5t12.5 52l106 500h64l-111 -523q-24 -113 -70 -162.5t-140 -49.5z" />
    <glyph glyph-name="afii10058" unicode="&#x409;" horiz-adv-x="843" 
d="M45 -10l-42 4l12 56q13 -2 29 -2q30 0 56 18t45.5 52t34.5 68.5t27 82.5t18.5 79t14 73.5t9.5 50.5l52 250h353l-67 -320h118q152 0 152 -134q0 -33 -10 -81q-11 -50 -30.5 -86t-41 -55t-51.5 -30t-52 -13.5t-51 -2.5h-184l141 668h-225l-57 -270q-2 -8 -8.5 -41l-10 -50
t-12 -52t-15.5 -55.5t-19.5 -52t-24.5 -50.5t-30 -42t-36.5 -35.5t-43 -21t-51.5 -8.5zM512 54h114q28 0 48 4.5t43.5 18.5t41.5 45.5t28 80.5q7 31 7 59q0 46 -24.5 66t-79.5 20h-115z" />
    <glyph glyph-name="afii10059" unicode="&#x40a;" horiz-adv-x="826" 
d="M72 0l153 722h64l-67 -320h283l68 320h64l-67 -320h118q152 0 152 -134q0 -33 -10 -81q-11 -50 -30.5 -86t-41 -55t-51.5 -30t-52 -13.5t-51 -2.5h-184l73 348h-283l-74 -348h-64zM495 54h114q28 0 48 4.5t43.5 18.5t41.5 45.5t28 80.5q7 31 7 59q0 46 -24.5 66t-79.5 20
h-115z" />
    <glyph glyph-name="afii10060" unicode="&#x40b;" horiz-adv-x="630" 
d="M190 0l142 668h-176l12 54h413l-11 -54h-174l-56 -261q15 8 57.5 17.5t76.5 9.5q160 0 160 -135q0 -27 -8 -65l-49 -234h-64l50 239q6 27 6 49q0 91 -104 91q-33 0 -76 -10t-61 -19l-74 -350h-64z" />
    <glyph glyph-name="afii10061" unicode="&#x40c;" horiz-adv-x="500" 
d="M77 0l153 722h64l-70 -331l321 331h85l-342 -347l197 -375h-76l-189 370l-79 -370h-64zM368 777l137 137h85l-167 -137h-55z" />
    <glyph glyph-name="uni040D" unicode="&#x40d;" horiz-adv-x="570" 
d="M72 0l153 722h64l-127 -599h3l417 599h69l-153 -722h-64l127 599h-3l-417 -599h-69zM512 777h-45l-119 137h75z" />
    <glyph glyph-name="afii10062" unicode="&#x40e;" horiz-adv-x="500" 
d="M113 0l153 236l-105 486h68l86 -418l257 418h72l-455 -722h-76zM419 768q-123 0 -123 96q0 7 2 25h44v-3q0 -68 78 -68q80 0 108 71h44q-17 -62 -53.5 -91.5t-99.5 -29.5z" />
    <glyph glyph-name="afii10145" unicode="&#x40f;" horiz-adv-x="556" 
d="M222 -141l30 141h-180l153 722h64l-142 -668h284l142 668h64l-153 -722h-168l-30 -141h-64z" />
    <glyph glyph-name="afii10017" unicode="&#x410;" horiz-adv-x="556" 
d="M13 0l381 722h76l72 -722h-62l-18 190h-283l-97 -190h-69zM210 244h247l-37 408z" />
    <glyph glyph-name="afii10018" unicode="&#x411;" horiz-adv-x="500" 
d="M68 0l153 722h345l-11 -54h-281l-56 -266h138q152 0 152 -134q0 -33 -10 -81q-11 -50 -30.5 -86t-41 -55t-51.5 -30t-52 -13.5t-51 -2.5h-204zM143 54h134q28 0 48 4.5t43.5 18.5t41.5 45.5t28 80.5q7 31 7 59q0 46 -24.5 66t-79.5 20h-135z" />
    <glyph glyph-name="afii10019" unicode="&#x412;" horiz-adv-x="500" 
d="M66 0l153 722h176q92 0 128.5 -30.5t36.5 -96.5q0 -25 -6 -55q-15 -72 -46 -109t-95 -55q47 -13 68.5 -40.5t21.5 -72.5q0 -23 -9 -68q-23 -105 -75 -150t-155 -45h-198zM141 54h107q81 0 122 29t59 114q6 30 6 53q0 94 -106 94h-126zM215 398h118q64 0 101.5 35
t53.5 109q6 26 6 46q0 80 -82 80h-140z" />
    <glyph glyph-name="afii10020" unicode="&#x413;" horiz-adv-x="385" 
d="M68 0l153 722h305l-11 -54h-241l-142 -668h-64z" />
    <glyph glyph-name="afii10021" unicode="&#x414;" horiz-adv-x="580" 
d="M-15 -141l41 195h37q43 40 94 125q24 40 43 84t35.5 104t24.5 93t24 111l20 98l11 53h332l-142 -668h45l-41 -195h-64l30 141h-396l-30 -141h-64zM144 54h297l131 614h-203l-8 -38q-4 -17 -18 -84.5t-19 -89t-19 -75.5t-24.5 -83t-28.5 -69.5t-38 -74.5q-48 -78 -70 -100
z" />
    <glyph glyph-name="afii10022" unicode="&#x415;" 
d="M75 0l153 722h327l-11 -54h-263l-57 -270h251l-12 -54h-251l-62 -290h270l-11 -54h-334z" />
    <glyph glyph-name="afii10024" unicode="&#x416;" horiz-adv-x="770" 
d="M10 0l360 390l-194 332h72l186 -331h2l70 331h64l-70 -331h2l321 331h82l-341 -342l196 -380h-75l-187 370h-2l-79 -370h-64l79 370h-2l-335 -370h-85z" />
    <glyph glyph-name="afii10025" unicode="&#x417;" horiz-adv-x="500" 
d="M247 -14q-171 0 -171 140q0 15 7 55h67q-5 -28 -5 -47q0 -92 104 -92q61 0 101.5 31.5t56.5 77.5t16 105q0 48 -25 69.5t-84 21.5q-30 0 -41 -1l11 56q8 -1 34 -1q82 0 127.5 56t45.5 138q0 85 -102 85q-131 0 -151 -138h-67q14 92 68 143t149 51q173 0 173 -133
q0 -81 -42.5 -145.5t-119.5 -81.5v-3q92 -10 92 -117q0 -120 -62 -195t-182 -75z" />
    <glyph glyph-name="afii10026" unicode="&#x418;" horiz-adv-x="570" 
d="M72 0l153 722h64l-127 -599h3l417 599h69l-153 -722h-64l127 599h-3l-417 -599h-69z" />
    <glyph glyph-name="afii10027" unicode="&#x419;" horiz-adv-x="570" 
d="M72 0l153 722h64l-127 -599h3l417 599h69l-153 -722h-64l127 599h-3l-417 -599h-69zM449 768q-123 0 -123 96q0 7 2 25h44v-3q0 -68 78 -68q80 0 108 71h44q-17 -62 -53.5 -91.5t-99.5 -29.5z" />
    <glyph glyph-name="afii10028" unicode="&#x41a;" horiz-adv-x="500" 
d="M77 0l153 722h64l-70 -331l321 331h85l-342 -347l197 -375h-76l-189 370l-79 -370h-64z" />
    <glyph glyph-name="afii10029" unicode="&#x41b;" horiz-adv-x="573" 
d="M45 -10l-42 4l12 56q13 -2 29 -2q30 0 56 18t45.5 52t34.5 68.5t27 82.5t18.5 79t14 73.5t9.5 50.5l52 250h353l-153 -722h-64l142 668h-226l-57 -270q-2 -8 -8.5 -41l-10 -50t-12 -52t-15.5 -55.5t-19.5 -52t-24.5 -50.5t-30 -42t-36.5 -35.5t-43 -21t-51.5 -8.5z" />
    <glyph glyph-name="afii10030" unicode="&#x41c;" horiz-adv-x="778" 
d="M72 0l153 722h101l75 -649l345 649h106l-153 -722h-61l140 659l-354 -659h-74l-77 659l-140 -659h-61z" />
    <glyph glyph-name="afii10031" unicode="&#x41d;" horiz-adv-x="556" 
d="M72 0l153 722h64l-68 -324h284l68 324h64l-153 -722h-64l73 344h-284l-73 -344h-64z" />
    <glyph glyph-name="afii10032" unicode="&#x41e;" horiz-adv-x="556" 
d="M280 -14q-175 0 -175 177q0 42 11 97l52 245q22 102 88.5 168.5t167.5 66.5q94 0 137 -50t43 -135q0 -45 -11 -98l-31 -147q-16 -76 -35 -129t-51 -100.5t-80.5 -71t-115.5 -23.5zM286 40q118 0 171 130q21 50 50 188l19 90q15 75 15 113q0 124 -118 124q-40 0 -71.5 -14
t-52 -35.5t-37 -54t-25 -61.5t-16.5 -66l-38 -182q-14 -67 -14 -111q0 -62 28 -91.5t89 -29.5z" />
    <glyph glyph-name="afii10033" unicode="&#x41f;" horiz-adv-x="556" 
d="M72 0l153 722h412l-153 -722h-64l142 668h-284l-142 -668h-64z" />
    <glyph glyph-name="afii10034" unicode="&#x420;" 
d="M64 0l153 722h178q148 0 148 -123q0 -29 -7 -63q-25 -118 -78 -159t-150 -41h-110l-71 -336h-63zM210 390h73q24 0 34.5 0.5t31.5 3t31.5 7.5t27 15.5t26 26t19.5 39t16 54.5q7 34 7 60q0 21 -7.5 35.5t-17 21.5t-29 10.5t-30.5 4t-36 0.5h-12h-75z" />
    <glyph glyph-name="afii10035" unicode="&#x421;" horiz-adv-x="500" 
d="M270 -14q-169 0 -169 173q0 49 18 137q30 142 54 227q30 107 88.5 160t151.5 53q162 0 162 -136q0 -25 -10 -73h-66q12 60 12 74q0 41 -23 61t-76 20q-40 0 -72.5 -17t-51.5 -39.5t-35 -61t-23 -65.5t-16 -70l-42 -197q-8 -36 -8 -71q0 -120 111 -120q71 0 104.5 42.5
t55.5 123.5h68q-16 -102 -73.5 -161.5t-159.5 -59.5z" />
    <glyph glyph-name="afii10036" unicode="&#x422;" 
d="M190 0l142 668h-175l11 54h414l-11 -54h-175l-142 -668h-64z" />
    <glyph glyph-name="afii10037" unicode="&#x423;" horiz-adv-x="500" 
d="M113 0l153 236l-105 486h68l86 -418l257 418h72l-455 -722h-76z" />
    <glyph glyph-name="afii10038" unicode="&#x424;" horiz-adv-x="700" 
d="M318 0l16 73q-221 6 -221 213q0 47 12 104q32 153 113.5 217t222.5 68l10 47h64l-10 -47q107 -3 164.5 -55.5t57.5 -156.5q0 -46 -12 -103q-32 -148 -110 -215.5t-227 -71.5l-16 -73h-64zM345 127l106 496q-117 -4 -178 -62.5t-87 -181.5q-11 -53 -11 -94
q0 -155 170 -158zM409 127q117 2 177.5 61t85.5 177q12 54 12 98q0 76 -40.5 116t-129.5 44z" />
    <glyph glyph-name="afii10039" unicode="&#x425;" horiz-adv-x="500" 
d="M10 0l275 379l-103 343h66l89 -301l218 301h72l-262 -356l121 -366h-70l-99 330l-235 -330h-72z" />
    <glyph glyph-name="afii10040" unicode="&#x426;" horiz-adv-x="570" 
d="M435 -141l30 141h-393l153 722h64l-142 -668h284l142 668h64l-142 -668h45l-41 -195h-64z" />
    <glyph glyph-name="afii10041" unicode="&#x427;" horiz-adv-x="526" 
d="M390 0l68 318q-14 -4 -70.5 -11.5t-80.5 -7.5q-158 0 -158 132q0 29 7 61l49 230h64l-44 -211q-10 -48 -10 -73q0 -45 24 -65t79 -20q71 0 151 18l74 351h64l-153 -722h-64z" />
    <glyph glyph-name="afii10042" unicode="&#x428;" horiz-adv-x="854" 
d="M72 0l153 722h64l-142 -668h259l142 668h64l-142 -668h259l142 668h64l-153 -722h-710z" />
    <glyph glyph-name="afii10043" unicode="&#x429;" horiz-adv-x="868" 
d="M733 -141l30 141h-691l153 722h64l-142 -668h259l142 668h64l-142 -668h259l142 668h64l-142 -668h45l-41 -195h-64z" />
    <glyph glyph-name="afii10044" unicode="&#x42a;" horiz-adv-x="578" 
d="M172 0l142 668h-158l11 54h222l-67 -320h118q152 0 152 -134q0 -33 -10 -81q-11 -50 -30.5 -86t-41 -55t-51.5 -30t-52 -13.5t-51 -2.5h-184zM247 54h114q28 0 48 4.5t43.5 18.5t41.5 45.5t28 80.5q7 31 7 59q0 46 -24.5 66t-79.5 20h-115z" />
    <glyph glyph-name="afii10045" unicode="&#x42b;" horiz-adv-x="665" 
d="M529 0l153 722h64l-153 -722h-64zM72 0l153 722h64l-67 -320h118q152 0 152 -134q0 -33 -10 -81q-11 -50 -30.5 -86t-41 -55t-51.5 -30t-52 -13.5t-51 -2.5h-184zM147 54h114q28 0 48 4.5t43.5 18.5t41.5 45.5t28 80.5q7 31 7 59q0 46 -24.5 66t-79.5 20h-115z" />
    <glyph glyph-name="afii10046" unicode="&#x42c;" horiz-adv-x="478" 
d="M72 0l153 722h64l-67 -320h118q152 0 152 -134q0 -33 -10 -81q-11 -50 -30.5 -86t-41 -55t-51.5 -30t-52 -13.5t-51 -2.5h-184zM147 54h114q28 0 48 4.5t43.5 18.5t41.5 45.5t28 80.5q7 31 7 59q0 46 -24.5 66t-79.5 20h-115z" />
    <glyph glyph-name="afii10047" unicode="&#x42d;" horiz-adv-x="500" 
d="M231 -14q-46 0 -78.5 15t-48.5 41t-22.5 51t-6.5 54t6 53h68q-6 -27 -6 -52q0 -49 22 -78.5t68 -29.5q28 0 51 5t41.5 18.5t32 26t26 38t20 43t17 53.5t14 56t13.5 64h-227l12 54h227q25 123 25 168q0 57 -26.5 86.5t-89.5 29.5q-115 0 -146 -147h-66q2 16 3.5 25
t8.5 32.5t15.5 39.5t25 37.5t37.5 34.5t53 22.5t70 9.5q98 0 138 -43.5t40 -122.5q0 -56 -22 -159l-21 -100q-7 -35 -10.5 -50t-11.5 -46.5t-14 -47l-16 -42t-20.5 -39.5l-25.5 -32.5t-32.5 -29t-39 -20t-47.5 -14.5t-57 -4z" />
    <glyph glyph-name="afii10048" unicode="&#x42e;" horiz-adv-x="755" 
d="M479 -14q-89 0 -132.5 46t-43.5 131q0 45 12 97l18 84h-124l-73 -344h-64l153 722h64l-68 -324h123l23 107q22 102 88.5 168.5t167.5 66.5q94 0 137 -50t43 -135q0 -45 -11 -98l-31 -147q-16 -76 -35 -129t-51 -100.5t-80.5 -71t-115.5 -23.5zM485 40q118 0 171 130
q21 50 50 188l19 90q15 75 15 113q0 124 -118 124q-40 0 -71.5 -14t-52 -35.5t-37 -54t-25 -61.5t-16.5 -66l-38 -182q-14 -67 -14 -111q0 -62 28 -91.5t89 -29.5z" />
    <glyph glyph-name="afii10049" unicode="&#x42f;" horiz-adv-x="500" 
d="M40 0q11 24 24.5 61.5l30.5 86l26 73.5q27 72 59.5 102.5t84.5 37.5v2q-100 15 -100 123q0 28 8 66q20 95 69.5 132.5t154.5 37.5h184l-153 -722h-64l71 336h-75q-77 0 -115 -27t-66 -110q-52 -153 -72 -199h-67zM342 390h104l60 278h-121q-61 0 -98.5 -27.5t-52.5 -97.5
q-8 -40 -8 -63q0 -51 28 -70.5t88 -19.5z" />
    <glyph glyph-name="afii10065" unicode="&#x430;" 
d="M189 -7q-57 0 -90.5 30t-33.5 82q0 54 21 92.5t50.5 59t77 32t83.5 14.5t88 4l13 62q4 16 4 32q0 66 -83 66q-47 0 -78 -21.5t-39 -61.5l-1 -2h-65q11 68 62 100.5t126 32.5q140 0 140 -105q0 -20 -4 -39l-56 -263l-12 -64l-6 -44h-60l13 68q-64 -75 -150 -75zM203 40
q56 0 101 43t58 106q8 39 14 71q-9 1 -20 1q-45 0 -79.5 -5t-70.5 -19.5t-56 -45.5t-20 -78q0 -35 19 -54t54 -19z" />
    <glyph glyph-name="afii10066" unicode="&#x431;" 
d="M231 -10q-147 0 -147 141q0 38 10 84l24 116q28 138 67 216q28 57 71.5 85.5t120.5 41.5q40 7 62.5 17t32.5 31h62q-10 -48 -52 -70.5t-111 -32.5q-82 -11 -119.5 -52.5t-67.5 -151.5h3q57 84 147 84q73 0 103.5 -39.5t30.5 -96.5q0 -21 -6 -51l-25 -117
q-43 -205 -206 -205zM232 38q63 0 98 47t62 177q13 62 13 102q0 51 -20.5 69.5t-60.5 18.5q-120 0 -160 -190q-19 -92 -19 -135q0 -50 20.5 -69.5t66.5 -19.5z" />
    <glyph glyph-name="afii10067" unicode="&#x432;" horiz-adv-x="430" 
d="M61 0l107 505h160q55 0 92.5 -24t37.5 -74q0 -58 -28.5 -95t-85.5 -45v-3q78 -10 78 -90q0 -82 -46.5 -128t-129.5 -46h-185zM131 48h104q58 0 90 35.5t32 93.5q0 35 -24.5 49t-84.5 14h-76zM182 288h71q143 0 143 114q0 33 -23.5 44t-63.5 11h-91z" />
    <glyph glyph-name="afii10068" unicode="&#x433;" horiz-adv-x="340" 
d="M61 0l107 505h273l-10 -48h-213l-97 -457h-60z" />
    <glyph glyph-name="afii10069" unicode="&#x434;" horiz-adv-x="480" 
d="M-18 -121l36 169h38q34 33 61.5 79t43.5 83t33 100t23 90.5t19 94.5l2 10h280l-97 -457h44l-36 -169h-60l26 121h-327l-26 -121h-60zM123 48h238l87 409h-160l-2 -10q-61 -302 -163 -399z" />
    <glyph glyph-name="afii10070" unicode="&#x435;" 
d="M234 -12q-81 0 -115 37.5t-34 106.5q0 54 16 128q10 47 20 80t28 68.5t40.5 57t57.5 35.5t79 14q144 0 144 -134q0 -35 -10 -83l-12 -56h-286l-7 -33q-10 -45 -10 -79q0 -93 90 -93q54 0 87.5 31.5t45.5 84.5h62q-37 -165 -196 -165zM172 288h225q13 56 13 92
q0 88 -87 88q-63 0 -96.5 -41t-48.5 -112z" />
    <glyph glyph-name="afii10072" unicode="&#x436;" horiz-adv-x="600" 
d="M8 0l252 275l-128 230h65l129 -233h2l49 233h60l-49 -233h2l222 233h75l-233 -240l138 -265h-71l-133 265h-2l-56 -265h-60l56 265h-2l-235 -265h-81z" />
    <glyph glyph-name="afii10073" unicode="&#x437;" horiz-adv-x="420" 
d="M211 -10q-151 0 -151 96q0 20 4 37l4 20h64l-4 -20q-4 -20 -4 -28q0 -56 88 -56q56 0 85 26t39 76q4 17 4 35q0 67 -83 67q-36 0 -45 -1l10 49q8 -1 42 -1q52 0 80 22t38 73q3 12 3 23q0 58 -80 58q-51 0 -77 -21t-36 -63l-5 -20h-60q5 28 8 38q11 53 53.5 84t116.5 31
q144 0 144 -101q0 -10 -4 -34q-24 -111 -117 -113v-3q74 -10 74 -86q0 -25 -6 -50q-15 -71 -58 -104.5t-127 -33.5z" />
    <glyph glyph-name="afii10074" unicode="&#x438;" horiz-adv-x="452" 
d="M61 0l107 505h60l-86 -404h3l279 404h74l-107 -505h-60l86 404h-3l-279 -404h-74z" />
    <glyph glyph-name="afii10075" unicode="&#x439;" horiz-adv-x="452" 
d="M61 0l107 505h60l-86 -404h3l279 404h74l-107 -505h-60l86 404h-3l-279 -404h-74zM358 578q-48 0 -82.5 22.5t-34.5 68.5q0 13 1 20h41v-4q0 -31 23 -46t54 -15q32 0 61.5 16t41.5 49h41q-29 -111 -146 -111z" />
    <glyph glyph-name="afii10076" unicode="&#x43a;" horiz-adv-x="410" 
d="M64 0l107 505h60l-49 -233h2l238 233h75l-249 -241l154 -264h-71l-149 265h-2l-56 -265h-60z" />
    <glyph glyph-name="afii10077" unicode="&#x43b;" horiz-adv-x="454" 
d="M42 -4q-26 0 -42 4l11 52q8 -2 25 -2h5.5h7t7 0.5t7.5 1.5t8 3t8.5 5l8.5 7t9 10q18 23 36.5 80.5t29 101.5t27.5 126l25 120h282l-107 -505h-60l97 456h-162l-22 -102q-60 -279 -121 -331q-33 -27 -80 -27z" />
    <glyph glyph-name="afii10078" unicode="&#x43c;" horiz-adv-x="584" 
d="M62 0l107 505h84l53 -431h3l235 431h90l-107 -505h-59l88 412h-3l-228 -412h-63l-50 412h-3l-88 -412h-59z" />
    <glyph glyph-name="afii10079" unicode="&#x43d;" 
d="M61 0l107 505h60l-46 -217h202l46 217h60l-107 -505h-60l51 240h-202l-51 -240h-60z" />
    <glyph glyph-name="afii10080" unicode="&#x43e;" 
d="M225 -13q-144 0 -144 136q0 36 9 78l21 100q23 108 69 161t146 53q78 0 111.5 -34t33.5 -97q0 -38 -11 -87l-21 -100q-23 -109 -68.5 -159.5t-145.5 -50.5zM233 34q23 0 42 7t32.5 16t25.5 27t18.5 31t14 37.5t10.5 36.5t8 37l15 70q11 53 11 82q0 89 -85 89
q-38 0 -66.5 -15t-45.5 -44t-27 -57.5t-18 -68.5l-13 -63q-14 -64 -14 -94q0 -91 92 -91z" />
    <glyph glyph-name="afii10081" unicode="&#x43f;" 
d="M61 0l107 505h322l-107 -505h-60l97 457h-202l-97 -457h-60z" />
    <glyph glyph-name="afii10082" unicode="&#x440;" 
d="M18 -192l148 697h58l-14 -66q50 74 135 74q128 0 128 -133q0 -47 -17 -128l-14 -61t-17 -58t-26 -58t-35 -43.5t-50.5 -33t-66.5 -10.5q-85 0 -116 70l-53 -250h-60zM243 37q30 0 54 14t37.5 31.5t26 52t17.5 54.5t13 60q21 103 21 133q0 82 -77 82q-37 0 -66 -19
t-48.5 -54.5t-31.5 -71t-22 -82.5q-11 -51 -11 -93q0 -107 87 -107z" />
    <glyph glyph-name="afii10083" unicode="&#x441;" horiz-adv-x="389" 
d="M213 -14q-137 0 -137 140q0 39 10 82l15 68q11 49 18 74t23 61.5t35 54.5t52.5 32t77.5 14q125 0 125 -105q0 -22 -6 -49h-60q5 25 5 43q0 64 -66 64q-64 0 -93 -50t-54 -171q-19 -92 -19 -128q0 -41 17 -60.5t57 -19.5q85 0 108 111h60q-16 -79 -55 -120t-113 -41z" />
    <glyph glyph-name="afii10084" unicode="&#x442;" horiz-adv-x="370" 
d="M155 0l97 457h-145l10 48h350l-10 -48h-145l-97 -457h-60z" />
    <glyph glyph-name="afii10085" unicode="&#x443;" horiz-adv-x="389" 
d="M66 -192l102 196l-51 501h61l36 -414l208 414h63l-357 -697h-62z" />
    <glyph glyph-name="afii10086" unicode="&#x444;" horiz-adv-x="662" 
d="M260 -192l47 222q-42 -40 -98 -40q-126 0 -126 138q0 36 9 79l24 113q9 41 20 70t31 59.5t54 46.5t80 16q66 0 100 -42l48 227h60l-48 -227q50 42 105 42q122 0 122 -136q0 -33 -9 -76l-24 -113q-22 -101 -66 -149t-125 -48q-29 0 -58.5 12.5t-38.5 27.5l-47 -222h-60z
M214 38q33 0 62.5 14.5t43.5 35.5l68 322q-11 54 -82 54q-58 0 -88 -41.5t-51 -145.5l-8 -39q-17 -82 -17 -119q0 -41 16.5 -61t55.5 -20zM464 38q59 0 89 47t52 153l8 39q15 75 15 108q0 42 -17.5 60.5t-56.5 18.5q-71 0 -106 -54l-68 -322q5 -21 28 -35.5t56 -14.5z" />
    <glyph glyph-name="afii10087" unicode="&#x445;" horiz-adv-x="389" 
d="M11 0l207 274l-73 231h68l52 -190l136 190h70l-180 -238l87 -267h-66l-66 219l-162 -219h-73z" />
    <glyph glyph-name="afii10088" unicode="&#x446;" horiz-adv-x="452" 
d="M341 -121l26 121h-306l107 505h60l-97 -457h202l97 457h60l-97 -457h44l-36 -169h-60z" />
    <glyph glyph-name="afii10089" unicode="&#x447;" horiz-adv-x="414" 
d="M294 0l47 223q-16 -7 -54 -14.5t-68 -7.5q-50 0 -78 26t-28 76q0 27 5 48l32 154h60l-32 -152q-6 -27 -6 -45q0 -29 16 -42t53 -13q61 0 111 19l49 233h60l-107 -505h-60z" />
    <glyph glyph-name="afii10090" unicode="&#x448;" horiz-adv-x="676" 
d="M61 0l107 505h60l-97 -457h187l97 457h60l-97 -457h187l97 457h60l-107 -505h-554z" />
    <glyph glyph-name="afii10091" unicode="&#x449;" horiz-adv-x="684" 
d="M573 -121l26 121h-538l107 505h60l-97 -457h187l97 457h60l-97 -457h187l97 457h60l-97 -457h44l-36 -169h-60z" />
    <glyph glyph-name="afii10092" unicode="&#x44a;" horiz-adv-x="488" 
d="M135 0l97 457h-130l10 48h190l-46 -217h90q30 0 53 -4.5t45 -16t34 -35.5t12 -59q0 -81 -47.5 -127t-138.5 -46h-169zM205 48h98q62 0 92.5 33t30.5 92q0 35 -25.5 51t-84.5 16h-70z" />
    <glyph glyph-name="afii10093" unicode="&#x44b;" horiz-adv-x="564" 
d="M57 0l107 505h60l-46 -217h90q64 0 104 -24t40 -90q0 -82 -47.5 -128t-138.5 -46h-169zM127 48h98q62 0 92.5 33t30.5 92q0 35 -25.5 51t-84.5 16h-70zM455 0l107 505h60l-107 -505h-60z" />
    <glyph glyph-name="afii10094" unicode="&#x44c;" horiz-adv-x="420" 
d="M61 0l107 505h60l-46 -217h96q30 0 53 -4.5t45 -16t34 -35.5t12 -59q0 -81 -47.5 -127t-138.5 -46h-175zM131 48h104q62 0 92.5 33t30.5 92q0 35 -25.5 51t-84.5 16h-76z" />
    <glyph glyph-name="afii10095" unicode="&#x44d;" horiz-adv-x="400" 
d="M193 -10q-64 0 -97 31.5t-33 83.5q0 12 4 38h60q-3 -19 -3 -39q0 -66 73 -66q63 0 95.5 51t53.5 151h-154l10 48h153q11 51 11 96q0 36 -20.5 59.5t-59.5 23.5q-89 0 -110 -100h-60q12 69 56.5 108.5t115.5 39.5q73 0 106.5 -35t33.5 -94q0 -41 -22 -149
q-10 -45 -18 -74.5t-25 -65.5t-37.5 -57t-54.5 -35.5t-78 -14.5z" />
    <glyph glyph-name="afii10096" unicode="&#x44e;" horiz-adv-x="614" 
d="M394 -13q-144 0 -144 136q0 36 9 78l8 39h-95l-51 -240h-60l107 505h60l-46 -217h95l3 13q25 109 70.5 161.5t144.5 52.5q78 0 111.5 -34t33.5 -97q0 -38 -11 -87l-21 -100q-23 -109 -68.5 -159.5t-145.5 -50.5zM402 34q23 0 42 7t32.5 16t25.5 27t18.5 31t14 37.5
t10.5 36.5t8 37l15 70q11 53 11 82q0 89 -85 89q-38 0 -66.5 -15t-45.5 -44t-27 -57.5t-18 -68.5l-13 -63q-14 -64 -14 -94q0 -91 92 -91z" />
    <glyph glyph-name="afii10097" unicode="&#x44f;" 
d="M43 0q25 57 46 119q16 48 40 75t42.5 33.5t47.5 10.5l1 3q-42 4 -67 38.5t-11 100.5q7 34 20.5 58t28.5 37t38 20t42 8.5t48 1.5h169l-107 -505h-60l46 219h-92q-49 0 -75 -24.5t-45 -74.5q-10 -28 -46 -120h-66zM301 267h76l41 190h-96q-49 0 -78.5 -17.5t-40.5 -70.5
t12 -77.5t86 -24.5z" />
    <glyph glyph-name="uni0450" unicode="&#x450;" 
d="M234 -12q-81 0 -115 37.5t-34 106.5q0 54 16 128q10 47 20 80t28 68.5t40.5 57t57.5 35.5t79 14q144 0 144 -134q0 -35 -10 -83l-12 -56h-286l-7 -33q-10 -45 -10 -79q0 -93 90 -93q54 0 87.5 31.5t45.5 84.5h62q-37 -165 -196 -165zM172 288h225q13 56 13 92
q0 88 -87 88q-63 0 -96.5 -41t-48.5 -112zM384 558h-46l-113 139h73z" />
    <glyph glyph-name="afii10071" unicode="&#x451;" 
d="M234 -12q-81 0 -115 37.5t-34 106.5q0 54 16 128q10 47 20 80t28 68.5t40.5 57t57.5 35.5t79 14q144 0 144 -134q0 -35 -10 -83l-12 -56h-286l-7 -33q-10 -45 -10 -79q0 -93 90 -93q54 0 87.5 31.5t45.5 84.5h62q-37 -165 -196 -165zM172 288h225q13 56 13 92
q0 88 -87 88q-63 0 -96.5 -41t-48.5 -112zM232 571l21 101h64l-21 -101h-64zM390 571l21 101h64l-21 -101h-64z" />
    <glyph glyph-name="afii10099" unicode="&#x452;" 
d="M202 -137l11 52q105 0 130 121l56 270q12 60 12 79q0 69 -69 69q-53 0 -92.5 -43t-55.5 -121l-61 -290h-60l124 587h-81l10 48h81l19 87h60l-19 -87h152l-10 -48h-152l-33 -157q51 76 132 76q114 0 114 -113q0 -31 -8 -69l-60 -286q-20 -94 -67.5 -134.5t-122.5 -40.5
h-10z" />
    <glyph glyph-name="afii10100" unicode="&#x453;" horiz-adv-x="340" 
d="M61 0l107 505h273l-10 -48h-213l-97 -457h-60zM233 560l137 137h85l-167 -137h-55z" />
    <glyph glyph-name="afii10101" unicode="&#x454;" horiz-adv-x="389" 
d="M212 -10q-134 0 -134 132q0 40 18 128q25 116 41 152q45 107 157 113h15q62 0 93.5 -28t31.5 -79q0 -16 -5 -41h-60q4 17 4 36q0 64 -72 64q-33 0 -57.5 -17t-39 -49.5t-21.5 -54.5t-14 -58h153l-10 -48h-154q-17 -81 -17 -117q0 -85 67 -85q53 0 77 28t37 77h60
q-11 -72 -55 -112.5t-115 -40.5z" />
    <glyph glyph-name="afii10102" unicode="&#x455;" horiz-adv-x="389" 
d="M209 -13q-139 0 -139 107q0 24 5 54h61q-5 -32 -5 -49q0 -35 17.5 -50.5t55.5 -15.5q48 0 78 30.5t30 78.5q0 47 -63 83q-53 31 -83 63.5t-30 79.5q0 69 45.5 107t117.5 38q126 0 126 -99q0 -22 -6 -47h-59q5 20 5 38q0 60 -69 60q-42 0 -70 -26.5t-28 -68.5
q0 -11 4.5 -21t9 -16.5t15.5 -15.5t16.5 -12.5t19.5 -11.5t17 -10q29 -18 47 -32.5t34 -41t16 -57.5q0 -78 -44 -121.5t-124 -43.5z" />
    <glyph glyph-name="afii10103" unicode="&#x456;" horiz-adv-x="222" 
d="M81 0l107 505h59l-107 -505h-59zM212 646l16 76h72l-16 -76h-72z" />
    <glyph glyph-name="afii10104" unicode="&#x457;" horiz-adv-x="222" 
d="M247 505l-107 -505h-59l107 505h59zM121 571l21 101h64l-21 -101h-64zM279 571l21 101h64l-21 -101h-64z" />
    <glyph glyph-name="afii10105" unicode="&#x458;" horiz-adv-x="222" 
d="M-39 -193l11 52q7 -1 21 -1q38 0 54 16.5t24 55.5l122 575h59l-121 -571q-15 -70 -43.5 -100t-95.5 -30q-16 0 -31 3zM213 646l16 76h74l-16 -76h-74z" />
    <glyph glyph-name="afii10106" unicode="&#x459;" horiz-adv-x="689" 
d="M42 -4q-26 0 -42 4l11 52q8 -2 25 -2h5.5h7t7 0.5t7.5 1.5t8 3t8.5 5l8.5 7t9 10q18 23 36.5 80.5t29 101.5t27.5 126l25 120h282l-46 -217h96q30 0 53 -4.5t45 -16t34 -35.5t12 -59q0 -81 -47.5 -127t-138.5 -46h-175l96 456h-161l-22 -102q-60 -279 -121 -331
q-33 -27 -80 -27zM400 48h104q62 0 92.5 33t30.5 92q0 35 -25.5 51t-84.5 16h-76z" />
    <glyph glyph-name="afii10107" unicode="&#x45a;" horiz-adv-x="682" 
d="M61 0l107 505h60l-46 -217h202l46 217h60l-46 -217h96q30 0 53 -4.5t45 -16t34 -35.5t12 -59q0 -81 -47.5 -127t-138.5 -46h-175l51 240h-202l-51 -240h-60zM393 48h104q62 0 92.5 33t30.5 92q0 35 -25.5 51t-84.5 16h-76z" />
    <glyph glyph-name="afii10108" unicode="&#x45b;" 
d="M73 0l124 587h-81l10 48h81l19 87h60l-19 -87h152l-10 -48h-152l-33 -157q52 76 133 76q114 0 114 -113q0 -24 -7 -59l-70 -334h-59l64 306q12 55 12 84t-18.5 46.5t-50.5 17.5q-53 0 -92.5 -43t-55.5 -121l-61 -290h-60z" />
    <glyph glyph-name="afii10109" unicode="&#x45c;" horiz-adv-x="410" 
d="M64 0l107 505h60l-49 -233h2l238 233h75l-249 -241l154 -264h-71l-149 265h-2l-56 -265h-60zM257 560l137 137h85l-167 -137h-55z" />
    <glyph glyph-name="uni045D" unicode="&#x45d;" horiz-adv-x="452" 
d="M61 0l107 505h60l-86 -404h3l279 404h74l-107 -505h-60l86 404h-3l-279 -404h-74zM397 558h-46l-113 139h73z" />
    <glyph glyph-name="afii10110" unicode="&#x45e;" horiz-adv-x="389" 
d="M66 -192l102 196l-51 501h61l36 -414l208 414h63l-357 -697h-62zM324 578q-52 0 -84.5 27.5t-23.5 83.5h41q-1 -33 22 -49t55 -16t61.5 16t41.5 49h41q-15 -57 -57 -84t-97 -27z" />
    <glyph glyph-name="afii10193" unicode="&#x45f;" 
d="M171 -121l26 121h-136l107 505h60l-97 -457h202l97 457h60l-107 -505h-126l-26 -121h-60z" />
    <glyph glyph-name="afii10146" unicode="&#x462;" horiz-adv-x="541" 
d="M142 0l118 554h-131l11 54h131l24 114h64l-24 -114h139l-11 -54h-139l-34 -157h121q145 0 145 -141q0 -71 -20 -126.5t-70 -92.5t-127 -37h-197zM216 54h118q83 0 120.5 55t37.5 142q0 92 -95 92h-119z" />
    <glyph glyph-name="afii10194" unicode="&#x463;" horiz-adv-x="485" 
d="M120 0l97 457h-110l10 48h110l46 217h60l-46 -217h120l-10 -48h-120l-36 -169h102q65 0 104.5 -24.5t39.5 -91.5q0 -81 -47.5 -126.5t-138.5 -45.5h-181zM190 48h110q62 0 92.5 33t30.5 92q0 35 -25.5 51t-84.5 16h-82z" />
    <glyph glyph-name="afii10147" unicode="&#x472;" horiz-adv-x="556" 
d="M280 -14q-175 0 -175 177q0 42 11 97l52 245q22 102 88.5 168.5t167.5 66.5q94 0 137 -50t43 -135q0 -45 -11 -98l-31 -147q-16 -76 -35 -129t-51 -100.5t-80.5 -71t-115.5 -23.5zM286 40q117 0 170 128q21 50 49 182q-41 -25 -82 -25q-27 0 -72.5 23.5t-72.5 24.5
q-53 0 -81 -34l-14 -67q-14 -67 -14 -111q0 -62 28 -91.5t89 -29.5zM439 378q49 0 79 34l8 36q15 75 15 113q0 124 -118 124q-40 0 -71.5 -14t-52 -35.5t-37 -54t-25 -61.5t-16.5 -66l-11 -52q38 25 80 25q37 0 81.5 -24.5t67.5 -24.5z" />
    <glyph glyph-name="afii10195" unicode="&#x473;" 
d="M225 -13q-144 0 -144 136q0 36 9 78l21 100q23 108 69 161t146 53q78 0 111.5 -34t33.5 -97q0 -38 -11 -87l-21 -100q-23 -109 -68.5 -159.5t-145.5 -50.5zM233 34q23 0 42 7t32.5 16t25.5 27t18.5 31t14 37.5t10.5 36.5t8 37l3 14q-29 -18 -60 -18q-21 0 -55 16t-55 17
q-38 0 -59 -22l-3 -14q-14 -64 -14 -94q0 -91 92 -91zM340 270q37 0 58 21l1 5q11 53 11 82q0 89 -85 89q-38 0 -66 -14.5t-45 -43t-27 -56.5t-18 -67q29 18 59 18q28 0 61.5 -17t50.5 -17z" />
    <glyph glyph-name="afii10148" unicode="&#x474;" horiz-adv-x="500" 
d="M206 0l-43 722h64l33 -647l275 589q35 74 109 74q17 0 32 -3l-11 -52q-7 1 -21 1q-33 0 -56 -46l-303 -638h-79z" />
    <glyph glyph-name="afii10196" unicode="&#x475;" horiz-adv-x="389" 
d="M155 0l-38 505h60l26 -431l176 374q30 64 96 64q15 0 28 -3l-10 -46q-6 1 -19 1q-25 0 -47 -42l-203 -422h-69z" />
    <glyph glyph-name="afii10050" unicode="&#x490;" horiz-adv-x="385" 
d="M68 0l153 722h243l30 141h62l-41 -195h-241l-142 -668h-64z" />
    <glyph glyph-name="afii10098" unicode="&#x491;" horiz-adv-x="340" 
d="M61 0l107 505h213l26 121h60l-36 -169h-213l-97 -457h-60z" />
    <glyph glyph-name="Wgrave" unicode="&#x1e80;" horiz-adv-x="833" 
d="M976 722l-332 -722h-82l-10 642l-286 -642h-82l-21 722h65l12 -637l283 637h87l11 -633l289 633h66zM636 777h-45l-119 137h75z" />
    <glyph glyph-name="wgrave" unicode="&#x1e81;" horiz-adv-x="667" 
d="M764 505l-246 -505h-75l-21 429l-198 -429h-75l-32 505h60l22 -436l200 436h74l21 -436l206 436h64zM505 558h-46l-113 139h73z" />
    <glyph glyph-name="Wacute" unicode="&#x1e82;" horiz-adv-x="833" 
d="M976 722l-332 -722h-82l-10 642l-286 -642h-82l-21 722h65l12 -637l283 637h87l11 -633l289 633h66zM525 777l137 137h85l-167 -137h-55z" />
    <glyph glyph-name="wacute" unicode="&#x1e83;" horiz-adv-x="667" 
d="M764 505l-246 -505h-75l-21 429l-198 -429h-75l-32 505h60l22 -436l200 436h74l21 -436l206 436h64zM396 560l137 137h85l-167 -137h-55z" />
    <glyph glyph-name="Wdieresis" unicode="&#x1e84;" horiz-adv-x="833" 
d="M976 722l-332 -722h-82l-10 642l-286 -642h-82l-21 722h65l12 -637l283 637h87l11 -633l289 633h66zM462 788l21 101h64l-21 -101h-64zM620 788l21 101h64l-21 -101h-64z" />
    <glyph glyph-name="wdieresis" unicode="&#x1e85;" horiz-adv-x="667" 
d="M764 505l-246 -505h-75l-21 429l-198 -429h-75l-32 505h60l22 -436l200 436h74l21 -436l206 436h64zM333 571l21 101h64l-21 -101h-64zM491 571l21 101h64l-21 -101h-64z" />
    <glyph glyph-name="Ygrave" unicode="&#x1ef2;" horiz-adv-x="500" 
d="M641 722l-297 -432l-62 -290h-64l62 290l-113 432h68l89 -359l249 359h68zM469 777h-45l-119 137h75z" />
    <glyph glyph-name="ygrave" unicode="&#x1ef3;" horiz-adv-x="389" 
d="M485 505l-357 -697h-62l102 196l-51 501h61l36 -414l208 414h63zM366 558h-46l-113 139h73z" />
    <glyph glyph-name="uni2010" unicode="&#x2010;" horiz-adv-x="278" 
d="M303 295l-12 -57h-202l12 57h202z" />
    <glyph glyph-name="endash" unicode="&#x2013;" horiz-adv-x="500" 
d="M563 296l-10 -47h-500l10 47h500z" />
    <glyph glyph-name="emdash" unicode="&#x2014;" horiz-adv-x="1000" 
d="M1063 296l-10 -47h-1000l10 47h1000z" />
    <glyph glyph-name="quoteleft" unicode="&#x2018;" horiz-adv-x="222" 
d="M320 722l-78 -183h-71l98 183h51z" />
    <glyph glyph-name="quoteright" unicode="&#x2019;" horiz-adv-x="222" 
d="M313 722l-98 -183h-51l77 183h72z" />
    <glyph glyph-name="quotesinglbase" unicode="&#x201a;" horiz-adv-x="222" 
d="M182 78l-98 -182h-52l80 182h70z" />
    <glyph glyph-name="quotedblleft" unicode="&#x201c;" horiz-adv-x="389" 
d="M476 722l-79 -182h-70l97 182h52zM329 722l-79 -182h-71l98 182h52z" />
    <glyph glyph-name="quotedblright" unicode="&#x201d;" horiz-adv-x="389" 
d="M474 722l-99 -182h-52l79 182h72zM325 722l-97 -182h-52l79 182h70z" />
    <glyph glyph-name="quotedblbase" unicode="&#x201e;" horiz-adv-x="389" 
d="M335 78l-99 -182h-52l80 182h71zM187 78l-98 -182h-52l80 182h70z" />
    <glyph glyph-name="dagger" unicode="&#x2020;" 
d="M507 550l-11 -49h-141l-106 -501h-59l106 501h-141l11 49h141l36 172h59l-36 -172h141z" />
    <glyph glyph-name="daggerdbl" unicode="&#x2021;" 
d="M507 560l-10 -48h-141l-64 -301h141l-10 -48h-141l-35 -163h-56l35 163h-141l10 48h141l64 301h-141l10 48h141l34 162h56l-34 -162h141z" />
    <glyph glyph-name="bullet" unicode="&#x2022;" horiz-adv-x="606" 
d="M562 356q0 -74 -52 -126t-126 -52t-126 52t-52 126t52 126t126 52t126 -52t52 -126z" />
    <glyph glyph-name="ellipsis" unicode="&#x2026;" horiz-adv-x="1000" 
d="M887 79l-17 -79h-75l17 79h75zM554 79l-17 -79h-75l17 79h75zM221 79l-17 -79h-75l17 79h75z" />
    <glyph glyph-name="perthousand" unicode="&#x2030;" horiz-adv-x="889" 
d="M915 232q0 -27 -10 -83q-16 -76 -48.5 -118.5t-100.5 -42.5q-94 0 -94 104q0 31 9 78q34 161 150 161q94 0 94 -99zM369 611q0 -32 -11 -83q-16 -76 -48 -118.5t-100 -42.5q-95 0 -95 104q0 35 10 78q34 161 150 161q94 0 94 -99zM597 710l-444 -724h-43l445 724h42z
M610 232q0 -27 -10 -83q-16 -76 -48.5 -118.5t-100.5 -42.5q-94 0 -94 104q0 31 9 78q34 161 150 161q94 0 94 -99zM863 233q0 52 -45 52q-25 0 -42.5 -12.5t-28.5 -38t-15 -40.5t-10 -43q-8 -40 -8 -63q0 -55 45 -55q19 0 35 10t24.5 19.5t16.5 33.5t10 32t7 34q1 6 2 9
q9 41 9 62zM317 612q0 52 -46 52q-20 0 -35.5 -10t-24.5 -22t-17 -34.5t-10.5 -34l-7.5 -33.5q-8 -33 -8 -63q0 -55 45 -55q12 0 22 2.5t18 9.5l14 12.5t11.5 17t9 18t7 21t5 19.5t4.5 20.5t4 17.5q9 40 9 62zM558 233q0 52 -45 52q-25 0 -42.5 -12.5t-28.5 -38t-15 -40.5
t-10 -43q-8 -40 -8 -63q0 -55 45 -55q19 0 35 10t24.5 19.5t16.5 33.5t10 32t7 34q1 6 2 9q9 41 9 62z" />
    <glyph glyph-name="guilsinglleft" unicode="&#x2039;" horiz-adv-x="222" 
d="M278 447l-124 -201l36 -187h-49l-50 194l131 194h56z" />
    <glyph glyph-name="guilsinglright" unicode="&#x203a;" horiz-adv-x="222" 
d="M235 253l-129 -194h-60l129 200l-41 188h51z" />
    <glyph glyph-name="interrobang" unicode="&#x203d;" horiz-adv-x="389" 
d="M345 622l-47 -203l5 5q35 36 48 65t26 85q8 40 8 56q0 53 -61 53q-77 0 -98 -97q-1 -4 -3 -17h-63q1 7 2.5 13.5t1.5 8.5q30 143 162 143q121 0 121 -104q0 -24 -8 -61q-10 -51 -23.5 -81t-45.5 -68q-7 -9 -28 -32l-36.5 -41.5t-23.5 -33.5q-14 -23 -33 -106l-7 -37h-55
l92 452h66zM215 0h-73l16 79h73z" />
    <glyph glyph-name="fraction" unicode="&#x2044;" horiz-adv-x="167" 
d="M-169 -29l596 751h55l-595 -751h-56z" />
    <glyph glyph-name="zero.superior" unicode="&#x2070;" horiz-adv-x="293" 
d="M206 271q-93 0 -93 97q0 24 7 55l30 142q14 67 43.5 102t97.5 35q95 0 95 -92q0 -23 -7 -58l-31 -144q-14 -67 -43.5 -102t-98.5 -35zM214 314q63 0 84 102l28 134q10 50 10 61q0 48 -51 48q-61 0 -85 -105l-26 -122q-10 -52 -10 -66q0 -52 50 -52z" />
    <glyph glyph-name="four.superior" unicode="&#x2074;" horiz-adv-x="293" 
d="M228 277l22 103h-150l11 49l189 268h67l-58 -272h50l-10 -45h-50l-22 -103h-49zM160 425h100l43 201z" />
    <glyph glyph-name="five.superior" unicode="&#x2075;" horiz-adv-x="293" 
d="M214 271q-99 0 -99 79q0 9 4 31l2 6h52l-2 -9q-3 -14 -3 -24q0 -39 50 -39q36 0 53 23.5t31 89.5q5 23 5 35q0 44 -49 44q-54 0 -70 -42h-49l55 232h203l-10 -46h-154l-29 -121q29 20 70 20q42 0 64 -18t22 -61q0 -24 -7 -55q-17 -78 -48 -111.5t-91 -33.5z" />
    <glyph glyph-name="six.superior" unicode="&#x2076;" horiz-adv-x="293" 
d="M213 271q-54 0 -77 22t-23 65q0 29 12 82l25 112q9 41 16 61.5t22 44.5t41 34t65 10q90 0 90 -77q0 -16 -3 -34h-51q3 15 3 28q0 41 -42 41q-37 0 -57 -23q-20 -20 -40 -111l-2 -12q35 31 78 31q83 0 83 -86q0 -22 -6 -49q-28 -137 -134 -139zM215 314q17 0 30 6.5
t20.5 14.5t14 24t9.5 27.5t7 31.5q5 25 5 38q0 45 -45 45q-39 0 -58 -24t-29 -71q-6 -32 -6 -42q0 -50 52 -50z" />
    <glyph glyph-name="seven.superior" unicode="&#x2077;" horiz-adv-x="293" 
d="M124 277l214 373h-174l10 47h228l-9 -41l-214 -379h-55z" />
    <glyph glyph-name="eight.superior" unicode="&#x2078;" horiz-adv-x="293" 
d="M209 271q-99 0 -99 87q0 16 5 41q9 41 22.5 61.5t46.5 36.5q-28 21 -28 57q0 18 6 45q21 103 128 103q45 0 70.5 -20t25.5 -59q0 -17 -4 -33q-8 -39 -20.5 -58t-44.5 -36q34 -18 34 -60q0 -16 -7 -49q-14 -64 -46.5 -90t-88.5 -26zM211 312q65 0 82 79q5 27 5 39
q0 25 -12 34.5t-39 9.5q-32 0 -52.5 -17.5t-30.5 -65.5q-4 -16 -4 -31q0 -48 51 -48zM255 516q60 0 75 70q4 17 4 32q0 41 -46 41q-63 0 -79 -72q-3 -15 -3 -26q0 -45 49 -45z" />
    <glyph glyph-name="nine.superior" unicode="&#x2079;" horiz-adv-x="293" 
d="M206 271q-96 0 -96 71q0 8 4 32l2 8h52l-2 -9q-2 -7 -2 -20q0 -37 41 -37q39 0 57 17t28 67l13 64q-35 -26 -72 -26q-84 0 -84 87q0 27 8 64q13 57 42 85.5t87 28.5q97 0 97 -93q0 -26 -5 -47l-30 -139q-8 -37 -16 -61t-23 -47t-40 -34t-61 -11zM241 482q37 0 56 21
t30 72q5 25 5 38q0 25 -12 35t-38 10q-31 0 -50 -18.5t-30 -72.5q-5 -25 -5 -39q0 -46 44 -46z" />
    <glyph glyph-name="plus.superior" unicode="&#x207a;" horiz-adv-x="293" 
d="M217 295v114h-115v40h115v115h40v-115h114v-40h-114v-114h-40z" />
    <glyph glyph-name="minus.superior" unicode="&#x207b;" horiz-adv-x="293" 
d="M116 409v40h242v-40h-242z" />
    <glyph glyph-name="equal.superior" unicode="&#x207c;" horiz-adv-x="293" 
d="M116 361v39h242v-39h-242zM116 462v39h242v-39h-242z" />
    <glyph glyph-name="parenleft.superior" unicode="&#x207d;" horiz-adv-x="148" 
d="M114 197q-9 103 -9 138q0 65 12 118q24 112 111 270h43q-78 -168 -100 -272q-15 -71 -15 -165q0 -46 3 -89h-45z" />
    <glyph glyph-name="parenright.superior" unicode="&#x207e;" horiz-adv-x="148" 
d="M116 197h-45q72 140 96 254q18 86 18 192q0 28 -2 80h43q11 -83 11 -137q0 -69 -14 -133q-19 -88 -107 -256z" />
    <glyph glyph-name="n.superior" unicode="&#x207f;" horiz-adv-x="289" 
d="M129 431l64 301h47l-5 -25q35 29 75 29q72 0 72 -66q0 -10 -4 -32l-44 -207h-50l44 205q2 14 2 21q0 36 -35 36q-29 0 -50 -23.5t-31 -67.5l-36 -171h-49z" />
    <glyph glyph-name="zero.inferior" unicode="&#x2080;" horiz-adv-x="293" 
d="M146 -6q-93 0 -93 97q0 24 7 55l30 142q14 67 43.5 102t97.5 35q95 0 95 -92q0 -23 -7 -58l-31 -144q-14 -67 -43.5 -102t-98.5 -35zM154 37q63 0 84 102l28 134q10 50 10 61q0 48 -51 48q-61 0 -85 -105l-26 -122q-10 -52 -10 -66q0 -52 50 -52z" />
    <glyph glyph-name="one.inferior" unicode="&#x2081;" horiz-adv-x="293" 
d="M131 0l75 352q-28 -22 -84 -54l12 56q57 31 93 66h45l-90 -420h-51z" />
    <glyph glyph-name="two.inferior" unicode="&#x2082;" horiz-adv-x="293" 
d="M28 0l9 41l195 219q41 48 41 84t-49 36q-64 0 -76 -64l-3 -10h-51q0 3 1 7.5t1 6.5q11 50 47.5 77.5t92.5 27.5q43 0 67 -18.5t24 -51.5q0 -57 -65 -129l-163 -180h165l-10 -46h-226z" />
    <glyph glyph-name="three.inferior" unicode="&#x2083;" horiz-adv-x="293" 
d="M147 -6q-102 0 -102 83q0 19 4 36h52q-4 -17 -4 -30q0 -45 53 -45q32 0 50 18t27 59q4 19 4 35q0 26 -14 35.5t-46 9.5q-3 0 -10 -1t-13 -1l10 46h18q39 0 60.5 17t30.5 58q3 12 3 22q0 45 -49 45q-31 0 -48 -17t-25 -55l-1 -3h-51l3 14q11 50 45.5 77.5t85.5 27.5
q92 0 92 -75q0 -17 -4 -33q-8 -37 -23.5 -60.5t-45.5 -38.5q36 -19 36 -58q0 -15 -5 -42q-14 -63 -45.5 -93.5t-87.5 -30.5z" />
    <glyph glyph-name="four.inferior" unicode="&#x2084;" horiz-adv-x="293" 
d="M168 0l22 103h-150l11 49l189 268h67l-58 -272h50l-10 -45h-50l-22 -103h-49zM100 148h100l43 201z" />
    <glyph glyph-name="five.inferior" unicode="&#x2085;" horiz-adv-x="293" 
d="M164 -6q-99 0 -99 79q0 9 4 31l2 6h52l-2 -9q-3 -13 -3 -24q0 -39 50 -39q36 0 53 23.5t31 89.5q5 23 5 35q0 44 -49 44q-54 0 -70 -42h-49l55 232h203l-10 -46h-154l-29 -121q29 20 70 20q42 0 64 -18t22 -61q0 -24 -7 -55q-17 -78 -48 -111.5t-91 -33.5z" />
    <glyph glyph-name="six.inferior" unicode="&#x2086;" horiz-adv-x="293" 
d="M153 -6q-54 0 -77 22t-23 65q0 29 12 82l25 112q9 41 16 61.5t22 44.5t41 34t65 10q90 0 90 -77q0 -16 -3 -34h-51q3 15 3 28q0 41 -42 41q-37 0 -57 -23q-20 -20 -40 -111l-2 -12q35 31 78 31q83 0 83 -86q0 -22 -6 -49q-28 -137 -134 -139zM155 37q17 0 30 6.5
t20.5 14.5t14 24t9.5 27.5t7 31.5q5 25 5 38q0 45 -45 45q-39 0 -58 -24t-29 -71q-6 -32 -6 -42q0 -50 52 -50z" />
    <glyph glyph-name="seven.inferior" unicode="&#x2087;" horiz-adv-x="293" 
d="M64 0l214 373h-174l10 47h228l-9 -41l-214 -379h-55z" />
    <glyph glyph-name="eight.inferior" unicode="&#x2088;" horiz-adv-x="293" 
d="M149 -6q-99 0 -99 87q0 16 5 41q9 41 22.5 61.5t46.5 36.5q-28 21 -28 57q0 18 6 45q21 103 128 103q45 0 70.5 -20t25.5 -59q0 -17 -4 -33q-8 -39 -20.5 -58t-44.5 -36q34 -18 34 -60q0 -16 -7 -49q-14 -64 -46.5 -90t-88.5 -26zM151 35q65 0 82 79q5 27 5 39
q0 25 -12 34.5t-39 9.5q-32 0 -52.5 -17.5t-30.5 -65.5q-4 -16 -4 -31q0 -48 51 -48zM195 239q60 0 75 70q4 17 4 32q0 41 -46 41q-63 0 -79 -72q-3 -15 -3 -26q0 -45 49 -45z" />
    <glyph glyph-name="nine.inferior" unicode="&#x2089;" horiz-adv-x="293" 
d="M146 -6q-96 0 -96 71q0 8 4 32l2 8h52l-2 -9q-2 -7 -2 -20q0 -37 41 -37q39 0 57 17t28 67l13 64q-35 -26 -72 -26q-84 0 -84 87q0 27 8 64q13 57 42 85.5t87 28.5q97 0 97 -93q0 -26 -5 -47l-30 -139q-8 -37 -16 -61t-23 -47t-40 -34t-61 -11zM181 205q37 0 56 21t30 72
q5 25 5 38q0 25 -12 35t-38 10q-31 0 -50 -18.5t-30 -72.5q-5 -25 -5 -39q0 -46 44 -46z" />
    <glyph glyph-name="plus.inferior" unicode="&#x208a;" horiz-adv-x="293" 
d="M157 18v114h-115v40h115v115h40v-115h114v-40h-114v-114h-40z" />
    <glyph glyph-name="minus.inferior" unicode="&#x208b;" horiz-adv-x="293" 
d="M56 132v40h242v-40h-242z" />
    <glyph glyph-name="equal.inferior" unicode="&#x208c;" horiz-adv-x="293" 
d="M56 84v39h242v-39h-242zM56 185v39h242v-39h-242z" />
    <glyph glyph-name="parenleft.inferior" unicode="&#x208d;" horiz-adv-x="148" 
d="M54 -80q-9 104 -9 138q0 65 12 118q24 112 111 270h43q-78 -168 -100 -272q-15 -71 -15 -165q0 -45 3 -89h-45z" />
    <glyph glyph-name="parenright.inferior" unicode="&#x208e;" horiz-adv-x="148" 
d="M56 -80h-45q72 140 96 254q18 86 18 192q0 28 -2 80h43q11 -82 11 -137q0 -69 -14 -133q-19 -88 -107 -256z" />
    <glyph glyph-name="Euro" unicode="&#x20ac;" 
d="M92 322h50l14 65h-62l24 54h52l14 65q42 201 216 201q140 0 140 -117q0 -30 -7 -61h-60q6 28 6 50q0 39 -21 56t-66 17q-56 0 -91.5 -32.5t-51.5 -106.5l-15 -72h201l-23 -54h-191l-14 -65h177l-23 -54h-164l-19 -90q-6 -27 -6 -49q0 -88 93 -88q57 0 88 29t44 92h57
q-19 -89 -64.5 -133t-128.5 -44q-155 0 -155 131q0 30 7 61l19 91h-63z" />
    <glyph glyph-name="afii61248" unicode="&#x2105;" horiz-adv-x="754" 
d="M278 390q-86 0 -86 90q0 18 5 43l11 50q14 66 39 97.5t84 31.5q84 0 84 -63q0 -15 -5 -37h-50q3 14 3 25q0 35 -32 35q-34 0 -48.5 -27t-28.5 -93q-11 -51 -11 -70q0 -41 37 -41q43 0 58 64h50q-11 -51 -36.5 -78t-73.5 -27zM717 730h55l-598 -753h-55zM558 -10
q-89 0 -89 86q0 22 7 57l14 66q11 53 41.5 79t87.5 26q43 0 67 -21.5t24 -63.5q0 -19 -4 -38l-14 -65q-14 -66 -42.5 -96t-91.5 -30zM565 30q32 0 49.5 20.5t30.5 80.5l9 40q7 33 7 49q0 43 -45 43q-35 0 -53 -19.5t-29 -72.5l-12 -56q-5 -25 -5 -39q0 -46 48 -46z" />
    <glyph glyph-name="afii61289" unicode="&#x2113;" horiz-adv-x="500" 
d="M282 -14q-46 0 -72.5 22t-26.5 67q0 19 4 36l27 125l-74 -65l-16 32l101 84l55 263q17 80 61 125.5t97 45.5q37 0 59 -23t22 -64q0 -150 -240 -358l-33 -156q-3 -16 -3 -30q0 -60 61 -60q46 0 97 40l16 -31q-68 -53 -135 -53zM290 328q82 77 131 156.5t49 138.5
q0 26 -11.5 41.5t-29.5 15.5q-27 0 -52 -31t-38 -91z" />
    <glyph glyph-name="afii61352" unicode="&#x2116;" horiz-adv-x="829" 
d="M51 0l148 697h89l150 -619h2l131 619h59l-148 -697h-88l-150 621h-2l-132 -621h-59zM554 0l10 48h227l-10 -48h-227zM700 125q-97 0 -97 83q0 17 11 75q1 4 5 25.5t6.5 30.5t9.5 28.5t16 29.5t23 22t34.5 17t46.5 5q97 0 97 -84q0 -28 -11 -74l-5 -26t-6.5 -30.5
t-9 -28.5t-16 -29t-23.5 -22t-34.5 -17t-46.5 -5zM704 172q23 0 38.5 7.5t25 25.5t14 33t10.5 45q10 46 10 63q0 48 -51 48q-30 0 -48.5 -17t-25 -36.5t-14.5 -57.5q-9 -43 -9 -64q0 -23 11 -35t39 -12z" />
    <glyph glyph-name="published" unicode="&#x2117;" horiz-adv-x="800" 
d="M517 343h-87v-198h-60v441h148q73 0 102 -26.5t29 -85.5q0 -131 -132 -131zM430 538v-147h68q49 0 70 17t21 67q0 37 -17.5 50t-56.5 13h-85zM480 740q156 0 267 -110.5t111 -267.5q0 -156 -111 -266.5t-267 -110.5q-157 0 -267.5 110.5t-110.5 266.5q0 157 110.5 267.5
t267.5 110.5zM480 693q-137 0 -234 -96.5t-97 -233.5t97 -234t234 -97t234 97t97 233q0 137 -97 234t-234 97z" />
    <glyph glyph-name="trademark" unicode="&#x2122;" horiz-adv-x="722" 
d="M786 366h-34v317l-122 -317h-32l-122 317v-317h-34v356h57l116 -301l116 301h55v-356zM404 688h-126v-322h-38v322h-126v34h290v-34z" />
    <glyph glyph-name="Omega" unicode="&#x2126;" horiz-adv-x="556" 
d="M65 0l11 54h114l17 81q-76 39 -76 155q0 40 11 93l24 114q51 243 263 243q89 0 133 -51t44 -134q0 -36 -10 -84l-23 -102q-45 -198 -169 -239l-16 -76h114l-11 -54h-175l36 174q65 12 102.5 66.5t60.5 162.5l11 51q14 63 14 107q0 124 -117 124q-40 0 -71.5 -14
t-52 -35.5t-36.5 -54t-24.5 -61t-16.5 -66.5l-11 -51q-14 -67 -14 -111q0 -102 79 -118l-36 -174h-175z" />
    <glyph glyph-name="estimated" unicode="&#x212e;" horiz-adv-x="742" 
d="M778 340h-511v-230q75 -75 183 -75q79 0 138 36.5t106 115.5l44 -26q-58 -92 -123.5 -131.5t-164.5 -39.5q-146 0 -236 100t-90 250t90 250t236 100q145 0 235.5 -97.5t92.5 -252.5zM267 386h368v183q-79 76 -186 76q-108 0 -182 -76v-183z" />
    <glyph glyph-name="onethird" unicode="&#x2153;" horiz-adv-x="754" 
d="M191 277l75 352q-28 -22 -84 -54l12 56q57 31 93 66h45l-90 -420h-51zM117 -29l596 751h55l-595 -751h-56zM608 -6q-102 0 -102 83q0 19 4 36h52q-4 -17 -4 -30q0 -45 53 -45q31 0 49.5 18.5t27.5 58.5q4 19 4 35q0 26 -14 35.5t-46 9.5q-3 0 -10 -1t-13 -1l10 46h18
q39 0 60.5 17t30.5 58q3 12 3 22q0 45 -49 45q-31 0 -48 -17t-25 -55l-1 -3h-51l3 14q11 50 45.5 77.5t85.5 27.5q92 0 92 -75q0 -17 -4 -33q-8 -37 -23.5 -60.5t-45.5 -38.5q36 -19 36 -58q0 -15 -5 -42q-14 -63 -45.5 -93.5t-87.5 -30.5z" />
    <glyph glyph-name="twothirds" unicode="&#x2154;" horiz-adv-x="754" 
d="M88 277l9 41l195 219q41 48 41 84t-49 36q-64 0 -76 -64l-3 -10h-51q0 3 1 7.5t1 6.5q11 49 46 77t83 28q102 0 102 -80q0 -47 -65 -119l-163 -180h165l-10 -46h-226zM119 -29l596 751h55l-595 -751h-56zM608 -6q-102 0 -102 83q0 19 4 36h52q-4 -17 -4 -30q0 -45 53 -45
q31 0 49.5 18.5t27.5 58.5q4 19 4 35q0 26 -14 35.5t-46 9.5q-3 0 -10 -1t-13 -1l10 46h18q39 0 60.5 17t30.5 58q3 12 3 22q0 45 -49 45q-31 0 -48 -17t-25 -55l-1 -3h-51l3 14q11 50 45.5 77.5t85.5 27.5q92 0 92 -75q0 -17 -4 -33q-8 -37 -23.5 -60.5t-45.5 -38.5
q36 -19 36 -58q0 -15 -5 -42q-14 -63 -45.5 -93.5t-87.5 -30.5z" />
    <glyph glyph-name="oneeighth" unicode="&#x215b;" horiz-adv-x="754" 
d="M191 277l75 352q-28 -22 -84 -54l12 56q57 31 93 66h45l-90 -420h-51zM114 -29l596 751h55l-595 -751h-56zM604 -6q-99 0 -99 87q0 16 5 41q9 41 22.5 61.5t46.5 36.5q-28 21 -28 57q0 18 6 45q21 103 128 103q45 0 70.5 -20t25.5 -59q0 -17 -4 -33q-8 -39 -20.5 -58
t-44.5 -36q34 -18 34 -60q0 -16 -7 -49q-14 -64 -46.5 -90t-88.5 -26zM606 35q65 0 82 79q5 27 5 39q0 25 -12 34.5t-39 9.5q-32 0 -52.5 -17.5t-30.5 -65.5q-4 -16 -4 -31q0 -48 51 -48zM650 239q60 0 75 70q4 17 4 32q0 41 -46 41q-63 0 -79 -72q-3 -15 -3 -26
q0 -45 49 -45z" />
    <glyph glyph-name="threeeighths" unicode="&#x215c;" horiz-adv-x="754" 
d="M207 271q-102 0 -102 83q0 19 4 36h52q-4 -17 -4 -30q0 -45 53 -45q32 0 50 18.5t27 58.5q4 19 4 35q0 26 -14 35.5t-46 9.5q-3 0 -10 -1t-13 -1l10 46h18q39 0 60.5 17t30.5 58q3 12 3 22q0 45 -49 45q-31 0 -48 -17t-25 -55l-1 -3h-51l3 14q11 50 45.5 77.5t85.5 27.5
q92 0 92 -75q0 -17 -4 -33q-8 -37 -23.5 -60.5t-45.5 -38.5q36 -19 36 -58q0 -15 -5 -42q-14 -63 -45.5 -93.5t-87.5 -30.5zM118 -29l596 751h55l-595 -751h-56zM607 -6q-99 0 -99 87q0 16 5 41q9 41 22.5 61.5t46.5 36.5q-28 21 -28 57q0 18 6 45q21 103 128 103
q45 0 70.5 -20t25.5 -59q0 -17 -4 -33q-8 -39 -20.5 -58t-44.5 -36q34 -18 34 -60q0 -16 -7 -49q-14 -64 -46.5 -90t-88.5 -26zM609 35q65 0 82 79q5 27 5 39q0 25 -12 34.5t-39 9.5q-32 0 -52.5 -17.5t-30.5 -65.5q-4 -16 -4 -31q0 -48 51 -48zM653 239q60 0 75 70
q4 17 4 32q0 41 -46 41q-63 0 -79 -72q-3 -15 -3 -26q0 -45 49 -45z" />
    <glyph glyph-name="fiveeighths" unicode="&#x215d;" horiz-adv-x="754" 
d="M206 271q-99 0 -99 79q0 9 4 31l2 6h52l-2 -9q-3 -14 -3 -24q0 -39 50 -39q36 0 53 23.5t31 89.5q5 23 5 35q0 44 -49 44q-54 0 -70 -42h-49l55 232h203l-10 -46h-154l-29 -121q29 20 70 20q42 0 64 -18t22 -61q0 -24 -7 -55q-17 -78 -48 -111.5t-91 -33.5zM114 -29
l596 751h55l-595 -751h-56zM602 -6q-99 0 -99 87q0 16 5 41q9 41 22.5 61.5t46.5 36.5q-28 21 -28 57q0 18 6 45q21 103 128 103q45 0 70.5 -20t25.5 -59q0 -17 -4 -33q-8 -39 -20.5 -58t-44.5 -36q34 -18 34 -60q0 -16 -7 -49q-14 -64 -46.5 -90t-88.5 -26zM604 35
q65 0 82 79q5 27 5 39q0 25 -12 34.5t-39 9.5q-32 0 -52.5 -17.5t-30.5 -65.5q-4 -16 -4 -31q0 -48 51 -48zM648 239q60 0 75 70q4 17 4 32q0 41 -46 41q-63 0 -79 -72q-3 -15 -3 -26q0 -45 49 -45z" />
    <glyph glyph-name="seveneighths" unicode="&#x215e;" horiz-adv-x="754" 
d="M157 277l214 373h-174l10 47h228l-9 -41l-214 -379h-55zM107 -29l596 751h55l-595 -751h-56zM605 -6q-99 0 -99 87q0 16 5 41q9 41 22.5 61.5t46.5 36.5q-28 21 -28 57q0 18 6 45q21 103 128 103q45 0 70.5 -20t25.5 -59q0 -17 -4 -33q-8 -39 -20.5 -58t-44.5 -36
q34 -18 34 -60q0 -16 -7 -49q-14 -64 -46.5 -90t-88.5 -26zM607 35q65 0 82 79q5 27 5 39q0 25 -12 34.5t-39 9.5q-32 0 -52.5 -17.5t-30.5 -65.5q-4 -16 -4 -31q0 -48 51 -48zM651 239q60 0 75 70q4 17 4 32q0 41 -46 41q-63 0 -79 -72q-3 -15 -3 -26q0 -45 49 -45z" />
    <glyph glyph-name="partialdiff" unicode="&#x2202;" horiz-adv-x="425" 
d="M141 661l-21 48q66 46 133 46q85 0 148.5 -100.5t63.5 -273.5q0 -81 -12.5 -148t-33.5 -111.5t-48.5 -74.5t-57 -43.5t-60.5 -13.5q-68 0 -108.5 54t-40.5 152q0 105 53 175.5t128 70.5q74 0 110 -64l1 21q0 133 -43.5 214.5t-105.5 81.5q-59 0 -106 -34zM260 49
q50 0 87.5 74.5t42.5 180.5q-13 38 -38 59t-55 21q-50 0 -86 -52.5t-36 -132.5q0 -78 24 -114t61 -36z" />
    <glyph glyph-name="Delta" unicode="&#x2206;" horiz-adv-x="560" 
d="M549 0h-538l381 722h78zM475 57l-56 605l-310 -605h366z" />
    <glyph glyph-name="product" unicode="&#x220f;" horiz-adv-x="573" 
d="M592 748v-878h-68v816h-337v-816h-68v878h473z" />
    <glyph glyph-name="summation" unicode="&#x2211;" horiz-adv-x="512" 
d="M579 -130h-499v47l202 388l-189 392v51h460v-60h-373v-4l178 -375l-192 -374v-5h413v-60z" />
    <glyph glyph-name="minus" unicode="&#x2212;" 
d="M474 279v-52h-404v52h404z" />
    <glyph glyph-name="uni2215" unicode="&#x2215;" horiz-adv-x="167" 
d="M-169 -29l596 751h55l-595 -751h-56z" />
    <glyph glyph-name="uni2219" unicode="&#x2219;" horiz-adv-x="222" 
d="M119 215l16 76h74l-16 -76h-74z" />
    <glyph glyph-name="radical" unicode="&#x221a;" horiz-adv-x="498" 
d="M562 800l-209 -890h-59l-148 407l-70 -27l-16 45l129 51l110 -314q13 -39 20 -76h1q5 44 13 74q9 33 51 215.5l79 348.5l37 166h62z" />
    <glyph glyph-name="infinity" unicode="&#x221e;" horiz-adv-x="722" 
d="M731 251q0 -62 -37 -103t-99 -41q-35 0 -72 18t-60 37t-56 51q-4 -3 -20.5 -17.5l-22 -19.5t-21 -17.5t-23.5 -17l-23 -13t-26 -12t-26 -6.5t-29 -3q-60 0 -97.5 40t-37.5 101q0 60 37 102.5t96 42.5q19 0 39 -5.5t33.5 -12t34 -21.5t29 -22t30.5 -27.5t27 -24.5
q28 28 41 40t40.5 33.5t52.5 30.5t52 9q61 0 99.5 -40.5t38.5 -101.5zM679 248q0 40 -22.5 66t-62.5 26q-19 0 -39 -7.5t-45 -27t-33.5 -27l-34.5 -31.5q2 -1 16.5 -14l18 -16t17.5 -14t20 -14.5l18.5 -11t21.5 -10t21 -5t23 -2.5q38 0 59.5 25t21.5 63zM371 247l-33 27.5
t-41 33t-38.5 21.5t-44.5 11q-36 0 -58.5 -27.5t-22.5 -64.5q0 -40 23 -64t62 -24q61 0 153 87z" />
    <glyph glyph-name="integral" unicode="&#x222b;" horiz-adv-x="314" 
d="M191 90q-4 134 -5 184q-4 198 -4 253q0 231 135 231q23 0 41 -8l-11 -53q-12 4 -28 4q-39 0 -55.5 -39.5t-17.5 -139.5v-27q0 -54 4.5 -164.5t4.5 -176.5q0 -61 -1 -90q-5 -117 -40 -163t-93 -46q-28 0 -44 8q5 30 10 55q17 -5 30 -5q75 0 74 177z" />
    <glyph glyph-name="approxequal" unicode="&#x2248;" 
d="M481 388q-7 -53 -30 -88.5t-64 -35.5q-14 0 -37 6.5t-39 13l-43.5 18.5t-33.5 14q-51 22 -73 22q-47 0 -58 -83h-38q18 126 94 126q29 0 81 -22l82 -34q45 -18 64 -18q26 0 38.5 21t19.5 60h37zM481 228q-7 -53 -30 -88.5t-64 -35.5q-14 0 -37 6.5t-39 13l-43.5 18.5
t-33.5 14q-51 22 -73 22q-47 0 -58 -83h-38q18 126 94 126q29 0 81 -22l82 -34q45 -18 64 -18q26 0 38.5 21t19.5 60h37z" />
    <glyph glyph-name="notequal" unicode="&#x2260;" 
d="M473 148h-238l-64 -120l-37 20l53 100h-117v49h143l64 119h-207v49h234l61 113l37 -20l-50 -93h121v-49h-148l-64 -119h212v-49z" />
    <glyph glyph-name="lessequal" unicode="&#x2264;" 
d="M465 100l-406 160v48l406 161v-48l-347 -137l347 -136v-48zM465 -21h-406v42h406v-42z" />
    <glyph glyph-name="greaterequal" unicode="&#x2265;" 
d="M485 260l-406 -160v48l347 136l-347 137v48l406 -161v-48zM485 -21h-406v42h406v-42z" />
    <glyph glyph-name="lozenge" unicode="&#x25ca;" horiz-adv-x="493" 
d="M509 330l-163 -361h-61l-163 361l163 362h61zM440 328l-116 273q-6 12 -9 26h-2q-1 -4 -4 -11.5t-4 -10.5l-115 -273l104 -244q2 -5 7 -15.5t8.5 -19.5t5.5 -18h3q5 17 7 22z" />
    <glyph glyph-name="f_i" unicode="&#xf001;" 
d="M369 0h-60l107 505h60zM513 646h-74l16 76h74zM100 0l97 457h-81l10 48h81l18 85q6 25 13 43t23.5 42t47.5 37.5t74 13.5q5 0 33 -4l-10 -50h-45q-20 0 -34.5 -8t-22.5 -22.5t-11.5 -24.5t-6.5 -26l-19 -86h102l-10 -48h-102l-97 -457h-60z" />
    <glyph glyph-name="f_l" unicode="&#xf002;" 
d="M100 0l97 457h-81l10 48h81l18 85q6 25 13 43t23.5 42t47.5 37.5t74 13.5q5 0 33 -4l-10 -50h-45q-20 0 -34.5 -8t-22.5 -22.5t-11.5 -24.5t-6.5 -26l-19 -86h102l-10 -48h-102l-97 -457h-60zM368 0h-60l153 722h60z" />
    <glyph glyph-name="uniF8FF" unicode="&#xf8ff;" horiz-adv-x="497" 
d="M340 114h-55v64h55v-64zM333 228h-47v16q0 51 11.5 77t47.5 57q47 46 47 82q0 34 -22 58t-52 24q-69 0 -79 -92l-49 8q7 67 41.5 100t89.5 33q54 0 87.5 -35t33.5 -92q0 -33 -12.5 -57.5t-48.5 -58.5q-35 -31 -41.5 -47t-6.5 -59v-14zM118 48h401v600h-401v-600zM70 697
h497v-697h-497v697z" />
    <glyph glyph-name="grave.cap" horiz-adv-x="278" 
d="M368 777h-45l-119 137h75z" />
    <glyph glyph-name="acute.cap" horiz-adv-x="278" 
d="M240 777l137 137h85l-167 -137h-55z" />
    <glyph glyph-name="circumflex.cap" horiz-adv-x="278" 
d="M328 877l-104 -102h-67l143 139h67l83 -139h-61z" />
    <glyph glyph-name="caron.cap" horiz-adv-x="278" 
d="M309 812l104 102h67l-143 -139h-67l-83 139h61z" />
    <glyph glyph-name="caron.alt" horiz-adv-x="278" 
d="M216 585l59 137h73l-79 -137h-53z" />
    <glyph glyph-name="tilde.cap" horiz-adv-x="278" 
d="M193 812h-38q13 40 41 69q33 33 69 33q8 0 17.5 -3t16.5 -6.5l17.5 -9l16.5 -8.5t16.5 -9l16 -9t14 -6t15.5 -3q37 0 56 54h38q-13 -41 -38 -68q-29 -34 -66 -34q-9 0 -19 3t-16.5 6t-18 9t-16.5 9q-6 3 -16 9t-16 9t-15 6t-17 3q-18 0 -34.5 -17t-23.5 -37z" />
    <glyph glyph-name="dieresis.cap" horiz-adv-x="278" 
d="M195 788l21 101h64l-21 -101h-64zM353 788l21 101h64l-21 -101h-64z" />
    <glyph glyph-name="macron.cap" horiz-adv-x="278" 
d="M192 865h260l-10 -48h-260z" />
    <glyph glyph-name="breve.cap" horiz-adv-x="278" 
d="M189 914h39q-2 -41 21.5 -61t66.5 -20q84 0 124 81h37q-20 -63 -63 -96t-104 -33t-95 35t-26 94z" />
    <glyph glyph-name="ring.cap" horiz-adv-x="278" 
d="M335 953q38 0 59 -22.5t21 -55.5q0 -45 -31 -77t-77 -32q-36 0 -58.5 22.5t-22.5 59.5q0 42 33 73.5t76 31.5zM334 918q-28 0 -50 -19.5t-22 -50.5q0 -20 13.5 -33.5t33.5 -13.5q29 0 49.5 22t20.5 49q0 20 -12.5 33t-32.5 13z" />
    <glyph glyph-name="hungarumlaut.cap" horiz-adv-x="278" 
d="M165 777l142 137h80l-172 -137h-50zM295 777l142 137h80l-172 -137h-50z" />
    <glyph glyph-name="dotaccent.cap" horiz-adv-x="278" 
d="M274 788l21 101h64l-21 -101h-64z" />
    <glyph glyph-name="commaaccent" horiz-adv-x="278" 
d="M51 -165l60 137h73l-80 -137h-53z" />
    <glyph glyph-name="commaaccent.alt" horiz-adv-x="278" 
d="M349 697l-59 -137h-73l79 137h53z" />
    </font>
</defs>
</svg>
