<?xml version="1.0" standalone="no"?>
<!DOCTYPE svg PUBLIC "-//W3C//DTD SVG 1.1//EN" "http://www.w3.org/Graphics/SVG/1.1/DTD/svg11.dtd" >
<svg>
<metadata>
Created by FontForge 20090622 at Tue Dec  6 10:30:43 2016
 By deploy user
Copyright &#194;&#169; 2009 Linotype Corp., www.linotype.com. All rights reserved. This font software may not be reproduced, modified, disclosed or transferred without the express written approval of Linotype Corp. Univers is a trademark of Linotype Corp. registered in the U.S. Patent and Trademark Office and may be registered in certain other jurisdictions in the name of Linotype Corp. or its licensee Linotype GmbH. This typeface is original artwork of Adrian Frutiger. The design may be protected in certain jurisdictions. 
</metadata>
<defs>
<font id="UniversLTCYR-39ThinUltCond" horiz-adv-x="204" >
  <font-face 
    font-family="Univers LT CYR 39 Thin UltraCn"
    font-weight="250"
    font-stretch="ultra-condensed"
    units-per-em="1000"
    panose-1="2 11 2 8 3 7 2 6 2 4"
    ascent="750"
    descent="-250"
    x-height="502"
    cap-height="722"
    bbox="-30 -217 1000 923"
    underline-thickness="50"
    underline-position="-50"
    unicode-range="U+000D-U+FB04"
  />
<missing-glyph horiz-adv-x="485" 
d="M263 111h-53v63h53v-63zM257 222h-46v16q0 50 11 75.5t46 55.5q28 27 37 44t9 36q0 33 -21 56.5t-51 23.5q-67 0 -77 -90q-8 1 -24 3.5t-24 4.5q7 66 41 98t87 32q52 0 85 -34t33 -90q0 -32 -12.5 -56.5t-47.5 -56.5t-40.5 -47.5t-5.5 -70.5zM47 47h391v585h-391v-585z
M0 680h485v-680h-485v680z" />
    <glyph glyph-name="IJ" unicode="IJ" horiz-adv-x="297" 
d="M76 0h-40v722h40v-722zM264 70q0 -34 -20.5 -54t-54.5 -20t-54.5 20t-20.5 54v123h40v-122q0 -24 8.5 -34.5t27.5 -10.5q34 0 34 45v651h40v-652z" />
    <glyph glyph-name="ij" unicode="ij" horiz-adv-x="188" 
d="M69 636h-44v52h44v-52zM65 0h-36v502h36v-502zM163 636h-44v52h44v-52zM159 -139q0 -45 -37 -45h-27v26h8q20 0 20 27v633h36v-641z" />
    <glyph glyph-name="napostrophe" unicode="&#x22;n" 
d="M171 0h-36v434q0 42 -28 42q-17 0 -27.5 -15.5t-10.5 -39.5v-421h-36v502h36v-27h2q16 31 50 31q50 0 50 -59v-447zM28 626l15 96h38l-29 -96h-24z" />
    <glyph glyph-name="f_f" unicode="ff" horiz-adv-x="217" 
d="M33 0v472h-28v30h28v171q0 49 50 49h23v-30h-16q-21 0 -21 -28v-162h70v171q0 49 50 49h23v-30h-16q-21 0 -21 -28v-162h37v-30h-37v-472h-36v472h-70v-472h-36z" />
    <glyph glyph-name="fi" unicode="fi" horiz-adv-x="200" 
d="M106 472h-37v-472h-36v472h-28v30h28v171q0 49 50 49h23v-30h-16q-21 0 -21 -28v-162h37v-30zM175 636h-44v52h44v-52zM171 0h-36v502h36v-502z" />
    <glyph glyph-name="fl" unicode="fl" horiz-adv-x="200" 
d="M106 472h-37v-472h-36v472h-28v30h28v171q0 49 50 49h23v-30h-16q-21 0 -21 -28v-162h37v-30zM171 0h-36v722h36v-722z" />
    <glyph glyph-name="f_f_i" unicode="ffi" horiz-adv-x="301" 
d="M33 0v472h-28v30h28v171q0 49 50 49h23v-30h-16q-21 0 -21 -28v-162h70v171q0 49 50 49h23v-30h-16q-21 0 -21 -28v-162h37v-30h-37v-472h-36v472h-70v-472h-36zM236 0v502h36v-502h-36zM232 636v52h44v-52h-44z" />
    <glyph glyph-name="f_f_l" unicode="ffl" horiz-adv-x="306" 
d="M33 0v472h-28v30h28v171q0 49 50 49h23v-30h-16q-21 0 -21 -28v-162h70v171q0 49 50 49h23v-30h-16q-21 0 -21 -28v-162h37v-30h-37v-472h-36v472h-70v-472h-36zM241 0v722h36v-722h-36z" />
    <glyph glyph-name=".notdef" horiz-adv-x="485" 
d="M263 111h-53v63h53v-63zM257 222h-46v16q0 50 11 75.5t46 55.5q28 27 37 44t9 36q0 33 -21 56.5t-51 23.5q-67 0 -77 -90q-8 1 -24 3.5t-24 4.5q7 66 41 98t87 32q52 0 85 -34t33 -90q0 -32 -12.5 -56.5t-47.5 -56.5t-40.5 -47.5t-5.5 -70.5zM47 47h391v585h-391v-585z
M0 680h485v-680h-485v680z" />
    <glyph glyph-name=".null" horiz-adv-x="500" 
 />
    <glyph glyph-name="nonmarkingreturn" horiz-adv-x="333" 
 />
    <glyph glyph-name="CR" unicode="&#xd;" horiz-adv-x="0" 
 />
    <glyph glyph-name="space" unicode=" " horiz-adv-x="112" 
 />
    <glyph glyph-name="exclam" unicode="!" horiz-adv-x="167" 
d="M110 722l-12 -556h-28l-12 556h52zM106 0h-44v52h44v-52z" />
    <glyph glyph-name="quotedbl" unicode="&#x22;" horiz-adv-x="167" 
d="M145 722l-4 -177h-25l-5 177h34zM56 722l-4 -177h-25l-5 177h34z" />
    <glyph glyph-name="numbersign" unicode="#" horiz-adv-x="224" 
d="M234 454h-52l-25 -186h49v-30h-53l-31 -238h-30l31 238h-55l-31 -238h-30l31 238h-48v30h52l25 186h-49v30h53l31 238h30l-31 -238h55l31 238h30l-31 -238h48v-30zM152 454h-55l-25 -186h55z" />
    <glyph glyph-name="dollar" unicode="$" horiz-adv-x="224" 
d="M197 60q0 -30 -16.5 -45t-55.5 -19v-81h-30v81q-39 5 -53.5 19.5t-14.5 47.5v138h36v-128q0 -26 11.5 -36.5t39.5 -10.5q25 0 36 11t11 36v123q0 55 -21 93l-89 158q-24 43 -24 99v117q0 54 68 63v80h30v-80q38 -2 55 -17.5t17 -47.5v-131h-36v119q0 26 -11.5 36.5
t-39.5 10.5q-25 0 -36 -11t-11 -36v-108q0 -40 16 -69l88 -157q30 -52 30 -109v-146z" />
    <glyph glyph-name="percent" unicode="%" horiz-adv-x="278" 
d="M105 388q0 -40 -46 -40q-44 0 -44 40v298q0 40 46 40q20 0 32 -11t12 -29v-298zM220 757l-135 -792h-28l135 792h28zM263 36q0 -40 -46 -40q-44 0 -44 40v298q0 40 46 40q20 0 32 -11t12 -29v-298zM79 391v292q0 21 -19 21t-19 -21v-292q0 -21 19 -21t19 21zM237 39v292
q0 21 -19 21t-19 -21v-292q0 -21 19 -21t19 21z" />
    <glyph glyph-name="ampersand" unicode="&#x26;" horiz-adv-x="241" 
d="M244 0h-30l-19 62q-7 22 -11 49h-2v-23q0 -92 -81 -92q-43 0 -61 28.5t-18 96.5v130q0 58 14 88l38 81l-27 88q-11 36 -11 91v56q0 33 17.5 52t48.5 19t48.5 -17t17.5 -47v-68q0 -59 -13 -85l-46 -97l46 -145q12 -40 15 -96h2v249h30v-148q0 -40 -4 -118zM132 577v80
q0 39 -31 39q-13 0 -21 -10.5t-8 -26.5v-92q0 -33 8 -58l16 -54l23 51q13 28 13 71zM160 114v25l-72 239l-15 -30q-15 -28 -15 -82v-155q0 -85 47 -85q55 0 55 88z" />
    <glyph glyph-name="quotesingle" unicode="'" horiz-adv-x="112" 
d="M73 722l-4 -177h-25l-5 177h34z" />
    <glyph glyph-name="parenleft" unicode="(" horiz-adv-x="130" 
d="M110 -156h-26q-24 114 -36 216q-12 114 -12 223t12 223q12 102 36 216h26q-15 -93 -21 -155q-13 -130 -13 -284q0 -152 12 -284q6 -66 22 -155z" />
    <glyph glyph-name="parenright" unicode=")" horiz-adv-x="130" 
d="M94 283q0 -109 -12 -223q-12 -104 -36 -216h-26q15 91 21 155q13 129 13 284q0 168 -12 284q-6 66 -22 155h26q24 -112 36 -216q12 -114 12 -223z" />
    <glyph glyph-name="asterisk" unicode="*" horiz-adv-x="222" 
d="M210 612l-84 9l48 -68l-30 -17l-34 76l-33 -76l-30 17l49 68l-84 -9v35l84 -9l-49 69l30 15l33 -75l34 75l30 -15l-48 -69l84 9v-35z" />
    <glyph glyph-name="plus" unicode="+" horiz-adv-x="600" 
d="M553 238h-238v-238h-30v238h-238v30h238v238h30v-238h238v-30z" />
    <glyph glyph-name="comma" unicode="," horiz-adv-x="112" 
d="M88 52l-34 -130h-30l20 130h44z" />
    <glyph glyph-name="hyphen" unicode="-" horiz-adv-x="111" 
d="M102 238h-93v26h93v-26z" />
    <glyph glyph-name="period" unicode="." horiz-adv-x="112" 
d="M78 0h-44v52h44v-52z" />
    <glyph glyph-name="slash" unicode="/" 
d="M190 787l-146 -852h-30l146 852h30z" />
    <glyph glyph-name="zero" unicode="0" horiz-adv-x="224" 
d="M190 65q0 -69 -80 -69q-37 0 -56.5 18t-19.5 51v596q0 31 20.5 48t57.5 17t57.5 -18t20.5 -51v-592zM154 70v582q0 44 -42 44t-42 -44v-582q0 -44 43 -44q41 0 41 44z" />
    <glyph glyph-name="one" unicode="1" horiz-adv-x="224" 
d="M139 0h-36v662h-2l-41 -68v54l49 74h30v-722z" />
    <glyph glyph-name="two" unicode="2" horiz-adv-x="224" 
d="M190 0h-156v46l104 413q9 37 9 78v115q0 44 -38 44q-19 0 -27 -12t-8 -42v-92h-36v97q0 79 72 79q73 0 73 -76v-109q0 -58 -13 -106l-106 -405h126v-30z" />
    <glyph glyph-name="three" unicode="3" horiz-adv-x="224" 
d="M190 65q0 -69 -80 -69q-36 0 -56 18t-20 51v117h36v-112q0 -44 41 -44q43 0 43 44v232q0 31 -10.5 41.5t-40.5 10.5h-13v30h11q27 0 37.5 13t10.5 46v209q0 44 -40 44q-36 0 -36 -44v-100h-36v106q0 68 75 68q73 0 73 -69v-225q0 -26 -10 -39.5t-35 -21.5v-2
q27 -4 38.5 -19.5t11.5 -47.5v-237z" />
    <glyph glyph-name="four" unicode="4" horiz-adv-x="224" 
d="M213 193h-42v-193h-36v193h-114v49l94 480h56v-499h42v-30zM135 223v469h-2q-8 -69 -15 -103l-67 -366h84z" />
    <glyph glyph-name="five" unicode="5" horiz-adv-x="224" 
d="M190 80q0 -84 -79 -84q-77 0 -77 90v97h36v-108q0 -49 43 -49q41 0 41 56v321q0 47 -35 47q-49 0 -49 -79v-50h-36v401h143v-30h-107v-249q16 37 56 37q64 0 64 -74v-326z" />
    <glyph glyph-name="six" unicode="6" horiz-adv-x="224" 
d="M190 65q0 -33 -20.5 -51t-58.5 -18q-77 0 -77 69v592q0 69 77 69q37 0 56.5 -18t19.5 -51v-123h-36v118q0 44 -40 44q-41 0 -41 -44v-212h2q12 33 55 33q63 0 63 -74v-334zM154 70v327q0 46 -39 46q-19 0 -32 -16.5t-13 -39.5v-317q0 -44 45 -44q39 0 39 44z" />
    <glyph glyph-name="seven" unicode="7" horiz-adv-x="224" 
d="M190 689l-84 -689h-40l88 692h-120v30h156v-33z" />
    <glyph glyph-name="eight" unicode="8" horiz-adv-x="224" 
d="M190 65q0 -33 -21 -51t-59 -18q-37 0 -56.5 18t-19.5 51v275q0 50 43 57v2q-37 7 -37 61v201q0 65 73 65q71 0 71 -65v-201q0 -54 -37 -61v-2q43 -7 43 -57v-275zM148 450v209q0 20 -8.5 28.5t-28.5 8.5q-35 0 -35 -37v-209q0 -37 37 -37q35 0 35 37zM154 70v269
q0 24 -10 34t-34 10q-22 0 -31 -10.5t-9 -33.5v-269q0 -24 9.5 -34t32.5 -10t32.5 10t9.5 34z" />
    <glyph glyph-name="nine" unicode="9" horiz-adv-x="224" 
d="M190 65q0 -69 -77 -69q-37 0 -56.5 18t-19.5 51v123h36v-118q0 -44 40 -44q41 0 41 44v212h-2q-11 -33 -55 -33q-63 0 -63 74v334q0 33 20.5 51t58.5 18q37 0 57 -18t20 -51v-592zM154 335v317q0 20 -12 32t-33 12q-39 0 -39 -44v-327q0 -46 38 -46q19 0 32.5 16.5
t13.5 39.5z" />
    <glyph glyph-name="colon" unicode=":" horiz-adv-x="112" 
d="M78 450h-44v52h44v-52zM78 0h-44v52h44v-52z" />
    <glyph glyph-name="semicolon" unicode=";" horiz-adv-x="112" 
d="M88 450h-44v52h44v-52zM88 52l-34 -130h-30l20 130h44z" />
    <glyph glyph-name="less" unicode="&#x3c;" horiz-adv-x="600" 
d="M553 -4l-506 247v30l506 245v-30l-476 -230l476 -232v-30z" />
    <glyph glyph-name="equal" unicode="=" horiz-adv-x="600" 
d="M553 335h-506v30h506v-30zM553 141h-506v30h506v-30z" />
    <glyph glyph-name="greater" unicode="&#x3e;" horiz-adv-x="600" 
d="M553 243l-506 -247v30l476 232l-476 230v30l506 -245v-30z" />
    <glyph glyph-name="question" unicode="?" horiz-adv-x="222" 
d="M190 545q0 -50 -20 -110l-18 -54q-13 -40 -13 -43q-7 -21 -7 -56v-116h-36v140q0 39 29 113q29 76 29 113v120q0 44 -38 44q-35 0 -35 -45v-97h-36v100q0 72 74 72q38 0 54.5 -19.5t16.5 -65.5v-96zM138 0h-44v52h44v-52z" />
    <glyph glyph-name="at" unicode="@" horiz-adv-x="800" 
d="M430 -82q-178 0 -293.5 106t-115.5 284q0 185 121.5 301.5t299.5 116.5q154 0 245.5 -80t91.5 -232q0 -111 -65 -198t-153 -87q-38 0 -62.5 20t-31.5 52q-45 -72 -117 -72q-103 0 -103 125q0 55 17 116.5t44 100.5q41 60 112 60q66 0 89 -51l11 47h38l-56 -258
q-5 -23 -5 -39q0 -34 19 -51t50 -17q67 0 122 79t55 173q0 137 -82 207.5t-220 70.5q-162 0 -273 -108.5t-111 -275.5q0 -164 106.5 -260t266.5 -96q147 0 287 88l18 -30q-142 -92 -305 -92zM355 162q88 0 124 184v6q9 47 9 68q0 78 -65 78q-53 0 -85 -51q-22 -35 -35.5 -89
t-13.5 -104q0 -92 66 -92z" />
    <glyph glyph-name="A" unicode="A" 
d="M212 0h-40l-23 211h-99l-22 -211h-36l81 722h56zM146 241l-25 237q-8 81 -20 218h-2q-3 -28 -9 -103t-10 -115l-26 -237h92z" />
    <glyph glyph-name="B" unicode="B" horiz-adv-x="241" 
d="M208 77q0 -37 -20.5 -57t-57.5 -20h-97v722h86q84 0 84 -77v-210q0 -55 -63 -61v-2q37 -3 52.5 -18t15.5 -49v-228zM163 437v210q0 25 -10.5 35t-38.5 10h-41v-306h43q47 0 47 51zM168 74v230q0 52 -52 52h-43v-326h41q54 0 54 44z" />
    <glyph glyph-name="C" unicode="C" 
d="M185 74q0 -78 -82 -78q-40 0 -62 20.5t-22 57.5v574q0 37 22.5 57.5t62.5 20.5q39 0 60 -20t21 -58v-119h-40v113q0 54 -42 54q-20 0 -32 -12t-12 -33v-580q0 -21 12 -33t34 -12t31 12.5t9 41.5v123h40v-129z" />
    <glyph glyph-name="D" unicode="D" horiz-adv-x="241" 
d="M208 77q0 -77 -90 -77h-85v722h85q90 0 90 -77v-568zM168 74v574q0 44 -54 44h-41v-662h41q54 0 54 44z" />
    <glyph glyph-name="E" unicode="E" horiz-adv-x="185" 
d="M177 0h-144v722h137v-30h-97v-306h91v-30h-91v-326h104v-30z" />
    <glyph glyph-name="F" unicode="F" horiz-adv-x="167" 
d="M170 692h-97v-306h93v-30h-93v-356h-40v722h137v-30z" />
    <glyph glyph-name="G" unicode="G" horiz-adv-x="241" 
d="M208 18q-37 -22 -87 -22q-42 0 -65 20.5t-23 57.5v574q0 37 23 57.5t65 20.5t64.5 -20t22.5 -58v-117h-40v112q0 23 -13 38t-34 15t-34.5 -15t-13.5 -38v-572q0 -20 13.5 -32.5t35.5 -12.5q24 0 46 12v280h-40v30h80v-330z" />
    <glyph glyph-name="H" unicode="H" horiz-adv-x="241" 
d="M208 0h-40v356h-95v-356h-40v722h40v-336h95v336h40v-722z" />
    <glyph glyph-name="I" unicode="I" horiz-adv-x="112" 
d="M76 0h-40v722h40v-722z" />
    <glyph glyph-name="J" unicode="J" horiz-adv-x="185" 
d="M152 70q0 -34 -20.5 -54t-54.5 -20t-54.5 20t-20.5 54v123h40v-122q0 -24 8.5 -34.5t27.5 -10.5q34 0 34 45v651h40v-652z" />
    <glyph glyph-name="K" unicode="K" 
d="M218 0h-40l-105 382l99 340h36l-99 -340zM73 0h-40v722h40v-722z" />
    <glyph glyph-name="L" unicode="L" horiz-adv-x="185" 
d="M178 0h-145v722h40v-692h105v-30z" />
    <glyph glyph-name="M" unicode="M" horiz-adv-x="333" 
d="M297 0h-40v448q0 46 2 131.5t2 112.5h-2l-28 -286l-40 -406h-50l-41 402q-14 139 -26 290h-2q0 -25 2 -116t2 -138v-438h-40v722h66l44 -435q14 -130 18 -257h2q10 172 19 257l46 435h66v-722z" />
    <glyph glyph-name="N" unicode="N" horiz-adv-x="259" 
d="M226 0h-60l-70 460l-23 186l-5 46h-2q4 -131 5 -148q2 -60 2 -62v-482h-40v722h60l101 -692h2l-2 40l-8 192v460h40v-722z" />
    <glyph glyph-name="O" unicode="O" horiz-adv-x="241" 
d="M208 74q0 -38 -22.5 -58t-64.5 -20t-65 20.5t-23 57.5v574q0 37 23 57.5t66 20.5q41 0 63.5 -20.5t22.5 -57.5v-574zM168 75v572q0 49 -47 49q-23 0 -35.5 -13t-12.5 -36v-572q0 -23 12.5 -36t35.5 -13q47 0 47 49z" />
    <glyph glyph-name="P" unicode="P" horiz-adv-x="222" 
d="M205 417q0 -32 -22 -50.5t-60 -18.5h-50v-348h-40v722h90q82 0 82 -69v-236zM165 421v226q0 45 -49 45h-43v-314h43q49 0 49 43z" />
    <glyph glyph-name="Q" unicode="Q" horiz-adv-x="241" 
d="M236 0h-68l-47 -4h-7q-37 0 -59 21.5t-22 56.5v574q0 37 23 57.5t65 20.5t64.5 -20t22.5 -58v-558q0 -26 -5 -38t-21 -24v-2q28 4 43 4h11v-30zM168 75v573q0 48 -47 48q-23 0 -35.5 -13t-12.5 -35v-573q0 -23 12.5 -36t35.5 -13q47 0 47 49z" />
    <glyph glyph-name="R" unicode="R" horiz-adv-x="241" 
d="M205 0h-40v304q0 24 -15 38t-40 14h-37v-356h-40v722h90q38 0 60 -18t22 -49v-213q0 -36 -13.5 -51.5t-48.5 -19.5v-2q62 -7 62 -65v-304zM165 434v213q0 45 -49 45h-43v-306h39q53 0 53 48z" />
    <glyph glyph-name="S" unicode="S" horiz-adv-x="209" 
d="M190 70q0 -74 -89 -74q-82 0 -82 77v128h36v-131q0 -23 11.5 -33.5t36.5 -10.5q47 0 47 46v124q0 54 -21 93l-84 159q-26 49 -26 98v105q0 35 22.5 55t63.5 20q79 0 79 -67v-129h-36v125q0 41 -42 41q-20 0 -32 -11.5t-12 -31.5v-112q0 -39 16 -69l82 -157
q30 -58 30 -109v-136z" />
    <glyph glyph-name="T" unicode="T" horiz-adv-x="168" 
d="M175 692h-71v-692h-40v692h-71v30h182v-30z" />
    <glyph glyph-name="U" unicode="U" horiz-adv-x="241" 
d="M208 74q0 -38 -22.5 -58t-64.5 -20t-65 20.5t-23 57.5v648h40v-647q0 -23 12.5 -36t35.5 -13q47 0 47 49v647h40v-648z" />
    <glyph glyph-name="V" unicode="V" 
d="M207 722l-78 -722h-54l-78 722h40l48 -476q4 -41 9.5 -116.5t7.5 -99.5h2q2 24 7.5 99.5t9.5 116.5l47 476h39z" />
    <glyph glyph-name="W" unicode="W" horiz-adv-x="333" 
d="M330 722l-54 -722h-51l-42 458q-14 145 -15 166q-3 62 -3 68h-2l-9 -127q-2 -25 -3.5 -50.5t-2.5 -39.5t-1 -19l-40 -456h-53l-51 722h36l29 -442q3 -37 13 -250h2q4 49 8.5 139.5t6.5 110.5l39 442h56l38 -442q14 -165 17 -250h2q1 28 3.5 81l4.5 95t4 74l33 442h35z
" />
    <glyph glyph-name="X" unicode="X" 
d="M209 0h-40l-65 348h-2l-71 -348h-36l81 376l-74 346h40l60 -318h2l64 318h36l-76 -346z" />
    <glyph glyph-name="Y" unicode="Y" 
d="M205 722l-83 -437v-285h-40v285l-83 437h40l62 -391h2l62 391h40z" />
    <glyph glyph-name="Z" unicode="Z" horiz-adv-x="167" 
d="M167 0h-167v40l122 652h-111v30h147v-40l-122 -652h131v-30z" />
    <glyph glyph-name="bracketleft" unicode="[" horiz-adv-x="167" 
d="M147 -156h-102v878h102v-30h-66v-818h66v-30z" />
    <glyph glyph-name="backslash" unicode="\" 
d="M190 -65h-30l-146 852h30z" />
    <glyph glyph-name="bracketright" unicode="]" horiz-adv-x="167" 
d="M122 -156h-102v30h66v818h-66v30h102v-878z" />
    <glyph glyph-name="asciicircum" unicode="^" horiz-adv-x="600" 
d="M481 313h-32l-149 378l-149 -378h-32l164 409h34z" />
    <glyph glyph-name="underscore" unicode="_" horiz-adv-x="500" 
d="M500 -105h-500v30h500v-30z" />
    <glyph glyph-name="grave" unicode="`" horiz-adv-x="94" 
d="M46 592l-58 96h44l40 -96h-26z" />
    <glyph glyph-name="a" unicode="a" horiz-adv-x="185" 
d="M160 0h-36v25h-2q-14 -29 -49 -29q-48 0 -48 45v191q0 37 19.5 53.5t63.5 16.5h16v145q0 29 -31 29q-32 0 -32 -29v-88h-36v96q0 51 72 51q63 0 63 -51v-455zM124 81v191h-10q-29 0 -41 -10.5t-12 -35.5v-177q0 -23 25 -23q17 0 27.5 15t10.5 40z" />
    <glyph glyph-name="b" unicode="b" 
d="M171 59q0 -63 -57 -63q-28 0 -42 23h-3v-19h-36v722h36v-241h2q15 25 48 25q52 0 52 -59v-388zM135 61v381q0 34 -31 34q-15 0 -25 -13t-10 -33v-369q0 -15 10.5 -25t26.5 -10q29 0 29 35z" />
    <glyph glyph-name="c" unicode="c" horiz-adv-x="167" 
d="M148 56q0 -60 -66 -60q-63 0 -63 60v390q0 60 67 60q62 0 62 -60v-101h-36v97q0 34 -29 34q-28 0 -28 -34v-387q0 -29 30 -29q27 0 27 27v115h36v-112z" />
    <glyph glyph-name="d" unicode="d" 
d="M171 0h-36v19h-3q-14 -23 -42 -23q-57 0 -57 63v388q0 59 52 59q32 0 48 -25h2v241h36v-722zM135 61v369q0 20 -10 33t-26 13q-30 0 -30 -34v-381q0 -35 29 -35q16 0 26.5 10t10.5 25z" />
    <glyph glyph-name="e" unicode="e" horiz-adv-x="185" 
d="M160 56q0 -29 -18 -44.5t-51 -15.5q-31 0 -48.5 16t-17.5 44v390q0 60 69 60q66 0 66 -60v-202h-99v-184q0 -34 32 -34q31 0 31 34v107h36v-111zM124 274v168q0 34 -32 34q-31 0 -31 -34v-168h63z" />
    <glyph glyph-name="f" unicode="f" horiz-adv-x="111" 
d="M106 472h-37v-472h-36v472h-28v30h28v171q0 49 50 49h23v-30h-16q-21 0 -21 -28v-162h37v-30z" />
    <glyph glyph-name="g" unicode="g" 
d="M171 -118q0 -38 -15.5 -54t-53.5 -16q-64 0 -64 59v72h36v-63q0 -21 7 -29.5t24 -8.5q30 0 30 42v146h-2q-11 -23 -42 -23q-58 0 -58 67v373q0 59 52 59q32 0 48 -25h2v21h36v-620zM135 86v344q0 20 -10 33t-26 13q-30 0 -30 -34v-368q0 -41 32 -41q34 0 34 53z" />
    <glyph glyph-name="h" unicode="h" 
d="M171 0h-36v434q0 42 -28 42q-17 0 -27.5 -15.5t-10.5 -39.5v-421h-36v722h36v-247h2q16 31 50 31q50 0 50 -59v-447z" />
    <glyph glyph-name="i" unicode="i" horiz-adv-x="94" 
d="M69 636h-44v52h44v-52zM65 0h-36v502h36v-502z" />
    <glyph glyph-name="j" unicode="j" horiz-adv-x="94" 
d="M69 636h-44v52h44v-52zM65 -139q0 -45 -37 -45h-27v26h8q20 0 20 27v633h36v-641z" />
    <glyph glyph-name="k" unicode="k" horiz-adv-x="185" 
d="M69 0h-36v722h36v-722zM183 0h-36l-78 288l75 214h36l-73 -211z" />
    <glyph glyph-name="l" unicode="l" horiz-adv-x="94" 
d="M65 0h-36v722h36v-722z" />
    <glyph glyph-name="m" unicode="m" horiz-adv-x="296" 
d="M268 0h-36v434q0 42 -28 42q-17 0 -27.5 -15.5t-10.5 -39.5v-421h-36v439q0 37 -28 37q-17 0 -27.5 -16.5t-10.5 -43.5v-416h-36v502h36v-27h2q16 31 50 31q37 0 44 -33h2q15 33 55 33q51 0 51 -59v-447z" />
    <glyph glyph-name="n" unicode="n" 
d="M171 0h-36v434q0 42 -28 42q-17 0 -27.5 -15.5t-10.5 -39.5v-421h-36v502h36v-27h2q16 31 50 31q50 0 50 -59v-447z" />
    <glyph glyph-name="o" unicode="o" 
d="M171 61q0 -29 -19 -47t-50 -18t-50 18t-19 47v380q0 65 69 65t69 -65v-380zM135 61v380q0 35 -33 35t-33 -35v-380q0 -35 33 -35t33 35z" />
    <glyph glyph-name="p" unicode="p" 
d="M171 59q0 -63 -55 -63q-31 0 -45 23h-2v-203h-36v686h36v-21h2q15 25 48 25q52 0 52 -59v-388zM135 61v381q0 34 -31 34q-15 0 -25 -13t-10 -33v-369q0 -15 10.5 -25t26.5 -10q29 0 29 35z" />
    <glyph glyph-name="q" unicode="q" 
d="M171 -184h-36v203h-2q-15 -23 -44 -23q-56 0 -56 63v388q0 59 52 59q32 0 48 -25h2v21h36v-686zM135 61v369q0 20 -10 33t-26 13q-30 0 -30 -34v-381q0 -35 29 -35q16 0 26.5 10t10.5 25z" />
    <glyph glyph-name="r" unicode="r" horiz-adv-x="130" 
d="M121 476q-52 -3 -52 -55v-421h-36v502h36v-27h2q15 30 50 31v-30z" />
    <glyph glyph-name="s" unicode="s" horiz-adv-x="167" 
d="M149 55q0 -28 -17.5 -43.5t-49.5 -15.5q-30 0 -47 14t-17 39v118h36v-111q0 -30 30 -30q29 0 29 30v86q0 44 -12 64l-70 116q-13 23 -13 57v71q0 26 17.5 41t48.5 15q63 0 63 -58v-87h-36v81q0 34 -28 34q-29 0 -29 -34v-68q0 -27 14 -50l65 -104q16 -25 16 -65v-100z
" />
    <glyph glyph-name="t" unicode="t" horiz-adv-x="130" 
d="M119 -4h-30q-50 0 -50 49v427h-31v30h31v89l36 20v-109h44v-30h-44v-418q0 -28 21 -28h23v-30z" />
    <glyph glyph-name="u" unicode="u" 
d="M171 0h-36v27h-2q-18 -31 -50 -31q-50 0 -50 59v447h36v-434q0 -42 28 -42q17 0 27.5 15.5t10.5 39.5v421h36v-502z" />
    <glyph glyph-name="v" unicode="v" horiz-adv-x="168" 
d="M161 502l-52 -502h-50l-52 502h36l40 -480h2l40 480h36z" />
    <glyph glyph-name="w" unicode="w" horiz-adv-x="278" 
d="M268 502l-40 -502h-45l-41 472h-2l-45 -472h-45l-40 502h36l24 -472h2l47 472h46l41 -472h2l24 472h36z" />
    <glyph glyph-name="x" unicode="x" horiz-adv-x="167" 
d="M161 0h-36l-41 234h-2l-46 -234h-30l53 259l-53 243h36l40 -211h2l42 211h30l-50 -243z" />
    <glyph glyph-name="y" unicode="y" horiz-adv-x="167" 
d="M162 502l-86 -686h-30l21 180l-62 506h36l42 -434h2l41 434h36z" />
    <glyph glyph-name="z" unicode="z" horiz-adv-x="130" 
d="M127 0h-124v40l89 432h-83v30h118v-44l-89 -428h89v-30z" />
    <glyph glyph-name="braceleft" unicode="{" horiz-adv-x="222" 
d="M188 -156h-32q-35 0 -49 25.5t-14 87.5v244q0 28 -16.5 47t-42.5 20v30q26 1 42.5 20t16.5 47v244q0 62 14 87.5t49 25.5h32v-30h-26q-18 0 -25.5 -18.5t-7.5 -64.5v-236q0 -76 -59 -89v-2q59 -13 59 -89v-236q0 -46 7.5 -64.5t25.5 -18.5h26v-30z" />
    <glyph glyph-name="bar" unicode="|" horiz-adv-x="222" 
d="M126 -214h-30v1000h30v-1000z" />
    <glyph glyph-name="braceright" unicode="}" horiz-adv-x="222" 
d="M188 268q-26 -1 -42.5 -20t-16.5 -47v-244q0 -62 -14.5 -87.5t-48.5 -25.5h-32v30h26q18 0 25.5 19t7.5 64v236q0 76 59 89v2q-59 13 -59 89v236q0 45 -7.5 64t-25.5 19h-26v30h32q34 0 48.5 -25.5t14.5 -87.5v-244q0 -28 16.5 -47t42.5 -20v-30z" />
    <glyph glyph-name="asciitilde" unicode="~" horiz-adv-x="600" 
d="M557 310q-11 -48 -40.5 -79.5t-75.5 -31.5q-40 0 -194 55q-60 21 -87 21q-34 0 -58 -22.5t-33 -60.5h-25q8 48 38 79.5t77 31.5q29 0 154 -42l27 -9t36 -11.5t34 -9t30 -4.5q35 0 59 23t34 60h24z" />
    <glyph glyph-name="uni00A0" unicode="&#xa0;" horiz-adv-x="112" 
 />
    <glyph glyph-name="exclamdown" unicode="&#xa1;" horiz-adv-x="167" 
d="M58 -184l12 556h28l12 -556h-52zM62 486v52h44v-52h-44z" />
    <glyph glyph-name="cent" unicode="&#xa2;" horiz-adv-x="224" 
d="M140 343v99q0 34 -27 34q-29 0 -29 -34v-387q0 -29 29 -29q27 0 27 27v114h36v-111q0 -32 -15 -46t-37 -14v-64h-26v64q-25 0 -38 21q-12 19 -12 49v380q0 32 17 46t33 14v57h26v-57q24 0 38 -16t14 -38v-109h-36z" />
    <glyph glyph-name="sterling" unicode="&#xa3;" horiz-adv-x="224" 
d="M217 0h-195v30h25v336h-32v30h32v249q0 81 85 81t85 -81v-47h-36v47q0 27 -12 39t-39 12q-47 0 -47 -51v-249h51v-30h-51v-336h134v-30z" />
    <glyph glyph-name="currency" unicode="&#xa4;" horiz-adv-x="224" 
d="M111 249q-41 0 -70 24l-30 -30l-18 18l30 30q-24 27 -24 70q0 40 24 70l-30 30l18 18l30 -30q30 24 70 24q41 0 70 -24l30 30l18 -18l-30 -30q24 -32 24 -70q0 -37 -25 -70l31 -30l-18 -18l-31 30q-31 -24 -69 -24zM30 361q0 -34 23.5 -57.5t57.5 -23.5q33 0 57 23.5
t24 57.5q0 33 -24 57t-57 24q-34 0 -57.5 -24t-23.5 -57z" />
    <glyph glyph-name="yen" unicode="&#xa5;" horiz-adv-x="224" 
d="M94 221v60l-2 10h-71v30h65l-77 401h40l62 -391h2l62 391h40l-77 -401h65v-30h-71l-2 -10v-60h73v-30h-73v-191h-36v191h-73v30h73z" />
    <glyph glyph-name="brokenbar" unicode="&#xa6;" horiz-adv-x="222" 
d="M126 411h-30v250h30v-250zM126 -89h-30v250h30v-250z" />
    <glyph glyph-name="section" unicode="&#xa7;" horiz-adv-x="222" 
d="M194 81q0 -46 -23 -65.5t-76 -19.5q-35 0 -63 4v30q6 0 13 -1t10 -1q22 -2 38 -2q65 0 65 61v46q0 32 -25 56l-87 80q-18 17 -18 65v70q0 27 17 45.5t58 36.5l-31 23q-44 32 -44 86v44q0 41 23 64t64 23q24 0 68 -4v-30l-9 1q-23 3 -56 3q-26 0 -40 -15t-14 -43v-41
q0 -41 28 -62l63 -47q39 -29 39 -67v-88q0 -35 -15 -53t-57 -35l39 -33q33 -28 33 -76v-55zM158 319v88q0 23 -6.5 34.5t-28.5 29.5q-37 -16 -48 -28t-11 -33v-80q0 -36 41 -68q33 16 43 26.5t10 30.5z" />
    <glyph glyph-name="dieresis" unicode="&#xa8;" horiz-adv-x="94" 
d="M-22 636v52h44v-52h-44zM72 636v52h44v-52h-44z" />
    <glyph glyph-name="copyright" unicode="&#xa9;" horiz-adv-x="800" 
d="M400 -4q-152 0 -259 106.5t-107 257.5q0 152 107 259t259 107t259 -107t107 -259q0 -151 -107 -257.5t-259 -106.5zM400 33q136 0 231.5 95.5t95.5 231.5t-96 233t-231 97q-136 0 -232 -97t-96 -233t96 -231.5t232 -95.5zM407 147q-88 0 -142.5 62.5t-54.5 151.5
q0 88 51.5 150t137.5 62q64 0 114 -40.5t54 -105.5h-36q-9 50 -44.5 80t-85.5 30q-68 0 -109.5 -51.5t-41.5 -122.5q0 -73 43 -126.5t114 -53.5q46 0 81 27t47 73h37q-9 -61 -57 -98.5t-108 -37.5z" />
    <glyph glyph-name="ordfeminine" unicode="&#xaa;" horiz-adv-x="120" 
d="M47 425q-34 0 -34 29v110q0 44 57 44h5v81q0 14 -15 14q-16 0 -16 -14v-55h-31v60q0 32 49 32q45 0 45 -32v-267h-32v13q-9 -15 -28 -15zM55 449q20 0 20 28v107h-2q-16 0 -22.5 -5t-6.5 -18v-103q0 -9 11 -9z" />
    <glyph glyph-name="guillemotleft" unicode="&#xab;" horiz-adv-x="185" 
d="M166 0h-26l-54 251l54 251h26l-44 -251zM99 0h-26l-54 251l54 251h26l-44 -251z" />
    <glyph glyph-name="logicalnot" unicode="&#xac;" horiz-adv-x="600" 
d="M553 108h-30v227h-476v30h506v-257z" />
    <glyph glyph-name="uni00AD" unicode="&#xad;" horiz-adv-x="111" 
d="M102 238h-93v26h93v-26z" />
    <glyph glyph-name="registered" unicode="&#xae;" horiz-adv-x="400" 
d="M384 542q0 -75 -54 -129t-130 -54t-129.5 53.5t-53.5 129.5t53.5 130t129.5 54t130 -54t54 -130zM364 542q0 68 -48 116t-116 48t-116 -48t-48 -116t48 -116t116 -48t116 48t48 116zM285 445h-22q-5 9 -4.5 33.5t-11.5 37.5t-51 13h-43v-84h-20v198l70 -1q43 0 61 -12
t18 -45q0 -34 -36 -47q22 -9 28 -27t5.5 -38t5.5 -28zM261 587q0 16 -9.5 24.5t-19.5 10t-28 1.5h-51v-75h50q58 0 58 39z" />
    <glyph glyph-name="macron" unicode="&#xaf;" horiz-adv-x="94" 
d="M-18 630v30h130v-30h-130z" />
    <glyph glyph-name="degree" unicode="&#xb0;" horiz-adv-x="286" 
d="M243 626q0 -41 -29.5 -70.5t-70.5 -29.5t-70.5 29t-29.5 69v2q0 42 29 71t71 29q41 0 70.5 -29.5t29.5 -70.5zM217 625q0 32 -21.5 53.5t-52.5 21.5t-52.5 -21.5t-21.5 -52.5t21.5 -52.5t52.5 -21.5q30 0 52 21.5t22 51.5z" />
    <glyph glyph-name="plusminus" unicode="&#xb1;" horiz-adv-x="600" 
d="M553 282h-238v-194h-30v194h-238v30h238v194h30v-194h238v-30zM553 0h-506v30h506v-30z" />
    <glyph glyph-name="twosuperior" unicode="&#xb2;" horiz-adv-x="146" 
d="M128 292h-110v31l69 242q6 23 6 45v67q0 25 -22 25q-19 0 -19 -31v-55h-31v60q0 50 52 50q23 0 37 -13t14 -35v-65q0 -33 -9 -64l-68 -231h81v-26z" />
    <glyph glyph-name="threesuperior" unicode="&#xb3;" horiz-adv-x="146" 
d="M127 330q0 -42 -56 -42q-54 0 -54 42v72h32v-67q0 -23 23 -23q24 0 24 23v135q0 17 -6 23t-23 6h-13v24h12q15 0 21 7.5t6 26.5v121q0 24 -23 24q-19 0 -19 -24v-60h-32v66q0 42 53 42q52 0 52 -43v-134q0 -25 -26 -37q29 -9 29 -41v-141z" />
    <glyph glyph-name="acute" unicode="&#xb4;" horiz-adv-x="94" 
d="M22 592l40 96h44l-58 -96h-26z" />
    <glyph glyph-name="mu" unicode="&#xb5;" 
d="M171 0h-36v27h-2q-15 -31 -39 -31q-17 0 -29 12h-2q0 -3 0.5 -9.5t1.5 -15.5q4 -48 4 -55v-112h-36v686h36v-424q0 -29 6 -40.5t22 -11.5q17 0 27.5 15.5t10.5 39.5v421h36v-502z" />
    <glyph glyph-name="paragraph" unicode="&#xb6;" horiz-adv-x="320" 
d="M290 0h-36v692h-60v-692h-36v431q-55 4 -86.5 43t-31.5 103q0 69 39 107t109 38h102v-722z" />
    <glyph glyph-name="periodcentered" unicode="&#xb7;" horiz-adv-x="112" 
d="M78 238h-44v52h44v-52z" />
    <glyph glyph-name="cedilla" unicode="&#xb8;" horiz-adv-x="94" 
d="M6 -103l2 17q12 -3 25 -3q30 0 30 23q0 17 -21 17q-12 0 -20 -3l-4 3l6 53h19l-4 -38q7 3 19 3q13 0 22 -8.5t9 -24.5q0 -19 -14.5 -31t-40.5 -12q-18 0 -28 4z" />
    <glyph glyph-name="onesuperior" unicode="&#xb9;" horiz-adv-x="146" 
d="M93 292h-32v381l-27 -41v44l33 46h26v-430z" />
    <glyph glyph-name="ordmasculine" unicode="&#xba;" horiz-adv-x="144" 
d="M72 425q-21 0 -34.5 11t-13.5 29v221q0 40 48 40t48 -40v-221q0 -18 -13 -29t-35 -11zM72 449q17 0 17 16v221q0 17 -17 17t-17 -17v-221q0 -16 17 -16z" />
    <glyph glyph-name="guillemotright" unicode="&#xbb;" horiz-adv-x="185" 
d="M166 251l-54 -251h-26l44 251l-44 251h26zM99 251l-54 -251h-26l44 251l-44 251h26z" />
    <glyph glyph-name="onequarter" unicode="&#xbc;" horiz-adv-x="360" 
d="M87 292h-32v381l-27 -41v44l33 46h26v-430zM82 -35l135 792h28l-135 -792h-28zM271 0v107h-75v35l62 288h44v-297h28v-26h-28v-107h-31zM224 133h47v223z" />
    <glyph glyph-name="onehalf" unicode="&#xbd;" horiz-adv-x="360" 
d="M77 292h-32v381l-27 -41v44l33 46h26v-430zM72 -35l135 792h28l-135 -792h-28zM328 0h-110v31l69 242q6 23 6 45v67q0 25 -22 25q-19 0 -19 -31v-55h-31v60q0 50 52 50q23 0 37 -13t14 -35v-65q0 -33 -9 -64l-68 -231h81v-26z" />
    <glyph glyph-name="threequarters" unicode="&#xbe;" horiz-adv-x="360" 
d="M129 330q0 -42 -56 -42q-54 0 -54 42v72h32v-67q0 -23 23 -23q24 0 24 23v135q0 17 -6 23t-23 6h-13v24h12q15 0 21 7.5t6 26.5v121q0 24 -23 24q-19 0 -19 -24v-60h-32v66q0 42 53 42q52 0 52 -43v-134q0 -25 -26 -37q29 -9 29 -41v-141zM100 -35l135 792h28l-135 -792
h-28zM269 0v107h-75v35l62 288h44v-297h28v-26h-28v-107h-31zM222 133h47v223z" />
    <glyph glyph-name="questiondown" unicode="&#xbf;" horiz-adv-x="222" 
d="M103 -188q-38 0 -54.5 19.5t-16.5 65.5v96q0 50 20 110l18 54q13 40 13 43q7 21 7 56v116h36v-140q0 -39 -29 -113q-29 -76 -29 -113v-120q0 -44 38 -44q35 0 35 45v97h36v-100q0 -72 -74 -72zM84 486v52h44v-52h-44z" />
    <glyph glyph-name="Agrave" unicode="&#xc0;" 
d="M212 0h-40l-23 211h-99l-22 -211h-36l81 722h56zM146 241l-25 237q-8 81 -20 218h-2q-3 -28 -9 -103t-10 -115l-26 -237h92zM88 767l-58 96h44l40 -96h-26z" />
    <glyph glyph-name="Aacute" unicode="&#xc1;" 
d="M212 0h-40l-23 211h-99l-22 -211h-36l81 722h56zM146 241l-25 237q-8 81 -20 218h-2q-3 -28 -9 -103t-10 -115l-26 -237h92zM90 767l40 96h44l-58 -96h-26z" />
    <glyph glyph-name="Acircumflex" unicode="&#xc2;" 
d="M212 0h-40l-23 211h-99l-22 -211h-36l81 722h56zM146 241l-25 237q-8 81 -20 218h-2q-3 -28 -9 -103t-10 -115l-26 -237h92zM41 767l46 96h30l46 -96h-30l-31 66l-31 -66h-30z" />
    <glyph glyph-name="Atilde" unicode="&#xc3;" 
d="M212 0h-40l-23 211h-99l-22 -211h-36l81 722h56zM146 241l-25 237q-8 81 -20 218h-2q-3 -28 -9 -103t-10 -115l-26 -237h92zM27 787v5q0 20 8 37.5t28 17.5q13 0 37 -15q30 -15 36 -15q19 0 19 26v4h22v-5q0 -20 -8 -37.5t-28 -17.5q-12 0 -40 15q-24 15 -35 15
q-17 0 -17 -26v-4h-22z" />
    <glyph glyph-name="Adieresis" unicode="&#xc4;" 
d="M212 0h-40l-23 211h-99l-22 -211h-36l81 722h56zM146 241l-25 237q-8 81 -20 218h-2q-3 -28 -9 -103t-10 -115l-26 -237h92zM33 811v52h44v-52h-44zM127 811v52h44v-52h-44z" />
    <glyph glyph-name="Aring" unicode="&#xc5;" 
d="M212 0h-40l-23 211h-99l-22 -211h-36l81 722h56zM146 241l-25 237q-8 81 -20 218h-2q-3 -28 -9 -103t-10 -115l-26 -237h92zM102 754q-22 0 -38 16t-16 38q0 23 16 39t38 16t38 -16t16 -39q0 -22 -16 -38t-38 -16zM102 776q14 0 23 9t9 23t-9.5 23.5t-22.5 9.5
t-22.5 -9.5t-9.5 -23.5t9 -23t23 -9z" />
    <glyph glyph-name="AE" unicode="&#xc6;" horiz-adv-x="315" 
d="M0 0l128 722h174v-30h-117l16 -306h92v-30h-92l16 -326h85v-30h-118l-10 211h-102l-36 -211h-36zM76 241h94l-14 451h-2z" />
    <glyph glyph-name="Ccedilla" unicode="&#xc7;" 
d="M68 -103l2 17q12 -3 25 -3q30 0 30 23q0 17 -21 17q-12 0 -20 -3l-4 3l5 47q-31 4 -48.5 24t-17.5 52v574q0 37 22.5 57.5t62.5 20.5q39 0 60 -20t21 -58v-119h-40v113q0 54 -42 54q-20 0 -32 -12t-12 -33v-580q0 -21 12 -33t34 -12t31 12.5t9 41.5v123h40v-129
q0 -76 -81 -78l-3 -30q7 3 19 3q13 0 22 -8.5t9 -24.5q0 -19 -14.5 -31t-40.5 -12q-18 0 -28 4z" />
    <glyph glyph-name="Egrave" unicode="&#xc8;" horiz-adv-x="185" 
d="M177 0h-144v722h137v-30h-97v-306h91v-30h-91v-326h104v-30zM98 767l-58 96h44l40 -96h-26z" />
    <glyph glyph-name="Eacute" unicode="&#xc9;" horiz-adv-x="185" 
d="M177 0h-144v722h137v-30h-97v-306h91v-30h-91v-326h104v-30zM70 767l40 96h44l-58 -96h-26z" />
    <glyph glyph-name="Ecircumflex" unicode="&#xca;" horiz-adv-x="185" 
d="M177 0h-144v722h137v-30h-97v-306h91v-30h-91v-326h104v-30zM41 767l46 96h30l46 -96h-30l-31 66l-31 -66h-30z" />
    <glyph glyph-name="Edieresis" unicode="&#xcb;" horiz-adv-x="185" 
d="M177 0h-144v722h137v-30h-97v-306h91v-30h-91v-326h104v-30zM28 811v52h44v-52h-44zM122 811v52h44v-52h-44z" />
    <glyph glyph-name="Igrave" unicode="&#xcc;" horiz-adv-x="112" 
d="M76 0h-40v722h40v-722zM47 767l-58 96h44l40 -96h-26z" />
    <glyph glyph-name="Iacute" unicode="&#xcd;" horiz-adv-x="112" 
d="M76 0h-40v722h40v-722zM44 767l40 96h44l-58 -96h-26z" />
    <glyph glyph-name="Icircumflex" unicode="&#xce;" horiz-adv-x="112" 
d="M76 0h-40v722h40v-722zM-5 767l46 96h30l46 -96h-30l-31 66l-31 -66h-30z" />
    <glyph glyph-name="Idieresis" unicode="&#xcf;" horiz-adv-x="112" 
d="M76 0h-40v722h40v-722zM-13 811v52h44v-52h-44zM81 811v52h44v-52h-44z" />
    <glyph glyph-name="Eth" unicode="&#xd0;" horiz-adv-x="241" 
d="M33 0v356h-33v30h33v336h85q90 0 90 -77v-568q0 -77 -90 -77h-85zM73 30h41q54 0 54 44v574q0 44 -54 44h-41v-306h55v-30h-55v-326z" />
    <glyph glyph-name="Ntilde" unicode="&#xd1;" horiz-adv-x="259" 
d="M226 0h-60l-70 460l-23 186l-5 46h-2q4 -131 5 -148q2 -60 2 -62v-482h-40v722h60l101 -692h2l-2 40l-8 192v460h40v-722zM54 787v5q0 20 8 37.5t28 17.5q13 0 37 -15q30 -15 36 -15q19 0 19 26v4h22v-5q0 -20 -8 -37.5t-28 -17.5q-12 0 -40 15q-24 15 -35 15
q-17 0 -17 -26v-4h-22z" />
    <glyph glyph-name="Ograve" unicode="&#xd2;" horiz-adv-x="241" 
d="M208 74q0 -38 -22.5 -58t-64.5 -20t-65 20.5t-23 57.5v574q0 37 23 57.5t66 20.5q41 0 63.5 -20.5t22.5 -57.5v-574zM168 75v572q0 49 -47 49q-23 0 -35.5 -13t-12.5 -36v-572q0 -23 12.5 -36t35.5 -13q47 0 47 49zM116 767l-58 96h44l40 -96h-26z" />
    <glyph glyph-name="Oacute" unicode="&#xd3;" horiz-adv-x="241" 
d="M208 74q0 -38 -22.5 -58t-64.5 -20t-65 20.5t-23 57.5v574q0 37 23 57.5t66 20.5q41 0 63.5 -20.5t22.5 -57.5v-574zM168 75v572q0 49 -47 49q-23 0 -35.5 -13t-12.5 -36v-572q0 -23 12.5 -36t35.5 -13q47 0 47 49zM108 767l40 96h44l-58 -96h-26z" />
    <glyph glyph-name="Ocircumflex" unicode="&#xd4;" horiz-adv-x="241" 
d="M208 74q0 -38 -22.5 -58t-64.5 -20t-65 20.5t-23 57.5v574q0 37 23 57.5t66 20.5q41 0 63.5 -20.5t22.5 -57.5v-574zM168 75v572q0 49 -47 49q-23 0 -35.5 -13t-12.5 -36v-572q0 -23 12.5 -36t35.5 -13q47 0 47 49zM59 767l46 96h30l46 -96h-30l-31 66l-31 -66h-30z" />
    <glyph glyph-name="Otilde" unicode="&#xd5;" horiz-adv-x="241" 
d="M208 74q0 -38 -22.5 -58t-64.5 -20t-65 20.5t-23 57.5v574q0 37 23 57.5t66 20.5q41 0 63.5 -20.5t22.5 -57.5v-574zM168 75v572q0 49 -47 49q-23 0 -35.5 -13t-12.5 -36v-572q0 -23 12.5 -36t35.5 -13q47 0 47 49zM45 787v5q0 20 8 37.5t28 17.5q13 0 37 -15
q30 -15 36 -15q19 0 19 26v4h22v-5q0 -20 -8 -37.5t-28 -17.5q-12 0 -40 15q-24 15 -35 15q-17 0 -17 -26v-4h-22z" />
    <glyph glyph-name="Odieresis" unicode="&#xd6;" horiz-adv-x="241" 
d="M208 74q0 -38 -22.5 -58t-64.5 -20t-65 20.5t-23 57.5v574q0 37 23 57.5t66 20.5q41 0 63.5 -20.5t22.5 -57.5v-574zM168 75v572q0 49 -47 49q-23 0 -35.5 -13t-12.5 -36v-572q0 -23 12.5 -36t35.5 -13q47 0 47 49zM51 811v52h44v-52h-44zM145 811v52h44v-52h-44z" />
    <glyph glyph-name="multiply" unicode="&#xd7;" horiz-adv-x="600" 
d="M79 54l199 199l-199 198l22 23l199 -198l198 198l23 -23l-199 -198l199 -199l-23 -22l-198 198l-199 -198z" />
    <glyph glyph-name="Oslash" unicode="&#xd8;" horiz-adv-x="241" 
d="M71 244h2l95 373v30q0 49 -47 49q-22 0 -35 -12.5t-13 -36.5v-341q0 -20 -2 -62zM-3 -31l36 132v547q0 37 23 57.5t65 20.5q49 0 72 -28l16 58l32 -8l-33 -122v-552q0 -38 -22.5 -58t-64.5 -20q-54 0 -76 34l-20 -69zM73 121v-46q0 -24 13 -36.5t35 -12.5q47 0 47 49v347
q0 22 2 66h-2z" />
    <glyph glyph-name="Ugrave" unicode="&#xd9;" horiz-adv-x="241" 
d="M208 74q0 -38 -22.5 -58t-64.5 -20t-65 20.5t-23 57.5v648h40v-647q0 -23 12.5 -36t35.5 -13q47 0 47 49v647h40v-648zM116 767l-58 96h44l40 -96h-26z" />
    <glyph glyph-name="Uacute" unicode="&#xda;" horiz-adv-x="241" 
d="M208 74q0 -38 -22.5 -58t-64.5 -20t-65 20.5t-23 57.5v648h40v-647q0 -23 12.5 -36t35.5 -13q47 0 47 49v647h40v-648zM108 767l40 96h44l-58 -96h-26z" />
    <glyph glyph-name="Ucircumflex" unicode="&#xdb;" horiz-adv-x="241" 
d="M208 74q0 -38 -22.5 -58t-64.5 -20t-65 20.5t-23 57.5v648h40v-647q0 -23 12.5 -36t35.5 -13q47 0 47 49v647h40v-648zM59 767l46 96h30l46 -96h-30l-31 66l-31 -66h-30z" />
    <glyph glyph-name="Udieresis" unicode="&#xdc;" horiz-adv-x="241" 
d="M208 74q0 -38 -22.5 -58t-64.5 -20t-65 20.5t-23 57.5v648h40v-647q0 -23 12.5 -36t35.5 -13q47 0 47 49v647h40v-648zM51 811v52h44v-52h-44zM145 811v52h44v-52h-44z" />
    <glyph glyph-name="Yacute" unicode="&#xdd;" 
d="M205 722l-83 -437v-285h-40v285l-83 437h40l62 -391h2l62 391h40zM90 767l40 96h44l-58 -96h-26z" />
    <glyph glyph-name="Thorn" unicode="&#xde;" horiz-adv-x="222" 
d="M33 0v722h40v-137h50q39 0 60.5 -22.5t21.5 -56.5v-216q0 -34 -21.5 -56.5t-60.5 -22.5h-50v-211h-40zM73 241h43q49 0 49 45v224q0 45 -49 45h-43v-314z" />
    <glyph glyph-name="germandbls" unicode="&#xdf;" horiz-adv-x="222" 
d="M28 0v655q0 71 69 71t69 -71v-154q-36 -29 -36 -63q0 -31 13 -62l49 -113q15 -33 15 -81v-119q0 -67 -57 -67q-33 0 -46 13t-13 43v95h30v-90q0 -17 5.5 -24t19.5 -7q25 0 25 31v129q0 34 -20 81l-40 92q-17 39 -17 73q0 36 36 81v146q0 37 -33 37t-33 -37v-659h-36z" />
    <glyph glyph-name="agrave" unicode="&#xe0;" horiz-adv-x="185" 
d="M160 0h-36v25h-2q-14 -29 -49 -29q-48 0 -48 45v191q0 37 19.5 53.5t63.5 16.5h16v145q0 29 -31 29q-32 0 -32 -29v-88h-36v96q0 51 72 51q63 0 63 -51v-455zM124 81v191h-10q-29 0 -41 -10.5t-12 -35.5v-177q0 -23 25 -23q17 0 27.5 15t10.5 40zM88 592l-58 96h44
l40 -96h-26z" />
    <glyph glyph-name="aacute" unicode="&#xe1;" horiz-adv-x="185" 
d="M160 0h-36v25h-2q-14 -29 -49 -29q-48 0 -48 45v191q0 37 19.5 53.5t63.5 16.5h16v145q0 29 -31 29q-32 0 -32 -29v-88h-36v96q0 51 72 51q63 0 63 -51v-455zM124 81v191h-10q-29 0 -41 -10.5t-12 -35.5v-177q0 -23 25 -23q17 0 27.5 15t10.5 40zM70 592l40 96h44
l-58 -96h-26z" />
    <glyph glyph-name="acircumflex" unicode="&#xe2;" horiz-adv-x="185" 
d="M160 0h-36v25h-2q-14 -29 -49 -29q-48 0 -48 45v191q0 37 19.5 53.5t63.5 16.5h16v145q0 29 -31 29q-32 0 -32 -29v-88h-36v96q0 51 72 51q63 0 63 -51v-455zM124 81v191h-10q-29 0 -41 -10.5t-12 -35.5v-177q0 -23 25 -23q17 0 27.5 15t10.5 40zM31 592l46 96h30l46 -96
h-30l-31 66l-31 -66h-30z" />
    <glyph glyph-name="atilde" unicode="&#xe3;" horiz-adv-x="185" 
d="M160 0h-36v25h-2q-14 -29 -49 -29q-48 0 -48 45v191q0 37 19.5 53.5t63.5 16.5h16v145q0 29 -31 29q-32 0 -32 -29v-88h-36v96q0 51 72 51q63 0 63 -51v-455zM124 81v191h-10q-29 0 -41 -10.5t-12 -35.5v-177q0 -23 25 -23q17 0 27.5 15t10.5 40zM17 612v5q0 20 8 37.5
t28 17.5q13 0 37 -15q30 -15 36 -15q19 0 19 26v4h22v-5q0 -20 -8 -37.5t-28 -17.5q-12 0 -40 15q-24 15 -35 15q-17 0 -17 -26v-4h-22z" />
    <glyph glyph-name="adieresis" unicode="&#xe4;" horiz-adv-x="185" 
d="M160 0h-36v25h-2q-14 -29 -49 -29q-48 0 -48 45v191q0 37 19.5 53.5t63.5 16.5h16v145q0 29 -31 29q-32 0 -32 -29v-88h-36v96q0 51 72 51q63 0 63 -51v-455zM124 81v191h-10q-29 0 -41 -10.5t-12 -35.5v-177q0 -23 25 -23q17 0 27.5 15t10.5 40zM23 636v52h44v-52h-44z
M117 636v52h44v-52h-44z" />
    <glyph glyph-name="aring" unicode="&#xe5;" horiz-adv-x="185" 
d="M160 0h-36v25h-2q-14 -29 -49 -29q-48 0 -48 45v191q0 37 19.5 53.5t63.5 16.5h16v145q0 29 -31 29q-32 0 -32 -29v-88h-36v96q0 51 72 51q63 0 63 -51v-455zM124 81v191h-10q-29 0 -41 -10.5t-12 -35.5v-177q0 -23 25 -23q17 0 27.5 15t10.5 40zM92 579q-22 0 -38 15.5
t-16 38.5t16 39t38 16t38 -16t16 -39t-16 -38.5t-38 -15.5zM92 601q14 0 23 9.5t9 22.5q0 14 -9.5 23.5t-22.5 9.5t-22.5 -9.5t-9.5 -23.5q0 -13 9 -22.5t23 -9.5z" />
    <glyph glyph-name="ae" unicode="&#xe6;" horiz-adv-x="278" 
d="M23 41v185q0 61 83 61h15v155q0 34 -30 34q-32 0 -32 -34v-83h-36v96q0 51 68 51q35 0 51 -22q16 22 46 22q67 0 67 -60v-189h-98v-197q0 -34 31 -34t31 34v107h36v-111q0 -27 -17 -43.5t-50 -16.5q-36 0 -52 28q-15 -28 -53 -28q-60 0 -60 45zM121 81v176h-9
q-27 0 -40 -8.5t-13 -33.5v-161q0 -28 25 -28q16 0 26.5 15.5t10.5 39.5zM157 287h62v155q0 34 -31 34t-31 -34v-155z" />
    <glyph glyph-name="ccedilla" unicode="&#xe7;" horiz-adv-x="167" 
d="M148 56q0 -60 -66 -60q-63 0 -63 60v390q0 60 67 60q62 0 62 -60v-101h-36v97q0 34 -29 34q-28 0 -28 -34v-387q0 -29 30 -29q27 0 27 27v115h36v-112zM52 -103l2 17q12 -3 25 -3q30 0 30 23q0 17 -21 17q-12 0 -20 -3l-4 3l6 53h19l-4 -38q7 3 19 3q13 0 22 -8.5
t9 -24.5q0 -19 -14.5 -31t-40.5 -12q-18 0 -28 4z" />
    <glyph glyph-name="egrave" unicode="&#xe8;" horiz-adv-x="185" 
d="M160 56q0 -29 -18 -44.5t-51 -15.5q-31 0 -48.5 16t-17.5 44v390q0 60 69 60q66 0 66 -60v-202h-99v-184q0 -34 32 -34q31 0 31 34v107h36v-111zM124 274v168q0 34 -32 34q-31 0 -31 -34v-168h63zM88 592l-58 96h44l40 -96h-26z" />
    <glyph glyph-name="eacute" unicode="&#xe9;" horiz-adv-x="185" 
d="M160 56q0 -29 -18 -44.5t-51 -15.5q-31 0 -48.5 16t-17.5 44v390q0 60 69 60q66 0 66 -60v-202h-99v-184q0 -34 32 -34q31 0 31 34v107h36v-111zM124 274v168q0 34 -32 34q-31 0 -31 -34v-168h63zM70 592l40 96h44l-58 -96h-26z" />
    <glyph glyph-name="ecircumflex" unicode="&#xea;" horiz-adv-x="185" 
d="M160 56q0 -29 -18 -44.5t-51 -15.5q-31 0 -48.5 16t-17.5 44v390q0 60 69 60q66 0 66 -60v-202h-99v-184q0 -34 32 -34q31 0 31 34v107h36v-111zM124 274v168q0 34 -32 34q-31 0 -31 -34v-168h63zM31 592l46 96h30l46 -96h-30l-31 66l-31 -66h-30z" />
    <glyph glyph-name="edieresis" unicode="&#xeb;" horiz-adv-x="185" 
d="M160 56q0 -29 -18 -44.5t-51 -15.5q-31 0 -48.5 16t-17.5 44v390q0 60 69 60q66 0 66 -60v-202h-99v-184q0 -34 32 -34q31 0 31 34v107h36v-111zM124 274v168q0 34 -32 34q-31 0 -31 -34v-168h63zM23 636v52h44v-52h-44zM117 636v52h44v-52h-44z" />
    <glyph glyph-name="igrave" unicode="&#xec;" horiz-adv-x="94" 
d="M29 0v502h36v-502h-36zM43 592l-58 96h44l40 -96h-26z" />
    <glyph glyph-name="iacute" unicode="&#xed;" horiz-adv-x="94" 
d="M29 0v502h36v-502h-36zM35 592l40 96h44l-58 -96h-26z" />
    <glyph glyph-name="icircumflex" unicode="&#xee;" horiz-adv-x="94" 
d="M29 0v502h36v-502h-36zM-14 592l46 96h30l46 -96h-30l-31 66l-31 -66h-30z" />
    <glyph glyph-name="idieresis" unicode="&#xef;" horiz-adv-x="94" 
d="M29 0v502h36v-502h-36zM-22 636v52h44v-52h-44zM72 636v52h44v-52h-44z" />
    <glyph glyph-name="eth" unicode="&#xf0;" 
d="M33 61v380q0 32 18 48.5t48 16.5q23 0 39 -11q-2 59 -12 92q-12 43 -32 69l-44 -30l-16 24l43 28q-19 20 -39 32l24 16q22 -13 39 -30l43 30l16 -24l-41 -28q31 -40 43 -100q9 -48 9 -132v-381q0 -29 -19 -47t-50 -18t-50 18t-19 47zM135 61v380q0 35 -33 35t-33 -35
v-380q0 -35 33 -35t33 35z" />
    <glyph glyph-name="ntilde" unicode="&#xf1;" 
d="M171 0h-36v434q0 42 -28 42q-17 0 -27.5 -15.5t-10.5 -39.5v-421h-36v502h36v-27h2q16 31 50 31q50 0 50 -59v-447zM27 612v5q0 20 8 37.5t28 17.5q13 0 37 -15q30 -15 36 -15q19 0 19 26v4h22v-5q0 -20 -8 -37.5t-28 -17.5q-12 0 -40 15q-24 15 -35 15q-17 0 -17 -26v-4
h-22z" />
    <glyph glyph-name="ograve" unicode="&#xf2;" 
d="M171 61q0 -29 -19 -47t-50 -18t-50 18t-19 47v380q0 65 69 65t69 -65v-380zM135 61v380q0 35 -33 35t-33 -35v-380q0 -35 33 -35t33 35zM98 592l-58 96h44l40 -96h-26z" />
    <glyph glyph-name="oacute" unicode="&#xf3;" 
d="M171 61q0 -29 -19 -47t-50 -18t-50 18t-19 47v380q0 65 69 65t69 -65v-380zM135 61v380q0 35 -33 35t-33 -35v-380q0 -35 33 -35t33 35zM80 592l40 96h44l-58 -96h-26z" />
    <glyph glyph-name="ocircumflex" unicode="&#xf4;" 
d="M171 61q0 -29 -19 -47t-50 -18t-50 18t-19 47v380q0 65 69 65t69 -65v-380zM135 61v380q0 35 -33 35t-33 -35v-380q0 -35 33 -35t33 35zM41 592l46 96h30l46 -96h-30l-31 66l-31 -66h-30z" />
    <glyph glyph-name="otilde" unicode="&#xf5;" 
d="M171 61q0 -29 -19 -47t-50 -18t-50 18t-19 47v380q0 65 69 65t69 -65v-380zM135 61v380q0 35 -33 35t-33 -35v-380q0 -35 33 -35t33 35zM27 612v5q0 20 8 37.5t28 17.5q13 0 37 -15q30 -15 36 -15q19 0 19 26v4h22v-5q0 -20 -8 -37.5t-28 -17.5q-12 0 -40 15
q-24 15 -35 15q-17 0 -17 -26v-4h-22z" />
    <glyph glyph-name="odieresis" unicode="&#xf6;" 
d="M171 61q0 -29 -19 -47t-50 -18t-50 18t-19 47v380q0 65 69 65t69 -65v-380zM135 61v380q0 35 -33 35t-33 -35v-380q0 -35 33 -35t33 35zM33 636v52h44v-52h-44zM127 636v52h44v-52h-44z" />
    <glyph glyph-name="divide" unicode="&#xf7;" horiz-adv-x="600" 
d="M322 430h-44v52h44v-52zM553 238h-506v30h506v-30zM322 27h-44v52h44v-52z" />
    <glyph glyph-name="oslash" unicode="&#xf8;" 
d="M69 167h2l64 264v10q0 35 -33 35t-33 -35v-274zM69 81v-20q0 -35 33 -35t33 35v278h-2zM12 -33l22 82q-1 5 -1 12v380q0 65 69 65q31 0 49 -15l13 51l28 -8l-22 -79q1 -6 1 -14v-380q0 -29 -19 -47t-50 -18q-34 0 -51 19l-15 -55z" />
    <glyph glyph-name="ugrave" unicode="&#xf9;" 
d="M171 0h-36v27h-2q-18 -31 -50 -31q-50 0 -50 59v447h36v-434q0 -42 28 -42q17 0 27.5 15.5t10.5 39.5v421h36v-502zM98 592l-58 96h44l40 -96h-26z" />
    <glyph glyph-name="uacute" unicode="&#xfa;" 
d="M171 0h-36v27h-2q-18 -31 -50 -31q-50 0 -50 59v447h36v-434q0 -42 28 -42q17 0 27.5 15.5t10.5 39.5v421h36v-502zM80 592l40 96h44l-58 -96h-26z" />
    <glyph glyph-name="ucircumflex" unicode="&#xfb;" 
d="M171 0h-36v27h-2q-18 -31 -50 -31q-50 0 -50 59v447h36v-434q0 -42 28 -42q17 0 27.5 15.5t10.5 39.5v421h36v-502zM41 592l46 96h30l46 -96h-30l-31 66l-31 -66h-30z" />
    <glyph glyph-name="udieresis" unicode="&#xfc;" 
d="M171 0h-36v27h-2q-18 -31 -50 -31q-50 0 -50 59v447h36v-434q0 -42 28 -42q17 0 27.5 15.5t10.5 39.5v421h36v-502zM33 636v52h44v-52h-44zM127 636v52h44v-52h-44z" />
    <glyph glyph-name="yacute" unicode="&#xfd;" horiz-adv-x="167" 
d="M162 502l-86 -686h-30l21 180l-62 506h36l42 -434h2l41 434h36zM61 592l40 96h44l-58 -96h-26z" />
    <glyph glyph-name="thorn" unicode="&#xfe;" 
d="M33 -184v906h36v-241h2q13 25 47 25q53 0 53 -59v-388q0 -29 -14.5 -46t-40.5 -17q-33 0 -45 23h-2v-203h-36zM135 61v381q0 34 -32 34q-15 0 -24.5 -14.5t-9.5 -31.5v-369q0 -17 11.5 -26t25.5 -9q29 0 29 35z" />
    <glyph glyph-name="ydieresis" unicode="&#xff;" horiz-adv-x="167" 
d="M162 502l-86 -686h-30l21 180l-62 506h36l42 -434h2l41 434h36zM14 636v52h44v-52h-44zM108 636v52h44v-52h-44z" />
    <glyph glyph-name="Amacron" unicode="&#x100;" 
d="M212 0h-40l-23 211h-99l-22 -211h-36l81 722h56zM146 241l-25 237q-8 81 -20 218h-2q-3 -28 -9 -103t-10 -115l-26 -237h92zM37 805v30h130v-30h-130z" />
    <glyph glyph-name="amacron" unicode="&#x101;" horiz-adv-x="185" 
d="M160 0h-36v25h-2q-14 -29 -49 -29q-48 0 -48 45v191q0 37 19.5 53.5t63.5 16.5h16v145q0 29 -31 29q-32 0 -32 -29v-88h-36v96q0 51 72 51q63 0 63 -51v-455zM124 81v191h-10q-29 0 -41 -10.5t-12 -35.5v-177q0 -23 25 -23q17 0 27.5 15t10.5 40zM27 630v30h130v-30h-130
z" />
    <glyph glyph-name="Abreve" unicode="&#x102;" 
d="M212 0h-40l-23 211h-99l-22 -211h-36l81 722h56zM146 241l-25 237q-8 81 -20 218h-2q-3 -28 -9 -103t-10 -115l-26 -237h92zM36 842v5h22v-5q0 -14 12 -23.5t32 -9.5t32 9.5t12 23.5v5h22v-5q0 -31 -17.5 -47t-48.5 -16t-48.5 16t-17.5 47z" />
    <glyph glyph-name="abreve" unicode="&#x103;" horiz-adv-x="185" 
d="M160 0h-36v25h-2q-14 -29 -49 -29q-48 0 -48 45v191q0 37 19.5 53.5t63.5 16.5h16v145q0 29 -31 29q-32 0 -32 -29v-88h-36v96q0 51 72 51q63 0 63 -51v-455zM124 81v191h-10q-29 0 -41 -10.5t-12 -35.5v-177q0 -23 25 -23q17 0 27.5 15t10.5 40zM26 667v5h22v-5
q0 -14 12 -23.5t32 -9.5t32 9.5t12 23.5v5h22v-5q0 -31 -17.5 -47t-48.5 -16t-48.5 16t-17.5 47z" />
    <glyph glyph-name="Aogonek" unicode="&#x104;" 
d="M223 -88v-18q-4 -1 -15 -1q-27 0 -43.5 11.5t-16.5 32.5q0 25 33 63h-9l-23 211h-99l-22 -211h-36l81 722h56l83 -722h-10q-28 -39 -28 -55q0 -15 9 -24.5t26 -9.5q9 0 14 1zM146 241l-25 237q-8 81 -20 218h-2q-3 -28 -9 -103t-10 -115l-26 -237h92z" />
    <glyph glyph-name="aogonek" unicode="&#x105;" horiz-adv-x="185" 
d="M165 -88v-18q-4 -1 -15 -1q-27 0 -43.5 11.5t-16.5 32.5q0 26 34 63v25h-2q-14 -29 -49 -29q-48 0 -48 45v191q0 37 19.5 53.5t63.5 16.5h16v145q0 29 -31 29q-32 0 -32 -29v-88h-36v96q0 51 72 51q63 0 63 -51v-455h-16q-28 -39 -28 -55q0 -15 9 -24.5t26 -9.5q9 0 14 1
zM124 81v191h-10q-29 0 -41 -10.5t-12 -35.5v-177q0 -23 25 -23q17 0 27.5 15t10.5 40z" />
    <glyph glyph-name="Cacute" unicode="&#x106;" 
d="M185 74q0 -78 -82 -78q-40 0 -62 20.5t-22 57.5v574q0 37 22.5 57.5t62.5 20.5q39 0 60 -20t21 -58v-119h-40v113q0 54 -42 54q-20 0 -32 -12t-12 -33v-580q0 -21 12 -33t34 -12t31 12.5t9 41.5v123h40v-129zM90 767l40 96h44l-58 -96h-26z" />
    <glyph glyph-name="cacute" unicode="&#x107;" horiz-adv-x="167" 
d="M148 56q0 -60 -66 -60q-63 0 -63 60v390q0 60 67 60q62 0 62 -60v-101h-36v97q0 34 -29 34q-28 0 -28 -34v-387q0 -29 30 -29q27 0 27 27v115h36v-112zM61 592l40 96h44l-58 -96h-26z" />
    <glyph glyph-name="Ccircumflex" unicode="&#x108;" 
d="M185 74q0 -78 -82 -78q-40 0 -62 20.5t-22 57.5v574q0 37 22.5 57.5t62.5 20.5q39 0 60 -20t21 -58v-119h-40v113q0 54 -42 54q-20 0 -32 -12t-12 -33v-580q0 -21 12 -33t34 -12t31 12.5t9 41.5v123h40v-129zM41 767l46 96h30l46 -96h-30l-31 66l-31 -66h-30z" />
    <glyph glyph-name="ccircumflex" unicode="&#x109;" horiz-adv-x="167" 
d="M148 56q0 -60 -66 -60q-63 0 -63 60v390q0 60 67 60q62 0 62 -60v-101h-36v97q0 34 -29 34q-28 0 -28 -34v-387q0 -29 30 -29q27 0 27 27v115h36v-112zM22 592l46 96h30l46 -96h-30l-31 66l-31 -66h-30z" />
    <glyph glyph-name="Cdotaccent" unicode="&#x10a;" 
d="M185 74q0 -78 -82 -78q-40 0 -62 20.5t-22 57.5v574q0 37 22.5 57.5t62.5 20.5q39 0 60 -20t21 -58v-119h-40v113q0 54 -42 54q-20 0 -32 -12t-12 -33v-580q0 -21 12 -33t34 -12t31 12.5t9 41.5v123h40v-129zM80 811v52h44v-52h-44z" />
    <glyph glyph-name="cdotaccent" unicode="&#x10b;" horiz-adv-x="167" 
d="M148 56q0 -60 -66 -60q-63 0 -63 60v390q0 60 67 60q62 0 62 -60v-101h-36v97q0 34 -29 34q-28 0 -28 -34v-387q0 -29 30 -29q27 0 27 27v115h36v-112zM61 636v52h44v-52h-44z" />
    <glyph glyph-name="Ccaron" unicode="&#x10c;" 
d="M185 74q0 -78 -82 -78q-40 0 -62 20.5t-22 57.5v574q0 37 22.5 57.5t62.5 20.5q39 0 60 -20t21 -58v-119h-40v113q0 54 -42 54q-20 0 -32 -12t-12 -33v-580q0 -21 12 -33t34 -12t31 12.5t9 41.5v123h40v-129zM87 767l-46 96h30l31 -66l31 66h30l-46 -96h-30z" />
    <glyph glyph-name="ccaron" unicode="&#x10d;" horiz-adv-x="167" 
d="M148 56q0 -60 -66 -60q-63 0 -63 60v390q0 60 67 60q62 0 62 -60v-101h-36v97q0 34 -29 34q-28 0 -28 -34v-387q0 -29 30 -29q27 0 27 27v115h36v-112zM68 592l-46 96h30l31 -66l31 66h30l-46 -96h-30z" />
    <glyph glyph-name="Dcaron" unicode="&#x10e;" horiz-adv-x="241" 
d="M208 77q0 -77 -90 -77h-85v722h85q90 0 90 -77v-568zM168 74v574q0 44 -54 44h-41v-662h41q54 0 54 44zM100 767l-46 96h30l31 -66l31 66h30l-46 -96h-30z" />
    <glyph glyph-name="dcaron" unicode="&#x10f;" 
d="M171 0h-36v19h-3q-14 -23 -42 -23q-57 0 -57 63v388q0 59 52 59q32 0 48 -25h2v241h36v-722zM135 61v369q0 20 -10 33t-26 13q-30 0 -30 -34v-381q0 -35 29 -35q16 0 26.5 10t10.5 25zM198 626l15 96h38l-29 -96h-24z" />
    <glyph glyph-name="Dcroat" unicode="&#x110;" horiz-adv-x="241" 
d="M33 0v356h-33v30h33v336h85q90 0 90 -77v-568q0 -77 -90 -77h-85zM73 30h41q54 0 54 44v574q0 44 -54 44h-41v-306h55v-30h-55v-326z" />
    <glyph glyph-name="dcroat" unicode="&#x111;" 
d="M33 59v388q0 59 52 59q32 0 48 -25h2v111h-82v30h82v100h36v-100h38v-30h-38v-592h-36v19h-3q-14 -23 -42 -23q-57 0 -57 63zM135 61v369q0 20 -10 33t-26 13q-30 0 -30 -34v-381q0 -35 29 -35q16 0 26.5 10t10.5 25z" />
    <glyph glyph-name="Emacron" unicode="&#x112;" horiz-adv-x="185" 
d="M177 0h-144v722h137v-30h-97v-306h91v-30h-91v-326h104v-30zM32 805v30h130v-30h-130z" />
    <glyph glyph-name="emacron" unicode="&#x113;" horiz-adv-x="185" 
d="M160 56q0 -29 -18 -44.5t-51 -15.5q-31 0 -48.5 16t-17.5 44v390q0 60 69 60q66 0 66 -60v-202h-99v-184q0 -34 32 -34q31 0 31 34v107h36v-111zM124 274v168q0 34 -32 34q-31 0 -31 -34v-168h63zM27 630v30h130v-30h-130z" />
    <glyph glyph-name="Ebreve" unicode="&#x114;" horiz-adv-x="185" 
d="M177 0h-144v722h137v-30h-97v-306h91v-30h-91v-326h104v-30zM31 842v5h22v-5q0 -14 12 -23.5t32 -9.5t32 9.5t12 23.5v5h22v-5q0 -31 -17.5 -47t-48.5 -16t-48.5 16t-17.5 47z" />
    <glyph glyph-name="ebreve" unicode="&#x115;" horiz-adv-x="185" 
d="M160 56q0 -29 -18 -44.5t-51 -15.5q-31 0 -48.5 16t-17.5 44v390q0 60 69 60q66 0 66 -60v-202h-99v-184q0 -34 32 -34q31 0 31 34v107h36v-111zM124 274v168q0 34 -32 34q-31 0 -31 -34v-168h63zM26 667v5h22v-5q0 -14 12 -23.5t32 -9.5t32 9.5t12 23.5v5h22v-5
q0 -31 -17.5 -47t-48.5 -16t-48.5 16t-17.5 47z" />
    <glyph glyph-name="Edotaccent" unicode="&#x116;" horiz-adv-x="185" 
d="M177 0h-144v722h137v-30h-97v-306h91v-30h-91v-326h104v-30zM80 811v52h44v-52h-44z" />
    <glyph glyph-name="edotaccent" unicode="&#x117;" horiz-adv-x="185" 
d="M160 56q0 -29 -18 -44.5t-51 -15.5q-31 0 -48.5 16t-17.5 44v390q0 60 69 60q66 0 66 -60v-202h-99v-184q0 -34 32 -34q31 0 31 34v107h36v-111zM124 274v168q0 34 -32 34q-31 0 -31 -34v-168h63zM70 636v52h44v-52h-44z" />
    <glyph glyph-name="Eogonek" unicode="&#x118;" horiz-adv-x="185" 
d="M177 -88v-18q-4 -1 -15 -1q-27 0 -43.5 11.5t-16.5 32.5q0 25 33 63h-102v722h137v-30h-97v-306h91v-30h-91v-326h104v-30h-21q-28 -39 -28 -55q0 -15 9 -24.5t26 -9.5q9 0 14 1z" />
    <glyph glyph-name="eogonek" unicode="&#x119;" horiz-adv-x="185" 
d="M130 -88v-18q-4 -1 -15 -1q-27 0 -43.5 11.5t-16.5 32.5q0 24 30 59q-28 1 -44 17.5t-16 42.5v390q0 60 69 60q66 0 66 -60v-202h-99v-184q0 -34 32 -34q31 0 31 34v107h36v-111q0 -51 -53 -59q-26 -35 -26 -52q0 -15 9 -24.5t26 -9.5q9 0 14 1zM124 274v168q0 34 -32 34
q-31 0 -31 -34v-168h63z" />
    <glyph glyph-name="Ecaron" unicode="&#x11a;" horiz-adv-x="185" 
d="M177 0h-144v722h137v-30h-97v-306h91v-30h-91v-326h104v-30zM87 767l-46 96h30l31 -66l31 66h30l-46 -96h-30z" />
    <glyph glyph-name="ecaron" unicode="&#x11b;" horiz-adv-x="185" 
d="M160 56q0 -29 -18 -44.5t-51 -15.5q-31 0 -48.5 16t-17.5 44v390q0 60 69 60q66 0 66 -60v-202h-99v-184q0 -34 32 -34q31 0 31 34v107h36v-111zM124 274v168q0 34 -32 34q-31 0 -31 -34v-168h63zM77 592l-46 96h30l31 -66l31 66h30l-46 -96h-30z" />
    <glyph glyph-name="Gcircumflex" unicode="&#x11c;" horiz-adv-x="241" 
d="M208 18q-37 -22 -87 -22q-42 0 -65 20.5t-23 57.5v574q0 37 23 57.5t65 20.5t64.5 -20t22.5 -58v-117h-40v112q0 23 -13 38t-34 15t-34.5 -15t-13.5 -38v-572q0 -20 13.5 -32.5t35.5 -12.5q24 0 46 12v280h-40v30h80v-330zM59 767l46 96h30l46 -96h-30l-31 66l-31 -66
h-30z" />
    <glyph glyph-name="gcircumflex" unicode="&#x11d;" 
d="M171 -118q0 -38 -15.5 -54t-53.5 -16q-64 0 -64 59v72h36v-63q0 -21 7 -29.5t24 -8.5q30 0 30 42v146h-2q-11 -23 -42 -23q-58 0 -58 67v373q0 59 52 59q32 0 48 -25h2v21h36v-620zM135 86v344q0 20 -10 33t-26 13q-30 0 -30 -34v-368q0 -41 32 -41q34 0 34 53zM41 592
l46 96h30l46 -96h-30l-31 66l-31 -66h-30z" />
    <glyph glyph-name="Gbreve" unicode="&#x11e;" horiz-adv-x="241" 
d="M208 18q-37 -22 -87 -22q-42 0 -65 20.5t-23 57.5v574q0 37 23 57.5t65 20.5t64.5 -20t22.5 -58v-117h-40v112q0 23 -13 38t-34 15t-34.5 -15t-13.5 -38v-572q0 -20 13.5 -32.5t35.5 -12.5q24 0 46 12v280h-40v30h80v-330zM54 842v5h22v-5q0 -14 12 -23.5t32 -9.5t32 9.5
t12 23.5v5h22v-5q0 -31 -17.5 -47t-48.5 -16t-48.5 16t-17.5 47z" />
    <glyph glyph-name="gbreve" unicode="&#x11f;" 
d="M171 -118q0 -38 -15.5 -54t-53.5 -16q-64 0 -64 59v72h36v-63q0 -21 7 -29.5t24 -8.5q30 0 30 42v146h-2q-11 -23 -42 -23q-58 0 -58 67v373q0 59 52 59q32 0 48 -25h2v21h36v-620zM135 86v344q0 20 -10 33t-26 13q-30 0 -30 -34v-368q0 -41 32 -41q34 0 34 53zM36 667v5
h22v-5q0 -14 12 -23.5t32 -9.5t32 9.5t12 23.5v5h22v-5q0 -31 -17.5 -47t-48.5 -16t-48.5 16t-17.5 47z" />
    <glyph glyph-name="Gdotaccent" unicode="&#x120;" horiz-adv-x="241" 
d="M208 18q-37 -22 -87 -22q-42 0 -65 20.5t-23 57.5v574q0 37 23 57.5t65 20.5t64.5 -20t22.5 -58v-117h-40v112q0 23 -13 38t-34 15t-34.5 -15t-13.5 -38v-572q0 -20 13.5 -32.5t35.5 -12.5q24 0 46 12v280h-40v30h80v-330zM98 811v52h44v-52h-44z" />
    <glyph glyph-name="gdotaccent" unicode="&#x121;" 
d="M171 -118q0 -38 -15.5 -54t-53.5 -16q-64 0 -64 59v72h36v-63q0 -21 7 -29.5t24 -8.5q30 0 30 42v146h-2q-11 -23 -42 -23q-58 0 -58 67v373q0 59 52 59q32 0 48 -25h2v21h36v-620zM135 86v344q0 20 -10 33t-26 13q-30 0 -30 -34v-368q0 -41 32 -41q34 0 34 53zM80 636
v52h44v-52h-44z" />
    <glyph glyph-name="Gcommaaccent" unicode="&#x122;" horiz-adv-x="241" 
d="M208 18q-37 -22 -87 -22q-42 0 -65 20.5t-23 57.5v574q0 37 23 57.5t65 20.5t64.5 -20t22.5 -58v-117h-40v112q0 23 -13 38t-34 15t-34.5 -15t-13.5 -38v-572q0 -20 13.5 -32.5t35.5 -12.5q24 0 46 12v280h-40v30h80v-330zM88 -124l15 96h38l-29 -96h-24z" />
    <glyph glyph-name="gcommaaccent" unicode="&#x123;" 
d="M171 -118q0 -38 -15.5 -54t-53.5 -16q-64 0 -64 59v72h36v-63q0 -21 7 -29.5t24 -8.5q30 0 30 42v146h-2q-11 -23 -42 -23q-58 0 -58 67v373q0 59 52 59q32 0 48 -25h2v21h36v-620zM135 86v344q0 20 -10 33t-26 13q-30 0 -30 -34v-368q0 -41 32 -41q34 0 34 53zM74 592
l29 96h24l-15 -96h-38z" />
    <glyph glyph-name="Hcircumflex" unicode="&#x124;" horiz-adv-x="241" 
d="M208 0h-40v356h-95v-356h-40v722h40v-336h95v336h40v-722zM59 767l46 96h30l46 -96h-30l-31 66l-31 -66h-30z" />
    <glyph glyph-name="hcircumflex" unicode="&#x125;" 
d="M171 0h-36v434q0 42 -28 42q-17 0 -27.5 -15.5t-10.5 -39.5v-421h-36v722h36v-247h2q16 31 50 31q50 0 50 -59v-447zM41 767l46 96h30l46 -96h-30l-31 66l-31 -66h-30z" />
    <glyph glyph-name="Hbar" unicode="&#x126;" horiz-adv-x="241" 
d="M33 0v722h40v-194h95v194h40v-722h-40v356h-95v-356h-40zM73 386h95v112h-95v-112z" />
    <glyph glyph-name="hbar" unicode="&#x127;" 
d="M173 0h-36v434q0 24 -7 33t-23 9q-14 0 -25 -14.5t-11 -40.5v-421h-36v596h-43v30h43v96h36v-96h77v-30h-77v-121h2q5 11 18 21t29 10q27 0 40 -13.5t13 -45.5v-447z" />
    <glyph glyph-name="Itilde" unicode="&#x128;" horiz-adv-x="112" 
d="M76 0h-40v722h40v-722zM-19 787v5q0 20 8 37.5t28 17.5q13 0 37 -15q30 -15 36 -15q19 0 19 26v4h22v-5q0 -20 -8 -37.5t-28 -17.5q-12 0 -40 15q-24 15 -35 15q-17 0 -17 -26v-4h-22z" />
    <glyph glyph-name="itilde" unicode="&#x129;" horiz-adv-x="94" 
d="M29 0v502h36v-502h-36zM-28 612v5q0 20 8 37.5t28 17.5q13 0 37 -15q30 -15 36 -15q19 0 19 26v4h22v-5q0 -20 -8 -37.5t-28 -17.5q-12 0 -40 15q-24 15 -35 15q-17 0 -17 -26v-4h-22z" />
    <glyph glyph-name="Imacron" unicode="&#x12a;" horiz-adv-x="112" 
d="M76 0h-40v722h40v-722zM-9 805v30h130v-30h-130z" />
    <glyph glyph-name="imacron" unicode="&#x12b;" horiz-adv-x="94" 
d="M29 0v502h36v-502h-36zM-18 630v30h130v-30h-130z" />
    <glyph glyph-name="Ibreve" unicode="&#x12c;" horiz-adv-x="112" 
d="M76 0h-40v722h40v-722zM-10 842v5h22v-5q0 -14 12 -23.5t32 -9.5t32 9.5t12 23.5v5h22v-5q0 -31 -17.5 -47t-48.5 -16t-48.5 16t-17.5 47z" />
    <glyph glyph-name="ibreve" unicode="&#x12d;" horiz-adv-x="94" 
d="M29 0v502h36v-502h-36zM-19 667v5h22v-5q0 -14 12 -23.5t32 -9.5t32 9.5t12 23.5v5h22v-5q0 -31 -17.5 -47t-48.5 -16t-48.5 16t-17.5 47z" />
    <glyph glyph-name="Iogonek" unicode="&#x12e;" horiz-adv-x="112" 
d="M87 -88v-18q-4 -1 -15 -1q-27 0 -43.5 11.5t-16.5 32.5q0 25 33 63h-9v722h40v-722h-10q-28 -39 -28 -55q0 -15 9 -24.5t26 -9.5q9 0 14 1z" />
    <glyph glyph-name="iogonek" unicode="&#x12f;" horiz-adv-x="94" 
d="M78 -88v-18q-4 -1 -15 -1q-27 0 -43.5 11.5t-16.5 32.5q0 25 33 63h-7v502h36v-502h-8q-28 -39 -28 -55q0 -15 9 -24.5t26 -9.5q9 0 14 1zM69 636h-44v52h44v-52z" />
    <glyph glyph-name="Idotaccent" unicode="&#x130;" horiz-adv-x="112" 
d="M76 0h-40v722h40v-722zM34 811v52h44v-52h-44z" />
    <glyph glyph-name="dotlessi" unicode="&#x131;" horiz-adv-x="94" 
d="M29 0v502h36v-502h-36z" />
    <glyph glyph-name="Jcircumflex" unicode="&#x134;" horiz-adv-x="185" 
d="M152 70q0 -34 -20.5 -54t-54.5 -20t-54.5 20t-20.5 54v123h40v-122q0 -24 8.5 -34.5t27.5 -10.5q34 0 34 45v651h40v-652zM70 767l46 96h30l46 -96h-30l-31 66l-31 -66h-30z" />
    <glyph glyph-name="jcircumflex" unicode="&#x135;" horiz-adv-x="94" 
d="M1 -184v26h8q20 0 20 27v633h36v-641q0 -45 -37 -45h-27zM-14 592l46 96h30l46 -96h-30l-31 66l-31 -66h-30z" />
    <glyph glyph-name="Kcommaaccent" unicode="&#x136;" 
d="M218 0h-40l-105 382l99 340h36l-99 -340zM73 0h-40v722h40v-722zM85 -124l15 96h38l-29 -96h-24z" />
    <glyph glyph-name="kcommaaccent" unicode="&#x137;" horiz-adv-x="185" 
d="M69 0h-36v722h36v-722zM183 0h-36l-78 288l75 214h36l-73 -211zM76 -124l15 96h38l-29 -96h-24z" />
    <glyph glyph-name="kgreenlandic" unicode="&#x138;" horiz-adv-x="185" 
d="M147 0l-78 258l75 244h36l-73 -241l76 -261h-36zM33 0v502h36v-502h-36z" />
    <glyph glyph-name="Lacute" unicode="&#x139;" horiz-adv-x="185" 
d="M178 0h-145v722h40v-692h105v-30zM40 767l40 96h44l-58 -96h-26z" />
    <glyph glyph-name="lacute" unicode="&#x13a;" horiz-adv-x="94" 
d="M65 0h-36v722h36v-722zM35 767l40 96h44l-58 -96h-26z" />
    <glyph glyph-name="Lcommaaccent" unicode="&#x13b;" horiz-adv-x="185" 
d="M178 0h-145v722h40v-692h105v-30zM76 -124l15 96h38l-29 -96h-24z" />
    <glyph glyph-name="lcommaaccent" unicode="&#x13c;" horiz-adv-x="94" 
d="M65 0h-36v722h36v-722zM13 -124l15 96h38l-29 -96h-24z" />
    <glyph glyph-name="Lcaron" unicode="&#x13d;" horiz-adv-x="185" 
d="M178 0h-145v722h40v-692h105v-30zM108 626l15 96h38l-29 -96h-24z" />
    <glyph glyph-name="lcaron" unicode="&#x13e;" horiz-adv-x="94" 
d="M65 0h-36v722h36v-722zM88 626l15 96h38l-29 -96h-24z" />
    <glyph glyph-name="Ldot" unicode="&#x13f;" horiz-adv-x="185" 
d="M178 0h-145v722h40v-692h105v-30zM115 326v52h44v-52h-44z" />
    <glyph glyph-name="ldot" unicode="&#x140;" horiz-adv-x="144" 
d="M65 0h-36v722h36v-722zM95 326v52h44v-52h-44z" />
    <glyph glyph-name="Lslash" unicode="&#x141;" horiz-adv-x="185" 
d="M33 0v309l-33 -37v44l33 37v369h40v-325l70 78v-44l-70 -78v-323h105v-30h-145z" />
    <glyph glyph-name="lslash" unicode="&#x142;" horiz-adv-x="94" 
d="M29 0v321l-29 -33v48l29 33v353h36v-313l29 31v-48l-29 -31v-361h-36z" />
    <glyph glyph-name="Nacute" unicode="&#x143;" horiz-adv-x="259" 
d="M226 0h-60l-70 460l-23 186l-5 46h-2q4 -131 5 -148q2 -60 2 -62v-482h-40v722h60l101 -692h2l-2 40l-8 192v460h40v-722zM117 767l40 96h44l-58 -96h-26z" />
    <glyph glyph-name="nacute" unicode="&#x144;" 
d="M171 0h-36v434q0 42 -28 42q-17 0 -27.5 -15.5t-10.5 -39.5v-421h-36v502h36v-27h2q16 31 50 31q50 0 50 -59v-447zM80 592l40 96h44l-58 -96h-26z" />
    <glyph glyph-name="Ncommaaccent" unicode="&#x145;" horiz-adv-x="259" 
d="M226 0h-60l-70 460l-23 186l-5 46h-2q4 -131 5 -148q2 -60 2 -62v-482h-40v722h60l101 -692h2l-2 40l-8 192v460h40v-722zM93 -124l15 96h38l-29 -96h-24z" />
    <glyph glyph-name="ncommaaccent" unicode="&#x146;" 
d="M171 0h-36v434q0 42 -28 42q-17 0 -27.5 -15.5t-10.5 -39.5v-421h-36v502h36v-27h2q16 31 50 31q50 0 50 -59v-447zM68 -124l15 96h38l-29 -96h-24z" />
    <glyph glyph-name="Ncaron" unicode="&#x147;" horiz-adv-x="259" 
d="M226 0h-60l-70 460l-23 186l-5 46h-2q4 -131 5 -148q2 -60 2 -62v-482h-40v722h60l101 -692h2l-2 40l-8 192v460h40v-722zM114 767l-46 96h30l31 -66l31 66h30l-46 -96h-30z" />
    <glyph glyph-name="ncaron" unicode="&#x148;" 
d="M171 0h-36v434q0 42 -28 42q-17 0 -27.5 -15.5t-10.5 -39.5v-421h-36v502h36v-27h2q16 31 50 31q50 0 50 -59v-447zM87 592l-46 96h30l31 -66l31 66h30l-46 -96h-30z" />
    <glyph glyph-name="Eng" unicode="&#x14a;" horiz-adv-x="259" 
d="M153 -184v29h10q24 0 24 31v124h-21l-70 460l-23 186l-5 46h-2q4 -131 5 -148q2 -60 2 -62v-482h-40v722h60l101 -692h2l-2 40l-8 192v460h40v-855q0 -24 -11 -37.5t-31 -13.5h-31z" />
    <glyph glyph-name="eng" unicode="&#x14b;" 
d="M107 -184v26h8q20 0 20 27v565q0 42 -28 42q-17 0 -27.5 -15.5t-10.5 -39.5v-421h-36v502h36v-27h2q16 31 50 31q50 0 50 -59v-586q0 -45 -37 -45h-27z" />
    <glyph glyph-name="Omacron" unicode="&#x14c;" horiz-adv-x="241" 
d="M208 74q0 -38 -22.5 -58t-64.5 -20t-65 20.5t-23 57.5v574q0 37 23 57.5t66 20.5q41 0 63.5 -20.5t22.5 -57.5v-574zM168 75v572q0 49 -47 49q-23 0 -35.5 -13t-12.5 -36v-572q0 -23 12.5 -36t35.5 -13q47 0 47 49zM55 805v30h130v-30h-130z" />
    <glyph glyph-name="omacron" unicode="&#x14d;" 
d="M171 61q0 -29 -19 -47t-50 -18t-50 18t-19 47v380q0 65 69 65t69 -65v-380zM135 61v380q0 35 -33 35t-33 -35v-380q0 -35 33 -35t33 35zM37 630v30h130v-30h-130z" />
    <glyph glyph-name="Obreve" unicode="&#x14e;" horiz-adv-x="241" 
d="M208 74q0 -38 -22.5 -58t-64.5 -20t-65 20.5t-23 57.5v574q0 37 23 57.5t66 20.5q41 0 63.5 -20.5t22.5 -57.5v-574zM168 75v572q0 49 -47 49q-23 0 -35.5 -13t-12.5 -36v-572q0 -23 12.5 -36t35.5 -13q47 0 47 49zM54 842v5h22v-5q0 -14 12 -23.5t32 -9.5t32 9.5
t12 23.5v5h22v-5q0 -31 -17.5 -47t-48.5 -16t-48.5 16t-17.5 47z" />
    <glyph glyph-name="obreve" unicode="&#x14f;" 
d="M171 61q0 -29 -19 -47t-50 -18t-50 18t-19 47v380q0 65 69 65t69 -65v-380zM135 61v380q0 35 -33 35t-33 -35v-380q0 -35 33 -35t33 35zM36 667v5h22v-5q0 -14 12 -23.5t32 -9.5t32 9.5t12 23.5v5h22v-5q0 -31 -17.5 -47t-48.5 -16t-48.5 16t-17.5 47z" />
    <glyph glyph-name="Ohungarumlaut" unicode="&#x150;" horiz-adv-x="241" 
d="M208 74q0 -38 -22.5 -58t-64.5 -20t-65 20.5t-23 57.5v574q0 37 23 57.5t66 20.5q41 0 63.5 -20.5t22.5 -57.5v-574zM168 75v572q0 49 -47 49q-23 0 -35.5 -13t-12.5 -36v-572q0 -23 12.5 -36t35.5 -13q47 0 47 49zM73 767l40 96h44l-58 -96h-26zM143 767l40 96h44
l-58 -96h-26z" />
    <glyph glyph-name="ohungarumlaut" unicode="&#x151;" 
d="M171 61q0 -29 -19 -47t-50 -18t-50 18t-19 47v380q0 65 69 65t69 -65v-380zM135 61v380q0 35 -33 35t-33 -35v-380q0 -35 33 -35t33 35zM25 592l40 96h44l-58 -96h-26zM95 592l40 96h44l-58 -96h-26z" />
    <glyph glyph-name="OE" unicode="&#x152;" horiz-adv-x="333" 
d="M33 74v574q0 42 25 60t59 18q14 0 40 -2q24 -2 36 -2h112v-30h-96v-306h91v-30h-91v-326h103v-30h-124q-10 0 -34 -2t-36 -2q-40 0 -62.5 20.5t-22.5 57.5zM169 33v657q-16 6 -44 6q-52 0 -52 -56v-565q0 -24 13 -36.5t35 -12.5q37 0 48 7z" />
    <glyph glyph-name="oe" unicode="&#x153;" horiz-adv-x="278" 
d="M21 61v380q0 65 69 65q33 0 50 -26q14 26 50 26q67 0 67 -60v-202h-98v-184q0 -34 31 -34t31 34v107h36v-111q0 -27 -17 -43.5t-50 -16.5q-38 0 -51 27q-18 -27 -49 -27t-50 18t-19 47zM123 62v379q0 35 -33 35t-33 -35v-379q0 -36 33 -36t33 36zM159 274h62v168
q0 34 -31 34t-31 -34v-168z" />
    <glyph glyph-name="Racute" unicode="&#x154;" horiz-adv-x="241" 
d="M205 0h-40v304q0 24 -15 38t-40 14h-37v-356h-40v722h90q38 0 60 -18t22 -49v-213q0 -36 -13.5 -51.5t-48.5 -19.5v-2q62 -7 62 -65v-304zM165 434v213q0 45 -49 45h-43v-306h39q53 0 53 48zM88 767l40 96h44l-58 -96h-26z" />
    <glyph glyph-name="racute" unicode="&#x155;" horiz-adv-x="130" 
d="M121 476q-52 -3 -52 -55v-421h-36v502h36v-27h2q15 30 50 31v-30zM43 592l40 96h44l-58 -96h-26z" />
    <glyph glyph-name="Rcommaaccent" unicode="&#x156;" horiz-adv-x="241" 
d="M205 0h-40v304q0 24 -15 38t-40 14h-37v-356h-40v722h90q38 0 60 -18t22 -49v-213q0 -36 -13.5 -51.5t-48.5 -19.5v-2q62 -7 62 -65v-304zM165 434v213q0 45 -49 45h-43v-306h39q53 0 53 48zM84 -124l15 96h38l-29 -96h-24z" />
    <glyph glyph-name="rcommaaccent" unicode="&#x157;" horiz-adv-x="130" 
d="M121 476q-52 -3 -52 -55v-421h-36v502h36v-27h2q15 30 50 31v-30zM18 -124l15 96h38l-29 -96h-24z" />
    <glyph glyph-name="Rcaron" unicode="&#x158;" horiz-adv-x="241" 
d="M205 0h-40v304q0 24 -15 38t-40 14h-37v-356h-40v722h90q38 0 60 -18t22 -49v-213q0 -36 -13.5 -51.5t-48.5 -19.5v-2q62 -7 62 -65v-304zM165 434v213q0 45 -49 45h-43v-306h39q53 0 53 48zM105 767l-46 96h30l31 -66l31 66h30l-46 -96h-30z" />
    <glyph glyph-name="rcaron" unicode="&#x159;" horiz-adv-x="130" 
d="M121 476q-52 -3 -52 -55v-421h-36v502h36v-27h2q15 30 50 31v-30zM60 592l-46 96h30l31 -66l31 66h30l-46 -96h-30z" />
    <glyph glyph-name="Sacute" unicode="&#x15a;" horiz-adv-x="209" 
d="M190 70q0 -74 -89 -74q-82 0 -82 77v128h36v-131q0 -23 11.5 -33.5t36.5 -10.5q47 0 47 46v124q0 54 -21 93l-84 159q-26 49 -26 98v105q0 35 22.5 55t63.5 20q79 0 79 -67v-129h-36v125q0 41 -42 41q-20 0 -32 -11.5t-12 -31.5v-112q0 -39 16 -69l82 -157
q30 -58 30 -109v-136zM92 767l40 96h44l-58 -96h-26z" />
    <glyph glyph-name="sacute" unicode="&#x15b;" horiz-adv-x="167" 
d="M149 55q0 -28 -17.5 -43.5t-49.5 -15.5q-30 0 -47 14t-17 39v118h36v-111q0 -30 30 -30q29 0 29 30v86q0 44 -12 64l-70 116q-13 23 -13 57v71q0 26 17.5 41t48.5 15q63 0 63 -58v-87h-36v81q0 34 -28 34q-29 0 -29 -34v-68q0 -27 14 -50l65 -104q16 -25 16 -65v-100z
M61 592l40 96h44l-58 -96h-26z" />
    <glyph glyph-name="Scircumflex" unicode="&#x15c;" horiz-adv-x="209" 
d="M190 70q0 -74 -89 -74q-82 0 -82 77v128h36v-131q0 -23 11.5 -33.5t36.5 -10.5q47 0 47 46v124q0 54 -21 93l-84 159q-26 49 -26 98v105q0 35 22.5 55t63.5 20q79 0 79 -67v-129h-36v125q0 41 -42 41q-20 0 -32 -11.5t-12 -31.5v-112q0 -39 16 -69l82 -157
q30 -58 30 -109v-136zM43 767l46 96h30l46 -96h-30l-31 66l-31 -66h-30z" />
    <glyph glyph-name="scircumflex" unicode="&#x15d;" horiz-adv-x="167" 
d="M149 55q0 -28 -17.5 -43.5t-49.5 -15.5q-30 0 -47 14t-17 39v118h36v-111q0 -30 30 -30q29 0 29 30v86q0 44 -12 64l-70 116q-13 23 -13 57v71q0 26 17.5 41t48.5 15q63 0 63 -58v-87h-36v81q0 34 -28 34q-29 0 -29 -34v-68q0 -27 14 -50l65 -104q16 -25 16 -65v-100z
M22 592l46 96h30l46 -96h-30l-31 66l-31 -66h-30z" />
    <glyph glyph-name="Scedilla" unicode="&#x15e;" horiz-adv-x="209" 
d="M73 -103l2 17q12 -3 25 -3q30 0 30 23q0 17 -21 17q-12 0 -20 -3l-4 3l5 46q-71 4 -71 76v128h36v-131q0 -23 11.5 -33.5t36.5 -10.5q47 0 47 46v124q0 54 -21 93l-84 159q-26 49 -26 98v105q0 35 22.5 55t63.5 20q79 0 79 -67v-129h-36v125q0 41 -42 41q-20 0 -32 -11.5
t-12 -31.5v-112q0 -39 16 -69l82 -157q30 -58 30 -109v-136q0 -71 -81 -74l-3 -30q8 3 19 3q13 0 22 -8.5t9 -24.5q0 -19 -14.5 -31t-40.5 -12q-18 0 -28 4z" />
    <glyph glyph-name="scedilla" unicode="&#x15f;" horiz-adv-x="167" 
d="M52 -103l2 17q12 -3 25 -3q30 0 30 23q0 17 -21 17q-12 0 -20 -3l-4 3l5 46q-51 5 -51 52v118h36v-111q0 -30 30 -30q29 0 29 30v86q0 44 -12 64l-70 116q-13 23 -13 57v71q0 26 17.5 41t48.5 15q63 0 63 -58v-87h-36v81q0 34 -28 34q-29 0 -29 -34v-68q0 -27 14 -50
l65 -104q16 -25 16 -65v-100q0 -26 -16 -41.5t-45 -17.5l-3 -30q7 3 19 3q13 0 22 -8.5t9 -24.5q0 -19 -14.5 -31t-40.5 -12q-18 0 -28 4z" />
    <glyph glyph-name="Scaron" unicode="&#x160;" horiz-adv-x="209" 
d="M190 70q0 -74 -89 -74q-82 0 -82 77v128h36v-131q0 -23 11.5 -33.5t36.5 -10.5q47 0 47 46v124q0 54 -21 93l-84 159q-26 49 -26 98v105q0 35 22.5 55t63.5 20q79 0 79 -67v-129h-36v125q0 41 -42 41q-20 0 -32 -11.5t-12 -31.5v-112q0 -39 16 -69l82 -157
q30 -58 30 -109v-136zM89 767l-46 96h30l31 -66l31 66h30l-46 -96h-30z" />
    <glyph glyph-name="scaron" unicode="&#x161;" horiz-adv-x="167" 
d="M149 55q0 -28 -17.5 -43.5t-49.5 -15.5q-30 0 -47 14t-17 39v118h36v-111q0 -30 30 -30q29 0 29 30v86q0 44 -12 64l-70 116q-13 23 -13 57v71q0 26 17.5 41t48.5 15q63 0 63 -58v-87h-36v81q0 34 -28 34q-29 0 -29 -34v-68q0 -27 14 -50l65 -104q16 -25 16 -65v-100z
M68 592l-46 96h30l31 -66l31 66h30l-46 -96h-30z" />
    <glyph glyph-name="Tcommaaccent" unicode="&#x162;" horiz-adv-x="168" 
d="M175 692h-71v-692h-40v692h-71v30h182v-30zM49 -124l15 96h38l-29 -96h-24z" />
    <glyph glyph-name="tcommaaccent" unicode="&#x163;" horiz-adv-x="130" 
d="M119 -4h-30q-50 0 -50 49v427h-31v30h31v89l36 20v-109h44v-30h-44v-418q0 -28 21 -28h23v-30zM38 -124l15 96h38l-29 -96h-24z" />
    <glyph glyph-name="Tcaron" unicode="&#x164;" horiz-adv-x="168" 
d="M175 692h-71v-692h-40v692h-71v30h182v-30zM69 767l-46 96h30l31 -66l31 66h30l-46 -96h-30z" />
    <glyph glyph-name="tcaron" unicode="&#x165;" horiz-adv-x="130" 
d="M119 -4h-30q-50 0 -50 49v427h-31v30h31v89l36 20v-109h44v-30h-44v-418q0 -28 21 -28h23v-30zM108 626l15 96h38l-29 -96h-24z" />
    <glyph glyph-name="Tbar" unicode="&#x166;" horiz-adv-x="168" 
d="M64 0v356h-51v30h51v306h-71v30h182v-30h-71v-306h51v-30h-51v-356h-40z" />
    <glyph glyph-name="tbar" unicode="&#x167;" horiz-adv-x="130" 
d="M39 45v287h-31v30h31v110h-31v30h31v89l36 20v-109h44v-30h-44v-110h44v-30h-44v-278q0 -28 21 -28h23v-30h-30q-50 0 -50 49z" />
    <glyph glyph-name="Utilde" unicode="&#x168;" horiz-adv-x="241" 
d="M208 74q0 -38 -22.5 -58t-64.5 -20t-65 20.5t-23 57.5v648h40v-647q0 -23 12.5 -36t35.5 -13q47 0 47 49v647h40v-648zM45 787v5q0 20 8 37.5t28 17.5q13 0 37 -15q30 -15 36 -15q19 0 19 26v4h22v-5q0 -20 -8 -37.5t-28 -17.5q-12 0 -40 15q-24 15 -35 15q-17 0 -17 -26
v-4h-22z" />
    <glyph glyph-name="utilde" unicode="&#x169;" 
d="M171 0h-36v27h-2q-18 -31 -50 -31q-50 0 -50 59v447h36v-434q0 -42 28 -42q17 0 27.5 15.5t10.5 39.5v421h36v-502zM27 612v5q0 20 8 37.5t28 17.5q13 0 37 -15q30 -15 36 -15q19 0 19 26v4h22v-5q0 -20 -8 -37.5t-28 -17.5q-12 0 -40 15q-24 15 -35 15q-17 0 -17 -26v-4
h-22z" />
    <glyph glyph-name="Umacron" unicode="&#x16a;" horiz-adv-x="241" 
d="M208 74q0 -38 -22.5 -58t-64.5 -20t-65 20.5t-23 57.5v648h40v-647q0 -23 12.5 -36t35.5 -13q47 0 47 49v647h40v-648zM55 805v30h130v-30h-130z" />
    <glyph glyph-name="umacron" unicode="&#x16b;" 
d="M171 0h-36v27h-2q-18 -31 -50 -31q-50 0 -50 59v447h36v-434q0 -42 28 -42q17 0 27.5 15.5t10.5 39.5v421h36v-502zM37 630v30h130v-30h-130z" />
    <glyph glyph-name="Ubreve" unicode="&#x16c;" horiz-adv-x="241" 
d="M208 74q0 -38 -22.5 -58t-64.5 -20t-65 20.5t-23 57.5v648h40v-647q0 -23 12.5 -36t35.5 -13q47 0 47 49v647h40v-648zM54 842v5h22v-5q0 -14 12 -23.5t32 -9.5t32 9.5t12 23.5v5h22v-5q0 -31 -17.5 -47t-48.5 -16t-48.5 16t-17.5 47z" />
    <glyph glyph-name="ubreve" unicode="&#x16d;" 
d="M171 0h-36v27h-2q-18 -31 -50 -31q-50 0 -50 59v447h36v-434q0 -42 28 -42q17 0 27.5 15.5t10.5 39.5v421h36v-502zM36 667v5h22v-5q0 -14 12 -23.5t32 -9.5t32 9.5t12 23.5v5h22v-5q0 -31 -17.5 -47t-48.5 -16t-48.5 16t-17.5 47z" />
    <glyph glyph-name="Uring" unicode="&#x16e;" horiz-adv-x="241" 
d="M208 74q0 -38 -22.5 -58t-64.5 -20t-65 20.5t-23 57.5v648h40v-647q0 -23 12.5 -36t35.5 -13q47 0 47 49v647h40v-648zM120 754q-22 0 -38 16t-16 38q0 23 16 39t38 16t38 -16t16 -39q0 -22 -16 -38t-38 -16zM120 776q14 0 23 9t9 23t-9.5 23.5t-22.5 9.5t-22.5 -9.5
t-9.5 -23.5t9 -23t23 -9z" />
    <glyph glyph-name="uring" unicode="&#x16f;" 
d="M171 0h-36v27h-2q-18 -31 -50 -31q-50 0 -50 59v447h36v-434q0 -42 28 -42q17 0 27.5 15.5t10.5 39.5v421h36v-502zM102 579q-22 0 -38 15.5t-16 38.5t16 39t38 16t38 -16t16 -39t-16 -38.5t-38 -15.5zM102 601q14 0 23 9.5t9 22.5q0 14 -9.5 23.5t-22.5 9.5t-22.5 -9.5
t-9.5 -23.5q0 -13 9 -22.5t23 -9.5z" />
    <glyph glyph-name="Uhungarumlaut" unicode="&#x170;" horiz-adv-x="241" 
d="M208 74q0 -38 -22.5 -58t-64.5 -20t-65 20.5t-23 57.5v648h40v-647q0 -23 12.5 -36t35.5 -13q47 0 47 49v647h40v-648zM73 767l40 96h44l-58 -96h-26zM143 767l40 96h44l-58 -96h-26z" />
    <glyph glyph-name="uhungarumlaut" unicode="&#x171;" 
d="M171 0h-36v27h-2q-18 -31 -50 -31q-50 0 -50 59v447h36v-434q0 -42 28 -42q17 0 27.5 15.5t10.5 39.5v421h36v-502zM45 592l40 96h44l-58 -96h-26zM115 592l40 96h44l-58 -96h-26z" />
    <glyph glyph-name="Uogonek" unicode="&#x172;" horiz-adv-x="241" 
d="M158 -88v-18q-4 -1 -15 -1q-27 0 -43.5 11.5t-16.5 32.5q0 24 30 59q-80 5 -80 78v648h40v-647q0 -23 12.5 -36t35.5 -13q47 0 47 49v647h40v-648q0 -71 -73 -77q-26 -37 -26 -52t9 -24.5t26 -9.5q9 0 14 1z" />
    <glyph glyph-name="uogonek" unicode="&#x173;" 
d="M176 -88v-18q-4 -1 -15 -1q-27 0 -43.5 11.5t-16.5 32.5q0 26 34 63v27h-2q-18 -31 -50 -31q-50 0 -50 59v447h36v-434q0 -42 28 -42q17 0 27.5 15.5t10.5 39.5v421h36v-502h-16q-28 -39 -28 -55q0 -15 9 -24.5t26 -9.5q9 0 14 1z" />
    <glyph glyph-name="Wcircumflex" unicode="&#x174;" horiz-adv-x="333" 
d="M330 722l-54 -722h-51l-42 458q-14 145 -15 166q-3 62 -3 68h-2l-9 -127q-2 -25 -3.5 -50.5t-2.5 -39.5t-1 -19l-40 -456h-53l-51 722h36l29 -442q3 -37 13 -250h2q4 49 8.5 139.5t6.5 110.5l39 442h56l38 -442q14 -165 17 -250h2q1 28 3.5 81l4.5 95t4 74l33 442h35z
M105 767l46 96h30l46 -96h-30l-31 66l-31 -66h-30z" />
    <glyph glyph-name="wcircumflex" unicode="&#x175;" horiz-adv-x="278" 
d="M268 502l-40 -502h-45l-41 472h-2l-45 -472h-45l-40 502h36l24 -472h2l47 472h46l41 -472h2l24 472h36zM78 592l46 96h30l46 -96h-30l-31 66l-31 -66h-30z" />
    <glyph glyph-name="Ycircumflex" unicode="&#x176;" 
d="M205 722l-83 -437v-285h-40v285l-83 437h40l62 -391h2l62 391h40zM41 767l46 96h30l46 -96h-30l-31 66l-31 -66h-30z" />
    <glyph glyph-name="ycircumflex" unicode="&#x177;" horiz-adv-x="167" 
d="M162 502l-86 -686h-30l21 180l-62 506h36l42 -434h2l41 434h36zM22 592l46 96h30l46 -96h-30l-31 66l-31 -66h-30z" />
    <glyph glyph-name="Ydieresis" unicode="&#x178;" 
d="M205 722l-83 -437v-285h-40v285l-83 437h40l62 -391h2l62 391h40zM33 811v52h44v-52h-44zM127 811v52h44v-52h-44z" />
    <glyph glyph-name="Zacute" unicode="&#x179;" horiz-adv-x="167" 
d="M167 0h-167v40l122 652h-111v30h147v-40l-122 -652h131v-30zM61 767l40 96h44l-58 -96h-26z" />
    <glyph glyph-name="zacute" unicode="&#x17a;" horiz-adv-x="130" 
d="M127 0h-124v40l89 432h-83v30h118v-44l-89 -428h89v-30zM43 592l40 96h44l-58 -96h-26z" />
    <glyph glyph-name="Zdotaccent" unicode="&#x17b;" horiz-adv-x="167" 
d="M167 0h-167v40l122 652h-111v30h147v-40l-122 -652h131v-30zM61 811v52h44v-52h-44z" />
    <glyph glyph-name="zdotaccent" unicode="&#x17c;" horiz-adv-x="130" 
d="M127 0h-124v40l89 432h-83v30h118v-44l-89 -428h89v-30zM43 636v52h44v-52h-44z" />
    <glyph glyph-name="Zcaron" unicode="&#x17d;" horiz-adv-x="167" 
d="M167 0h-167v40l122 652h-111v30h147v-40l-122 -652h131v-30zM68 767l-46 96h30l31 -66l31 66h30l-46 -96h-30z" />
    <glyph glyph-name="zcaron" unicode="&#x17e;" horiz-adv-x="130" 
d="M127 0h-124v40l89 432h-83v30h118v-44l-89 -428h89v-30zM50 592l-46 96h30l31 -66l31 66h30l-46 -96h-30z" />
    <glyph glyph-name="florin" unicode="&#x192;" horiz-adv-x="224" 
d="M179 696h-14q-13 0 -18 -10t-7 -39l-10 -199h39l-1 -30h-38l-22 -476q-2 -29 -15 -40.5t-45 -11.5h-16v30h8q31 0 32 25l22 473h-40l1 30h39l10 209q2 40 16 54.5t50 14.5h9v-30z" />
    <glyph glyph-name="Aringacute" unicode="&#x1fa;" 
d="M-8 0l79 710q-23 15 -23 45q0 23 16 39t38 16t38 -16t16 -39q0 -31 -26 -46l82 -709h-40l-23 211h-99l-22 -211h-36zM54 241h92l-25 237q-8 81 -20 218h-2q-3 -28 -9 -103t-10 -115zM102 723q14 0 23 9.5t9 22.5q0 14 -9.5 23.5t-22.5 9.5t-22.5 -9.5t-9.5 -23.5
q0 -13 9 -22.5t23 -9.5zM90 827l40 96h44l-58 -96h-26z" />
    <glyph glyph-name="aringacute" unicode="&#x1fb;" horiz-adv-x="185" 
d="M160 0h-36v25h-2q-14 -29 -49 -29q-48 0 -48 45v191q0 37 19.5 53.5t63.5 16.5h16v145q0 29 -31 29q-32 0 -32 -29v-88h-36v96q0 51 72 51q63 0 63 -51v-455zM124 81v191h-10q-29 0 -41 -10.5t-12 -35.5v-177q0 -23 25 -23q17 0 27.5 15t10.5 40zM92 529q-22 0 -38 15.5
t-16 38.5t16 39t38 16t38 -16t16 -39t-16 -38.5t-38 -15.5zM92 551q14 0 23 9.5t9 22.5q0 14 -9.5 23.5t-22.5 9.5t-22.5 -9.5t-9.5 -23.5q0 -13 9 -22.5t23 -9.5zM70 662l40 96h44l-58 -96h-26z" />
    <glyph glyph-name="AEacute" unicode="&#x1fc;" horiz-adv-x="315" 
d="M0 0l128 722h174v-30h-117l16 -306h92v-30h-92l16 -326h85v-30h-118l-10 211h-102l-36 -211h-36zM76 241h94l-14 451h-2zM155 767l40 96h44l-58 -96h-26z" />
    <glyph glyph-name="aeacute" unicode="&#x1fd;" horiz-adv-x="278" 
d="M23 41v185q0 61 83 61h15v155q0 34 -30 34q-32 0 -32 -34v-83h-36v96q0 51 68 51q35 0 51 -22q16 22 46 22q67 0 67 -60v-189h-98v-197q0 -34 31 -34t31 34v107h36v-111q0 -27 -17 -43.5t-50 -16.5q-36 0 -52 28q-15 -28 -53 -28q-60 0 -60 45zM121 81v176h-9
q-27 0 -40 -8.5t-13 -33.5v-161q0 -28 25 -28q16 0 26.5 15.5t10.5 39.5zM157 287h62v155q0 34 -31 34t-31 -34v-155zM127 592l40 96h44l-58 -96h-26z" />
    <glyph glyph-name="Oslashacute" unicode="&#x1fe;" horiz-adv-x="241" 
d="M108 767l40 96h44l-58 -96h-26zM71 244h2l95 373v30q0 49 -47 49q-22 0 -35 -12.5t-13 -36.5v-341q0 -20 -2 -62zM-3 -31l36 132v547q0 37 23 57.5t65 20.5q49 0 72 -28l16 58l32 -8l-33 -122v-552q0 -38 -22.5 -58t-64.5 -20q-54 0 -76 34l-20 -69zM73 121v-46
q0 -24 13 -36.5t35 -12.5q47 0 47 49v347q0 22 2 66h-2z" />
    <glyph glyph-name="oslashacute" unicode="&#x1ff;" 
d="M80 592l40 96h44l-58 -96h-26zM69 167h2l64 264v10q0 35 -33 35t-33 -35v-274zM69 81v-20q0 -35 33 -35t33 35v278h-2zM12 -33l22 82q-1 5 -1 12v380q0 65 69 65q31 0 49 -15l13 51l28 -8l-22 -79q1 -6 1 -14v-380q0 -29 -19 -47t-50 -18q-34 0 -51 19l-15 -55z" />
    <glyph glyph-name="Scommaaccent" unicode="&#x218;" horiz-adv-x="209" 
d="M190 70q0 -74 -89 -74q-82 0 -82 77v128h36v-131q0 -23 11.5 -33.5t36.5 -10.5q47 0 47 46v124q0 54 -21 93l-84 159q-26 49 -26 98v105q0 35 22.5 55t63.5 20q79 0 79 -67v-129h-36v125q0 41 -42 41q-20 0 -32 -11.5t-12 -31.5v-112q0 -39 16 -69l82 -157
q30 -58 30 -109v-136zM68 -124l15 96h38l-29 -96h-24z" />
    <glyph glyph-name="scommaaccent" unicode="&#x219;" horiz-adv-x="167" 
d="M149 55q0 -28 -17.5 -43.5t-49.5 -15.5q-30 0 -47 14t-17 39v118h36v-111q0 -30 30 -30q29 0 29 30v86q0 44 -12 64l-70 116q-13 23 -13 57v71q0 26 17.5 41t48.5 15q63 0 63 -58v-87h-36v81q0 34 -28 34q-29 0 -29 -34v-68q0 -27 14 -50l65 -104q16 -25 16 -65v-100z
M52 -124l15 96h38l-29 -96h-24z" />
    <glyph glyph-name="uni021A" unicode="&#x21a;" horiz-adv-x="168" 
d="M175 692h-71v-692h-40v692h-71v30h182v-30zM49 -124l15 96h38l-29 -96h-24z" />
    <glyph glyph-name="uni021B" unicode="&#x21b;" horiz-adv-x="130" 
d="M119 -4h-30q-50 0 -50 49v427h-31v30h31v89l36 20v-109h44v-30h-44v-418q0 -28 21 -28h23v-30zM38 -124l15 96h38l-29 -96h-24z" />
    <glyph glyph-name="dotlessj" unicode="&#x237;" horiz-adv-x="94" 
d="M1 -184v26h8q20 0 20 27v633h36v-641q0 -45 -37 -45h-27z" />
    <glyph glyph-name="circumflex" unicode="&#x2c6;" horiz-adv-x="94" 
d="M-14 592l46 96h30l46 -96h-30l-31 66l-31 -66h-30z" />
    <glyph glyph-name="caron" unicode="&#x2c7;" horiz-adv-x="94" 
d="M32 592l-46 96h30l31 -66l31 66h30l-46 -96h-30z" />
    <glyph glyph-name="uni02C9" unicode="&#x2c9;" horiz-adv-x="94" 
d="M-18 630v30h130v-30h-130z" />
    <glyph glyph-name="breve" unicode="&#x2d8;" horiz-adv-x="94" 
d="M-19 667v5h22v-5q0 -14 12 -23.5t32 -9.5t32 9.5t12 23.5v5h22v-5q0 -31 -17.5 -47t-48.5 -16t-48.5 16t-17.5 47z" />
    <glyph glyph-name="dotaccent" unicode="&#x2d9;" horiz-adv-x="94" 
d="M25 636v52h44v-52h-44z" />
    <glyph glyph-name="ring" unicode="&#x2da;" horiz-adv-x="94" 
d="M47 579q-23 0 -38.5 15.5t-15.5 38.5t16 39t38 16t38 -16t16 -39t-15.5 -38.5t-38.5 -15.5zM47 601q13 0 22.5 9.5t9.5 22.5q0 14 -9.5 23.5t-22.5 9.5t-22.5 -9.5t-9.5 -23.5q0 -13 9.5 -22.5t22.5 -9.5z" />
    <glyph glyph-name="ogonek" unicode="&#x2db;" horiz-adv-x="94" 
d="M86 -88v-18q-4 -1 -15 -1q-27 0 -43.5 11.5t-16.5 32.5q0 25 37 67h20l-9 -12.5l-9 -12.5t-6.5 -10.5t-5 -12t-1.5 -11.5q0 -15 9 -24.5t26 -9.5q9 0 14 1z" />
    <glyph glyph-name="tilde" unicode="&#x2dc;" horiz-adv-x="94" 
d="M-28 612v5q0 20 8 37.5t28 17.5q13 0 37 -15q30 -15 36 -15q19 0 19 26v4h22v-5q0 -20 -8 -37.5t-28 -17.5q-12 0 -40 15q-24 15 -35 15q-17 0 -17 -26v-4h-22z" />
    <glyph glyph-name="hungarumlaut" unicode="&#x2dd;" horiz-adv-x="94" 
d="M-30 592l40 96h44l-58 -96h-26zM40 592l40 96h44l-58 -96h-26z" />
    <glyph glyph-name="uni0394" unicode="&#x394;" 
d="M214 0h-224l84 722h52zM169 29l-69 649l-67 -649h136z" />
    <glyph glyph-name="uni03A9" unicode="&#x3a9;" horiz-adv-x="241" 
d="M24 0v30h49v75q-42 22 -42 69v474q0 37 23 57.5t66 20.5t66 -20.5t23 -57.5v-474q0 -47 -42 -69v-75h49v-30h-81v128q14 1 24 16.5t10 30.5v472q0 23 -12.5 36t-35.5 13q-50 0 -50 -49v-472q0 -15 10 -30.5t24 -16.5v-128h-81z" />
    <glyph glyph-name="uni03BC" unicode="&#x3bc;" 
d="M171 0h-36v27h-2q-15 -31 -39 -31q-17 0 -29 12h-2q0 -3 0.5 -9.5t1.5 -15.5q4 -48 4 -55v-112h-36v686h36v-424q0 -29 6 -40.5t22 -11.5q17 0 27.5 15.5t10.5 39.5v421h36v-502z" />
    <glyph glyph-name="pi" unicode="&#x3c0;" horiz-adv-x="235" 
d="M222 32v-30q-15 -6 -31 -6q-22 0 -32.5 12.5t-12 26.5t-1.5 46v389h-56v-470h-36v470h-40v32h209v-32h-41v-384q0 -57 18 -57q15 0 23 3z" />
    <glyph glyph-name="uni0400" unicode="&#x400;" horiz-adv-x="185" 
d="M33 0v722h137v-30h-97v-306h91v-30h-91v-326h104v-30h-144zM98 767l-58 96h44l40 -96h-26z" />
    <glyph glyph-name="afii10023" unicode="&#x401;" horiz-adv-x="185" 
d="M33 0v722h137v-30h-97v-306h91v-30h-91v-326h104v-30h-144zM27 811v52h44v-52h-44zM121 811v52h44v-52h-44z" />
    <glyph glyph-name="afii10051" unicode="&#x402;" horiz-adv-x="256" 
d="M64 0v692h-71v30h182v-30h-71v-303q19 8 48 8q82 0 82 -68v-261q0 -68 -82 -68h-11v30h11q42 0 42 49v239q0 49 -42 49q-30 0 -48 -9v-358h-40z" />
    <glyph glyph-name="afii10052" unicode="&#x403;" horiz-adv-x="163" 
d="M33 0v722h137v-30h-97v-692h-40zM70 767l40 96h44l-58 -96h-26z" />
    <glyph glyph-name="afii10053" unicode="&#x404;" horiz-adv-x="222" 
d="M118 -4q-40 0 -62.5 20.5t-22.5 57.5v574q0 37 22.5 57.5t62.5 20.5q81 0 81 -78v-119h-40v113q0 54 -41 54q-21 0 -33 -12t-12 -33v-265h98v-30h-98v-285q0 -21 12 -33t33 -12q23 0 32 12.5t9 41.5v123h40v-129q0 -78 -81 -78z" />
    <glyph glyph-name="afii10054" unicode="&#x405;" horiz-adv-x="209" 
d="M101 -4q-82 0 -82 77v128h36v-131q0 -23 11.5 -33.5t36.5 -10.5q47 0 47 46v124q0 54 -21 93l-84 159q-26 49 -26 98v105q0 35 22.5 55t63.5 20q79 0 79 -67v-129h-36v125q0 41 -42 41q-20 0 -32 -11.5t-12 -31.5v-112q0 -39 16 -69l82 -157q30 -58 30 -109v-136
q0 -74 -89 -74z" />
    <glyph glyph-name="afii10055" unicode="&#x406;" horiz-adv-x="112" 
d="M36 0v722h40v-722h-40z" />
    <glyph glyph-name="afii10056" unicode="&#x407;" horiz-adv-x="112" 
d="M36 0v722h40v-722h-40zM-13 811v52h44v-52h-44zM81 811v52h44v-52h-44z" />
    <glyph glyph-name="afii10057" unicode="&#x408;" horiz-adv-x="185" 
d="M77 -4q-34 0 -54.5 20t-20.5 54v123h40v-122q0 -24 8.5 -34.5t27.5 -10.5q34 0 34 45v651h40v-652q0 -34 -20.5 -54t-54.5 -20z" />
    <glyph glyph-name="afii10058" unicode="&#x409;" horiz-adv-x="365" 
d="M-6 0v30h19q13 0 20.5 7t13 36t5.5 82v567h156v-326h50q44 0 64.5 -18.5t20.5 -62.5v-238q0 -39 -21 -58t-57 -19h-97v692h-77v-545q0 -89 -19 -118t-59 -29h-19zM208 30h41q29 0 41.5 10.5t12.5 33.5v240q0 28 -12.5 40t-39.5 12h-43v-336z" />
    <glyph glyph-name="afii10059" unicode="&#x40a;" horiz-adv-x="365" 
d="M33 0v722h40v-336h95v336h40v-336h50q44 0 64.5 -18.5t20.5 -62.5v-228q0 -39 -21 -58t-57 -19h-97v356h-95v-356h-40zM208 30h41q29 0 41.5 10.5t12.5 33.5v230q0 28 -12.5 40t-39.5 12h-43v-326z" />
    <glyph glyph-name="afii10060" unicode="&#x40b;" horiz-adv-x="256" 
d="M64 0v692h-71v30h182v-30h-71v-303q19 8 48 8q82 0 82 -68v-329h-40v318q0 49 -42 49q-30 0 -48 -9v-358h-40z" />
    <glyph glyph-name="afii10061" unicode="&#x40c;" 
d="M33 0v722h40v-722h-40zM178 0l-105 382l99 340h36l-99 -340l109 -382h-40zM90 767l40 96h44l-58 -96h-26z" />
    <glyph glyph-name="uni040D" unicode="&#x40d;" horiz-adv-x="241" 
d="M33 0v722h40v-327q0 -67 -10 -332h2q3 31 14 116l11 85l65 458h53v-722h-40v349q0 63 5 178t5 145h-2q-7 -79 -19 -166l-71 -506h-53zM116 767l-58 96h44l40 -96h-26z" />
    <glyph glyph-name="afii10062" unicode="&#x40e;" 
d="M50 0l32 199l-87 523h41l48 -316q4 -28 10 -80.5t8 -64.5h2q11 107 17 144l47 317h41l-124 -722h-35zM102 794q-31 0 -48.5 16t-17.5 47v5h22v-5q0 -14 12 -23.5t32 -9.5t32 9.5t12 23.5v5h22v-5q0 -31 -17.5 -47t-48.5 -16z" />
    <glyph glyph-name="afii10145" unicode="&#x40f;" horiz-adv-x="241" 
d="M101 -115v115h-68v722h40v-692h95v692h40v-722h-67v-115h-40z" />
    <glyph glyph-name="afii10017" unicode="&#x410;" horiz-adv-x="214" 
d="M-3 0l81 722h56l83 -722h-40l-23 211h-99l-22 -211h-36zM59 241h92l-25 237q-8 81 -20 218h-2q-3 -28 -9 -103t-10 -115z" />
    <glyph glyph-name="afii10018" unicode="&#x411;" horiz-adv-x="231" 
d="M33 0v722h160v-30h-120v-306h50q44 0 64.5 -18.5t20.5 -62.5v-228q0 -39 -21 -58t-57 -19h-97zM73 30h41q29 0 41.5 10.5t12.5 33.5v230q0 28 -12.5 40t-39.5 12h-43v-326z" />
    <glyph glyph-name="afii10019" unicode="&#x412;" horiz-adv-x="241" 
d="M33 0v722h86q84 0 84 -77v-210q0 -55 -63 -61v-2q37 -3 52.5 -18t15.5 -49v-228q0 -37 -20.5 -57t-57.5 -20h-97zM73 30h41q54 0 54 44v230q0 52 -52 52h-43v-326zM73 386h43q47 0 47 51v210q0 25 -10.5 35t-38.5 10h-41v-306z" />
    <glyph glyph-name="afii10020" unicode="&#x413;" horiz-adv-x="163" 
d="M33 0v722h137v-30h-97v-692h-40z" />
    <glyph glyph-name="afii10021" unicode="&#x414;" horiz-adv-x="271" 
d="M1 -115v145h17q30 48 43.5 144.5t13.5 308.5v239h154v-692h32v-145h-40v115h-180v-115h-40zM64 30h125v662h-74v-209q0 -202 -12 -302.5t-39 -150.5z" />
    <glyph glyph-name="afii10022" unicode="&#x415;" horiz-adv-x="185" 
d="M33 0v722h137v-30h-97v-306h91v-30h-91v-326h104v-30h-144z" />
    <glyph glyph-name="afii10024" unicode="&#x416;" horiz-adv-x="312" 
d="M-9 0l109 382l-99 340h36l99 -340l-105 -382h-40zM136 0v722h40v-722h-40zM281 0l-105 382l99 340h36l-99 -340l109 -382h-40z" />
    <glyph glyph-name="afii10025" unicode="&#x417;" horiz-adv-x="222" 
d="M102 -4q-79 0 -79 77v128h40v-128q0 -47 37 -47q49 0 49 48v230q0 31 -11 41.5t-40 10.5h-29v30h27q26 0 39.5 12t13.5 47v206q0 21 -13 33t-34 12q-39 0 -39 -54v-113h-40v119q0 78 79 78q40 0 63.5 -20.5t23.5 -57.5v-214q0 -46 -54 -61v-2q54 -7 54 -67v-231
q0 -37 -24 -57t-63 -20z" />
    <glyph glyph-name="afii10026" unicode="&#x418;" horiz-adv-x="241" 
d="M33 0v722h40v-327q0 -67 -10 -332h2q3 31 14 116l11 85l65 458h53v-722h-40v349q0 63 5 178t5 145h-2q-7 -79 -19 -166l-71 -506h-53z" />
    <glyph glyph-name="afii10027" unicode="&#x419;" horiz-adv-x="241" 
d="M33 0v722h40v-327q0 -67 -10 -332h2q3 31 14 116l11 85l65 458h53v-722h-40v349q0 63 5 178t5 145h-2q-7 -79 -19 -166l-71 -506h-53zM53 857v5h22v-5q0 -14 12 -23.5t32 -9.5t32 9.5t12 23.5v5h22v-5q0 -31 -17.5 -47t-48.5 -16t-48.5 16t-17.5 47z" />
    <glyph glyph-name="afii10028" unicode="&#x41a;" 
d="M33 0v722h40v-722h-40zM178 0l-105 382l99 340h36l-99 -340l109 -382h-40z" />
    <glyph glyph-name="afii10029" unicode="&#x41b;" horiz-adv-x="241" 
d="M-6 0v30h19q13 0 20.5 7t13 36t5.5 82v567h156v-722h-40v692h-77v-545q0 -89 -19 -118t-59 -29h-19z" />
    <glyph glyph-name="afii10030" unicode="&#x41c;" horiz-adv-x="333" 
d="M36 0v722h66l44 -435q14 -130 18 -257h2q10 172 19 257l46 435h66v-722h-40v448q0 46 2 131.5t2 112.5h-2l-28 -286l-40 -406h-50l-41 402q-14 139 -26 290h-2q0 -25 2 -116t2 -138v-438h-40z" />
    <glyph glyph-name="afii10031" unicode="&#x41d;" horiz-adv-x="241" 
d="M33 0v722h40v-336h95v336h40v-722h-40v356h-95v-356h-40z" />
    <glyph glyph-name="afii10032" unicode="&#x41e;" horiz-adv-x="241" 
d="M121 -4q-42 0 -65 20.5t-23 57.5v574q0 37 23 57.5t66 20.5q41 0 63.5 -20.5t22.5 -57.5v-574q0 -38 -22.5 -58t-64.5 -20zM121 26q47 0 47 49v572q0 49 -47 49q-23 0 -35.5 -13t-12.5 -36v-572q0 -23 12.5 -36t35.5 -13z" />
    <glyph glyph-name="afii10033" unicode="&#x41f;" horiz-adv-x="241" 
d="M33 0v722h175v-722h-40v692h-95v-692h-40z" />
    <glyph glyph-name="afii10034" unicode="&#x420;" horiz-adv-x="222" 
d="M33 0v722h90q82 0 82 -69v-236q0 -32 -22 -50.5t-60 -18.5h-50v-348h-40zM73 378h43q49 0 49 43v226q0 45 -49 45h-43v-314z" />
    <glyph glyph-name="afii10035" unicode="&#x421;" horiz-adv-x="222" 
d="M117 -4q-40 0 -62 20.5t-22 57.5v574q0 37 22.5 57.5t62.5 20.5q39 0 60 -20t21 -58v-119h-40v113q0 54 -42 54q-20 0 -32 -12t-12 -33v-580q0 -21 12 -33t34 -12t31 12.5t9 41.5v123h40v-129q0 -78 -82 -78z" />
    <glyph glyph-name="afii10036" unicode="&#x422;" horiz-adv-x="168" 
d="M64 0v692h-71v30h182v-30h-71v-692h-40z" />
    <glyph glyph-name="afii10037" unicode="&#x423;" 
d="M50 0l32 199l-87 523h41l48 -316q4 -28 10 -80.5t8 -64.5h2q11 107 17 144l47 317h41l-124 -722h-35z" />
    <glyph glyph-name="afii10038" unicode="&#x424;" horiz-adv-x="339" 
d="M150 0v79h-44q-39 0 -60.5 22.5t-21.5 56.5v428q0 34 21.5 56.5t60.5 22.5h44v57h40v-57h44q39 0 60.5 -22.5t21.5 -56.5v-428q0 -34 -21.5 -56.5t-60.5 -22.5h-44v-79h-40zM113 109h37v526h-37q-49 0 -49 -45v-436q0 -45 49 -45zM190 109h37q49 0 49 45v436q0 45 -49 45
h-37v-526z" />
    <glyph glyph-name="afii10039" unicode="&#x425;" 
d="M-5 0l81 376l-74 346h40l60 -318h2l64 318h36l-76 -346l81 -376h-40l-65 348h-2l-71 -348h-36z" />
    <glyph glyph-name="afii10040" unicode="&#x426;" horiz-adv-x="250" 
d="M200 -115v115h-167v722h40v-692h95v692h40v-692h32v-145h-40z" />
    <glyph glyph-name="afii10041" unicode="&#x427;" horiz-adv-x="230" 
d="M157 0v343q-19 -8 -48 -8q-82 0 -82 78v309h40v-308q0 -49 42 -49q30 0 48 9v348h40v-722h-40z" />
    <glyph glyph-name="afii10042" unicode="&#x428;" horiz-adv-x="348" 
d="M33 0v722h40v-692h81v692h40v-692h81v692h40v-722h-282z" />
    <glyph glyph-name="afii10043" unicode="&#x429;" horiz-adv-x="357" 
d="M307 -115v115h-274v722h40v-692h81v692h40v-692h81v692h40v-692h32v-145h-40z" />
    <glyph glyph-name="afii10044" unicode="&#x42a;" horiz-adv-x="270" 
d="M73 0v692h-73v30h113v-326h50q44 0 64.5 -18.5t20.5 -62.5v-238q0 -39 -21 -58t-57 -19h-97zM113 30h41q29 0 41.5 10.5t12.5 33.5v240q0 28 -12.5 40t-39.5 12h-43v-336z" />
    <glyph glyph-name="afii10045" unicode="&#x42b;" horiz-adv-x="311" 
d="M33 0v722h40v-326h50q44 0 64.5 -18.5t20.5 -62.5v-238q0 -39 -21 -58t-57 -19h-97zM73 30h41q29 0 41.5 10.5t12.5 33.5v240q0 28 -12.5 40t-39.5 12h-43v-336zM238 0v722h40v-722h-40z" />
    <glyph glyph-name="afii10046" unicode="&#x42c;" horiz-adv-x="230" 
d="M33 0v722h40v-326h50q44 0 64.5 -18.5t20.5 -62.5v-238q0 -39 -21 -58t-57 -19h-97zM73 30h41q29 0 41.5 10.5t12.5 33.5v240q0 28 -12.5 40t-39.5 12h-43v-336z" />
    <glyph glyph-name="afii10047" unicode="&#x42d;" horiz-adv-x="222" 
d="M104 -4q-81 0 -81 78v129h40v-123q0 -29 9 -41.5t32 -12.5q21 0 33 12t12 33v285h-98v30h98v265q0 21 -12 33t-33 12q-41 0 -41 -54v-113h-40v119q0 78 81 78q40 0 62.5 -20.5t22.5 -57.5v-574q0 -37 -22.5 -57.5t-62.5 -20.5z" />
    <glyph glyph-name="afii10048" unicode="&#x42e;" horiz-adv-x="333" 
d="M216 -4q-42 0 -65 20.5t-23 57.5v282h-55v-356h-40v722h40v-336h55v262q0 37 23 57.5t65 20.5t64.5 -20t22.5 -58v-574q0 -38 -22.5 -58t-64.5 -20zM216 26q47 0 47 49v572q0 49 -47 49q-22 0 -35 -12.5t-13 -36.5v-572q0 -24 13 -36.5t35 -12.5z" />
    <glyph glyph-name="afii10049" unicode="&#x42f;" horiz-adv-x="238" 
d="M33 0v304q0 60 62 65v2q-36 3 -49 20.5t-13 50.5v213q0 33 22.5 50t59.5 17h90v-722h-40v356h-37q-28 0 -41.5 -15t-13.5 -37v-304h-40zM126 386h39v306h-43q-49 0 -49 -45v-213q0 -48 53 -48z" />
    <glyph glyph-name="afii10065" unicode="&#x430;" horiz-adv-x="193" 
d="M73 -4q-48 0 -48 45v191q0 37 19.5 53.5t63.5 16.5h16v145q0 29 -31 29q-32 0 -32 -29v-88h-36v96q0 51 72 51q63 0 63 -51v-455h-36v25h-2q-14 -29 -49 -29zM86 26q17 0 27.5 15t10.5 40v191h-10q-29 0 -41 -10.5t-12 -35.5v-177q0 -23 25 -23z" />
    <glyph glyph-name="afii10066" unicode="&#x431;" 
d="M102 -4q-31 0 -50 18t-19 47v510q0 54 14 80.5t46 36.5q16 5 23 8t12.5 8t6.5 13h36q-1 -15 -4 -24t-13.5 -15.5t-17.5 -9.5t-28 -10q-39 -15 -39 -82v-95h2q13 25 47 25q53 0 53 -59v-386q0 -29 -19 -47t-50 -18zM102 26q33 0 33 35v381q0 34 -32 34q-16 0 -25 -13
t-9 -33v-369q0 -35 33 -35z" />
    <glyph glyph-name="afii10067" unicode="&#x432;" horiz-adv-x="201" 
d="M33 0v502h62q68 0 68 -60v-138q0 -17 -13 -29t-29 -12v-2q17 0 32 -14t15 -33v-154q0 -27 -17 -43.5t-51 -16.5h-67zM69 30h31q32 0 32 34v146q0 17 -7.5 25.5t-29.5 8.5h-26v-214zM69 274h26q32 0 32 34v130q0 34 -32 34h-26v-198z" />
    <glyph glyph-name="afii10068" unicode="&#x433;" horiz-adv-x="150" 
d="M33 0v502h122v-30h-86v-472h-36z" />
    <glyph glyph-name="afii10069" unicode="&#x434;" horiz-adv-x="226" 
d="M0 -95v125h19q41 77 41 198v274h129v-472h27v-125h-36v95h-144v-95h-36zM57 30h96v442h-58v-244q0 -117 -38 -198z" />
    <glyph glyph-name="afii10070" unicode="&#x435;" horiz-adv-x="193" 
d="M99 -4q-31 0 -48.5 16t-17.5 44v390q0 60 69 60q66 0 66 -60v-202h-99v-184q0 -34 32 -34q31 0 31 34v107h36v-111q0 -29 -18 -44.5t-51 -15.5zM69 274h63v168q0 34 -32 34q-31 0 -31 -34v-168z" />
    <glyph glyph-name="afii10072" unicode="&#x436;" horiz-adv-x="268" 
d="M2 0l76 261l-73 241h36l75 -244l-78 -258h-36zM116 0v502h36v-502h-36zM230 0l-78 258l75 244h36l-73 -241l76 -261h-36z" />
    <glyph glyph-name="afii10073" unicode="&#x437;" horiz-adv-x="185" 
d="M87 -4q-29 0 -46.5 14t-17.5 39v118h36v-111q0 -30 30 -30q29 0 29 30v136q0 31 -11 41.5t-40 10.5h-11v30h12q25 0 36.5 12t11.5 47v109q0 34 -29 34q-28 0 -28 -34v-91h-36v97q0 58 64 58q32 0 48.5 -15.5t16.5 -40.5v-127q0 -53 -44 -61v-2q46 -6 46 -67v-138
q0 -27 -17.5 -43t-49.5 -16z" />
    <glyph glyph-name="afii10074" unicode="&#x438;" horiz-adv-x="209" 
d="M33 0v502h36v-238q0 -40 -2.5 -93t-4.5 -85l-2 -33h2q7 74 15 124l53 325h46v-502h-36v212q0 44 2 103.5t4 96.5l3 37h-2q-4 -58 -13 -106l-55 -343h-46z" />
    <glyph glyph-name="afii10075" unicode="&#x439;" horiz-adv-x="209" 
d="M33 0v502h36v-238q0 -40 -2.5 -93t-4.5 -85l-2 -33h2q7 74 15 124l53 325h46v-502h-36v212q0 44 2 103.5t4 96.5l3 37h-2q-4 -58 -13 -106l-55 -343h-46zM104 618q-31 0 -48.5 16t-17.5 47v5h22v-5q0 -14 12 -23.5t32 -9.5t32 9.5t12 23.5v5h22v-5q0 -31 -17.5 -47
t-48.5 -16z" />
    <glyph glyph-name="afii10076" unicode="&#x43a;" horiz-adv-x="185" 
d="M33 0v502h36v-502h-36zM147 0l-78 258l75 244h36l-73 -241l76 -261h-36z" />
    <glyph glyph-name="afii10077" unicode="&#x43b;" horiz-adv-x="209" 
d="M-4 0v30h14q13 0 20 7.5t12 35.5t5 82v347h129v-502h-36v472h-58v-325q0 -89 -17.5 -118t-57.5 -29h-11z" />
    <glyph glyph-name="afii10078" unicode="&#x43c;" horiz-adv-x="277" 
d="M33 0v502h55l52 -462h2l47 462h55v-502h-36v203l6 249h-2l-47 -452h-48l-52 452h-2q6 -144 6 -249v-203h-36z" />
    <glyph glyph-name="afii10079" unicode="&#x43d;" 
d="M33 0v502h36v-228h66v228h36v-502h-36v244h-66v-244h-36z" />
    <glyph glyph-name="afii10080" unicode="&#x43e;" 
d="M102 -4q-31 0 -50 18t-19 47v380q0 65 69 65t69 -65v-380q0 -29 -19 -47t-50 -18zM102 26q33 0 33 35v380q0 35 -33 35t-33 -35v-380q0 -35 33 -35z" />
    <glyph glyph-name="afii10081" unicode="&#x43f;" 
d="M33 0v502h138v-502h-36v472h-66v-472h-36z" />
    <glyph glyph-name="afii10082" unicode="&#x440;" 
d="M33 -184v686h36v-21h2q15 25 48 25q52 0 52 -59v-388q0 -63 -55 -63q-31 0 -45 23h-2v-203h-36zM135 61v381q0 34 -31 34q-15 0 -25 -13t-10 -33v-369q0 -15 10.5 -25t26.5 -10q29 0 29 35z" />
    <glyph glyph-name="afii10083" unicode="&#x441;" horiz-adv-x="185" 
d="M96 -4q-63 0 -63 60v390q0 60 67 60q62 0 62 -60v-101h-36v97q0 34 -29 34q-28 0 -28 -34v-387q0 -29 30 -29q27 0 27 27v115h36v-112q0 -60 -66 -60z" />
    <glyph glyph-name="afii10084" unicode="&#x442;" horiz-adv-x="160" 
d="M62 0v472h-64v30h164v-30h-64v-472h-36z" />
    <glyph glyph-name="afii10085" unicode="&#x443;" horiz-adv-x="167" 
d="M46 -184l21 180l-62 506h36l42 -434h2l41 434h36l-86 -686h-30z" />
    <glyph glyph-name="afii10086" unicode="&#x444;" horiz-adv-x="286" 
d="M125 -184v197h-2q-17 -13 -35 -13q-24 0 -39.5 17t-15.5 46v380q0 28 14.5 43.5t38.5 15.5q28 0 38 -15h1v227h36v-227h1q15 15 38 15q24 0 38.5 -15.5t14.5 -43.5v-380q0 -29 -15.5 -46t-39.5 -17q-18 0 -35 13h-2v-197h-36zM98 30q9 0 18 5t9 13v406q0 16 -24 18
q-13 1 -22.5 -8.5t-9.5 -25.5v-373q0 -35 29 -35zM188 30q29 0 29 35v373q0 15 -9 24.5t-23 9.5q-8 0 -16 -5.5t-8 -12.5v-406q0 -8 9 -13t18 -5z" />
    <glyph glyph-name="afii10087" unicode="&#x445;" horiz-adv-x="167" 
d="M6 0l53 259l-53 243h36l40 -211h2l42 211h30l-50 -243l55 -259h-36l-41 234h-2l-46 -234h-30z" />
    <glyph glyph-name="afii10088" unicode="&#x446;" horiz-adv-x="208" 
d="M162 -95v95h-129v502h36v-472h66v472h36v-472h27v-125h-36z" />
    <glyph glyph-name="afii10089" unicode="&#x447;" horiz-adv-x="185" 
d="M116 0v228q-16 -8 -38 -8q-27 0 -42.5 14t-15.5 39v229h36v-222q0 -30 24 -30q17 0 36 8v244h36v-502h-36z" />
    <glyph glyph-name="afii10090" unicode="&#x448;" horiz-adv-x="296" 
d="M33 0v502h36v-472h61v472h36v-472h61v472h36v-502h-230z" />
    <glyph glyph-name="afii10091" unicode="&#x449;" horiz-adv-x="300" 
d="M254 -95v95h-221v502h36v-472h61v472h36v-472h61v472h36v-472h27v-125h-36z" />
    <glyph glyph-name="afii10092" unicode="&#x44a;" horiz-adv-x="219" 
d="M62 0v472h-64v30h100v-216h49q53 0 53 -59v-164q0 -29 -14.5 -46t-40.5 -17h-83zM98 30h37q29 0 29 35v157q0 34 -32 34h-34v-226z" />
    <glyph glyph-name="afii10093" unicode="&#x44b;" horiz-adv-x="274" 
d="M33 0v502h36v-216h49q53 0 53 -59v-164q0 -29 -14.5 -46t-40.5 -17h-83zM69 30h37q29 0 29 35v157q0 34 -32 34h-34v-226zM205 0v502h36v-502h-36z" />
    <glyph glyph-name="afii10094" unicode="&#x44c;" horiz-adv-x="190" 
d="M33 0v502h36v-216h49q53 0 53 -59v-164q0 -29 -14.5 -46t-40.5 -17h-83zM69 30h37q29 0 29 35v157q0 34 -32 34h-34v-226z" />
    <glyph glyph-name="afii10095" unicode="&#x44d;" horiz-adv-x="185" 
d="M87 -4q-64 0 -64 60v102h36v-105q0 -27 28 -27q29 0 29 29v189h-72v30h72v168q0 34 -29 34q-28 0 -28 -34v-87h-36v91q0 60 64 60q65 0 65 -60v-390q0 -60 -65 -60z" />
    <glyph glyph-name="afii10096" unicode="&#x44e;" horiz-adv-x="280" 
d="M178 -4q-31 0 -50 18t-19 47v183h-40v-244h-36v502h36v-228h40v167q0 65 69 65t69 -65v-380q0 -29 -19 -47t-50 -18zM178 26q33 0 33 35v380q0 35 -33 35t-33 -35v-380q0 -35 33 -35z" />
    <glyph glyph-name="afii10097" unicode="&#x44f;" 
d="M33 0v208q0 24 14 36t29 12v2q-14 0 -28.5 17t-14.5 36v128q0 29 14.5 46t40.5 17h83v-502h-36v242h-29q-37 0 -37 -34v-208h-36zM101 272h34v200h-37q-29 0 -29 -35v-131q0 -34 32 -34z" />
    <glyph glyph-name="uni0450" unicode="&#x450;" horiz-adv-x="193" 
d="M99 -4q-31 0 -48.5 16t-17.5 44v390q0 60 69 60q66 0 66 -60v-202h-99v-184q0 -34 32 -34q31 0 31 34v107h36v-111q0 -29 -18 -44.5t-51 -15.5zM69 274h63v168q0 34 -32 34q-31 0 -31 -34v-168zM92 592l-58 96h44l40 -96h-26z" />
    <glyph glyph-name="afii10071" unicode="&#x451;" horiz-adv-x="193" 
d="M99 -4q-31 0 -48.5 16t-17.5 44v390q0 60 69 60q66 0 66 -60v-202h-99v-184q0 -34 32 -34q31 0 31 34v107h36v-111q0 -29 -18 -44.5t-51 -15.5zM69 274h63v168q0 34 -32 34q-31 0 -31 -34v-168zM27 636v52h44v-52h-44zM121 636v52h44v-52h-44z" />
    <glyph glyph-name="afii10099" unicode="&#x452;" 
d="M96 -184v30h11q16 0 23 9t7 33v546q0 24 -7 33t-23 9q-14 0 -25 -14.5t-11 -40.5v-421h-36v596h-43v30h43v96h36v-96h77v-30h-77v-121h2q5 11 18 21t29 10q27 0 40 -13.5t13 -45.5v-572q0 -32 -13 -45.5t-40 -13.5h-24z" />
    <glyph glyph-name="afii10100" unicode="&#x453;" horiz-adv-x="150" 
d="M33 0v502h122v-30h-86v-472h-36zM53 592l40 96h44l-58 -96h-26z" />
    <glyph glyph-name="afii10101" unicode="&#x454;" horiz-adv-x="181" 
d="M98 -4q-65 0 -65 60v390q0 60 65 60q64 0 64 -60v-91h-36v87q0 34 -28 34q-29 0 -29 -34v-168h72v-30h-72v-189q0 -29 29 -29q28 0 28 27v105h36v-102q0 -60 -64 -60z" />
    <glyph glyph-name="afii10102" unicode="&#x455;" horiz-adv-x="167" 
d="M82 -4q-30 0 -47 14t-17 39v118h36v-111q0 -30 30 -30q29 0 29 30v86q0 44 -12 64l-70 116q-13 23 -13 57v71q0 26 17.5 41t48.5 15q63 0 63 -58v-87h-36v81q0 34 -28 34q-29 0 -29 -34v-68q0 -27 14 -50l65 -104q16 -25 16 -65v-100q0 -28 -17.5 -43.5t-49.5 -15.5z" />
    <glyph glyph-name="afii10103" unicode="&#x456;" horiz-adv-x="94" 
d="M29 0v502h36v-502h-36zM25 636v52h44v-52h-44z" />
    <glyph glyph-name="afii10104" unicode="&#x457;" horiz-adv-x="94" 
d="M29 0v502h36v-502h-36zM-22 636v52h44v-52h-44zM72 636v52h44v-52h-44z" />
    <glyph glyph-name="afii10105" unicode="&#x458;" horiz-adv-x="94" 
d="M1 -184v26h8q20 0 20 27v633h36v-641q0 -45 -37 -45h-27zM25 636v52h44v-52h-44z" />
    <glyph glyph-name="afii10106" unicode="&#x459;" horiz-adv-x="297" 
d="M-4 0v30h14q13 0 20 7.5t12 35.5t5 82v347h129v-216h49q53 0 53 -59v-164q0 -29 -14.5 -46t-40.5 -17h-83v472h-58v-325q0 -89 -17.5 -118t-57.5 -29h-11zM176 30h37q29 0 29 35v157q0 34 -32 34h-34v-226z" />
    <glyph glyph-name="afii10107" unicode="&#x45a;" horiz-adv-x="292" 
d="M33 0v502h36v-228h66v228h36v-228h49q53 0 53 -59v-152q0 -29 -14.5 -46t-40.5 -17h-83v244h-66v-244h-36zM171 30h37q29 0 29 35v145q0 34 -32 34h-34v-214z" />
    <glyph glyph-name="afii10108" unicode="&#x45b;" 
d="M35 0v596h-43v30h43v96h36v-96h77v-30h-77v-121h2q5 11 18 21t29 10q27 0 40 -13.5t13 -45.5v-447h-36v434q0 24 -7 33t-23 9q-14 0 -25 -14.5t-11 -40.5v-421h-36z" />
    <glyph glyph-name="afii10109" unicode="&#x45c;" horiz-adv-x="185" 
d="M33 0v502h36v-502h-36zM147 0l-78 258l75 244h36l-73 -241l76 -261h-36zM80 592l40 96h44l-58 -96h-26z" />
    <glyph glyph-name="uni045D" unicode="&#x45d;" horiz-adv-x="209" 
d="M33 0v502h36v-238q0 -40 -2.5 -93t-4.5 -85l-2 -33h2q7 74 15 124l53 325h46v-502h-36v212q0 44 2 103.5t4 96.5l3 37h-2q-4 -58 -13 -106l-55 -343h-46zM100 592l-58 96h44l40 -96h-26z" />
    <glyph glyph-name="afii10110" unicode="&#x45e;" horiz-adv-x="167" 
d="M46 -184l21 180l-62 506h36l42 -434h2l41 434h36l-86 -686h-30zM83 618q-31 0 -48.5 16t-17.5 47v5h22v-5q0 -14 12 -23.5t32 -9.5t32 9.5t12 23.5v5h22v-5q0 -31 -17.5 -47t-48.5 -16z" />
    <glyph glyph-name="afii10193" unicode="&#x45f;" 
d="M84 -95v95h-51v502h36v-472h66v472h36v-502h-51v-95h-36z" />
    <glyph glyph-name="afii10146" unicode="&#x462;" horiz-adv-x="268" 
d="M71 0v572h-71v30h71v120h40v-120h71v-30h-71v-176h50q44 0 64.5 -18.5t20.5 -62.5v-238q0 -39 -21 -58t-57 -19h-97zM111 30h41q29 0 41.5 10.5t12.5 33.5v240q0 28 -12.5 40t-39.5 12h-43v-336z" />
    <glyph glyph-name="afii10194" unicode="&#x463;" horiz-adv-x="221" 
d="M64 0v472h-64v30h64v220h36v-220h64v-30h-64v-186h49q53 0 53 -59v-164q0 -29 -14.5 -46t-40.5 -17h-83zM100 30h37q29 0 29 35v157q0 34 -32 34h-34v-226z" />
    <glyph glyph-name="afii10147" unicode="&#x472;" horiz-adv-x="241" 
d="M121 -4q-42 0 -65 20.5t-23 57.5v574q0 37 23 57.5t66 20.5q41 0 63.5 -20.5t22.5 -57.5v-574q0 -38 -22.5 -58t-64.5 -20zM121 26q47 0 47 49v279q-10 -3 -21 -3q-9 0 -26 5.5t-27 5.5q-14 0 -21 -6v-281q0 -23 12.5 -36t35.5 -13zM148 379q12 0 20 5v263q0 49 -47 49
q-23 0 -35.5 -13t-12.5 -36v-261q10 5 22 5t28.5 -6t24.5 -6z" />
    <glyph glyph-name="afii10195" unicode="&#x473;" 
d="M102 -4q-31 0 -50 18t-19 47v380q0 65 69 65t69 -65v-380q0 -29 -19 -47t-50 -18zM102 26q33 0 33 35v183q-7 -3 -16 -3q-6 0 -17 3.5t-18 3.5q-10 0 -15 -6v-181q0 -35 33 -35zM120 269q10 0 15 4v168q0 35 -33 35t-33 -35v-168q8 4 16 4t19 -4t16 -4z" />
    <glyph glyph-name="afii10148" unicode="&#x474;" 
d="M75 0l-78 722h40l48 -476q4 -41 9.5 -116.5t7.5 -99.5h2q2 24 7.5 99.5t9.5 116.5l43 438q3 38 51 38h14v-33h-6q-21 0 -22 -19l-72 -670h-54z" />
    <glyph glyph-name="afii10196" unicode="&#x475;" horiz-adv-x="168" 
d="M59 0l-52 502h36l40 -480h2l37 445q3 35 47 35h13v-30h-6q-17 0 -20 -18l-47 -454h-50z" />
    <glyph glyph-name="afii10050" unicode="&#x490;" horiz-adv-x="170" 
d="M33 0v722h97v145h40v-175h-97v-692h-40z" />
    <glyph glyph-name="afii10098" unicode="&#x491;" horiz-adv-x="150" 
d="M33 0v502h86v125h36v-155h-86v-472h-36z" />
    <glyph glyph-name="Wgrave" unicode="&#x1e80;" horiz-adv-x="333" 
d="M330 722l-54 -722h-51l-42 458q-14 145 -15 166q-3 62 -3 68h-2l-9 -127q-2 -25 -3.5 -50.5t-2.5 -39.5t-1 -19l-40 -456h-53l-51 722h36l29 -442q3 -37 13 -250h2q4 49 8.5 139.5t6.5 110.5l39 442h56l38 -442q14 -165 17 -250h2q1 28 3.5 81l4.5 95t4 74l33 442h35z
M152 767l-58 96h44l40 -96h-26z" />
    <glyph glyph-name="wgrave" unicode="&#x1e81;" horiz-adv-x="278" 
d="M268 502l-40 -502h-45l-41 472h-2l-45 -472h-45l-40 502h36l24 -472h2l47 472h46l41 -472h2l24 472h36zM125 592l-58 96h44l40 -96h-26z" />
    <glyph glyph-name="Wacute" unicode="&#x1e82;" horiz-adv-x="333" 
d="M330 722l-54 -722h-51l-42 458q-14 145 -15 166q-3 62 -3 68h-2l-9 -127q-2 -25 -3.5 -50.5t-2.5 -39.5t-1 -19l-40 -456h-53l-51 722h36l29 -442q3 -37 13 -250h2q4 49 8.5 139.5t6.5 110.5l39 442h56l38 -442q14 -165 17 -250h2q1 28 3.5 81l4.5 95t4 74l33 442h35z
M154 767l40 96h44l-58 -96h-26z" />
    <glyph glyph-name="wacute" unicode="&#x1e83;" horiz-adv-x="278" 
d="M268 502l-40 -502h-45l-41 472h-2l-45 -472h-45l-40 502h36l24 -472h2l47 472h46l41 -472h2l24 472h36zM127 592l40 96h44l-58 -96h-26z" />
    <glyph glyph-name="Wdieresis" unicode="&#x1e84;" horiz-adv-x="333" 
d="M330 722l-54 -722h-51l-42 458q-14 145 -15 166q-3 62 -3 68h-2l-9 -127q-2 -25 -3.5 -50.5t-2.5 -39.5t-1 -19l-40 -456h-53l-51 722h36l29 -442q3 -37 13 -250h2q4 49 8.5 139.5t6.5 110.5l39 442h56l38 -442q14 -165 17 -250h2q1 28 3.5 81l4.5 95t4 74l33 442h35z
M97 811v52h44v-52h-44zM191 811v52h44v-52h-44z" />
    <glyph glyph-name="wdieresis" unicode="&#x1e85;" horiz-adv-x="278" 
d="M268 502l-40 -502h-45l-41 472h-2l-45 -472h-45l-40 502h36l24 -472h2l47 472h46l41 -472h2l24 472h36zM70 636v52h44v-52h-44zM164 636v52h44v-52h-44z" />
    <glyph glyph-name="Ygrave" unicode="&#x1ef2;" 
d="M205 722l-83 -437v-285h-40v285l-83 437h40l62 -391h2l62 391h40zM93 767l-58 96h44l40 -96h-26z" />
    <glyph glyph-name="ygrave" unicode="&#x1ef3;" horiz-adv-x="167" 
d="M162 502l-86 -686h-30l21 180l-62 506h36l42 -434h2l41 434h36zM79 592l-58 96h44l40 -96h-26z" />
    <glyph glyph-name="uni2010" unicode="&#x2010;" horiz-adv-x="111" 
d="M102 238h-93v26h93v-26z" />
    <glyph glyph-name="endash" unicode="&#x2013;" horiz-adv-x="500" 
d="M500 238h-500v26h500v-26z" />
    <glyph glyph-name="emdash" unicode="&#x2014;" horiz-adv-x="1000" 
d="M1000 238h-1000v26h1000v-26z" />
    <glyph glyph-name="quoteleft" unicode="&#x2018;" horiz-adv-x="112" 
d="M90 722l-24 -156h-44l38 156h30z" />
    <glyph glyph-name="quoteright" unicode="&#x2019;" horiz-adv-x="112" 
d="M90 722l-38 -156h-30l24 156h44z" />
    <glyph glyph-name="quotesinglbase" unicode="&#x201a;" horiz-adv-x="112" 
d="M90 52l-38 -156h-30l24 156h44z" />
    <glyph glyph-name="quotedblleft" unicode="&#x201c;" horiz-adv-x="167" 
d="M157 722l-24 -156h-44l38 156h30zM78 722l-24 -156h-44l38 156h30z" />
    <glyph glyph-name="quotedblright" unicode="&#x201d;" horiz-adv-x="167" 
d="M157 722l-38 -156h-30l24 156h44zM78 722l-38 -156h-30l24 156h44z" />
    <glyph glyph-name="quotedblbase" unicode="&#x201e;" horiz-adv-x="167" 
d="M157 52l-38 -156h-30l24 156h44zM78 52l-38 -156h-30l24 156h44z" />
    <glyph glyph-name="dagger" unicode="&#x2020;" horiz-adv-x="222" 
d="M216 578h-90v-578h-30v578h-90v30h90v114h30v-114h90v-30z" />
    <glyph glyph-name="daggerdbl" unicode="&#x2021;" horiz-adv-x="222" 
d="M216 134h-90v-134h-30v134h-90v30h90v410h-90v30h90v118h30v-118h90v-30h-90v-410h90v-30z" />
    <glyph glyph-name="bullet" unicode="&#x2022;" horiz-adv-x="500" 
d="M431 361q0 -75 -53 -128t-128 -53q-74 0 -127.5 52.5t-53.5 125.5q0 77 52.5 130.5t128.5 53.5q75 0 128 -53t53 -128z" />
    <glyph glyph-name="ellipsis" unicode="&#x2026;" horiz-adv-x="1000" 
d="M855 0h-44v52h44v-52zM522 0h-44v52h44v-52zM189 0h-44v52h44v-52z" />
    <glyph glyph-name="perthousand" unicode="&#x2030;" horiz-adv-x="407" 
d="M105 388q0 -40 -46 -40q-44 0 -44 40v298q0 40 46 40q20 0 32 -11t12 -29v-298zM392 36q0 -40 -46 -40q-44 0 -44 40v298q0 40 46 40q20 0 32 -11t12 -29v-298zM221 757l-135 -792h-28l135 792h28zM263 36q0 -40 -46 -40q-44 0 -44 40v298q0 40 46 40q20 0 32 -11t12 -29
v-298zM79 391v292q0 21 -19 21t-19 -21v-292q0 -21 19 -21t19 21zM366 39v292q0 21 -19 21t-19 -21v-292q0 -21 19 -21t19 21zM237 39v292q0 21 -19 21t-19 -21v-292q0 -21 19 -21t19 21z" />
    <glyph glyph-name="guilsinglleft" unicode="&#x2039;" horiz-adv-x="112" 
d="M96 0h-26l-54 251l54 251h26l-44 -251z" />
    <glyph glyph-name="guilsinglright" unicode="&#x203a;" horiz-adv-x="112" 
d="M96 251l-54 -251h-26l44 251l-44 251h26z" />
    <glyph glyph-name="interrobang" unicode="&#x203d;" horiz-adv-x="222" 
d="M94 0v52h44v-52h-44zM99 166l-3 446h40l-2 -179q22 60 22 99v120q0 44 -43 44q-38 0 -38 -45v-97h-36v100q0 72 80 72q39 0 56 -19.5t17 -65.5v-96q0 -44 -22 -110l-18 -54q-20 -62 -20 -99v-116h-33z" />
    <glyph glyph-name="fraction" unicode="&#x2044;" horiz-adv-x="167" 
d="M2 -35l135 792h28l-135 -792h-28z" />
    <glyph glyph-name="zero.superior" unicode="&#x2070;" horiz-adv-x="146" 
d="M73 288q-55 0 -55 43v354q0 41 56 41q54 0 54 -44v-351q0 -43 -55 -43zM75 312q22 0 22 24v341q0 25 -23 25q-24 0 -24 -25v-341q0 -24 25 -24z" />
    <glyph glyph-name="four.superior" unicode="&#x2074;" horiz-adv-x="146" 
d="M81 292v107h-75v35l62 288h44v-297h28v-26h-28v-107h-31zM34 425h47v223z" />
    <glyph glyph-name="five.superior" unicode="&#x2075;" horiz-adv-x="146" 
d="M74 288q-56 0 -56 56v59h32v-64q0 -27 25 -27q22 0 22 31v187q0 26 -19 26q-28 0 -28 -45v-32h-32v243h102v-26h-70v-129q12 13 34 13q44 0 44 -46v-194q0 -52 -54 -52z" />
    <glyph glyph-name="six.superior" unicode="&#x2076;" horiz-adv-x="146" 
d="M74 288q-56 0 -56 43v351q0 44 56 44q52 0 52 -44v-76h-30v71q0 25 -22 25q-24 0 -24 -25v-112q13 10 34 10q44 0 44 -47v-197q0 -43 -54 -43zM76 312q21 0 21 24v189q0 26 -21 26q-11 0 -18.5 -9t-7.5 -23v-183q0 -24 26 -24z" />
    <glyph glyph-name="seven.superior" unicode="&#x2077;" horiz-adv-x="146" 
d="M40 292l56 404h-78v26h110v-22l-54 -408h-34z" />
    <glyph glyph-name="eight.superior" unicode="&#x2078;" horiz-adv-x="146" 
d="M73 288q-55 0 -55 43v162q0 26 25 35q-21 6 -21 37v120q0 41 53 41q49 0 49 -41v-120q0 -27 -19 -37q23 -6 23 -35v-162q0 -43 -55 -43zM74 312q13 0 18 5.5t5 18.5v155q0 14 -5 19.5t-19 5.5q-23 0 -23 -25v-155q0 -24 24 -24zM75 540q19 0 19 20v121q0 21 -20 21
q-19 0 -19 -21v-121q0 -11 4.5 -15.5t15.5 -4.5z" />
    <glyph glyph-name="nine.superior" unicode="&#x2079;" horiz-adv-x="146" 
d="M75 288q-55 0 -55 43v75h32v-70q0 -24 23 -24q22 0 22 24v111q-11 -9 -33 -9q-46 0 -46 46v198q0 21 15.5 32.5t41.5 11.5q53 0 53 -44v-351q0 -43 -53 -43zM71 462q11 0 18.5 9t7.5 22v184q0 25 -26 25q-21 0 -21 -25v-190q0 -25 21 -25z" />
    <glyph glyph-name="plus.superior" unicode="&#x207a;" horiz-adv-x="324" 
d="M149 292v139h-139v26h139v139h26v-139h139v-26h-139v-139h-26z" />
    <glyph glyph-name="minus.superior" unicode="&#x207b;" horiz-adv-x="324" 
d="M10 431v26h304v-26h-304z" />
    <glyph glyph-name="equal.superior" unicode="&#x207c;" horiz-adv-x="324" 
d="M10 373v26h304v-26h-304zM10 489v26h304v-26h-304z" />
    <glyph glyph-name="parenleft.superior" unicode="&#x207d;" horiz-adv-x="100" 
d="M56 143q-30 147 -30 290q0 140 30 289h24q-22 -131 -22 -289q0 -172 22 -290h-24z" />
    <glyph glyph-name="parenright.superior" unicode="&#x207e;" horiz-adv-x="100" 
d="M44 143h-24q22 118 22 290q0 158 -22 289h24q30 -149 30 -289q0 -143 -30 -290z" />
    <glyph glyph-name="n.superior" unicode="&#x207f;" horiz-adv-x="144" 
d="M24 427v296h29v-13q10 16 30 16q37 0 37 -37v-262h-33v254q0 22 -13 22q-9 0 -15 -8t-6 -21v-247h-29z" />
    <glyph glyph-name="zero.inferior" unicode="&#x2080;" horiz-adv-x="146" 
d="M73 -4q-55 0 -55 43v354q0 41 56 41q54 0 54 -44v-351q0 -43 -55 -43zM75 20q22 0 22 24v341q0 25 -23 25q-24 0 -24 -25v-341q0 -24 25 -24z" />
    <glyph glyph-name="one.inferior" unicode="&#x2081;" horiz-adv-x="146" 
d="M93 0h-32v381l-27 -41v44l33 46h26v-430z" />
    <glyph glyph-name="two.inferior" unicode="&#x2082;" horiz-adv-x="146" 
d="M128 0h-110v31l69 242q6 23 6 45v67q0 25 -22 25q-19 0 -19 -31v-55h-31v60q0 50 52 50q23 0 37 -13t14 -35v-65q0 -33 -9 -64l-68 -231h81v-26z" />
    <glyph glyph-name="three.inferior" unicode="&#x2083;" horiz-adv-x="146" 
d="M127 38q0 -42 -56 -42q-54 0 -54 42v72h32v-67q0 -23 23 -23q24 0 24 23v135q0 17 -6 23t-23 6h-13v24h12q15 0 21 7.5t6 26.5v121q0 24 -23 24q-19 0 -19 -24v-60h-32v66q0 42 53 42q52 0 52 -43v-134q0 -25 -26 -37q29 -9 29 -41v-141z" />
    <glyph glyph-name="four.inferior" unicode="&#x2084;" horiz-adv-x="146" 
d="M81 0v107h-75v35l62 288h44v-297h28v-26h-28v-107h-31zM34 133h47v223z" />
    <glyph glyph-name="five.inferior" unicode="&#x2085;" horiz-adv-x="146" 
d="M74 -4q-56 0 -56 56v59h32v-64q0 -27 25 -27q22 0 22 31v187q0 26 -19 26q-28 0 -28 -45v-32h-32v243h102v-26h-70v-129q12 13 34 13q44 0 44 -46v-194q0 -52 -54 -52z" />
    <glyph glyph-name="six.inferior" unicode="&#x2086;" horiz-adv-x="146" 
d="M74 -4q-56 0 -56 43v351q0 44 56 44q52 0 52 -44v-76h-30v71q0 25 -22 25q-24 0 -24 -25v-112q13 10 34 10q44 0 44 -47v-197q0 -43 -54 -43zM76 20q21 0 21 24v189q0 26 -21 26q-11 0 -18.5 -9t-7.5 -23v-183q0 -24 26 -24z" />
    <glyph glyph-name="seven.inferior" unicode="&#x2087;" horiz-adv-x="146" 
d="M40 0l56 404h-78v26h110v-22l-54 -408h-34z" />
    <glyph glyph-name="eight.inferior" unicode="&#x2088;" horiz-adv-x="146" 
d="M73 -4q-55 0 -55 43v162q0 26 25 35q-21 6 -21 37v120q0 41 53 41q49 0 49 -41v-120q0 -27 -19 -37q23 -6 23 -35v-162q0 -43 -55 -43zM74 20q13 0 18 5.5t5 18.5v155q0 14 -5 19.5t-19 5.5q-23 0 -23 -25v-155q0 -24 24 -24zM75 248q19 0 19 20v121q0 21 -20 21
q-19 0 -19 -21v-121q0 -11 4.5 -15.5t15.5 -4.5z" />
    <glyph glyph-name="nine.inferior" unicode="&#x2089;" horiz-adv-x="146" 
d="M75 -4q-55 0 -55 43v75h32v-70q0 -24 23 -24q22 0 22 24v111q-11 -9 -33 -9q-46 0 -46 46v198q0 21 15.5 32.5t41.5 11.5q53 0 53 -44v-351q0 -43 -53 -43zM71 170q11 0 18.5 9t7.5 22v184q0 25 -26 25q-21 0 -21 -25v-190q0 -25 21 -25z" />
    <glyph glyph-name="plus.inferior" unicode="&#x208a;" horiz-adv-x="324" 
d="M149 0v139h-139v26h139v139h26v-139h139v-26h-139v-139h-26z" />
    <glyph glyph-name="minus.inferior" unicode="&#x208b;" horiz-adv-x="324" 
d="M10 139v26h304v-26h-304z" />
    <glyph glyph-name="equal.inferior" unicode="&#x208c;" horiz-adv-x="324" 
d="M10 81v26h304v-26h-304zM10 197v26h304v-26h-304z" />
    <glyph glyph-name="parenleft.inferior" unicode="&#x208d;" horiz-adv-x="100" 
d="M56 -149q-30 147 -30 290q0 140 30 289h24q-22 -131 -22 -289q0 -172 22 -290h-24z" />
    <glyph glyph-name="parenright.inferior" unicode="&#x208e;" horiz-adv-x="100" 
d="M44 -149h-24q22 118 22 290q0 158 -22 289h24q30 -149 30 -289q0 -143 -30 -290z" />
    <glyph glyph-name="Euro" unicode="&#x20ac;" horiz-adv-x="224" 
d="M224 692l-8 -38q-7 21 -28 33q-15 9 -37 9q-27 0 -40 -11q-13 -10 -13 -34v-215h80l-6 -30h-74v-70h62l-6 -30h-56v-235q0 -20 13 -33q12 -12 41 -12q23 0 39 9t27 24v-40q-17 -13 -27 -16q-16 -7 -40 -7q-39 0 -60 14q-29 20 -29 64v232h-62l6 30h56v70h-62l6 30h56v212
q0 40 24 60q22 18 65 18q26 0 46 -10q17 -9 27 -24z" />
    <glyph glyph-name="afii61248" unicode="&#x2105;" horiz-adv-x="300" 
d="M228 -4q-21 0 -34.5 11t-13.5 29v221q0 40 48 40t48 -40v-221q0 -18 -13 -29t-35 -11zM228 20q17 0 17 16v221q0 17 -17 17t-17 -17v-221q0 -16 17 -16zM70 425q-46 0 -46 38v226q0 37 48 37q44 0 44 -37v-62h-31v59q0 17 -14 17q-15 0 -15 -17v-224q0 -13 16 -13
q13 0 13 12v70h31v-68q0 -38 -46 -38zM67 -35l135 792h28l-135 -792h-28z" />
    <glyph glyph-name="afii61289" unicode="&#x2113;" horiz-adv-x="500" 
d="M396 35q-49 -49 -110 -49q-48 0 -79 29t-31 90v148l-60 -68h-2l-15 19l77 83v269q0 79 30.5 122t75.5 43q40 0 65 -31t25 -87q0 -141 -161 -324v-168q0 -53 24 -74.5t57 -21.5q49 0 88 39h2zM342 599q0 43 -17.5 69t-42.5 26q-30 0 -50.5 -33.5t-20.5 -100.5v-246
q131 157 131 285z" />
    <glyph glyph-name="afii61352" unicode="&#x2116;" horiz-adv-x="390" 
d="M33 0v722h60l68 -466l33 -226h2q-10 200 -10 232v460h40v-722h-60l-70 460q-5 30 -28 232h-2q1 -40 2.5 -88t3 -80.5t1.5 -41.5v-482h-40zM262 0v30h104v-30h-104zM313 88q-51 0 -51 39v221q0 39 51 39q53 0 53 -39v-221q0 -39 -53 -39zM313 110q23 0 23 21v213
q0 21 -23 21q-21 0 -21 -21v-213q0 -21 21 -21z" />
    <glyph glyph-name="published" unicode="&#x2117;" horiz-adv-x="800" 
d="M400 -4q-152 0 -259 106.5t-107 257.5q0 152 107 259t259 107t259 -107t107 -259q0 -151 -107 -257.5t-259 -106.5zM400 33q136 0 231.5 95.5t95.5 231.5t-96 233t-231 97q-136 0 -232 -97t-96 -233t96 -231.5t232 -95.5zM283 155v416h158q67 0 101 -33.5t34 -90.5
q0 -54 -38.5 -86.5t-109.5 -32.5h-108v-173h-37zM320 362h96q56 0 89 21t33 65q0 89 -112 89h-106v-175z" />
    <glyph glyph-name="trademark" unicode="&#x2122;" horiz-adv-x="990" 
d="M790 366h-25v326l-129 -326h-25l-128 326v-326h-25v356h40l126 -321l127 321h39v-356zM384 697h-129v-331h-27v331h-130v25h286v-25z" />
    <glyph glyph-name="Omega" unicode="&#x2126;" horiz-adv-x="241" 
d="M24 0v30h49v75q-42 22 -42 69v474q0 37 23 57.5t66 20.5t66 -20.5t23 -57.5v-474q0 -47 -42 -69v-75h49v-30h-81v128q14 1 24 16.5t10 30.5v472q0 23 -12.5 36t-35.5 13q-50 0 -50 -49v-472q0 -15 10 -30.5t24 -16.5v-128h-81z" />
    <glyph glyph-name="estimated" unicode="&#x212e;" horiz-adv-x="742" 
d="M698 340h-511v-230q75 -75 183 -75q79 0 138 36.5t106 115.5l44 -26q-58 -92 -123.5 -131.5t-164.5 -39.5q-146 0 -236 100t-90 250t90 250t236 100q145 0 235.5 -97.5t92.5 -252.5zM187 386h368v183q-79 76 -186 76q-108 0 -182 -76v-183z" />
    <glyph glyph-name="onethird" unicode="&#x2153;" horiz-adv-x="360" 
d="M77 292h-32v381l-27 -41v44l33 46h26v-430zM72 -35l135 792h28l-135 -792h-28zM327 38q0 -42 -56 -42q-54 0 -54 42v72h32v-67q0 -23 23 -23q24 0 24 23v135q0 17 -6 23t-23 6h-13v24h12q15 0 21 7.5t6 26.5v121q0 24 -23 24q-19 0 -19 -24v-60h-32v66q0 42 53 42
q52 0 52 -43v-134q0 -25 -26 -37q29 -9 29 -41v-141z" />
    <glyph glyph-name="twothirds" unicode="&#x2154;" horiz-adv-x="360" 
d="M126 292h-110v31l69 242q6 23 6 45v67q0 25 -22 25q-19 0 -19 -31v-55h-31v60q0 50 52 50q23 0 37 -13t14 -35v-65q0 -33 -9 -64l-68 -231h81v-26zM96 -35l135 792h28l-135 -792h-28zM344 38q0 -42 -56 -42q-54 0 -54 42v72h32v-67q0 -23 23 -23q24 0 24 23v135
q0 17 -6 23t-23 6h-13v24h12q15 0 21 7.5t6 26.5v121q0 24 -23 24q-19 0 -19 -24v-60h-32v66q0 42 53 42q52 0 52 -43v-134q0 -25 -26 -37q29 -9 29 -41v-141z" />
    <glyph glyph-name="oneeighth" unicode="&#x215b;" horiz-adv-x="360" 
d="M87 292h-32v381l-27 -41v44l33 46h26v-430zM82 -35l135 792h28l-135 -792h-28zM283 -4q-55 0 -55 43v162q0 26 25 35q-21 6 -21 37v120q0 41 53 41q49 0 49 -41v-120q0 -27 -19 -37q23 -6 23 -35v-162q0 -43 -55 -43zM284 20q13 0 18 5.5t5 18.5v155q0 14 -5 19.5
t-19 5.5q-23 0 -23 -25v-155q0 -24 24 -24zM285 248q19 0 19 20v121q0 21 -20 21q-19 0 -19 -21v-121q0 -11 4.5 -15.5t15.5 -4.5z" />
    <glyph glyph-name="threeeighths" unicode="&#x215c;" horiz-adv-x="360" 
d="M129 330q0 -42 -56 -42q-54 0 -54 42v72h32v-67q0 -23 23 -23q24 0 24 23v135q0 17 -6 23t-23 6h-13v24h12q15 0 21 7.5t6 26.5v121q0 24 -23 24q-19 0 -19 -24v-60h-32v66q0 42 53 42q52 0 52 -43v-134q0 -25 -26 -37q29 -9 29 -41v-141zM100 -35l135 792h28l-135 -792
h-28zM289 -4q-55 0 -55 43v162q0 26 25 35q-21 6 -21 37v120q0 41 53 41q49 0 49 -41v-120q0 -27 -19 -37q23 -6 23 -35v-162q0 -43 -55 -43zM290 20q13 0 18 5.5t5 18.5v155q0 14 -5 19.5t-19 5.5q-23 0 -23 -25v-155q0 -24 24 -24zM291 248q19 0 19 20v121q0 21 -20 21
q-19 0 -19 -21v-121q0 -11 4.5 -15.5t15.5 -4.5z" />
    <glyph glyph-name="fiveeighths" unicode="&#x215d;" horiz-adv-x="360" 
d="M76 288q-56 0 -56 56v59h32v-64q0 -27 25 -27q22 0 22 31v187q0 26 -19 26q-28 0 -28 -45v-32h-32v243h102v-26h-70v-129q12 13 34 13q44 0 44 -46v-194q0 -52 -54 -52zM100 -35l135 792h28l-135 -792h-28zM288 -4q-55 0 -55 43v162q0 26 25 35q-21 6 -21 37v120
q0 41 53 41q49 0 49 -41v-120q0 -27 -19 -37q23 -6 23 -35v-162q0 -43 -55 -43zM289 20q13 0 18 5.5t5 18.5v155q0 14 -5 19.5t-19 5.5q-23 0 -23 -25v-155q0 -24 24 -24zM290 248q19 0 19 20v121q0 21 -20 21q-19 0 -19 -21v-121q0 -11 4.5 -15.5t15.5 -4.5z" />
    <glyph glyph-name="seveneighths" unicode="&#x215e;" horiz-adv-x="360" 
d="M60 292l56 404h-78v26h110v-22l-54 -408h-34zM100 -35l135 792h28l-135 -792h-28zM289 -4q-55 0 -55 43v162q0 26 25 35q-21 6 -21 37v120q0 41 53 41q49 0 49 -41v-120q0 -27 -19 -37q23 -6 23 -35v-162q0 -43 -55 -43zM290 20q13 0 18 5.5t5 18.5v155q0 14 -5 19.5
t-19 5.5q-23 0 -23 -25v-155q0 -24 24 -24zM291 248q19 0 19 20v121q0 21 -20 21q-19 0 -19 -21v-121q0 -11 4.5 -15.5t15.5 -4.5z" />
    <glyph glyph-name="partialdiff" unicode="&#x2202;" horiz-adv-x="463" 
d="M424 369q0 -47 -4.5 -92.5t-18.5 -100t-36 -94.5t-62 -67t-93 -27q-83 0 -133 68t-50 154q0 88 49.5 149.5t135.5 61.5q105 0 176 -97q0 10 0.5 30.5t0.5 30.5q0 49 -9 98t-29 97t-59 78t-92 30q-55 0 -115 -45l-20 26q65 52 134 52q52 0 92.5 -23.5t65 -59.5t40 -84.5
t21.5 -93.5t6 -91zM384 284q-77 105 -171 105q-71 0 -110.5 -53.5t-39.5 -126.5q0 -71 40 -130.5t108 -59.5q45 0 79 26.5t53 69.5t28.5 84.5t12.5 84.5z" />
    <glyph glyph-name="Delta" unicode="&#x2206;" 
d="M214 0h-224l84 722h52zM169 29l-69 649l-67 -649h136z" />
    <glyph glyph-name="product" unicode="&#x220f;" horiz-adv-x="704" 
d="M621 -214h-36v965h-466v-965h-36v1000h538v-1000z" />
    <glyph glyph-name="summation" unicode="&#x2211;" horiz-adv-x="600" 
d="M558 -214h-523v32l338 471l-324 464v33h497v-35h-451l322 -462l-338 -468h479v-35z" />
    <glyph glyph-name="minus" unicode="&#x2212;" horiz-adv-x="600" 
d="M47 238v30h506v-30h-506z" />
    <glyph glyph-name="uni2215" unicode="&#x2215;" horiz-adv-x="167" 
d="M2 -35l135 792h28l-135 -792h-28z" />
    <glyph glyph-name="uni2219" unicode="&#x2219;" horiz-adv-x="112" 
d="M78 238h-44v52h44v-52z" />
    <glyph glyph-name="radical" unicode="&#x221a;" horiz-adv-x="463" 
d="M467 782l-215 -999h-32l-178 366l-44 -21l-13 27l73 36l173 -359l203 950h33z" />
    <glyph glyph-name="infinity" unicode="&#x221e;" horiz-adv-x="722" 
d="M675 246q0 -58 -34 -95t-92 -37q-14 0 -28.5 3t-25.5 6.5t-26 12.5l-22.5 13.5t-24 18t-20.5 17t-21.5 20t-19.5 17.5l-40 -34.5t-47.5 -39t-43 -22t-57.5 -12.5q-56 0 -91 36.5t-35 93.5q0 55 34.5 93.5t88.5 38.5q13 0 27.5 -3.5t25.5 -7t26.5 -13l24 -14.5t24.5 -18
t21 -17.5l22 -20t20 -17.5q3 2 17 15l19 17.5l18.5 16t21 16.5l20.5 14t22.5 13.5t22 9.5t24 7t23.5 2q56 0 91 -37t35 -93zM642 245q0 42 -24.5 70t-66.5 28q-27 0 -62.5 -19.5t-54.5 -35.5l-51 -45q3 -3 27 -24t34 -28l30.5 -21t38 -19t36.5 -5q44 0 68.5 27t24.5 72z
M338 243q-3 3 -17 15l-20 17l-19.5 16t-22 16.5t-22 13.5t-23.5 12t-22.5 7t-23.5 3q-40 0 -64 -28.5t-24 -69.5q0 -44 25 -71.5t68 -27.5q29 0 62.5 18t53 34t49.5 45z" />
    <glyph glyph-name="integral" unicode="&#x222b;" horiz-adv-x="534" 
d="M374 750q0 -12 -7.5 -19t-19.5 -7q-17 0 -27 15.5t-16 15.5q-8 0 -14.5 -6.5t-10.5 -18t-7.5 -25t-5 -31.5t-3 -33.5t-1.5 -33.5v-29v-24v-14v-476q0 -7 0.5 -29t0.5 -36.5t-1 -39t-4 -42l-7 -39.5t-12 -36.5t-18.5 -28t-26 -20t-34.5 -6.5q-17 0 -29 9t-12 25
q0 10 8 17.5t18 7.5t22 -13t18 -13q41 0 41 204v491q0 6 -1 37.5t0 49.5t3 49.5t8.5 51.5t17 41t29 31.5t42.5 10.5q49 0 49 -36z" />
    <glyph glyph-name="approxequal" unicode="&#x2248;" horiz-adv-x="600" 
d="M557 381q-11 -48 -40.5 -79.5t-75.5 -31.5q-40 0 -194 55q-60 21 -87 21q-34 0 -58 -22.5t-33 -60.5h-25q8 48 38 79.5t77 31.5q29 0 154 -42l27 -9t36 -11.5t34 -9t30 -4.5q35 0 59 23t34 60h24zM557 216q-11 -48 -40.5 -79.5t-75.5 -31.5q-40 0 -194 55q-60 21 -87 21
q-34 0 -58 -22.5t-33 -60.5h-25q8 48 38 79.5t77 31.5q29 0 154 -42l27 -9t36 -11.5t34 -9t30 -4.5q35 0 59 23t34 60h24z" />
    <glyph glyph-name="notequal" unicode="&#x2260;" horiz-adv-x="600" 
d="M553 141h-318l-115 -158l-21 15l104 143h-156v30h178l120 164h-298v30h319l112 152l21 -15l-100 -137h154v-30h-176l-120 -164h296v-30z" />
    <glyph glyph-name="lessequal" unicode="&#x2264;" horiz-adv-x="600" 
d="M540 70l-487 201v30l487 202v-31l-451 -186l451 -185v-31zM540 0h-487v28h487v-28z" />
    <glyph glyph-name="greaterequal" unicode="&#x2265;" horiz-adv-x="600" 
d="M540 271l-487 -201v31l450 185l-450 186v31l487 -202v-30zM540 0h-487v28h487v-28z" />
    <glyph glyph-name="lozenge" unicode="&#x25ca;" horiz-adv-x="600" 
d="M485 356l-170 -391h-30l-169 391l169 391h30zM448 356l-148 346l-148 -346l148 -346z" />
    <glyph glyph-name="f_i" unicode="&#xf001;" horiz-adv-x="200" 
d="M106 472h-37v-472h-36v472h-28v30h28v171q0 49 50 49h23v-30h-16q-21 0 -21 -28v-162h37v-30zM175 636h-44v52h44v-52zM171 0h-36v502h36v-502z" />
    <glyph glyph-name="f_l" unicode="&#xf002;" horiz-adv-x="200" 
d="M106 472h-37v-472h-36v472h-28v30h28v171q0 49 50 49h23v-30h-16q-21 0 -21 -28v-162h37v-30zM171 0h-36v722h36v-722z" />
    <glyph glyph-name="uniF8FF" unicode="&#xf8ff;" horiz-adv-x="497" 
d="M265 117h-45v49h45v-49zM257 234h-36v8q0 48 12 73.5t47 57.5q31 28 40.5 47.5t9.5 42.5q0 38 -24.5 65t-57.5 27t-56 -23t-30 -70l-38 6q9 59 42.5 90t84.5 31t84.5 -34t33.5 -88q0 -56 -61 -113q-35 -34 -43 -52t-8 -62v-6zM37 33h423v630h-423v-630zM0 697h497v-697
h-497v697z" />
    <glyph glyph-name="grave.cap" horiz-adv-x="94" 
d="M46 767l-58 96h44l40 -96h-26z" />
    <glyph glyph-name="acute.cap" horiz-adv-x="94" 
d="M22 767l40 96h44l-58 -96h-26z" />
    <glyph glyph-name="circumflex.cap" horiz-adv-x="94" 
d="M-14 767l46 96h30l46 -96h-30l-31 66l-31 -66h-30z" />
    <glyph glyph-name="caron.cap" horiz-adv-x="94" 
d="M32 767l-46 96h30l31 -66l31 66h30l-46 -96h-30z" />
    <glyph glyph-name="caron.alt" horiz-adv-x="94" 
d="M18 626l15 96h38l-29 -96h-24z" />
    <glyph glyph-name="tilde.cap" horiz-adv-x="94" 
d="M-28 787v5q0 20 8 37.5t28 17.5q13 0 37 -15q30 -15 36 -15q19 0 19 26v4h22v-5q0 -20 -8 -37.5t-28 -17.5q-12 0 -40 15q-24 15 -35 15q-17 0 -17 -26v-4h-22z" />
    <glyph glyph-name="dieresis.cap" horiz-adv-x="94" 
d="M-22 811v52h44v-52h-44zM72 811v52h44v-52h-44z" />
    <glyph glyph-name="macron.cap" horiz-adv-x="94" 
d="M-18 805v30h130v-30h-130z" />
    <glyph glyph-name="breve.cap" horiz-adv-x="94" 
d="M-19 842v5h22v-5q0 -14 12 -23.5t32 -9.5t32 9.5t12 23.5v5h22v-5q0 -31 -17.5 -47t-48.5 -16t-48.5 16t-17.5 47z" />
    <glyph glyph-name="ring.cap" horiz-adv-x="94" 
d="M47 754q-23 0 -38.5 16t-15.5 38q0 23 16 39t38 16t38 -16t16 -39q0 -22 -15.5 -38t-38.5 -16zM47 776q13 0 22.5 9t9.5 23t-9.5 23.5t-22.5 9.5t-22.5 -9.5t-9.5 -23.5t9.5 -23t22.5 -9z" />
    <glyph glyph-name="hungarumlaut.cap" horiz-adv-x="94" 
d="M-30 767l40 96h44l-58 -96h-26zM40 767l40 96h44l-58 -96h-26z" />
    <glyph glyph-name="dotaccent.cap" horiz-adv-x="94" 
d="M25 811v52h44v-52h-44z" />
    <glyph glyph-name="commaaccent" horiz-adv-x="94" 
d="M18 -124l15 96h38l-29 -96h-24z" />
    <glyph glyph-name="commaaccent.alt" horiz-adv-x="94" 
d="M18 592l29 96h24l-15 -96h-38z" />
    </font>
</defs>
</svg>
