<?xml version="1.0" standalone="no"?>
<!DOCTYPE svg PUBLIC "-//W3C//DTD SVG 1.1//EN" "http://www.w3.org/Graphics/SVG/1.1/DTD/svg11.dtd" >
<svg>
<metadata>
Created by FontForge 20090622 at Tue Dec  6 10:40:21 2016
 By deploy user
Copyright &#194;&#169; 2009 Linotype Corp., www.linotype.com. All rights reserved. This font software may not be reproduced, modified, disclosed or transferred without the express written approval of Linotype Corp. Univers is a trademark of Linotype Corp. registered in the U.S. Patent and Trademark Office and may be registered in certain other jurisdictions in the name of Linotype Corp. or its licensee Linotype GmbH. This typeface is original artwork of Adrian Frutiger. The design may be protected in certain jurisdictions. 
</metadata>
<defs>
<font id="UniversLTCYR-85XBlack" horiz-adv-x="630" >
  <font-face 
    font-family="Univers LT CYR 85 XBlack"
    font-weight="950"
    font-stretch="normal"
    units-per-em="1000"
    panose-1="2 11 10 4 4 7 2 2 2 4"
    ascent="800"
    descent="-200"
    x-height="500"
    cap-height="722"
    bbox="-171 -244 1280 1017"
    underline-thickness="50"
    underline-position="-50"
    unicode-range="U+000D-U+FB04"
  />
<missing-glyph horiz-adv-x="485" 
d="M263 111h-53v63h53v-63zM257 222h-46v16q0 50 11 75.5t46 55.5q28 27 37 44t9 36q0 33 -21 56.5t-51 23.5q-67 0 -77 -90q-8 1 -24 3.5t-24 4.5q7 66 41 98t87 32q52 0 85 -34t33 -90q0 -32 -12.5 -56.5t-47.5 -56.5t-40.5 -47.5t-5.5 -70.5zM47 47h391v585h-391v-585z
M0 680h485v-680h-485v680z" />
    <glyph glyph-name="IJ" unicode="IJ" horiz-adv-x="1066" 
d="M336 0h-285v722h285v-722zM1020 267q0 -102 -25 -153q-29 -62 -108.5 -98.5t-185.5 -36.5q-139 0 -221 61.5t-82 165.5v32h242q-1 -5 -1 -11q0 -59 46 -59q50 0 50 81v473h285v-455z" />
    <glyph glyph-name="ij" unicode="ij" horiz-adv-x="624" 
d="M276 569h-238v153h238v-153zM276 0h-238v500h238v-500zM585 569h-238v153h238v-153zM585 -10q0 -62 -13 -95t-45 -55q-29 -20 -70 -27t-128 -7q-35 0 -69 3v126q4 0 11 -0.5t10 -0.5q40 0 52 15q14 17 14 64v487h238v-510z" />
    <glyph glyph-name="napostrophe" unicode="&#x22;n" horiz-adv-x="648" 
d="M612 0h-242v307q0 59 -44 59q-45 0 -45 -63v-303h-244v500h233l5 -74q52 90 162 90q81 0 125 -41q23 -21 35 -53t13.5 -54.5t1.5 -64.5v-303zM201 722l-131 -182h-136l42 182h225z" />
    <glyph glyph-name="f_f" unicode="ff" horiz-adv-x="757" 
d="M423 0v354h-127v-354h-242v354h-54v148h54v50q0 83 57 129.5t146 46.5q77 0 135 -14v-142q-34 2 -52 2q-44 0 -44 -43v-29h127v50q0 83 57 129.5t146 46.5q77 0 135 -14v-142q-34 2 -52 2q-44 0 -44 -43v-29h85v-148h-85v-354h-242z" />
    <glyph glyph-name="fi" unicode="fi" horiz-adv-x="704" 
d="M54 0v354h-54v148h54v50q0 83 57 129.5t146 46.5q77 0 135 -14v-142q-34 2 -52 2q-44 0 -44 -43v-29h85v-148h-85v-354h-242zM426 0v502h242v-502h-242zM426 568v154h242v-154h-242z" />
    <glyph glyph-name="fl" unicode="fl" horiz-adv-x="704" 
d="M54 0v354h-54v148h54v50q0 83 57 129.5t146 46.5q77 0 135 -14v-142q-34 2 -52 2q-44 0 -44 -43v-29h85v-148h-85v-354h-242zM426 0v722h242v-722h-242z" />
    <glyph glyph-name="f_f_i" unicode="ffi" horiz-adv-x="1073" 
d="M423 0v354h-127v-354h-242v354h-54v148h54v50q0 83 57 129.5t146 46.5q77 0 135 -14v-142q-34 2 -52 2q-44 0 -44 -43v-29h127v50q0 83 57 129.5t146 46.5q77 0 135 -14v-142q-34 2 -52 2q-44 0 -44 -43v-29h85v-148h-85v-354h-242zM795 0v502h242v-502h-242zM795 568
v154h242v-154h-242z" />
    <glyph glyph-name="f_f_l" unicode="ffl" horiz-adv-x="1072" 
d="M423 0v354h-127v-354h-242v354h-54v148h54v50q0 83 57 129.5t146 46.5q77 0 135 -14v-142q-34 2 -52 2q-44 0 -44 -43v-29h127v50q0 83 57 129.5t146 46.5q77 0 135 -14v-142q-34 2 -52 2q-44 0 -44 -43v-29h85v-148h-85v-354h-242zM794 0v722h242v-722h-242z" />
    <glyph glyph-name=".notdef" horiz-adv-x="485" 
d="M263 111h-53v63h53v-63zM257 222h-46v16q0 50 11 75.5t46 55.5q28 27 37 44t9 36q0 33 -21 56.5t-51 23.5q-67 0 -77 -90q-8 1 -24 3.5t-24 4.5q7 66 41 98t87 32q52 0 85 -34t33 -90q0 -32 -12.5 -56.5t-47.5 -56.5t-40.5 -47.5t-5.5 -70.5zM47 47h391v585h-391v-585z
M0 680h485v-680h-485v680z" />
    <glyph glyph-name=".null" horiz-adv-x="500" 
 />
    <glyph glyph-name="nonmarkingreturn" horiz-adv-x="333" 
 />
    <glyph glyph-name="CR" unicode="&#xd;" horiz-adv-x="0" 
 />
    <glyph glyph-name="space" unicode=" " horiz-adv-x="352" 
 />
    <glyph glyph-name="exclam" unicode="!" horiz-adv-x="370" 
d="M329 722l-44 -509h-201l-43 509h288zM304 0h-238v164h238v-164z" />
    <glyph glyph-name="quotedbl" unicode="&#x22;" horiz-adv-x="592" 
d="M507 722l-30 -300h-122l-30 300h182zM267 722l-30 -300h-122l-30 300h182z" />
    <glyph glyph-name="numbersign" unicode="#" horiz-adv-x="704" 
d="M604 410h-88l-13 -98h72v-118h-88l-26 -194h-124l26 194h-67l-26 -194h-124l26 194h-72v118h88l14 98h-72v118h88l25 194h124l-25 -194h67l25 194h124l-26 -194h72v-118zM392 410h-67l-13 -98h67z" />
    <glyph glyph-name="dollar" unicode="$" horiz-adv-x="704" 
d="M695 230q0 -138 -116 -203q-66 -37 -161 -46v-101h-149v103q-110 13 -183 67.5t-73 158.5v16h272v-9q0 -74 73 -74q30 0 50 17.5t20 43.5q0 11 -4 19t-9 13.5t-17 10.5t-19.5 7.5t-26.5 7.5t-28 8l-91 27q-107 32 -157 75.5t-50 131.5q0 97 62 156t181 76v98h149v-94
q255 -21 255 -220h-255q-1 35 -15.5 49t-48.5 14q-30 0 -47.5 -13t-17.5 -35q0 -9 3.5 -16t11 -13t15 -10t21.5 -8t24.5 -6.5l28.5 -7l30 -7.5l90 -24q182 -48 182 -212z" />
    <glyph glyph-name="percent" unicode="%" horiz-adv-x="1056" 
d="M1031 229q0 -243 -211 -243q-103 0 -151.5 62t-48.5 169q0 119 55.5 182.5t159.5 63.5q196 0 196 -234zM790 722l-401 -722h-123l404 722h120zM435 502q0 -243 -211 -243q-103 0 -151.5 62t-48.5 169q0 119 55.5 182.5t159.5 63.5q196 0 196 -234zM864 222q0 30 -0.5 45
t-3.5 36t-11 30t-20 9q-21 0 -30 -25.5t-9 -85.5q0 -73 8.5 -100.5t30.5 -27.5q20 0 27.5 25t7.5 94zM268 495q0 30 -0.5 45t-3.5 36t-11 30t-20 9q-21 0 -30 -25.5t-9 -85.5q0 -73 8.5 -100.5t30.5 -27.5q20 0 27.5 25t7.5 94z" />
    <glyph glyph-name="ampersand" unicode="&#x26;" horiz-adv-x="888" 
d="M892 0h-276l-42 43q-98 -64 -242 -64q-142 0 -227.5 59.5t-85.5 158.5q0 79 49 121.5t135 71.5q-117 81 -117 173q0 43 20 76t50 52t71.5 30.5t77.5 15.5t75 4q131 0 206.5 -45t75.5 -124q0 -108 -145 -199l90 -87q35 44 41 112h206v-1q0 -63 -31.5 -134t-77.5 -109z
M442 564q0 22 -17 34.5t-48 12.5q-32 0 -49.5 -12t-17.5 -34q0 -37 65 -80q67 45 67 79zM456 154l-120 119q-32 -9 -53 -31.5t-21 -47.5q0 -31 26.5 -54.5t60.5 -23.5q44 0 107 38z" />
    <glyph glyph-name="quotesingle" unicode="'" horiz-adv-x="352" 
d="M267 722l-30 -300h-122l-30 300h182z" />
    <glyph glyph-name="parenleft" unicode="(" horiz-adv-x="388" 
d="M367 -146h-186q-45 108 -73 203q-42 139 -42 231q0 97 41 235q27 92 74 199h185q-36 -126 -54 -216q-24 -123 -24 -213q0 -87 25 -223q20 -106 54 -216z" />
    <glyph glyph-name="parenright" unicode=")" horiz-adv-x="388" 
d="M323 287q0 -96 -41 -234q-27 -92 -74 -199h-185q36 127 54 216q24 122 24 211t-25 225q-20 106 -54 216h186q42 -102 73 -203q42 -139 42 -232z" />
    <glyph glyph-name="asterisk" unicode="*" horiz-adv-x="388" 
d="M354 535h-90l45 -79l-74 -39l-42 77l-44 -77l-73 40l44 78h-88v81h88l-44 78l73 42l44 -79l42 78l74 -42l-45 -77h90v-81z" />
    <glyph glyph-name="plus" unicode="+" horiz-adv-x="600" 
d="M553 185h-185v-185h-136v185h-185v136h185v185h136v-185h185v-136z" />
    <glyph glyph-name="comma" unicode="," horiz-adv-x="352" 
d="M321 211l-107 -308h-204l65 308h246z" />
    <glyph glyph-name="hyphen" unicode="-" horiz-adv-x="407" 
d="M378 182h-349v167h349v-167z" />
    <glyph glyph-name="period" unicode="." horiz-adv-x="352" 
d="M297 0h-243v208h243v-208z" />
    <glyph glyph-name="slash" unicode="/" horiz-adv-x="370" 
d="M391 722l-260 -736h-152l262 736h150z" />
    <glyph glyph-name="zero" unicode="0" horiz-adv-x="704" 
d="M680 360q0 -179 -85 -279t-259 -100q-312 0 -312 375q0 180 80.5 282.5t250.5 102.5q179 0 252 -96.5t73 -284.5zM414 358q0 136 -17 177q-11 28 -43 28q-38 0 -51.5 -44.5t-13.5 -166.5q0 -64 6 -115q8 -77 58 -77q33 0 45 31q16 41 16 167z" />
    <glyph glyph-name="one" unicode="1" horiz-adv-x="704" 
d="M516 0h-275v472q-77 -61 -155 -79v205q145 46 211 124h219v-722z" />
    <glyph glyph-name="two" unicode="2" horiz-adv-x="704" 
d="M669 0h-634v188l161 102q84 53 142.5 112t57.5 110q0 25 -14.5 39t-40.5 14q-62 0 -62 -81h-251q0 73 25.5 124t72 78t101 38.5t123.5 11.5q152 0 235 -58t83 -165q0 -128 -144 -237q-35 -26 -136 -88h281v-188z" />
    <glyph glyph-name="three" unicode="3" horiz-adv-x="704" 
d="M668 210q0 -102 -75 -164q-81 -66 -249 -66q-220 0 -291 110q-34 53 -34 135h244q0 -79 71 -79q68 0 68 68q0 41 -28.5 58.5t-94.5 17.5q-13 0 -27 -1v153q16 -1 31 -1q61 0 86.5 16.5t25.5 57.5q0 60 -64 60q-32 0 -46.5 -18.5t-14.5 -58.5h-240v1q0 77 33 127
q72 112 281 112q149 0 229.5 -52.5t80.5 -150.5q0 -69 -43 -108t-114 -50q81 -9 126 -47.5t45 -119.5z" />
    <glyph glyph-name="four" unicode="4" horiz-adv-x="704" 
d="M690 116h-86v-116h-263v116h-329v205l243 401h349v-423h86v-183zM347 299v247l-136 -247h136z" />
    <glyph glyph-name="five" unicode="5" horiz-adv-x="704" 
d="M668 256q0 -124 -83 -199q-83 -77 -240 -77q-144 0 -224 57t-83 162h255q2 -55 46 -55q29 0 44 21q15 23 15 85q0 52 -12 71.5t-44 19.5q-24 0 -37.5 -15t-15.5 -41h-236l13 437h557v-171h-329l-10 -116q60 51 148 51q108 0 172 -62t64 -168z" />
    <glyph glyph-name="six" unicode="6" horiz-adv-x="704" 
d="M677 246q0 -124 -84.5 -195.5t-232.5 -71.5q-170 0 -249 99t-79 273q0 179 85 283t259 104q270 0 270 -215h-234v6q0 50 -49 50q-31 0 -48 -24q-27 -43 -28 -145q54 58 147 58q106 0 174.5 -59t68.5 -163zM431 240q0 45 -15.5 65t-49.5 20q-69 0 -69 -96q0 -87 66 -87
q68 0 68 98z" />
    <glyph glyph-name="seven" unicode="7" horiz-adv-x="704" 
d="M653 566l-270 -566h-292l271 529h-320v193h611v-156z" />
    <glyph glyph-name="eight" unicode="8" horiz-adv-x="704" 
d="M679 195q0 -105 -87.5 -160t-254.5 -55q-44 0 -85 6t-83 21t-73 38t-50.5 61t-19.5 86q0 69 38 114.5t107 58.5q-65 17 -96 55t-31 101q0 105 82.5 161t236.5 56q143 0 219 -55.5t76 -160.5q0 -61 -32.5 -101.5t-90.5 -54.5q69 -14 106.5 -58.5t37.5 -112.5zM404 516
q0 34 -11.5 48t-39.5 14q-52 0 -52 -64q0 -68 51 -68q28 0 40 16t12 54zM414 213q0 37 -12.5 56t-47.5 19q-65 0 -65 -75q0 -71 61 -71q64 0 64 71z" />
    <glyph glyph-name="nine" unicode="9" horiz-adv-x="704" 
d="M669 366q0 -179 -84.5 -283t-258.5 -104q-270 0 -270 215h233v-5q0 -50 49 -50q34 0 48 23q27 42 28 146q-54 -58 -147 -58q-106 0 -174.5 59t-68.5 163q0 124 84.5 195t232.5 71q328 0 328 -372zM404 489q0 86 -66 86q-67 0 -67 -97q0 -45 15 -65.5t49 -20.5q69 0 69 97
z" />
    <glyph glyph-name="colon" unicode=":" horiz-adv-x="352" 
d="M298 308h-243v208h243v-208zM298 0h-243v208h243v-208z" />
    <glyph glyph-name="semicolon" unicode=";" horiz-adv-x="352" 
d="M313 308h-241v208h241v-208zM319 211l-105 -308h-205l63 308h247z" />
    <glyph glyph-name="less" unicode="&#x3c;" horiz-adv-x="600" 
d="M558 -33l-515 204v163l515 204v-166l-342 -120l342 -118v-167z" />
    <glyph glyph-name="equal" unicode="=" horiz-adv-x="600" 
d="M558 295h-516v148h516v-148zM558 63h-516v149h516v-149z" />
    <glyph glyph-name="greater" unicode="&#x3e;" horiz-adv-x="600" 
d="M558 171l-515 -204v167l343 118l-343 120v166l515 -204v-163z" />
    <glyph glyph-name="question" unicode="?" horiz-adv-x="537" 
d="M517 536q0 -60 -32.5 -101.5t-94.5 -88.5l-16 -12q-26 -20 -36.5 -44t-10.5 -68v-14h-236v35q0 58 14.5 89.5t59.5 70.5l15 13q53 46 53 81q0 47 -72 47q-49 0 -131 -25v189q116 33 212 33q54 0 101 -10.5t87 -33t63.5 -64t23.5 -97.5zM333 0h-240v164h240v-164z" />
    <glyph glyph-name="at" unicode="@" horiz-adv-x="912" 
d="M444 182q49 0 76.5 57t27.5 116q0 71 -53 71q-33 0 -58 -30.5t-35.5 -68.5t-10.5 -73q0 -72 53 -72zM709 521l-48 -235q-19 -94 23 -94q10 0 22.5 6t28 22t25.5 51.5t10 86.5q0 134 -82 202.5t-216 68.5q-140 0 -232 -92.5t-92 -232.5q0 -96 45.5 -171.5t115 -113.5
t148.5 -38q91 0 145 18t103 57l62 -81q-60 -56 -132.5 -81t-188.5 -25q-184 0 -305 126.5t-121 309.5q0 181 127.5 308.5t308.5 127.5q204 0 320 -97.5t116 -250.5q0 -77 -23 -136.5t-56 -93t-75.5 -54.5t-75.5 -27.5t-62 -6.5q-44 0 -63 19t-16 56q-37 -42 -67.5 -58.5
t-72.5 -16.5q-146 0 -146 176q0 118 61.5 200t165.5 82q43 0 68 -13.5t48 -47.5l11 49h120z" />
    <glyph glyph-name="A" unicode="A" horiz-adv-x="796" 
d="M816 0h-298l-28 116h-208l-29 -116h-272l232 722h371zM448 292l-59 271l-64 -271h123z" />
    <glyph glyph-name="B" unicode="B" horiz-adv-x="758" 
d="M734 206q0 -63 -35.5 -111.5t-95.5 -70.5q-63 -24 -165 -24h-385v722h416q243 0 243 -186q0 -70 -33 -104t-103 -55q75 -11 116.5 -56t41.5 -115zM444 502q0 35 -23.5 50.5t-78.5 15.5h-23v-136h26q99 0 99 70zM457 226q0 37 -26 54t-85 17h-27v-145h23q26 0 42.5 2
t35 8.5t28 22.5t9.5 41z" />
    <glyph glyph-name="C" unicode="C" horiz-adv-x="758" 
d="M736 265q0 -133 -91 -208.5t-252 -75.5q-176 0 -272.5 99t-96.5 281q0 178 97.5 277t272.5 99q155 0 246 -70.5t91 -216.5v-1h-263q-4 52 -20 74.5t-48 22.5q-27 0 -44 -13.5t-24 -42.5t-9 -55.5t-2 -71.5q0 -48 2 -76t9.5 -58.5t24.5 -44.5t44 -14q32 0 48 22.5t19 73.5
h268v-1z" />
    <glyph glyph-name="D" unicode="D" horiz-adv-x="796" 
d="M774 366q0 -99 -35.5 -181t-111.5 -129q-92 -56 -227 -56h-351v722h324q81 0 125.5 -7.5t95.5 -28.5q84 -34 132 -119.5t48 -200.5zM477 370q0 35 -1.5 57t-8 49.5t-19 43.5t-35.5 27t-57 11h-25v-392h22q29 0 51 7.5t35 23.5t21 32t11.5 43.5t4.5 46.5t1 51z" />
    <glyph glyph-name="E" unicode="E" 
d="M609 0h-558v722h549v-188h-274v-78h253v-187h-253v-81h283v-188z" />
    <glyph glyph-name="F" unicode="F" horiz-adv-x="610" 
d="M602 534h-269v-85h250v-185h-250v-264h-284v722h553v-188z" />
    <glyph glyph-name="G" unicode="G" horiz-adv-x="814" 
d="M773 28q-180 -49 -357 -49q-184 0 -286.5 97t-102.5 282t106 282t292 97q57 0 103 -6t90.5 -22t74 -42.5t48 -70.5t18.5 -102v-1h-266q-3 59 -70 59q-29 0 -49 -11t-31 -27.5t-16.5 -47.5t-7 -58.5t-1.5 -72.5q0 -33 1.5 -55t7 -46.5t16.5 -39t30 -24t47 -9.5q43 0 78 15
v90h-98v144h373v-382z" />
    <glyph glyph-name="H" unicode="H" horiz-adv-x="796" 
d="M744 0h-286v266h-120v-266h-286v722h286v-247h120v247h286v-722z" />
    <glyph glyph-name="I" unicode="I" horiz-adv-x="388" 
d="M336 0h-285v722h285v-722z" />
    <glyph glyph-name="J" unicode="J" horiz-adv-x="666" 
d="M620 267q0 -102 -25 -153q-29 -62 -108.5 -98.5t-185.5 -36.5q-139 0 -221 61.5t-82 165.5v32h242q-1 -5 -1 -11q0 -59 46 -59q50 0 50 81v473h285v-455z" />
    <glyph glyph-name="K" unicode="K" horiz-adv-x="796" 
d="M811 0h-309l-169 324v-324h-280v722h280v-310l151 310h300l-193 -340z" />
    <glyph glyph-name="L" unicode="L" horiz-adv-x="610" 
d="M600 0h-549v722h287v-528h262v-194z" />
    <glyph glyph-name="M" unicode="M" horiz-adv-x="1056" 
d="M1002 0h-236v518l-109 -518h-257l-109 518v-518h-236v722h400l74 -430l83 430h390v-722z" />
    <glyph glyph-name="N" unicode="N" horiz-adv-x="832" 
d="M780 0h-342l-156 442v-442h-231v722h349l149 -435v435h231v-722z" />
    <glyph glyph-name="O" unicode="O" horiz-adv-x="796" 
d="M771 361q0 -178 -100 -280t-274 -102q-173 0 -272.5 100.5t-99.5 276.5q0 183 100 284t281 101q173 0 269 -99.5t96 -280.5zM474 377q0 45 -2 72.5t-9 53t-22.5 37t-40.5 11.5q-46 0 -63 -46.5t-17 -151.5q0 -90 16 -136.5t59 -46.5q45 0 62 44.5t17 162.5z" />
    <glyph glyph-name="P" unicode="P" horiz-adv-x="740" 
d="M728 485q0 -74 -37.5 -133.5t-104.5 -85.5q-61 -23 -166 -23h-82v-243h-287v722h405q86 0 146 -26q58 -24 92 -81t34 -130zM453 489q0 72 -91 72h-24v-154h16q51 0 75 19.5t24 62.5z" />
    <glyph glyph-name="Q" unicode="Q" horiz-adv-x="796" 
d="M795 0h-143q-37 0 -108 -4q-27 -2 -31 -3q-56 -14 -116 -14q-173 0 -272.5 100.5t-99.5 276.5q0 183 100 284t281 101q173 0 269 -99.5t96 -280.5q0 -105 -36 -185h60v-176zM474 377q0 45 -2 72.5t-9 53t-22.5 37t-40.5 11.5q-46 0 -63 -46.5t-17 -151.5q0 -90 16 -136.5
t59 -46.5q45 0 62 44.5t17 162.5z" />
    <glyph glyph-name="R" unicode="R" horiz-adv-x="758" 
d="M750 0h-280q-11 38 -20 105l-5 33q-10 65 -13.5 80t-13.5 26q-13 16 -63 16h-24v-260h-282v722h429q78 0 139 -21q50 -17 78 -60t28 -104q0 -74 -34.5 -111t-107.5 -60q74 -12 98.5 -42t33.5 -112l8 -68q12 -92 29 -144zM450 496q0 35 -23 49.5t-80 14.5h-18v-140h21
q100 0 100 76z" />
    <glyph glyph-name="S" unicode="S" horiz-adv-x="722" 
d="M702 230q0 -137 -118 -203q-86 -48 -230 -48q-54 0 -100 7t-90 24t-75 44t-50 70.5t-19 98.5v2h272v-9q0 -74 73 -74q30 0 50 17.5t20 43.5q0 9 -3 16.5t-9.5 13.5t-12.5 10t-18 8l-19 6.5t-21.5 6t-20.5 5.5q-73 22 -91 27q-106 30 -156.5 73.5t-50.5 133.5
q0 115 86.5 176.5t247.5 61.5q313 0 313 -221v-1h-255q-1 35 -15.5 49t-48.5 14q-30 0 -47.5 -13t-17.5 -35q0 -9 3.5 -16.5t11.5 -13t16 -10t21.5 -8.5t24.5 -6.5l28.5 -6.5t28.5 -7l90 -24q182 -52 182 -212z" />
    <glyph glyph-name="T" unicode="T" horiz-adv-x="648" 
d="M645 527h-178v-527h-287v527h-177v195h642v-195z" />
    <glyph glyph-name="U" unicode="U" horiz-adv-x="778" 
d="M733 270q0 -98 -30 -153q-36 -64 -122.5 -101t-200.5 -37q-95 0 -178 29t-124 98q-32 53 -32 137v479h287v-465q0 -81 59 -81q29 0 44.5 20t15.5 57v469h281v-452z" />
    <glyph glyph-name="V" unicode="V" horiz-adv-x="759" 
d="M769 722l-204 -722h-370l-204 722h293l101 -562l108 562h276z" />
    <glyph glyph-name="W" unicode="W" horiz-adv-x="1036" 
d="M1051 722l-153 -722h-309l-68 468l-69 -468h-313l-153 722h256l62 -455l68 455h298l67 -455l64 455h250z" />
    <glyph glyph-name="X" unicode="X" horiz-adv-x="778" 
d="M792 0h-300l-108 220l-112 -220h-286l235 369l-219 353h300l96 -203l97 203h289l-223 -353z" />
    <glyph glyph-name="Y" unicode="Y" horiz-adv-x="740" 
d="M758 722l-245 -472v-250h-285v250l-246 472h296l103 -303l101 303h276z" />
    <glyph glyph-name="Z" unicode="Z" horiz-adv-x="685" 
d="M662 0h-639v174l301 360h-292v188h623v-173l-301 -361h308v-188z" />
    <glyph glyph-name="bracketleft" unicode="[" horiz-adv-x="481" 
d="M447 -146h-366v868h366v-162h-155v-546h155v-160z" />
    <glyph glyph-name="backslash" unicode="\" horiz-adv-x="370" 
d="M391 -14h-152l-260 736h150z" />
    <glyph glyph-name="bracketright" unicode="]" horiz-adv-x="481" 
d="M400 -146h-365v160h155v546h-155v162h365v-868z" />
    <glyph glyph-name="asciicircum" unicode="^" horiz-adv-x="600" 
d="M535 359h-140l-95 223l-95 -223h-140l164 363h142z" />
    <glyph glyph-name="underscore" unicode="_" horiz-adv-x="500" 
d="M500 -125h-500v50h500v-50z" />
    <glyph glyph-name="grave" unicode="`" horiz-adv-x="278" 
d="M252 552h-177l-154 170h235z" />
    <glyph glyph-name="a" unicode="a" horiz-adv-x="592" 
d="M553 0h-212l-4 53q-55 -66 -146 -66q-83 0 -129.5 40.5t-46.5 113.5q0 53 25 90t67.5 54.5t86 25t93.5 7.5q26 0 45 -1v43q0 40 -46 40t-47 -48h-199v1q0 48 31 87q57 73 224 73q127 0 194 -38q38 -21 51 -57t13 -88v-330zM335 197v26q-20 2 -22 2q-89 0 -89 -62
q0 -48 55 -48q30 0 43 19t13 63z" />
    <glyph glyph-name="b" unicode="b" horiz-adv-x="666" 
d="M637 259q0 -130 -56.5 -202.5t-156.5 -72.5q-94 0 -149 74l-8 -58h-228v722h246v-266q55 61 147 61q96 0 150.5 -68.5t54.5 -189.5zM390 250q0 30 -1.5 47t-6 37t-16.5 29.5t-31 9.5q-16 0 -26.5 -6.5t-16 -16t-8.5 -29t-3.5 -34.5t-0.5 -44q0 -30 1 -44t5 -34t16 -28.5
t31 -8.5q32 0 44.5 27.5t12.5 94.5z" />
    <glyph glyph-name="c" unicode="c" 
d="M607 206q0 -62 -23 -107t-63.5 -69t-88.5 -34.5t-107 -10.5q-299 0 -299 268q0 124 79.5 194t219.5 70q131 0 204.5 -57t73.5 -158v-1h-223q-1 48 -13 68.5t-40 20.5q-14 0 -24.5 -4.5t-16.5 -16.5t-9.5 -23t-5 -34.5t-2 -39t-0.5 -47.5q0 -70 12 -91q14 -24 46 -24
q53 0 53 96h227z" />
    <glyph glyph-name="d" unicode="d" horiz-adv-x="666" 
d="M625 0h-228l-8 58q-54 -74 -149 -74q-100 0 -156 72.5t-56 202.5q0 121 54 189.5t149 68.5q93 0 149 -61v266h245v-722zM384 249v11q0 21 -0.5 32.5t-3 29.5t-8 27t-16.5 16.5t-27 7.5q-25 0 -37.5 -18t-15 -40.5t-2.5 -64.5q0 -68 13 -95t45 -27q15 0 25.5 7t15.5 16
t8 27t3 28.5v32.5v10z" />
    <glyph glyph-name="e" unicode="e" 
d="M605 208h-347v-1v-22q0 -79 67 -79q55 0 63 58h210q0 -22 -14 -51t-31 -48q-69 -81 -241 -81q-137 0 -212 67.5t-75 203.5t83 200.5t223 64.5q274 0 274 -285v-27zM388 315q0 41 -12.5 62t-51.5 21q-38 0 -52 -21.5t-14 -61.5h130z" />
    <glyph glyph-name="f" unicode="f" horiz-adv-x="388" 
d="M398 574q-30 2 -50 2q-26 0 -37 -10.5t-11 -35.5v-30h89v-148h-89v-352h-239v352h-59v148h59v32q0 95 49 144q56 54 155 54q61 0 133 -15v-141z" />
    <glyph glyph-name="g" unicode="g" horiz-adv-x="666" 
d="M625 66q0 -63 -4.5 -91t-20.5 -62q-52 -117 -284 -117q-136 0 -204 48q-29 20 -45.5 54t-16.5 70h236q2 -41 51 -41q34 0 47.5 21t13.5 75v51q-45 -65 -152 -65q-108 0 -163.5 67t-55.5 177q0 112 55 186t163 74q99 0 146 -66l8 53h226v-434zM388 262q0 70 -16 92
q-13 18 -38 18q-14 0 -24.5 -5t-16.5 -16.5t-9.5 -21t-5 -29.5t-1.5 -30v-33q0 -21 1 -32t5 -27.5t15.5 -24.5t30.5 -8q18 0 29.5 7t17.5 15t9 28t3 30v37z" />
    <glyph glyph-name="h" unicode="h" horiz-adv-x="648" 
d="M612 0h-242v307q0 59 -44 59q-45 0 -45 -67v-299h-244v722h244v-289q26 44 63 63.5t93 19.5q54 0 90 -16t53.5 -46t24.5 -63t7 -78v-313z" />
    <glyph glyph-name="i" unicode="i" horiz-adv-x="314" 
d="M276 569h-238v153h238v-153zM276 0h-238v500h238v-500z" />
    <glyph glyph-name="j" unicode="j" horiz-adv-x="314" 
d="M275 569h-238v153h238v-153zM275 -10q0 -62 -13 -95t-45 -55q-29 -20 -70 -27t-128 -7q-35 0 -69 3v126q4 0 11 -0.5t10 -0.5q40 0 52 15q14 17 14 64v487h238v-510z" />
    <glyph glyph-name="k" unicode="k" 
d="M641 0h-264l-102 262v-262h-240v722h240v-414l94 192h261l-139 -213z" />
    <glyph glyph-name="l" unicode="l" horiz-adv-x="314" 
d="M276 0h-238v722h238v-722z" />
    <glyph glyph-name="m" unicode="m" horiz-adv-x="980" 
d="M942 0h-239v309q0 57 -43 57q-46 0 -46 -63v-303h-242v307q0 59 -44 59q-45 0 -45 -64v-302h-244v500h233l5 -74q30 49 67 69.5t96 20.5q61 0 100 -22.5t64 -73.5q53 96 165 96q84 0 128.5 -45.5t44.5 -127.5v-343z" />
    <glyph glyph-name="n" unicode="n" horiz-adv-x="648" 
d="M612 0h-242v307q0 59 -44 59q-45 0 -45 -63v-303h-244v500h233l5 -74q52 90 162 90q81 0 125 -41q23 -21 35 -53t13.5 -54.5t1.5 -64.5v-303z" />
    <glyph glyph-name="o" unicode="o" horiz-adv-x="666" 
d="M640 252q0 -268 -322 -268q-131 0 -212 68.5t-81 198.5q0 133 83 201.5t219 68.5q142 0 227.5 -66t85.5 -203zM389 259q0 69 -13 98.5t-42 29.5q-32 0 -43.5 -32t-11.5 -96q0 -78 9.5 -110t43.5 -32q19 0 31 11t17.5 33.5t7 43.5t1.5 54z" />
    <glyph glyph-name="p" unicode="p" horiz-adv-x="666" 
d="M637 241q0 -121 -54.5 -189.5t-149.5 -68.5q-49 0 -83 13.5t-65 47.5v-236h-246v692h228l8 -58q55 74 149 74q100 0 156.5 -72.5t56.5 -202.5zM390 250q0 68 -13 95t-45 27q-34 0 -43 -27.5t-9 -93.5q0 -30 1 -47t6 -37.5t17 -30t31 -9.5q14 0 23.5 4.5t15.5 16t9.5 20.5
t5 27t1.5 26.5v28.5z" />
    <glyph glyph-name="q" unicode="q" horiz-adv-x="666" 
d="M625 -192h-245v236q-54 -61 -148 -61q-96 0 -150 68.5t-54 189.5q0 130 56 202.5t156 72.5q94 0 149 -74l8 58h228v-692zM384 257v29.5t-1.5 25t-4.5 25.5t-8.5 17.5t-15 14t-22.5 3.5q-35 0 -46.5 -30.5t-11.5 -91.5v-29t1.5 -26.5t5 -27.5t9 -19.5t15.5 -16t24 -4.5
q20 0 32 9t16.5 29.5t5.5 34t1 42.5v15z" />
    <glyph glyph-name="r" unicode="r" horiz-adv-x="444" 
d="M442 306q-65 13 -91 13q-36 0 -52.5 -17.5t-16.5 -57.5v-244h-245v500h233l5 -53q56 60 103 60q32 0 64 -14v-187z" />
    <glyph glyph-name="s" unicode="s" horiz-adv-x="592" 
d="M569 159q0 -80 -60 -126q-69 -52 -223 -52q-264 0 -264 181h221q0 -68 55 -68q51 0 51 45q0 24 -24.5 34.5t-82.5 17.5l-23 3q-100 13 -144 49t-44 102q0 174 266 174q127 0 192 -42.5t65 -125.5v-1h-208v5q0 28 -12 40t-39 12q-49 0 -49 -39q0 -21 16.5 -28.5
t66.5 -15.5q9 -1 14 -2l48 -8q79 -13 124 -41q54 -32 54 -114z" />
    <glyph glyph-name="t" unicode="t" horiz-adv-x="426" 
d="M421 352h-113v-148q0 -33 9 -46t32 -13q29 0 63 8v-148q-91 -21 -158 -21q-84 0 -134 35q-30 21 -39 51t-9 75v207h-67v148h66v83l237 84v-167h113v-148z" />
    <glyph glyph-name="u" unicode="u" horiz-adv-x="648" 
d="M611 0h-233l-5 74q-52 -90 -162 -90q-81 0 -125 41q-23 21 -35 53t-13.5 54.5t-1.5 64.5v303h242v-307q0 -59 44 -59q45 0 45 64v302h244v-500z" />
    <glyph glyph-name="v" unicode="v" 
d="M630 500l-149 -500h-330l-151 500h250l67 -309l66 309h247z" />
    <glyph glyph-name="w" unicode="w" horiz-adv-x="944" 
d="M946 500l-126 -500h-294l-64 319l-59 -319h-296l-109 500h231l44 -326l62 326h265l59 -326l53 326h234z" />
    <glyph glyph-name="x" unicode="x" 
d="M643 0h-254l-74 150l-61 -150h-267l153 267l-138 233h258l52 -132l46 132h257l-127 -233z" />
    <glyph glyph-name="y" unicode="y" 
d="M634 500l-238 -692h-261l66 177l-204 515h258l70 -274l68 274h241z" />
    <glyph glyph-name="z" unicode="z" horiz-adv-x="536" 
d="M512 0h-487v139l175 201h-161v160h456v-157l-159 -181h176v-162z" />
    <glyph glyph-name="braceleft" unicode="{" horiz-adv-x="481" 
d="M436 -146h-166q-63 0 -101 38t-38 88v171q0 24 -15.5 37t-33 16t-45.5 3v164q28 0 45.5 3t33 16t15.5 37v169q0 50 38 88t101 38h166v-162h-35q-31 0 -44.5 -14t-13.5 -46v-117q0 -76 -112 -93v-2q112 -17 112 -93v-121q0 -32 13.5 -46t44.5 -14h35v-160z" />
    <glyph glyph-name="bar" unicode="|" horiz-adv-x="222" 
d="M189 -19h-156v760h156v-760z" />
    <glyph glyph-name="braceright" unicode="}" horiz-adv-x="481" 
d="M444 207q-28 0 -45.5 -3t-33 -16t-15.5 -37v-171q0 -50 -38 -88t-101 -38h-166v160h35q31 0 44.5 14t13.5 46v121q0 76 112 93v2q-112 17 -112 93v117q0 32 -13.5 46t-44.5 14h-35v162h166q63 0 101 -38t38 -88v-169q0 -24 15.5 -37t33 -16t45.5 -3v-164z" />
    <glyph glyph-name="asciitilde" unicode="~" horiz-adv-x="600" 
d="M582 358q-2 -35 -11.5 -70.5t-26.5 -69.5t-46.5 -55.5t-67.5 -21.5q-35 0 -182 44q-50 16 -77 16q-47 0 -52 -53h-102q0 74 43 144t111 70q42 0 135 -30q92 -29 123 -29q25 0 36 14t15 41h102z" />
    <glyph glyph-name="uni00A0" unicode="&#xa0;" horiz-adv-x="352" 
 />
    <glyph glyph-name="exclamdown" unicode="&#xa1;" horiz-adv-x="370" 
d="M42 -185l43 511h200l43 -511h-286zM64 373v164h242v-164h-242z" />
    <glyph glyph-name="cent" unicode="&#xa2;" horiz-adv-x="704" 
d="M293 -123v108q-104 13 -162 73q-68 70 -68 196q0 112 67 178.5t163 84.5v108h142v-108q91 -12 146.5 -68.5t59.5 -152.5h-224q-2 52 -12 74.5t-40 22.5q-33 0 -46.5 -29t-13.5 -120q0 -83 11 -109t45 -26q29 0 40.5 21.5t15.5 72.5h224q0 -99 -54 -149t-152 -69v-108
h-142z" />
    <glyph glyph-name="sterling" unicode="&#xa3;" horiz-adv-x="704" 
d="M693 507h-246q-3 53 -40 53q-48 0 -48 -88v-23h139v-167h-139v-90h317v-192h-639v192h72v90h-93v167h93v35q0 133 81.5 195t220.5 62q58 0 106 -10.5t89 -34.5t64 -67.5t23 -103.5v-18z" />
    <glyph glyph-name="currency" unicode="&#xa4;" horiz-adv-x="704" 
d="M161 101l-73 73l55 55q-39 58 -39 132q0 76 42 137l-58 58l73 73l60 -59q59 39 131 39q75 0 131 -39l60 59l73 -73l-58 -58q42 -61 42 -137q0 -74 -39 -132l55 -55l-73 -73l-54 54q-61 -42 -137 -42t-137 42zM234 361q0 -49 34.5 -83.5t83.5 -34.5t83.5 34.5t34.5 83.5
t-34.5 83.5t-83.5 34.5t-83.5 -34.5t-34.5 -83.5z" />
    <glyph glyph-name="yen" unicode="&#xa5;" horiz-adv-x="704" 
d="M217 0v82h-149v136h149v32l-14 27h-135v136h68l-151 309h280l95 -303h2l95 303h262l-153 -309h68v-136h-135l-14 -27v-32h149v-136h-149v-82h-268z" />
    <glyph glyph-name="brokenbar" unicode="&#xa6;" horiz-adv-x="222" 
d="M189 447h-156v294h156v-294zM189 -19h-156v294h156v-294z" />
    <glyph glyph-name="section" unicode="&#xa7;" horiz-adv-x="704" 
d="M622 382q0 -108 -114 -147q73 -32 73 -107q0 -147 -244 -147q-123 0 -235 28v135q102 -35 160 -35q45 0 45 34q0 16 -15 25.5t-63 28.5l-37 15q-52 21 -81 52t-29 83q0 49 31 85t83 46q-41 13 -64 42.5t-23 70.5q0 147 257 147q79 0 197 -20v-128q-72 21 -132 21
q-40 0 -40 -22q0 -10 11.5 -17t52.5 -24l56 -23q59 -24 85 -57.5t26 -85.5zM427 365q0 20 -21.5 34t-73.5 30q-48 -27 -48 -54q0 -18 21 -34t72 -37q50 25 50 61z" />
    <glyph glyph-name="dieresis" unicode="&#xa8;" horiz-adv-x="278" 
d="M-63 552v170h164v-170h-164zM177 552v170h164v-170h-164z" />
    <glyph glyph-name="copyright" unicode="&#xa9;" horiz-adv-x="800" 
d="M780 361q0 -157 -111 -268.5t-269 -111.5t-269 111.5t-111 268.5t111 268.5t269 111.5t269 -111.5t111 -268.5zM662 361q0 109 -76.5 185.5t-185.5 76.5t-185.5 -76.5t-76.5 -185.5t76.5 -185.5t185.5 -76.5t185.5 76.5t76.5 185.5zM584 306q-10 -76 -60 -116.5
t-119 -40.5q-91 0 -147.5 60t-56.5 151q0 93 55 152.5t147 59.5q70 0 118.5 -39t62.5 -112h-106q-11 57 -78 57q-41 0 -64 -31.5t-23 -84.5q0 -52 24 -85.5t62 -33.5q72 0 79 63h106z" />
    <glyph glyph-name="ordfeminine" unicode="&#xaa;" horiz-adv-x="388" 
d="M127 411q-54 0 -84 25.5t-30 71.5q0 112 176 112q13 0 23 -1v23q0 21 -25 21q-14 0 -20 -7t-6 -23h-132q0 106 164 106q79 0 124 -24q42 -22 42 -92v-170l1 -34h-142l-2 27q-20 -20 -39 -27.5t-50 -7.5zM182 496q32 0 32 36v23h-9q-53 0 -53 -33q0 -26 30 -26z" />
    <glyph glyph-name="guillemotleft" unicode="&#xab;" horiz-adv-x="648" 
d="M632 0h-195l-151 250l151 250h195l-110 -250zM352 0h-195l-151 250l151 250h195l-110 -250z" />
    <glyph glyph-name="logicalnot" unicode="&#xac;" horiz-adv-x="600" 
d="M417 126v181h-370v136h506v-317h-136z" />
    <glyph glyph-name="uni00AD" unicode="&#xad;" horiz-adv-x="407" 
d="M29 182v170h349v-170h-349z" />
    <glyph glyph-name="registered" unicode="&#xae;" horiz-adv-x="400" 
d="M383 557q0 -76 -53.5 -129.5t-129.5 -53.5t-130 53.5t-54 129.5q0 77 54 130.5t130 53.5t129.5 -54t53.5 -130zM342 557q0 59 -41.5 101t-100.5 42q-60 0 -101.5 -41.5t-41.5 -101.5q0 -59 42 -100.5t101 -41.5q58 0 100 41.5t42 100.5zM291 454h-61q-4 12 -3.5 32.5
t-6 28.5t-30.5 8h-8v-69h-63v206h81q41 0 65 -12.5t24 -49.5q0 -38 -35 -50q21 -10 27 -24t6 -35.5t4 -34.5zM226 593q0 21 -31 21h-13v-44h13q31 0 31 23z" />
    <glyph glyph-name="macron" unicode="&#xaf;" horiz-adv-x="278" 
d="M-75 581v118h428v-118h-428z" />
    <glyph glyph-name="degree" unicode="&#xb0;" horiz-adv-x="400" 
d="M57 598q0 59 42 101t101 42t101 -42t42 -101t-42 -101t-101 -42t-101 42t-42 101zM145 598q0 -22 16.5 -38.5t38.5 -16.5t38.5 16.5t16.5 38.5t-16.5 38.5t-38.5 16.5t-38.5 -16.5t-16.5 -38.5z" />
    <glyph glyph-name="plusminus" unicode="&#xb1;" horiz-adv-x="600" 
d="M232 401v105h136v-105h185v-136h-185v-105h-136v105h-185v136h185zM47 0v136h506v-136h-506z" />
    <glyph glyph-name="twosuperior" unicode="&#xb2;" horiz-adv-x="444" 
d="M25 289v116l100 62q45 28 84 63q36 36 36 64t-29 28q-35 0 -35 -44v-4h-160v5q0 151 196 151q191 0 191 -135q0 -62 -48 -107q-28 -27 -44.5 -38.5t-68.5 -42.5h162v-118h-384z" />
    <glyph glyph-name="threesuperior" unicode="&#xb3;" horiz-adv-x="444" 
d="M217 277q-202 0 -202 147v5h156q0 -47 40 -47q38 0 38 37q0 22 -16.5 31.5t-53.5 9.5q-12 0 -21 -1v98q5 0 12 -0.5t10 -0.5q36 0 50.5 9t14.5 31q0 32 -36 32q-18 0 -25.5 -9.5t-7.5 -32.5v-4h-154v5q0 145 195 145q93 0 143 -32t50 -92q0 -35 -22 -60q-18 -21 -55 -32
q43 -10 61 -31q24 -25 24 -68q0 -67 -52.5 -103.5t-148.5 -36.5z" />
    <glyph glyph-name="acute" unicode="&#xb4;" horiz-adv-x="278" 
d="M16 552l98 170h232l-154 -170h-176z" />
    <glyph glyph-name="mu" unicode="&#xb5;" horiz-adv-x="648" 
d="M370 189v313h242v-502h-236l-6 76h-2q-38 -91 -74 -91q-10 0 -16 4v-181h-242v694h242v-315q0 -25 12.5 -39.5t31.5 -14.5q48 0 48 56z" />
    <glyph glyph-name="paragraph" unicode="&#xb6;" horiz-adv-x="620" 
d="M584 -192h-152v788h-70v-788h-152v431q-194 24 -194 224q0 122 73.5 190.5t193.5 68.5h301v-914z" />
    <glyph glyph-name="periodcentered" unicode="&#xb7;" horiz-adv-x="352" 
d="M297 182h-243v208h243v-208z" />
    <glyph glyph-name="cedilla" unicode="&#xb8;" horiz-adv-x="278" 
d="M55 -92l51 92h82l-32 -56h2q10 3 29 3q41 0 68 -23t27 -62q0 -49 -41 -77.5t-106 -28.5q-81 0 -139 28l27 64q51 -24 89 -24q20 0 36 10t16 24q0 13 -12 20t-28 7q-12 0 -31 -7z" />
    <glyph glyph-name="onesuperior" unicode="&#xb9;" horiz-adv-x="444" 
d="M151 289v273q-52 -35 -95 -43v128q54 18 80 33.5t51 41.5h139v-433h-175z" />
    <glyph glyph-name="ordmasculine" unicode="&#xba;" horiz-adv-x="434" 
d="M210 406q-89 0 -139.5 44t-50.5 122q0 80 51.5 124.5t142.5 44.5q97 0 149 -43.5t52 -124.5q0 -82 -52 -124.5t-153 -42.5zM217 494q18 0 25 18.5t7 64.5q0 41 -7 57.5t-23 16.5q-18 0 -25 -16.5t-7 -67.5q0 -42 6.5 -57.5t23.5 -15.5z" />
    <glyph glyph-name="guillemotright" unicode="&#xbb;" horiz-adv-x="648" 
d="M642 250l-151 -250h-195l110 250l-110 250h195zM362 250l-151 -250h-195l110 250l-110 250h195z" />
    <glyph glyph-name="onequarter" unicode="&#xbc;" horiz-adv-x="1055" 
d="M147 289v273q-52 -35 -95 -43v128q54 18 80 33.5t51 41.5h139v-433h-175zM264 -25l403 772h106l-403 -772h-106zM823 0v68h-204v125l150 240h217v-249h54v-116h-54v-68h-163zM752 184h71v126q-11 -18 -71 -126z" />
    <glyph glyph-name="onehalf" unicode="&#xbd;" horiz-adv-x="1055" 
d="M147 289v273q-52 -35 -95 -43v128q54 18 80 33.5t51 41.5h139v-433h-175zM255 -25l403 772h106l-403 -772h-106zM636 0v116l100 62q45 28 84 63q36 36 36 64t-29 28q-35 0 -35 -44v-4h-160v5q0 151 196 151q191 0 191 -135q0 -62 -48 -107q-28 -27 -44.5 -38.5
t-68.5 -42.5h162v-118h-384z" />
    <glyph glyph-name="threequarters" unicode="&#xbe;" horiz-adv-x="1055" 
d="M217 277q-202 0 -202 147v5h156q0 -47 40 -47q38 0 38 37q0 22 -16.5 31.5t-53.5 9.5q-12 0 -21 -1v98q5 0 12 -0.5t10 -0.5q36 0 50.5 9t14.5 31q0 32 -36 32q-18 0 -25.5 -9.5t-7.5 -32.5v-4h-154v5q0 145 195 145q93 0 143 -32t50 -92q0 -35 -22 -60q-18 -21 -55 -32
q43 -10 61 -31q24 -25 24 -68q0 -67 -52.5 -103.5t-148.5 -36.5zM276 -25l403 772h106l-403 -772h-106zM807 0v68h-204v125l150 240h217v-249h54v-116h-54v-68h-163zM736 184h71v126q-11 -18 -71 -126z" />
    <glyph glyph-name="questiondown" unicode="&#xbf;" horiz-adv-x="537" 
d="M204 280v49h242v-64q0 -54 -44 -100l-73 -74q-25 -26 -25 -52q0 -49 70 -49q59 0 133 30v-188q-105 -36 -210 -36q-121 0 -199 50t-78 148q0 50 16 83t50 62l84 72q34 29 34 69zM204 373v164h242v-164h-242z" />
    <glyph glyph-name="Agrave" unicode="&#xc0;" horiz-adv-x="796" 
d="M816 0h-298l-28 116h-208l-29 -116h-272l232 722h371zM448 292l-59 271l-64 -271h123zM335 772l-154 170h232l98 -170h-176z" />
    <glyph glyph-name="Aacute" unicode="&#xc1;" horiz-adv-x="796" 
d="M816 0h-298l-28 116h-208l-29 -116h-272l232 722h371zM448 292l-59 271l-64 -271h123zM275 772l98 170h232l-154 -170h-176z" />
    <glyph glyph-name="Acircumflex" unicode="&#xc2;" horiz-adv-x="796" 
d="M816 0h-298l-28 116h-208l-29 -116h-272l232 722h371zM448 292l-59 271l-64 -271h123zM435 772l-44 76l-44 -76h-182l114 170h224l114 -170h-182z" />
    <glyph glyph-name="Atilde" unicode="&#xc3;" horiz-adv-x="796" 
d="M816 0h-298l-28 116h-208l-29 -116h-272l232 722h371zM448 292l-59 271l-64 -271h123zM483 936h124q0 -164 -139 -164q-26 0 -82 17t-68 17q-19 0 -19 -28h-124v19q0 64 34 104.5t92 40.5q32 0 91 -17t68 -17q22 0 23 28z" />
    <glyph glyph-name="Adieresis" unicode="&#xc4;" horiz-adv-x="796" 
d="M816 0h-298l-28 116h-208l-29 -116h-272l232 722h371zM448 292l-59 271l-64 -271h123zM189 772v170h164v-170h-164zM429 772v170h164v-170h-164z" />
    <glyph glyph-name="Aring" unicode="&#xc5;" horiz-adv-x="796" 
d="M816 0h-298l-28 116h-208l-29 -116h-272l232 722h371zM448 292l-59 271l-64 -271h123zM260 886q0 54 38.5 92.5t92.5 38.5t92.5 -38.5t38.5 -92.5t-38.5 -92.5t-92.5 -38.5t-92.5 38.5t-38.5 92.5zM348 886q0 -18 12.5 -30.5t30.5 -12.5t30.5 12.5t12.5 30.5t-12.5 30.5
t-30.5 12.5t-30.5 -12.5t-12.5 -30.5z" />
    <glyph glyph-name="AE" unicode="&#xc6;" horiz-adv-x="1000" 
d="M975 722v-190h-255l7 -81h229v-180h-208l9 -86h224v-185h-468l-12 116h-212l-42 -116h-269l305 722h692zM354 292h127l-25 280z" />
    <glyph glyph-name="Ccedilla" unicode="&#xc7;" horiz-adv-x="758" 
d="M295 -92l42 76q-150 15 -231.5 113t-81.5 264q0 178 97.5 277t272.5 99q155 0 246 -70.5t91 -216.5v-1h-263q-4 52 -20 74.5t-48 22.5q-27 0 -44 -13.5t-24 -42.5t-9 -55.5t-2 -71.5q0 -48 2 -76t9.5 -58.5t24.5 -44.5t44 -14q32 0 48 22.5t19 73.5h268v-1
q0 -127 -84.5 -202t-234.5 -81l-21 -38h2q10 3 29 3q41 0 68 -23t27 -62q0 -49 -41 -77.5t-106 -28.5q-81 0 -139 28l27 64q51 -24 89 -24q20 0 36 10t16 24q0 13 -12 20t-28 7q-12 0 -31 -7z" />
    <glyph glyph-name="Egrave" unicode="&#xc8;" 
d="M609 0h-558v722h549v-188h-274v-78h253v-187h-253v-81h283v-188zM252 772l-154 170h232l98 -170h-176z" />
    <glyph glyph-name="Eacute" unicode="&#xc9;" 
d="M609 0h-558v722h549v-188h-274v-78h253v-187h-253v-81h283v-188zM192 772l98 170h232l-154 -170h-176z" />
    <glyph glyph-name="Ecircumflex" unicode="&#xca;" 
d="M609 0h-558v722h549v-188h-274v-78h253v-187h-253v-81h283v-188zM359 772l-44 76l-44 -76h-182l114 170h224l114 -170h-182z" />
    <glyph glyph-name="Edieresis" unicode="&#xcb;" 
d="M609 0h-558v722h549v-188h-274v-78h253v-187h-253v-81h283v-188zM113 772v170h164v-170h-164zM353 772v170h164v-170h-164z" />
    <glyph glyph-name="Igrave" unicode="&#xcc;" horiz-adv-x="388" 
d="M336 0h-285v722h285v-722zM131 772l-154 170h232l98 -170h-176z" />
    <glyph glyph-name="Iacute" unicode="&#xcd;" horiz-adv-x="388" 
d="M336 0h-285v722h285v-722zM71 772l98 170h232l-154 -170h-176z" />
    <glyph glyph-name="Icircumflex" unicode="&#xce;" horiz-adv-x="388" 
d="M336 0h-285v722h285v-722zM238 772l-44 76l-44 -76h-182l114 170h224l114 -170h-182z" />
    <glyph glyph-name="Idieresis" unicode="&#xcf;" horiz-adv-x="388" 
d="M336 0h-285v722h285v-722zM-8 772v170h164v-170h-164zM232 772v170h164v-170h-164z" />
    <glyph glyph-name="Eth" unicode="&#xd0;" horiz-adv-x="796" 
d="M-7 428h56v294h324q81 0 125.5 -7.5t95.5 -28.5q84 -34 132 -119.5t48 -200.5q0 -99 -35.5 -181t-111.5 -129q-92 -56 -227 -56h-351v306h-56v122zM477 370q0 35 -1.5 57t-8 49.5t-19 43.5t-35.5 27t-57 11h-25v-130h82v-122h-82v-140h22q29 0 51 7.5t35 23.5t21 32
t11.5 43.5t4.5 46.5t1 51z" />
    <glyph glyph-name="Ntilde" unicode="&#xd1;" horiz-adv-x="832" 
d="M780 0h-342l-156 442v-442h-231v722h349l149 -435v435h231v-722zM509 936h124q0 -164 -139 -164q-26 0 -82 17t-68 17q-19 0 -19 -28h-124v19q0 64 34 104.5t92 40.5q32 0 91 -17t68 -17q22 0 23 28z" />
    <glyph glyph-name="Ograve" unicode="&#xd2;" horiz-adv-x="796" 
d="M771 361q0 -178 -100 -280t-274 -102q-173 0 -272.5 100.5t-99.5 276.5q0 183 100 284t281 101q173 0 269 -99.5t96 -280.5zM474 377q0 45 -2 72.5t-9 53t-22.5 37t-40.5 11.5q-46 0 -63 -46.5t-17 -151.5q0 -90 16 -136.5t59 -46.5q45 0 62 44.5t17 162.5zM336 772
l-154 170h232l98 -170h-176z" />
    <glyph glyph-name="Oacute" unicode="&#xd3;" horiz-adv-x="796" 
d="M771 361q0 -178 -100 -280t-274 -102q-173 0 -272.5 100.5t-99.5 276.5q0 183 100 284t281 101q173 0 269 -99.5t96 -280.5zM474 377q0 45 -2 72.5t-9 53t-22.5 37t-40.5 11.5q-46 0 -63 -46.5t-17 -151.5q0 -90 16 -136.5t59 -46.5q45 0 62 44.5t17 162.5zM276 772
l98 170h232l-154 -170h-176z" />
    <glyph glyph-name="Ocircumflex" unicode="&#xd4;" horiz-adv-x="796" 
d="M771 361q0 -178 -100 -280t-274 -102q-173 0 -272.5 100.5t-99.5 276.5q0 183 100 284t281 101q173 0 269 -99.5t96 -280.5zM474 377q0 45 -2 72.5t-9 53t-22.5 37t-40.5 11.5q-46 0 -63 -46.5t-17 -151.5q0 -90 16 -136.5t59 -46.5q45 0 62 44.5t17 162.5zM443 772
l-44 76l-44 -76h-182l114 170h224l114 -170h-182z" />
    <glyph glyph-name="Otilde" unicode="&#xd5;" horiz-adv-x="796" 
d="M771 361q0 -178 -100 -280t-274 -102q-173 0 -272.5 100.5t-99.5 276.5q0 183 100 284t281 101q173 0 269 -99.5t96 -280.5zM474 377q0 45 -2 72.5t-9 53t-22.5 37t-40.5 11.5q-46 0 -63 -46.5t-17 -151.5q0 -90 16 -136.5t59 -46.5q45 0 62 44.5t17 162.5zM491 936h124
q0 -164 -139 -164q-27 0 -82.5 17t-67.5 17q-19 0 -19 -28h-124v19q0 64 34 104.5t92 40.5q32 0 91 -17t68 -17q22 0 23 28z" />
    <glyph glyph-name="Odieresis" unicode="&#xd6;" horiz-adv-x="796" 
d="M771 361q0 -178 -100 -280t-274 -102q-173 0 -272.5 100.5t-99.5 276.5q0 183 100 284t281 101q173 0 269 -99.5t96 -280.5zM474 377q0 45 -2 72.5t-9 53t-22.5 37t-40.5 11.5q-46 0 -63 -46.5t-17 -151.5q0 -90 16 -136.5t59 -46.5q45 0 62 44.5t17 162.5zM197 772v170
h164v-170h-164zM437 772v170h164v-170h-164z" />
    <glyph glyph-name="multiply" unicode="&#xd7;" horiz-adv-x="600" 
d="M152 11l-94 94l149 148l-149 148l94 94l148 -148l148 148l94 -94l-149 -148l149 -148l-94 -94l-148 148z" />
    <glyph glyph-name="Oslash" unicode="&#xd8;" horiz-adv-x="796" 
d="M139 -100l-95 68l79 112q-99 102 -99 276q0 182 99.5 283.5t277.5 101.5q108 0 175 -32l71 100l89 -64l-68 -97q102 -102 102 -286q0 -177 -100 -280t-272 -103q-101 0 -179 35zM342 187q17 -17 55 -17q53 0 73 44.5t20 159.5q0 14 -1 20v2zM452 536q-20 15 -56 15
q-49 0 -67 -38q-24 -50 -24 -152q0 -15 1 -26v-2z" />
    <glyph glyph-name="Ugrave" unicode="&#xd9;" horiz-adv-x="778" 
d="M733 270q0 -98 -30 -153q-36 -64 -122.5 -101t-200.5 -37q-95 0 -178 29t-124 98q-32 53 -32 137v479h287v-465q0 -81 59 -81q29 0 44.5 20t15.5 57v469h281v-452zM326 772l-154 170h232l98 -170h-176z" />
    <glyph glyph-name="Uacute" unicode="&#xda;" horiz-adv-x="778" 
d="M733 270q0 -98 -30 -153q-36 -64 -122.5 -101t-200.5 -37q-95 0 -178 29t-124 98q-32 53 -32 137v479h287v-465q0 -81 59 -81q29 0 44.5 20t15.5 57v469h281v-452zM286 772l98 170h232l-154 -170h-176z" />
    <glyph glyph-name="Ucircumflex" unicode="&#xdb;" horiz-adv-x="778" 
d="M733 270q0 -98 -30 -153q-36 -64 -122.5 -101t-200.5 -37q-95 0 -178 29t-124 98q-32 53 -32 137v479h287v-465q0 -81 59 -81q29 0 44.5 20t15.5 57v469h281v-452zM433 772l-44 76l-44 -76h-182l114 170h224l114 -170h-182z" />
    <glyph glyph-name="Udieresis" unicode="&#xdc;" horiz-adv-x="778" 
d="M733 270q0 -98 -30 -153q-36 -64 -122.5 -101t-200.5 -37q-95 0 -178 29t-124 98q-32 53 -32 137v479h287v-465q0 -81 59 -81q29 0 44.5 20t15.5 57v469h281v-452zM187 772v170h164v-170h-164zM427 772v170h164v-170h-164z" />
    <glyph glyph-name="Yacute" unicode="&#xdd;" horiz-adv-x="740" 
d="M758 722l-245 -472v-250h-285v250l-246 472h296l103 -303l101 303h276zM267 772l98 170h232l-154 -170h-176z" />
    <glyph glyph-name="Thorn" unicode="&#xde;" horiz-adv-x="740" 
d="M51 0v722h287v-113h118q90 0 146 -24q58 -24 92 -81t34 -130q0 -101 -63 -166q-36 -36 -79 -52q-36 -14 -69.5 -19t-96.5 -5h-82v-132h-287zM338 296h14q53 0 77 18.5t24 61.5q0 74 -90 74h-25v-154z" />
    <glyph glyph-name="germandbls" unicode="&#xdf;" horiz-adv-x="758" 
d="M35 0v506q0 123 77 179.5t249 56.5q150 0 232.5 -45.5t82.5 -128.5q0 -36 -11.5 -57.5t-53.5 -59.5q-28 -26 -35.5 -35t-7.5 -18q0 -10 15.5 -23.5t67.5 -46.5q54 -34 77 -67.5t23 -81.5q0 -90 -67 -144t-189 -54q-101 0 -149 42.5t-48 131.5v14h173v-5q0 -44 31 -44
q30 0 30 40q0 10 -2 16.5t-17 21t-44 34.5l-51 33q-48 31 -67.5 58.5t-19.5 62.5q0 56 45 93q35 29 50.5 47.5t15.5 38.5q0 23 -18.5 37.5t-49.5 14.5q-47 0 -72.5 -36t-25.5 -101v-480h-241z" />
    <glyph glyph-name="agrave" unicode="&#xe0;" horiz-adv-x="592" 
d="M553 0h-212l-4 53q-55 -66 -146 -66q-83 0 -129.5 40.5t-46.5 113.5q0 53 25 90t67.5 54.5t86 25t93.5 7.5q26 0 45 -1v43q0 40 -46 40t-47 -48h-199v1q0 48 31 87q57 73 224 73q127 0 194 -38q38 -21 51 -57t13 -88v-330zM335 197v26q-20 2 -22 2q-89 0 -89 -62
q0 -48 55 -48q30 0 43 19t13 63zM419 552h-177l-154 170h235z" />
    <glyph glyph-name="aacute" unicode="&#xe1;" horiz-adv-x="592" 
d="M553 0h-212l-4 53q-55 -66 -146 -66q-83 0 -129.5 40.5t-46.5 113.5q0 53 25 90t67.5 54.5t86 25t93.5 7.5q26 0 45 -1v43q0 40 -46 40t-47 -48h-199v1q0 48 31 87q57 73 224 73q127 0 194 -38q38 -21 51 -57t13 -88v-330zM335 197v26q-20 2 -22 2q-89 0 -89 -62
q0 -48 55 -48q30 0 43 19t13 63zM183 552l98 170h232l-154 -170h-176z" />
    <glyph glyph-name="acircumflex" unicode="&#xe2;" horiz-adv-x="592" 
d="M553 0h-212l-4 53q-55 -66 -146 -66q-83 0 -129.5 40.5t-46.5 113.5q0 53 25 90t67.5 54.5t86 25t93.5 7.5q26 0 45 -1v43q0 40 -46 40t-47 -48h-199v1q0 48 31 87q57 73 224 73q127 0 194 -38q38 -21 51 -57t13 -88v-330zM335 197v26q-20 2 -22 2q-89 0 -89 -62
q0 -48 55 -48q30 0 43 19t13 63zM333 552l-44 76l-44 -76h-182l114 170h224l114 -170h-182z" />
    <glyph glyph-name="atilde" unicode="&#xe3;" horiz-adv-x="592" 
d="M553 0h-212l-4 53q-55 -66 -146 -66q-83 0 -129.5 40.5t-46.5 113.5q0 53 25 90t67.5 54.5t86 25t93.5 7.5q26 0 45 -1v43q0 40 -46 40t-47 -48h-199v1q0 48 31 87q57 73 224 73q127 0 194 -38q38 -21 51 -57t13 -88v-330zM335 197v26q-20 2 -22 2q-89 0 -89 -62
q0 -48 55 -48q30 0 43 19t13 63zM381 716h124q0 -164 -139 -164q-26 0 -82 17t-68 17q-19 0 -19 -28h-124v19q0 64 34 104.5t92 40.5q32 0 91 -17t68 -17q22 0 23 28z" />
    <glyph glyph-name="adieresis" unicode="&#xe4;" horiz-adv-x="592" 
d="M553 0h-212l-4 53q-55 -66 -146 -66q-83 0 -129.5 40.5t-46.5 113.5q0 53 25 90t67.5 54.5t86 25t93.5 7.5q26 0 45 -1v43q0 40 -46 40t-47 -48h-199v1q0 48 31 87q57 73 224 73q127 0 194 -38q38 -21 51 -57t13 -88v-330zM335 197v26q-20 2 -22 2q-89 0 -89 -62
q0 -48 55 -48q30 0 43 19t13 63zM87 552v170h164v-170h-164zM327 552v170h164v-170h-164z" />
    <glyph glyph-name="aring" unicode="&#xe5;" horiz-adv-x="592" 
d="M553 0h-212l-4 53q-55 -66 -146 -66q-83 0 -129.5 40.5t-46.5 113.5q0 53 25 90t67.5 54.5t86 25t93.5 7.5q26 0 45 -1v43q0 40 -46 40t-47 -48h-199v1q0 48 31 87q57 73 224 73q127 0 194 -38q38 -21 51 -57t13 -88v-330zM335 197v26q-20 2 -22 2q-89 0 -89 -62
q0 -48 55 -48q30 0 43 19t13 63zM168 681q0 54 38.5 92.5t92.5 38.5t92.5 -38.5t38.5 -92.5t-38.5 -92.5t-92.5 -38.5t-92.5 38.5t-38.5 92.5zM256 681q0 -18 12.5 -30.5t30.5 -12.5t30.5 12.5t12.5 30.5t-12.5 30.5t-30.5 12.5t-30.5 -12.5t-12.5 -30.5z" />
    <glyph glyph-name="ae" unicode="&#xe6;" horiz-adv-x="906" 
d="M665 163h208q-9 -88 -80.5 -134t-183.5 -46q-129 0 -187 71q-35 -39 -79 -55t-115 -16q-101 0 -158.5 43t-57.5 119q0 72 55 118q38 32 93 41.5t163 9.5h8q1 14 1 31q0 36 -11 50t-38 14q-44 0 -45 -56h-198q1 79 61.5 123t165.5 44q126 0 186 -57q67 57 167 57
q122 0 193 -75t71 -204q0 -16 -2 -34h-347v-12q0 -91 67 -91q27 0 44 15.5t19 43.5zM667 314v7q0 37 -17 57.5t-47 20.5q-31 0 -48.5 -21t-17.5 -58v-6h130zM334 221q-11 1 -22 1q-46 0 -67.5 -13.5t-21.5 -42.5q0 -24 14.5 -38.5t39.5 -14.5q31 0 44 20t13 66v22z" />
    <glyph glyph-name="ccedilla" unicode="&#xe7;" 
d="M228 -92l44 79q-246 21 -246 266q0 124 79.5 194t219.5 70q131 0 204.5 -57t73.5 -158v-1h-223q-1 48 -13 68.5t-40 20.5q-14 0 -24.5 -4.5t-16.5 -16.5t-9.5 -23t-5 -34.5t-2 -39t-0.5 -47.5q0 -70 12 -91q14 -24 46 -24q53 0 53 96h227q0 -209 -254 -220l-24 -42h2
q11 3 29 3q41 0 68 -23t27 -62q0 -49 -41 -77.5t-106 -28.5q-81 0 -139 28l27 64q51 -24 89 -24q20 0 36 10t16 24q0 13 -12 20t-28 7q-12 0 -31 -7z" />
    <glyph glyph-name="egrave" unicode="&#xe8;" 
d="M605 208h-347v-1v-22q0 -79 67 -79q55 0 63 58h210q0 -22 -14 -51t-31 -48q-69 -81 -241 -81q-137 0 -212 67.5t-75 203.5t83 200.5t223 64.5q274 0 274 -285v-27zM388 315q0 41 -12.5 62t-51.5 21q-38 0 -52 -21.5t-14 -61.5h130zM428 552h-177l-154 170h235z" />
    <glyph glyph-name="eacute" unicode="&#xe9;" 
d="M605 208h-347v-1v-22q0 -79 67 -79q55 0 63 58h210q0 -22 -14 -51t-31 -48q-69 -81 -241 -81q-137 0 -212 67.5t-75 203.5t83 200.5t223 64.5q274 0 274 -285v-27zM388 315q0 41 -12.5 62t-51.5 21q-38 0 -52 -21.5t-14 -61.5h130zM192 552l98 170h232l-154 -170h-176z
" />
    <glyph glyph-name="ecircumflex" unicode="&#xea;" 
d="M605 208h-347v-1v-22q0 -79 67 -79q55 0 63 58h210q0 -22 -14 -51t-31 -48q-69 -81 -241 -81q-137 0 -212 67.5t-75 203.5t83 200.5t223 64.5q274 0 274 -285v-27zM388 315q0 41 -12.5 62t-51.5 21q-38 0 -52 -21.5t-14 -61.5h130zM365 552l-44 76l-44 -76h-182l114 170
h224l114 -170h-182z" />
    <glyph glyph-name="edieresis" unicode="&#xeb;" 
d="M605 208h-347v-1v-22q0 -79 67 -79q55 0 63 58h210q0 -22 -14 -51t-31 -48q-69 -81 -241 -81q-137 0 -212 67.5t-75 203.5t83 200.5t223 64.5q274 0 274 -285v-27zM388 315q0 41 -12.5 62t-51.5 21q-38 0 -52 -21.5t-14 -61.5h130zM119 552v170h164v-170h-164zM359 552
v170h164v-170h-164z" />
    <glyph glyph-name="igrave" unicode="&#xec;" horiz-adv-x="314" 
d="M36 0v500h242v-500h-242zM270 552h-177l-154 170h235z" />
    <glyph glyph-name="iacute" unicode="&#xed;" horiz-adv-x="314" 
d="M36 0v500h242v-500h-242zM34 552l98 170h232l-154 -170h-176z" />
    <glyph glyph-name="icircumflex" unicode="&#xee;" horiz-adv-x="314" 
d="M36 0v500h242v-500h-242zM201 552l-44 76l-44 -76h-182l114 170h224l114 -170h-182z" />
    <glyph glyph-name="idieresis" unicode="&#xef;" horiz-adv-x="314" 
d="M36 0v500h242v-500h-242zM-45 552v170h164v-170h-164zM195 552v170h164v-170h-164z" />
    <glyph glyph-name="eth" unicode="&#xf0;" horiz-adv-x="666" 
d="M82 562l101 51q-28 17 -76 32l106 124q72 -22 144 -64l112 58l82 -63l-102 -52q93 -67 137 -155.5t44 -206.5q0 -143 -75.5 -223.5t-225.5 -80.5q-137 0 -216 67.5t-79 183.5q0 106 69.5 175t176.5 69q56 0 96 -27q-10 33 -31 57.5t-65 54.5l-105 -56zM329 115
q30 0 43 28.5t13 99.5q0 58 -10.5 80.5t-38.5 22.5q-31 0 -44 -26t-13 -94q0 -65 10.5 -88t39.5 -23z" />
    <glyph glyph-name="ntilde" unicode="&#xf1;" horiz-adv-x="648" 
d="M612 0h-242v307q0 59 -44 59q-45 0 -45 -63v-303h-244v500h233l5 -74q52 90 162 90q81 0 125 -41q23 -21 35 -53t13.5 -54.5t1.5 -64.5v-303zM417 716h124q0 -164 -139 -164q-26 0 -82 17t-68 17q-19 0 -19 -28h-124v19q0 64 34 104.5t92 40.5q32 0 91 -17t68 -17
q22 0 23 28z" />
    <glyph glyph-name="ograve" unicode="&#xf2;" horiz-adv-x="666" 
d="M640 252q0 -268 -322 -268q-131 0 -212 68.5t-81 198.5q0 133 83 201.5t219 68.5q142 0 227.5 -66t85.5 -203zM389 259q0 69 -13 98.5t-42 29.5q-32 0 -43.5 -32t-11.5 -96q0 -78 9.5 -110t43.5 -32q19 0 31 11t17.5 33.5t7 43.5t1.5 54zM436 552h-177l-154 170h235z" />
    <glyph glyph-name="oacute" unicode="&#xf3;" horiz-adv-x="666" 
d="M640 252q0 -268 -322 -268q-131 0 -212 68.5t-81 198.5q0 133 83 201.5t219 68.5q142 0 227.5 -66t85.5 -203zM389 259q0 69 -13 98.5t-42 29.5q-32 0 -43.5 -32t-11.5 -96q0 -78 9.5 -110t43.5 -32q19 0 31 11t17.5 33.5t7 43.5t1.5 54zM220 552l98 170h232l-154 -170
h-176z" />
    <glyph glyph-name="ocircumflex" unicode="&#xf4;" horiz-adv-x="666" 
d="M640 252q0 -268 -322 -268q-131 0 -212 68.5t-81 198.5q0 133 83 201.5t219 68.5q142 0 227.5 -66t85.5 -203zM389 259q0 69 -13 98.5t-42 29.5q-32 0 -43.5 -32t-11.5 -96q0 -78 9.5 -110t43.5 -32q19 0 31 11t17.5 33.5t7 43.5t1.5 54zM377 552l-44 76l-44 -76h-182
l114 170h224l114 -170h-182z" />
    <glyph glyph-name="otilde" unicode="&#xf5;" horiz-adv-x="666" 
d="M640 252q0 -268 -322 -268q-131 0 -212 68.5t-81 198.5q0 133 83 201.5t219 68.5q142 0 227.5 -66t85.5 -203zM389 259q0 69 -13 98.5t-42 29.5q-32 0 -43.5 -32t-11.5 -96q0 -78 9.5 -110t43.5 -32q19 0 31 11t17.5 33.5t7 43.5t1.5 54zM425 716h124q0 -164 -139 -164
q-26 0 -82 17t-68 17q-19 0 -19 -28h-124v19q0 64 34 104.5t92 40.5q32 0 91 -17t68 -17q22 0 23 28z" />
    <glyph glyph-name="odieresis" unicode="&#xf6;" horiz-adv-x="666" 
d="M640 252q0 -268 -322 -268q-131 0 -212 68.5t-81 198.5q0 133 83 201.5t219 68.5q142 0 227.5 -66t85.5 -203zM389 259q0 69 -13 98.5t-42 29.5q-32 0 -43.5 -32t-11.5 -96q0 -78 9.5 -110t43.5 -32q19 0 31 11t17.5 33.5t7 43.5t1.5 54zM131 552v170h164v-170h-164z
M371 552v170h164v-170h-164z" />
    <glyph glyph-name="divide" unicode="&#xf7;" horiz-adv-x="600" 
d="M47 185v136h506v-136h-506zM209 46q0 38 26.5 64.5t64.5 26.5t64.5 -26.5t26.5 -64.5t-26.5 -64.5t-64.5 -26.5t-64.5 26.5t-26.5 64.5zM209 460q0 38 26.5 64.5t64.5 26.5t64.5 -26.5t26.5 -64.5t-26.5 -64.5t-64.5 -26.5t-64.5 26.5t-26.5 64.5z" />
    <glyph glyph-name="oslash" unicode="&#xf8;" horiz-adv-x="666" 
d="M124 -89l-71 57l60 79q-89 72 -89 204q0 125 79.5 197.5t218.5 72.5q81 0 147 -20l67 84l73 -54l-59 -74q89 -71 89 -205q0 -130 -79.5 -199t-240.5 -69q-69 0 -125 19zM378 383q-17 14 -43 14q-40 0 -54.5 -33.5t-14.5 -121.5v-3zM293 128q15 -12 38 -12q38 0 54.5 30.5
t16.5 101.5v19z" />
    <glyph glyph-name="ugrave" unicode="&#xf9;" horiz-adv-x="648" 
d="M611 0h-233l-5 74q-52 -90 -162 -90q-81 0 -125 41q-23 21 -35 53t-13.5 54.5t-1.5 64.5v303h242v-307q0 -59 44 -59q45 0 45 64v302h244v-500zM417 552h-177l-154 170h235z" />
    <glyph glyph-name="uacute" unicode="&#xfa;" horiz-adv-x="648" 
d="M611 0h-233l-5 74q-52 -90 -162 -90q-81 0 -125 41q-23 21 -35 53t-13.5 54.5t-1.5 64.5v303h242v-307q0 -59 44 -59q45 0 45 64v302h244v-500zM201 552l98 170h232l-154 -170h-176z" />
    <glyph glyph-name="ucircumflex" unicode="&#xfb;" horiz-adv-x="648" 
d="M611 0h-233l-5 74q-52 -90 -162 -90q-81 0 -125 41q-23 21 -35 53t-13.5 54.5t-1.5 64.5v303h242v-307q0 -59 44 -59q45 0 45 64v302h244v-500zM368 552l-44 76l-44 -76h-182l114 170h224l114 -170h-182z" />
    <glyph glyph-name="udieresis" unicode="&#xfc;" horiz-adv-x="648" 
d="M611 0h-233l-5 74q-52 -90 -162 -90q-81 0 -125 41q-23 21 -35 53t-13.5 54.5t-1.5 64.5v303h242v-307q0 -59 44 -59q45 0 45 64v302h244v-500zM122 552v170h164v-170h-164zM362 552v170h164v-170h-164z" />
    <glyph glyph-name="yacute" unicode="&#xfd;" 
d="M634 500l-238 -692h-261l66 177l-204 515h258l70 -274l68 274h241zM202 552l98 170h232l-154 -170h-176z" />
    <glyph glyph-name="thorn" unicode="&#xfe;" horiz-adv-x="666" 
d="M39 722h236v-280q53 74 149 74q100 0 156 -72.5t56 -202.5q0 -121 -54 -189.5t-149 -68.5q-93 0 -149 61v-236h-245v914zM332 372q-30 0 -41 -23.5t-11 -97.5v-11q0 -68 12.5 -90.5t42.5 -22.5t42.5 25t12.5 98q0 68 -13 95t-45 27z" />
    <glyph glyph-name="ydieresis" unicode="&#xff;" 
d="M634 500l-238 -692h-261l66 177l-204 515h258l70 -274l68 274h241zM123 552v170h164v-170h-164zM363 552v170h164v-170h-164z" />
    <glyph glyph-name="Amacron" unicode="&#x100;" horiz-adv-x="796" 
d="M816 0h-298l-28 116h-208l-29 -116h-272l232 722h371zM448 292l-59 271l-64 -271h123zM177 801v118h428v-118h-428z" />
    <glyph glyph-name="amacron" unicode="&#x101;" horiz-adv-x="592" 
d="M553 0h-212l-4 53q-55 -66 -146 -66q-83 0 -129.5 40.5t-46.5 113.5q0 53 25 90t67.5 54.5t86 25t93.5 7.5q26 0 45 -1v43q0 40 -46 40t-47 -48h-199v1q0 48 31 87q57 73 224 73q127 0 194 -38q38 -21 51 -57t13 -88v-330zM335 197v26q-20 2 -22 2q-89 0 -89 -62
q0 -48 55 -48q30 0 43 19t13 63zM75 581v118h428v-118h-428z" />
    <glyph glyph-name="Abreve" unicode="&#x102;" horiz-adv-x="796" 
d="M816 0h-298l-28 116h-208l-29 -116h-272l232 722h371zM448 292l-59 271l-64 -271h123zM194 942h148q1 -29 15.5 -43.5t33.5 -14.5t33.5 14.5t15.5 43.5h148q-10 -90 -63 -133t-134 -43t-134 43t-63 133z" />
    <glyph glyph-name="abreve" unicode="&#x103;" horiz-adv-x="592" 
d="M553 0h-212l-4 53q-55 -66 -146 -66q-83 0 -129.5 40.5t-46.5 113.5q0 53 25 90t67.5 54.5t86 25t93.5 7.5q26 0 45 -1v43q0 40 -46 40t-47 -48h-199v1q0 48 31 87q57 73 224 73q127 0 194 -38q38 -21 51 -57t13 -88v-330zM335 197v26q-20 2 -22 2q-89 0 -89 -62
q0 -48 55 -48q30 0 43 19t13 63zM92 722h148q1 -29 15.5 -43.5t33.5 -14.5t33.5 14.5t15.5 43.5h148q-10 -90 -63 -133t-134 -43t-134 43t-63 133z" />
    <glyph glyph-name="Aogonek" unicode="&#x104;" horiz-adv-x="796" 
d="M656 0h-138l-28 116h-208l-29 -116h-272l232 722h371l232 -722h-60q-110 -65 -110 -114q0 -20 14 -32t39 -12q33 0 60 11l17 -68q-57 -17 -121 -17q-69 0 -101 21t-32 67q0 47 38 84.5t96 59.5zM448 292l-59 271l-64 -271h123z" />
    <glyph glyph-name="aogonek" unicode="&#x105;" horiz-adv-x="592" 
d="M423 0h-82l-4 53q-55 -66 -146 -66q-83 0 -129.5 40.5t-46.5 113.5q0 53 25 90t67.5 54.5t86 25t93.5 7.5q26 0 45 -1v43q0 40 -46 40t-47 -48h-199v1q0 48 31 87q57 73 224 73q127 0 194 -38q38 -21 51 -57t13 -88v-330h-30q-110 -65 -110 -114q0 -20 14 -32t39 -12
q33 0 60 11l17 -68q-57 -17 -121 -17q-69 0 -101 21t-32 67q0 47 38 84.5t96 59.5zM335 197v26q-20 2 -22 2q-89 0 -89 -62q0 -48 55 -48q30 0 43 19t13 63z" />
    <glyph glyph-name="Cacute" unicode="&#x106;" horiz-adv-x="758" 
d="M736 265q0 -133 -91 -208.5t-252 -75.5q-176 0 -272.5 99t-96.5 281q0 178 97.5 277t272.5 99q155 0 246 -70.5t91 -216.5v-1h-263q-4 52 -20 74.5t-48 22.5q-27 0 -44 -13.5t-24 -42.5t-9 -55.5t-2 -71.5q0 -48 2 -76t9.5 -58.5t24.5 -44.5t44 -14q32 0 48 22.5t19 73.5
h268v-1zM282 772l98 170h232l-154 -170h-176z" />
    <glyph glyph-name="cacute" unicode="&#x107;" 
d="M607 206q0 -62 -23 -107t-63.5 -69t-88.5 -34.5t-107 -10.5q-299 0 -299 268q0 124 79.5 194t219.5 70q131 0 204.5 -57t73.5 -158v-1h-223q-1 48 -13 68.5t-40 20.5q-14 0 -24.5 -4.5t-16.5 -16.5t-9.5 -23t-5 -34.5t-2 -39t-0.5 -47.5q0 -70 12 -91q14 -24 46 -24
q53 0 53 96h227zM208 552l98 170h232l-154 -170h-176z" />
    <glyph glyph-name="Ccircumflex" unicode="&#x108;" horiz-adv-x="758" 
d="M736 265q0 -133 -91 -208.5t-252 -75.5q-176 0 -272.5 99t-96.5 281q0 178 97.5 277t272.5 99q155 0 246 -70.5t91 -216.5v-1h-263q-4 52 -20 74.5t-48 22.5q-27 0 -44 -13.5t-24 -42.5t-9 -55.5t-2 -71.5q0 -48 2 -76t9.5 -58.5t24.5 -44.5t44 -14q32 0 48 22.5t19 73.5
h268v-1zM445 772l-44 76l-44 -76h-182l114 170h224l114 -170h-182z" />
    <glyph glyph-name="ccircumflex" unicode="&#x109;" 
d="M607 206q0 -62 -23 -107t-63.5 -69t-88.5 -34.5t-107 -10.5q-299 0 -299 268q0 124 79.5 194t219.5 70q131 0 204.5 -57t73.5 -158v-1h-223q-1 48 -13 68.5t-40 20.5q-14 0 -24.5 -4.5t-16.5 -16.5t-9.5 -23t-5 -34.5t-2 -39t-0.5 -47.5q0 -70 12 -91q14 -24 46 -24
q53 0 53 96h227zM369 552l-44 76l-44 -76h-182l114 170h224l114 -170h-182z" />
    <glyph glyph-name="Cdotaccent" unicode="&#x10a;" horiz-adv-x="758" 
d="M736 265q0 -133 -91 -208.5t-252 -75.5q-176 0 -272.5 99t-96.5 281q0 178 97.5 277t272.5 99q155 0 246 -70.5t91 -216.5v-1h-263q-4 52 -20 74.5t-48 22.5q-27 0 -44 -13.5t-24 -42.5t-9 -55.5t-2 -71.5q0 -48 2 -76t9.5 -58.5t24.5 -44.5t44 -14q32 0 48 22.5t19 73.5
h268v-1zM319 772v170h164v-170h-164z" />
    <glyph glyph-name="cdotaccent" unicode="&#x10b;" 
d="M607 206q0 -62 -23 -107t-63.5 -69t-88.5 -34.5t-107 -10.5q-299 0 -299 268q0 124 79.5 194t219.5 70q131 0 204.5 -57t73.5 -158v-1h-223q-1 48 -13 68.5t-40 20.5q-14 0 -24.5 -4.5t-16.5 -16.5t-9.5 -23t-5 -34.5t-2 -39t-0.5 -47.5q0 -70 12 -91q14 -24 46 -24
q53 0 53 96h227zM243 552v170h164v-170h-164z" />
    <glyph glyph-name="Ccaron" unicode="&#x10c;" horiz-adv-x="758" 
d="M736 265q0 -133 -91 -208.5t-252 -75.5q-176 0 -272.5 99t-96.5 281q0 178 97.5 277t272.5 99q155 0 246 -70.5t91 -216.5v-1h-263q-4 52 -20 74.5t-48 22.5q-27 0 -44 -13.5t-24 -42.5t-9 -55.5t-2 -71.5q0 -48 2 -76t9.5 -58.5t24.5 -44.5t44 -14q32 0 48 22.5t19 73.5
h268v-1zM289 772l-114 170h182l44 -76l44 76h182l-114 -170h-224z" />
    <glyph glyph-name="ccaron" unicode="&#x10d;" 
d="M607 206q0 -62 -23 -107t-63.5 -69t-88.5 -34.5t-107 -10.5q-299 0 -299 268q0 124 79.5 194t219.5 70q131 0 204.5 -57t73.5 -158v-1h-223q-1 48 -13 68.5t-40 20.5q-14 0 -24.5 -4.5t-16.5 -16.5t-9.5 -23t-5 -34.5t-2 -39t-0.5 -47.5q0 -70 12 -91q14 -24 46 -24
q53 0 53 96h227zM213 552l-114 170h182l44 -76l44 76h182l-114 -170h-224z" />
    <glyph glyph-name="Dcaron" unicode="&#x10e;" horiz-adv-x="796" 
d="M774 366q0 -99 -35.5 -181t-111.5 -129q-92 -56 -227 -56h-351v722h324q81 0 125.5 -7.5t95.5 -28.5q84 -34 132 -119.5t48 -200.5zM477 370q0 35 -1.5 57t-8 49.5t-19 43.5t-35.5 27t-57 11h-25v-392h22q29 0 51 7.5t35 23.5t21 32t11.5 43.5t4.5 46.5t1 51zM219 772
l-114 170h182l44 -76l44 76h182l-114 -170h-224z" />
    <glyph glyph-name="dcaron" unicode="&#x10f;" horiz-adv-x="666" 
d="M625 0h-228l-8 58q-54 -74 -149 -74q-100 0 -156 72.5t-56 202.5q0 121 54 189.5t149 68.5q93 0 149 -61v266h245v-722zM384 249v11q0 21 -0.5 32.5t-3 29.5t-8 27t-16.5 16.5t-27 7.5q-25 0 -37.5 -18t-15 -40.5t-2.5 -64.5q0 -68 13 -95t45 -27q15 0 25.5 7t15.5 16
t8 27t3 28.5v32.5v10zM923 722l-131 -182h-136l42 182h225z" />
    <glyph glyph-name="Dcroat" unicode="&#x110;" horiz-adv-x="796" 
d="M-7 428h56v294h324q81 0 125.5 -7.5t95.5 -28.5q84 -34 132 -119.5t48 -200.5q0 -99 -35.5 -181t-111.5 -129q-92 -56 -227 -56h-351v306h-56v122zM477 370q0 35 -1.5 57t-8 49.5t-19 43.5t-35.5 27t-57 11h-25v-130h82v-122h-82v-140h22q29 0 51 7.5t35 23.5t21 32
t11.5 43.5t4.5 46.5t1 51z" />
    <glyph glyph-name="dcroat" unicode="&#x111;" horiz-adv-x="666" 
d="M267 670h113v52h245v-52h51v-138h-51v-532h-228l-8 58q-54 -74 -149 -74q-99 0 -155.5 71t-56.5 194q0 115 54.5 184t148.5 69q93 0 149 -61v91h-113v138zM332 128q18 0 29.5 8.5t16 26t5.5 31.5t1 39v12q0 21 -0.5 32.5t-3 29.5t-8 27t-16.5 16.5t-27 7.5
q-19 0 -30.5 -9t-16.5 -27.5t-6.5 -35t-1.5 -43.5q0 -61 13 -88t45 -27z" />
    <glyph glyph-name="Emacron" unicode="&#x112;" 
d="M609 0h-558v722h549v-188h-274v-78h253v-187h-253v-81h283v-188zM101 801v118h428v-118h-428z" />
    <glyph glyph-name="emacron" unicode="&#x113;" 
d="M605 208h-347v-1v-22q0 -79 67 -79q55 0 63 58h210q0 -22 -14 -51t-31 -48q-69 -81 -241 -81q-137 0 -212 67.5t-75 203.5t83 200.5t223 64.5q274 0 274 -285v-27zM388 315q0 41 -12.5 62t-51.5 21q-38 0 -52 -21.5t-14 -61.5h130zM107 581v118h428v-118h-428z" />
    <glyph glyph-name="Ebreve" unicode="&#x114;" 
d="M609 0h-558v722h549v-188h-274v-78h253v-187h-253v-81h283v-188zM118 942h148q1 -29 15.5 -43.5t33.5 -14.5t33.5 14.5t15.5 43.5h148q-10 -90 -63 -133t-134 -43t-134 43t-63 133z" />
    <glyph glyph-name="ebreve" unicode="&#x115;" 
d="M605 208h-347v-1v-22q0 -79 67 -79q55 0 63 58h210q0 -22 -14 -51t-31 -48q-69 -81 -241 -81q-137 0 -212 67.5t-75 203.5t83 200.5t223 64.5q274 0 274 -285v-27zM388 315q0 41 -12.5 62t-51.5 21q-38 0 -52 -21.5t-14 -61.5h130zM124 722h148q1 -29 15.5 -43.5
t33.5 -14.5t33.5 14.5t15.5 43.5h148q-10 -90 -63 -133t-134 -43t-134 43t-63 133z" />
    <glyph glyph-name="Edotaccent" unicode="&#x116;" 
d="M609 0h-558v722h549v-188h-274v-78h253v-187h-253v-81h283v-188zM233 772v170h164v-170h-164z" />
    <glyph glyph-name="edotaccent" unicode="&#x117;" 
d="M605 208h-347v-1v-22q0 -79 67 -79q55 0 63 58h210q0 -22 -14 -51t-31 -48q-69 -81 -241 -81q-137 0 -212 67.5t-75 203.5t83 200.5t223 64.5q274 0 274 -285v-27zM388 315q0 41 -12.5 62t-51.5 21q-38 0 -52 -21.5t-14 -61.5h130zM239 552v170h164v-170h-164z" />
    <glyph glyph-name="Eogonek" unicode="&#x118;" 
d="M489 0h-438v722h549v-188h-274v-78h253v-187h-253v-81h283v-188h-20q-110 -65 -110 -114q0 -20 14 -32t39 -12q32 0 60 11l17 -68q-57 -17 -121 -17q-69 0 -101 21t-32 67q0 47 38 84.5t96 59.5z" />
    <glyph glyph-name="eogonek" unicode="&#x119;" 
d="M605 208h-347v-23q0 -79 67 -79q55 0 63 58h210q0 -22 -14 -51t-31 -48q-41 -48 -111 -66q-107 -65 -107 -113q0 -20 14 -32t39 -12q32 0 60 11l17 -68q-57 -17 -121 -17q-69 0 -101 21t-32 67q0 76 98 128q-135 1 -209.5 68.5t-74.5 202.5q0 136 83 200.5t223 64.5
q274 0 274 -285v-27zM388 315q0 41 -12.5 62t-51.5 21q-38 0 -52 -21.5t-14 -61.5h130z" />
    <glyph glyph-name="Ecaron" unicode="&#x11a;" 
d="M609 0h-558v722h549v-188h-274v-78h253v-187h-253v-81h283v-188zM203 772l-114 170h182l44 -76l44 76h182l-114 -170h-224z" />
    <glyph glyph-name="ecaron" unicode="&#x11b;" 
d="M605 208h-347v-1v-22q0 -79 67 -79q55 0 63 58h210q0 -22 -14 -51t-31 -48q-69 -81 -241 -81q-137 0 -212 67.5t-75 203.5t83 200.5t223 64.5q274 0 274 -285v-27zM388 315q0 41 -12.5 62t-51.5 21q-38 0 -52 -21.5t-14 -61.5h130zM209 552l-114 170h182l44 -76l44 76
h182l-114 -170h-224z" />
    <glyph glyph-name="Gcircumflex" unicode="&#x11c;" horiz-adv-x="814" 
d="M773 28q-180 -49 -357 -49q-184 0 -286.5 97t-102.5 282t106 282t292 97q57 0 103 -6t90.5 -22t74 -42.5t48 -70.5t18.5 -102v-1h-266q-3 59 -70 59q-29 0 -49 -11t-31 -27.5t-16.5 -47.5t-7 -58.5t-1.5 -72.5q0 -33 1.5 -55t7 -46.5t16.5 -39t30 -24t47 -9.5q43 0 78 15
v90h-98v144h373v-382zM467 772l-44 76l-44 -76h-182l114 170h224l114 -170h-182z" />
    <glyph glyph-name="gcircumflex" unicode="&#x11d;" horiz-adv-x="666" 
d="M625 66q0 -63 -4.5 -91t-20.5 -62q-52 -117 -284 -117q-136 0 -204 48q-29 20 -45.5 54t-16.5 70h236q2 -41 51 -41q34 0 47.5 21t13.5 75v51q-45 -65 -152 -65q-108 0 -163.5 67t-55.5 177q0 112 55 186t163 74q99 0 146 -66l8 53h226v-434zM388 262q0 70 -16 92
q-13 18 -38 18q-14 0 -24.5 -5t-16.5 -16.5t-9.5 -21t-5 -29.5t-1.5 -30v-33q0 -21 1 -32t5 -27.5t15.5 -24.5t30.5 -8q18 0 29.5 7t17.5 15t9 28t3 30v37zM409 552l-44 76l-44 -76h-182l114 170h224l114 -170h-182z" />
    <glyph glyph-name="Gbreve" unicode="&#x11e;" horiz-adv-x="814" 
d="M773 28q-180 -49 -357 -49q-184 0 -286.5 97t-102.5 282t106 282t292 97q57 0 103 -6t90.5 -22t74 -42.5t48 -70.5t18.5 -102v-1h-266q-3 59 -70 59q-29 0 -49 -11t-31 -27.5t-16.5 -47.5t-7 -58.5t-1.5 -72.5q0 -33 1.5 -55t7 -46.5t16.5 -39t30 -24t47 -9.5q43 0 78 15
v90h-98v144h373v-382zM226 942h148q1 -29 15.5 -43.5t33.5 -14.5t33.5 14.5t15.5 43.5h148q-10 -90 -63 -133t-134 -43t-134 43t-63 133z" />
    <glyph glyph-name="gbreve" unicode="&#x11f;" horiz-adv-x="666" 
d="M625 66q0 -63 -4.5 -91t-20.5 -62q-52 -117 -284 -117q-136 0 -204 48q-29 20 -45.5 54t-16.5 70h236q2 -41 51 -41q34 0 47.5 21t13.5 75v51q-45 -65 -152 -65q-108 0 -163.5 67t-55.5 177q0 112 55 186t163 74q99 0 146 -66l8 53h226v-434zM388 262q0 70 -16 92
q-13 18 -38 18q-14 0 -24.5 -5t-16.5 -16.5t-9.5 -21t-5 -29.5t-1.5 -30v-33q0 -21 1 -32t5 -27.5t15.5 -24.5t30.5 -8q18 0 29.5 7t17.5 15t9 28t3 30v37zM168 722h148q1 -29 15.5 -43.5t33.5 -14.5t33.5 14.5t15.5 43.5h148q-10 -90 -63 -133t-134 -43t-134 43t-63 133z
" />
    <glyph glyph-name="Gdotaccent" unicode="&#x120;" horiz-adv-x="814" 
d="M773 28q-180 -49 -357 -49q-184 0 -286.5 97t-102.5 282t106 282t292 97q57 0 103 -6t90.5 -22t74 -42.5t48 -70.5t18.5 -102v-1h-266q-3 59 -70 59q-29 0 -49 -11t-31 -27.5t-16.5 -47.5t-7 -58.5t-1.5 -72.5q0 -33 1.5 -55t7 -46.5t16.5 -39t30 -24t47 -9.5q43 0 78 15
v90h-98v144h373v-382zM341 772v170h164v-170h-164z" />
    <glyph glyph-name="gdotaccent" unicode="&#x121;" horiz-adv-x="666" 
d="M625 66q0 -63 -4.5 -91t-20.5 -62q-52 -117 -284 -117q-136 0 -204 48q-29 20 -45.5 54t-16.5 70h236q2 -41 51 -41q34 0 47.5 21t13.5 75v51q-45 -65 -152 -65q-108 0 -163.5 67t-55.5 177q0 112 55 186t163 74q99 0 146 -66l8 53h226v-434zM388 262q0 70 -16 92
q-13 18 -38 18q-14 0 -24.5 -5t-16.5 -16.5t-9.5 -21t-5 -29.5t-1.5 -30v-33q0 -21 1 -32t5 -27.5t15.5 -24.5t30.5 -8q18 0 29.5 7t17.5 15t9 28t3 30v37zM283 552v170h164v-170h-164z" />
    <glyph glyph-name="Gcommaaccent" unicode="&#x122;" horiz-adv-x="814" 
d="M773 28q-180 -49 -357 -49q-184 0 -286.5 97t-102.5 282t106 282t292 97q57 0 103 -6t90.5 -22t74 -42.5t48 -70.5t18.5 -102v-1h-266q-3 59 -70 59q-29 0 -49 -11t-31 -27.5t-16.5 -47.5t-7 -58.5t-1.5 -72.5q0 -33 1.5 -55t7 -46.5t16.5 -39t30 -24t47 -9.5q43 0 78 15
v90h-98v144h373v-382zM534 -50l-141 -182h-136l52 182h225z" />
    <glyph glyph-name="gcommaaccent" unicode="&#x123;" horiz-adv-x="666" 
d="M625 66q0 -63 -4.5 -91t-20.5 -62q-52 -117 -284 -117q-136 0 -204 48q-29 20 -45.5 54t-16.5 70h236q2 -41 51 -41q34 0 47.5 21t13.5 75v51q-45 -65 -152 -65q-108 0 -163.5 67t-55.5 177q0 112 55 186t163 74q99 0 146 -66l8 53h226v-434zM388 262q0 70 -16 92
q-13 18 -38 18q-14 0 -24.5 -5t-16.5 -16.5t-9.5 -21t-5 -29.5t-1.5 -30v-33q0 -21 1 -32t5 -27.5t15.5 -24.5t30.5 -8q18 0 29.5 7t17.5 15t9 28t3 30v37zM227 552l141 182h136l-52 -182h-225z" />
    <glyph glyph-name="Hcircumflex" unicode="&#x124;" horiz-adv-x="796" 
d="M744 0h-286v266h-120v-266h-286v722h286v-247h120v247h286v-722zM439 772l-44 76l-44 -76h-182l114 170h224l114 -170h-182z" />
    <glyph glyph-name="hcircumflex" unicode="&#x125;" horiz-adv-x="648" 
d="M612 0h-242v307q0 59 -44 59q-45 0 -45 -67v-299h-244v722h244v-289q26 44 63 63.5t93 19.5q54 0 90 -16t53.5 -46t24.5 -63t7 -78v-313zM306 769l-44 76l-44 -76h-182l114 170h224l114 -170h-182z" />
    <glyph glyph-name="Hbar" unicode="&#x126;" horiz-adv-x="796" 
d="M744 0h-286v256h-120v-256h-286v722h286v-67h120v67h286v-722zM338 435h120v61h-120v-61z" />
    <glyph glyph-name="hbar" unicode="&#x127;" horiz-adv-x="648" 
d="M-15 670h52v52h244v-52h113v-138h-113v-115q26 44 63 63.5t93 19.5q54 0 90 -16t53.5 -46t24.5 -63t7 -78v-297h-242v291q0 59 -44 59q-45 0 -45 -67v-283h-244v532h-52v138z" />
    <glyph glyph-name="Itilde" unicode="&#x128;" horiz-adv-x="388" 
d="M336 0h-285v722h285v-722zM286 936h124q0 -164 -139 -164q-27 0 -83 17t-67 17q-19 0 -19 -28h-124v19q0 64 34 104.5t92 40.5q32 0 91 -17t68 -17q22 0 23 28z" />
    <glyph glyph-name="itilde" unicode="&#x129;" horiz-adv-x="314" 
d="M36 0v500h242v-500h-242zM249 716h124q0 -164 -139 -164q-26 0 -82 17t-68 17q-19 0 -19 -28h-124v19q0 64 34 104.5t92 40.5q32 0 91 -17t68 -17q22 0 23 28z" />
    <glyph glyph-name="Imacron" unicode="&#x12a;" horiz-adv-x="388" 
d="M336 0h-285v722h285v-722zM-20 801v118h428v-118h-428z" />
    <glyph glyph-name="imacron" unicode="&#x12b;" horiz-adv-x="314" 
d="M36 0v500h242v-500h-242zM-57 581v118h428v-118h-428z" />
    <glyph glyph-name="Ibreve" unicode="&#x12c;" horiz-adv-x="388" 
d="M336 0h-285v722h285v-722zM-1 942h148q1 -29 15.5 -43.5t33.5 -14.5t33.5 14.5t15.5 43.5h148q-10 -90 -63 -133t-134 -43t-134 43t-63 133z" />
    <glyph glyph-name="ibreve" unicode="&#x12d;" horiz-adv-x="314" 
d="M36 0v500h242v-500h-242zM-38 722h148q1 -29 15.5 -43.5t33.5 -14.5t33.5 14.5t15.5 43.5h148q-10 -90 -63 -133t-134 -43t-134 43t-63 133z" />
    <glyph glyph-name="Iogonek" unicode="&#x12e;" horiz-adv-x="388" 
d="M196 0h-145v722h285v-722h-40q-110 -65 -110 -114q0 -20 14 -32t39 -12q33 0 60 11l17 -68q-57 -17 -121 -17q-69 0 -101 21t-32 67q0 47 38 84.5t96 59.5z" />
    <glyph glyph-name="iogonek" unicode="&#x12f;" horiz-adv-x="314" 
d="M134 0h-96v500h238v-500h-42q-110 -65 -110 -114q0 -20 14 -32t39 -12q33 0 60 11l17 -68q-57 -17 -121 -17q-69 0 -101 21t-32 67q0 47 38 84.5t96 59.5zM276 569h-238v153h238v-153z" />
    <glyph glyph-name="Idotaccent" unicode="&#x130;" horiz-adv-x="388" 
d="M336 0h-285v722h285v-722zM112 772v170h164v-170h-164z" />
    <glyph glyph-name="dotlessi" unicode="&#x131;" horiz-adv-x="314" 
d="M36 0v500h242v-500h-242z" />
    <glyph glyph-name="Jcircumflex" unicode="&#x134;" horiz-adv-x="666" 
d="M620 267q0 -102 -25 -153q-29 -62 -108.5 -98.5t-185.5 -36.5q-139 0 -221 61.5t-82 165.5v32h242q-1 -5 -1 -11q0 -59 46 -59q50 0 50 81v473h285v-455zM517 772l-44 76l-44 -76h-182l114 170h224l114 -170h-182z" />
    <glyph glyph-name="jcircumflex" unicode="&#x135;" horiz-adv-x="314" 
d="M36 10v492h242v-518q0 -48 -13 -81.5t-32.5 -52t-54.5 -28t-66 -12t-81 -2.5q-54 0 -79 8v124q18 -2 27 -2q31 0 44 15.5t13 56.5zM205 552l-44 76l-44 -76h-182l114 170h224l114 -170h-182z" />
    <glyph glyph-name="Kcommaaccent" unicode="&#x136;" horiz-adv-x="796" 
d="M811 0h-309l-169 324v-324h-280v722h280v-310l151 310h300l-193 -340zM528 -50l-141 -182h-136l52 182h225z" />
    <glyph glyph-name="kcommaaccent" unicode="&#x137;" 
d="M444 -50l-141 -182h-136l52 182h225zM641 0h-264l-102 262v-262h-240v722h240v-414l94 192h261l-139 -213z" />
    <glyph glyph-name="kgreenlandic" unicode="&#x138;" 
d="M36 0v502h242v-194h2l90 194h262l-140 -215l150 -287h-262l-100 262h-2v-262h-242z" />
    <glyph glyph-name="Lacute" unicode="&#x139;" horiz-adv-x="610" 
d="M600 0h-549v722h287v-528h262v-194zM75 772l98 170h232l-154 -170h-176z" />
    <glyph glyph-name="lacute" unicode="&#x13a;" horiz-adv-x="314" 
d="M276 0h-238v722h238v-722zM56 772l98 170h232l-154 -170h-176z" />
    <glyph glyph-name="Lcommaaccent" unicode="&#x13b;" horiz-adv-x="610" 
d="M600 0h-549v722h287v-528h262v-194zM438 -50l-141 -182h-136l52 182h225z" />
    <glyph glyph-name="lcommaaccent" unicode="&#x13c;" horiz-adv-x="314" 
d="M276 0h-238v722h238v-722zM271 -50l-141 -182h-136l52 182h225z" />
    <glyph glyph-name="Lcaron" unicode="&#x13d;" horiz-adv-x="610" 
d="M600 0h-549v722h287v-528h262v-194zM639 722l-131 -182h-136l42 182h225z" />
    <glyph glyph-name="lcaron" unicode="&#x13e;" horiz-adv-x="314" 
d="M276 0h-238v722h238v-722zM578 722l-131 -182h-136l42 182h225z" />
    <glyph glyph-name="Ldot" unicode="&#x13f;" horiz-adv-x="610" 
d="M600 0h-549v722h287v-528h262v-194zM418 312v170h164v-170h-164z" />
    <glyph glyph-name="ldot" unicode="&#x140;" horiz-adv-x="486" 
d="M276 0h-238v722h238v-722zM317 312v170h164v-170h-164z" />
    <glyph glyph-name="Lslash" unicode="&#x141;" horiz-adv-x="610" 
d="M51 0v177l-49 -28v142l49 28v403h287v-230l146 88v-145l-146 -87v-154h262v-194h-549z" />
    <glyph glyph-name="lslash" unicode="&#x142;" horiz-adv-x="350" 
d="M55 722h238l1 -197l35 30v-150l-35 -32l-1 -373h-238v166l-37 -31v149l38 32z" />
    <glyph glyph-name="Nacute" unicode="&#x143;" horiz-adv-x="832" 
d="M780 0h-342l-156 442v-442h-231v722h349l149 -435v435h231v-722zM318 772l98 170h232l-154 -170h-176z" />
    <glyph glyph-name="nacute" unicode="&#x144;" horiz-adv-x="648" 
d="M612 0h-242v307q0 59 -44 59q-45 0 -45 -63v-303h-244v500h233l5 -74q52 90 162 90q81 0 125 -41q23 -21 35 -53t13.5 -54.5t1.5 -64.5v-303zM208 552l98 170h232l-154 -170h-176z" />
    <glyph glyph-name="Ncommaaccent" unicode="&#x145;" horiz-adv-x="832" 
d="M780 0h-342l-156 442v-442h-231v722h349l149 -435v435h231v-722zM527 -50l-141 -182h-136l52 182h225z" />
    <glyph glyph-name="ncommaaccent" unicode="&#x146;" horiz-adv-x="648" 
d="M612 0h-242v307q0 59 -44 59q-45 0 -45 -63v-303h-244v500h233l5 -74q52 90 162 90q81 0 125 -41q23 -21 35 -53t13.5 -54.5t1.5 -64.5v-303zM458 -50l-141 -182h-136l52 182h225z" />
    <glyph glyph-name="Ncaron" unicode="&#x147;" horiz-adv-x="832" 
d="M780 0h-342l-156 442v-442h-231v722h349l149 -435v435h231v-722zM305 772l-114 170h182l44 -76l44 76h182l-114 -170h-224z" />
    <glyph glyph-name="ncaron" unicode="&#x148;" horiz-adv-x="648" 
d="M612 0h-242v307q0 59 -44 59q-45 0 -45 -63v-303h-244v500h233l5 -74q52 90 162 90q81 0 125 -41q23 -21 35 -53t13.5 -54.5t1.5 -64.5v-303zM213 552l-114 170h182l44 -76l44 76h182l-114 -170h-224z" />
    <glyph glyph-name="Eng" unicode="&#x14a;" horiz-adv-x="832" 
d="M51 0v722h343l153 -437h2v437h232v-738q0 -48 -12 -81.5t-30 -52t-51.5 -28t-64 -12t-79.5 -2.5q-54 0 -79 8v114q18 -2 27 -2q59 0 62 72h-116l-153 440h-2v-440h-232z" />
    <glyph glyph-name="eng" unicode="&#x14b;" horiz-adv-x="648" 
d="M370 10v301q0 58 -44 58q-48 0 -48 -56v-313h-242v502h236l6 -76h2q52 91 158 91q81 0 127.5 -44t46.5 -139v-350q0 -48 -13 -81.5t-32.5 -52t-54.5 -28t-66 -12t-81 -2.5q-54 0 -79 8v124q18 -2 27 -2q31 0 44 15.5t13 56.5z" />
    <glyph glyph-name="Omacron" unicode="&#x14c;" horiz-adv-x="796" 
d="M771 361q0 -178 -100 -280t-274 -102q-173 0 -272.5 100.5t-99.5 276.5q0 183 100 284t281 101q173 0 269 -99.5t96 -280.5zM474 377q0 45 -2 72.5t-9 53t-22.5 37t-40.5 11.5q-46 0 -63 -46.5t-17 -151.5q0 -90 16 -136.5t59 -46.5q45 0 62 44.5t17 162.5zM185 801v118
h428v-118h-428z" />
    <glyph glyph-name="omacron" unicode="&#x14d;" horiz-adv-x="666" 
d="M640 252q0 -268 -322 -268q-131 0 -212 68.5t-81 198.5q0 133 83 201.5t219 68.5q142 0 227.5 -66t85.5 -203zM389 259q0 69 -13 98.5t-42 29.5q-32 0 -43.5 -32t-11.5 -96q0 -78 9.5 -110t43.5 -32q19 0 31 11t17.5 33.5t7 43.5t1.5 54zM119 581v118h428v-118h-428z" />
    <glyph glyph-name="Obreve" unicode="&#x14e;" horiz-adv-x="796" 
d="M771 361q0 -178 -100 -280t-274 -102q-173 0 -272.5 100.5t-99.5 276.5q0 183 100 284t281 101q173 0 269 -99.5t96 -280.5zM474 377q0 45 -2 72.5t-9 53t-22.5 37t-40.5 11.5q-46 0 -63 -46.5t-17 -151.5q0 -90 16 -136.5t59 -46.5q45 0 62 44.5t17 162.5zM202 942h148
q1 -29 15.5 -43.5t33.5 -14.5t33.5 14.5t15.5 43.5h148q-10 -90 -63 -133t-134 -43t-134 43t-63 133z" />
    <glyph glyph-name="obreve" unicode="&#x14f;" horiz-adv-x="666" 
d="M640 252q0 -268 -322 -268q-131 0 -212 68.5t-81 198.5q0 133 83 201.5t219 68.5q142 0 227.5 -66t85.5 -203zM389 259q0 69 -13 98.5t-42 29.5q-32 0 -43.5 -32t-11.5 -96q0 -78 9.5 -110t43.5 -32q19 0 31 11t17.5 33.5t7 43.5t1.5 54zM136 722h148q1 -29 15.5 -43.5
t33.5 -14.5t33.5 14.5t15.5 43.5h148q-10 -90 -63 -133t-134 -43t-134 43t-63 133z" />
    <glyph glyph-name="Ohungarumlaut" unicode="&#x150;" horiz-adv-x="796" 
d="M771 361q0 -178 -100 -280t-274 -102q-173 0 -272.5 100.5t-99.5 276.5q0 183 100 284t281 101q173 0 269 -99.5t96 -280.5zM474 377q0 45 -2 72.5t-9 53t-22.5 37t-40.5 11.5q-46 0 -63 -46.5t-17 -151.5q0 -90 16 -136.5t59 -46.5q45 0 62 44.5t17 162.5zM181 772
l98 170h232l-154 -170h-176zM471 772l98 170h232l-154 -170h-176z" />
    <glyph glyph-name="ohungarumlaut" unicode="&#x151;" horiz-adv-x="666" 
d="M640 252q0 -268 -322 -268q-131 0 -212 68.5t-81 198.5q0 133 83 201.5t219 68.5q142 0 227.5 -66t85.5 -203zM389 259q0 69 -13 98.5t-42 29.5q-32 0 -43.5 -32t-11.5 -96q0 -78 9.5 -110t43.5 -32q19 0 31 11t17.5 33.5t7 43.5t1.5 54zM93 552l98 170h232l-154 -170
h-176zM383 552l98 170h232l-154 -170h-176z" />
    <glyph glyph-name="OE" unicode="&#x152;" horiz-adv-x="962" 
d="M937 722v-190h-224v-78h201v-183h-201v-83h224v-188h-419q-22 0 -86 -2.5t-78 -2.5q-157 0 -243.5 100.5t-86.5 268.5q0 175 94 268t266 93q1 0 26.5 -0.5t63.5 -1.5t70 -1h393zM442 543q-27 13 -51 13q-49 0 -68.5 -42.5t-19.5 -159.5q0 -112 21 -149.5t73 -37.5
q25 0 45 12v364z" />
    <glyph glyph-name="oe" unicode="&#x153;" horiz-adv-x="944" 
d="M297 -19q-127 0 -202 70.5t-75 190.5q0 124 76.5 201.5t210.5 77.5q105 0 174 -56q66 56 172 56q130 0 200.5 -70.5t70.5 -200.5q0 -26 -1 -44h-346v-25q0 -37 18 -58t49 -21q26 0 42.5 16t19.5 44h210q-13 -90 -79.5 -135.5t-180.5 -45.5q-61 0 -102 14t-79 49
q-59 -63 -178 -63zM316 118q37 0 49 30.5t12 114.5q0 70 -12.5 97t-44.5 27q-37 0 -49.5 -33.5t-12.5 -108.5q0 -67 13 -97t45 -30zM579 313h128v11q0 73 -64 73q-31 0 -47.5 -20t-16.5 -56v-8z" />
    <glyph glyph-name="Racute" unicode="&#x154;" horiz-adv-x="758" 
d="M750 0h-280q-11 38 -20 105l-5 33q-10 65 -13.5 80t-13.5 26q-13 16 -63 16h-24v-260h-282v722h429q78 0 139 -21q50 -17 78 -60t28 -104q0 -74 -34.5 -111t-107.5 -60q74 -12 98.5 -42t33.5 -112l8 -68q12 -92 29 -144zM450 496q0 35 -23 49.5t-80 14.5h-18v-140h21
q100 0 100 76zM249 772l98 170h232l-154 -170h-176z" />
    <glyph glyph-name="racute" unicode="&#x155;" horiz-adv-x="444" 
d="M442 306q-65 13 -91 13q-36 0 -52.5 -17.5t-16.5 -57.5v-244h-245v500h233l5 -53q56 60 103 60q32 0 64 -14v-187zM75 552l98 170h232l-154 -170h-176z" />
    <glyph glyph-name="Rcommaaccent" unicode="&#x156;" horiz-adv-x="758" 
d="M750 0h-280q-11 38 -20 105l-5 33q-10 65 -13.5 80t-13.5 26q-13 16 -63 16h-24v-260h-282v722h429q78 0 139 -21q50 -17 78 -60t28 -104q0 -74 -34.5 -111t-107.5 -60q74 -12 98.5 -42t33.5 -112l8 -68q12 -92 29 -144zM450 496q0 35 -23 49.5t-80 14.5h-18v-140h21
q100 0 100 76zM518 -50l-141 -182h-136l52 182h225z" />
    <glyph glyph-name="rcommaaccent" unicode="&#x157;" horiz-adv-x="444" 
d="M442 306q-65 13 -91 13q-36 0 -52.5 -17.5t-16.5 -57.5v-244h-245v500h233l5 -53q56 60 103 60q32 0 64 -14v-187zM275 -56l-141 -182h-136l52 182h225z" />
    <glyph glyph-name="Rcaron" unicode="&#x158;" horiz-adv-x="758" 
d="M750 0h-280q-11 38 -20 105l-5 33q-10 65 -13.5 80t-13.5 26q-13 16 -63 16h-24v-260h-282v722h429q78 0 139 -21q50 -17 78 -60t28 -104q0 -74 -34.5 -111t-107.5 -60q74 -12 98.5 -42t33.5 -112l8 -68q12 -92 29 -144zM450 496q0 35 -23 49.5t-80 14.5h-18v-140h21
q100 0 100 76zM249 772l-114 170h182l44 -76l44 76h182l-114 -170h-224z" />
    <glyph glyph-name="rcaron" unicode="&#x159;" horiz-adv-x="444" 
d="M442 306q-65 13 -91 13q-36 0 -52.5 -17.5t-16.5 -57.5v-244h-245v500h233l5 -53q56 60 103 60q32 0 64 -14v-187zM83 552l-114 170h182l44 -76l44 76h182l-114 -170h-224z" />
    <glyph glyph-name="Sacute" unicode="&#x15a;" horiz-adv-x="722" 
d="M702 230q0 -137 -118 -203q-86 -48 -230 -48q-54 0 -100 7t-90 24t-75 44t-50 70.5t-19 98.5v2h272v-9q0 -74 73 -74q30 0 50 17.5t20 43.5q0 9 -3 16.5t-9.5 13.5t-12.5 10t-18 8l-19 6.5t-21.5 6t-20.5 5.5q-73 22 -91 27q-106 30 -156.5 73.5t-50.5 133.5
q0 115 86.5 176.5t247.5 61.5q313 0 313 -221v-1h-255q-1 35 -15.5 49t-48.5 14q-30 0 -47.5 -13t-17.5 -35q0 -9 3.5 -16.5t11.5 -13t16 -10t21.5 -8.5t24.5 -6.5l28.5 -6.5t28.5 -7l90 -24q182 -52 182 -212zM246 772l98 170h232l-154 -170h-176z" />
    <glyph glyph-name="sacute" unicode="&#x15b;" horiz-adv-x="592" 
d="M569 159q0 -80 -60 -126q-69 -52 -223 -52q-264 0 -264 181h221q0 -68 55 -68q51 0 51 45q0 24 -24.5 34.5t-82.5 17.5l-23 3q-100 13 -144 49t-44 102q0 174 266 174q127 0 192 -42.5t65 -125.5v-1h-208v5q0 28 -12 40t-39 12q-49 0 -49 -39q0 -21 16.5 -28.5
t66.5 -15.5q9 -1 14 -2l48 -8q79 -13 124 -41q54 -32 54 -114zM176 552l98 170h232l-154 -170h-176z" />
    <glyph glyph-name="Scircumflex" unicode="&#x15c;" horiz-adv-x="722" 
d="M702 230q0 -137 -118 -203q-86 -48 -230 -48q-54 0 -100 7t-90 24t-75 44t-50 70.5t-19 98.5v2h272v-9q0 -74 73 -74q30 0 50 17.5t20 43.5q0 9 -3 16.5t-9.5 13.5t-12.5 10t-18 8l-19 6.5t-21.5 6t-20.5 5.5q-73 22 -91 27q-106 30 -156.5 73.5t-50.5 133.5
q0 115 86.5 176.5t247.5 61.5q313 0 313 -221v-1h-255q-1 35 -15.5 49t-48.5 14q-30 0 -47.5 -13t-17.5 -35q0 -9 3.5 -16.5t11.5 -13t16 -10t21.5 -8.5t24.5 -6.5l28.5 -6.5t28.5 -7l90 -24q182 -52 182 -212zM403 772l-44 76l-44 -76h-182l114 170h224l114 -170h-182z" />
    <glyph glyph-name="scircumflex" unicode="&#x15d;" horiz-adv-x="592" 
d="M569 159q0 -80 -60 -126q-69 -52 -223 -52q-264 0 -264 181h221q0 -68 55 -68q51 0 51 45q0 24 -24.5 34.5t-82.5 17.5l-23 3q-100 13 -144 49t-44 102q0 174 266 174q127 0 192 -42.5t65 -125.5v-1h-208v5q0 28 -12 40t-39 12q-49 0 -49 -39q0 -21 16.5 -28.5
t66.5 -15.5q9 -1 14 -2l48 -8q79 -13 124 -41q54 -32 54 -114zM339 552l-44 76l-44 -76h-182l114 170h224l114 -170h-182z" />
    <glyph glyph-name="Scedilla" unicode="&#x15e;" horiz-adv-x="722" 
d="M277 -92l40 72q-62 3 -112.5 17t-93.5 41t-67 74t-24 111v2h272v-9q0 -74 73 -74q30 0 50 17.5t20 43.5q0 9 -3 16.5t-9.5 13.5t-12.5 10t-18 8l-19 6.5t-21.5 6t-20.5 5.5l-91 27q-106 30 -156.5 73.5t-50.5 133.5q0 115 86.5 176.5t247.5 61.5q313 0 313 -221v-1h-255
q-1 35 -15.5 49t-48.5 14q-30 0 -47.5 -13t-17.5 -35q0 -9 3.5 -16.5t11.5 -13t16 -10t21.5 -8.5t24.5 -6.5l28.5 -6.5t28.5 -7l90 -24q182 -52 182 -212q0 -137 -118 -203q-74 -41 -186 -47l-20 -36h2q11 3 29 3q41 0 68 -23t27 -62q0 -49 -41 -77.5t-106 -28.5
q-81 0 -139 28l27 64q51 -24 89 -24q20 0 36 10t16 24q0 13 -12 20t-28 7q-12 0 -31 -7z" />
    <glyph glyph-name="scedilla" unicode="&#x15f;" horiz-adv-x="592" 
d="M209 -92l41 74q-228 11 -228 180h221q0 -68 55 -68q51 0 51 45q0 24 -24.5 34.5t-82.5 17.5l-23 3q-100 13 -144 49t-44 102q0 174 266 174q127 0 192 -42.5t65 -125.5v-1h-208v5q0 28 -12 40t-39 12q-49 0 -49 -39q0 -21 16.5 -28.5t66.5 -15.5q9 -1 14 -2l48 -8
q79 -13 124 -41q54 -32 54 -114q0 -80 -60 -126q-60 -45 -178 -51l-21 -38h2q10 3 29 3q41 0 68 -23t27 -62q0 -49 -41 -77.5t-106 -28.5q-81 0 -139 28l27 64q51 -24 89 -24q20 0 36 10t16 24q0 13 -12 20t-28 7q-12 0 -31 -7z" />
    <glyph glyph-name="Scaron" unicode="&#x160;" horiz-adv-x="722" 
d="M702 230q0 -137 -118 -203q-86 -48 -230 -48q-54 0 -100 7t-90 24t-75 44t-50 70.5t-19 98.5v2h272v-9q0 -74 73 -74q30 0 50 17.5t20 43.5q0 9 -3 16.5t-9.5 13.5t-12.5 10t-18 8l-19 6.5t-21.5 6t-20.5 5.5q-73 22 -91 27q-106 30 -156.5 73.5t-50.5 133.5
q0 115 86.5 176.5t247.5 61.5q313 0 313 -221v-1h-255q-1 35 -15.5 49t-48.5 14q-30 0 -47.5 -13t-17.5 -35q0 -9 3.5 -16.5t11.5 -13t16 -10t21.5 -8.5t24.5 -6.5l28.5 -6.5t28.5 -7l90 -24q182 -52 182 -212zM247 772l-114 170h182l44 -76l44 76h182l-114 -170h-224z" />
    <glyph glyph-name="scaron" unicode="&#x161;" horiz-adv-x="592" 
d="M569 159q0 -80 -60 -126q-69 -52 -223 -52q-264 0 -264 181h221q0 -68 55 -68q51 0 51 45q0 24 -24.5 34.5t-82.5 17.5l-23 3q-100 13 -144 49t-44 102q0 174 266 174q127 0 192 -42.5t65 -125.5v-1h-208v5q0 28 -12 40t-39 12q-49 0 -49 -39q0 -21 16.5 -28.5
t66.5 -15.5q9 -1 14 -2l48 -8q79 -13 124 -41q54 -32 54 -114zM183 552l-114 170h182l44 -76l44 76h182l-114 -170h-224z" />
    <glyph glyph-name="Tcommaaccent" unicode="&#x162;" horiz-adv-x="648" 
d="M645 527h-178v-527h-287v527h-177v195h642v-195zM445 -50l-141 -182h-136l52 182h225z" />
    <glyph glyph-name="tcommaaccent" unicode="&#x163;" horiz-adv-x="426" 
d="M421 352h-113v-148q0 -33 9 -46t32 -13q29 0 63 8v-148q-91 -21 -158 -21q-84 0 -134 35q-30 21 -39 51t-9 75v207h-67v148h66v83l237 84v-167h113v-148zM335 -50l-141 -182h-136l52 182h225z" />
    <glyph glyph-name="Tcaron" unicode="&#x164;" horiz-adv-x="648" 
d="M645 527h-178v-527h-287v527h-177v195h642v-195zM212 772l-114 170h182l44 -76l44 76h182l-114 -170h-224z" />
    <glyph glyph-name="tcaron" unicode="&#x165;" horiz-adv-x="426" 
d="M421 352h-113v-148q0 -33 9 -46t32 -13q29 0 63 8v-148q-91 -21 -158 -21q-84 0 -134 35q-30 21 -39 51t-9 75v207h-67v148h66v83l237 84v-167h113v-148zM611 722l-131 -182h-136l42 182h225z" />
    <glyph glyph-name="Tbar" unicode="&#x166;" horiz-adv-x="648" 
d="M595 227h-128v-227h-287v227h-127v175h127v125h-177v195h642v-195h-178v-125h128v-175z" />
    <glyph glyph-name="tbar" unicode="&#x167;" horiz-adv-x="426" 
d="M5 335h67v37h-67v128h66v83l237 84v-167h113v-128h-113v-37h113v-128h-113v-3q0 -33 9 -46t32 -13q29 0 63 8v-148q-91 -21 -158 -21q-84 0 -134 35q-30 21 -39 51t-9 75v62h-67v128z" />
    <glyph glyph-name="Utilde" unicode="&#x168;" horiz-adv-x="778" 
d="M733 270q0 -98 -30 -153q-36 -64 -122.5 -101t-200.5 -37q-95 0 -178 29t-124 98q-32 53 -32 137v479h287v-465q0 -81 59 -81q29 0 44.5 20t15.5 57v469h281v-452zM481 936h124q0 -164 -139 -164q-26 0 -82 17t-68 17q-19 0 -19 -28h-124v19q0 64 34 104.5t92 40.5
q32 0 91 -17t68 -17q22 0 23 28z" />
    <glyph glyph-name="utilde" unicode="&#x169;" horiz-adv-x="648" 
d="M611 0h-233l-5 74q-52 -90 -162 -90q-81 0 -125 41q-23 21 -35 53t-13.5 54.5t-1.5 64.5v303h242v-307q0 -59 44 -59q45 0 45 64v302h244v-500zM416 716h124q0 -164 -139 -164q-27 0 -83 17t-67 17q-19 0 -19 -28h-124v19q0 64 34 104.5t92 40.5q32 0 91 -17t68 -17
q22 0 23 28z" />
    <glyph glyph-name="Umacron" unicode="&#x16a;" horiz-adv-x="778" 
d="M733 270q0 -98 -30 -153q-36 -64 -122.5 -101t-200.5 -37q-95 0 -178 29t-124 98q-32 53 -32 137v479h287v-465q0 -81 59 -81q29 0 44.5 20t15.5 57v469h281v-452zM175 801v118h428v-118h-428z" />
    <glyph glyph-name="umacron" unicode="&#x16b;" horiz-adv-x="648" 
d="M611 0h-233l-5 74q-52 -90 -162 -90q-81 0 -125 41q-23 21 -35 53t-13.5 54.5t-1.5 64.5v303h242v-307q0 -59 44 -59q45 0 45 64v302h244v-500zM110 581v118h428v-118h-428z" />
    <glyph glyph-name="Ubreve" unicode="&#x16c;" horiz-adv-x="778" 
d="M733 270q0 -98 -30 -153q-36 -64 -122.5 -101t-200.5 -37q-95 0 -178 29t-124 98q-32 53 -32 137v479h287v-465q0 -81 59 -81q29 0 44.5 20t15.5 57v469h281v-452zM192 942h148q1 -29 15.5 -43.5t33.5 -14.5t33.5 14.5t15.5 43.5h148q-10 -90 -63 -133t-134 -43t-134 43
t-63 133z" />
    <glyph glyph-name="ubreve" unicode="&#x16d;" horiz-adv-x="648" 
d="M611 0h-233l-5 74q-52 -90 -162 -90q-81 0 -125 41q-23 21 -35 53t-13.5 54.5t-1.5 64.5v303h242v-307q0 -59 44 -59q45 0 45 64v302h244v-500zM127 722h148q1 -29 15.5 -43.5t33.5 -14.5t33.5 14.5t15.5 43.5h148q-10 -90 -63 -133t-134 -43t-134 43t-63 133z" />
    <glyph glyph-name="Uring" unicode="&#x16e;" horiz-adv-x="778" 
d="M733 270q0 -98 -30 -153q-36 -64 -122.5 -101t-200.5 -37q-95 0 -178 29t-124 98q-32 53 -32 137v479h287v-465q0 -81 59 -81q29 0 44.5 20t15.5 57v469h281v-452zM258 886q0 54 38.5 92.5t92.5 38.5t92.5 -38.5t38.5 -92.5t-38.5 -92.5t-92.5 -38.5t-92.5 38.5
t-38.5 92.5zM346 886q0 -18 12.5 -30.5t30.5 -12.5t30.5 12.5t12.5 30.5t-12.5 30.5t-30.5 12.5t-30.5 -12.5t-12.5 -30.5z" />
    <glyph glyph-name="uring" unicode="&#x16f;" horiz-adv-x="648" 
d="M611 0h-233l-5 74q-52 -90 -162 -90q-81 0 -125 41q-23 21 -35 53t-13.5 54.5t-1.5 64.5v303h242v-307q0 -59 44 -59q45 0 45 64v302h244v-500zM193 681q0 54 38.5 92.5t92.5 38.5t92.5 -38.5t38.5 -92.5t-38.5 -92.5t-92.5 -38.5t-92.5 38.5t-38.5 92.5zM281 681
q0 -18 12.5 -30.5t30.5 -12.5t30.5 12.5t12.5 30.5t-12.5 30.5t-30.5 12.5t-30.5 -12.5t-12.5 -30.5z" />
    <glyph glyph-name="Uhungarumlaut" unicode="&#x170;" horiz-adv-x="778" 
d="M733 270q0 -98 -30 -153q-36 -64 -122.5 -101t-200.5 -37q-95 0 -178 29t-124 98q-32 53 -32 137v479h287v-465q0 -81 59 -81q29 0 44.5 20t15.5 57v469h281v-452zM173 772l98 170h232l-154 -170h-176zM463 772l98 170h232l-154 -170h-176z" />
    <glyph glyph-name="uhungarumlaut" unicode="&#x171;" horiz-adv-x="648" 
d="M611 0h-233l-5 74q-52 -90 -162 -90q-81 0 -125 41q-23 21 -35 53t-13.5 54.5t-1.5 64.5v303h242v-307q0 -59 44 -59q45 0 45 64v302h244v-500zM91 552l98 170h232l-154 -170h-176zM381 552l98 170h232l-154 -170h-176z" />
    <glyph glyph-name="Uogonek" unicode="&#x172;" horiz-adv-x="778" 
d="M733 270q0 -98 -30 -153q-28 -49 -86 -82.5t-136 -46.5q-88 -57 -88 -102q0 -20 14 -32t39 -12q33 0 60 11l17 -68q-57 -17 -121 -17q-69 0 -101 21t-32 67q0 73 90 124q-210 6 -281 126q-32 53 -32 137v479h287v-465q0 -81 59 -81q29 0 44.5 20t15.5 57v469h281v-452z
" />
    <glyph glyph-name="uogonek" unicode="&#x173;" horiz-adv-x="648" 
d="M481 0h-103l-5 74q-52 -90 -162 -90q-81 0 -125 41q-23 21 -35 53t-13.5 54.5t-1.5 64.5v303h242v-307q0 -59 44 -59q45 0 45 64v302h244v-500h-30q-110 -65 -110 -114q0 -20 14 -32t39 -12q32 0 60 11l17 -68q-57 -17 -121 -17q-69 0 -101 21t-32 67q0 47 38 84.5
t96 59.5z" />
    <glyph glyph-name="Wcircumflex" unicode="&#x174;" horiz-adv-x="1036" 
d="M1051 722l-153 -722h-309l-68 468l-69 -468h-313l-153 722h256l62 -455l68 455h298l67 -455l64 455h250zM563 772l-44 76l-44 -76h-182l114 170h224l114 -170h-182z" />
    <glyph glyph-name="wcircumflex" unicode="&#x175;" horiz-adv-x="944" 
d="M946 500l-126 -500h-294l-64 319l-59 -319h-296l-109 500h231l44 -326l62 326h265l59 -326l53 326h234zM509 552l-44 76l-44 -76h-182l114 170h224l114 -170h-182z" />
    <glyph glyph-name="Ycircumflex" unicode="&#x176;" horiz-adv-x="740" 
d="M758 722l-245 -472v-250h-285v250l-246 472h296l103 -303l101 303h276zM425 772l-44 76l-44 -76h-182l114 170h224l114 -170h-182z" />
    <glyph glyph-name="ycircumflex" unicode="&#x177;" 
d="M634 500l-238 -692h-261l66 177l-204 515h258l70 -274l68 274h241zM367 552l-44 76l-44 -76h-182l114 170h224l114 -170h-182z" />
    <glyph glyph-name="Ydieresis" unicode="&#x178;" horiz-adv-x="740" 
d="M758 722l-245 -472v-250h-285v250l-246 472h296l103 -303l101 303h276zM179 772v170h164v-170h-164zM419 772v170h164v-170h-164z" />
    <glyph glyph-name="Zacute" unicode="&#x179;" horiz-adv-x="685" 
d="M662 0h-639v174l301 360h-292v188h623v-173l-301 -361h308v-188zM226 772l98 170h232l-154 -170h-176z" />
    <glyph glyph-name="zacute" unicode="&#x17a;" horiz-adv-x="536" 
d="M512 0h-487v139l175 201h-161v160h456v-157l-159 -181h176v-162zM166 552l98 170h232l-154 -170h-176z" />
    <glyph glyph-name="Zdotaccent" unicode="&#x17b;" horiz-adv-x="685" 
d="M662 0h-639v174l301 360h-292v188h623v-173l-301 -361h308v-188zM257 772v170h164v-170h-164z" />
    <glyph glyph-name="zdotaccent" unicode="&#x17c;" horiz-adv-x="536" 
d="M512 0h-487v139l175 201h-161v160h456v-157l-159 -181h176v-162zM187 552v170h164v-170h-164z" />
    <glyph glyph-name="Zcaron" unicode="&#x17d;" horiz-adv-x="685" 
d="M662 0h-639v174l301 360h-292v188h623v-173l-301 -361h308v-188zM227 772l-114 170h182l44 -76l44 76h182l-114 -170h-224z" />
    <glyph glyph-name="zcaron" unicode="&#x17e;" horiz-adv-x="536" 
d="M512 0h-487v139l175 201h-161v160h456v-157l-159 -181h176v-162zM157 552l-114 170h182l44 -76l44 76h182l-114 -170h-224z" />
    <glyph glyph-name="florin" unicode="&#x192;" horiz-adv-x="704" 
d="M639 715l-26 -148q-29 9 -51 9q-34 0 -41 -45l-17 -103h104v-166h-134l-49 -271q-15 -80 -35 -115q-23 -40 -70.5 -62.5t-110.5 -22.5t-143 28l23 149q20 -11 48 -11q18 0 29.5 11t14.5 22t7 32q1 4 1 6l39 234h-102v166h134q1 8 2.5 18t1.5 13q16 105 30.5 151.5
t41.5 77.5q45 50 152 50q38 0 104 -11q31 -6 47 -12z" />
    <glyph glyph-name="Aringacute" unicode="&#x1fa;" horiz-adv-x="796" 
d="M268 735q0 54 38.5 92.5t92.5 38.5t92.5 -38.5t38.5 -92.5q0 -9 -1 -13h54l232 -722h-296l-28 116h-207l-29 -116h-274l231 722h56v13zM321 898l98 119h208l-157 -119h-149zM327 292h122l-57 272h-2zM356 735q0 -18 12.5 -30.5t30.5 -12.5t30.5 12.5t12.5 30.5
t-12.5 30.5t-30.5 12.5t-30.5 -12.5t-12.5 -30.5z" />
    <glyph glyph-name="aringacute" unicode="&#x1fb;" horiz-adv-x="592" 
d="M333 313v52q0 40 -47 40q-24 0 -35.5 -11t-13.5 -41h-200q10 164 259 164q140 0 197.5 -43.5t57.5 -134.5v-339h-212l-6 48q-48 -63 -143 -63q-78 0 -126 40t-48 113q0 91 72 133t216 42h29zM333 177v42h-33q-78 0 -78 -58q0 -52 56 -52q55 0 55 68zM168 681
q0 54 38.5 92.5t92.5 38.5t92.5 -38.5t38.5 -92.5t-38.5 -92.5t-92.5 -38.5t-92.5 38.5t-38.5 92.5zM256 681q0 -18 12.5 -30.5t30.5 -12.5t30.5 12.5t12.5 30.5t-12.5 30.5t-30.5 12.5t-30.5 -12.5t-12.5 -30.5zM220 845l98 119h208l-157 -119h-149z" />
    <glyph glyph-name="AEacute" unicode="&#x1fc;" horiz-adv-x="1000" 
d="M975 722v-190h-255l7 -81h229v-180h-208l9 -86h224v-185h-468l-12 116h-212l-42 -116h-269l305 722h692zM354 292h127l-25 280zM395 772l98 170h232l-154 -170h-176z" />
    <glyph glyph-name="aeacute" unicode="&#x1fd;" horiz-adv-x="906" 
d="M665 163h208q-9 -88 -80.5 -134t-183.5 -46q-129 0 -187 71q-35 -39 -79 -55t-115 -16q-101 0 -158.5 43t-57.5 119q0 72 55 118q38 32 93 41.5t163 9.5h8q1 14 1 31q0 36 -11 50t-38 14q-44 0 -45 -56h-198q1 79 61.5 123t165.5 44q126 0 186 -57q67 57 167 57
q122 0 193 -75t71 -204q0 -16 -2 -34h-347v-12q0 -91 67 -91q27 0 44 15.5t19 43.5zM667 314v7q0 37 -17 57.5t-47 20.5q-31 0 -48.5 -21t-17.5 -58v-6h130zM334 221q-11 1 -22 1q-46 0 -67.5 -13.5t-21.5 -42.5q0 -24 14.5 -38.5t39.5 -14.5q31 0 44 20t13 66v22zM338 552
l98 170h232l-154 -170h-176z" />
    <glyph glyph-name="Oslashacute" unicode="&#x1fe;" horiz-adv-x="796" 
d="M139 -100l-95 68l79 112q-99 102 -99 276q0 182 99.5 283.5t277.5 101.5q108 0 175 -32l71 100l89 -64l-68 -97q102 -102 102 -286q0 -177 -100 -280t-272 -103q-101 0 -179 35zM342 187q17 -17 55 -17q53 0 73 44.5t20 159.5q0 14 -1 20v2zM452 536q-20 15 -56 15
q-49 0 -67 -38q-24 -50 -24 -152q0 -15 1 -26v-2zM276 772l98 170h232l-154 -170h-176z" />
    <glyph glyph-name="oslashacute" unicode="&#x1ff;" horiz-adv-x="666" 
d="M124 -89l-71 57l60 79q-89 72 -89 204q0 125 79.5 197.5t218.5 72.5q81 0 147 -20l67 84l73 -54l-59 -74q89 -71 89 -205q0 -130 -79.5 -199t-240.5 -69q-69 0 -125 19zM378 383q-17 14 -43 14q-40 0 -54.5 -33.5t-14.5 -121.5v-3zM293 128q15 -12 38 -12q38 0 54.5 30.5
t16.5 101.5v19zM220 552l98 170h232l-154 -170h-176z" />
    <glyph glyph-name="Scommaaccent" unicode="&#x218;" horiz-adv-x="722" 
d="M702 230q0 -137 -118 -203q-86 -48 -230 -48q-54 0 -100 7t-90 24t-75 44t-50 70.5t-19 98.5v2h272v-9q0 -74 73 -74q30 0 50 17.5t20 43.5q0 9 -3 16.5t-9.5 13.5t-12.5 10t-18 8l-19 6.5t-21.5 6t-20.5 5.5q-73 22 -91 27q-106 30 -156.5 73.5t-50.5 133.5
q0 115 86.5 176.5t247.5 61.5q313 0 313 -221v-1h-255q-1 35 -15.5 49t-48.5 14q-30 0 -47.5 -13t-17.5 -35q0 -9 3.5 -16.5t11.5 -13t16 -10t21.5 -8.5t24.5 -6.5l28.5 -6.5t28.5 -7l90 -24q182 -52 182 -212zM507 -50l-141 -182h-136l52 182h225z" />
    <glyph glyph-name="scommaaccent" unicode="&#x219;" horiz-adv-x="592" 
d="M569 159q0 -80 -60 -126q-69 -52 -223 -52q-264 0 -264 181h221q0 -68 55 -68q51 0 51 45q0 24 -24.5 34.5t-82.5 17.5l-23 3q-100 13 -144 49t-44 102q0 174 266 174q127 0 192 -42.5t65 -125.5v-1h-208v5q0 28 -12 40t-39 12q-49 0 -49 -39q0 -21 16.5 -28.5
t66.5 -15.5q9 -1 14 -2l48 -8q79 -13 124 -41q54 -32 54 -114zM419 -50l-141 -182h-136l52 182h225z" />
    <glyph glyph-name="uni021A" unicode="&#x21a;" horiz-adv-x="648" 
d="M645 527h-178v-527h-287v527h-177v195h642v-195zM445 -50l-141 -182h-136l52 182h225z" />
    <glyph glyph-name="uni021B" unicode="&#x21b;" horiz-adv-x="426" 
d="M421 352h-113v-148q0 -33 9 -46t32 -13q29 0 63 8v-148q-91 -21 -158 -21q-84 0 -134 35q-30 21 -39 51t-9 75v207h-67v148h66v83l237 84v-167h113v-148zM335 -50l-141 -182h-136l52 182h225z" />
    <glyph glyph-name="dotlessj" unicode="&#x237;" horiz-adv-x="314" 
d="M36 10v492h242v-518q0 -48 -13 -81.5t-32.5 -52t-54.5 -28t-66 -12t-81 -2.5q-54 0 -79 8v124q18 -2 27 -2q31 0 44 15.5t13 56.5z" />
    <glyph glyph-name="circumflex" unicode="&#x2c6;" horiz-adv-x="278" 
d="M183 552l-44 76l-44 -76h-182l114 170h224l114 -170h-182z" />
    <glyph glyph-name="caron" unicode="&#x2c7;" horiz-adv-x="278" 
d="M27 552l-114 170h182l44 -76l44 76h182l-114 -170h-224z" />
    <glyph glyph-name="uni02C9" unicode="&#x2c9;" horiz-adv-x="278" 
d="M-75 581v118h428v-118h-428z" />
    <glyph glyph-name="breve" unicode="&#x2d8;" horiz-adv-x="278" 
d="M-58 722h148q1 -29 15.5 -43.5t33.5 -14.5t33.5 14.5t15.5 43.5h148q-10 -90 -63 -133t-134 -43t-134 43t-63 133z" />
    <glyph glyph-name="dotaccent" unicode="&#x2d9;" horiz-adv-x="278" 
d="M57 552v170h164v-170h-164z" />
    <glyph glyph-name="ring" unicode="&#x2da;" horiz-adv-x="278" 
d="M8 681q0 54 38.5 92.5t92.5 38.5t92.5 -38.5t38.5 -92.5t-38.5 -92.5t-92.5 -38.5t-92.5 38.5t-38.5 92.5zM96 681q0 -18 12.5 -30.5t30.5 -12.5t30.5 12.5t12.5 30.5t-12.5 30.5t-30.5 12.5t-30.5 -12.5t-12.5 -30.5z" />
    <glyph glyph-name="ogonek" unicode="&#x2db;" horiz-adv-x="278" 
d="M182 0h100q-110 -65 -110 -114q0 -20 14 -32t39 -12q33 0 60 11l17 -68q-57 -17 -121 -17q-69 0 -101 21t-32 67q0 47 38 84.5t96 59.5z" />
    <glyph glyph-name="tilde" unicode="&#x2dc;" horiz-adv-x="278" 
d="M231 716h124q0 -164 -139 -164q-26 0 -82 17t-68 17q-19 0 -19 -28h-124v19q0 64 34 104.5t92 40.5q32 0 91 -17t68 -17q22 0 23 28z" />
    <glyph glyph-name="hungarumlaut" unicode="&#x2dd;" horiz-adv-x="278" 
d="M-169 552l98 170h232l-154 -170h-176zM121 552l98 170h232l-154 -170h-176z" />
    <glyph glyph-name="uni0394" unicode="&#x394;" horiz-adv-x="786" 
d="M-10 0l252 722h279l275 -722h-806zM269 152h241l-126 390z" />
    <glyph glyph-name="uni03A9" unicode="&#x3a9;" horiz-adv-x="799" 
d="M53 0v161h177v8q-79 19 -128 89.5t-49 166.5q0 139 95 227.5t256 88.5q150 0 246 -88.5t96 -225.5q0 -97 -50 -169.5t-128 -88.5v-8h177v-161h-314v266q22 4 37 15t22.5 23t11.5 34t4.5 37.5t0.5 44.5q0 73 -22 112t-82 39q-62 0 -87 -42t-25 -116q0 -28 2.5 -48.5
t9.5 -44t23 -38t41 -16.5v-266h-314z" />
    <glyph glyph-name="uni03BC" unicode="&#x3bc;" horiz-adv-x="648" 
d="M370 189v313h242v-502h-236l-6 76h-2q-38 -91 -74 -91q-10 0 -16 4v-181h-242v694h242v-315q0 -25 12.5 -39.5t31.5 -14.5q48 0 48 56z" />
    <glyph glyph-name="pi" unicode="&#x3c0;" horiz-adv-x="680" 
d="M70 0v355h-70v145h654v-145h-71v-155v-13.5v-15.5t1 -14t3.5 -14l6.5 -10t11 -8t16 -2q17 0 33 8v-110q-26 -14 -74 -22t-85 -8q-70 0 -98.5 38t-28.5 109v217h-83v-355h-215z" />
    <glyph glyph-name="uni0400" unicode="&#x400;" 
d="M51 0v722h549v-188h-274v-78h253v-187h-253v-81h283v-188h-558zM428 772h-177l-154 170h235z" />
    <glyph glyph-name="afii10023" unicode="&#x401;" 
d="M51 0v722h549v-188h-274v-78h253v-187h-253v-81h283v-188h-558zM113 772v170h164v-170h-164zM353 772v170h164v-170h-164z" />
    <glyph glyph-name="afii10051" unicode="&#x402;" horiz-adv-x="890" 
d="M180 0v534h-177v188h642v-188h-178v-96q36 14 139 14q74 0 127.5 -17.5t82 -49.5t41.5 -70t13 -84q0 -111 -66 -177.5t-210 -66.5q-74 0 -102 4v155q14 -2 32 -2q70 0 70 73q0 69 -71 69q-35 0 -56 -7v-279h-287z" />
    <glyph glyph-name="afii10052" unicode="&#x403;" horiz-adv-x="593" 
d="M51 0v722h539v-195h-253v-527h-286zM171 772l98 170h232l-154 -170h-176z" />
    <glyph glyph-name="afii10053" unicode="&#x404;" horiz-adv-x="758" 
d="M393 -19q-176 0 -272.5 99t-96.5 281q0 178 97.5 277t272.5 99q148 0 240 -66t97 -202h-264q-10 82 -70 82q-41 0 -58 -28.5t-20 -90.5h156v-141h-157q2 -63 18.5 -94.5t58.5 -31.5q65 0 72 87h269q-4 -136 -100.5 -203.5t-242.5 -67.5z" />
    <glyph glyph-name="afii10054" unicode="&#x405;" horiz-adv-x="722" 
d="M354 -21q-54 0 -100 7t-90 24t-75 44t-50 70.5t-19 98.5v2h272v-9q0 -74 73 -74q30 0 50 17.5t20 43.5q0 9 -3 16.5t-9.5 13.5t-12.5 10t-18 8l-19 6.5t-21.5 6t-20.5 5.5q-73 22 -91 27q-106 30 -156.5 73.5t-50.5 133.5q0 115 86.5 176.5t247.5 61.5q313 0 313 -221v-1
h-255q-1 35 -15.5 49t-48.5 14q-30 0 -47.5 -13t-17.5 -35q0 -9 3.5 -16.5t11.5 -13t16 -10t21.5 -8.5t24.5 -6.5l28.5 -6.5t28.5 -7l90 -24q182 -52 182 -212q0 -137 -118 -203q-86 -48 -230 -48z" />
    <glyph glyph-name="afii10055" unicode="&#x406;" horiz-adv-x="388" 
d="M51 0v722h285v-722h-285z" />
    <glyph glyph-name="afii10056" unicode="&#x407;" horiz-adv-x="388" 
d="M51 0v722h285v-722h-285zM-8 772v170h164v-170h-164zM232 772v170h164v-170h-164z" />
    <glyph glyph-name="afii10057" unicode="&#x408;" horiz-adv-x="666" 
d="M301 -21q-139 0 -221 61.5t-82 165.5v32h242q-1 -5 -1 -11q0 -59 46 -59q50 0 50 81v473h285v-455q0 -102 -25 -153q-29 -62 -108.5 -98.5t-185.5 -36.5z" />
    <glyph glyph-name="afii10058" unicode="&#x409;" horiz-adv-x="1163" 
d="M102 -9q-58 0 -98 9v203q5 -2 24 -2q44 0 57 40q11 32 11 175v306h661v-243h114q276 0 276 -242q0 -106 -72 -171.5t-205 -65.5h-399v527h-99v-195q0 -341 -270 -341zM757 164h20q53 0 74.5 20t21.5 59q0 41 -22 56.5t-70 15.5h-24v-151z" />
    <glyph glyph-name="afii10059" unicode="&#x40a;" horiz-adv-x="1150" 
d="M52 0v722h286v-243h120v243h286v-243h114q276 0 276 -242q0 -106 -72 -171.5t-205 -65.5h-399v315h-120v-315h-286zM744 164h20q53 0 74.5 20t21.5 59q0 41 -22 56.5t-70 15.5h-24v-151z" />
    <glyph glyph-name="afii10060" unicode="&#x40b;" horiz-adv-x="900" 
d="M180 0v534h-177v188h642v-188h-178v-98q11 3 56.5 7t68.5 4q147 0 210.5 -55.5t63.5 -185.5v-206h-281v181q0 40 -20.5 59.5t-51.5 19.5q-25 0 -46 -7v-253h-287z" />
    <glyph glyph-name="afii10061" unicode="&#x40c;" horiz-adv-x="796" 
d="M53 0v722h280v-310l151 310h300l-193 -340l220 -382h-309l-169 324v-324h-280zM273 772l98 170h232l-154 -170h-176z" />
    <glyph glyph-name="uni040D" unicode="&#x40d;" horiz-adv-x="804" 
d="M52 0v722h257v-366h3l134 366h306v-722h-257v354h-3l-134 -354h-306zM361 772l-154 170h232l98 -170h-176z" />
    <glyph glyph-name="afii10062" unicode="&#x40e;" horiz-adv-x="759" 
d="M129 0l120 203l-256 519h291l105 -276l106 276h281l-366 -722h-281zM387 766q-82 0 -139.5 44.5t-57.5 131.5h148q0 -31 14.5 -44.5t34.5 -13.5q19 0 34.5 14.5t15.5 43.5h147q0 -83 -58 -129.5t-139 -46.5z" />
    <glyph glyph-name="afii10145" unicode="&#x40f;" horiz-adv-x="796" 
d="M283 -142v142h-231v722h286v-527h120v527h286v-722h-230v-142h-231z" />
    <glyph glyph-name="afii10017" unicode="&#x410;" horiz-adv-x="796" 
d="M-19 0l232 722h371l232 -722h-298l-28 116h-208l-29 -116h-272zM325 292h123l-59 271z" />
    <glyph glyph-name="afii10018" unicode="&#x411;" horiz-adv-x="751" 
d="M52 0v722h599v-186h-327v-90h154q114 0 184 -57t70 -172q0 -101 -72 -159t-205 -58h-403zM324 154h36q53 0 75.5 16t22.5 55q0 65 -101 65h-33v-136z" />
    <glyph glyph-name="afii10019" unicode="&#x412;" horiz-adv-x="758" 
d="M53 0v722h416q243 0 243 -186q0 -70 -33 -104t-103 -55q75 -11 116.5 -56t41.5 -115q0 -63 -35.5 -111.5t-95.5 -70.5q-63 -24 -165 -24h-385zM319 152h23q26 0 42.5 2t35 8.5t28 22.5t9.5 41q0 37 -26 54t-85 17h-27v-145zM319 432h26q99 0 99 70q0 35 -23.5 50.5
t-78.5 15.5h-23v-136z" />
    <glyph glyph-name="afii10020" unicode="&#x413;" horiz-adv-x="593" 
d="M51 0v722h539v-195h-253v-527h-286z" />
    <glyph glyph-name="afii10021" unicode="&#x414;" horiz-adv-x="841" 
d="M0 -142v337h62q10 20 18.5 41.5t14.5 40t11 44l8 41t5.5 45l3.5 42t1.5 46t0.5 42.5v45.5v43.5v96h636v-527h80v-337h-231v142h-379v-142h-231zM341 195h139v339h-91q0 -107 -9 -185.5t-39 -153.5z" />
    <glyph glyph-name="afii10022" unicode="&#x415;" 
d="M51 0v722h549v-188h-274v-78h253v-187h-253v-81h283v-188h-558z" />
    <glyph glyph-name="afii10024" unicode="&#x416;" horiz-adv-x="1204" 
d="M-16 0l220 382l-193 340h302l147 -312h2v312h280v-312h2l147 312h302l-193 -340l220 -382h-310l-166 324h-2v-324h-280v324h-2l-166 -324h-310z" />
    <glyph glyph-name="afii10025" unicode="&#x417;" horiz-adv-x="722" 
d="M365 -21q-179 0 -262.5 64.5t-83.5 191.5h271q0 -90 72 -90q33 0 50.5 19t17.5 51q0 77 -105 77q-20 0 -48 -2v154q36 -2 59 -2q87 0 87 71q0 28 -16.5 46t-49.5 18q-30 0 -48 -20.5t-18 -53.5h-258q0 76 26 123q63 115 307 115q161 0 240 -55.5t79 -146.5
q0 -61 -39 -105t-111 -54v-2q84 -7 123.5 -53t39.5 -114q0 -117 -80.5 -174.5t-252.5 -57.5z" />
    <glyph glyph-name="afii10026" unicode="&#x418;" horiz-adv-x="804" 
d="M52 0v722h257v-366h3l134 366h306v-722h-257v354h-3l-134 -354h-306z" />
    <glyph glyph-name="afii10027" unicode="&#x419;" horiz-adv-x="804" 
d="M52 0v722h257v-366h3l134 366h306v-722h-257v354h-3l-134 -354h-306zM402 766q-82 0 -139.5 44.5t-57.5 131.5h148q0 -31 14.5 -44.5t34.5 -13.5q19 0 34.5 14.5t15.5 43.5h147q0 -83 -58 -129.5t-139 -46.5z" />
    <glyph glyph-name="afii10028" unicode="&#x41a;" horiz-adv-x="796" 
d="M53 0v722h280v-310l151 310h300l-193 -340l220 -382h-309l-169 324v-324h-280z" />
    <glyph glyph-name="afii10029" unicode="&#x41b;" horiz-adv-x="809" 
d="M102 -9q-58 0 -98 9v204q6 -3 24 -3q44 0 57 40q11 32 11 175v306h661v-722h-286v527h-99v-195q0 -341 -270 -341z" />
    <glyph glyph-name="afii10030" unicode="&#x41c;" horiz-adv-x="1056" 
d="M55 0v722h400l74 -430l83 430h390v-722h-236v518l-109 -518h-257l-109 518v-518h-236z" />
    <glyph glyph-name="afii10031" unicode="&#x41d;" horiz-adv-x="796" 
d="M52 0v722h286v-247h120v247h286v-722h-286v266h-120v-266h-286z" />
    <glyph glyph-name="afii10032" unicode="&#x41e;" horiz-adv-x="796" 
d="M397 -21q-173 0 -272.5 100.5t-99.5 276.5q0 183 100 284t281 101q173 0 269 -99.5t96 -280.5q0 -178 -100 -280t-274 -102zM395 170q45 0 62 44.5t17 162.5q0 45 -2 72.5t-9 53t-22.5 37t-40.5 11.5q-46 0 -63 -46.5t-17 -151.5q0 -90 16 -136.5t59 -46.5z" />
    <glyph glyph-name="afii10033" unicode="&#x41f;" horiz-adv-x="796" 
d="M52 0v722h692v-722h-286v527h-120v-527h-286z" />
    <glyph glyph-name="afii10034" unicode="&#x420;" horiz-adv-x="740" 
d="M51 0v722h405q86 0 146 -26q58 -24 92 -81t34 -130q0 -74 -37.5 -133.5t-104.5 -85.5q-61 -23 -166 -23h-82v-243h-287zM338 407h16q51 0 75 19.5t24 62.5q0 72 -91 72h-24v-154z" />
    <glyph glyph-name="afii10035" unicode="&#x421;" horiz-adv-x="758" 
d="M393 -19q-176 0 -272.5 99t-96.5 281q0 178 97.5 277t272.5 99q155 0 246 -70.5t91 -216.5v-1h-263q-4 52 -20 74.5t-48 22.5q-27 0 -44 -13.5t-24 -42.5t-9 -55.5t-2 -71.5q0 -48 2 -76t9.5 -58.5t24.5 -44.5t44 -14q32 0 48 22.5t19 73.5h268v-1q0 -133 -91 -208.5
t-252 -75.5z" />
    <glyph glyph-name="afii10036" unicode="&#x422;" horiz-adv-x="648" 
d="M180 0v527h-177v195h642v-195h-178v-527h-287z" />
    <glyph glyph-name="afii10037" unicode="&#x423;" horiz-adv-x="759" 
d="M129 0l120 203l-256 519h291l105 -276l106 276h281l-366 -722h-281z" />
    <glyph glyph-name="afii10038" unicode="&#x424;" horiz-adv-x="1007" 
d="M367 -19v84q-151 0 -247.5 78.5t-96.5 227.5t96.5 227.5t247.5 78.5v61h273v-61q151 0 247.5 -78.5t96.5 -227.5t-96.5 -227.5t-247.5 -78.5v-84h-273zM377 249v244q-71 0 -71 -122t71 -122zM630 249q71 0 71 122t-71 122v-244z" />
    <glyph glyph-name="afii10039" unicode="&#x425;" horiz-adv-x="778" 
d="M-14 0l235 369l-219 353h300l96 -203l97 203h289l-223 -353l231 -369h-300l-108 220l-112 -220h-286z" />
    <glyph glyph-name="afii10040" unicode="&#x426;" horiz-adv-x="824" 
d="M593 -142v142h-541v722h286v-527h120v527h286v-527h80v-337h-231z" />
    <glyph glyph-name="afii10041" unicode="&#x427;" horiz-adv-x="783" 
d="M445 0v242q-12 -3 -62.5 -8.5t-72.5 -5.5q-143 0 -203.5 63.5t-60.5 197.5v233h281v-213q0 -79 62 -79q35 0 56 7v285h286v-722h-286z" />
    <glyph glyph-name="afii10042" unicode="&#x428;" horiz-adv-x="1200" 
d="M52 0v722h284v-527h122v527h284v-527h122v527h284v-722h-1096z" />
    <glyph glyph-name="afii10043" unicode="&#x429;" horiz-adv-x="1227" 
d="M996 -142v142h-945v722h284v-527h122v527h284v-527h122v527h284v-527h80v-337h-231z" />
    <glyph glyph-name="afii10044" unicode="&#x42a;" horiz-adv-x="864" 
d="M172 0v534h-169v188h455v-243h114q276 0 276 -242q0 -106 -72 -171.5t-205 -65.5h-399zM458 164h20q53 0 74.5 20t21.5 59q0 41 -22 56.5t-70 15.5h-24v-151z" />
    <glyph glyph-name="afii10045" unicode="&#x42b;" horiz-adv-x="1116" 
d="M52 0v722h286v-243h114q276 0 276 -242q0 -106 -72 -171.5t-205 -65.5h-399zM338 164h20q53 0 74.5 20t21.5 59q0 41 -22 56.5t-70 15.5h-24v-151zM778 0v722h286v-722h-286z" />
    <glyph glyph-name="afii10046" unicode="&#x42c;" horiz-adv-x="744" 
d="M52 0v722h286v-243h114q276 0 276 -242q0 -106 -72 -171.5t-205 -65.5h-399zM338 164h20q53 0 74.5 20t21.5 59q0 41 -22 56.5t-70 15.5h-24v-151z" />
    <glyph glyph-name="afii10047" unicode="&#x42d;" horiz-adv-x="758" 
d="M365 -19q-146 0 -242.5 67.5t-100.5 203.5h269q7 -87 72 -87q42 0 58.5 31.5t18.5 94.5h-157v141h156q-3 62 -20 90.5t-58 28.5q-60 0 -70 -82h-264q5 136 97 202t240 66q175 0 272.5 -99t97.5 -277q0 -182 -96.5 -281t-272.5 -99z" />
    <glyph glyph-name="afii10048" unicode="&#x42e;" horiz-adv-x="1144" 
d="M751 -21q-151 0 -245 78.5t-115 218.5h-57v-276h-282v722h282v-257h61q26 133 120 204.5t245 71.5q173 0 266 -99.5t93 -280.5q0 -178 -97.5 -280t-270.5 -102zM749 170q45 0 60.5 44t15.5 163q0 31 -0.5 49.5t-2.5 41.5t-7 36t-12.5 25t-19.5 17t-29 5
q-46 0 -61.5 -45.5t-15.5 -152.5q0 -45 3 -75.5t10 -56.5t22 -38.5t37 -12.5z" />
    <glyph glyph-name="afii10049" unicode="&#x42f;" horiz-adv-x="772" 
d="M19 0q21 63 29 125l8 68q8 67 36 98.5t96 42.5q-68 20 -105 68t-37 116q0 61 20.5 102t59.5 63t85 30.5t108 8.5h401v-722h-282v246h-24q-53 0 -66 -15.5t-24 -92.5l-5 -33q-9 -67 -20 -105h-280zM419 406h21v156h-18q-57 0 -80 -17.5t-23 -58.5q0 -39 26 -59.5t74 -20.5
z" />
    <glyph glyph-name="afii10065" unicode="&#x430;" horiz-adv-x="592" 
d="M191 -13q-83 0 -129.5 40.5t-46.5 113.5q0 53 25 90t67.5 54.5t86 25t93.5 7.5q26 0 45 -1v43q0 40 -46 40t-47 -48h-199v1q0 48 31 87q57 73 224 73q127 0 194 -38q38 -21 51 -57t13 -88v-330h-212l-4 53q-55 -66 -146 -66zM279 115q30 0 43 19t13 63v26q-20 2 -22 2
q-89 0 -89 -62q0 -48 55 -48z" />
    <glyph glyph-name="afii10066" unicode="&#x431;" horiz-adv-x="660" 
d="M334 -15q-187 0 -258 117q-24 39 -33 85t-9 129q0 139 38 235q23 58 83 96.5t153 49.5q6 1 25.5 2.5t34 3.5t31.5 5t26.5 8t10.5 12h188q0 -91 -38.5 -130.5t-141.5 -48.5q-141 -12 -191.5 -39t-60.5 -103q44 84 179 84q122 0 192.5 -65.5t70.5 -181.5
q0 -120 -76.5 -189.5t-223.5 -69.5zM334 116q25 0 37.5 26t12.5 97t-12.5 97t-37.5 26t-37.5 -26t-12.5 -97t12.5 -97t37.5 -26z" />
    <glyph glyph-name="afii10067" unicode="&#x432;" horiz-adv-x="611" 
d="M36 0v500h364q169 0 169 -128q0 -48 -23 -71.5t-72 -38.5q53 -8 81.5 -39t28.5 -80q0 -44 -25 -77.5t-66 -48.5q-46 -17 -115 -17h-342zM260 108h47q55 0 55 49q0 27 -16.5 36t-54.5 9h-31v-94zM260 313h35q54 0 54 41q0 40 -52 40h-37v-81z" />
    <glyph glyph-name="afii10068" unicode="&#x433;" horiz-adv-x="480" 
d="M40 0v500h437v-160h-195v-340h-242z" />
    <glyph glyph-name="afii10069" unicode="&#x434;" horiz-adv-x="679" 
d="M0 -112v272h45q5 12 9.5 26l8 25t6 27.5t4.5 25t3 28t1.5 26t1 28.5t0.5 26v28v26v74h537v-340h58v-272h-202v112h-270v-112h-202zM283 160h96v192h-72q0 -119 -24 -192z" />
    <glyph glyph-name="afii10070" unicode="&#x435;" 
d="M312 -16q-137 0 -212 67.5t-75 203.5t83 200.5t223 64.5q274 0 274 -285v-27h-347v-1v-22q0 -79 67 -79q55 0 63 58h210q0 -22 -14 -51t-31 -48q-69 -81 -241 -81zM258 315h130q0 41 -12.5 62t-51.5 21q-38 0 -52 -21.5t-14 -61.5z" />
    <glyph glyph-name="afii10072" unicode="&#x436;" horiz-adv-x="942" 
d="M-12 0l150 268l-140 232h262l90 -211h2v211h238v-211h2l90 211h262l-140 -232l150 -268h-262l-100 243h-2v-243h-238v243h-2l-100 -243h-262z" />
    <glyph glyph-name="afii10073" unicode="&#x437;" horiz-adv-x="597" 
d="M296 -18q-133 0 -201.5 44t-68.5 141h218q0 -73 55 -73t55 58q0 30 -17 40t-54 10h-51v113h55q54 0 54 46q0 45 -49 45q-51 0 -51 -59h-206q0 171 271 171q249 0 249 -139q0 -46 -23.5 -73t-51.5 -36v-2q35 -7 63 -35t28 -70q0 -88 -62.5 -134.5t-212.5 -46.5z" />
    <glyph glyph-name="afii10074" unicode="&#x438;" horiz-adv-x="660" 
d="M36 0v500h228v-225l117 225h243v-500h-228v228l-117 -228h-243z" />
    <glyph glyph-name="afii10075" unicode="&#x439;" horiz-adv-x="660" 
d="M36 0v500h228v-225l117 225h243v-500h-228v228l-117 -228h-243zM330 548q-83 0 -140 44t-57 130h148q0 -31 14.5 -44.5t34.5 -13.5q19 0 34.5 14.5t15.5 43.5h147q0 -82 -58 -128t-139 -46z" />
    <glyph glyph-name="afii10076" unicode="&#x43a;" 
d="M36 0v500h242v-216h2l90 216h262l-140 -237l150 -263h-262l-100 238h-2v-238h-242z" />
    <glyph glyph-name="afii10077" unicode="&#x43b;" horiz-adv-x="663" 
d="M98 -7l-94 7v153l4 -1q3 -1 6 -1q18 0 31 5.5t21 19.5t12.5 25t6.5 36t2 37v42v18v166h540v-500h-242v340h-74v-93q0 -144 -52.5 -199t-160.5 -55z" />
    <glyph glyph-name="afii10078" unicode="&#x43c;" horiz-adv-x="834" 
d="M36 0v500h322l60 -318h2l60 318h318v-500h-212v326h-2l-66 -326h-198l-70 326h-2v-326h-212z" />
    <glyph glyph-name="afii10079" unicode="&#x43d;" horiz-adv-x="648" 
d="M36 0v500h242v-158h92v158h242v-500h-242v178h-92v-178h-242z" />
    <glyph glyph-name="afii10080" unicode="&#x43e;" horiz-adv-x="666" 
d="M318 -16q-131 0 -212 68.5t-81 198.5q0 133 83 201.5t219 68.5q142 0 227.5 -66t85.5 -203q0 -268 -322 -268zM332 117q19 0 31 11t17.5 33.5t7 43.5t1.5 54q0 69 -13 98.5t-42 29.5q-32 0 -43.5 -32t-11.5 -96q0 -78 9.5 -110t43.5 -32z" />
    <glyph glyph-name="afii10081" unicode="&#x43f;" horiz-adv-x="648" 
d="M36 0v500h576v-500h-242v340h-92v-340h-242z" />
    <glyph glyph-name="afii10082" unicode="&#x440;" horiz-adv-x="666" 
d="M39 -192v692h228l8 -58q55 74 149 74q100 0 156.5 -72.5t56.5 -202.5q0 -121 -54.5 -189.5t-149.5 -68.5q-49 0 -83 13.5t-65 47.5v-236h-246zM335 127q14 0 23.5 4.5t15.5 16t9.5 20.5t5 27t1.5 26.5v28.5q0 68 -13 95t-45 27q-34 0 -43 -27.5t-9 -93.5q0 -30 1 -47
t6 -37.5t17 -30t31 -9.5z" />
    <glyph glyph-name="afii10083" unicode="&#x441;" 
d="M325 -15q-299 0 -299 268q0 124 79.5 194t219.5 70q131 0 204.5 -57t73.5 -158v-1h-223q-1 48 -13 68.5t-40 20.5q-14 0 -24.5 -4.5t-16.5 -16.5t-9.5 -23t-5 -34.5t-2 -39t-0.5 -47.5q0 -70 12 -91q14 -24 46 -24q53 0 53 96h227q0 -62 -23 -107t-63.5 -69t-88.5 -34.5
t-107 -10.5z" />
    <glyph glyph-name="afii10084" unicode="&#x442;" horiz-adv-x="526" 
d="M142 0v340h-139v160h520v-160h-139v-340h-242z" />
    <glyph glyph-name="afii10085" unicode="&#x443;" 
d="M135 -192l66 177l-204 515h258l70 -274l68 274h241l-238 -692h-261z" />
    <glyph glyph-name="afii10086" unicode="&#x444;" horiz-adv-x="944" 
d="M350 -192v210q-41 -31 -101 -31q-106 0 -164.5 73.5t-58.5 198.5q0 114 53.5 185.5t150.5 71.5q37 0 71.5 -12t48.5 -26v244h244v-244q14 14 48.5 26t71.5 12q97 0 150.5 -71.5t53.5 -185.5q0 -125 -58.5 -198.5t-164.5 -73.5q-60 0 -101 31v-210h-244zM324 123
q16 0 30 12v228q-10 13 -29 13q-29 0 -40 -30t-11 -94q0 -60 10 -94.5t40 -34.5zM620 123q30 0 40 34.5t10 94.5q0 64 -11 94t-40 30q-19 0 -29 -13v-228q14 -12 30 -12z" />
    <glyph glyph-name="afii10087" unicode="&#x445;" 
d="M-13 0l153 267l-138 233h258l52 -132l46 132h257l-127 -233l155 -267h-254l-74 150l-61 -150h-267z" />
    <glyph glyph-name="afii10088" unicode="&#x446;" horiz-adv-x="670" 
d="M468 -112v112h-432v500h242v-340h92v340h242v-340h58v-272h-202z" />
    <glyph glyph-name="afii10089" unicode="&#x447;" horiz-adv-x="634" 
d="M356 0v175q-62 -30 -157 -30q-169 0 -169 183v172h237v-149q0 -58 41 -58q28 0 48 15v192h242v-500h-242z" />
    <glyph glyph-name="afii10090" unicode="&#x448;" horiz-adv-x="968" 
d="M36 0v500h240v-340h88v340h240v-340h88v340h240v-500h-896z" />
    <glyph glyph-name="afii10091" unicode="&#x449;" horiz-adv-x="990" 
d="M788 -112v112h-752v500h240v-340h88v340h240v-340h88v340h240v-340h58v-272h-202z" />
    <glyph glyph-name="afii10092" unicode="&#x44a;" horiz-adv-x="711" 
d="M136 0v340h-133v160h369v-167h132q192 0 192 -168q0 -74 -50.5 -119.5t-142.5 -45.5h-367zM372 124h40q29 0 42 10.5t13 37.5q0 30 -17 40t-54 10h-24v-98z" />
    <glyph glyph-name="afii10093" unicode="&#x44b;" horiz-adv-x="928" 
d="M36 0v500h236v-167h132q192 0 192 -168q0 -74 -50.5 -119.5t-142.5 -45.5h-367zM272 124h40q29 0 42 10.5t13 37.5q0 30 -17 40t-54 10h-24v-98zM650 0v500h242v-500h-242z" />
    <glyph glyph-name="afii10094" unicode="&#x44c;" horiz-adv-x="611" 
d="M36 0v500h236v-167h132q192 0 192 -168q0 -74 -50.5 -119.5t-142.5 -45.5h-367zM272 124h40q29 0 42 10.5t13 37.5q0 30 -17 40t-54 10h-24v-98z" />
    <glyph glyph-name="afii10095" unicode="&#x44d;" 
d="M305 -15q-264 0 -281 195h226q4 -73 53 -73q34 0 46 21t14 76h-123v109h122q-5 82 -57 82q-46 0 -53 -58h-223q13 86 85.5 133t190.5 47q140 0 219.5 -70t79.5 -194q0 -268 -299 -268z" />
    <glyph glyph-name="afii10096" unicode="&#x44e;" horiz-adv-x="958" 
d="M610 -16q-114 0 -190 52t-94 152h-48v-188h-242v500h242v-168h51q24 93 101 141t189 48q142 0 227.5 -66t85.5 -203q0 -268 -322 -268zM624 117q19 0 31 11t17.5 33.5t7 43.5t1.5 54q0 69 -13 98.5t-42 29.5q-32 0 -43.5 -32t-11.5 -96q0 -78 9.5 -110t43.5 -32z" />
    <glyph glyph-name="afii10097" unicode="&#x44f;" horiz-adv-x="625" 
d="M15 0q8 30 17.5 81t15.5 70q20 64 78 67v3q-32 5 -64 38.5t-32 91.5q0 63 42.5 106t139.5 43h377v-500h-236v164h-30q-32 0 -39 -55q-4 -32 -19 -109h-250zM327 276h26v100h-24q-40 0 -55.5 -10.5t-15.5 -38.5q0 -51 69 -51z" />
    <glyph glyph-name="uni0450" unicode="&#x450;" 
d="M312 -16q-137 0 -212 67.5t-75 203.5t83 200.5t223 64.5q274 0 274 -285v-27h-347v-1v-22q0 -79 67 -79q55 0 63 58h210q0 -22 -14 -51t-31 -48q-69 -81 -241 -81zM258 315h130q0 41 -12.5 62t-51.5 21q-38 0 -52 -21.5t-14 -61.5zM428 552h-177l-154 170h235z" />
    <glyph glyph-name="afii10071" unicode="&#x451;" 
d="M312 -16q-137 0 -212 67.5t-75 203.5t83 200.5t223 64.5q274 0 274 -285v-27h-347v-1v-22q0 -79 67 -79q55 0 63 58h210q0 -22 -14 -51t-31 -48q-69 -81 -241 -81zM258 315h130q0 41 -12.5 62t-51.5 21q-38 0 -52 -21.5t-14 -61.5zM113 552v170h164v-170h-164zM353 552
v170h164v-170h-164z" />
    <glyph glyph-name="afii10099" unicode="&#x452;" horiz-adv-x="655" 
d="M304 -191v126q4 0 11 -0.5t10 -0.5q34 0 43 17t9 62v278q0 59 -44 59q-45 0 -45 -67v-283h-244v532h-71v138h71v52h244v-52h148v-138h-148v-115q26 44 63 63.5t93 19.5q54 0 90 -16t53.5 -46t24.5 -63t7 -78v-287q0 -55 -13 -94t-32 -60.5t-51 -33t-59.5 -14t-69.5 -2.5
q-56 0 -90 3z" />
    <glyph glyph-name="afii10100" unicode="&#x453;" horiz-adv-x="480" 
d="M40 0v500h437v-160h-195v-340h-242zM115 552l98 170h232l-154 -170h-176z" />
    <glyph glyph-name="afii10101" unicode="&#x454;" 
d="M325 -15q-299 0 -299 268q0 124 79.5 194t219.5 70q118 0 190.5 -47t85.5 -133h-223q-7 58 -53 58q-52 0 -57 -82h122v-109h-123q2 -55 14 -76t46 -21q49 0 53 73h226q-17 -195 -281 -195z" />
    <glyph glyph-name="afii10102" unicode="&#x455;" horiz-adv-x="592" 
d="M286 -19q-264 0 -264 181h221q0 -68 55 -68q51 0 51 45q0 24 -24.5 34.5t-82.5 17.5l-23 3q-100 13 -144 49t-44 102q0 174 266 174q127 0 192 -42.5t65 -125.5v-1h-208v5q0 28 -12 40t-39 12q-49 0 -49 -39q0 -21 16.5 -28.5t66.5 -15.5q9 -1 14 -2l48 -8
q79 -13 124 -41q54 -32 54 -114q0 -80 -60 -126q-69 -52 -223 -52z" />
    <glyph glyph-name="afii10103" unicode="&#x456;" horiz-adv-x="314" 
d="M38 0v500h238v-500h-238zM38 569v153h238v-153h-238z" />
    <glyph glyph-name="afii10104" unicode="&#x457;" horiz-adv-x="314" 
d="M36 0v500h242v-500h-242zM-45 552v170h164v-170h-164zM195 552v170h164v-170h-164z" />
    <glyph glyph-name="afii10105" unicode="&#x458;" horiz-adv-x="314" 
d="M-50 -191v126q4 0 11 -0.5t10 -0.5q40 0 52 15q14 17 14 64v487h238v-510q0 -62 -13 -95t-45 -55q-29 -20 -70 -27t-128 -7q-35 0 -69 3zM37 569v153h238v-153h-238z" />
    <glyph glyph-name="afii10106" unicode="&#x459;" horiz-adv-x="966" 
d="M98 -7l-94 7v153l4 -1q3 -1 6 -1q18 0 31 5.5t21 19.5t12.5 25t6.5 36t2 37v42v18v166h540v-167h132q192 0 192 -168q0 -74 -50.5 -119.5t-142.5 -45.5h-373v340h-74v-93q0 -144 -52.5 -199t-160.5 -55zM627 124h40q29 0 42 10.5t13 37.5q0 30 -17 40t-54 10h-24v-98z
" />
    <glyph glyph-name="afii10107" unicode="&#x45a;" horiz-adv-x="951" 
d="M36 0v500h242v-167h92v167h242v-167h132q192 0 192 -168q0 -74 -50.5 -119.5t-142.5 -45.5h-373v222h-92v-222h-242zM612 124h40q29 0 42 10.5t13 37.5q0 30 -17 40t-54 10h-24v-98z" />
    <glyph glyph-name="afii10108" unicode="&#x45b;" horiz-adv-x="655" 
d="M44 0v532h-71v138h71v52h244v-52h148v-138h-148v-115q26 44 63 63.5t93 19.5q54 0 90 -16t53.5 -46t24.5 -63t7 -78v-297h-242v291q0 59 -44 59q-45 0 -45 -67v-283h-244z" />
    <glyph glyph-name="afii10109" unicode="&#x45c;" 
d="M36 0v500h242v-216h2l90 216h262l-140 -237l150 -263h-262l-100 238h-2v-238h-242zM190 552l98 170h232l-154 -170h-176z" />
    <glyph glyph-name="uni045D" unicode="&#x45d;" horiz-adv-x="660" 
d="M36 0v500h228v-225l117 225h243v-500h-228v228l-117 -228h-243zM465 552h-177l-154 170h235z" />
    <glyph glyph-name="afii10110" unicode="&#x45e;" 
d="M135 -192l66 177l-204 515h258l70 -274l68 274h241l-238 -692h-261zM330 548q-83 0 -140 44t-57 130h148q0 -31 14.5 -44.5t34.5 -13.5q19 0 34.5 14.5t15.5 43.5h147q0 -82 -58 -128t-139 -46z" />
    <glyph glyph-name="afii10193" unicode="&#x45f;" horiz-adv-x="648" 
d="M223 -112v112h-187v500h242v-340h92v340h242v-500h-187v-112h-202z" />
    <glyph glyph-name="afii10146" unicode="&#x462;" horiz-adv-x="819" 
d="M127 0v507h-127v165h127v69h286v-69h138v-165h-138v-61h136q114 0 184 -57t70 -172q0 -101 -72 -159t-205 -58h-399zM413 154h18q53 0 75.5 16t22.5 55q0 65 -101 65h-15v-136z" />
    <glyph glyph-name="afii10194" unicode="&#x463;" horiz-adv-x="697" 
d="M122 0v391h-122v130h122v201h236v-201h122v-130h-122v-58h132q192 0 192 -168q0 -74 -50.5 -119.5t-142.5 -45.5h-367zM358 124h40q29 0 42 10.5t13 37.5q0 30 -17 40t-54 10h-24v-98z" />
    <glyph glyph-name="afii10147" unicode="&#x472;" horiz-adv-x="796" 
d="M397 -21q-173 0 -272.5 100.5t-99.5 276.5q0 183 100 284t281 101q173 0 269 -99.5t96 -280.5q0 -178 -100 -280t-274 -102zM395 158q41 0 61.5 33t25.5 113q-20 -14 -45 -14q-15 0 -44.5 13.5t-42.5 13.5q-25 0 -39 -14q10 -145 84 -145zM440 425q28 0 42 19
q-5 60 -23 89.5t-59 29.5q-38 0 -58.5 -29.5t-27.5 -90.5q18 10 37 10t49 -14t40 -14z" />
    <glyph glyph-name="afii10195" unicode="&#x473;" horiz-adv-x="666" 
d="M318 -16q-131 0 -212 68.5t-81 198.5q0 133 83 201.5t219 68.5q142 0 227.5 -66t85.5 -203q0 -268 -322 -268zM331 110q33 0 47.5 23.5t18.5 67.5q-15 -9 -32 -9q-12 0 -35.5 11t-33.5 11q-18 0 -27 -8q2 -51 15 -73.5t47 -22.5zM368 300q19 0 28 10q-9 84 -63 84
q-29 0 -43.5 -19.5t-19.5 -58.5q12 6 27 6t39 -11t32 -11z" />
    <glyph glyph-name="afii10148" unicode="&#x474;" horiz-adv-x="759" 
d="M185 0l-194 722h293l91 -562l72 423q25 150 207 150q49 0 116 -12v-164q-25 3 -34 3q-33 0 -41 -29l-140 -531h-370z" />
    <glyph glyph-name="afii10196" unicode="&#x475;" 
d="M151 0l-151 500h250l67 -309l36 190q25 133 184 133q39 0 103 -11v-145q-4 0 -12.5 1t-17.5 1q-29 0 -36 -25l-93 -335h-330z" />
    <glyph glyph-name="afii10050" unicode="&#x490;" horiz-adv-x="593" 
d="M51 0v722h318v140h221v-335h-253v-527h-286z" />
    <glyph glyph-name="afii10098" unicode="&#x491;" horiz-adv-x="480" 
d="M40 0v500h262v112h175v-272h-195v-340h-242z" />
    <glyph glyph-name="Wgrave" unicode="&#x1e80;" horiz-adv-x="1036" 
d="M1051 722l-153 -722h-309l-68 468l-69 -468h-313l-153 722h256l62 -455l68 455h298l67 -455l64 455h250zM458 772l-154 170h232l98 -170h-176z" />
    <glyph glyph-name="wgrave" unicode="&#x1e81;" horiz-adv-x="944" 
d="M946 500l-126 -500h-294l-64 319l-59 -319h-296l-109 500h231l44 -326l62 326h265l59 -326l53 326h234zM576 552h-177l-154 170h235z" />
    <glyph glyph-name="Wacute" unicode="&#x1e82;" horiz-adv-x="1036" 
d="M1051 722l-153 -722h-309l-68 468l-69 -468h-313l-153 722h256l62 -455l68 455h298l67 -455l64 455h250zM423 772l98 170h232l-154 -170h-176z" />
    <glyph glyph-name="wacute" unicode="&#x1e83;" horiz-adv-x="944" 
d="M946 500l-126 -500h-294l-64 319l-59 -319h-296l-109 500h231l44 -326l62 326h265l59 -326l53 326h234zM373 552l98 170h232l-154 -170h-176z" />
    <glyph glyph-name="Wdieresis" unicode="&#x1e84;" horiz-adv-x="1036" 
d="M1051 722l-153 -722h-309l-68 468l-69 -468h-313l-153 722h256l62 -455l68 455h298l67 -455l64 455h250zM317 772v170h164v-170h-164zM557 772v170h164v-170h-164z" />
    <glyph glyph-name="wdieresis" unicode="&#x1e85;" horiz-adv-x="944" 
d="M946 500l-126 -500h-294l-64 319l-59 -319h-296l-109 500h231l44 -326l62 326h265l59 -326l53 326h234zM262 552v170h164v-170h-164zM502 552v170h164v-170h-164z" />
    <glyph glyph-name="Ygrave" unicode="&#x1ef2;" horiz-adv-x="740" 
d="M758 722l-245 -472v-250h-285v250l-246 472h296l103 -303l101 303h276zM322 772l-154 170h232l98 -170h-176z" />
    <glyph glyph-name="ygrave" unicode="&#x1ef3;" 
d="M634 500l-238 -692h-261l66 177l-204 515h258l70 -274l68 274h241zM437 552h-177l-154 170h235z" />
    <glyph glyph-name="uni2010" unicode="&#x2010;" horiz-adv-x="407" 
d="M378 182h-349v167h349v-167z" />
    <glyph glyph-name="endash" unicode="&#x2013;" horiz-adv-x="500" 
d="M500 182h-500v167h500v-167z" />
    <glyph glyph-name="emdash" unicode="&#x2014;" horiz-adv-x="1000" 
d="M1000 182h-1000v167h1000v-167z" />
    <glyph glyph-name="quoteleft" unicode="&#x2018;" horiz-adv-x="352" 
d="M329 722l-75 -299h-232l116 299h191z" />
    <glyph glyph-name="quoteright" unicode="&#x2019;" horiz-adv-x="352" 
d="M330 722l-116 -299h-191l75 299h232z" />
    <glyph glyph-name="quotesinglbase" unicode="&#x201a;" horiz-adv-x="352" 
d="M330 208l-116 -298h-191l75 298h232z" />
    <glyph glyph-name="quotedblleft" unicode="&#x201c;" horiz-adv-x="592" 
d="M587 722l-75 -299h-231l115 299h191zM312 722l-75 -299h-232l116 299h191z" />
    <glyph glyph-name="quotedblright" unicode="&#x201d;" horiz-adv-x="592" 
d="M587 722l-115 -299h-191l75 299h231zM312 722l-116 -299h-191l75 299h232z" />
    <glyph glyph-name="quotedblbase" unicode="&#x201e;" horiz-adv-x="592" 
d="M586 208l-115 -298h-191l75 298h231zM311 208l-116 -298h-191l75 298h232z" />
    <glyph glyph-name="dagger" unicode="&#x2020;" horiz-adv-x="704" 
d="M617 412h-162v-412h-205v412h-163v164h163v146h205v-146h162v-164z" />
    <glyph glyph-name="daggerdbl" unicode="&#x2021;" horiz-adv-x="704" 
d="M617 113h-167v-113h-196v113h-167v156h167v180h-167v153h167v120h196v-120h167v-153h-167v-180h167v-156z" />
    <glyph glyph-name="bullet" unicode="&#x2022;" horiz-adv-x="500" 
d="M431 360q0 -75 -53 -128t-128 -53t-128 53t-53 128t53 128t128 53t128 -53t53 -128z" />
    <glyph glyph-name="ellipsis" unicode="&#x2026;" horiz-adv-x="1000" 
d="M46 0v206h242v-206h-242zM379 0v206h242v-206h-242zM712 0v206h242v-206h-242z" />
    <glyph glyph-name="perthousand" unicode="&#x2030;" horiz-adv-x="1166" 
d="M3 509q0 232 177 232q75 0 119 -56t44 -160q0 -232 -177 -232q-75 0 -119 56t-44 160zM139 517q0 -72 7 -95t27 -23t27 23t7 95t-7 95t-27 23t-27 -23t-7 -95zM451 197q0 232 177 232q75 0 119 -56t44 -160q0 -232 -177 -232q-75 0 -119 56t-44 160zM587 205q0 -72 7 -95
t27 -23t27 23t7 95t-7 95t-27 23t-27 -23t-7 -95zM823 197q0 232 177 232q75 0 119 -56t44 -160q0 -232 -177 -232q-75 0 -119 56t-44 160zM959 205q0 -72 7 -95t27 -23t27 23t7 95t-7 95t-27 23t-27 -23t-7 -95zM141 -25l403 772h106l-403 -772h-106z" />
    <glyph glyph-name="guilsinglleft" unicode="&#x2039;" horiz-adv-x="352" 
d="M347 0h-194l-152 250l152 250h194l-110 -250z" />
    <glyph glyph-name="guilsinglright" unicode="&#x203a;" horiz-adv-x="352" 
d="M351 248l-152 -248h-194l110 248l-110 252h194z" />
    <glyph glyph-name="interrobang" unicode="&#x203d;" horiz-adv-x="537" 
d="M93 0v164h240v-164h-240zM112 208l-26 310h176q-4 33 -29.5 49.5t-61.5 16.5q-59 0 -141 -25v149q116 33 212 33q54 0 101 -10.5t87 -33t63.5 -64t23.5 -97.5q0 -60 -32.5 -101.5t-94.5 -88.5l-16 -12q-54 -41 -57 -80l-4 -46h-201z" />
    <glyph glyph-name="fraction" unicode="&#x2044;" horiz-adv-x="167" 
d="M-171 -25l403 772h106l-403 -772h-106z" />
    <glyph glyph-name="zero.superior" unicode="&#x2070;" horiz-adv-x="458" 
d="M219 277q-195 0 -195 225q0 107 50.5 168.5t156.5 61.5q111 0 156.5 -58t45.5 -171q0 -107 -53 -166.5t-161 -59.5zM230 390q11 0 18 8.5t10 28t3.5 34t0.5 42.5q0 69 -6.5 92.5t-25.5 23.5q-21 0 -28 -25t-7 -95q0 -27 1 -42t4 -33t10.5 -26t19.5 -8z" />
    <glyph glyph-name="four.superior" unicode="&#x2074;" horiz-adv-x="444" 
d="M218 289v68h-204v125l150 240h217v-249h54v-116h-54v-68h-163zM147 473h71v126q-11 -18 -71 -126z" />
    <glyph glyph-name="five.superior" unicode="&#x2075;" horiz-adv-x="444" 
d="M217 277q-91 0 -140 35.5t-51 100.5h163q0 -32 23 -32q17 0 24.5 12t7.5 47q0 29 -6.5 39.5t-23.5 10.5q-25 0 -28 -33h-152l9 265h347v-109h-202q-1 -10 -2 -27t-2 -27q33 25 85 25q67 0 107 -38t40 -102q0 -77 -52 -122t-147 -45z" />
    <glyph glyph-name="six.superior" unicode="&#x2076;" horiz-adv-x="458" 
d="M233 277q-106 0 -155 59.5t-49 164.5q0 106 53 168.5t161 62.5q169 0 169 -133h-151q0 31 -26 31q-17 0 -26 -12q-14 -24 -17 -74q30 29 86 29q66 0 110 -36t44 -98q0 -75 -53.5 -118.5t-145.5 -43.5zM235 381q38 0 38 54q0 46 -36 46q-38 0 -38 -53q0 -47 36 -47z" />
    <glyph glyph-name="seven.superior" unicode="&#x2077;" horiz-adv-x="444" 
d="M62 289l165 311h-192v122h380v-97l-165 -336h-188z" />
    <glyph glyph-name="eight.superior" unicode="&#x2078;" horiz-adv-x="444" 
d="M212 277q-48 0 -88.5 10t-72.5 40.5t-32 78.5q0 78 75 102q-65 23 -65 92q0 64 51 98t148 34q89 0 136 -34t47 -98q0 -67 -63 -91q76 -20 76 -101q0 -64 -54.5 -97.5t-157.5 -33.5zM220 380q34 0 34 38q0 21 -6.5 31t-25.5 10q-35 0 -35 -41q0 -38 33 -38zM221 560
q15 0 21.5 8.5t6.5 29.5q0 32 -27 32q-28 0 -28 -34q0 -36 27 -36z" />
    <glyph glyph-name="nine.superior" unicode="&#x2079;" horiz-adv-x="458" 
d="M215 277q-169 0 -169 133h151q0 -31 25 -31q18 0 27 12q14 23 14 74q-28 -28 -85 -28q-66 0 -109 35.5t-43 98.5q0 74 53 117.5t145 43.5q204 0 204 -223q0 -107 -53 -169.5t-160 -62.5zM220 528q38 0 38 53q0 47 -36 47t-36 -53q0 -47 34 -47z" />
    <glyph glyph-name="plus.superior" unicode="&#x207a;" horiz-adv-x="380" 
d="M142 289v104h-104v96h104v104h96v-104h104v-96h-104v-104h-96z" />
    <glyph glyph-name="minus.superior" unicode="&#x207b;" horiz-adv-x="380" 
d="M38 393v96h304v-96h-304z" />
    <glyph glyph-name="equal.superior" unicode="&#x207c;" horiz-adv-x="380" 
d="M35 323v97h310v-97h-310zM35 462v97h310v-97h-310z" />
    <glyph glyph-name="parenleft.superior" unicode="&#x207d;" horiz-adv-x="244" 
d="M112 201q-72 167 -72 261q0 107 72 260h115q-50 -167 -50 -257q0 -108 50 -264h-115z" />
    <glyph glyph-name="parenright.superior" unicode="&#x207e;" horiz-adv-x="244" 
d="M17 201q50 161 50 264q0 90 -50 257h115q72 -153 72 -260q0 -94 -72 -261h-115z" />
    <glyph glyph-name="n.superior" unicode="&#x207f;" horiz-adv-x="428" 
d="M32 416v312h154l2 -36q36 46 99 46q51 0 79 -28q34 -30 34 -106v-188h-160v190q0 34 -22 34q-24 0 -24 -36v-188h-162z" />
    <glyph glyph-name="zero.inferior" unicode="&#x2080;" horiz-adv-x="458" 
d="M219 -12q-195 0 -195 225q0 107 50.5 168.5t156.5 61.5q111 0 156.5 -58t45.5 -171q0 -107 -53 -166.5t-161 -59.5zM230 101q11 0 18 8.5t10 28t3.5 34t0.5 42.5q0 69 -6.5 92.5t-25.5 23.5q-21 0 -28 -25t-7 -95q0 -27 1 -42t4 -33t10.5 -26t19.5 -8z" />
    <glyph glyph-name="one.inferior" unicode="&#x2081;" horiz-adv-x="444" 
d="M151 0v273q-52 -35 -95 -43v128q54 18 80 33.5t51 41.5h139v-433h-175z" />
    <glyph glyph-name="two.inferior" unicode="&#x2082;" horiz-adv-x="444" 
d="M25 0v116l100 62q45 28 84 63q36 36 36 64t-29 28q-35 0 -35 -44v-4h-160v5q0 151 196 151q191 0 191 -135q0 -62 -48 -107q-28 -27 -44.5 -38.5t-68.5 -42.5h162v-118h-384z" />
    <glyph glyph-name="three.inferior" unicode="&#x2083;" horiz-adv-x="444" 
d="M217 -12q-202 0 -202 147v5h156q0 -47 40 -47q38 0 38 37q0 22 -16.5 31.5t-53.5 9.5q-12 0 -21 -1v98q5 0 12 -0.5t10 -0.5q36 0 50.5 9t14.5 31q0 32 -36 32q-18 0 -25.5 -9.5t-7.5 -32.5v-4h-154v5q0 145 195 145q93 0 143 -32t50 -92q0 -35 -22 -60q-18 -21 -55 -32
q43 -10 61 -31q24 -26 24 -68q0 -67 -52.5 -103.5t-148.5 -36.5z" />
    <glyph glyph-name="four.inferior" unicode="&#x2084;" horiz-adv-x="444" 
d="M218 0v68h-204v125l150 240h217v-249h54v-116h-54v-68h-163zM147 184h71v126q-11 -18 -71 -126z" />
    <glyph glyph-name="five.inferior" unicode="&#x2085;" horiz-adv-x="444" 
d="M217 -12q-91 0 -140 35.5t-51 100.5h163q0 -32 23 -32q17 0 24.5 12t7.5 47q0 29 -6.5 39.5t-23.5 10.5q-25 0 -28 -33h-152l9 265h347v-109h-202q-1 -10 -2 -27t-2 -27q33 25 85 25q67 0 107 -38t40 -102q0 -77 -52 -122t-147 -45z" />
    <glyph glyph-name="six.inferior" unicode="&#x2086;" horiz-adv-x="458" 
d="M233 -12q-106 0 -155 59.5t-49 164.5q0 106 53 168.5t161 62.5q169 0 169 -133h-151q0 31 -26 31q-17 0 -26 -12q-14 -24 -17 -74q30 29 86 29q66 0 110 -36t44 -98q0 -75 -53.5 -118.5t-145.5 -43.5zM235 92q38 0 38 54q0 46 -36 46q-38 0 -38 -53q0 -47 36 -47z" />
    <glyph glyph-name="seven.inferior" unicode="&#x2087;" horiz-adv-x="444" 
d="M62 0l165 311h-192v122h380v-97l-165 -336h-188z" />
    <glyph glyph-name="eight.inferior" unicode="&#x2088;" horiz-adv-x="444" 
d="M212 -12q-48 0 -88.5 10t-72.5 40.5t-32 78.5q0 78 75 102q-65 23 -65 92q0 64 51 98t148 34q89 0 136 -34t47 -98q0 -67 -63 -91q76 -20 76 -101q0 -64 -54.5 -97.5t-157.5 -33.5zM220 91q34 0 34 38q0 21 -6.5 31t-25.5 10q-35 0 -35 -41q0 -38 33 -38zM221 271
q15 0 21.5 8.5t6.5 29.5q0 32 -27 32q-28 0 -28 -34q0 -36 27 -36z" />
    <glyph glyph-name="nine.inferior" unicode="&#x2089;" horiz-adv-x="458" 
d="M215 -12q-169 0 -169 133h151q0 -31 25 -31q18 0 27 12q14 23 14 74q-28 -28 -85 -28q-66 0 -109 35.5t-43 98.5q0 74 53 117.5t145 43.5q204 0 204 -223q0 -107 -53 -169.5t-160 -62.5zM220 239q38 0 38 53q0 47 -36 47t-36 -53q0 -47 34 -47z" />
    <glyph glyph-name="plus.inferior" unicode="&#x208a;" horiz-adv-x="380" 
d="M142 0v104h-104v96h104v104h96v-104h104v-96h-104v-104h-96z" />
    <glyph glyph-name="minus.inferior" unicode="&#x208b;" horiz-adv-x="380" 
d="M38 104v96h304v-96h-304z" />
    <glyph glyph-name="equal.inferior" unicode="&#x208c;" horiz-adv-x="380" 
d="M35 34v97h310v-97h-310zM35 173v97h310v-97h-310z" />
    <glyph glyph-name="parenleft.inferior" unicode="&#x208d;" horiz-adv-x="244" 
d="M112 -88q-72 167 -72 261q0 107 72 260h115q-50 -167 -50 -257q0 -108 50 -264h-115z" />
    <glyph glyph-name="parenright.inferior" unicode="&#x208e;" horiz-adv-x="244" 
d="M17 -88q50 161 50 264q0 90 -50 257h115q72 -153 72 -260q0 -94 -72 -261h-115z" />
    <glyph glyph-name="Euro" unicode="&#x20ac;" horiz-adv-x="704" 
d="M449 209h248q0 -76 -42.5 -129t-108 -76t-148.5 -23q-132 0 -211 66.5t-105 186.5h-72l26 93h34v54h-60l26 93h46q26 118 107 184.5t210 66.5q132 0 214.5 -52.5t83.5 -167.5h-248q-2 38 -14.5 51.5t-34.5 13.5q-46 0 -56 -96h165l-26 -93h-142v-54h126l-26 -93h-96
q10 -98 55 -98q22 0 34.5 16t14.5 57z" />
    <glyph glyph-name="afii61248" unicode="&#x2105;" horiz-adv-x="1036" 
d="M242 407q-192 0 -192 166q0 78 51 121.5t141 43.5q83 0 130 -36.5t47 -102.5h-148q-1 31 -7 43t-21 12q-23 0 -28.5 -21.5t-5.5 -75.5q0 -16 0.5 -24t3 -20t10.5 -17.5t20 -5.5q28 0 28 60h150v-4q0 -139 -179 -139zM250 -25l403 772h106l-403 -772h-106zM781 -13
q-89 0 -139.5 44t-50.5 122q0 80 51.5 124.5t142.5 44.5q97 0 149 -43.5t52 -124.5q0 -82 -52 -124.5t-153 -42.5zM788 75q18 0 25 18.5t7 64.5q0 41 -7 57.5t-23 16.5q-18 0 -25 -16.5t-7 -67.5q0 -42 6.5 -57.5t23.5 -15.5z" />
    <glyph glyph-name="afii61289" unicode="&#x2113;" horiz-adv-x="634" 
d="M302 484v-94q79 79 79 140q0 31 -9.5 49.5t-25.5 18.5q-44 0 -44 -114zM511 232l88 -85q-93 -157 -266 -157q-79 0 -130 30t-76 102q-2 2 -2 6q-19 -13 -48 -28l-49 103l92 60v180q0 136 59.5 205.5t160.5 69.5q85 0 135 -51t50 -137q0 -45 -13 -82.5t-45.5 -76
t-66.5 -69t-98 -80.5v-5q0 -31 20.5 -50t55.5 -19q25 0 55 14q37 20 78 70z" />
    <glyph glyph-name="afii61352" unicode="&#x2116;" horiz-adv-x="1310" 
d="M51 0v722h333l153 -437h2v437h242v-722h-333l-153 442h-2v-442h-242zM829 0v117h451v-117h-451zM1054 158q-114 0 -169.5 42.5t-55.5 117.5q0 74 55.5 116.5t169.5 42.5q115 0 170.5 -42t55.5 -117t-55.5 -117.5t-170.5 -42.5zM1055 252q37 0 37 68q0 63 -37 63
q-38 0 -38 -69q0 -62 38 -62z" />
    <glyph glyph-name="published" unicode="&#x2117;" horiz-adv-x="800" 
d="M400 -19q-158 0 -269 111.5t-111 268.5t111 268.5t269 111.5t269 -111.5t111 -268.5t-111 -268.5t-269 -111.5zM400 99q109 0 185.5 76.5t76.5 185.5t-76.5 185.5t-185.5 76.5t-185.5 -76.5t-76.5 -185.5t76.5 -185.5t185.5 -76.5zM268 164v401h134q70 0 105 -13
q35 -12 54.5 -40.5t19.5 -66.5q0 -60 -39 -96q-35 -31 -115 -31h-49v-154h-110zM376 387h13q28 0 44 2.5t29 16t13 39.5q0 32 -20 41t-58 9h-21v-108z" />
    <glyph glyph-name="trademark" unicode="&#x2122;" horiz-adv-x="1000" 
d="M852 366h-98v261l-79 -261h-79l-79 261v-261h-99v356h160l57 -190l57 190h160v-356zM388 639h-103v-273h-106v273h-103v83h312v-83z" />
    <glyph glyph-name="Omega" unicode="&#x2126;" horiz-adv-x="799" 
d="M53 0v161h177v8q-79 19 -128 89.5t-49 166.5q0 139 95 227.5t256 88.5q150 0 246 -88.5t96 -225.5q0 -97 -50 -169.5t-128 -88.5v-8h177v-161h-314v266q22 4 37 15t22.5 23t11.5 34t4.5 37.5t0.5 44.5q0 73 -22 112t-82 39q-62 0 -87 -42t-25 -116q0 -28 2.5 -48.5
t9.5 -44t23 -38t41 -16.5v-266h-314z" />
    <glyph glyph-name="estimated" unicode="&#x212e;" horiz-adv-x="772" 
d="M726 354h-532v-240q78 -78 191 -78q82 0 143.5 38t110.5 120l45 -27q-61 -95 -129 -136t-170 -41q-152 0 -245.5 104t-93.5 260t93.5 260t245.5 104q151 0 245 -101.5t96 -262.5zM194 401h383v191q-82 79 -193 79q-113 0 -190 -79v-191z" />
    <glyph glyph-name="onethird" unicode="&#x2153;" horiz-adv-x="1055" 
d="M147 289v273q-52 -35 -95 -43v128q54 18 80 33.5t51 41.5h139v-433h-175zM251 -25l403 772h106l-403 -772h-106zM827 -12q-202 0 -202 147v5h156q0 -47 40 -47q38 0 38 37q0 22 -16.5 31.5t-53.5 9.5q-12 0 -21 -1v98q5 0 12 -0.5t10 -0.5q36 0 50.5 9t14.5 31
q0 32 -36 32q-18 0 -25.5 -9.5t-7.5 -32.5v-4h-154v5q0 145 195 145q93 0 143 -32t50 -92q0 -35 -22 -60q-18 -21 -55 -32q43 -10 61 -31q24 -26 24 -68q0 -67 -52.5 -103.5t-148.5 -36.5z" />
    <glyph glyph-name="twothirds" unicode="&#x2154;" horiz-adv-x="1055" 
d="M25 289v116l100 62q45 28 84 63q36 36 36 64t-29 28q-35 0 -35 -44v-4h-160v5q0 151 196 151q191 0 191 -135q0 -62 -48 -107q-28 -27 -44.5 -38.5t-68.5 -42.5h162v-118h-384zM281 -25l403 772h106l-403 -772h-106zM828 -12q-202 0 -202 147v5h156q0 -47 40 -47
q38 0 38 37q0 22 -16.5 31.5t-53.5 9.5q-12 0 -21 -1v98q5 0 12 -0.5t10 -0.5q36 0 50.5 9t14.5 31q0 32 -36 32q-18 0 -25.5 -9.5t-7.5 -32.5v-4h-154v5q0 145 195 145q93 0 143 -32t50 -92q0 -35 -22 -60q-18 -21 -55 -32q43 -10 61 -31q24 -26 24 -68q0 -67 -52.5 -103.5
t-148.5 -36.5z" />
    <glyph glyph-name="oneeighth" unicode="&#x215b;" horiz-adv-x="1055" 
d="M151 289v273q-52 -35 -95 -43v128q54 18 80 33.5t51 41.5h139v-433h-175zM253 -25l403 772h106l-403 -772h-106zM818 -12q-48 0 -88.5 10t-72.5 40.5t-32 78.5q0 78 75 102q-65 23 -65 92q0 64 51 98t148 34q89 0 136 -34t47 -98q0 -67 -63 -91q76 -20 76 -101
q0 -64 -54.5 -97.5t-157.5 -33.5zM826 91q34 0 34 38q0 21 -6.5 31t-25.5 10q-35 0 -35 -41q0 -38 33 -38zM827 271q15 0 21.5 8.5t6.5 29.5q0 32 -27 32q-28 0 -28 -34q0 -36 27 -36z" />
    <glyph glyph-name="threeeighths" unicode="&#x215c;" horiz-adv-x="1055" 
d="M217 277q-202 0 -202 147v5h156q0 -47 40 -47q38 0 38 37q0 22 -16.5 31.5t-53.5 9.5q-12 0 -21 -1v98q5 0 12 -0.5t10 -0.5q36 0 50.5 9t14.5 31q0 32 -36 32q-18 0 -25.5 -9.5t-7.5 -32.5v-4h-154v5q0 145 195 145q93 0 143 -32t50 -92q0 -35 -22 -60q-18 -21 -55 -32
q43 -10 61 -31q24 -25 24 -68q0 -67 -52.5 -103.5t-148.5 -36.5zM271 -25l403 772h106l-403 -772h-106zM820 -12q-48 0 -88.5 10t-72.5 40.5t-32 78.5q0 78 75 102q-65 23 -65 92q0 64 51 98t148 34q89 0 136 -34t47 -98q0 -67 -63 -91q76 -20 76 -101q0 -64 -54.5 -97.5
t-157.5 -33.5zM828 91q34 0 34 38q0 21 -6.5 31t-25.5 10q-35 0 -35 -41q0 -38 33 -38zM829 271q15 0 21.5 8.5t6.5 29.5q0 32 -27 32q-28 0 -28 -34q0 -36 27 -36z" />
    <glyph glyph-name="fiveeighths" unicode="&#x215d;" horiz-adv-x="1055" 
d="M219 277q-91 0 -140 35.5t-51 100.5h163q0 -32 23 -32q17 0 24.5 12t7.5 47q0 29 -6.5 39.5t-23.5 10.5q-25 0 -28 -33h-152l9 265h347v-109h-202q-1 -10 -2 -27t-2 -27q33 25 85 25q67 0 107 -38t40 -102q0 -77 -52 -122t-147 -45zM272 -25l403 772h106l-403 -772h-106z
M821 -12q-48 0 -88.5 10t-72.5 40.5t-32 78.5q0 78 75 102q-65 23 -65 92q0 64 51 98t148 34q89 0 136 -34t47 -98q0 -67 -63 -91q76 -20 76 -101q0 -64 -54.5 -97.5t-157.5 -33.5zM829 91q34 0 34 38q0 21 -6.5 31t-25.5 10q-35 0 -35 -41q0 -38 33 -38zM830 271
q15 0 21.5 8.5t6.5 29.5q0 32 -27 32q-28 0 -28 -34q0 -36 27 -36z" />
    <glyph glyph-name="seveneighths" unicode="&#x215e;" horiz-adv-x="1055" 
d="M75 289l165 311h-192v122h380v-97l-165 -336h-188zM239 -25l403 772h106l-403 -772h-106zM822 -12q-48 0 -88.5 10t-72.5 40.5t-32 78.5q0 78 75 102q-65 23 -65 92q0 64 51 98t148 34q89 0 136 -34t47 -98q0 -67 -63 -91q76 -20 76 -101q0 -64 -54.5 -97.5t-157.5 -33.5
zM830 91q34 0 34 38q0 21 -6.5 31t-25.5 10q-35 0 -35 -41q0 -38 33 -38zM831 271q15 0 21.5 8.5t6.5 29.5q0 32 -27 32q-28 0 -28 -34q0 -36 27 -36z" />
    <glyph glyph-name="partialdiff" unicode="&#x2202;" horiz-adv-x="593" 
d="M548 358q0 -56 -6.5 -105.5t-24.5 -100t-46 -86t-75.5 -58t-108.5 -22.5q-107 0 -174.5 65t-67.5 172q0 98 64 164t161 66q65 0 123 -41q0 32 -5.5 62.5t-17.5 61t-37 49t-60 18.5q-60 0 -120 -58l-84 93q91 83 200 83q62 0 110.5 -20.5t79.5 -55t51.5 -82t29 -98
t8.5 -107.5zM391 273v21q-43 43 -95 43q-48 0 -74.5 -35.5t-26.5 -85.5q0 -46 24 -81t68 -35q38 0 63 31t33 67.5t8 74.5z" />
    <glyph glyph-name="Delta" unicode="&#x2206;" horiz-adv-x="786" 
d="M-10 0l252 722h279l275 -722h-806zM269 152h241l-126 390z" />
    <glyph glyph-name="product" unicode="&#x220f;" horiz-adv-x="759" 
d="M711 -214h-156v845h-350v-845h-157v1000h663v-1000z" />
    <glyph glyph-name="summation" unicode="&#x2211;" horiz-adv-x="704" 
d="M674 -214h-644v135l286 372l-275 356v137h621v-156h-413l251 -337l-266 -351h440v-156z" />
    <glyph glyph-name="minus" unicode="&#x2212;" horiz-adv-x="600" 
d="M47 185v136h506v-136h-506z" />
    <glyph glyph-name="uni2215" unicode="&#x2215;" horiz-adv-x="167" 
d="M-171 -25l403 772h106l-403 -772h-106z" />
    <glyph glyph-name="uni2219" unicode="&#x2219;" horiz-adv-x="352" 
d="M297 182h-243v208h243v-208z" />
    <glyph glyph-name="radical" unicode="&#x221a;" horiz-adv-x="611" 
d="M617 786l-225 -1000h-142l-140 286l-58 -27l-58 122l198 91l104 -232l155 760h166z" />
    <glyph glyph-name="infinity" unicode="&#x221e;" horiz-adv-x="889" 
d="M844 276q0 -96 -54 -158t-149 -62q-108 0 -197 117q-42 -56 -86.5 -86.5t-104.5 -30.5q-96 0 -152 61.5t-56 158.5q0 95 54 154.5t149 59.5q64 0 107 -31.5t89 -94.5q44 63 87.5 94.5t109.5 31.5q95 0 149 -59.5t54 -154.5zM712 273q0 34 -21 57t-55 23q-54 0 -113 -82
q55 -77 116 -77q35 0 54 22t19 57zM365 271q-59 82 -116 82q-33 0 -52.5 -23.5t-19.5 -57.5q0 -35 19.5 -56.5t53.5 -21.5q60 0 115 77z" />
    <glyph glyph-name="integral" unicode="&#x222b;" horiz-adv-x="667" 
d="M573 684q0 -32 -20.5 -52.5t-51.5 -20.5q-33 0 -49 17t-17 37.5t-5.5 37.5t-17.5 17q-20 0 -20 -40q0 -34 4 -101t4 -101l1 -302q0 -143 -5 -186q-21 -175 -146 -201q-22 -4 -48 -4q-52 0 -97 26.5t-45 75.5q0 32 20 52.5t51 20.5q32 0 48.5 -17t18 -37t6.5 -37t17 -17
q20 0 20 42q0 29 -4.5 86.5t-4.5 86.5v389v50t2 48t5.5 52t11.5 46t19 46t29 36t41 32q36 20 90 20t98.5 -26t44.5 -76z" />
    <glyph glyph-name="approxequal" unicode="&#x2248;" horiz-adv-x="593" 
d="M579 503q-3 -49 -19 -95.5t-53 -83.5t-87 -37q-35 0 -124.5 30t-128.5 30q-22 0 -36 -15.5t-16 -38.5h-101q0 76 43.5 146t114.5 70q39 0 127.5 -29.5t126.5 -29.5q46 0 51 53h102zM579 253q-2 -35 -11.5 -70.5t-27 -69.5t-47 -55.5t-67.5 -21.5q-41 0 -130.5 30
t-127.5 30q-46 0 -53 -52h-101q0 44 17.5 92t54 85t82.5 37q44 0 129.5 -29.5t128.5 -29.5q25 0 36 14t15 40h102z" />
    <glyph glyph-name="notequal" unicode="&#x2260;" horiz-adv-x="593" 
d="M569 72h-285l-80 -163l-138 68l46 95h-89v157h167l42 87h-209v158h287l80 161l137 -68l-46 -93h88v-158h-165l-43 -87h208v-157z" />
    <glyph glyph-name="lessequal" unicode="&#x2264;" horiz-adv-x="593" 
d="M569 128l-546 164v156l546 148v-160l-326 -66l326 -81v-161zM569 -53h-546v157h546v-157z" />
    <glyph glyph-name="greaterequal" unicode="&#x2265;" horiz-adv-x="593" 
d="M569 292l-546 -164v161l327 81l-327 66v160l546 -148v-156zM569 -53h-546v157h546v-157z" />
    <glyph glyph-name="lozenge" unicode="&#x25ca;" horiz-adv-x="593" 
d="M562 356l-196 -391h-142l-194 391l196 391h140zM400 356l-104 231l-105 -231l105 -231z" />
    <glyph glyph-name="f_i" unicode="&#xf001;" horiz-adv-x="704" 
d="M54 0v354h-54v148h54v50q0 83 57 129.5t146 46.5q77 0 135 -14v-142q-34 2 -52 2q-44 0 -44 -43v-29h85v-148h-85v-354h-242zM426 0v502h242v-502h-242zM426 568v154h242v-154h-242z" />
    <glyph glyph-name="f_l" unicode="&#xf002;" horiz-adv-x="704" 
d="M54 0v354h-54v148h54v50q0 83 57 129.5t146 46.5q77 0 135 -14v-142q-34 2 -52 2q-44 0 -44 -43v-29h85v-148h-85v-354h-242zM426 0v722h242v-722h-242z" />
    <glyph glyph-name="uniF8FF" unicode="&#xf8ff;" horiz-adv-x="485" 
d="M263 111h-53v63h53v-63zM257 222h-46v16q0 50 11.5 75.5t45.5 55.5q28 27 37 44t9 36q0 33 -21 56.5t-51 23.5q-67 0 -77 -90q-8 1 -24 3.5t-24 4.5q7 66 41 98t87 32q52 0 85 -34t33 -90q0 -32 -12.5 -56.5t-47.5 -56.5q-35 -33 -40.5 -48.5t-5.5 -69.5zM47 47h391v585
h-391v-585zM0 680h485v-680h-485v680z" />
    <glyph glyph-name="grave.cap" horiz-adv-x="278" 
d="M76 772l-154 170h232l98 -170h-176z" />
    <glyph glyph-name="acute.cap" horiz-adv-x="278" 
d="M16 772l98 170h232l-154 -170h-176z" />
    <glyph glyph-name="circumflex.cap" horiz-adv-x="278" 
d="M183 772l-44 76l-44 -76h-182l114 170h224l114 -170h-182z" />
    <glyph glyph-name="caron.cap" horiz-adv-x="278" 
d="M27 772l-114 170h182l44 -76l44 76h182l-114 -170h-224z" />
    <glyph glyph-name="caron.alt" horiz-adv-x="352" 
d="M309 722l-131 -182h-136l42 182h225z" />
    <glyph glyph-name="tilde.cap" horiz-adv-x="278" 
d="M231 936h124q0 -164 -139 -164q-26 0 -82 17t-68 17q-19 0 -19 -28h-124v19q0 64 34 104.5t92 40.5q32 0 91 -17t68 -17q22 0 23 28z" />
    <glyph glyph-name="dieresis.cap" horiz-adv-x="278" 
d="M-63 772v170h164v-170h-164zM177 772v170h164v-170h-164z" />
    <glyph glyph-name="macron.cap" horiz-adv-x="278" 
d="M-75 801v118h428v-118h-428z" />
    <glyph glyph-name="breve.cap" horiz-adv-x="278" 
d="M-58 942h148q1 -29 15.5 -43.5t33.5 -14.5t33.5 14.5t15.5 43.5h148q-10 -90 -63 -133t-134 -43t-134 43t-63 133z" />
    <glyph glyph-name="ring.cap" horiz-adv-x="278" 
d="M8 886q0 54 38.5 92.5t92.5 38.5t92.5 -38.5t38.5 -92.5t-38.5 -92.5t-92.5 -38.5t-92.5 38.5t-38.5 92.5zM96 886q0 -18 12.5 -30.5t30.5 -12.5t30.5 12.5t12.5 30.5t-12.5 30.5t-30.5 12.5t-30.5 -12.5t-12.5 -30.5z" />
    <glyph glyph-name="hungarumlaut.cap" horiz-adv-x="278" 
d="M-169 772l98 170h232l-154 -170h-176zM121 772l98 170h232l-154 -170h-176z" />
    <glyph glyph-name="dotaccent.cap" horiz-adv-x="278" 
d="M57 772v170h164v-170h-164z" />
    <glyph glyph-name="commaaccent" horiz-adv-x="352" 
d="M309 -50l-141 -182h-136l52 182h225z" />
    <glyph glyph-name="commaaccent.alt" horiz-adv-x="352" 
d="M23 552l141 182h136l-52 -182h-225z" />
    </font>
</defs>
</svg>
