<?xml version="1.0" standalone="no"?>
<!DOCTYPE svg PUBLIC "-//W3C//DTD SVG 1.1//EN" "http://www.w3.org/Graphics/SVG/1.1/DTD/svg11.dtd" >
<svg>
<metadata>
Created by FontForge 20090622 at Tue Dec  6 10:33:32 2016
 By deploy user
Copyright &#194;&#169; 2009 Linotype Corp., www.linotype.com. All rights reserved. This font software may not be reproduced, modified, disclosed or transferred without the express written approval of Linotype Corp. Univers is a trademark of Linotype Corp. registered in the U.S. Patent and Trademark Office and may be registered in certain other jurisdictions in the name of Linotype Corp. or its licensee Linotype GmbH. This typeface is original artwork of Adrian Frutiger. The design may be protected in certain jurisdictions. 
</metadata>
<defs>
<font id="UniversLTCYR-47LightCond" horiz-adv-x="444" >
  <font-face 
    font-family="Univers LT CYR 47 Lt Cn"
    font-weight="300"
    font-stretch="condensed"
    units-per-em="1000"
    panose-1="2 11 3 6 2 2 2 4 2 4"
    ascent="800"
    descent="-200"
    x-height="505"
    cap-height="722"
    bbox="-163 -218 1000 1031"
    underline-thickness="50"
    underline-position="-50"
    unicode-range="U+000D-U+FB04"
  />
<missing-glyph horiz-adv-x="485" 
d="M263 111h-53v63h53v-63zM257 222h-46v16q0 50 11 75.5t46 55.5q28 27 37 44t9 36q0 33 -21 56.5t-51 23.5q-67 0 -77 -90q-8 1 -24 3.5t-24 4.5q7 66 41 98t87 32q52 0 85 -34t33 -90q0 -32 -12.5 -56.5t-47.5 -56.5t-40.5 -47.5t-5.5 -70.5zM47 47h391v585h-391v-585z
M0 680h485v-680h-485v680z" />
    <glyph glyph-name="IJ" unicode="IJ" horiz-adv-x="635" 
d="M143 0h-64v722h64v-722zM561 199q0 -111 -40 -161.5t-135 -50.5q-173 0 -173 199v18h63v-20q0 -143 112 -143q31 0 52.5 11.5t32.5 26.5t16.5 41.5t6.5 44t1 47.5v510h64v-523z" />
    <glyph glyph-name="ij" unicode="ij" horiz-adv-x="407" 
d="M147 646h-72v76h72v-76zM140 0h-59v505h59v-505zM335 646h-74v76h74v-76zM330 -66q0 -70 -22 -100t-89 -30q-17 0 -32 3v52q7 -1 21 -1q38 0 50.5 17t12.5 55v575h59v-571z" />
    <glyph glyph-name="napostrophe" unicode="&#x22;n" 
d="M385 0h-60v347q0 49 -21 81t-68 32q-55 0 -84.5 -45t-29.5 -128v-287h-59v505h55v-70q40 76 128 76q139 0 139 -161v-350zM-5 585l30 137h73l-60 -137h-43z" />
    <glyph glyph-name="f_f" unicode="ff" horiz-adv-x="486" 
d="M471 674q-4 0 -11 0.5t-10 0.5q-48 0 -65 -20t-17 -70v-80h102v-48h-102v-457h-60v457h-148v-457h-60v457h-81v48h81v91q0 131 133 131q8 0 30 -2v-51q-4 0 -11 0.5t-10 0.5q-48 0 -65 -20t-17 -70v-80h148v91q0 131 133 131q8 0 30 -2v-51z" />
    <glyph glyph-name="fi" unicode="fi" 
d="M100 0v457h-81v48h81v85q0 24 3.5 42.5t14.5 42.5t39.5 37.5t71.5 13.5q14 0 34 -4v-50h-45q-20 0 -33 -7.5t-18 -22.5t-6 -25t-1 -26v-86h102v-48h-102v-457h-60zM369 0h-60v505h60v-505zM376 646h-74v76h74v-76z" />
    <glyph glyph-name="fl" unicode="fl" 
d="M100 0v457h-81v48h81v85q0 24 3.5 42.5t14.5 42.5t39.5 37.5t71.5 13.5q14 0 34 -4v-50h-45q-20 0 -33 -7.5t-18 -22.5t-6 -25t-1 -26v-86h102v-48h-102v-457h-60zM368 0h-60v722h60v-722z" />
    <glyph glyph-name="f_f_i" unicode="ffi" horiz-adv-x="652" 
d="M471 674q-4 0 -11 0.5t-10 0.5q-48 0 -65 -20t-17 -70v-80h102v-48h-102v-457h-60v457h-148v-457h-60v457h-81v48h81v91q0 131 133 131q8 0 30 -2v-51q-4 0 -11 0.5t-10 0.5q-48 0 -65 -20t-17 -70v-80h148v91q0 131 133 131q8 0 30 -2v-51zM577 0h-60v505h60v-505z
M584 646h-74v76h74v-76z" />
    <glyph glyph-name="f_f_l" unicode="ffl" horiz-adv-x="652" 
d="M471 674q-4 0 -11 0.5t-10 0.5q-48 0 -65 -20t-17 -70v-80h102v-48h-102v-457h-60v457h-148v-457h-60v457h-81v48h81v91q0 131 133 131q8 0 30 -2v-51q-4 0 -11 0.5t-10 0.5q-48 0 -65 -20t-17 -70v-80h148v91q0 131 133 131q8 0 30 -2v-51zM576 0h-60v722h60v-722z" />
    <glyph glyph-name=".notdef" horiz-adv-x="485" 
d="M263 111h-53v63h53v-63zM257 222h-46v16q0 50 11 75.5t46 55.5q28 27 37 44t9 36q0 33 -21 56.5t-51 23.5q-67 0 -77 -90q-8 1 -24 3.5t-24 4.5q7 66 41 98t87 32q52 0 85 -34t33 -90q0 -32 -12.5 -56.5t-47.5 -56.5t-40.5 -47.5t-5.5 -70.5zM47 47h391v585h-391v-585z
M0 680h485v-680h-485v680z" />
    <glyph glyph-name=".null" horiz-adv-x="500" 
 />
    <glyph glyph-name="nonmarkingreturn" horiz-adv-x="333" 
 />
    <glyph glyph-name="CR" unicode="&#xd;" horiz-adv-x="0" 
 />
    <glyph glyph-name="space" unicode=" " horiz-adv-x="222" 
 />
    <glyph glyph-name="exclam" unicode="!" horiz-adv-x="333" 
d="M199 722l-10 -552h-54l-5 552h69zM199 0h-73v79h73v-79z" />
    <glyph glyph-name="quotedbl" unicode="&#x22;" horiz-adv-x="309" 
d="M236 710l-7 -207h-36l-6 207h49zM122 710l-6 -207h-36l-7 207h49z" />
    <glyph glyph-name="numbersign" unicode="#" 
d="M428 449h-95l-33 -188h86v-43h-94l-41 -218h-47l40 218h-98l-40 -218h-48l40 218h-86v43h94l33 188h-86v43h94l41 218h47l-40 -218h98l41 218h48l-41 -218h87v-43zM285 449h-98l-33 -188h98z" />
    <glyph glyph-name="dollar" unicode="$" 
d="M406 159q0 -161 -166 -170v-79h-37v78q-88 4 -126.5 54.5t-38.5 142.5h62v-10q0 -67 23.5 -98.5t79.5 -35.5v281q-81 48 -103 67q-54 49 -54 131q0 71 41 113.5t116 48.5v89h37v-88q82 -3 122.5 -42t40.5 -121v-21h-62v10q0 117 -101 124v-267l46 -26q65 -37 92.5 -74.5
t27.5 -106.5zM203 388v244q-96 -9 -96 -109q0 -42 22 -72.5t74 -62.5zM343 145q0 33 -7 57.5t-22.5 42t-28.5 27t-38 24.5l-7 4v-260q103 7 103 105z" />
    <glyph glyph-name="percent" unicode="%" horiz-adv-x="778" 
d="M703 175q0 -185 -131 -185t-131 179q0 185 131 185t131 -179zM553 710l-289 -724h-45l288 724h46zM336 531q0 -185 -131 -185t-131 179q0 185 131 185t131 -179zM649 179q0 129 -75 129q-27 0 -44.5 -14t-24 -40.5t-8.5 -45.5t-2 -48q0 -125 77 -125q40 0 58.5 34.5
t18.5 109.5zM282 535q0 129 -75 129q-27 0 -44.5 -14t-24 -40.5t-8.5 -45.5t-2 -48q0 -125 77 -125q40 0 58.5 34.5t18.5 109.5z" />
    <glyph glyph-name="ampersand" unicode="&#x26;" horiz-adv-x="611" 
d="M599 0h-83l-54 72q-67 -85 -192 -85q-106 0 -158.5 50.5t-52.5 156.5q0 39 8.5 68t28.5 53.5t39.5 40.5t55.5 41l-18.5 22t-18 22l-14.5 19.5t-13.5 21l-9.5 20.5t-8.5 24t-4.5 26t-2 31q0 152 163 152q77 0 112 -37t35 -114q0 -18 -3.5 -35t-6.5 -29t-14 -27.5t-15 -22
t-21.5 -22t-21 -19t-25.5 -21.5t-25 -20l170 -206q26 102 26 214v9h60q-7 -174 -42 -278zM349 593q0 43 -23.5 66.5t-66.5 23.5q-46 0 -71 -25.5t-25 -71.5q0 -11 1 -21t4.5 -20.5l6 -17.5t8.5 -17.5l9 -16t12 -16.5l12 -14.5l13.5 -16t12.5 -15.5q52 34 79.5 71.5
t27.5 90.5zM422 122l-193 232q-51 -33 -78 -70t-27 -91q0 -149 148 -149q104 0 150 78z" />
    <glyph glyph-name="quotesingle" unicode="'" horiz-adv-x="198" 
d="M124 710l-7 -207h-36l-6 207h49z" />
    <glyph glyph-name="parenleft" unicode="(" horiz-adv-x="222" 
d="M165 -133h-49q-27 90 -41.5 144t-28.5 134.5t-14 148.5q0 183 88 449h45q-66 -264 -66 -453q0 -198 66 -423z" />
    <glyph glyph-name="parenright" unicode=")" horiz-adv-x="222" 
d="M186 293q0 -68 -13.5 -148.5t-28.5 -135.5t-42 -143h-49q66 214 66 422q0 228 -66 454h45q88 -268 88 -449z" />
    <glyph glyph-name="asterisk" unicode="*" 
d="M381 537l-137 14l79 -115l-46 -27l-57 127l-59 -127l-48 29l81 114l-138 -14v53l135 -11l-76 112l45 28l60 -126l58 125l46 -27l-80 -111l137 10v-54z" />
    <glyph glyph-name="plus" unicode="+" 
d="M446 229h-199v-199h-49v199h-200v49h200v200h49v-200h199v-49z" />
    <glyph glyph-name="comma" unicode="," horiz-adv-x="222" 
d="M159 79l-61 -183h-51l40 183h72z" />
    <glyph glyph-name="hyphen" unicode="-" horiz-adv-x="278" 
d="M240 238h-202v57h202v-57z" />
    <glyph glyph-name="period" unicode="." horiz-adv-x="222" 
d="M149 0h-75v79h75v-79z" />
    <glyph glyph-name="slash" unicode="/" horiz-adv-x="333" 
d="M320 729l-254 -741h-53l253 741h54z" />
    <glyph glyph-name="zero" unicode="0" 
d="M397 230q0 -54 -6.5 -92.5t-24.5 -75t-56 -55.5t-95 -19q-53 0 -89.5 18.5t-54 53t-24.5 72.5t-7 88v244q0 53 6.5 92t24.5 76.5t56 57.5t94 20q55 0 91 -16.5t54 -50.5t24.5 -72.5t6.5 -94.5v-246zM335 228v230v8q0 36 -1 55t-7 49.5t-17.5 46t-35 28t-57.5 12.5
q-38 0 -62.5 -17.5t-34.5 -49.5t-13.5 -59.5t-3.5 -65.5v-210v-10q0 -30 0.5 -46.5t3.5 -44.5t10.5 -44t20 -34t33.5 -26t50 -8q30 0 51.5 12t33.5 29.5t19 44.5t8.5 49t1.5 51z" />
    <glyph glyph-name="one" unicode="1" 
d="M273 0h-62v617q-52 -52 -122 -98v69q80 51 126 109h58v-697z" />
    <glyph glyph-name="two" unicode="2" 
d="M394 0h-355v56l245 373q43 65 43 127q0 98 -110 98q-54 0 -84 -32t-30 -88v-7h-63v12q0 79 47 124t128 45q77 0 127.5 -36.5t50.5 -110.5q0 -80 -65 -178l-220 -329h286v-54z" />
    <glyph glyph-name="three" unicode="3" 
d="M392 190q0 -201 -176 -201q-88 0 -135 42.5t-47 119.5v20h64v-13q0 -55 31.5 -85t87.5 -30q113 0 113 142q0 78 -28.5 114t-103.5 36q-9 0 -27 -2v55q6 0 12 -0.5t7 -0.5q137 0 137 145q0 58 -29.5 90.5t-82.5 32.5q-59 0 -83.5 -33.5t-25.5 -94.5h-62v13q0 80 44 124
t125 44q174 0 174 -175q0 -149 -109 -172q60 -7 87 -48t27 -123z" />
    <glyph glyph-name="four" unicode="4" 
d="M419 174h-83v-174h-59v174h-250v70l215 453h94v-469h83v-54zM277 228v407l-196 -407h196z" />
    <glyph glyph-name="five" unicode="5" 
d="M409 222q0 -52 -8 -91t-28 -72.5t-57.5 -51.5t-92.5 -18q-79 0 -124.5 42t-45.5 122v14h64v-8q0 -116 111 -116q63 0 89 41.5t26 142.5q0 37 -3.5 62.5t-14 51t-35 38.5t-61.5 13q-42 0 -73 -20.5t-38 -52.5h-60l8 378h315v-55h-255l-7 -248q47 48 121 48q53 0 87.5 -16
t52 -48t23.5 -68t6 -88z" />
    <glyph glyph-name="six" unicode="6" 
d="M399 221q0 -54 -7 -92t-25 -71t-54.5 -50t-91.5 -17q-53 0 -89 16.5t-55 46.5t-26.5 64.5t-7.5 78.5v258q0 45 2.5 76.5t13.5 67.5t29.5 57.5t53 36t82.5 14.5q89 0 128 -41t39 -126h-63q0 118 -101 118q-26 0 -46 -8.5t-33 -19t-22 -32.5t-13 -36.5t-6.5 -43.5t-2.5 -42
v-43v-17v-54q47 76 138 76q40 0 69 -12t45.5 -31.5t26.5 -49t13 -58t3 -66.5zM334 221q0 35 -3 59.5t-13.5 51t-33.5 40t-58 13.5q-53 0 -86 -37q-16 -19 -24.5 -46t-9.5 -46t-1 -53q0 -161 118 -161q37 0 61 15.5t34 45.5t13 55t3 63z" />
    <glyph glyph-name="seven" unicode="7" 
d="M385 638l-216 -638h-66l221 642h-292v55h353v-59z" />
    <glyph glyph-name="eight" unicode="8" 
d="M403 192q0 -102 -42.5 -153.5t-140.5 -51.5q-96 0 -138.5 50.5t-42.5 148.5q0 84 24.5 125.5t81.5 53.5q-57 17 -77.5 57t-20.5 108q0 178 176 178q89 0 131.5 -41.5t42.5 -128.5q0 -80 -24 -119.5t-80 -52.5q64 -13 87 -57.5t23 -116.5zM332 523q0 67 -24 101.5
t-87 34.5q-62 0 -87 -36.5t-25 -101.5q0 -134 112 -134q111 0 111 136zM339 194q0 69 -25 106.5t-91 37.5q-70 0 -95.5 -40t-25.5 -114q0 -147 118 -147q69 0 94 41.5t25 115.5z" />
    <glyph glyph-name="nine" unicode="9" 
d="M395 252q0 -52 -2 -84t-12 -70.5t-28.5 -59.5t-53.5 -36t-86 -15q-166 0 -166 168h64v-8q0 -105 103 -105q34 0 61.5 12.5t37.5 33.5q19 38 19 193q0 32 -1 57q-32 -36 -57 -49t-72 -13q-90 0 -126.5 56t-36.5 168q0 210 178 210q53 0 89 -14t55 -41.5t26.5 -59.5
t7.5 -75v-268zM330 519q0 67 -24.5 102t-88.5 35q-36 0 -60 -13.5t-35 -39t-14.5 -51t-3.5 -61.5q0 -84 25.5 -123t80.5 -39q38 0 68 18t40 47q12 32 12 125z" />
    <glyph glyph-name="colon" unicode=":" horiz-adv-x="222" 
d="M148 426h-74v79h74v-79zM148 0h-74v79h74v-79z" />
    <glyph glyph-name="semicolon" unicode=";" horiz-adv-x="222" 
d="M153 426h-74v79h74v-79zM158 79l-60 -183h-53l40 183h73z" />
    <glyph glyph-name="less" unicode="&#x3c;" 
d="M429 48l-418 178v48l418 180v-48l-363 -156l363 -154v-48z" />
    <glyph glyph-name="equal" unicode="=" 
d="M423 316h-403v49h403v-49zM423 148h-403v49h403v-49z" />
    <glyph glyph-name="greater" unicode="&#x3e;" 
d="M433 226l-418 -178v48l363 154l-363 156v48l418 -180v-48z" />
    <glyph glyph-name="question" unicode="?" horiz-adv-x="389" 
d="M319 569q0 -51 -7 -81t-31 -68l-21.5 -32l-27 -41.5t-16.5 -33.5q-10 -28 -10 -106v-37h-57v41q0 59 6 97q7 48 58 116q27 37 34.5 66.5t7.5 83.5q0 27 -2 43t-9 33t-23 25t-42 8q-77 0 -77 -97q0 -9 1 -17h-63q-1 12 -1 22q0 143 141 143q83 0 111 -39.5t28 -125.5z
M215 0h-73v79h73v-79z" />
    <glyph glyph-name="at" unicode="@" horiz-adv-x="889" 
d="M540 393q0 81 -71 81q-13 0 -25 -3.5t-20.5 -7.5t-17 -14l-14 -16t-11.5 -20.5t-9 -21t-7.5 -23.5t-5.5 -22l-4.5 -23t-4.5 -20q-14 -68 -14 -98q0 -75 60 -75q27 0 48.5 12.5t34.5 28.5t24 45t15.5 48.5t11.5 53.5q10 56 10 75zM526 174q-25 -42 -65 -65.5t-75 -23.5
q-58 0 -86 33.5t-28 88.5q0 53 12 104q22 100 63 155.5t122 55.5q59 0 94 -57l11 51h63l-64 -294q-9 -37 3 -62.5t51 -25.5q51 0 94.5 41.5t66.5 101t23 117.5q0 138 -99.5 217.5t-244.5 79.5q-179 0 -284 -112t-105 -289q0 -173 100.5 -273t269.5 -100q94 0 171 27t161 84
l27 -36q-172 -123 -361 -123q-188 0 -303.5 112.5t-115.5 308.5q0 200 122.5 325t318.5 125q105 0 193.5 -39.5t144.5 -120t56 -187.5q0 -93 -44 -175t-123 -116q-37 -16 -80 -16q-38 0 -65 24t-24 64z" />
    <glyph glyph-name="A" unicode="A" horiz-adv-x="556" 
d="M542 0h-67l-58 190h-283l-57 -190h-64l228 722h76zM400 244l-124 408l-123 -408h247z" />
    <glyph glyph-name="B" unicode="B" horiz-adv-x="500" 
d="M453 195q0 -104 -49 -149.5t-160 -45.5h-178v722h191q98 0 140 -42t42 -140q0 -73 -23 -109.5t-83 -54.5q67 -18 93.5 -56.5t26.5 -124.5zM373 542q0 126 -97 126h-146v-270h118q64 0 94.5 35.5t30.5 108.5zM387 197q0 147 -131 147h-126v-290h112q71 0 108 30t37 113z
" />
    <glyph glyph-name="C" unicode="C" horiz-adv-x="500" 
d="M459 203q0 -101 -50 -159t-151 -58q-33 0 -60.5 7t-47 16.5t-35 28t-25.5 34t-16.5 43t-10 45.5t-5.5 51t-2 50.5v52.5q0 125 6 209q15 213 205 213q186 0 186 -195v-14h-66q0 4 0.5 9t0.5 7q0 139 -121 139q-34 0 -59.5 -10.5t-41 -32.5t-25 -43.5t-13 -55.5t-4.5 -55
t-1 -56v-197q0 -89 36 -140t102 -51q71 0 100.5 48.5t29.5 117.5h68v-4z" />
    <glyph glyph-name="D" unicode="D" horiz-adv-x="556" 
d="M493 365q0 -40 -0.5 -62t-2.5 -58t-6.5 -57t-13 -50.5t-20.5 -46.5t-30.5 -36.5t-43 -30t-57 -17.5t-72.5 -7h-172v722h201q119 0 168 -73.5t49 -213.5v-70zM426 397q0 113 -17.5 170t-58.5 79t-122 22h-89v-614h81q38 0 66.5 3.5t50.5 15t36.5 22.5t24.5 36t15.5 45.5
t8.5 60.5t3.5 71.5t0.5 88.5z" />
    <glyph glyph-name="E" unicode="E" 
d="M409 0h-334v722h327v-54h-263v-270h251v-54h-251v-290h270v-54z" />
    <glyph glyph-name="F" unicode="F" horiz-adv-x="389" 
d="M373 668h-241v-270h224v-54h-224v-344h-65v722h306v-54z" />
    <glyph glyph-name="G" unicode="G" horiz-adv-x="556" 
d="M485 537h-65v11q0 64 -34.5 99.5t-95.5 35.5q-89 0 -126.5 -57t-37.5 -193v-100q0 -62 3.5 -104t13.5 -80.5t28.5 -60.5t49 -35t74.5 -13q68 0 120 23v262h-147v52h210v-359q-94 -32 -184 -32q-65 0 -109.5 18t-69 45t-37.5 75.5t-16 90t-3 109.5v75q0 44 1 73.5t6 68.5
t14 64t26 52.5t41 43t60 26t82 10.5q105 0 150.5 -50.5t45.5 -149.5z" />
    <glyph glyph-name="H" unicode="H" horiz-adv-x="556" 
d="M484 0h-64v344h-284v-344h-64v722h64v-324h284v324h64v-722z" />
    <glyph glyph-name="I" unicode="I" horiz-adv-x="222" 
d="M143 0h-64v722h64v-722z" />
    <glyph glyph-name="J" unicode="J" 
d="M370 199q0 -111 -40 -161.5t-135 -50.5q-173 0 -173 199v18h63v-20q0 -143 112 -143q31 0 52.5 11.5t32.5 26.5t16.5 41.5t6.5 44t1 47.5v510h64v-523z" />
    <glyph glyph-name="K" unicode="K" horiz-adv-x="500" 
d="M485 0h-80l-264 370v-370h-64v722h64v-331l259 331h77l-270 -337z" />
    <glyph glyph-name="L" unicode="L" horiz-adv-x="389" 
d="M370 0h-303v722h64v-668h239v-54z" />
    <glyph glyph-name="M" unicode="M" horiz-adv-x="778" 
d="M699 0h-61v659l-214 -659h-74l-217 659v-659h-61v722h105l212 -649l208 649h102v-722z" />
    <glyph glyph-name="N" unicode="N" horiz-adv-x="611" 
d="M535 0h-100l-296 650v-650h-63v722h98l298 -650v650h63v-722z" />
    <glyph glyph-name="O" unicode="O" horiz-adv-x="556" 
d="M496 329q0 -53 -2 -89.5t-9 -80t-22.5 -71.5t-39 -53t-61.5 -37t-89 -12q-104 0 -158.5 64t-54.5 188v245q0 116 53.5 186.5t163.5 70.5q113 0 166 -71t53 -193v-147zM431 358v90q0 52 -5.5 89.5t-21 73.5t-47.5 55t-80 19q-40 0 -68.5 -14t-44.5 -35.5t-25 -54
t-11.5 -61.5t-2.5 -66v-182q0 -122 34.5 -177t117.5 -55q32 0 57 10t41 23.5t27.5 40.5t17 47t8 58t3 58.5t0.5 62.5v18z" />
    <glyph glyph-name="P" unicode="P" 
d="M422 536q0 -116 -50.5 -158t-149.5 -42h-95v-336h-63v722h198q82 0 121 -40.5t39 -145.5zM355 536q0 22 -2 39.5t-6 31t-9.5 23t-13 16.5t-17 11t-21 6.5t-25 3.5t-28.5 1h-32h-19h-55v-278h33q100 0 129 9q54 18 64 93q2 19 2 44z" />
    <glyph glyph-name="Q" unicode="Q" horiz-adv-x="556" 
d="M545 0h-138l-14 -1q-80 -5 -95 -5q-75 0 -126 22t-79 81q-21 44 -27.5 97t-6.5 178q0 103 4 150.5t17 87.5q20 61 72 94.5t128 33.5q113 0 168 -71q29 -38 39 -97t10 -198q0 -138 -15 -211t-64 -107h127v-54zM433 386q0 174 -37 240q-33 58 -115 58q-83 0 -120 -58
t-37 -273q0 -99 8.5 -154t28.5 -93q15 -28 46 -44t69 -16q82 0 118 60q23 37 31 96t8 184z" />
    <glyph glyph-name="R" unicode="R" horiz-adv-x="500" 
d="M444 551q0 -83 -25.5 -121.5t-89.5 -53.5q55 -7 78 -35t25 -90l4 -166l7 -85h-65q-5 41 -6 68l-2 32l-3 134q-1 68 -31 92t-108 24h-96v-350h-64v722h184q103 0 147.5 -33.5t44.5 -137.5zM378 553q0 19 -2.5 34.5t-6 27t-11.5 20l-14 14.5t-19 10t-20.5 6t-24.5 2.5
t-25.5 0.5h-29.5h-31h-62v-264h82q45 0 71.5 4.5t50 19t33 45t9.5 80.5z" />
    <glyph glyph-name="S" unicode="S" horiz-adv-x="500" 
d="M445 172q0 -184 -192 -184q-95 0 -147 45.5t-52 136.5v30h66v-14q0 -79 34 -111.5t101 -32.5q62 0 93 28.5t31 99.5q0 53 -21.5 82.5t-90.5 69.5l-74 43q-66 39 -97.5 81t-31.5 113q0 83 49.5 128.5t140.5 45.5q189 0 189 -174v-23h-65v10q0 68 -30 100t-95 32
q-124 0 -124 -113q0 -53 22.5 -82.5t89.5 -70.5l78 -47q78 -47 102 -83t24 -110z" />
    <glyph glyph-name="T" unicode="T" 
d="M429 668h-175v-668h-64v668h-175v54h414v-54z" />
    <glyph glyph-name="U" unicode="U" horiz-adv-x="556" 
d="M487 260q0 -49 -4.5 -86.5t-18 -74t-36.5 -60.5t-61 -38.5t-90 -14.5q-105 0 -157.5 58t-52.5 167v511h64v-510q0 -81 39 -126.5t109 -45.5q144 0 144 201v481h64v-462z" />
    <glyph glyph-name="V" unicode="V" horiz-adv-x="500" 
d="M491 722l-201 -722h-79l-201 722h68l172 -647l179 647h62z" />
    <glyph glyph-name="W" unicode="W" horiz-adv-x="833" 
d="M823 722l-179 -722h-84l-146 642l-150 -642h-80l-174 722h68l147 -637l148 637h87l145 -633l155 633h63z" />
    <glyph glyph-name="X" unicode="X" horiz-adv-x="500" 
d="M491 0h-75l-171 330l-167 -330h-68l194 373l-179 349h70l153 -301l158 301h68l-186 -349z" />
    <glyph glyph-name="Y" unicode="Y" horiz-adv-x="500" 
d="M488 722l-206 -432v-290h-64v290l-204 432h72l165 -359l173 359h64z" />
    <glyph glyph-name="Z" unicode="Z" 
d="M419 0h-396v58l332 610h-313v54h374v-66l-327 -602h330v-54z" />
    <glyph glyph-name="bracketleft" unicode="[" horiz-adv-x="222" 
d="M188 -132h-139v875h139v-44h-84v-787h84v-44z" />
    <glyph glyph-name="backslash" unicode="\" horiz-adv-x="222" 
d="M264 -12h-53l-254 741h54z" />
    <glyph glyph-name="bracketright" unicode="]" horiz-adv-x="222" 
d="M164 -132h-139v44h84v787h-84v44h139v-875z" />
    <glyph glyph-name="asciicircum" unicode="^" 
d="M412 297h-50l-141 358l-139 -358h-51l167 413h48z" />
    <glyph glyph-name="underscore" unicode="_" horiz-adv-x="500" 
d="M500 -125h-500v50h500v-50z" />
    <glyph glyph-name="grave" unicode="`" horiz-adv-x="278" 
d="M203 558h-51l-138 139h78z" />
    <glyph glyph-name="a" unicode="a" 
d="M386 0h-60l-1 68q-54 -75 -145 -75q-65 0 -103 40t-38 109q0 124 117 150q42 10 68 12t96 3v62q0 99 -100 99q-47 0 -73.5 -22t-26.5 -62v-2h-65q3 67 49.5 100.5t119.5 33.5q67 0 110 -29q22 -14 33 -40t12.5 -44.5t1.5 -51.5v-243l2 -64zM322 219q0 7 -1 41q-9 1 -20 1
q-106 0 -156 -29q-42 -24 -42 -87q0 -49 24.5 -77t66.5 -28q56 0 96 48q19 22 25.5 49.5t6.5 81.5z" />
    <glyph glyph-name="b" unicode="b" 
d="M399 250q0 -50 -5 -89t-20.5 -81.5t-49.5 -66t-85 -23.5q-83 0 -129 75l-1 -65h-57l2 49l2 48v625h60v-276q45 68 127 68q42 0 71 -14t45.5 -35.5t25.5 -58.5t11.5 -71t2.5 -85zM335 257q0 118 -21 162t-84 44q-66 0 -91 -55t-25 -162q0 -208 110 -208q65 0 88 52t23 167
z" />
    <glyph glyph-name="c" unicode="c" horiz-adv-x="389" 
d="M350 147q0 -161 -144 -161q-164 0 -164 204v86q0 36 2 61.5t7.5 55t17 49t29 36.5t45.5 25.5t65 8.5q76 0 109 -38.5t33 -115.5h-60q0 107 -84 107q-27 0 -45.5 -10t-29.5 -26t-16.5 -46t-7 -60t-1.5 -79q0 -43 1.5 -70t7 -56.5t16 -45t29 -26t45.5 -10.5q85 0 85 111h60
z" />
    <glyph glyph-name="d" unicode="d" 
d="M387 0h-58l-2 67q-47 -76 -130 -76q-41 0 -71 16.5t-46 41t-25 63t-11.5 71t-2.5 77.5q0 40 2 69.5t11.5 66.5t25.5 60t46 39.5t71 16.5q75 0 124 -66v276h62v-567l2 -113zM325 269q0 40 -4.5 71t-16 60.5t-36 45.5t-60.5 16q-22 0 -39 -7.5t-28 -17t-19 -28.5t-11.5 -32
t-5.5 -38t-2 -36.5v-36.5v-13q0 -48 3 -79t12.5 -65.5t32.5 -52t58 -17.5q24 0 43 8t31 18.5t20.5 31.5t12.5 36.5t6.5 44.5t2.5 44.5v46.5z" />
    <glyph glyph-name="e" unicode="e" 
d="M397 153q0 -77 -42 -121t-128 -44q-48 0 -82 14.5t-53 36.5t-29.5 60t-13.5 73.5t-3 87.5q0 45 4 80t16 69t31.5 56.5t52 36t77.5 13.5q99 0 134.5 -57t35.5 -160v-56h-286v-33q0 -36 4 -62.5t15 -53.5t35.5 -41.5t61.5 -14.5q54 0 81 31.5t27 84.5h62zM336 288
q0 26 -1 42t-4 40t-10.5 39t-19 30t-31.5 22t-46 7q-113 0 -113 -153v-27h225z" />
    <glyph glyph-name="f" unicode="f" horiz-adv-x="278" 
d="M263 674q-4 0 -11 0.5t-10 0.5q-48 0 -65 -20t-17 -70v-80h102v-48h-102v-457h-60v457h-81v48h81v91q0 131 133 131q8 0 30 -2v-51z" />
    <glyph glyph-name="g" unicode="g" 
d="M384 505l-3 -98v-431q0 -89 -39 -132.5t-131 -43.5q-69 0 -112 33.5t-43 96.5v14h61v-7q0 -42 26 -66.5t69 -24.5q67 0 86.5 32t20.5 104q1 40 1 43v1q0 30 -2 41q-16 -29 -47.5 -45.5t-71.5 -16.5q-157 0 -157 197v100q0 212 156 212q90 0 126 -73l2 64h58zM323 283
q0 182 -113 182q-22 0 -39.5 -8t-29 -18t-19 -30t-11.5 -34t-6 -39.5t-2 -37.5v-37v-13v-31t1 -31.5t4 -34l7.5 -30t12.5 -28.5t18.5 -21t26.5 -15.5t35 -4.5q25 0 44 9.5t31 21t20 35.5t12 38t6 46t2 41v40z" />
    <glyph glyph-name="h" unicode="h" 
d="M381 0h-59v313q0 27 -0.5 41.5t-5 38t-13.5 36t-26.5 22.5t-43.5 10q-53 0 -83 -43t-30 -121v-297h-60v722h60v-279q47 70 123 70q138 0 138 -172v-341z" />
    <glyph glyph-name="i" unicode="i" horiz-adv-x="222" 
d="M147 646h-72v76h72v-76zM140 0h-59v505h59v-505z" />
    <glyph glyph-name="j" unicode="j" horiz-adv-x="222" 
d="M150 646h-74v76h74v-76zM145 -66q0 -70 -22 -100t-89 -30q-17 0 -32 3v52q7 -1 21 -1q38 0 50.5 17t12.5 55v575h59v-571z" />
    <glyph glyph-name="k" unicode="k" horiz-adv-x="389" 
d="M381 0h-74l-184 275v-275h-59v722h59v-440l176 223h70l-179 -225z" />
    <glyph glyph-name="l" unicode="l" horiz-adv-x="222" 
d="M140 0h-59v722h59v-722z" />
    <glyph glyph-name="m" unicode="m" horiz-adv-x="667" 
d="M608 0h-63v361q0 100 -76 100q-46 0 -74.5 -38t-28.5 -98v-325h-62v354q0 50 -15.5 78.5t-62.5 28.5q-50 0 -75.5 -36.5t-25.5 -87.5v-337h-62v505h54v-69q44 77 120 77q92 0 117 -77q42 76 124 76q68 0 99 -42t31 -109v-361z" />
    <glyph glyph-name="n" unicode="n" 
d="M385 0h-60v347q0 49 -21 81t-68 32q-55 0 -84.5 -45t-29.5 -128v-287h-59v505h55v-70q40 76 128 76q139 0 139 -161v-350z" />
    <glyph glyph-name="o" unicode="o" 
d="M397 203q0 -107 -39.5 -161.5t-139.5 -54.5q-96 0 -133.5 53.5t-37.5 155.5v100q0 106 39.5 162.5t140.5 56.5q53 0 87.5 -15t52 -45t24 -65.5t6.5 -86.5v-100zM336 226v70q0 37 -3.5 63.5t-14.5 53t-34 40.5t-58 14q-38 0 -63 -15t-36.5 -44t-15 -57t-3.5 -69v-63
q0 -33 1 -53.5t7.5 -48t18.5 -43.5t35 -28t56 -12q27 0 46.5 8t31 24.5t18.5 32t10 42t3.5 42t0.5 43.5z" />
    <glyph glyph-name="p" unicode="p" 
d="M402 252q0 -43 -2 -73.5t-11.5 -69t-26 -63t-47.5 -41.5t-75 -17q-43 0 -70 16.5t-51 53.5v-250h-60v697h58v-66q47 74 129 74q28 0 51 -5.5t38.5 -18.5t27.5 -26t19 -35t11.5 -39t6 -45t2 -45.5t0.5 -46.5zM338 249v9q0 36 -0.5 54t-3 47t-9 43.5t-17.5 31t-29 23.5
t-43 7q-37 0 -62 -19t-36.5 -54.5t-16 -71t-4.5 -82.5q0 -200 118 -200q22 0 39 7.5t27.5 17t18 29.5t11 33.5t5.5 41.5t2 40.5v42.5z" />
    <glyph glyph-name="q" unicode="q" 
d="M386 505q-4 -66 -4 -155v-542h-62v251q-47 -66 -123 -66q-32 0 -57 9.5t-41.5 22.5t-27.5 37.5t-17 44t-9 52.5t-3.5 53t-0.5 55q0 39 2.5 69.5t12 65.5t25.5 58t45.5 38.5t69.5 15.5q80 0 130 -76v67h60zM324 272q0 193 -115 193q-22 0 -39.5 -8t-29 -19t-19 -32
t-11.5 -36t-6 -43t-2 -41.5v-41.5v-40t2 -39t5.5 -39t11.5 -31.5t18.5 -28t27.5 -16.5t39 -7q25 0 44 8t31.5 18.5t21 31t12.5 35.5t6.5 42t2.5 40v41v13z" />
    <glyph glyph-name="r" unicode="r" horiz-adv-x="278" 
d="M266 454q-2 0 -7.5 0.5t-8.5 0.5q-57 0 -90 -34.5t-33 -95.5v-325h-60v422l-2 83h57v-73q45 80 133 80h11v-58z" />
    <glyph glyph-name="s" unicode="s" horiz-adv-x="389" 
d="M345 132q0 -71 -39 -108t-114 -37q-148 0 -148 148v13h61q1 -62 22 -88.5t70 -26.5q42 0 64.5 22.5t22.5 64.5q0 34 -19.5 58.5t-63.5 46.5l-43 22q-101 51 -101 140q0 59 38 92.5t105 33.5q79 0 110 -36.5t31 -109.5h-59v6q0 92 -85 92q-37 0 -58.5 -19.5t-21.5 -56.5
q0 -31 16 -49t48 -36l80 -43q44 -23 64 -53t20 -76z" />
    <glyph glyph-name="t" unicode="t" horiz-adv-x="278" 
d="M259 0q-18 -3 -53 -3q-108 0 -108 86v374h-82v48h82v104l59 26v-130h102v-48h-102v-339q0 -39 12 -54t50 -15q20 0 40 4v-53z" />
    <glyph glyph-name="u" unicode="u" 
d="M381 0h-59v56q-50 -66 -126 -66q-132 0 -132 160v355h60v-361q0 -49 23 -76t64 -27q49 0 78 35.5t29 94.5v334h61v-434q0 -12 1 -36.5t1 -34.5z" />
    <glyph glyph-name="v" unicode="v" horiz-adv-x="389" 
d="M378 505l-149 -505h-69l-150 505h65l122 -431l123 431h58z" />
    <glyph glyph-name="w" unicode="w" horiz-adv-x="667" 
d="M657 505l-139 -505h-75l-112 429l-107 -429h-75l-139 505h64l114 -436l108 436h74l113 -436l114 436h60z" />
    <glyph glyph-name="x" unicode="x" horiz-adv-x="389" 
d="M378 0h-73l-111 219l-116 -219h-67l148 269l-125 236h72l92 -190l100 190h66l-132 -233z" />
    <glyph glyph-name="y" unicode="y" horiz-adv-x="389" 
d="M378 505l-209 -697h-59l59 190l-159 507h64l124 -414l120 414h60z" />
    <glyph glyph-name="z" unicode="z" horiz-adv-x="333" 
d="M304 0h-275v49l212 408h-200v48h258v-57l-203 -400h208v-48z" />
    <glyph glyph-name="braceleft" unicode="{" horiz-adv-x="351" 
d="M336 -134q-80 4 -122 36q-28 21 -42 56.5t-15.5 59.5t-1.5 71v48q0 28 -1.5 44.5t-10.5 38t-26 34.5q-35 26 -102 33v32q43 0 82.5 20.5t50.5 57.5q7 21 7 72v42q0 48 1.5 72t15 60t40.5 59q42 34 124 38v-32q-64 -4 -98 -36q-18 -17 -26.5 -44t-9.5 -43t-1 -53v-28
q0 -30 -1 -47t-4 -42.5t-11 -41t-21 -31.5t-35 -25.5t-51 -13.5q42 -7 68 -23t37.5 -45.5t14.5 -56t3 -72.5v-41q0 -73 15 -101q32 -61 120 -66v-32z" />
    <glyph glyph-name="bar" unicode="|" horiz-adv-x="222" 
d="M135 -214h-48v1000h48v-1000z" />
    <glyph glyph-name="braceright" unicode="}" horiz-adv-x="351" 
d="M336 287q-68 -7 -102 -33q-25 -18 -31.5 -46.5t-6.5 -70.5v-48q0 -47 -1.5 -71t-15.5 -59.5t-42 -56.5q-42 -32 -122 -36v32q88 5 120 66q15 28 15 101v41q0 46 3 72.5t14.5 56t37.5 45.5t68 23q-29 4 -51 13.5t-35 25.5t-21 31.5t-11 41t-4 42.5t-1 47v28q0 37 -1 53
t-9.5 43t-26.5 44q-34 32 -98 36v32q82 -4 124 -38q27 -23 40.5 -59t15 -60t1.5 -72v-42q0 -51 7 -72q11 -37 50.5 -57.5t82.5 -20.5v-32z" />
    <glyph glyph-name="asciitilde" unicode="~" 
d="M431 307q-7 -53 -30 -88.5t-64 -35.5q-14 0 -37 6.5t-39 13l-43.5 18.5t-33.5 14q-51 22 -73 22q-47 0 -58 -83h-38q18 126 94 126q29 0 81 -22l82 -34q45 -18 64 -18q26 0 38.5 21t19.5 60h37z" />
    <glyph glyph-name="uni00A0" unicode="&#xa0;" horiz-adv-x="222" 
 />
    <glyph glyph-name="exclamdown" unicode="&#xa1;" horiz-adv-x="333" 
d="M130 -206l10 552h54l5 -552h-69zM130 516h73v-79h-73v79z" />
    <glyph glyph-name="cent" unicode="&#xa2;" 
d="M266 538l27 118h37l-29 -129q91 -39 91 -159v-8h-58v6q0 70 -47 102l-95 -410q17 -5 36 -5q55 0 82.5 32t27.5 116h58v-6q0 -93 -43 -146.5t-124 -53.5q-26 0 -54 5l-35 -151h-40l40 161q-33 20 -50 41.5t-27.5 70t-10.5 131.5q0 127 20 182q18 49 60 77.5t97 28.5
q19 0 37 -3zM253 481q-15 3 -25 3q-60 0 -87 -44t-27 -164q0 -59 1.5 -90.5t11.5 -65.5t29 -47z" />
    <glyph glyph-name="sterling" unicode="&#xa3;" 
d="M409 529h-61q0 3 0.5 7t0.5 5q0 114 -93 114q-18 0 -32.5 -4t-25 -13.5t-18 -17.5t-12 -25t-7.5 -26t-4 -31t-1 -29.5v-31.5v-27v-52h147v-54h-147v-290h242v-54h-379v54h74v290h-81v54h81v109q0 95 35.5 147t130.5 52q150 0 150 -150v-27z" />
    <glyph glyph-name="currency" unicode="&#xa4;" 
d="M-6 156l64 63q-46 52 -46 131q0 72 45 130l-63 64l34 34l63 -63q64 45 131 45q69 0 131 -45l63 63l34 -34l-63 -64q46 -64 46 -131q0 -66 -46 -130l63 -64l-34 -34l-64 64q-67 -46 -130 -46q-72 0 -130 46l-64 -64zM222 508q-65 0 -111.5 -46.5t-46.5 -112.5
q0 -65 46.5 -111.5t111.5 -46.5q66 0 112.5 46.5t46.5 111.5q0 66 -46.5 112.5t-112.5 46.5z" />
    <glyph glyph-name="yen" unicode="&#xa5;" 
d="M189 164h-146v46h146v55l-8 15h-138v47h117l-175 370h72l165 -359l173 359h65l-177 -370h120v-47h-142l-7 -15v-55h149v-46h-149v-164h-65v164z" />
    <glyph glyph-name="brokenbar" unicode="&#xa6;" horiz-adv-x="222" 
d="M135 411h-48v250h48v-250zM135 -89h-48v250h48v-250z" />
    <glyph glyph-name="section" unicode="&#xa7;" 
d="M378 121q0 -60 -46 -98q-45 -37 -124 -37q-75 0 -132 20v57q63 -26 129 -26q42 0 74 20.5t32 60.5q0 30 -25.5 55t-61.5 43.5l-72 37.5t-61.5 46t-25.5 60q0 22 9.5 40.5t31 34.5t33 23t38.5 22q-6 5 -11 7q-29 18 -45.5 31.5t-30 37t-13.5 52.5q0 62 46 91t112 29
q33 0 110 -15v-56q-60 19 -112 19q-36 0 -64.5 -16.5t-28.5 -50.5q0 -32 36.5 -59t81 -44.5t81 -49.5t36.5 -73q0 -27 -19.5 -53.5t-37 -39.5t-48.5 -34q108 -48 108 -135zM311 375q0 13 -5.5 24t-17.5 20t-20 14t-25.5 13t-21.5 10q-34 -19 -60 -40q-33 -27 -33 -51
q0 -40 98 -86q85 59 85 96z" />
    <glyph glyph-name="dieresis" unicode="&#xa8;" horiz-adv-x="278" 
d="M28 571v101h64v-101h-64zM186 571v101h64v-101h-64z" />
    <glyph glyph-name="copyright" unicode="&#xa9;" horiz-adv-x="800" 
d="M400 740q156 0 267 -110.5t111 -267.5q0 -156 -111 -266.5t-267 -110.5q-157 0 -267.5 110.5t-110.5 266.5q0 157 110.5 267.5t267.5 110.5zM400 693q-137 0 -234 -96.5t-97 -233.5t97 -234t234 -97t234 97t97 233q0 137 -97 234t-234 97zM582 285q-8 -61 -56.5 -100.5
t-114.5 -39.5q-88 0 -146.5 63t-58.5 157q0 95 56 157.5t141 62.5q71 0 121 -42t55 -106h-53q-8 46 -40.5 72.5t-79.5 26.5q-61 0 -99.5 -47t-38.5 -121q0 -76 40.5 -125t104.5 -49q44 0 75 24.5t41 66.5h53z" />
    <glyph glyph-name="ordfeminine" unicode="&#xaa;" horiz-adv-x="289" 
d="M120 424q-41 0 -65.5 25t-24.5 67q0 49 32 73q34 27 135 27v22q0 31 -12.5 44t-40.5 13q-53 0 -53 -42v-7h-52q1 28 10 46q24 44 97 44q38 0 65 -15q17 -9 25 -24q10 -17 10 -64v-145q0 -31 1 -60h-48v27q-14 -12 -16 -13q-26 -18 -63 -18zM127 464q30 0 52 25
q18 21 18 70v18h-3q-63 0 -92 -16q-21 -11 -21 -43q0 -25 12.5 -39.5t33.5 -14.5z" />
    <glyph glyph-name="guillemotleft" unicode="&#xab;" horiz-adv-x="389" 
d="M339 59h-55l-88 194l88 194h55l-80 -194zM190 59h-56l-87 194l90 194h53l-79 -194z" />
    <glyph glyph-name="logicalnot" unicode="&#xac;" 
d="M406 133h-45v183h-341v49h386v-232z" />
    <glyph glyph-name="uni00AD" unicode="&#xad;" horiz-adv-x="278" 
d="M240 238h-202v57h202v-57z" />
    <glyph glyph-name="registered" unicode="&#xae;" horiz-adv-x="400" 
d="M384 539q0 -76 -54 -130t-129 -54q-76 0 -129.5 54t-53.5 130q0 75 53.5 129t129.5 54t129.5 -53.5t53.5 -129.5zM358 539q0 65 -46 111.5t-111 46.5t-111.5 -46.5t-46.5 -111.5t46.5 -112t111.5 -47t111 47t46 112zM286 446h-30q-5 10 -4.5 33t-10.5 33t-48 10h-33v-76
h-29v187h81q71 0 71 -54q0 -34 -34 -45q20 -10 25.5 -24.5t5.5 -33.5t6 -30zM255 579q0 20 -11 25.5t-32 5.5h-52v-64h41q54 0 54 33z" />
    <glyph glyph-name="macron" unicode="&#xaf;" horiz-adv-x="278" 
d="M9 648h260v-48h-260v48z" />
    <glyph glyph-name="degree" unicode="&#xb0;" horiz-adv-x="400" 
d="M346 564q0 -61 -42.5 -103.5t-103.5 -42.5q-60 0 -103 42.5t-43 103.5t42.5 103.5t103.5 42.5t103.5 -42.5t42.5 -103.5zM303 564q0 43 -30 73t-73 30q-42 0 -72.5 -30t-30.5 -73t30 -73t73 -30t73 30t30 73z" />
    <glyph glyph-name="plusminus" unicode="&#xb1;" 
d="M429 264h-184v-181h-47v181h-184v43h184v181h47v-181h184v-43zM429 -7h-415v44h415v-44z" />
    <glyph glyph-name="twosuperior" unicode="&#xb2;" horiz-adv-x="293" 
d="M30 277v41l148 219q25 38 25 71q0 49 -58 49q-63 0 -63 -64v-10h-51q-1 5 -1 14q0 50 30.5 77.5t86.5 27.5q50 0 79.5 -24.5t29.5 -67.5q0 -48 -40 -107l-125 -180h165v-46h-226z" />
    <glyph glyph-name="threesuperior" unicode="&#xb3;" horiz-adv-x="293" 
d="M142 271q-115 0 -115 119h52v-9q0 -66 65 -66q32 0 46 18.5t14 58.5q0 47 -16.5 63.5t-56.5 16.5q-3 0 -10 -1t-12 -1v46h18q39 0 57 17t18 58q0 67 -60 67q-31 0 -44.5 -17t-13.5 -55v-3h-51v14q0 50 28.5 77.5t79.5 27.5q111 0 111 -108q0 -72 -48 -99q29 -13 40.5 -36
t11.5 -64q0 -124 -114 -124z" />
    <glyph glyph-name="acute" unicode="&#xb4;" horiz-adv-x="278" 
d="M75 560l113 137h80l-143 -137h-50z" />
    <glyph glyph-name="mu" unicode="&#xb5;" 
d="M383 0h-56v59q-36 -39 -60 -53t-69 -14q-49 0 -73 18v-202h-62v697h62v-347q0 -120 84 -120q54 0 82 38t28 73v356h62v-434q0 -12 1 -36.5t1 -34.5z" />
    <glyph glyph-name="paragraph" unicode="&#xb6;" horiz-adv-x="564" 
d="M491 682h-34v-853h-48v853h-70v-853h-48v446q-27 0 -47 5q-78 17 -119.5 74t-41.5 139q0 81 43 140.5t119 78.5q37 10 91 10h155v-40z" />
    <glyph glyph-name="periodcentered" unicode="&#xb7;" horiz-adv-x="222" 
d="M146 260h-75v79h75v-79z" />
    <glyph glyph-name="cedilla" unicode="&#xb8;" horiz-adv-x="278" 
d="M30 -188l15 30q42 -14 64 -14q25 0 44.5 11.5t19.5 34.5q0 19 -14.5 29t-34.5 10q-24 0 -38 -10l-20 15l60 82h38l-41 -55l2 -2q12 5 30 5q31 0 54.5 -20t23.5 -53q0 -82 -114 -82q-41 0 -89 19z" />
    <glyph glyph-name="onesuperior" unicode="&#xb9;" horiz-adv-x="293" 
d="M133 277v352q-25 -23 -73 -54v56q51 31 79 66h45v-420h-51z" />
    <glyph glyph-name="ordmasculine" unicode="&#xba;" horiz-adv-x="289" 
d="M142 422q-63 0 -85.5 34t-22.5 100v66q0 53 27.5 83.5t84.5 30.5q108 0 108 -114v-65q0 -66 -24.5 -100.5t-87.5 -34.5zM145 462q32 0 45.5 20.5t13.5 80.5v40q0 48 -11 70t-46 22t-49 -19.5t-14 -72.5v-56q0 -43 13.5 -64t47.5 -21z" />
    <glyph glyph-name="guillemotright" unicode="&#xbb;" horiz-adv-x="389" 
d="M337 252l-89 -193h-54l79 193l-79 195h56zM189 252l-88 -193h-56l80 193l-80 195h56z" />
    <glyph glyph-name="onequarter" unicode="&#xbc;" horiz-adv-x="754" 
d="M133 277v352q-25 -23 -73 -54v56q51 31 79 66h45v-420h-51zM124 -29l437 751h55l-436 -751h-56zM623 0v103h-150v49l132 268h67v-272h50v-45h-50v-103h-49zM523 148h100v201z" />
    <glyph glyph-name="onehalf" unicode="&#xbd;" horiz-adv-x="754" 
d="M133 277v352q-25 -23 -73 -54v56q51 31 79 66h45v-420h-51zM122 -29l437 751h55l-436 -751h-56zM493 0v41l148 219q25 38 25 71q0 49 -58 49q-63 0 -63 -64v-10h-51q-1 5 -1 14q0 50 30.5 77.5t86.5 27.5q50 0 79.5 -24.5t29.5 -67.5q0 -48 -40 -107l-125 -180h165v-46
h-226z" />
    <glyph glyph-name="threequarters" unicode="&#xbe;" horiz-adv-x="754" 
d="M142 271q-115 0 -115 119h52v-9q0 -66 65 -66q32 0 46 18.5t14 58.5q0 47 -16.5 63.5t-56.5 16.5q-3 0 -10 -1t-12 -1v46h18q39 0 57 17t18 58q0 67 -60 67q-31 0 -44.5 -17t-13.5 -55v-3h-51v14q0 50 28.5 77.5t79.5 27.5q111 0 111 -108q0 -72 -48 -99q29 -13 40.5 -36
t11.5 -64q0 -124 -114 -124zM147 -29l437 751h55l-436 -751h-56zM622 0v103h-150v49l132 268h67v-272h50v-45h-50v-103h-49zM522 148h100v201z" />
    <glyph glyph-name="questiondown" unicode="&#xbf;" horiz-adv-x="389" 
d="M71 -53q0 51 7 81t31 68l21.5 32l27 41.5t16.5 33.5q10 28 10 106v37h57v-41q0 -59 -6 -97q-7 -48 -58 -116q-27 -37 -34.5 -66.5t-7.5 -83.5q0 -27 2 -43t9 -33t23 -25t42 -8q77 0 77 97q0 9 -1 17h63q1 -12 1 -22q0 -143 -141 -143q-83 0 -111 39.5t-28 125.5zM175 516
h73v-79h-73v79z" />
    <glyph glyph-name="Agrave" unicode="&#xc0;" horiz-adv-x="556" 
d="M542 0h-67l-58 190h-283l-57 -190h-64l228 722h76zM400 244l-124 408l-123 -408h247zM342 777h-50l-143 137h80z" />
    <glyph glyph-name="Aacute" unicode="&#xc1;" horiz-adv-x="556" 
d="M542 0h-67l-58 190h-283l-57 -190h-64l228 722h76zM400 244l-124 408l-123 -408h247zM214 777l113 137h80l-143 -137h-50z" />
    <glyph glyph-name="Acircumflex" unicode="&#xc2;" horiz-adv-x="556" 
d="M542 0h-67l-58 190h-283l-57 -190h-64l228 722h76zM400 244l-124 408l-123 -408h247zM278 877l-82 -102h-64l113 139h67l113 -139h-64z" />
    <glyph glyph-name="Atilde" unicode="&#xc3;" horiz-adv-x="556" 
d="M542 0h-67l-58 190h-283l-57 -190h-64l228 722h76zM400 244l-124 408l-123 -408h247zM160 812h-38q5 41 26 69q26 33 62 33q8 0 18.5 -3t17.5 -6t20 -9.5t18 -8.5l18 -9t18.5 -9t15.5 -6t16 -3q19 0 30 16t14 38h38q-2 -40 -23 -68q-22 -34 -59 -34q-9 0 -19.5 3t-18 6
t-20.5 9.5t-18 8.5l-18 9t-18.5 9t-16 6t-17.5 3q-19 0 -31 -16.5t-15 -37.5z" />
    <glyph glyph-name="Adieresis" unicode="&#xc4;" horiz-adv-x="556" 
d="M542 0h-67l-58 190h-283l-57 -190h-64l228 722h76zM400 244l-124 408l-123 -408h247zM168 788v101h64v-101h-64zM326 788v101h64v-101h-64z" />
    <glyph glyph-name="Aring" unicode="&#xc5;" horiz-adv-x="556" 
d="M542 0h-67l-58 190h-283l-57 -190h-64l228 722h76zM400 244l-124 408l-123 -408h247zM279 953q39 0 65.5 -27t26.5 -66t-26.5 -66.5t-65.5 -27.5q-38 0 -65.5 28t-27.5 66t27.5 65.5t65.5 27.5zM279 918q-24 0 -41 -17t-17 -41q0 -23 17.5 -41t40.5 -18t40 18t17 41
t-17 40.5t-40 17.5z" />
    <glyph glyph-name="AE" unicode="&#xc6;" horiz-adv-x="778" 
d="M79 0h-66l331 722h387v-54h-286l26 -270h248v-54h-243l25 -290h241v-54h-301l-16 190h-259zM380 674l-189 -430h229l-38 430h-2z" />
    <glyph glyph-name="Ccedilla" unicode="&#xc7;" horiz-adv-x="500" 
d="M453 527h-64q0 155 -114 155q-25 0 -45.5 -5t-35.5 -12.5t-26.5 -23.5t-19.5 -29.5t-13 -38.5t-8 -43t-4 -51.5t-1.5 -55.5t-0.5 -62t0.5 -62t1.5 -55.5t4 -51.5t8 -43t13 -38.5t19.5 -29.5t26.5 -23.5t35.5 -12.5t45.5 -5q59 0 87 46t28 121h68q0 -22 -2.5 -44t-13 -56
t-29 -59t-54.5 -43.5t-84 -18.5q-8 0 -10 1l-31 -42l2 -2q12 5 30 5q31 0 54.5 -20t23.5 -53q0 -82 -114 -82q-41 0 -89 19l15 30q42 -14 64 -14q25 0 44.5 11.5t19.5 34.5q0 19 -14.5 29t-34.5 10q-24 0 -38 -10l-20 15l53 71q-36 5 -63.5 19.5t-45.5 32.5t-30.5 49t-19 56
t-10 68t-4 70.5t-0.5 76.5q0 42 0.5 65t2.5 60.5t5.5 59t11 51.5t18.5 47.5t27.5 37.5t38 30t50.5 17t64 7q50 0 86 -16.5t53 -37.5t26.5 -54.5t11 -53t1.5 -47.5z" />
    <glyph glyph-name="Egrave" unicode="&#xc8;" 
d="M409 0h-334v722h327v-54h-263v-270h251v-54h-251v-290h270v-54zM287 777h-50l-143 137h80z" />
    <glyph glyph-name="Eacute" unicode="&#xc9;" 
d="M409 0h-334v722h327v-54h-263v-270h251v-54h-251v-290h270v-54zM158 777l113 137h80l-143 -137h-50z" />
    <glyph glyph-name="Ecircumflex" unicode="&#xca;" 
d="M409 0h-334v722h327v-54h-263v-270h251v-54h-251v-290h270v-54zM228 877l-82 -102h-64l113 139h67l113 -139h-64z" />
    <glyph glyph-name="Edieresis" unicode="&#xcb;" 
d="M409 0h-334v722h327v-54h-263v-270h251v-54h-251v-290h270v-54zM131 788v101h64v-101h-64zM289 788v101h64v-101h-64z" />
    <glyph glyph-name="Igrave" unicode="&#xcc;" horiz-adv-x="222" 
d="M143 0h-64v722h64v-722zM176 777h-50l-143 137h80z" />
    <glyph glyph-name="Iacute" unicode="&#xcd;" horiz-adv-x="222" 
d="M143 0h-64v722h64v-722zM47 777l113 137h80l-143 -137h-50z" />
    <glyph glyph-name="Icircumflex" unicode="&#xce;" horiz-adv-x="222" 
d="M143 0h-64v722h64v-722zM111 877l-82 -102h-64l113 139h67l113 -139h-64z" />
    <glyph glyph-name="Idieresis" unicode="&#xcf;" horiz-adv-x="222" 
d="M143 0h-64v722h64v-722zM0 788v101h64v-101h-64zM158 788v101h64v-101h-64z" />
    <glyph glyph-name="Eth" unicode="&#xd0;" horiz-adv-x="556" 
d="M75 0v344h-61v54h61v324h191q60 0 101.5 -15.5t66 -41.5t38 -74t17.5 -100t4 -133q0 -98 -9 -158.5t-35.5 -109t-77 -69.5t-131.5 -21h-165zM139 668v-270h152v-54h-152v-290h78q43 0 72.5 4t53.5 12.5t38.5 27.5t24.5 41.5t14.5 63.5t6.5 85t2 113q0 67 -4.5 108
t-16.5 74.5t-35.5 50.5t-59 25.5t-90.5 8.5h-84z" />
    <glyph glyph-name="Ntilde" unicode="&#xd1;" horiz-adv-x="611" 
d="M535 0h-100l-296 650v-650h-63v722h98l298 -650v650h63v-722zM188 812h-38q5 41 26 69q26 33 62 33q8 0 18.5 -3t17.5 -6t20 -9.5t18 -8.5l18 -9t18.5 -9t15.5 -6t16 -3q19 0 30 16t14 38h38q-2 -40 -23 -68q-22 -34 -59 -34q-9 0 -19.5 3t-18 6t-20.5 9.5t-18 8.5l-18 9
t-18.5 9t-16 6t-17.5 3q-19 0 -31 -16.5t-15 -37.5z" />
    <glyph glyph-name="Ograve" unicode="&#xd2;" horiz-adv-x="556" 
d="M496 329q0 -53 -2 -89.5t-9 -80t-22.5 -71.5t-39 -53t-61.5 -37t-89 -12q-104 0 -158.5 64t-54.5 188v245q0 116 53.5 186.5t163.5 70.5q113 0 166 -71t53 -193v-147zM431 358v90q0 52 -5.5 89.5t-21 73.5t-47.5 55t-80 19q-40 0 -68.5 -14t-44.5 -35.5t-25 -54
t-11.5 -61.5t-2.5 -66v-182q0 -122 34.5 -177t117.5 -55q32 0 57 10t41 23.5t27.5 40.5t17 47t8 58t3 58.5t0.5 62.5v18zM343 777h-50l-143 137h80z" />
    <glyph glyph-name="Oacute" unicode="&#xd3;" horiz-adv-x="556" 
d="M496 329q0 -53 -2 -89.5t-9 -80t-22.5 -71.5t-39 -53t-61.5 -37t-89 -12q-104 0 -158.5 64t-54.5 188v245q0 116 53.5 186.5t163.5 70.5q113 0 166 -71t53 -193v-147zM431 358v90q0 52 -5.5 89.5t-21 73.5t-47.5 55t-80 19q-40 0 -68.5 -14t-44.5 -35.5t-25 -54
t-11.5 -61.5t-2.5 -66v-182q0 -122 34.5 -177t117.5 -55q32 0 57 10t41 23.5t27.5 40.5t17 47t8 58t3 58.5t0.5 62.5v18zM214 777l113 137h80l-143 -137h-50z" />
    <glyph glyph-name="Ocircumflex" unicode="&#xd4;" horiz-adv-x="556" 
d="M496 329q0 -53 -2 -89.5t-9 -80t-22.5 -71.5t-39 -53t-61.5 -37t-89 -12q-104 0 -158.5 64t-54.5 188v245q0 116 53.5 186.5t163.5 70.5q113 0 166 -71t53 -193v-147zM431 358v90q0 52 -5.5 89.5t-21 73.5t-47.5 55t-80 19q-40 0 -68.5 -14t-44.5 -35.5t-25 -54
t-11.5 -61.5t-2.5 -66v-182q0 -122 34.5 -177t117.5 -55q32 0 57 10t41 23.5t27.5 40.5t17 47t8 58t3 58.5t0.5 62.5v18zM278 877l-82 -102h-64l113 139h67l113 -139h-64z" />
    <glyph glyph-name="Otilde" unicode="&#xd5;" horiz-adv-x="556" 
d="M496 329q0 -53 -2 -89.5t-9 -80t-22.5 -71.5t-39 -53t-61.5 -37t-89 -12q-104 0 -158.5 64t-54.5 188v245q0 116 53.5 186.5t163.5 70.5q113 0 166 -71t53 -193v-147zM431 358v90q0 52 -5.5 89.5t-21 73.5t-47.5 55t-80 19q-40 0 -68.5 -14t-44.5 -35.5t-25 -54
t-11.5 -61.5t-2.5 -66v-182q0 -122 34.5 -177t117.5 -55q32 0 57 10t41 23.5t27.5 40.5t17 47t8 58t3 58.5t0.5 62.5v18zM160 812h-38q5 41 26 69q26 33 62 33q8 0 18.5 -3t17.5 -6t20 -9.5t18 -8.5l18 -9t18.5 -9t15.5 -6t16 -3q19 0 30 16t14 38h38q-2 -40 -23 -68
q-22 -34 -59 -34q-9 0 -19.5 3t-18 6t-20.5 9.5t-18 8.5l-18 9t-18.5 9t-16 6t-17.5 3q-19 0 -31 -16.5t-15 -37.5z" />
    <glyph glyph-name="Odieresis" unicode="&#xd6;" horiz-adv-x="556" 
d="M496 329q0 -53 -2 -89.5t-9 -80t-22.5 -71.5t-39 -53t-61.5 -37t-89 -12q-104 0 -158.5 64t-54.5 188v245q0 116 53.5 186.5t163.5 70.5q113 0 166 -71t53 -193v-147zM431 358v90q0 52 -5.5 89.5t-21 73.5t-47.5 55t-80 19q-40 0 -68.5 -14t-44.5 -35.5t-25 -54
t-11.5 -61.5t-2.5 -66v-182q0 -122 34.5 -177t117.5 -55q32 0 57 10t41 23.5t27.5 40.5t17 47t8 58t3 58.5t0.5 62.5v18zM168 788v101h64v-101h-64zM326 788v101h64v-101h-64z" />
    <glyph glyph-name="multiply" unicode="&#xd7;" 
d="M222 216l-165 -165l-37 37l165 165l-165 165l37 37l165 -165l165 165l37 -37l-165 -165l165 -165l-37 -37z" />
    <glyph glyph-name="Oslash" unicode="&#xd8;" horiz-adv-x="556" 
d="M123 45l-42 -76l-37 18l54 95q-11 19 -18.5 44.5t-11.5 43.5t-6 52t-2.5 45.5t0 51t0.5 42.5q0 133 7 178q26 178 175 195q17 2 36 2q98 0 155 -59l46 82l33 -21l-54 -97q8 -15 14 -32.5t10 -32.5t7 -37.5t4.5 -35.5t2 -39t0.5 -35v-36v-32q0 -133 -7 -178
q-26 -178 -175 -195q-17 -2 -36 -2q-101 0 -155 59zM418 570l-262 -467q33 -63 122 -63q25 0 45.5 5.5t36 13t27 24t19 29.5t13 38.5t8 42.5t4 50.5t1.5 52.5v58v7q0 157 -14 209zM137 152l263 467q-33 63 -122 63q-25 0 -45.5 -5.5t-36 -13t-27 -24t-19 -29.5t-13 -38.5
t-8 -42.5t-4 -50.5t-1.5 -52.5v-58v-7q0 -160 13 -209z" />
    <glyph glyph-name="Ugrave" unicode="&#xd9;" horiz-adv-x="556" 
d="M487 260q0 -49 -4.5 -86.5t-18 -74t-36.5 -60.5t-61 -38.5t-90 -14.5q-105 0 -157.5 58t-52.5 167v511h64v-510q0 -81 39 -126.5t109 -45.5q144 0 144 201v481h64v-462zM342 777h-50l-143 137h80z" />
    <glyph glyph-name="Uacute" unicode="&#xda;" horiz-adv-x="556" 
d="M487 260q0 -49 -4.5 -86.5t-18 -74t-36.5 -60.5t-61 -38.5t-90 -14.5q-105 0 -157.5 58t-52.5 167v511h64v-510q0 -81 39 -126.5t109 -45.5q144 0 144 201v481h64v-462zM214 777l113 137h80l-143 -137h-50z" />
    <glyph glyph-name="Ucircumflex" unicode="&#xdb;" horiz-adv-x="556" 
d="M487 260q0 -49 -4.5 -86.5t-18 -74t-36.5 -60.5t-61 -38.5t-90 -14.5q-105 0 -157.5 58t-52.5 167v511h64v-510q0 -81 39 -126.5t109 -45.5q144 0 144 201v481h64v-462zM278 877l-82 -102h-64l113 139h67l113 -139h-64z" />
    <glyph glyph-name="Udieresis" unicode="&#xdc;" horiz-adv-x="556" 
d="M487 260q0 -49 -4.5 -86.5t-18 -74t-36.5 -60.5t-61 -38.5t-90 -14.5q-105 0 -157.5 58t-52.5 167v511h64v-510q0 -81 39 -126.5t109 -45.5q144 0 144 201v481h64v-462zM168 788v101h64v-101h-64zM326 788v101h64v-101h-64z" />
    <glyph glyph-name="Yacute" unicode="&#xdd;" horiz-adv-x="500" 
d="M488 722l-206 -432v-290h-64v290l-204 432h72l165 -359l173 359h64zM186 777l113 137h80l-143 -137h-50z" />
    <glyph glyph-name="Thorn" unicode="&#xde;" 
d="M64 0v722h64v-164h134q23 0 40 -2t41 -12t39.5 -27.5t27 -51.5t11.5 -82q0 -110 -39.5 -160.5t-131.5 -50.5h-122v-172h-64zM128 504v-278h119q54 0 82 32.5t28 112.5q0 44 -8.5 72t-25.5 40.5t-34 16.5t-43 4h-118z" />
    <glyph glyph-name="germandbls" unicode="&#xdf;" horiz-adv-x="500" 
d="M457 134q0 -71 -40.5 -107.5t-112.5 -36.5q-66 0 -99 35t-31 100h60q1 -44 19.5 -65.5t62.5 -21.5q40 0 60.5 23.5t20.5 63.5q0 28 -17.5 55.5t-42.5 49l-50.5 43t-43 47t-17.5 51.5q0 43 27 84.5l54 80.5t27 74q0 36 -30 57t-67 21q-110 0 -110 -140v-548h-60v568
q0 21 4 41.5t15.5 44.5t30 41.5t51.5 29t76 11.5q60 0 105 -35t45 -95q0 -40 -27 -81.5t-54 -77.5t-27 -62q0 -21 17.5 -43.5t43 -44t50.5 -45t42.5 -54.5t17.5 -64z" />
    <glyph glyph-name="agrave" unicode="&#xe0;" 
d="M386 0h-60l-1 68q-54 -75 -145 -75q-65 0 -103 40t-38 109q0 124 117 150q42 10 68 12t96 3v62q0 99 -100 99q-47 0 -73.5 -22t-26.5 -62v-2h-65q3 67 49.5 100.5t119.5 33.5q67 0 110 -29q22 -14 33 -40t12.5 -44.5t1.5 -51.5v-243l2 -64zM322 219q0 7 -1 41q-9 1 -20 1
q-106 0 -156 -29q-42 -24 -42 -87q0 -49 24.5 -77t66.5 -28q56 0 96 48q19 22 25.5 49.5t6.5 81.5zM287 558h-51l-138 139h78z" />
    <glyph glyph-name="aacute" unicode="&#xe1;" 
d="M386 0h-60l-1 68q-54 -75 -145 -75q-65 0 -103 40t-38 109q0 124 117 150q42 10 68 12t96 3v62q0 99 -100 99q-47 0 -73.5 -22t-26.5 -62v-2h-65q3 67 49.5 100.5t119.5 33.5q67 0 110 -29q22 -14 33 -40t12.5 -44.5t1.5 -51.5v-243l2 -64zM322 219q0 7 -1 41q-9 1 -20 1
q-106 0 -156 -29q-42 -24 -42 -87q0 -49 24.5 -77t66.5 -28q56 0 96 48q19 22 25.5 49.5t6.5 81.5zM159 560l113 137h80l-143 -137h-50z" />
    <glyph glyph-name="acircumflex" unicode="&#xe2;" 
d="M386 0h-60l-1 68q-54 -75 -145 -75q-65 0 -103 40t-38 109q0 124 117 150q42 10 68 12t96 3v62q0 99 -100 99q-47 0 -73.5 -22t-26.5 -62v-2h-65q3 67 49.5 100.5t119.5 33.5q67 0 110 -29q22 -14 33 -40t12.5 -44.5t1.5 -51.5v-243l2 -64zM322 219q0 7 -1 41q-9 1 -20 1
q-106 0 -156 -29q-42 -24 -42 -87q0 -49 24.5 -77t66.5 -28q56 0 96 48q19 22 25.5 49.5t6.5 81.5zM222 660l-82 -102h-64l113 139h67l113 -139h-64z" />
    <glyph glyph-name="atilde" unicode="&#xe3;" 
d="M386 0h-60l-1 68q-54 -75 -145 -75q-65 0 -103 40t-38 109q0 124 117 150q42 10 68 12t96 3v62q0 99 -100 99q-47 0 -73.5 -22t-26.5 -62v-2h-65q3 67 49.5 100.5t119.5 33.5q67 0 110 -29q22 -14 33 -40t12.5 -44.5t1.5 -51.5v-243l2 -64zM322 219q0 7 -1 41q-9 1 -20 1
q-106 0 -156 -29q-42 -24 -42 -87q0 -49 24.5 -77t66.5 -28q56 0 96 48q19 22 25.5 49.5t6.5 81.5zM105 595h-38q5 41 26 69q26 33 62 33q8 0 18.5 -3t17.5 -6t20 -9.5t18 -8.5l18 -9t18.5 -9t15.5 -6t16 -3q19 0 30 16t14 38h38q-2 -40 -23 -68q-22 -34 -59 -34
q-9 0 -19.5 3t-18 6t-20.5 9.5t-18 8.5l-18 9t-18.5 9t-16 6t-17.5 3q-19 0 -31 -16.5t-15 -37.5z" />
    <glyph glyph-name="adieresis" unicode="&#xe4;" 
d="M386 0h-60l-1 68q-54 -75 -145 -75q-65 0 -103 40t-38 109q0 124 117 150q42 10 68 12t96 3v62q0 99 -100 99q-47 0 -73.5 -22t-26.5 -62v-2h-65q3 67 49.5 100.5t119.5 33.5q67 0 110 -29q22 -14 33 -40t12.5 -44.5t1.5 -51.5v-243l2 -64zM322 219q0 7 -1 41q-9 1 -20 1
q-106 0 -156 -29q-42 -24 -42 -87q0 -49 24.5 -77t66.5 -28q56 0 96 48q19 22 25.5 49.5t6.5 81.5zM111 571v101h64v-101h-64zM269 571v101h64v-101h-64z" />
    <glyph glyph-name="aring" unicode="&#xe5;" 
d="M386 0h-60l-1 68q-54 -75 -145 -75q-65 0 -103 40t-38 109q0 124 117 150q42 10 68 12t96 3v62q0 99 -100 99q-47 0 -73.5 -22t-26.5 -62v-2h-65q3 67 49.5 100.5t119.5 33.5q67 0 110 -29q22 -14 33 -40t12.5 -44.5t1.5 -51.5v-243l2 -64zM322 219q0 7 -1 41q-9 1 -20 1
q-106 0 -156 -29q-42 -24 -42 -87q0 -49 24.5 -77t66.5 -28q56 0 96 48q19 22 25.5 49.5t6.5 81.5zM222 736q39 0 65.5 -27t26.5 -66t-26.5 -66.5t-65.5 -27.5q-38 0 -65.5 28t-27.5 66t27.5 65.5t65.5 27.5zM222 701q-24 0 -41 -17t-17 -41q0 -23 17.5 -41t40.5 -18t40 18
t17 41t-17 40.5t-40 17.5z" />
    <glyph glyph-name="ae" unicode="&#xe6;" horiz-adv-x="722" 
d="M666 250h-288v-49q0 -30 5 -55.5t16.5 -51.5t35 -41t57.5 -15q55 0 83.5 31.5t27.5 84.5h63q-6 -88 -50 -126t-124 -38q-51 0 -90.5 23.5t-51.5 66.5q-40 -90 -144 -90q-73 0 -120.5 36.5t-47.5 105.5q0 35 9.5 61.5t22 44t37 29.5t43 18t52.5 9t52.5 3.5t54.5 0.5h13
q0 31 -1 49t-6.5 44t-16 40t-31.5 25t-51 11q-44 0 -71.5 -22t-27.5 -65h-64q4 69 50.5 102t117.5 33q46 0 85 -19.5t54 -57.5q20 35 56.5 56t75.5 21q29 0 52.5 -5t40.5 -12t30 -22t22 -26.5t14.5 -34t8.5 -36t4.5 -42t1.5 -42v-45.5zM102 136q0 -98 109 -98q38 0 63 21
t35 56.5t12.5 67.5t0.5 67q-12 -1 -42 -1.5t-45 -1.5t-40 -4.5t-38 -11t-27.5 -19.5t-21 -31t-6.5 -45zM378 298h228q0 85 -23.5 127t-90.5 42q-54 0 -84 -45.5t-30 -123.5z" />
    <glyph glyph-name="ccedilla" unicode="&#xe7;" horiz-adv-x="389" 
d="M346 360h-60q5 107 -89 107q-28 0 -49.5 -15.5t-31.5 -42.5q-14 -42 -14 -159q0 -31 0.5 -48t3 -46.5t8.5 -46.5t15.5 -35.5t26.5 -27t39 -8.5q54 0 71.5 28t20.5 83h60q2 -46 -11.5 -80t-36 -49.5t-44 -22.5t-42.5 -7l-34 -45l2 -2q12 5 30 5q31 0 54.5 -20t23.5 -53
q0 -82 -114 -82q-41 0 -89 19l15 30q42 -14 64 -14q25 0 44.5 11.5t19.5 34.5q0 19 -14.5 29t-34.5 10q-24 0 -38 -10l-20 15l54 74q-23 3 -41.5 10t-32 15t-24 23.5t-17.5 27t-11.5 32.5t-6.5 34t-3.5 38.5t-1.5 38v39.5q0 126 15 167q37 98 152 98q68 0 106.5 -39.5
t34.5 -115.5z" />
    <glyph glyph-name="egrave" unicode="&#xe8;" 
d="M397 153q0 -77 -42 -121t-128 -44q-48 0 -82 14.5t-53 36.5t-29.5 60t-13.5 73.5t-3 87.5q0 45 4 80t16 69t31.5 56.5t52 36t77.5 13.5q99 0 134.5 -57t35.5 -160v-56h-286v-33q0 -36 4 -62.5t15 -53.5t35.5 -41.5t61.5 -14.5q54 0 81 31.5t27 84.5h62zM336 288
q0 26 -1 42t-4 40t-10.5 39t-19 30t-31.5 22t-46 7q-113 0 -113 -153v-27h225zM287 558h-51l-138 139h78z" />
    <glyph glyph-name="eacute" unicode="&#xe9;" 
d="M397 153q0 -77 -42 -121t-128 -44q-48 0 -82 14.5t-53 36.5t-29.5 60t-13.5 73.5t-3 87.5q0 45 4 80t16 69t31.5 56.5t52 36t77.5 13.5q99 0 134.5 -57t35.5 -160v-56h-286v-33q0 -36 4 -62.5t15 -53.5t35.5 -41.5t61.5 -14.5q54 0 81 31.5t27 84.5h62zM336 288
q0 26 -1 42t-4 40t-10.5 39t-19 30t-31.5 22t-46 7q-113 0 -113 -153v-27h225zM158 560l113 137h80l-143 -137h-50z" />
    <glyph glyph-name="ecircumflex" unicode="&#xea;" 
d="M397 153q0 -77 -42 -121t-128 -44q-48 0 -82 14.5t-53 36.5t-29.5 60t-13.5 73.5t-3 87.5q0 45 4 80t16 69t31.5 56.5t52 36t77.5 13.5q99 0 134.5 -57t35.5 -160v-56h-286v-33q0 -36 4 -62.5t15 -53.5t35.5 -41.5t61.5 -14.5q54 0 81 31.5t27 84.5h62zM336 288
q0 26 -1 42t-4 40t-10.5 39t-19 30t-31.5 22t-46 7q-113 0 -113 -153v-27h225zM222 660l-82 -102h-64l113 139h67l113 -139h-64z" />
    <glyph glyph-name="edieresis" unicode="&#xeb;" 
d="M397 153q0 -77 -42 -121t-128 -44q-48 0 -82 14.5t-53 36.5t-29.5 60t-13.5 73.5t-3 87.5q0 45 4 80t16 69t31.5 56.5t52 36t77.5 13.5q99 0 134.5 -57t35.5 -160v-56h-286v-33q0 -36 4 -62.5t15 -53.5t35.5 -41.5t61.5 -14.5q54 0 81 31.5t27 84.5h62zM336 288
q0 26 -1 42t-4 40t-10.5 39t-19 30t-31.5 22t-46 7q-113 0 -113 -153v-27h225zM111 571v101h64v-101h-64zM269 571v101h64v-101h-64z" />
    <glyph glyph-name="igrave" unicode="&#xec;" horiz-adv-x="222" 
d="M141 0h-60v505h60v-505zM175 558h-51l-138 139h78z" />
    <glyph glyph-name="iacute" unicode="&#xed;" horiz-adv-x="222" 
d="M141 0h-60v505h60v-505zM47 560l113 137h80l-143 -137h-50z" />
    <glyph glyph-name="icircumflex" unicode="&#xee;" horiz-adv-x="222" 
d="M141 0h-60v505h60v-505zM111 660l-82 -102h-64l113 139h67l113 -139h-64z" />
    <glyph glyph-name="idieresis" unicode="&#xef;" horiz-adv-x="222" 
d="M141 0h-60v505h60v-505zM0 571v101h64v-101h-64zM158 571v101h64v-101h-64z" />
    <glyph glyph-name="eth" unicode="&#xf0;" 
d="M112 618l91 50l-22 12.5t-15.5 8t-12 5t-17.5 6.5l-25 10l43 37q59 -20 101 -50l89 50l31 -30l-84 -47q54 -54 79.5 -130.5t25.5 -240.5v-101q0 -208 -174 -208t-174 208v109q0 208 174 208q78 0 102 -44l2 2q-2 48 -31.5 97.5t-56.5 69.5l-94 -52zM222 467
q-69 0 -91.5 -52t-22.5 -162q0 -111 22.5 -163t91.5 -52t91.5 52t22.5 163q0 110 -22.5 162t-91.5 52z" />
    <glyph glyph-name="ntilde" unicode="&#xf1;" 
d="M385 0h-60v347q0 49 -21 81t-68 32q-55 0 -84.5 -45t-29.5 -128v-287h-59v505h55v-70q40 76 128 76q139 0 139 -161v-350zM104 595h-38q5 41 26 69q26 33 62 33q8 0 18.5 -3t17.5 -6t20 -9.5t18 -8.5l18 -9t18.5 -9t15.5 -6t16 -3q19 0 30 16t14 38h38q-2 -40 -23 -68
q-22 -34 -59 -34q-9 0 -19.5 3t-18 6t-20.5 9.5t-18 8.5l-18 9t-18.5 9t-16 6t-17.5 3q-19 0 -31 -16.5t-15 -37.5z" />
    <glyph glyph-name="ograve" unicode="&#xf2;" 
d="M397 203q0 -107 -39.5 -161.5t-139.5 -54.5q-96 0 -133.5 53.5t-37.5 155.5v100q0 106 39.5 162.5t140.5 56.5q53 0 87.5 -15t52 -45t24 -65.5t6.5 -86.5v-100zM336 226v70q0 37 -3.5 63.5t-14.5 53t-34 40.5t-58 14q-38 0 -63 -15t-36.5 -44t-15 -57t-3.5 -69v-63
q0 -33 1 -53.5t7.5 -48t18.5 -43.5t35 -28t56 -12q27 0 46.5 8t31 24.5t18.5 32t10 42t3.5 42t0.5 43.5zM286 558h-51l-138 139h78z" />
    <glyph glyph-name="oacute" unicode="&#xf3;" 
d="M397 203q0 -107 -39.5 -161.5t-139.5 -54.5q-96 0 -133.5 53.5t-37.5 155.5v100q0 106 39.5 162.5t140.5 56.5q53 0 87.5 -15t52 -45t24 -65.5t6.5 -86.5v-100zM336 226v70q0 37 -3.5 63.5t-14.5 53t-34 40.5t-58 14q-38 0 -63 -15t-36.5 -44t-15 -57t-3.5 -69v-63
q0 -33 1 -53.5t7.5 -48t18.5 -43.5t35 -28t56 -12q27 0 46.5 8t31 24.5t18.5 32t10 42t3.5 42t0.5 43.5zM158 560l113 137h80l-143 -137h-50z" />
    <glyph glyph-name="ocircumflex" unicode="&#xf4;" 
d="M397 203q0 -107 -39.5 -161.5t-139.5 -54.5q-96 0 -133.5 53.5t-37.5 155.5v100q0 106 39.5 162.5t140.5 56.5q53 0 87.5 -15t52 -45t24 -65.5t6.5 -86.5v-100zM336 226v70q0 37 -3.5 63.5t-14.5 53t-34 40.5t-58 14q-38 0 -63 -15t-36.5 -44t-15 -57t-3.5 -69v-63
q0 -33 1 -53.5t7.5 -48t18.5 -43.5t35 -28t56 -12q27 0 46.5 8t31 24.5t18.5 32t10 42t3.5 42t0.5 43.5zM222 660l-82 -102h-64l113 139h67l113 -139h-64z" />
    <glyph glyph-name="otilde" unicode="&#xf5;" 
d="M397 203q0 -107 -39.5 -161.5t-139.5 -54.5q-96 0 -133.5 53.5t-37.5 155.5v100q0 106 39.5 162.5t140.5 56.5q53 0 87.5 -15t52 -45t24 -65.5t6.5 -86.5v-100zM336 226v70q0 37 -3.5 63.5t-14.5 53t-34 40.5t-58 14q-38 0 -63 -15t-36.5 -44t-15 -57t-3.5 -69v-63
q0 -33 1 -53.5t7.5 -48t18.5 -43.5t35 -28t56 -12q27 0 46.5 8t31 24.5t18.5 32t10 42t3.5 42t0.5 43.5zM104 595h-38q5 41 26 69q26 33 62 33q8 0 18.5 -3t17.5 -6t20 -9.5t18 -8.5l18 -9t18.5 -9t15.5 -6t16 -3q19 0 30 16t14 38h38q-2 -40 -23 -68q-22 -34 -59 -34
q-9 0 -19.5 3t-18 6t-20.5 9.5t-18 8.5l-18 9t-18.5 9t-16 6t-17.5 3q-19 0 -31 -16.5t-15 -37.5z" />
    <glyph glyph-name="odieresis" unicode="&#xf6;" 
d="M397 203q0 -107 -39.5 -161.5t-139.5 -54.5q-96 0 -133.5 53.5t-37.5 155.5v100q0 106 39.5 162.5t140.5 56.5q53 0 87.5 -15t52 -45t24 -65.5t6.5 -86.5v-100zM336 226v70q0 37 -3.5 63.5t-14.5 53t-34 40.5t-58 14q-38 0 -63 -15t-36.5 -44t-15 -57t-3.5 -69v-63
q0 -33 1 -53.5t7.5 -48t18.5 -43.5t35 -28t56 -12q27 0 46.5 8t31 24.5t18.5 32t10 42t3.5 42t0.5 43.5zM111 571v101h64v-101h-64zM269 571v101h64v-101h-64z" />
    <glyph glyph-name="divide" unicode="&#xf7;" 
d="M261 393h-74v76h74v-76zM437 233h-427v43h427v-43zM261 40h-74v76h74v-76z" />
    <glyph glyph-name="oslash" unicode="&#xf8;" 
d="M103 26l-44 -70l-30 20l49 79q-30 47 -30 143v120q0 19 0.5 31.5t4 35t9.5 38t19 34.5t31 30.5t46 19.5t64 8q79 0 120 -38l43 70l30 -19l-48 -77q20 -35 24.5 -61t4.5 -72v-120q0 -103 -40.5 -155.5t-133.5 -52.5q-80 0 -119 36zM118 119l192 307q-20 41 -88 41
q-70 0 -92 -47t-22 -167q0 -94 10 -134zM326 384l-191 -306q25 -40 87 -40q28 0 48.5 7.5t32 22.5t14 20t7.5 17q12 29 12 148q0 91 -10 131z" />
    <glyph glyph-name="ugrave" unicode="&#xf9;" 
d="M381 0h-59v56q-50 -66 -126 -66q-132 0 -132 160v355h60v-361q0 -49 23 -76t64 -27q49 0 78 35.5t29 94.5v334h61v-434q0 -12 1 -36.5t1 -34.5zM286 558h-51l-138 139h78z" />
    <glyph glyph-name="uacute" unicode="&#xfa;" 
d="M381 0h-59v56q-50 -66 -126 -66q-132 0 -132 160v355h60v-361q0 -49 23 -76t64 -27q49 0 78 35.5t29 94.5v334h61v-434q0 -12 1 -36.5t1 -34.5zM158 560l113 137h80l-143 -137h-50z" />
    <glyph glyph-name="ucircumflex" unicode="&#xfb;" 
d="M381 0h-59v56q-50 -66 -126 -66q-132 0 -132 160v355h60v-361q0 -49 23 -76t64 -27q49 0 78 35.5t29 94.5v334h61v-434q0 -12 1 -36.5t1 -34.5zM222 660l-82 -102h-64l113 139h67l113 -139h-64z" />
    <glyph glyph-name="udieresis" unicode="&#xfc;" 
d="M381 0h-59v56q-50 -66 -126 -66q-132 0 -132 160v355h60v-361q0 -49 23 -76t64 -27q49 0 78 35.5t29 94.5v334h61v-434q0 -12 1 -36.5t1 -34.5zM111 571v101h64v-101h-64zM269 571v101h64v-101h-64z" />
    <glyph glyph-name="yacute" unicode="&#xfd;" horiz-adv-x="389" 
d="M378 505l-209 -697h-59l59 190l-159 507h64l124 -414l120 414h60zM131 560l113 137h80l-143 -137h-50z" />
    <glyph glyph-name="thorn" unicode="&#xfe;" 
d="M63 -191v913h60v-278l2 1q44 70 128 70q32 0 57 -8.5t40.5 -23.5t27 -34.5t16 -42t8 -46t2.5 -46t0 -42.5v-19q0 -42 -2 -71t-10.5 -68.5t-24.5 -64t-46.5 -42t-72.5 -17.5q-82 0 -123 66l-2 1v-248h-60zM123 298v-90q0 -82 31 -126t76 -44q33 0 55 12t33.5 28t17.5 48
t7 56t1 69q0 37 -0.5 57.5t-4 50t-10.5 45.5t-19.5 32.5t-32.5 23.5t-47 7q-38 0 -72.5 -42.5t-34.5 -126.5z" />
    <glyph glyph-name="ydieresis" unicode="&#xff;" horiz-adv-x="389" 
d="M378 505l-209 -697h-59l59 190l-159 507h64l124 -414l120 414h60zM85 571v101h64v-101h-64zM243 571v101h64v-101h-64z" />
    <glyph glyph-name="Amacron" unicode="&#x100;" horiz-adv-x="556" 
d="M542 0h-67l-58 190h-283l-57 -190h-64l228 722h76zM400 244l-124 408l-123 -408h247zM146 865h260v-48h-260v48z" />
    <glyph glyph-name="amacron" unicode="&#x101;" 
d="M386 0h-60l-1 68q-54 -75 -145 -75q-65 0 -103 40t-38 109q0 124 117 150q42 10 68 12t96 3v62q0 99 -100 99q-47 0 -73.5 -22t-26.5 -62v-2h-65q3 67 49.5 100.5t119.5 33.5q67 0 110 -29q22 -14 33 -40t12.5 -44.5t1.5 -51.5v-243l2 -64zM322 219q0 7 -1 41q-9 1 -20 1
q-106 0 -156 -29q-42 -24 -42 -87q0 -49 24.5 -77t66.5 -28q56 0 96 48q19 22 25.5 49.5t6.5 81.5zM93 648h260v-48h-260v48z" />
    <glyph glyph-name="Abreve" unicode="&#x102;" horiz-adv-x="556" 
d="M542 0h-67l-58 190h-283l-57 -190h-64l228 722h76zM400 244l-124 408l-123 -408h247zM132 914h39q16 -81 105 -81q84 0 107 81h37q-7 -62 -47 -95.5t-102 -33.5q-60 0 -97 34.5t-42 94.5z" />
    <glyph glyph-name="abreve" unicode="&#x103;" 
d="M386 0h-60l-1 68q-54 -75 -145 -75q-65 0 -103 40t-38 109q0 124 117 150q42 10 68 12t96 3v62q0 99 -100 99q-47 0 -73.5 -22t-26.5 -62v-2h-65q3 67 49.5 100.5t119.5 33.5q67 0 110 -29q22 -14 33 -40t12.5 -44.5t1.5 -51.5v-243l2 -64zM322 219q0 7 -1 41q-9 1 -20 1
q-106 0 -156 -29q-42 -24 -42 -87q0 -49 24.5 -77t66.5 -28q56 0 96 48q19 22 25.5 49.5t6.5 81.5zM79 697h39q16 -81 105 -81q85 0 107 81h37q-7 -62 -47 -95.5t-102 -33.5q-60 0 -97 34.5t-42 94.5z" />
    <glyph glyph-name="Aogonek" unicode="&#x104;" horiz-adv-x="556" 
d="M241 722h76l225 -722h-17q-48 -24 -68.5 -54t-20.5 -56q0 -24 17.5 -35t42.5 -11q13 0 64 17v-33q-31 -19 -74 -19q-55 0 -84.5 16t-29.5 66q0 35 27 63.5t76 45.5l-58 190h-283l-57 -190h-64zM153 244h247l-123 408h-2z" />
    <glyph glyph-name="aogonek" unicode="&#x105;" 
d="M322 0v62h-2q-48 -72 -143 -72q-67 0 -103 40.5t-36 108.5q0 32 8.5 57.5t20.5 42t33 29t39.5 18.5t45.5 10t45.5 5.5t46.5 2.5t41 2v42q0 60 -22.5 89.5t-79.5 29.5q-44 0 -71.5 -22t-27.5 -65h-64q4 69 50.5 102t117.5 33q157 0 157 -134v-254q0 -76 6 -127h-12
q-48 -24 -68.5 -54t-20.5 -56q0 -24 17.5 -35t42.5 -11q13 0 64 17v-33q-31 -19 -74 -19q-55 0 -84.5 16t-29.5 66q0 35 27 63.5t76 45.5zM318 166v92q-5 0 -33 -0.5t-37.5 -1.5t-34.5 -4t-36 -7t-28.5 -13t-25.5 -20.5t-14.5 -29.5t-6.5 -40q0 -46 23 -75t68 -29
q51 0 88 38.5t37 89.5z" />
    <glyph glyph-name="Cacute" unicode="&#x106;" horiz-adv-x="500" 
d="M459 203q0 -101 -50 -159t-151 -58q-33 0 -60.5 7t-47 16.5t-35 28t-25.5 34t-16.5 43t-10 45.5t-5.5 51t-2 50.5v52.5q0 125 6 209q15 213 205 213q186 0 186 -195v-14h-66q0 4 0.5 9t0.5 7q0 139 -121 139q-34 0 -59.5 -10.5t-41 -32.5t-25 -43.5t-13 -55.5t-4.5 -55
t-1 -56v-197q0 -89 36 -140t102 -51q71 0 100.5 48.5t29.5 117.5h68v-4zM192 777l113 137h80l-143 -137h-50z" />
    <glyph glyph-name="cacute" unicode="&#x107;" horiz-adv-x="389" 
d="M350 147q0 -161 -144 -161q-164 0 -164 204v86q0 36 2 61.5t7.5 55t17 49t29 36.5t45.5 25.5t65 8.5q76 0 109 -38.5t33 -115.5h-60q0 107 -84 107q-27 0 -45.5 -10t-29.5 -26t-16.5 -46t-7 -60t-1.5 -79q0 -43 1.5 -70t7 -56.5t16 -45t29 -26t45.5 -10.5q85 0 85 111h60
zM132 560l113 137h80l-143 -137h-50z" />
    <glyph glyph-name="Ccircumflex" unicode="&#x108;" horiz-adv-x="500" 
d="M459 203q0 -101 -50 -159t-151 -58q-33 0 -60.5 7t-47 16.5t-35 28t-25.5 34t-16.5 43t-10 45.5t-5.5 51t-2 50.5v52.5q0 125 6 209q15 213 205 213q186 0 186 -195v-14h-66q0 4 0.5 9t0.5 7q0 139 -121 139q-34 0 -59.5 -10.5t-41 -32.5t-25 -43.5t-13 -55.5t-4.5 -55
t-1 -56v-197q0 -89 36 -140t102 -51q71 0 100.5 48.5t29.5 117.5h68v-4zM256 877l-82 -102h-64l113 139h67l113 -139h-64z" />
    <glyph glyph-name="ccircumflex" unicode="&#x109;" horiz-adv-x="389" 
d="M350 147q0 -161 -144 -161q-164 0 -164 204v86q0 36 2 61.5t7.5 55t17 49t29 36.5t45.5 25.5t65 8.5q76 0 109 -38.5t33 -115.5h-60q0 107 -84 107q-27 0 -45.5 -10t-29.5 -26t-16.5 -46t-7 -60t-1.5 -79q0 -43 1.5 -70t7 -56.5t16 -45t29 -26t45.5 -10.5q85 0 85 111h60
zM195 660l-82 -102h-64l113 139h67l113 -139h-64z" />
    <glyph glyph-name="Cdotaccent" unicode="&#x10a;" horiz-adv-x="500" 
d="M459 203q0 -101 -50 -159t-151 -58q-33 0 -60.5 7t-47 16.5t-35 28t-25.5 34t-16.5 43t-10 45.5t-5.5 51t-2 50.5v52.5q0 125 6 209q15 213 205 213q186 0 186 -195v-14h-66q0 4 0.5 9t0.5 7q0 139 -121 139q-34 0 -59.5 -10.5t-41 -32.5t-25 -43.5t-13 -55.5t-4.5 -55
t-1 -56v-197q0 -89 36 -140t102 -51q71 0 100.5 48.5t29.5 117.5h68v-4zM231 788v101h64v-101h-64z" />
    <glyph glyph-name="cdotaccent" unicode="&#x10b;" horiz-adv-x="389" 
d="M350 147q0 -161 -144 -161q-164 0 -164 204v86q0 36 2 61.5t7.5 55t17 49t29 36.5t45.5 25.5t65 8.5q76 0 109 -38.5t33 -115.5h-60q0 107 -84 107q-27 0 -45.5 -10t-29.5 -26t-16.5 -46t-7 -60t-1.5 -79q0 -43 1.5 -70t7 -56.5t16 -45t29 -26t45.5 -10.5q85 0 85 111h60
zM163 571v101h64v-101h-64z" />
    <glyph glyph-name="Ccaron" unicode="&#x10c;" horiz-adv-x="500" 
d="M459 203q0 -101 -50 -159t-151 -58q-33 0 -60.5 7t-47 16.5t-35 28t-25.5 34t-16.5 43t-10 45.5t-5.5 51t-2 50.5v52.5q0 125 6 209q15 213 205 213q186 0 186 -195v-14h-66q0 4 0.5 9t0.5 7q0 139 -121 139q-34 0 -59.5 -10.5t-41 -32.5t-25 -43.5t-13 -55.5t-4.5 -55
t-1 -56v-197q0 -89 36 -140t102 -51q71 0 100.5 48.5t29.5 117.5h68v-4zM257 812l82 102h64l-113 -139h-67l-113 139h64z" />
    <glyph glyph-name="ccaron" unicode="&#x10d;" horiz-adv-x="389" 
d="M350 147q0 -161 -144 -161q-164 0 -164 204v86q0 36 2 61.5t7.5 55t17 49t29 36.5t45.5 25.5t65 8.5q76 0 109 -38.5t33 -115.5h-60q0 107 -84 107q-27 0 -45.5 -10t-29.5 -26t-16.5 -46t-7 -60t-1.5 -79q0 -43 1.5 -70t7 -56.5t16 -45t29 -26t45.5 -10.5q85 0 85 111h60
zM196 595l82 102h64l-113 -139h-67l-113 139h64z" />
    <glyph glyph-name="Dcaron" unicode="&#x10e;" horiz-adv-x="556" 
d="M493 365q0 -40 -0.5 -62t-2.5 -58t-6.5 -57t-13 -50.5t-20.5 -46.5t-30.5 -36.5t-43 -30t-57 -17.5t-72.5 -7h-172v722h201q119 0 168 -73.5t49 -213.5v-70zM426 397q0 113 -17.5 170t-58.5 79t-122 22h-89v-614h81q38 0 66.5 3.5t50.5 15t36.5 22.5t24.5 36t15.5 45.5
t8.5 60.5t3.5 71.5t0.5 88.5zM250 812l82 102h64l-113 -139h-67l-113 139h64z" />
    <glyph glyph-name="dcaron" unicode="&#x10f;" 
d="M387 0h-58l-2 67q-47 -76 -130 -76q-41 0 -71 16.5t-46 41t-25 63t-11.5 71t-2.5 77.5q0 40 2 69.5t11.5 66.5t25.5 60t46 39.5t71 16.5q75 0 124 -66v276h62v-567l2 -113zM325 269q0 40 -4.5 71t-16 60.5t-36 45.5t-60.5 16q-22 0 -39 -7.5t-28 -17t-19 -28.5t-11.5 -32
t-5.5 -38t-2 -36.5v-36.5v-13q0 -48 3 -79t12.5 -65.5t32.5 -52t58 -17.5q24 0 43 8t31 18.5t20.5 31.5t12.5 36.5t6.5 44.5t2.5 44.5v46.5zM405 585l30 137h73l-60 -137h-43z" />
    <glyph glyph-name="Dcroat" unicode="&#x110;" horiz-adv-x="556" 
d="M75 0v344h-61v54h61v324h191q60 0 101.5 -15.5t66 -41.5t38 -74t17.5 -100t4 -133q0 -98 -9 -158.5t-35.5 -109t-77 -69.5t-131.5 -21h-165zM139 668v-270h152v-54h-152v-290h78q43 0 72.5 4t53.5 12.5t38.5 27.5t24.5 41.5t14.5 63.5t6.5 85t2 113q0 67 -4.5 108
t-16.5 74.5t-35.5 50.5t-59 25.5t-90.5 8.5h-84z" />
    <glyph glyph-name="dcroat" unicode="&#x111;" 
d="M197 644h124v78h60v-78h54v-48h-54v-496q0 -66 6 -100h-58l-3 64l-2 -1q-47 -73 -128 -73q-42 0 -72 17t-45.5 40.5t-24.5 63t-10.5 69t-1.5 73.5v34.5t1.5 37t4 40t8 37.5t13 36t19.5 30t27 25.5t36 15.5t46 6q74 0 122 -60l2 -1v142h-124v48zM212 38q47 0 79 41.5
t32 127.5v90q0 22 -2.5 41t-11.5 53.5t-34.5 55t-64.5 20.5q-26 0 -45.5 -7t-31 -24t-18 -32t-9.5 -45.5t-3.5 -49.5t-0.5 -58q0 -68 7.5 -112t23.5 -65.5t34 -28.5t45 -7z" />
    <glyph glyph-name="Emacron" unicode="&#x112;" 
d="M409 0h-334v722h327v-54h-263v-270h251v-54h-251v-290h270v-54zM111 865h260v-48h-260v48z" />
    <glyph glyph-name="emacron" unicode="&#x113;" 
d="M397 153q0 -77 -42 -121t-128 -44q-48 0 -82 14.5t-53 36.5t-29.5 60t-13.5 73.5t-3 87.5q0 45 4 80t16 69t31.5 56.5t52 36t77.5 13.5q99 0 134.5 -57t35.5 -160v-56h-286v-33q0 -36 4 -62.5t15 -53.5t35.5 -41.5t61.5 -14.5q54 0 81 31.5t27 84.5h62zM336 288
q0 26 -1 42t-4 40t-10.5 39t-19 30t-31.5 22t-46 7q-113 0 -113 -153v-27h225zM92 648h260v-48h-260v48z" />
    <glyph glyph-name="Ebreve" unicode="&#x114;" 
d="M409 0h-334v722h327v-54h-263v-270h251v-54h-251v-290h270v-54zM99 914h39q16 -81 105 -81q85 0 107 81h37q-7 -62 -47 -95.5t-102 -33.5q-60 0 -97 34.5t-42 94.5z" />
    <glyph glyph-name="ebreve" unicode="&#x115;" 
d="M397 153q0 -77 -42 -121t-128 -44q-48 0 -82 14.5t-53 36.5t-29.5 60t-13.5 73.5t-3 87.5q0 45 4 80t16 69t31.5 56.5t52 36t77.5 13.5q99 0 134.5 -57t35.5 -160v-56h-286v-33q0 -36 4 -62.5t15 -53.5t35.5 -41.5t61.5 -14.5q54 0 81 31.5t27 84.5h62zM336 288
q0 26 -1 42t-4 40t-10.5 39t-19 30t-31.5 22t-46 7q-113 0 -113 -153v-27h225zM78 697h39q16 -81 105 -81q84 0 107 81h37q-7 -62 -47 -95.5t-102 -33.5q-60 0 -97 34.5t-42 94.5z" />
    <glyph glyph-name="Edotaccent" unicode="&#x116;" 
d="M409 0h-334v722h327v-54h-263v-270h251v-54h-251v-290h270v-54zM210 788v101h64v-101h-64z" />
    <glyph glyph-name="edotaccent" unicode="&#x117;" 
d="M397 153q0 -77 -42 -121t-128 -44q-48 0 -82 14.5t-53 36.5t-29.5 60t-13.5 73.5t-3 87.5q0 45 4 80t16 69t31.5 56.5t52 36t77.5 13.5q99 0 134.5 -57t35.5 -160v-56h-286v-33q0 -36 4 -62.5t15 -53.5t35.5 -41.5t61.5 -14.5q54 0 81 31.5t27 84.5h62zM336 288
q0 26 -1 42t-4 40t-10.5 39t-19 30t-31.5 22t-46 7q-113 0 -113 -153v-27h225zM190 571v101h64v-101h-64z" />
    <glyph glyph-name="Eogonek" unicode="&#x118;" 
d="M305 0h-230v722h327v-54h-263v-270h251v-54h-251v-290h270v-54h-54q-48 -24 -68.5 -54t-20.5 -56q0 -24 17.5 -35t42.5 -11q13 0 64 17v-33q-31 -19 -74 -19q-55 0 -84.5 16t-29.5 66q0 35 27 63.5t76 45.5z" />
    <glyph glyph-name="eogonek" unicode="&#x119;" 
d="M396 240h-288v-39q0 -30 5 -55.5t16.5 -51.5t35 -41t57.5 -15q55 0 83.5 31.5t27.5 84.5h63q-10 -134 -117 -158q-80 -44 -80 -106q0 -24 17.5 -35t42.5 -11q13 0 64 17v-33q-31 -19 -74 -19q-55 0 -84.5 16t-29.5 66q0 62 78 99q-165 6 -165 188v124q0 213 174 213
q32 0 57.5 -5t43.5 -17.5t30.5 -24.5t20.5 -35.5t12.5 -39.5t6.5 -47.5t2.5 -50t0.5 -55.5zM108 288h228q0 92 -23 135.5t-91 43.5t-91 -43.5t-23 -135.5z" />
    <glyph glyph-name="Ecaron" unicode="&#x11a;" 
d="M409 0h-334v722h327v-54h-263v-270h251v-54h-251v-290h270v-54zM238 812l82 102h64l-113 -139h-67l-113 139h64z" />
    <glyph glyph-name="ecaron" unicode="&#x11b;" 
d="M397 153q0 -77 -42 -121t-128 -44q-48 0 -82 14.5t-53 36.5t-29.5 60t-13.5 73.5t-3 87.5q0 45 4 80t16 69t31.5 56.5t52 36t77.5 13.5q99 0 134.5 -57t35.5 -160v-56h-286v-33q0 -36 4 -62.5t15 -53.5t35.5 -41.5t61.5 -14.5q54 0 81 31.5t27 84.5h62zM336 288
q0 26 -1 42t-4 40t-10.5 39t-19 30t-31.5 22t-46 7q-113 0 -113 -153v-27h225zM223 595l82 102h64l-113 -139h-67l-113 139h64z" />
    <glyph glyph-name="Gcircumflex" unicode="&#x11c;" horiz-adv-x="556" 
d="M485 537h-65v11q0 64 -34.5 99.5t-95.5 35.5q-89 0 -126.5 -57t-37.5 -193v-100q0 -62 3.5 -104t13.5 -80.5t28.5 -60.5t49 -35t74.5 -13q68 0 120 23v262h-147v52h210v-359q-94 -32 -184 -32q-65 0 -109.5 18t-69 45t-37.5 75.5t-16 90t-3 109.5v75q0 44 1 73.5t6 68.5
t14 64t26 52.5t41 43t60 26t82 10.5q105 0 150.5 -50.5t45.5 -149.5zM279 877l-82 -102h-64l113 139h67l113 -139h-64z" />
    <glyph glyph-name="gcircumflex" unicode="&#x11d;" 
d="M384 505l-3 -98v-431q0 -89 -39 -132.5t-131 -43.5q-69 0 -112 33.5t-43 96.5v14h61v-7q0 -42 26 -66.5t69 -24.5q67 0 86.5 32t20.5 104q1 40 1 43v1q0 30 -2 41q-16 -29 -47.5 -45.5t-71.5 -16.5q-157 0 -157 197v100q0 212 156 212q90 0 126 -73l2 64h58zM323 283
q0 182 -113 182q-22 0 -39.5 -8t-29 -18t-19 -30t-11.5 -34t-6 -39.5t-2 -37.5v-37v-13v-31t1 -31.5t4 -34l7.5 -30t12.5 -28.5t18.5 -21t26.5 -15.5t35 -4.5q25 0 44 9.5t31 21t20 35.5t12 38t6 46t2 41v40zM213 660l-82 -102h-64l113 139h67l113 -139h-64z" />
    <glyph glyph-name="Gbreve" unicode="&#x11e;" horiz-adv-x="556" 
d="M485 537h-65v11q0 64 -34.5 99.5t-95.5 35.5q-89 0 -126.5 -57t-37.5 -193v-100q0 -62 3.5 -104t13.5 -80.5t28.5 -60.5t49 -35t74.5 -13q68 0 120 23v262h-147v52h210v-359q-94 -32 -184 -32q-65 0 -109.5 18t-69 45t-37.5 75.5t-16 90t-3 109.5v75q0 44 1 73.5t6 68.5
t14 64t26 52.5t41 43t60 26t82 10.5q105 0 150.5 -50.5t45.5 -149.5zM135 914h39q16 -81 105 -81q85 0 107 81h37q-7 -62 -47 -95.5t-102 -33.5q-60 0 -97 34.5t-42 94.5z" />
    <glyph glyph-name="gbreve" unicode="&#x11f;" 
d="M384 505l-3 -98v-431q0 -89 -39 -132.5t-131 -43.5q-69 0 -112 33.5t-43 96.5v14h61v-7q0 -42 26 -66.5t69 -24.5q67 0 86.5 32t20.5 104q1 40 1 43v1q0 30 -2 41q-16 -29 -47.5 -45.5t-71.5 -16.5q-157 0 -157 197v100q0 212 156 212q90 0 126 -73l2 64h58zM323 283
q0 182 -113 182q-22 0 -39.5 -8t-29 -18t-19 -30t-11.5 -34t-6 -39.5t-2 -37.5v-37v-13v-31t1 -31.5t4 -34l7.5 -30t12.5 -28.5t18.5 -21t26.5 -15.5t35 -4.5q25 0 44 9.5t31 21t20 35.5t12 38t6 46t2 41v40zM69 697h39q16 -81 105 -81q85 0 107 81h37q-7 -62 -47 -95.5
t-102 -33.5q-60 0 -97 34.5t-42 94.5z" />
    <glyph glyph-name="Gdotaccent" unicode="&#x120;" horiz-adv-x="556" 
d="M485 537h-65v11q0 64 -34.5 99.5t-95.5 35.5q-89 0 -126.5 -57t-37.5 -193v-100q0 -62 3.5 -104t13.5 -80.5t28.5 -60.5t49 -35t74.5 -13q68 0 120 23v262h-147v52h210v-359q-94 -32 -184 -32q-65 0 -109.5 18t-69 45t-37.5 75.5t-16 90t-3 109.5v75q0 44 1 73.5t6 68.5
t14 64t26 52.5t41 43t60 26t82 10.5q105 0 150.5 -50.5t45.5 -149.5zM247 788v101h64v-101h-64z" />
    <glyph glyph-name="gdotaccent" unicode="&#x121;" 
d="M384 505l-3 -98v-431q0 -89 -39 -132.5t-131 -43.5q-69 0 -112 33.5t-43 96.5v14h61v-7q0 -42 26 -66.5t69 -24.5q67 0 86.5 32t20.5 104q1 40 1 43v1q0 30 -2 41q-16 -29 -47.5 -45.5t-71.5 -16.5q-157 0 -157 197v100q0 212 156 212q90 0 126 -73l2 64h58zM323 283
q0 182 -113 182q-22 0 -39.5 -8t-29 -18t-19 -30t-11.5 -34t-6 -39.5t-2 -37.5v-37v-13v-31t1 -31.5t4 -34l7.5 -30t12.5 -28.5t18.5 -21t26.5 -15.5t35 -4.5q25 0 44 9.5t31 21t20 35.5t12 38t6 46t2 41v40zM181 571v101h64v-101h-64z" />
    <glyph glyph-name="Gcommaaccent" unicode="&#x122;" horiz-adv-x="556" 
d="M485 537h-65v11q0 64 -34.5 99.5t-95.5 35.5q-89 0 -126.5 -57t-37.5 -193v-100q0 -62 3.5 -104t13.5 -80.5t28.5 -60.5t49 -35t74.5 -13q68 0 120 23v262h-147v52h210v-359q-94 -32 -184 -32q-65 0 -109.5 18t-69 45t-37.5 75.5t-16 90t-3 109.5v75q0 44 1 73.5t6 68.5
t14 64t26 52.5t41 43t60 26t82 10.5q105 0 150.5 -50.5t45.5 -149.5zM227 -165l30 137h73l-60 -137h-43z" />
    <glyph glyph-name="gcommaaccent" unicode="&#x123;" 
d="M384 505l-3 -98v-431q0 -89 -39 -132.5t-131 -43.5q-69 0 -112 33.5t-43 96.5v14h61v-7q0 -42 26 -66.5t69 -24.5q67 0 86.5 32t20.5 104q1 40 1 43v1q0 30 -2 41q-16 -29 -47.5 -45.5t-71.5 -16.5q-157 0 -157 197v100q0 212 156 212q90 0 126 -73l2 64h58zM323 283
q0 182 -113 182q-22 0 -39.5 -8t-29 -18t-19 -30t-11.5 -34t-6 -39.5t-2 -37.5v-37v-13v-31t1 -31.5t4 -34l7.5 -30t12.5 -28.5t18.5 -21t26.5 -15.5t35 -4.5q25 0 44 9.5t31 21t20 35.5t12 38t6 46t2 41v40zM275 697l-30 -137h-73l60 137h43z" />
    <glyph glyph-name="Hcircumflex" unicode="&#x124;" horiz-adv-x="556" 
d="M484 0h-64v344h-284v-344h-64v722h64v-324h284v324h64v-722zM278 877l-82 -102h-64l113 139h67l113 -139h-64z" />
    <glyph glyph-name="hcircumflex" unicode="&#x125;" 
d="M381 0h-59v313q0 27 -0.5 41.5t-5 38t-13.5 36t-26.5 22.5t-43.5 10q-53 0 -83 -43t-30 -121v-297h-60v722h60v-279q47 70 123 70q138 0 138 -172v-341zM121 877l-82 -102h-64l113 139h67l113 -139h-64z" />
    <glyph glyph-name="Hbar" unicode="&#x126;" horiz-adv-x="556" 
d="M136 0h-64v722h64v-174h284v174h64v-722h-64v344h-284v-344zM136 398h284v102h-284v-102z" />
    <glyph glyph-name="hbar" unicode="&#x127;" 
d="M121 0h-60v596h-54v48h54v78h60v-78h124v-48h-124v-153h2q49 72 122 72q44 0 73.5 -14.5t42.5 -40.5t17.5 -50t4.5 -54v-356h-60v353q0 50 -22 82t-71 32q-46 0 -77.5 -36t-31.5 -114v-317z" />
    <glyph glyph-name="Itilde" unicode="&#x128;" horiz-adv-x="222" 
d="M143 0h-64v722h64v-722zM-7 812h-38q5 41 26 69q26 33 62 33q8 0 18.5 -3t17.5 -6t20 -9.5t18 -8.5l18 -9t18.5 -9t15.5 -6t16 -3q19 0 30 16t14 38h38q-2 -40 -23 -68q-22 -34 -59 -34q-9 0 -19.5 3t-18 6t-20.5 9.5t-18 8.5l-18 9t-18.5 9t-16 6t-17.5 3
q-19 0 -31 -16.5t-15 -37.5z" />
    <glyph glyph-name="itilde" unicode="&#x129;" horiz-adv-x="222" 
d="M141 0h-60v505h60v-505zM-7 595h-38q5 41 26 69q26 33 62 33q8 0 18.5 -3t17.5 -6t20 -9.5t18 -8.5l18 -9t18.5 -9t15.5 -6t16 -3q19 0 30 16t14 38h38q-2 -40 -23 -68q-22 -34 -59 -34q-9 0 -19.5 3t-18 6t-20.5 9.5t-18 8.5l-18 9t-18.5 9t-16 6t-17.5 3
q-19 0 -31 -16.5t-15 -37.5z" />
    <glyph glyph-name="Imacron" unicode="&#x12a;" horiz-adv-x="222" 
d="M143 0h-64v722h64v-722zM-19 865h260v-48h-260v48z" />
    <glyph glyph-name="imacron" unicode="&#x12b;" horiz-adv-x="222" 
d="M141 0h-60v505h60v-505zM-19 648h260v-48h-260v48z" />
    <glyph glyph-name="Ibreve" unicode="&#x12c;" horiz-adv-x="222" 
d="M143 0h-64v722h64v-722zM-33 914h39q16 -81 105 -81q85 0 107 81h37q-7 -62 -47 -95.5t-102 -33.5q-60 0 -97 34.5t-42 94.5z" />
    <glyph glyph-name="ibreve" unicode="&#x12d;" horiz-adv-x="222" 
d="M141 0h-60v505h60v-505zM-33 697h39q16 -81 105 -81q85 0 107 81h37q-7 -62 -47 -95.5t-102 -33.5q-60 0 -97 34.5t-42 94.5z" />
    <glyph glyph-name="Iogonek" unicode="&#x12e;" horiz-adv-x="222" 
d="M79 0v722h64v-722h-14q-48 -24 -68.5 -54t-20.5 -56q0 -24 17.5 -35t42.5 -11q13 0 64 17v-33q-31 -19 -74 -19q-55 0 -84.5 16t-29.5 66q0 35 27 63.5t76 45.5z" />
    <glyph glyph-name="iogonek" unicode="&#x12f;" horiz-adv-x="222" 
d="M81 0v505h60v-505h-10q-48 -24 -68.5 -54t-20.5 -56q0 -24 17.5 -35t42.5 -11q13 0 64 17v-33q-31 -19 -74 -19q-55 0 -84.5 16t-29.5 66q0 35 27 63.5t76 45.5zM148 646h-74v76h74v-76z" />
    <glyph glyph-name="Idotaccent" unicode="&#x130;" horiz-adv-x="222" 
d="M143 0h-64v722h64v-722zM79 788v101h64v-101h-64z" />
    <glyph glyph-name="dotlessi" unicode="&#x131;" horiz-adv-x="222" 
d="M141 0h-60v505h60v-505z" />
    <glyph glyph-name="Jcircumflex" unicode="&#x134;" 
d="M370 199q0 -111 -40 -161.5t-135 -50.5q-173 0 -173 199v18h63v-20q0 -143 112 -143q31 0 52.5 11.5t32.5 26.5t16.5 41.5t6.5 44t1 47.5v510h64v-523zM333 877l-82 -102h-64l113 139h67l113 -139h-64z" />
    <glyph glyph-name="jcircumflex" unicode="&#x135;" horiz-adv-x="222" 
d="M85 505h60v-598q0 -24 -5.5 -44t-29 -39t-63.5 -19q-35 0 -44 4v50q53 -4 67.5 12t14.5 69v565zM116 660l-82 -102h-64l113 139h67l113 -139h-64z" />
    <glyph glyph-name="Kcommaaccent" unicode="&#x136;" horiz-adv-x="500" 
d="M485 0h-80l-264 370v-370h-64v722h64v-331l259 331h77l-270 -337zM183 -165l30 137h73l-60 -137h-43z" />
    <glyph glyph-name="kcommaaccent" unicode="&#x137;" horiz-adv-x="389" 
d="M381 0h-74l-184 275v-275h-59v722h59v-440l176 223h70l-179 -225zM134 -165l30 137h73l-60 -137h-43z" />
    <glyph glyph-name="kgreenlandic" unicode="&#x138;" horiz-adv-x="389" 
d="M381 0h-74l-184 263v-263h-59v505h59v-235l176 235h70l-179 -237z" />
    <glyph glyph-name="Lacute" unicode="&#x139;" horiz-adv-x="389" 
d="M370 0h-303v722h64v-668h239v-54zM50 777l113 137h80l-143 -137h-50z" />
    <glyph glyph-name="lacute" unicode="&#x13a;" horiz-adv-x="222" 
d="M140 0h-59v722h59v-722zM44 777l113 137h80l-143 -137h-50z" />
    <glyph glyph-name="Lcommaaccent" unicode="&#x13b;" horiz-adv-x="389" 
d="M370 0h-303v722h64v-668h239v-54zM151 -165l30 137h73l-60 -137h-43z" />
    <glyph glyph-name="lcommaaccent" unicode="&#x13c;" horiz-adv-x="222" 
d="M140 0h-59v722h59v-722zM50 -165l30 137h73l-60 -137h-43z" />
    <glyph glyph-name="Lcaron" unicode="&#x13d;" horiz-adv-x="389" 
d="M370 0h-303v722h64v-668h239v-54zM172 585l30 137h73l-60 -137h-43z" />
    <glyph glyph-name="lcaron" unicode="&#x13e;" horiz-adv-x="222" 
d="M140 0h-59v722h59v-722zM180 585l30 137h73l-60 -137h-43z" />
    <glyph glyph-name="Ldot" unicode="&#x13f;" horiz-adv-x="389" 
d="M370 0h-303v722h64v-668h239v-54zM237 341v101h64v-101h-64z" />
    <glyph glyph-name="ldot" unicode="&#x140;" horiz-adv-x="311" 
d="M140 0h-59v722h59v-722zM237 341v101h64v-101h-64z" />
    <glyph glyph-name="Lslash" unicode="&#x141;" horiz-adv-x="389" 
d="M67 0v374l-77 -44l-20 35l97 56v301h64v-264l99 57l20 -35l-119 -69v-357h239v-54h-303z" />
    <glyph glyph-name="lslash" unicode="&#x142;" horiz-adv-x="222" 
d="M81 0v394l-80 -46l-18 29l98 57v288h60v-253l80 46l18 -29l-98 -57v-429h-60z" />
    <glyph glyph-name="Nacute" unicode="&#x143;" horiz-adv-x="611" 
d="M535 0h-100l-296 650v-650h-63v722h98l298 -650v650h63v-722zM247 777l113 137h80l-143 -137h-50z" />
    <glyph glyph-name="nacute" unicode="&#x144;" 
d="M385 0h-60v347q0 49 -21 81t-68 32q-55 0 -84.5 -45t-29.5 -128v-287h-59v505h55v-70q40 76 128 76q139 0 139 -161v-350zM150 560l113 137h80l-143 -137h-50z" />
    <glyph glyph-name="Ncommaaccent" unicode="&#x145;" horiz-adv-x="611" 
d="M535 0h-100l-296 650v-650h-63v722h98l298 -650v650h63v-722zM247 -165l30 137h73l-60 -137h-43z" />
    <glyph glyph-name="ncommaaccent" unicode="&#x146;" 
d="M385 0h-60v347q0 49 -21 81t-68 32q-55 0 -84.5 -45t-29.5 -128v-287h-59v505h55v-70q40 76 128 76q139 0 139 -161v-350zM159 -165l30 137h73l-60 -137h-43z" />
    <glyph glyph-name="Ncaron" unicode="&#x147;" horiz-adv-x="611" 
d="M535 0h-100l-296 650v-650h-63v722h98l298 -650v650h63v-722zM312 812l82 102h64l-113 -139h-67l-113 139h64z" />
    <glyph glyph-name="ncaron" unicode="&#x148;" 
d="M385 0h-60v347q0 49 -21 81t-68 32q-55 0 -84.5 -45t-29.5 -128v-287h-59v505h55v-70q40 76 128 76q139 0 139 -161v-350zM223 595l82 102h64l-113 -139h-67l-113 139h64z" />
    <glyph glyph-name="Eng" unicode="&#x14a;" horiz-adv-x="611" 
d="M417 -200q-20 0 -35 3v56q7 -1 23 -1q41 0 54 18t13 60v64h-37l-296 650v-650h-63v722h98l298 -650v650h63v-782q0 -75 -23.5 -107.5t-94.5 -32.5z" />
    <glyph glyph-name="eng" unicode="&#x14b;" 
d="M274 -196q-17 0 -32 3v52q7 -1 21 -1q38 0 50 16.5t12 55.5v417q0 49 -21 81t-68 32q-55 0 -84.5 -45t-29.5 -128v-287h-59v505h55v-70q40 76 128 76q139 0 139 -161v-416q0 -70 -22 -100t-89 -30z" />
    <glyph glyph-name="Omacron" unicode="&#x14c;" horiz-adv-x="556" 
d="M496 329q0 -53 -2 -89.5t-9 -80t-22.5 -71.5t-39 -53t-61.5 -37t-89 -12q-104 0 -158.5 64t-54.5 188v245q0 116 53.5 186.5t163.5 70.5q113 0 166 -71t53 -193v-147zM431 358v90q0 52 -5.5 89.5t-21 73.5t-47.5 55t-80 19q-40 0 -68.5 -14t-44.5 -35.5t-25 -54
t-11.5 -61.5t-2.5 -66v-182q0 -122 34.5 -177t117.5 -55q32 0 57 10t41 23.5t27.5 40.5t17 47t8 58t3 58.5t0.5 62.5v18zM147 865h260v-48h-260v48z" />
    <glyph glyph-name="omacron" unicode="&#x14d;" 
d="M397 203q0 -107 -39.5 -161.5t-139.5 -54.5q-96 0 -133.5 53.5t-37.5 155.5v100q0 106 39.5 162.5t140.5 56.5q53 0 87.5 -15t52 -45t24 -65.5t6.5 -86.5v-100zM336 226v70q0 37 -3.5 63.5t-14.5 53t-34 40.5t-58 14q-38 0 -63 -15t-36.5 -44t-15 -57t-3.5 -69v-63
q0 -33 1 -53.5t7.5 -48t18.5 -43.5t35 -28t56 -12q27 0 46.5 8t31 24.5t18.5 32t10 42t3.5 42t0.5 43.5zM92 648h260v-48h-260v48z" />
    <glyph glyph-name="Obreve" unicode="&#x14e;" horiz-adv-x="556" 
d="M496 329q0 -53 -2 -89.5t-9 -80t-22.5 -71.5t-39 -53t-61.5 -37t-89 -12q-104 0 -158.5 64t-54.5 188v245q0 116 53.5 186.5t163.5 70.5q113 0 166 -71t53 -193v-147zM431 358v90q0 52 -5.5 89.5t-21 73.5t-47.5 55t-80 19q-40 0 -68.5 -14t-44.5 -35.5t-25 -54
t-11.5 -61.5t-2.5 -66v-182q0 -122 34.5 -177t117.5 -55q32 0 57 10t41 23.5t27.5 40.5t17 47t8 58t3 58.5t0.5 62.5v18zM133 914h39q16 -81 105 -81q84 0 107 81h37q-7 -62 -47 -95.5t-102 -33.5q-60 0 -97 34.5t-42 94.5z" />
    <glyph glyph-name="obreve" unicode="&#x14f;" 
d="M397 203q0 -107 -39.5 -161.5t-139.5 -54.5q-96 0 -133.5 53.5t-37.5 155.5v100q0 106 39.5 162.5t140.5 56.5q53 0 87.5 -15t52 -45t24 -65.5t6.5 -86.5v-100zM336 226v70q0 37 -3.5 63.5t-14.5 53t-34 40.5t-58 14q-38 0 -63 -15t-36.5 -44t-15 -57t-3.5 -69v-63
q0 -33 1 -53.5t7.5 -48t18.5 -43.5t35 -28t56 -12q27 0 46.5 8t31 24.5t18.5 32t10 42t3.5 42t0.5 43.5zM78 697h39q16 -81 105 -81q84 0 107 81h37q-7 -62 -47 -95.5t-102 -33.5q-60 0 -97 34.5t-42 94.5z" />
    <glyph glyph-name="Ohungarumlaut" unicode="&#x150;" horiz-adv-x="556" 
d="M496 329q0 -53 -2 -89.5t-9 -80t-22.5 -71.5t-39 -53t-61.5 -37t-89 -12q-104 0 -158.5 64t-54.5 188v245q0 116 53.5 186.5t163.5 70.5q113 0 166 -71t53 -193v-147zM431 358v90q0 52 -5.5 89.5t-21 73.5t-47.5 55t-80 19q-40 0 -68.5 -14t-44.5 -35.5t-25 -54
t-11.5 -61.5t-2.5 -66v-182q0 -122 34.5 -177t117.5 -55q32 0 57 10t41 23.5t27.5 40.5t17 47t8 58t3 58.5t0.5 62.5v18zM171 777l113 137h80l-143 -137h-50zM301 777l113 137h80l-143 -137h-50z" />
    <glyph glyph-name="ohungarumlaut" unicode="&#x151;" 
d="M397 203q0 -107 -39.5 -161.5t-139.5 -54.5q-96 0 -133.5 53.5t-37.5 155.5v100q0 106 39.5 162.5t140.5 56.5q53 0 87.5 -15t52 -45t24 -65.5t6.5 -86.5v-100zM336 226v70q0 37 -3.5 63.5t-14.5 53t-34 40.5t-58 14q-38 0 -63 -15t-36.5 -44t-15 -57t-3.5 -69v-63
q0 -33 1 -53.5t7.5 -48t18.5 -43.5t35 -28t56 -12q27 0 46.5 8t31 24.5t18.5 32t10 42t3.5 42t0.5 43.5zM124 560l113 137h80l-143 -137h-50zM254 560l113 137h80l-143 -137h-50z" />
    <glyph glyph-name="OE" unicode="&#x152;" horiz-adv-x="778" 
d="M471 668v-270h249v-54h-249v-290h267v-54h-331q-13 0 -43 -2t-52 -2q-159 0 -210 84q-36 58 -39 203v78q0 133 7 176q22 149 144 180q36 9 80 9q19 0 65 -2t48 -2h324v-54h-260zM407 53v611q-61 8 -107 8q-41 0 -70 -7.5t-48 -27.5t-30 -41.5t-16.5 -62.5t-7 -77
t-1.5 -98q0 -52 1 -82t5 -67.5t12 -58t22.5 -42.5t36.5 -33t53 -18t73 -7q12 0 24.5 0.5t28 1.5t24.5 1z" />
    <glyph glyph-name="oe" unicode="&#x153;" horiz-adv-x="722" 
d="M222 -10q-93 0 -133.5 52.5t-40.5 155.5v120q0 19 0.5 31.5t4 35t9.5 38t19 34.5t31 30.5t46 19.5t64 8q55 0 89 -21t54 -67q36 88 135 88q32 0 57.5 -5t43.5 -17.5t30.5 -24.5t20.5 -35.5t12.5 -39.5t6.5 -47.5t2.5 -50t0.5 -55.5h-288v-39q0 -30 5 -55.5t16.5 -51.5
t35 -41t57.5 -15q55 0 83.5 31.5t27.5 84.5h63q-6 -88 -50 -126t-124 -38q-45 0 -79.5 15.5t-58.5 62.5q-26 -45 -55.5 -61.5t-84.5 -16.5zM222 38q28 0 48.5 7.5t32 22.5t14 20t7.5 17q12 29 12 148q0 120 -22 167t-92 47t-92 -47t-22 -167q0 -119 12 -148q16 -41 47 -56
q23 -11 55 -11zM386 288h228q0 92 -23 135.5t-91 43.5t-91 -43.5t-23 -135.5z" />
    <glyph glyph-name="Racute" unicode="&#x154;" horiz-adv-x="500" 
d="M444 551q0 -83 -25.5 -121.5t-89.5 -53.5q55 -7 78 -35t25 -90l4 -166l7 -85h-65q-5 41 -6 68l-2 32l-3 134q-1 68 -31 92t-108 24h-96v-350h-64v722h184q103 0 147.5 -33.5t44.5 -137.5zM378 553q0 19 -2.5 34.5t-6 27t-11.5 20l-14 14.5t-19 10t-20.5 6t-24.5 2.5
t-25.5 0.5h-29.5h-31h-62v-264h82q45 0 71.5 4.5t50 19t33 45t9.5 80.5zM168 777l113 137h80l-143 -137h-50z" />
    <glyph glyph-name="racute" unicode="&#x155;" horiz-adv-x="278" 
d="M266 454q-2 0 -7.5 0.5t-8.5 0.5q-57 0 -90 -34.5t-33 -95.5v-325h-60v422l-2 83h57v-73q45 80 133 80h11v-58zM67 560l113 137h80l-143 -137h-50z" />
    <glyph glyph-name="Rcommaaccent" unicode="&#x156;" horiz-adv-x="500" 
d="M444 551q0 -83 -25.5 -121.5t-89.5 -53.5q55 -7 78 -35t25 -90l4 -166l7 -85h-65q-5 41 -6 68l-2 32l-3 134q-1 68 -31 92t-108 24h-96v-350h-64v722h184q103 0 147.5 -33.5t44.5 -137.5zM378 553q0 19 -2.5 34.5t-6 27t-11.5 20l-14 14.5t-19 10t-20.5 6t-24.5 2.5
t-25.5 0.5h-29.5h-31h-62v-264h82q45 0 71.5 4.5t50 19t33 45t9.5 80.5zM191 -165l30 137h73l-60 -137h-43z" />
    <glyph glyph-name="rcommaaccent" unicode="&#x157;" horiz-adv-x="278" 
d="M266 454q-2 0 -7.5 0.5t-8.5 0.5q-57 0 -90 -34.5t-33 -95.5v-325h-60v422l-2 83h57v-73q45 80 133 80h11v-58zM32 -165l30 137h73l-60 -137h-43z" />
    <glyph glyph-name="Rcaron" unicode="&#x158;" horiz-adv-x="500" 
d="M444 551q0 -83 -25.5 -121.5t-89.5 -53.5q55 -7 78 -35t25 -90l4 -166l7 -85h-65q-5 41 -6 68l-2 32l-3 134q-1 68 -31 92t-108 24h-96v-350h-64v722h184q103 0 147.5 -33.5t44.5 -137.5zM378 553q0 19 -2.5 34.5t-6 27t-11.5 20l-14 14.5t-19 10t-20.5 6t-24.5 2.5
t-25.5 0.5h-29.5h-31h-62v-264h82q45 0 71.5 4.5t50 19t33 45t9.5 80.5zM236 812l82 102h64l-113 -139h-67l-113 139h64z" />
    <glyph glyph-name="rcaron" unicode="&#x159;" horiz-adv-x="278" 
d="M266 454q-2 0 -7.5 0.5t-8.5 0.5q-57 0 -90 -34.5t-33 -95.5v-325h-60v422l-2 83h57v-73q45 80 133 80h11v-58zM132 595l82 102h64l-113 -139h-67l-113 139h64z" />
    <glyph glyph-name="Sacute" unicode="&#x15a;" horiz-adv-x="500" 
d="M445 172q0 -184 -192 -184q-95 0 -147 45.5t-52 136.5v30h66v-14q0 -79 34 -111.5t101 -32.5q62 0 93 28.5t31 99.5q0 53 -21.5 82.5t-90.5 69.5l-74 43q-66 39 -97.5 81t-31.5 113q0 83 49.5 128.5t140.5 45.5q189 0 189 -174v-23h-65v10q0 68 -30 100t-95 32
q-124 0 -124 -113q0 -53 22.5 -82.5t89.5 -70.5l78 -47q78 -47 102 -83t24 -110zM178 777l113 137h80l-143 -137h-50z" />
    <glyph glyph-name="sacute" unicode="&#x15b;" horiz-adv-x="389" 
d="M345 132q0 -71 -39 -108t-114 -37q-148 0 -148 148v13h61q1 -62 22 -88.5t70 -26.5q42 0 64.5 22.5t22.5 64.5q0 34 -19.5 58.5t-63.5 46.5l-43 22q-101 51 -101 140q0 59 38 92.5t105 33.5q79 0 110 -36.5t31 -109.5h-59v6q0 92 -85 92q-37 0 -58.5 -19.5t-21.5 -56.5
q0 -31 16 -49t48 -36l80 -43q44 -23 64 -53t20 -76zM125 560l113 137h80l-143 -137h-50z" />
    <glyph glyph-name="Scircumflex" unicode="&#x15c;" horiz-adv-x="500" 
d="M445 172q0 -184 -192 -184q-95 0 -147 45.5t-52 136.5v30h66v-14q0 -79 34 -111.5t101 -32.5q62 0 93 28.5t31 99.5q0 53 -21.5 82.5t-90.5 69.5l-74 43q-66 39 -97.5 81t-31.5 113q0 83 49.5 128.5t140.5 45.5q189 0 189 -174v-23h-65v10q0 68 -30 100t-95 32
q-124 0 -124 -113q0 -53 22.5 -82.5t89.5 -70.5l78 -47q78 -47 102 -83t24 -110zM251 877l-82 -102h-64l113 139h67l113 -139h-64z" />
    <glyph glyph-name="scircumflex" unicode="&#x15d;" horiz-adv-x="389" 
d="M345 132q0 -71 -39 -108t-114 -37q-148 0 -148 148v13h61q1 -62 22 -88.5t70 -26.5q42 0 64.5 22.5t22.5 64.5q0 34 -19.5 58.5t-63.5 46.5l-43 22q-101 51 -101 140q0 59 38 92.5t105 33.5q79 0 110 -36.5t31 -109.5h-59v6q0 92 -85 92q-37 0 -58.5 -19.5t-21.5 -56.5
q0 -31 16 -49t48 -36l80 -43q44 -23 64 -53t20 -76zM193 660l-82 -102h-64l113 139h67l113 -139h-64z" />
    <glyph glyph-name="Scedilla" unicode="&#x15e;" horiz-adv-x="500" 
d="M153 -188l15 30q42 -14 64 -14q25 0 44.5 11.5t19.5 34.5q0 19 -14.5 29t-34.5 10q-24 0 -38 -10l-20 15l50 68q-195 7 -184 217h66q0 -37 3.5 -60t15.5 -50t41 -40t75 -13q125 0 125 128q0 18 -3.5 34t-7.5 27.5t-16 25l-18 20.5t-25.5 21t-27.5 19l-35 21t-36 22
q-41 25 -69 47t-43.5 39.5t-23 38t-9.5 36t-2 40.5q0 90 52 133.5t144 43.5q54 0 91 -15.5t56 -44.5t27 -62t8 -75h-65q-2 73 -27.5 108t-94.5 35q-63 0 -95 -25.5t-32 -86.5q0 -31 5.5 -52t20 -37t26.5 -25t39 -25.5t45 -29.5t51.5 -33.5t51.5 -33.5t38.5 -34.5t29.5 -51.5
t9 -70q0 -179 -168 -191l-31 -42l2 -2q12 5 30 5q31 0 54.5 -20t23.5 -53q0 -82 -114 -82q-41 0 -89 19z" />
    <glyph glyph-name="scedilla" unicode="&#x15f;" horiz-adv-x="389" 
d="M90 -188l15 30q42 -14 64 -14q25 0 44.5 11.5t19.5 34.5q0 19 -14.5 29t-34.5 10q-24 0 -38 -10l-20 15l53 73q-73 4 -104.5 42t-30.5 117h61q0 -57 19.5 -86t73.5 -29q86 0 86 89q0 36 -23.5 61.5t-57 41.5t-66.5 34t-56.5 50t-23.5 78q0 126 152 126q70 0 101 -40.5
t31 -105.5h-59q-2 51 -21 74.5t-67 23.5q-33 0 -55 -20t-22 -53q0 -34 23.5 -58t57 -40t66.5 -34t56.5 -50.5t23.5 -78.5q0 -129 -127 -142l-34 -46l2 -2q12 5 30 5q31 0 54.5 -20t23.5 -53q0 -82 -114 -82q-41 0 -89 19z" />
    <glyph glyph-name="Scaron" unicode="&#x160;" horiz-adv-x="500" 
d="M455 172q0 -184 -192 -184q-95 0 -147 45.5t-52 136.5v30h66v-14q0 -79 34 -111.5t101 -32.5q62 0 93 28.5t31 99.5q0 53 -21.5 82.5t-90.5 69.5l-74 43q-66 39 -97.5 81t-31.5 113q0 83 49.5 128.5t140.5 45.5q189 0 189 -174v-23h-65v10q0 68 -30 100t-95 32
q-124 0 -124 -113q0 -53 22.5 -82.5t89.5 -70.5l78 -47q78 -47 102 -83t24 -110zM251 812l82 102h64l-113 -139h-67l-113 139h64z" />
    <glyph glyph-name="scaron" unicode="&#x161;" horiz-adv-x="389" 
d="M345 132q0 -71 -39 -108t-114 -37q-148 0 -148 148v13h61q1 -62 22 -88.5t70 -26.5q42 0 64.5 22.5t22.5 64.5q0 34 -19.5 58.5t-63.5 46.5l-43 22q-101 51 -101 140q0 59 38 92.5t105 33.5q79 0 110 -36.5t31 -109.5h-59v6q0 92 -85 92q-37 0 -58.5 -19.5t-21.5 -56.5
q0 -31 16 -49t48 -36l80 -43q44 -23 64 -53t20 -76zM196 595l82 102h64l-113 -139h-67l-113 139h64z" />
    <glyph glyph-name="Tcommaaccent" unicode="&#x162;" 
d="M429 668h-175v-668h-64v668h-175v54h414v-54zM157 -165l30 137h73l-60 -137h-43z" />
    <glyph glyph-name="tcommaaccent" unicode="&#x163;" horiz-adv-x="278" 
d="M259 0q-18 -3 -53 -3q-108 0 -108 86v374h-82v48h82v104l59 26v-130h102v-48h-102v-339q0 -39 12 -54t50 -15q20 0 40 4v-53zM89 -165l30 137h73l-60 -137h-43z" />
    <glyph glyph-name="Tcaron" unicode="&#x164;" 
d="M429 668h-175v-668h-64v668h-175v54h414v-54zM223 812l82 102h64l-113 -139h-67l-113 139h64z" />
    <glyph glyph-name="tcaron" unicode="&#x165;" horiz-adv-x="278" 
d="M259 0q-18 -3 -53 -3q-108 0 -108 86v374h-82v48h82v104l59 26v-130h102v-48h-102v-339q0 -39 12 -54t50 -15q20 0 40 4v-53zM199 585l30 137h73l-60 -137h-43z" />
    <glyph glyph-name="Tbar" unicode="&#x166;" 
d="M92 398h98v270h-176v54h416v-54h-176v-270h98v-48h-98v-350h-64v350h-98v48z" />
    <glyph glyph-name="tbar" unicode="&#x167;" horiz-adv-x="278" 
d="M16 379h81v78h-81v48h81v104l60 26v-130h102v-48h-102v-78h102v-48h-102v-198q0 -51 10 -67t45 -16q34 0 47 3v-52q-27 -3 -57 -3q-58 0 -81.5 24t-23.5 74v235h-81v48z" />
    <glyph glyph-name="Utilde" unicode="&#x168;" horiz-adv-x="556" 
d="M487 260q0 -49 -4.5 -86.5t-18 -74t-36.5 -60.5t-61 -38.5t-90 -14.5q-105 0 -157.5 58t-52.5 167v511h64v-510q0 -81 39 -126.5t109 -45.5q144 0 144 201v481h64v-462zM160 812h-38q5 41 26 69q26 33 62 33q8 0 18.5 -3t17.5 -6t20 -9.5t18 -8.5l18 -9t18.5 -9t15.5 -6
t16 -3q19 0 30 16t14 38h38q-2 -40 -23 -68q-22 -34 -59 -34q-9 0 -19.5 3t-18 6t-20.5 9.5t-18 8.5l-18 9t-18.5 9t-16 6t-17.5 3q-19 0 -31 -16.5t-15 -37.5z" />
    <glyph glyph-name="utilde" unicode="&#x169;" 
d="M381 0h-59v56q-50 -66 -126 -66q-132 0 -132 160v355h60v-361q0 -49 23 -76t64 -27q49 0 78 35.5t29 94.5v334h61v-434q0 -12 1 -36.5t1 -34.5zM104 595h-38q5 41 26 69q26 33 62 33q8 0 18.5 -3t17.5 -6t20 -9.5t18 -8.5l18 -9t18.5 -9t15.5 -6t16 -3q19 0 30 16t14 38
h38q-2 -40 -23 -68q-22 -34 -59 -34q-9 0 -19.5 3t-18 6t-20.5 9.5t-18 8.5l-18 9t-18.5 9t-16 6t-17.5 3q-19 0 -31 -16.5t-15 -37.5z" />
    <glyph glyph-name="Umacron" unicode="&#x16a;" horiz-adv-x="556" 
d="M487 260q0 -49 -4.5 -86.5t-18 -74t-36.5 -60.5t-61 -38.5t-90 -14.5q-105 0 -157.5 58t-52.5 167v511h64v-510q0 -81 39 -126.5t109 -45.5q144 0 144 201v481h64v-462zM148 865h260v-48h-260v48z" />
    <glyph glyph-name="umacron" unicode="&#x16b;" 
d="M381 0h-59v56q-50 -66 -126 -66q-132 0 -132 160v355h60v-361q0 -49 23 -76t64 -27q49 0 78 35.5t29 94.5v334h61v-434q0 -12 1 -36.5t1 -34.5zM92 648h260v-48h-260v48z" />
    <glyph glyph-name="Ubreve" unicode="&#x16c;" horiz-adv-x="556" 
d="M487 260q0 -49 -4.5 -86.5t-18 -74t-36.5 -60.5t-61 -38.5t-90 -14.5q-105 0 -157.5 58t-52.5 167v511h64v-510q0 -81 39 -126.5t109 -45.5q144 0 144 201v481h64v-462zM134 914h39q16 -81 105 -81q84 0 107 81h37q-7 -62 -47 -95.5t-102 -33.5q-60 0 -97 34.5t-42 94.5z
" />
    <glyph glyph-name="ubreve" unicode="&#x16d;" 
d="M381 0h-59v56q-50 -66 -126 -66q-132 0 -132 160v355h60v-361q0 -49 23 -76t64 -27q49 0 78 35.5t29 94.5v334h61v-434q0 -12 1 -36.5t1 -34.5zM78 697h39q16 -81 105 -81q84 0 107 81h37q-7 -62 -47 -95.5t-102 -33.5q-60 0 -97 34.5t-42 94.5z" />
    <glyph glyph-name="Uring" unicode="&#x16e;" horiz-adv-x="556" 
d="M487 260q0 -49 -4.5 -86.5t-18 -74t-36.5 -60.5t-61 -38.5t-90 -14.5q-105 0 -157.5 58t-52.5 167v511h64v-510q0 -81 39 -126.5t109 -45.5q144 0 144 201v481h64v-462zM278 953q39 0 65.5 -27t26.5 -66t-26.5 -66.5t-65.5 -27.5q-38 0 -65.5 28t-27.5 66t27.5 65.5
t65.5 27.5zM278 918q-24 0 -41 -17t-17 -41q0 -23 17.5 -41t40.5 -18t40 18t17 41t-17 40.5t-40 17.5z" />
    <glyph glyph-name="uring" unicode="&#x16f;" 
d="M381 0h-59v56q-50 -66 -126 -66q-132 0 -132 160v355h60v-361q0 -49 23 -76t64 -27q49 0 78 35.5t29 94.5v334h61v-434q0 -12 1 -36.5t1 -34.5zM222 736q39 0 65.5 -27t26.5 -66t-26.5 -66.5t-65.5 -27.5q-38 0 -65.5 28t-27.5 66t27.5 65.5t65.5 27.5zM222 701
q-24 0 -41 -17t-17 -41q0 -23 17.5 -41t40.5 -18t40 18t17 41t-17 40.5t-40 17.5z" />
    <glyph glyph-name="Uhungarumlaut" unicode="&#x170;" horiz-adv-x="556" 
d="M487 260q0 -49 -4.5 -86.5t-18 -74t-36.5 -60.5t-61 -38.5t-90 -14.5q-105 0 -157.5 58t-52.5 167v511h64v-510q0 -81 39 -126.5t109 -45.5q144 0 144 201v481h64v-462zM171 777l113 137h80l-143 -137h-50zM301 777l113 137h80l-143 -137h-50z" />
    <glyph glyph-name="uhungarumlaut" unicode="&#x171;" 
d="M381 0h-59v56q-50 -66 -126 -66q-132 0 -132 160v355h60v-361q0 -49 23 -76t64 -27q49 0 78 35.5t29 94.5v334h61v-434q0 -12 1 -36.5t1 -34.5zM114 560l113 137h80l-143 -137h-50zM244 560l113 137h80l-143 -137h-50z" />
    <glyph glyph-name="Uogonek" unicode="&#x172;" horiz-adv-x="556" 
d="M131 722v-454q0 -27 0.5 -42.5t3 -43t8 -44t16 -37.5t26 -32.5t39.5 -20t54 -8.5t54 8.5t39.5 20t26 32.5t16 37.5t8 44t3 43t0.5 42.5v454h64v-501q0 -201 -155 -230q-71 -41 -71 -101q0 -24 17.5 -35t42.5 -11q13 0 64 17v-33q-31 -19 -74 -19q-55 0 -84.5 16t-29.5 66
q0 58 70 95q-202 6 -202 235v501h64z" />
    <glyph glyph-name="uogonek" unicode="&#x173;" 
d="M327 0v56h-2q-54 -66 -127 -66q-133 0 -133 158v357h60v-347q0 -120 84 -120q53 0 81.5 38t28.5 73v356h60v-505h-2q-48 -24 -68.5 -54t-20.5 -56q0 -24 17.5 -35t42.5 -11q13 0 64 17v-33q-31 -19 -74 -19q-55 0 -84.5 16t-29.5 66q0 35 27 63.5t76 45.5z" />
    <glyph glyph-name="Wcircumflex" unicode="&#x174;" horiz-adv-x="833" 
d="M823 722l-179 -722h-84l-146 642l-150 -642h-80l-174 722h68l147 -637l148 637h87l145 -633l155 633h63zM414 877l-82 -102h-64l113 139h67l113 -139h-64z" />
    <glyph glyph-name="wcircumflex" unicode="&#x175;" horiz-adv-x="667" 
d="M657 505l-139 -505h-75l-112 429l-107 -429h-75l-139 505h64l114 -436l108 436h74l113 -436l114 436h60zM332 660l-82 -102h-64l113 139h67l113 -139h-64z" />
    <glyph glyph-name="Ycircumflex" unicode="&#x176;" horiz-adv-x="500" 
d="M488 722l-206 -432v-290h-64v290l-204 432h72l165 -359l173 359h64zM250 877l-82 -102h-64l113 139h67l113 -139h-64z" />
    <glyph glyph-name="ycircumflex" unicode="&#x177;" horiz-adv-x="389" 
d="M378 505l-209 -697h-59l59 190l-159 507h64l124 -414l120 414h60zM199 660l-82 -102h-64l113 139h67l113 -139h-64z" />
    <glyph glyph-name="Ydieresis" unicode="&#x178;" horiz-adv-x="500" 
d="M488 722l-206 -432v-290h-64v290l-204 432h72l165 -359l173 359h64zM138 788v101h64v-101h-64zM296 788v101h64v-101h-64z" />
    <glyph glyph-name="Zacute" unicode="&#x179;" 
d="M419 0h-396v58l332 610h-313v54h374v-66l-327 -602h330v-54zM158 777l113 137h80l-143 -137h-50z" />
    <glyph glyph-name="zacute" unicode="&#x17a;" horiz-adv-x="333" 
d="M304 0h-275v49l212 408h-200v48h258v-57l-203 -400h208v-48zM105 560l113 137h80l-143 -137h-50z" />
    <glyph glyph-name="Zdotaccent" unicode="&#x17b;" 
d="M419 0h-396v58l332 610h-313v54h374v-66l-327 -602h330v-54zM195 788v101h64v-101h-64z" />
    <glyph glyph-name="zdotaccent" unicode="&#x17c;" horiz-adv-x="333" 
d="M304 0h-275v49l212 408h-200v48h258v-57l-203 -400h208v-48zM142 571v101h64v-101h-64z" />
    <glyph glyph-name="Zcaron" unicode="&#x17d;" 
d="M419 0h-396v58l332 610h-313v54h374v-66l-327 -602h330v-54zM223 812l82 102h64l-113 -139h-67l-113 139h64z" />
    <glyph glyph-name="zcaron" unicode="&#x17e;" horiz-adv-x="333" 
d="M304 0h-275v49l212 408h-200v48h258v-57l-203 -400h208v-48zM169 595l82 102h64l-113 -139h-67l-113 139h64z" />
    <glyph glyph-name="florin" unicode="&#x192;" 
d="M372 741l-9 -56q-14 7 -32 7q-43 0 -57 -41q-15 -41 -27 -159h92l-6 -48h-92l-52 -417q-16 -122 -43 -159q-31 -42 -99 -42q-6 0 -20 2l7 53q10 -2 11 -2q42 0 58 34q7 14 12 35t7 36.5l5 40.5t4 35l48 384h-82l7 48h80q11 137 40 196q14 27 42.5 43t62.5 16q17 0 43 -6z
" />
    <glyph glyph-name="Aringacute" unicode="&#x1fa;" horiz-adv-x="556" 
d="M278 876q39 0 65.5 -27t26.5 -66q0 -55 -47 -82l219 -701h-67l-58 190h-283l-57 -190h-64l221 700q-49 27 -49 83q0 38 27.5 65.5t65.5 27.5zM400 244l-124 408l-123 -408h247zM278 841q-24 0 -41 -17t-17 -41q0 -23 17.5 -41t40.5 -18t40 18t17 41t-17 40.5t-40 17.5z
M241 894l113 137h80l-143 -137h-50z" />
    <glyph glyph-name="aringacute" unicode="&#x1fb;" 
d="M386 0h-60l-1 68q-54 -75 -145 -75q-65 0 -103 40t-38 109q0 124 117 150q42 10 68 12t96 3v62q0 99 -100 99q-47 0 -73.5 -22t-26.5 -62v-2h-65q3 67 49.5 100.5t119.5 33.5q67 0 110 -29q22 -14 33 -40t12.5 -44.5t1.5 -51.5v-243l2 -64zM322 219q0 7 -1 41q-9 1 -20 1
q-106 0 -156 -29q-42 -24 -42 -87q0 -49 24.5 -77t66.5 -28q56 0 96 48q19 22 25.5 49.5t6.5 81.5zM222 736q39 0 65.5 -27t26.5 -66t-26.5 -66.5t-65.5 -27.5q-38 0 -65.5 28t-27.5 66t27.5 65.5t65.5 27.5zM222 701q-24 0 -41 -17t-17 -41q0 -23 17.5 -41t40.5 -18t40 18
t17 41t-17 40.5t-40 17.5zM165 760l113 137h80l-143 -137h-50z" />
    <glyph glyph-name="AEacute" unicode="&#x1fc;" horiz-adv-x="778" 
d="M79 0h-66l331 722h387v-54h-286l26 -270h248v-54h-243l25 -290h241v-54h-301l-16 190h-259zM380 674l-189 -430h229l-38 430h-2zM364 777l113 137h80l-143 -137h-50z" />
    <glyph glyph-name="aeacute" unicode="&#x1fd;" horiz-adv-x="722" 
d="M666 250h-288v-49q0 -30 5 -55.5t16.5 -51.5t35 -41t57.5 -15q55 0 83.5 31.5t27.5 84.5h63q-6 -88 -50 -126t-124 -38q-51 0 -90.5 23.5t-51.5 66.5q-40 -90 -144 -90q-73 0 -120.5 36.5t-47.5 105.5q0 35 9.5 61.5t22 44t37 29.5t43 18t52.5 9t52.5 3.5t54.5 0.5h13
q0 31 -1 49t-6.5 44t-16 40t-31.5 25t-51 11q-44 0 -71.5 -22t-27.5 -65h-64q4 69 50.5 102t117.5 33q46 0 85 -19.5t54 -57.5q20 35 56.5 56t75.5 21q29 0 52.5 -5t40.5 -12t30 -22t22 -26.5t14.5 -34t8.5 -36t4.5 -42t1.5 -42v-45.5zM102 136q0 -98 109 -98q38 0 63 21
t35 56.5t12.5 67.5t0.5 67q-12 -1 -42 -1.5t-45 -1.5t-40 -4.5t-38 -11t-27.5 -19.5t-21 -31t-6.5 -45zM378 298h228q0 85 -23.5 127t-90.5 42q-54 0 -84 -45.5t-30 -123.5zM324 560l113 137h80l-143 -137h-50z" />
    <glyph glyph-name="Oslashacute" unicode="&#x1fe;" horiz-adv-x="556" 
d="M123 45l-42 -76l-37 18l54 95q-11 19 -18.5 44.5t-11.5 43.5t-6 52t-2.5 45.5t0 51t0.5 42.5q0 133 7 178q26 178 175 195q17 2 36 2q98 0 155 -59l46 82l33 -21l-54 -97q8 -15 14 -32.5t10 -32.5t7 -37.5t4.5 -35.5t2 -39t0.5 -35v-36v-32q0 -133 -7 -178
q-26 -178 -175 -195q-17 -2 -36 -2q-101 0 -155 59zM418 570l-262 -467q33 -63 122 -63q25 0 45.5 5.5t36 13t27 24t19 29.5t13 38.5t8 42.5t4 50.5t1.5 52.5v58v7q0 157 -14 209zM137 152l263 467q-33 63 -122 63q-25 0 -45.5 -5.5t-36 -13t-27 -24t-19 -29.5t-13 -38.5
t-8 -42.5t-4 -50.5t-1.5 -52.5v-58v-7q0 -160 13 -209zM214 777l113 137h80l-143 -137h-50z" />
    <glyph glyph-name="oslashacute" unicode="&#x1ff;" 
d="M103 26l-44 -70l-30 20l49 79q-30 47 -30 143v120q0 19 0.5 31.5t4 35t9.5 38t19 34.5t31 30.5t46 19.5t64 8q79 0 120 -38l43 70l30 -19l-48 -77q20 -35 24.5 -61t4.5 -72v-120q0 -103 -40.5 -155.5t-133.5 -52.5q-80 0 -119 36zM118 119l192 307q-20 41 -88 41
q-70 0 -92 -47t-22 -167q0 -94 10 -134zM326 384l-191 -306q25 -40 87 -40q28 0 48.5 7.5t32 22.5t14 20t7.5 17q12 29 12 148q0 91 -10 131zM158 560l113 137h80l-143 -137h-50z" />
    <glyph glyph-name="Scommaaccent" unicode="&#x218;" horiz-adv-x="500" 
d="M445 172q0 -184 -192 -184q-95 0 -147 45.5t-52 136.5v30h66v-14q0 -79 34 -111.5t101 -32.5q62 0 93 28.5t31 99.5q0 53 -21.5 82.5t-90.5 69.5l-74 43q-66 39 -97.5 81t-31.5 113q0 83 49.5 128.5t140.5 45.5q189 0 189 -174v-23h-65v10q0 68 -30 100t-95 32
q-124 0 -124 -113q0 -53 22.5 -82.5t89.5 -70.5l78 -47q78 -47 102 -83t24 -110zM196 -165l30 137h73l-60 -137h-43z" />
    <glyph glyph-name="scommaaccent" unicode="&#x219;" horiz-adv-x="389" 
d="M345 132q0 -71 -39 -108t-114 -37q-148 0 -148 148v13h61q1 -62 22 -88.5t70 -26.5q42 0 64.5 22.5t22.5 64.5q0 34 -19.5 58.5t-63.5 46.5l-43 22q-101 51 -101 140q0 59 38 92.5t105 33.5q79 0 110 -36.5t31 -109.5h-59v6q0 92 -85 92q-37 0 -58.5 -19.5t-21.5 -56.5
q0 -31 16 -49t48 -36l80 -43q44 -23 64 -53t20 -76zM141 -165l30 137h73l-60 -137h-43z" />
    <glyph glyph-name="uni021A" unicode="&#x21a;" 
d="M429 668h-175v-668h-64v668h-175v54h414v-54zM157 -165l30 137h73l-60 -137h-43z" />
    <glyph glyph-name="uni021B" unicode="&#x21b;" horiz-adv-x="278" 
d="M259 0q-18 -3 -53 -3q-108 0 -108 86v374h-82v48h82v104l59 26v-130h102v-48h-102v-339q0 -39 12 -54t50 -15q20 0 40 4v-53zM89 -165l30 137h73l-60 -137h-43z" />
    <glyph glyph-name="dotlessj" unicode="&#x237;" horiz-adv-x="222" 
d="M85 505h60v-598q0 -24 -5.5 -44t-29 -39t-63.5 -19q-35 0 -44 4v50q53 -4 67.5 12t14.5 69v565z" />
    <glyph glyph-name="circumflex" unicode="&#x2c6;" horiz-adv-x="278" 
d="M139 660l-82 -102h-64l113 139h67l113 -139h-64z" />
    <glyph glyph-name="caron" unicode="&#x2c7;" horiz-adv-x="278" 
d="M140 595l82 102h64l-113 -139h-67l-113 139h64z" />
    <glyph glyph-name="uni02C9" unicode="&#x2c9;" horiz-adv-x="278" 
d="M9 648h260v-48h-260v48z" />
    <glyph glyph-name="breve" unicode="&#x2d8;" horiz-adv-x="278" 
d="M-5 697h39q16 -81 105 -81q85 0 107 81h37q-7 -62 -47 -95.5t-102 -33.5q-60 0 -97 34.5t-42 94.5z" />
    <glyph glyph-name="dotaccent" unicode="&#x2d9;" horiz-adv-x="278" 
d="M107 571v101h64v-101h-64z" />
    <glyph glyph-name="ring" unicode="&#x2da;" horiz-adv-x="278" 
d="M139 736q39 0 65.5 -27t26.5 -66t-26.5 -66.5t-65.5 -27.5q-38 0 -65.5 28t-27.5 66t27.5 65.5t65.5 27.5zM139 701q-24 0 -41 -17t-17 -41q0 -23 17.5 -41t40.5 -18t40 18t17 41t-17 40.5t-40 17.5z" />
    <glyph glyph-name="ogonek" unicode="&#x2db;" horiz-adv-x="278" 
d="M143 0l50 2v-2q-48 -24 -68.5 -54t-20.5 -56q0 -24 17.5 -35t42.5 -11q13 0 64 17v-33q-31 -19 -74 -19q-55 0 -84.5 16t-29.5 66q0 35 27 63.5t76 45.5z" />
    <glyph glyph-name="tilde" unicode="&#x2dc;" horiz-adv-x="278" 
d="M21 595h-38q5 41 26 69q26 33 62 33q8 0 18.5 -3t17.5 -6t20 -9.5t18 -8.5l18 -9t18.5 -9t15.5 -6t16 -3q19 0 30 16t14 38h38q-2 -40 -23 -68q-22 -34 -59 -34q-9 0 -19.5 3t-18 6t-20.5 9.5t-18 8.5l-18 9t-18.5 9t-16 6t-17.5 3q-19 0 -31 -16.5t-15 -37.5z" />
    <glyph glyph-name="hungarumlaut" unicode="&#x2dd;" horiz-adv-x="278" 
d="M0 560l113 137h80l-143 -137h-50zM130 560l113 137h80l-143 -137h-50z" />
    <glyph glyph-name="uni0394" unicode="&#x394;" horiz-adv-x="560" 
d="M549 0h-538l228 722h78zM461 57l-184 605l-182 -605h366z" />
    <glyph glyph-name="uni03A9" unicode="&#x3a9;" horiz-adv-x="556" 
d="M278 685q-40 0 -68.5 -14t-44.5 -35.5t-25 -54t-11.5 -61.5t-2.5 -66v-51q0 -107 26 -162t88 -67v-174h-175v54h114v80q-118 50 -118 235v114q0 116 53.5 186.5t163.5 70.5t163.5 -70.5t53.5 -186.5v-114q0 -185 -118 -235v-80h114v-54h-175v174q62 12 88 67t26 162v51
q0 37 -2.5 66t-11.5 61.5t-25 54t-44.5 35.5t-68.5 14z" />
    <glyph glyph-name="uni03BC" unicode="&#x3bc;" 
d="M383 0h-56v59q-36 -39 -60 -53t-69 -14q-49 0 -73 18v-202h-62v697h62v-347q0 -120 84 -120q54 0 82 38t28 73v356h62v-434q0 -12 1 -36.5t1 -34.5z" />
    <glyph glyph-name="pi" unicode="&#x3c0;" horiz-adv-x="487" 
d="M466 10q-34 -16 -61 -16q-22 0 -37.5 7t-23.5 16t-12 26.5t-4.5 30t-0.5 35.5v348h-196v-457h-59v457h-70v48h460v-48h-76v-356q0 -18 1.5 -28t10.5 -18.5t26 -8.5q20 0 42 10v-46z" />
    <glyph glyph-name="uni0400" unicode="&#x400;" 
d="M409 0h-334v722h327v-54h-263v-270h251v-54h-251v-290h270v-54zM287 777h-50l-143 137h80z" />
    <glyph glyph-name="afii10023" unicode="&#x401;" 
d="M409 0h-334v722h327v-54h-263v-270h251v-54h-251v-290h270v-54zM131 788v101h64v-101h-64zM289 788v101h64v-101h-64z" />
    <glyph glyph-name="afii10051" unicode="&#x402;" horiz-adv-x="630" 
d="M595 222q0 -130 -52 -184t-174 -54h-6v55h6q92 0 126.5 37.5t34.5 144.5q0 89 -32 123.5t-102 34.5q-39 0 -83 -16.5t-59 -35.5v-327h-64v668h-175v54h414v-54h-175v-278q15 13 61.5 28.5t83.5 15.5q101 0 148.5 -49.5t47.5 -162.5z" />
    <glyph glyph-name="afii10052" unicode="&#x403;" horiz-adv-x="385" 
d="M373 668h-241v-668h-64v722h305v-54zM146 777l113 137h80l-143 -137h-50z" />
    <glyph glyph-name="afii10053" unicode="&#x404;" horiz-adv-x="500" 
d="M458 200q0 -21 -2.5 -43t-14 -54.5t-30 -56.5t-55 -42t-84.5 -18q-45 0 -80.5 10.5t-58 29t-38.5 44t-23 55.5t-11.5 63.5t-3.5 68t0 68.5v36q0 139 4 176q17 148 121 185q38 14 90 14q38 0 68.5 -9.5t49 -22.5t32 -35.5t19.5 -37t9 -40t3 -32.5v-24h-66q0 147 -115 147
q-35 0 -61 -9t-42.5 -29t-26.5 -41.5t-14.5 -59t-5.5 -67t-1 -78.5h227v-54h-227q0 -43 0.5 -64t2 -56.5t5.5 -53t11 -43t18 -38t26.5 -26t37.5 -18.5t50 -5q58 0 88 46.5t30 113.5h68z" />
    <glyph glyph-name="afii10054" unicode="&#x405;" horiz-adv-x="500" 
d="M445 172q0 -184 -192 -184q-95 0 -147 45.5t-52 136.5v30h66v-14q0 -79 34 -111.5t101 -32.5q62 0 93 28.5t31 99.5q0 53 -21.5 82.5t-90.5 69.5l-74 43q-66 39 -97.5 81t-31.5 113q0 83 49.5 128.5t140.5 45.5q189 0 189 -174v-23h-65v10q0 68 -30 100t-95 32
q-124 0 -124 -113q0 -53 22.5 -82.5t89.5 -70.5l78 -47q78 -47 102 -83t24 -110z" />
    <glyph glyph-name="afii10055" unicode="&#x406;" horiz-adv-x="222" 
d="M143 0h-64v722h64v-722z" />
    <glyph glyph-name="afii10056" unicode="&#x407;" horiz-adv-x="222" 
d="M143 0h-64v722h64v-722zM0 788v101h64v-101h-64zM158 788v101h64v-101h-64z" />
    <glyph glyph-name="afii10057" unicode="&#x408;" 
d="M370 199q0 -111 -40 -161.5t-135 -50.5q-173 0 -173 199v18h63v-20q0 -143 112 -143q31 0 52.5 11.5t32.5 26.5t16.5 41.5t6.5 44t1 47.5v510h64v-523z" />
    <glyph glyph-name="afii10058" unicode="&#x409;" horiz-adv-x="843" 
d="M808 201q0 -53 -11.5 -91t-28 -59t-42 -33t-47 -15t-48.5 -3h-194v668h-226v-222q0 -201 -11 -277.5t-62 -136.5q-36 -42 -91 -42l-43 4v56q14 -2 30 -2q37 0 56 26q41 56 49.5 124t8.5 251v71v202h353v-320h112q103 0 149 -45.5t46 -155.5zM744 203q0 80 -34 112.5
t-94 32.5h-115v-294h114q28 0 47 4.5t39.5 18.5t31.5 45.5t11 80.5z" />
    <glyph glyph-name="afii10059" unicode="&#x40a;" horiz-adv-x="826" 
d="M791 201q0 -53 -11.5 -91t-28 -59t-42 -33t-47 -15t-48.5 -3h-194v348h-284v-348h-64v722h64v-320h284v320h64v-320h112q103 0 149 -45.5t46 -155.5zM727 203q0 80 -34 112.5t-94 32.5h-115v-294h114q28 0 47 4.5t39.5 18.5t31.5 45.5t11 80.5z" />
    <glyph glyph-name="afii10060" unicode="&#x40b;" horiz-adv-x="630" 
d="M577 0h-64v249q0 68 -25 99t-93 31q-33 0 -79.5 -10.5t-61.5 -18.5v-350h-64v668h-175v54h414v-54h-175v-261q12 7 60 17t84 10q38 0 66 -6.5t56 -25t42.5 -58.5t14.5 -100v-244z" />
    <glyph glyph-name="afii10061" unicode="&#x40c;" horiz-adv-x="500" 
d="M485 0h-80l-264 370v-370h-64v722h64v-331l259 331h77l-270 -337zM203 777l113 137h80l-143 -137h-50z" />
    <glyph glyph-name="uni040D" unicode="&#x40d;" horiz-adv-x="570" 
d="M498 0h-64v599h-3l-295 -599h-64v722h64v-599h3l295 599h64v-722zM347 777h-50l-143 137h80z" />
    <glyph glyph-name="afii10062" unicode="&#x40e;" horiz-adv-x="500" 
d="M393 889q-7 -121 -137 -121t-137 121h44q13 -71 93 -71t93 71h44zM491 722l-302 -722h-71l101 227l-211 495h71l174 -418l169 418h69z" />
    <glyph glyph-name="afii10145" unicode="&#x40f;" horiz-adv-x="556" 
d="M484 0h-168v-141h-64v141h-180v722h64v-668h284v668h64v-722z" />
    <glyph glyph-name="afii10017" unicode="&#x410;" horiz-adv-x="556" 
d="M542 0h-67l-58 190h-283l-57 -190h-64l228 722h76zM400 244l-124 408l-123 -408h247z" />
    <glyph glyph-name="afii10018" unicode="&#x411;" horiz-adv-x="500" 
d="M68 0v722h345v-54h-281v-266h128q103 0 149 -45.5t46 -155.5q0 -53 -11.5 -91t-28 -59t-42 -33t-47 -15t-48.5 -3h-210zM391 203q0 80 -34 112.5t-94 32.5h-131v-294h130q28 0 47 4.5t39.5 18.5t31.5 45.5t11 80.5z" />
    <glyph glyph-name="afii10019" unicode="&#x412;" horiz-adv-x="500" 
d="M453 195q0 -104 -49 -149.5t-160 -45.5h-178v722h191q98 0 140 -42t42 -140q0 -73 -23 -109.5t-83 -54.5q67 -18 93.5 -56.5t26.5 -124.5zM373 542q0 126 -97 126h-146v-270h118q64 0 94.5 35.5t30.5 108.5zM387 197q0 147 -131 147h-126v-290h112q71 0 108 30t37 113z
" />
    <glyph glyph-name="afii10020" unicode="&#x413;" horiz-adv-x="385" 
d="M373 668h-241v-668h-64v722h305v-54z" />
    <glyph glyph-name="afii10021" unicode="&#x414;" horiz-adv-x="580" 
d="M539 -141h-64v141h-396v-141h-64v195h37q27 31 53.5 91.5t39.5 117.5q9 39 13 92t5 85.5t0 116t-1 112.5v53h332v-668h45v-195zM430 54v614h-206v-38q0 -11 0.5 -69.5t0 -84t-1.5 -71.5t-4.5 -78.5t-8.5 -58.5q-13 -63 -38.5 -124t-47.5 -90h306z" />
    <glyph glyph-name="afii10022" unicode="&#x415;" 
d="M409 0h-334v722h327v-54h-263v-270h251v-54h-251v-290h270v-54z" />
    <glyph glyph-name="afii10024" unicode="&#x416;" horiz-adv-x="770" 
d="M760 0h-80l-261 370h-2v-370h-64v370h-2l-261 -370h-80l278 385l-270 337h77l256 -331h2v331h64v-331h2l256 331h77l-270 -337z" />
    <glyph glyph-name="afii10025" unicode="&#x417;" horiz-adv-x="500" 
d="M441 195q0 -209 -201 -209q-195 0 -195 180v15h67v-11q0 -59 33 -93.5t95 -34.5q135 0 135 139q0 89 -29 127.5t-106 38.5q-30 0 -41 -1v56q8 -1 34 -1q136 0 136 149q0 68 -31 99t-94 31q-59 0 -90 -32t-31 -91v-15h-67q0 3 -0.5 11t-0.5 11q0 76 49.5 124t137.5 48
q100 0 147 -41t47 -136q0 -156 -116 -184v-2q69 -8 95 -55t26 -123z" />
    <glyph glyph-name="afii10026" unicode="&#x418;" horiz-adv-x="570" 
d="M498 0h-64v599h-3l-295 -599h-64v722h64v-599h3l295 599h64v-722z" />
    <glyph glyph-name="afii10027" unicode="&#x419;" horiz-adv-x="570" 
d="M423 889q-7 -121 -137 -121t-137 121h44q13 -71 93 -71t93 71h44zM498 0h-64v599h-3l-295 -599h-64v722h64v-599h3l295 599h64v-722z" />
    <glyph glyph-name="afii10028" unicode="&#x41a;" horiz-adv-x="500" 
d="M485 0h-80l-264 370v-370h-64v722h64v-331l259 331h77l-270 -337z" />
    <glyph glyph-name="afii10029" unicode="&#x41b;" horiz-adv-x="573" 
d="M501 0h-64v668h-226v-222q0 -201 -11 -277.5t-62 -136.5q-36 -42 -91 -42l-43 4v56q14 -2 30 -2q37 0 56 26q41 56 49.5 124t8.5 251v71v202h353v-722z" />
    <glyph glyph-name="afii10030" unicode="&#x41c;" horiz-adv-x="778" 
d="M699 0h-61v659l-214 -659h-74l-217 659v-659h-61v722h105l212 -649l208 649h102v-722z" />
    <glyph glyph-name="afii10031" unicode="&#x41d;" horiz-adv-x="556" 
d="M484 0h-64v344h-284v-344h-64v722h64v-324h284v324h64v-722z" />
    <glyph glyph-name="afii10032" unicode="&#x41e;" horiz-adv-x="556" 
d="M496 329q0 -53 -2 -89.5t-9 -80t-22.5 -71.5t-39 -53t-61.5 -37t-89 -12q-104 0 -158.5 64t-54.5 188v245q0 116 53.5 186.5t163.5 70.5q113 0 166 -71t53 -193v-147zM431 358v90q0 52 -5.5 89.5t-21 73.5t-47.5 55t-80 19q-40 0 -68.5 -14t-44.5 -35.5t-25 -54
t-11.5 -61.5t-2.5 -66v-182q0 -122 34.5 -177t117.5 -55q32 0 57 10t41 23.5t27.5 40.5t17 47t8 58t3 58.5t0.5 62.5v18z" />
    <glyph glyph-name="afii10033" unicode="&#x41f;" horiz-adv-x="556" 
d="M484 0h-64v668h-284v-668h-64v722h412v-722z" />
    <glyph glyph-name="afii10034" unicode="&#x420;" 
d="M422 536q0 -116 -50.5 -158t-149.5 -42h-95v-336h-63v722h198q82 0 121 -40.5t39 -145.5zM355 536q0 22 -2 39.5t-6 31t-9.5 23t-13 16.5t-17 11t-21 6.5t-25 3.5t-28.5 1h-32h-19h-55v-278h33q100 0 129 9q54 18 64 93q2 19 2 44z" />
    <glyph glyph-name="afii10035" unicode="&#x421;" horiz-adv-x="500" 
d="M459 203q0 -101 -50 -159t-151 -58q-33 0 -60.5 7t-47 16.5t-35 28t-25.5 34t-16.5 43t-10 45.5t-5.5 51t-2 50.5v52.5q0 125 6 209q15 213 205 213q186 0 186 -195v-14h-66q0 4 0.5 9t0.5 7q0 139 -121 139q-34 0 -59.5 -10.5t-41 -32.5t-25 -43.5t-13 -55.5t-4.5 -55
t-1 -56v-197q0 -89 36 -140t102 -51q71 0 100.5 48.5t29.5 117.5h68v-4z" />
    <glyph glyph-name="afii10036" unicode="&#x422;" 
d="M429 668h-175v-668h-64v668h-175v54h414v-54z" />
    <glyph glyph-name="afii10037" unicode="&#x423;" horiz-adv-x="500" 
d="M491 722l-302 -722h-71l101 227l-211 495h71l174 -418l169 418h69z" />
    <glyph glyph-name="afii10038" unicode="&#x424;" horiz-adv-x="700" 
d="M659 374q0 -148 -65.5 -222.5t-211.5 -78.5v-73h-64v73q-146 4 -211.5 78.5t-65.5 222.5q0 155 69.5 226t207.5 75v47h64v-47q138 -4 207.5 -75t69.5 -226zM595 372q0 123 -48.5 184t-164.5 65v-494q116 2 164.5 64t48.5 181zM318 127v494q-116 -4 -164.5 -65t-48.5 -184
q0 -119 48.5 -181t164.5 -64z" />
    <glyph glyph-name="afii10039" unicode="&#x425;" horiz-adv-x="500" 
d="M491 0h-75l-171 330l-167 -330h-68l194 373l-179 349h70l153 -301l158 301h68l-186 -349z" />
    <glyph glyph-name="afii10040" unicode="&#x426;" horiz-adv-x="570" 
d="M529 -141h-64v141h-393v722h64v-668h284v668h64v-668h45v-195z" />
    <glyph glyph-name="afii10041" unicode="&#x427;" horiz-adv-x="526" 
d="M454 0h-64v318q-12 -4 -72 -11.5t-85 -7.5q-86 0 -133.5 40.5t-47.5 144.5v238h64v-211q0 -87 27 -122.5t100 -35.5q70 0 147 18v351h64v-722z" />
    <glyph glyph-name="afii10042" unicode="&#x428;" horiz-adv-x="854" 
d="M782 0h-710v722h64v-668h259v668h64v-668h259v668h64v-722z" />
    <glyph glyph-name="afii10043" unicode="&#x429;" horiz-adv-x="868" 
d="M827 -141h-64v141h-691v722h64v-668h259v668h64v-668h259v668h64v-668h45v-195z" />
    <glyph glyph-name="afii10044" unicode="&#x42a;" horiz-adv-x="578" 
d="M543 201q0 -53 -11.5 -91t-28 -59t-42 -33t-47 -15t-48.5 -3h-194v668h-158v54h222v-320h112q103 0 149 -45.5t46 -155.5zM479 203q0 80 -34 112.5t-94 32.5h-115v-294h114q28 0 47 4.5t39.5 18.5t31.5 45.5t11 80.5z" />
    <glyph glyph-name="afii10045" unicode="&#x42b;" horiz-adv-x="665" 
d="M593 0h-64v722h64v-722zM443 201q0 -53 -11.5 -91t-28 -59t-42 -33t-47 -15t-48.5 -3h-194v722h64v-320h112q103 0 149 -45.5t46 -155.5zM379 203q0 80 -34 112.5t-94 32.5h-115v-294h114q28 0 47 4.5t39.5 18.5t31.5 45.5t11 80.5z" />
    <glyph glyph-name="afii10046" unicode="&#x42c;" horiz-adv-x="478" 
d="M443 201q0 -53 -11.5 -91t-28 -59t-42 -33t-47 -15t-48.5 -3h-194v722h64v-320h112q103 0 149 -45.5t46 -155.5zM379 203q0 80 -34 112.5t-94 32.5h-115v-294h114q28 0 47 4.5t39.5 18.5t31.5 45.5t11 80.5z" />
    <glyph glyph-name="afii10047" unicode="&#x42d;" horiz-adv-x="500" 
d="M439 311q0 -43 -1 -70.5t-5.5 -65.5t-13 -62t-24 -50.5t-38 -41.5t-56.5 -25t-77 -10q-48 0 -84.5 18t-55 42t-30 56.5t-14 54.5t-2.5 43h68q1 -67 30.5 -113.5t87.5 -46.5q28 0 50 5t37.5 18.5t26.5 26t18 38t11 43t5.5 53t2 56.5t0.5 64h-227v54h227q0 49 -1 78.5
t-5.5 67t-14.5 59t-26.5 41.5t-42.5 29t-61 9q-115 0 -115 -147h-66v24t3 32.5t9 40t19.5 37t32 35.5t49 22.5t68.5 9.5q43 0 77 -10t56.5 -24.5t38.5 -41.5t24 -50.5t12.5 -61.5t5.5 -65.5t1 -71.5v-100z" />
    <glyph glyph-name="afii10048" unicode="&#x42e;" horiz-adv-x="755" 
d="M695 329q0 -53 -2 -89.5t-9 -80t-22.5 -71.5t-39 -53t-61.5 -37t-89 -12q-104 0 -158.5 64t-54.5 188v106h-123v-344h-64v722h64v-324h123v85q0 116 53.5 186.5t163.5 70.5q113 0 166 -71t53 -193v-147zM630 358v90q0 52 -5.5 89.5t-21 73.5t-47.5 55t-80 19
q-40 0 -68.5 -14t-44.5 -35.5t-25 -54t-11.5 -61.5t-2.5 -66v-182q0 -122 34.5 -177t117.5 -55q32 0 57 10t41 23.5t27.5 40.5t17 47t8 58t3 58.5t0.5 62.5v18z" />
    <glyph glyph-name="afii10049" unicode="&#x42f;" horiz-adv-x="500" 
d="M428 0h-64v336h-75q-78 0 -110 -27t-43 -110q-20 -160 -29 -199h-67q6 24 12 60.5t12.5 87l9.5 73.5q11 71 37.5 99.5t77.5 35.5v2q-74 10 -104 49t-30 132q0 97 43 140t146 43h184v-722zM364 390v278h-121q-61 0 -92.5 -29t-31.5 -99q0 -87 32.5 -118.5t108.5 -31.5h104
z" />
    <glyph glyph-name="afii10065" unicode="&#x430;" 
d="M386 0h-60l-1 68q-54 -75 -145 -75q-65 0 -103 40t-38 109q0 124 117 150q42 10 68 12t96 3v62q0 99 -100 99q-47 0 -73.5 -22t-26.5 -62v-2h-65q3 67 49.5 100.5t119.5 33.5q67 0 110 -29q22 -14 33 -40t12.5 -44.5t1.5 -51.5v-243l2 -64zM322 219q0 7 -1 41q-9 1 -20 1
q-106 0 -156 -29q-42 -24 -42 -87q0 -49 24.5 -77t66.5 -28q56 0 96 48q19 22 25.5 49.5t6.5 81.5z" />
    <glyph glyph-name="afii10066" unicode="&#x431;" 
d="M396 195q0 -105 -46.5 -155t-126.5 -50q-82 0 -128.5 46t-46.5 165v130q0 133 19 200q19 68 55 97t112 46q67 15 83 29q9 8 12 19h62q0 -20 -9.5 -36t-21.5 -25.5t-36 -18.5t-39.5 -13t-45.5 -10q-77 -16 -105.5 -59t-37.5 -145h3q39 84 139 84q49 0 83 -19.5t49 -51
t20.5 -59t5.5 -57.5v-117zM336 262q0 114 -26.5 152t-81.5 38q-120 0 -120 -190q0 -131 24.5 -177.5t91.5 -46.5q63 0 87.5 47t24.5 177z" />
    <glyph glyph-name="afii10067" unicode="&#x432;" horiz-adv-x="430" 
d="M387 136q0 -69 -43 -102.5t-108 -33.5h-175v505h165q154 0 154 -114q0 -52 -20 -84t-72 -40v-3q57 -8 78 -40.5t21 -87.5zM317 381q0 26 -8 42t-24.5 23t-30.5 9t-37 2h-96v-169h76q65 0 92.5 20.5t27.5 72.5zM323 140q0 56 -26.5 78t-99.5 22h-76v-192h104q98 0 98 92z
" />
    <glyph glyph-name="afii10068" unicode="&#x433;" horiz-adv-x="340" 
d="M334 457h-213v-457h-60v505h273v-48z" />
    <glyph glyph-name="afii10069" unicode="&#x434;" horiz-adv-x="470" 
d="M445 -121h-60v121h-317v-121h-60v169h38q31 38 49.5 87t25.5 113.5t8.5 104t1.5 113.5v29v10h270v-457h44v-169zM341 48v409h-153v-10q0 -305 -78 -399h231z" />
    <glyph glyph-name="afii10070" unicode="&#x435;" 
d="M397 153q0 -77 -42 -121t-128 -44q-48 0 -82 14.5t-53 36.5t-29.5 60t-13.5 73.5t-3 87.5q0 45 4 80t16 69t31.5 56.5t52 36t77.5 13.5q99 0 134.5 -57t35.5 -160v-56h-286v-33q0 -36 4 -62.5t15 -53.5t35.5 -41.5t61.5 -14.5q54 0 81 31.5t27 84.5h62zM336 288
q0 26 -1 42t-4 40t-10.5 39t-19 30t-31.5 22t-46 7q-113 0 -113 -153v-27h225z" />
    <glyph glyph-name="afii10072" unicode="&#x436;" horiz-adv-x="600" 
d="M592 0h-76l-184 265h-2v-265h-60v265h-2l-184 -265h-76l195 270l-183 235h70l178 -233h2v233h60v-233h2l178 233h70l-183 -235z" />
    <glyph glyph-name="afii10073" unicode="&#x437;" horiz-adv-x="420" 
d="M371 136q0 -146 -166 -146q-86 0 -126.5 31t-40.5 102v20h64v-20q0 -46 24 -65t78 -19q56 0 79.5 26t23.5 76q0 102 -101 102q-36 0 -45 -1v49q8 -1 42 -1q52 0 75 22t23 73q0 81 -95 81q-52 0 -73.5 -22t-21.5 -68v-14h-61v31q0 56 39 89t114 33q83 0 122 -30t39 -94
q0 -110 -92 -124v-3q99 -13 99 -128z" />
    <glyph glyph-name="afii10074" unicode="&#x438;" horiz-adv-x="452" 
d="M391 0h-60v404h-3l-197 -404h-70v505h60v-404h3l197 404h70v-505z" />
    <glyph glyph-name="afii10075" unicode="&#x439;" horiz-adv-x="452" 
d="M358 689q-3 -57 -39.5 -84t-91.5 -27q-52 0 -90 27.5t-41 83.5h41q6 -33 32.5 -49t57.5 -16q33 0 58.5 16t31.5 49h41zM391 0h-60v404h-3l-197 -404h-70v505h60v-404h3l197 404h70v-505z" />
    <glyph glyph-name="afii10076" unicode="&#x43a;" horiz-adv-x="410" 
d="M402 0h-76l-200 265h-2v-265h-60v505h60v-233h2l194 233h70l-199 -235z" />
    <glyph glyph-name="afii10077" unicode="&#x43b;" horiz-adv-x="454" 
d="M390 0h-60v456h-162v-102q0 -279 -51 -331q-27 -27 -74 -27q-27 0 -43 4v52q8 -2 25 -2h5h6h6t6.5 1t6.5 2t7 3t6.5 5t6.5 7t6 9q13 23 19.5 81.5t7 99t0.5 127.5v120h282v-505z" />
    <glyph glyph-name="afii10078" unicode="&#x43c;" horiz-adv-x="584" 
d="M527 0h-59v412h-3l-140 -412h-63l-138 412h-3v-412h-59v505h87l144 -431h3l144 431h87v-505z" />
    <glyph glyph-name="afii10079" unicode="&#x43d;" 
d="M383 0h-60v240h-202v-240h-60v505h60v-217h202v217h60v-505z" />
    <glyph glyph-name="afii10080" unicode="&#x43e;" 
d="M397 203q0 -107 -39.5 -161.5t-139.5 -54.5q-96 0 -133.5 53.5t-37.5 155.5v100q0 106 39.5 162.5t140.5 56.5q53 0 87.5 -15t52 -45t24 -65.5t6.5 -86.5v-100zM336 226v70q0 37 -3.5 63.5t-14.5 53t-34 40.5t-58 14q-38 0 -63 -15t-36.5 -44t-15 -57t-3.5 -69v-63
q0 -33 1 -53.5t7.5 -48t18.5 -43.5t35 -28t56 -12q27 0 46.5 8t31 24.5t18.5 32t10 42t3.5 42t0.5 43.5z" />
    <glyph glyph-name="afii10081" unicode="&#x43f;" 
d="M383 0h-60v457h-202v-457h-60v505h322v-505z" />
    <glyph glyph-name="afii10082" unicode="&#x440;" 
d="M402 252q0 -43 -2 -73.5t-11.5 -69t-26 -63t-47.5 -41.5t-75 -17q-43 0 -70 16.5t-51 53.5v-250h-60v697h58v-66q47 74 129 74q28 0 51 -5.5t38.5 -18.5t27.5 -26t19 -35t11.5 -39t6 -45t2 -45.5t0.5 -46.5zM338 249v9q0 36 -0.5 54t-3 47t-9 43.5t-17.5 31t-29 23.5
t-43 7q-37 0 -62 -19t-36.5 -54.5t-16 -71t-4.5 -82.5q0 -200 118 -200q22 0 39 7.5t27.5 17t18 29.5t11 33.5t5.5 41.5t2 40.5v42.5z" />
    <glyph glyph-name="afii10083" unicode="&#x441;" horiz-adv-x="389" 
d="M350 147q0 -161 -144 -161q-164 0 -164 204v86q0 36 2 61.5t7.5 55t17 49t29 36.5t45.5 25.5t65 8.5q76 0 109 -38.5t33 -115.5h-60q0 107 -84 107q-27 0 -45.5 -10t-29.5 -26t-16.5 -46t-7 -60t-1.5 -79q0 -43 1.5 -70t7 -56.5t16 -45t29 -26t45.5 -10.5q85 0 85 111h60
z" />
    <glyph glyph-name="afii10084" unicode="&#x442;" horiz-adv-x="370" 
d="M360 457h-145v-457h-60v457h-145v48h350v-48z" />
    <glyph glyph-name="afii10085" unicode="&#x443;" horiz-adv-x="389" 
d="M378 505l-209 -697h-59l59 190l-159 507h64l124 -414l120 414h60z" />
    <glyph glyph-name="afii10086" unicode="&#x444;" horiz-adv-x="662" 
d="M615 198q0 -208 -159 -208q-28 0 -55 12t-40 28v-222h-60v222q-13 -16 -40 -28t-55 -12q-159 0 -159 208v113q0 201 150 201q62 0 104 -42v227h60v-227q42 42 104 42q150 0 150 -201v-113zM554 238v39q0 104 -21 145.5t-78 41.5q-71 0 -94 -54v-322q9 -21 35.5 -35.5
t59.5 -14.5q59 0 78.5 46.5t19.5 153.5zM301 88v322q-23 54 -94 54q-57 0 -78 -41.5t-21 -145.5v-39q0 -107 19.5 -153.5t78.5 -46.5q33 0 59.5 14.5t35.5 35.5z" />
    <glyph glyph-name="afii10087" unicode="&#x445;" horiz-adv-x="389" 
d="M378 0h-73l-111 219l-116 -219h-67l148 269l-125 236h72l92 -190l100 190h66l-132 -233z" />
    <glyph glyph-name="afii10088" unicode="&#x446;" horiz-adv-x="452" 
d="M427 -121h-60v121h-306v505h60v-457h202v457h60v-457h44v-169z" />
    <glyph glyph-name="afii10089" unicode="&#x447;" horiz-adv-x="414" 
d="M354 0h-60v223q-15 -7 -51.5 -14.5t-66.5 -7.5q-133 0 -133 138v166h60v-152q0 -55 18.5 -77.5t65.5 -22.5q62 0 107 19v233h60v-505z" />
    <glyph glyph-name="afii10090" unicode="&#x448;" horiz-adv-x="676" 
d="M615 0h-554v505h60v-457h187v457h60v-457h187v457h60v-505z" />
    <glyph glyph-name="afii10091" unicode="&#x449;" horiz-adv-x="684" 
d="M659 -121h-60v121h-538v505h60v-457h187v457h60v-457h187v457h60v-457h44v-169z" />
    <glyph glyph-name="afii10092" unicode="&#x44a;" horiz-adv-x="488" 
d="M455 147q0 -76 -42.5 -111.5t-108.5 -35.5h-169v457h-130v48h190v-217h90q38 0 63 -4t52 -17t41 -43t14 -77zM391 147q0 55 -26 74t-100 19h-70v-192h98q98 0 98 99z" />
    <glyph glyph-name="afii10093" unicode="&#x44b;" horiz-adv-x="564" 
d="M515 0h-60v505h60v-505zM377 147q0 -76 -42.5 -111.5t-108.5 -35.5h-169v505h60v-217h90q38 0 63 -4t52 -17t41 -43t14 -77zM313 147q0 55 -26 74t-100 19h-70v-192h98q98 0 98 99z" />
    <glyph glyph-name="afii10094" unicode="&#x44c;" horiz-adv-x="420" 
d="M387 147q0 -76 -42.5 -111.5t-108.5 -35.5h-175v505h60v-217h96q38 0 63 -4t52 -17t41 -43t14 -77zM323 147q0 55 -26 74t-100 19h-76v-192h104q98 0 98 99z" />
    <glyph glyph-name="afii10095" unicode="&#x44d;" horiz-adv-x="400" 
d="M356 250q0 -36 -0.5 -57.5t-4.5 -52.5t-10.5 -49.5t-19.5 -40t-31.5 -33t-46 -19.5t-63.5 -8q-16 0 -32.5 3t-37.5 12.5t-36.5 25.5t-26 45t-10.5 67h60q3 -48 23 -76.5t74 -28.5q24 0 42 8t28.5 25t17 33.5t9.5 44t3.5 44.5t0.5 47h-154v48h153q0 31 -1.5 52.5
t-7.5 47.5t-16.5 41.5t-30 26.5t-46.5 11q-94 0 -94 -100h-60q0 74 39.5 111t106.5 37q35 0 62 -7.5t45 -19t30.5 -32.5t19.5 -40t10.5 -50.5t4 -54.5t0.5 -61z" />
    <glyph glyph-name="afii10096" unicode="&#x44e;" horiz-adv-x="614" 
d="M566 198q0 -103 -40.5 -155.5t-133.5 -52.5t-133.5 52.5t-40.5 155.5v42h-97v-240h-60v505h60v-217h97v30q0 19 0.5 31.5t4 35t9.5 38t19 34.5t31 30.5t46 19.5t64 8t64 -8t46 -19.5t31 -30.5t19 -34.5t9.5 -38t4 -35t0.5 -31.5v-120zM506 253q0 120 -22 167t-92 47
t-92 -47t-22 -167q0 -118 12 -148l2 -5q2 -6 3.5 -8.5t4.5 -9t7 -10.5l10 -10t13 -9.5t16 -7t21 -5.5t25 -2t25 2t21 5.5t16 7t13 9.5l10 10t7 10.5t4.5 9t3.5 8.5l2 5q12 30 12 148z" />
    <glyph glyph-name="afii10097" unicode="&#x44f;" 
d="M381 0h-60v219h-95q-50 0 -71 -25t-29 -74q-12 -82 -20 -120h-63q11 44 21 119q5 36 15.5 60t26.5 35.5t29 16t34 7.5v3q-44 5 -76 34.5t-32 94.5q0 80 39.5 107.5t111.5 27.5h169v-505zM321 267v190h-96q-48 0 -74 -17.5t-26 -70.5t28.5 -77.5t91.5 -24.5h76z" />
    <glyph glyph-name="uni0450" unicode="&#x450;" 
d="M397 153q0 -77 -42 -121t-128 -44q-48 0 -82 14.5t-53 36.5t-29.5 60t-13.5 73.5t-3 87.5q0 45 4 80t16 69t31.5 56.5t52 36t77.5 13.5q99 0 134.5 -57t35.5 -160v-56h-286v-33q0 -36 4 -62.5t15 -53.5t35.5 -41.5t61.5 -14.5q54 0 81 31.5t27 84.5h62zM336 288
q0 26 -1 42t-4 40t-10.5 39t-19 30t-31.5 22t-46 7q-113 0 -113 -153v-27h225zM287 558h-51l-138 139h78z" />
    <glyph glyph-name="afii10071" unicode="&#x451;" 
d="M397 153q0 -77 -42 -121t-128 -44q-48 0 -82 14.5t-53 36.5t-29.5 60t-13.5 73.5t-3 87.5q0 45 4 80t16 69t31.5 56.5t52 36t77.5 13.5q99 0 134.5 -57t35.5 -160v-56h-286v-33q0 -36 4 -62.5t15 -53.5t35.5 -41.5t61.5 -14.5q54 0 81 31.5t27 84.5h62zM336 288
q0 26 -1 42t-4 40t-10.5 39t-19 30t-31.5 22t-46 7q-113 0 -113 -153v-27h225zM111 571v101h64v-101h-64zM269 571v101h64v-101h-64z" />
    <glyph glyph-name="afii10099" unicode="&#x452;" 
d="M394 48q0 -185 -153 -185h-10v52q54 0 79 29.5t25 91.5v270q0 27 -0.5 41.5t-5 38t-13.5 36t-26.5 22.5t-43.5 10q-53 0 -83 -43t-30 -121v-290h-60v587h-81v48h81v87h60v-87h152v-48h-152v-157q47 76 123 76q138 0 138 -172v-286z" />
    <glyph glyph-name="afii10100" unicode="&#x453;" horiz-adv-x="340" 
d="M334 457h-213v-457h-60v505h273v-48zM114 560l113 137h80l-143 -137h-50z" />
    <glyph glyph-name="afii10101" unicode="&#x454;" horiz-adv-x="389" 
d="M352 143q0 -70 -32 -108q-38 -45 -106 -45q-31 0 -56 5.5t-42.5 18t-30.5 25t-20.5 35l-12.5 38.5t-6.5 45t-2 45.5t-0.5 47.5v42.5t1.5 41t4.5 41t8.5 37t14 35t21 27.5t29 22.5t39 13t49.5 5.5q72 0 109 -42q32 -38 32 -106h-60q0 100 -89 100q-27 0 -46 -13t-28 -29.5
t-14 -45.5t-5.5 -45.5t-0.5 -45.5h153v-48h-154q0 -34 1 -56t6 -53t14.5 -49t27.5 -31t44 -13q53 0 71 28t21 77h60z" />
    <glyph glyph-name="afii10102" unicode="&#x455;" horiz-adv-x="389" 
d="M345 132q0 -71 -39 -108t-114 -37q-148 0 -148 148v13h61q1 -62 22 -88.5t70 -26.5q42 0 64.5 22.5t22.5 64.5q0 34 -19.5 58.5t-63.5 46.5l-43 22q-101 51 -101 140q0 59 38 92.5t105 33.5q79 0 110 -36.5t31 -109.5h-59v6q0 92 -85 92q-37 0 -58.5 -19.5t-21.5 -56.5
q0 -31 16 -49t48 -36l80 -43q44 -23 64 -53t20 -76z" />
    <glyph glyph-name="afii10103" unicode="&#x456;" horiz-adv-x="222" 
d="M147 646h-72v76h72v-76zM140 0h-59v505h59v-505z" />
    <glyph glyph-name="afii10104" unicode="&#x457;" horiz-adv-x="222" 
d="M141 0h-60v505h60v-505zM0 571v101h64v-101h-64zM158 571v101h64v-101h-64z" />
    <glyph glyph-name="afii10105" unicode="&#x458;" horiz-adv-x="222" 
d="M150 646h-74v76h74v-76zM145 -66q0 -70 -22 -100t-89 -30q-17 0 -32 3v52q7 -1 21 -1q38 0 50.5 17t12.5 55v575h59v-571z" />
    <glyph glyph-name="afii10106" unicode="&#x459;" horiz-adv-x="689" 
d="M656 147q0 -76 -42.5 -111.5t-108.5 -35.5h-175v456h-162v-102q0 -279 -51 -331q-27 -27 -74 -27q-27 0 -43 4v52q8 -2 25 -2h5h6h6t6.5 1t6.5 2t7 3t6.5 5t6.5 7t6 9q13 23 19.5 81.5t7 99t0.5 127.5v120h282v-217h96q38 0 63 -4t52 -17t41 -43t14 -77zM592 147
q0 55 -26 74t-100 19h-76v-192h104q98 0 98 99z" />
    <glyph glyph-name="afii10107" unicode="&#x45a;" horiz-adv-x="682" 
d="M649 147q0 -76 -42.5 -111.5t-108.5 -35.5h-175v240h-202v-240h-60v505h60v-217h202v217h60v-217h96q38 0 63 -4t52 -17t41 -43t14 -77zM585 147q0 55 -26 74t-100 19h-76v-192h104q98 0 98 99z" />
    <glyph glyph-name="afii10108" unicode="&#x45b;" 
d="M394 0h-59v306q0 27 -0.5 41.5t-5 38t-13.5 36t-26.5 22.5t-43.5 10q-53 0 -83 -43t-30 -121v-290h-60v587h-81v48h81v87h60v-87h152v-48h-152v-157q26 39 53 57.5t70 18.5q138 0 138 -172v-334z" />
    <glyph glyph-name="afii10109" unicode="&#x45c;" horiz-adv-x="410" 
d="M402 0h-76l-200 265h-2v-265h-60v505h60v-233h2l194 233h70l-199 -235zM138 560l113 137h80l-143 -137h-50z" />
    <glyph glyph-name="uni045D" unicode="&#x45d;" horiz-adv-x="452" 
d="M391 0h-60v404h-3l-197 -404h-70v505h60v-404h3l197 404h70v-505zM300 558h-51l-138 139h78z" />
    <glyph glyph-name="afii10110" unicode="&#x45e;" horiz-adv-x="389" 
d="M332 689q-3 -57 -39.5 -84t-91.5 -27q-52 0 -90 27.5t-41 83.5h41q6 -33 32.5 -49t57.5 -16q33 0 58.5 16t31.5 49h41zM378 505l-209 -697h-59l59 190l-159 507h64l124 -414l120 414h60z" />
    <glyph glyph-name="afii10193" unicode="&#x45f;" 
d="M383 0h-126v-121h-60v121h-136v505h60v-457h202v457h60v-505z" />
    <glyph glyph-name="afii10146" unicode="&#x462;" horiz-adv-x="541" 
d="M334 554h-135v-157h118q98 0 143.5 -48t45.5 -158q0 -61 -16 -102t-45 -59t-55 -24t-61 -6h-194v554h-135v54h135v114h64v-114h135v-54zM442 193q0 150 -128 150h-115v-289h114q27 0 46.5 4t40 17t31.5 43t11 75z" />
    <glyph glyph-name="afii10194" unicode="&#x463;" horiz-adv-x="485" 
d="M295 457h-115v-169h102q38 0 63 -4t52 -18t41 -46.5t14 -83.5q0 -69 -43 -102.5t-108 -33.5h-181v457h-115v48h115v217h60v-217h115v-48zM388 140q0 62 -25 81t-101 19h-82v-192h110q98 0 98 92z" />
    <glyph glyph-name="afii10147" unicode="&#x472;" horiz-adv-x="556" 
d="M273 -14q-104 0 -158.5 64t-54.5 188v245q0 116 53.5 186.5t163.5 70.5q113 0 166 -71t53 -193v-147q0 -53 -2 -89.5t-9 -80t-22.5 -71.5t-39 -53t-61.5 -37t-89 -12zM354 325q-27 0 -77 23.5t-78 24.5q-52 0 -74 -35v-66q0 -122 34.5 -177t117.5 -55q32 0 57 10t41 23.5
t27 40t17 47t8.5 58t3 58.5t0.5 62v11q-34 -25 -77 -25zM125 454v-52q33 25 75 25q37 0 86.5 -24.5t72.5 -24.5q49 0 72 33v37q0 52 -5.5 89.5t-21 73.5t-47.5 55t-80 19q-40 0 -68.5 -14t-44.5 -35.5t-25 -54t-11.5 -61.5t-2.5 -66z" />
    <glyph glyph-name="afii10195" unicode="&#x473;" 
d="M218 -13q-96 0 -133.5 53.5t-37.5 155.5v100q0 106 39.5 162.5t140.5 56.5q53 0 87.5 -15t52 -45t24 -65.5t6.5 -86.5v-100q0 -107 -39.5 -161.5t-139.5 -54.5zM280 222q-21 0 -58.5 16t-58.5 17q-40 0 -55 -24v-12q0 -33 1 -53.5t7.5 -48t18.5 -43.5t35 -28t56 -12
q27 0 46.5 8t31 24.5t18.5 32t10 42t3.5 42t0.5 43.5v14q-24 -18 -56 -18zM226 467q-31 0 -53 -10.5t-34.5 -27t-19.5 -42t-9 -48.5t-2 -54q25 19 56 19q28 0 65 -17t54 -17q37 0 53 21v5q0 37 -3.5 63.5t-14.5 53t-34 40.5t-58 14z" />
    <glyph glyph-name="afii10148" unicode="&#x474;" horiz-adv-x="500" 
d="M240 75l154 591q9 34 28 53t61 19q17 0 32 -3v-52q-7 1 -21 1q-34 0 -46 -46l-168 -638h-79l-191 722h68z" />
    <glyph glyph-name="afii10196" unicode="&#x475;" horiz-adv-x="389" 
d="M343 422l-119 -422h-69l-145 505h65l117 -431l101 374q8 31 24.5 47.5t54.5 16.5q15 0 28 -3v-46q-6 1 -19 1q-26 0 -38 -42z" />
    <glyph glyph-name="afii10050" unicode="&#x490;" horiz-adv-x="385" 
d="M373 668h-241v-668h-64v722h243v141h62v-195z" />
    <glyph glyph-name="afii10098" unicode="&#x491;" horiz-adv-x="340" 
d="M334 457h-213v-457h-60v505h213v121h60v-169z" />
    <glyph glyph-name="Wgrave" unicode="&#x1e80;" horiz-adv-x="833" 
d="M823 722l-179 -722h-84l-146 642l-150 -642h-80l-174 722h68l147 -637l148 637h87l145 -633l155 633h63zM471 777h-50l-143 137h80z" />
    <glyph glyph-name="wgrave" unicode="&#x1e81;" horiz-adv-x="667" 
d="M657 505l-139 -505h-75l-112 429l-107 -429h-75l-139 505h64l114 -436l108 436h74l113 -436l114 436h60zM388 558h-51l-138 139h78z" />
    <glyph glyph-name="Wacute" unicode="&#x1e82;" horiz-adv-x="833" 
d="M823 722l-179 -722h-84l-146 642l-150 -642h-80l-174 722h68l147 -637l148 637h87l145 -633l155 633h63zM360 777l113 137h80l-143 -137h-50z" />
    <glyph glyph-name="wacute" unicode="&#x1e83;" horiz-adv-x="667" 
d="M657 505l-139 -505h-75l-112 429l-107 -429h-75l-139 505h64l114 -436l108 436h74l113 -436l114 436h60zM277 560l113 137h80l-143 -137h-50z" />
    <glyph glyph-name="Wdieresis" unicode="&#x1e84;" horiz-adv-x="833" 
d="M823 722l-179 -722h-84l-146 642l-150 -642h-80l-174 722h68l147 -637l148 637h87l145 -633l155 633h63zM305 788v101h64v-101h-64zM463 788v101h64v-101h-64z" />
    <glyph glyph-name="wdieresis" unicode="&#x1e85;" horiz-adv-x="667" 
d="M657 505l-139 -505h-75l-112 429l-107 -429h-75l-139 505h64l114 -436l108 436h74l113 -436l114 436h60zM222 571v101h64v-101h-64zM380 571v101h64v-101h-64z" />
    <glyph glyph-name="Ygrave" unicode="&#x1ef2;" horiz-adv-x="500" 
d="M488 722l-206 -432v-290h-64v290l-204 432h72l165 -359l173 359h64zM314 777h-50l-143 137h80z" />
    <glyph glyph-name="ygrave" unicode="&#x1ef3;" horiz-adv-x="389" 
d="M378 505l-209 -697h-59l59 190l-159 507h64l124 -414l120 414h60zM249 558h-51l-138 139h78z" />
    <glyph glyph-name="uni2010" unicode="&#x2010;" horiz-adv-x="278" 
d="M240 238h-202v57h202v-57z" />
    <glyph glyph-name="endash" unicode="&#x2013;" horiz-adv-x="500" 
d="M500 249h-500v47h500v-47z" />
    <glyph glyph-name="emdash" unicode="&#x2014;" horiz-adv-x="1000" 
d="M1000 249h-1000v47h1000v-47z" />
    <glyph glyph-name="quoteleft" unicode="&#x2018;" horiz-adv-x="222" 
d="M167 722l-40 -183h-71l60 183h51z" />
    <glyph glyph-name="quoteright" unicode="&#x2019;" horiz-adv-x="222" 
d="M160 722l-60 -183h-51l39 183h72z" />
    <glyph glyph-name="quotesinglbase" unicode="&#x201a;" horiz-adv-x="222" 
d="M170 78l-59 -182h-52l41 182h70z" />
    <glyph glyph-name="quotedblleft" unicode="&#x201c;" horiz-adv-x="389" 
d="M323 722l-41 -182h-70l59 182h52zM176 722l-41 -182h-71l60 182h52z" />
    <glyph glyph-name="quotedblright" unicode="&#x201d;" horiz-adv-x="389" 
d="M321 722l-61 -182h-52l41 182h72zM172 722l-59 -182h-52l41 182h70z" />
    <glyph glyph-name="quotedblbase" unicode="&#x201e;" horiz-adv-x="389" 
d="M318 78l-60 -182h-52l41 182h71zM170 78l-59 -182h-52l41 182h70z" />
    <glyph glyph-name="dagger" unicode="&#x2020;" 
d="M390 501h-141v-501h-59v501h-141v49h141v172h59v-172h141v-49z" />
    <glyph glyph-name="daggerdbl" unicode="&#x2021;" 
d="M388 163h-141v-163h-56v163h-141v48h141v301h-141v48h141v162h56v-162h141v-48h-141v-301h141v-48z" />
    <glyph glyph-name="bullet" unicode="&#x2022;" horiz-adv-x="606" 
d="M428 356q0 -74 -52 -126t-126 -52t-126 52t-52 126t52 126t126 52t126 -52t52 -126z" />
    <glyph glyph-name="ellipsis" unicode="&#x2026;" horiz-adv-x="1000" 
d="M870 0h-75v79h75v-79zM537 0h-75v79h75v-79zM204 0h-75v79h75v-79z" />
    <glyph glyph-name="perthousand" unicode="&#x2030;" horiz-adv-x="889" 
d="M873 149q0 -161 -122 -161q-31 0 -53 11.5t-34 28t-19 43t-8.5 48t-1.5 51.5q0 70 29 115.5t95 45.5q31 0 53.5 -11.5t34 -27.5t17.5 -43t7.5 -47.5t1.5 -52.5zM246 528q0 -161 -122 -161q-31 0 -53 11.5t-34 28t-19 43t-8.5 48t-1.5 51.5q0 70 29 115.5t95 45.5
q31 0 53.5 -11.5t34 -27.5t17.5 -43t7.5 -47.5t1.5 -52.5zM446 710l-290 -724h-43l291 724h42zM568 149q0 -161 -122 -161q-31 0 -53 11.5t-34 28t-19 43t-8.5 48t-1.5 51.5q0 70 29 115.5t95 45.5q31 0 53.5 -11.5t34 -27.5t17.5 -43t7.5 -47.5t1.5 -52.5zM818 171
q0 25 -1 38t-6 34t-18.5 31.5t-35.5 10.5q-16 0 -28 -5.5t-19 -17t-11.5 -22.5t-6 -28.5t-2 -27.5t-0.5 -27v-6q0 -62 14.5 -90t47.5 -28q24 0 38.5 11.5t20 34.5t6.5 38t1 43v11zM191 550q0 25 -1 38t-6 34t-18.5 31.5t-35.5 10.5q-16 0 -28 -5.5t-19 -17t-11.5 -22.5
t-6 -28.5t-2 -27.5t-0.5 -27v-6q0 -62 14.5 -90t47.5 -28q24 0 38.5 11.5t20 34.5t6.5 38t1 43v11zM513 171q0 25 -1 38t-6 34t-18.5 31.5t-35.5 10.5q-16 0 -28 -5.5t-19 -17t-11.5 -22.5t-6 -28.5t-2 -27.5t-0.5 -27v-6q0 -62 14.5 -90t47.5 -28q24 0 38.5 11.5t20 34.5
t6.5 38t1 43v11z" />
    <glyph glyph-name="guilsinglleft" unicode="&#x2039;" horiz-adv-x="222" 
d="M179 447l-78 -194l76 -194h-53l-87 194l90 194h52z" />
    <glyph glyph-name="guilsinglright" unicode="&#x203a;" horiz-adv-x="222" 
d="M181 253l-88 -194h-56l80 194l-78 194h55z" />
    <glyph glyph-name="interrobang" unicode="&#x203d;" horiz-adv-x="389" 
d="M213 622l-4 -203l4 5q27 37 34.5 66.5t7.5 83.5q0 27 -2 43t-9 33t-23 25t-42 8q-77 0 -77 -97q0 -9 1 -17h-63q-1 12 -1 22q0 143 141 143q83 0 111 -39.5t28 -125.5q0 -51 -7 -81t-31 -68l-21.5 -32l-27 -41.5t-16.5 -33.5q-10 -28 -10 -106v-37h-55q0 19 -0.5 52
t-1.5 134.5t-2 265.5h66zM215 0h-73v79h73v-79z" />
    <glyph glyph-name="fraction" unicode="&#x2044;" horiz-adv-x="167" 
d="M-163 -29l437 751h55l-436 -751h-56z" />
    <glyph glyph-name="zero.superior" unicode="&#x2070;" horiz-adv-x="293" 
d="M144 271q-114 0 -114 140v142q0 67 25 108t93 41q67 0 90.5 -36t23.5 -105v-144q0 -67 -25 -106.5t-93 -39.5zM148 314q62 0 62 102v134q0 22 -0.5 31t-3.5 27.5t-9 27t-19.5 16t-32.5 7.5q-62 0 -62 -105v-122v-27t1.5 -25t5.5 -26.5t11 -19t19 -16t28 -4.5z" />
    <glyph glyph-name="four.superior" unicode="&#x2074;" horiz-adv-x="293" 
d="M170 277v103h-150v49l132 268h67v-272h50v-45h-50v-103h-49zM70 425h100v201z" />
    <glyph glyph-name="five.superior" unicode="&#x2075;" horiz-adv-x="293" 
d="M147 271q-108 0 -108 110v6h52v-9q0 -33 14.5 -48t46.5 -15q36 0 48 23.5t12 89.5q0 43 -14 61t-47 18q-25 0 -41.5 -11.5t-19.5 -30.5h-49l5 232h203v-46h-154l-3 -121q24 20 66 20q54 0 80.5 -29.5t26.5 -104.5q0 -76 -28 -110.5t-90 -34.5z" />
    <glyph glyph-name="six.superior" unicode="&#x2076;" horiz-adv-x="293" 
d="M148 271q-49 0 -81 26q-21 17 -28 46.5t-7 96.5v96q0 64 10 101q8 31 36.5 48t70.5 17q74 0 97 -49q9 -21 10 -62h-51q0 69 -54 69q-37 0 -52 -23q-16 -21 -16 -111v-12q30 31 77 31q55 0 78 -32t23 -94q0 -44 -8 -74q-8 -35 -36 -54.5t-69 -19.5zM149 314q21 0 33.5 8
t18 25.5t6.5 31.5t1 39q0 44 -13.5 63.5t-44.5 19.5q-39 0 -53 -24t-14 -71q0 -46 14 -69t52 -23z" />
    <glyph glyph-name="seven.superior" unicode="&#x2077;" horiz-adv-x="293" 
d="M66 277l134 373h-174v47h228v-41l-133 -379h-55z" />
    <glyph glyph-name="eight.superior" unicode="&#x2078;" horiz-adv-x="293" 
d="M145 271q-57 0 -86 28.5t-29 93.5q0 41 10 64.5t39 39.5q-25 16 -34.5 35.5t-9.5 59.5q0 110 111 110q112 0 112 -106q0 -40 -9 -62t-37 -38q29 -15 39.5 -36.5t10.5 -66.5q0 -122 -117 -122zM145 312q32 0 48.5 18t16.5 61q0 48 -14.5 65.5t-48.5 17.5q-32 0 -49 -17.5
t-17 -65.5q0 -79 64 -79zM146 516q60 0 60 70q0 40 -13 56.5t-45 16.5q-33 0 -48 -17t-15 -55q0 -71 61 -71z" />
    <glyph glyph-name="nine.superior" unicode="&#x2079;" horiz-adv-x="293" 
d="M142 271q-107 0 -107 103v8h52v-9q0 -57 51 -57q38 0 52 17.5t15 66.5v64q-29 -26 -72 -26q-56 0 -82 37q-21 28 -21 101q0 48 15 77q28 50 98 50q50 0 83 -25q31 -26 31 -102v-139q0 -50 -4 -78q-12 -88 -111 -88zM139 482q37 0 51.5 21t14.5 72q0 47 -14 65t-48 18
q-31 0 -46 -19t-15 -72q0 -85 57 -85z" />
    <glyph glyph-name="plus.superior" unicode="&#x207a;" horiz-adv-x="293" 
d="M127 295v114h-115v40h115v115h40v-115h114v-40h-114v-114h-40z" />
    <glyph glyph-name="minus.superior" unicode="&#x207b;" horiz-adv-x="293" 
d="M26 409v40h242v-40h-242z" />
    <glyph glyph-name="equal.superior" unicode="&#x207c;" horiz-adv-x="293" 
d="M26 361v39h242v-39h-242zM26 462v39h242v-39h-242z" />
    <glyph glyph-name="parenleft.superior" unicode="&#x207d;" horiz-adv-x="148" 
d="M73 197q-52 168 -52 256q0 113 54 270h43q-42 -166 -42 -272q0 -110 42 -254h-45z" />
    <glyph glyph-name="parenright.superior" unicode="&#x207e;" horiz-adv-x="148" 
d="M75 197h-45q42 144 42 254q0 106 -42 272h43q54 -157 54 -270q0 -88 -52 -256z" />
    <glyph glyph-name="n.superior" unicode="&#x207f;" horiz-adv-x="289" 
d="M38 431v301h47v-25q29 29 69 29q89 0 89 -98v-207h-50v205q0 57 -45 57q-29 0 -45 -23.5t-16 -67.5v-171h-49z" />
    <glyph glyph-name="zero.inferior" unicode="&#x2080;" horiz-adv-x="293" 
d="M144 -6q-114 0 -114 140v142q0 67 25 108t93 41q67 0 90.5 -36t23.5 -105v-144q0 -67 -25 -106.5t-93 -39.5zM148 37q62 0 62 102v134q0 22 -0.5 31t-3.5 27.5t-9 27t-19.5 16t-32.5 7.5q-62 0 -62 -105v-122v-27t1.5 -25t5.5 -26.5t11 -19t19 -16t28 -4.5z" />
    <glyph glyph-name="one.inferior" unicode="&#x2081;" horiz-adv-x="293" 
d="M133 0v352q-25 -23 -73 -54v56q51 31 79 66h45v-420h-51z" />
    <glyph glyph-name="two.inferior" unicode="&#x2082;" horiz-adv-x="293" 
d="M30 0v41l148 219q25 38 25 71q0 49 -58 49q-63 0 -63 -64v-10h-51q-1 5 -1 14q0 50 30.5 77.5t86.5 27.5q50 0 79.5 -24.5t29.5 -67.5q0 -48 -40 -107l-125 -180h165v-46h-226z" />
    <glyph glyph-name="three.inferior" unicode="&#x2083;" horiz-adv-x="293" 
d="M142 -6q-115 0 -115 119h52v-9q0 -66 65 -66q32 0 46 18.5t14 58.5q0 47 -16.5 63.5t-56.5 16.5q-3 0 -10 -1t-12 -1v46h18q39 0 57 17t18 58q0 67 -60 67q-31 0 -44.5 -17t-13.5 -55v-3h-51v14q0 50 28.5 77.5t79.5 27.5q111 0 111 -108q0 -72 -48 -99
q29 -13 40.5 -35.5t11.5 -64.5q0 -124 -114 -124z" />
    <glyph glyph-name="four.inferior" unicode="&#x2084;" horiz-adv-x="293" 
d="M170 0v103h-150v49l132 268h67v-272h50v-45h-50v-103h-49zM70 148h100v201z" />
    <glyph glyph-name="five.inferior" unicode="&#x2085;" horiz-adv-x="293" 
d="M147 -6q-108 0 -108 110v6h52v-9q0 -33 14.5 -48t46.5 -15q36 0 48 23.5t12 89.5q0 43 -14 61t-47 18q-25 0 -41.5 -11.5t-19.5 -30.5h-49l5 232h203v-46h-154l-3 -121q24 20 66 20q54 0 80.5 -29.5t26.5 -104.5q0 -76 -28 -110.5t-90 -34.5z" />
    <glyph glyph-name="six.inferior" unicode="&#x2086;" horiz-adv-x="293" 
d="M148 -6q-49 0 -81 26q-21 17 -28 46.5t-7 96.5v96q0 64 10 101q8 31 36.5 48t70.5 17q74 0 97 -49q9 -21 10 -62h-51q0 69 -54 69q-37 0 -52 -23q-16 -21 -16 -111v-12q30 31 77 31q55 0 78 -32t23 -94q0 -44 -8 -74q-8 -35 -36 -54.5t-69 -19.5zM149 37q21 0 33.5 8
t18 25.5t6.5 31.5t1 39q0 44 -13.5 63.5t-44.5 19.5q-39 0 -53 -24t-14 -71q0 -46 14 -69t52 -23z" />
    <glyph glyph-name="seven.inferior" unicode="&#x2087;" horiz-adv-x="293" 
d="M66 0l134 373h-174v47h228v-41l-133 -379h-55z" />
    <glyph glyph-name="eight.inferior" unicode="&#x2088;" horiz-adv-x="293" 
d="M145 -6q-57 0 -86 28.5t-29 93.5q0 41 10 64.5t39 39.5q-25 16 -34.5 35.5t-9.5 59.5q0 110 111 110q112 0 112 -106q0 -40 -9 -62t-37 -38q29 -15 39.5 -36.5t10.5 -66.5q0 -122 -117 -122zM145 35q32 0 48.5 18t16.5 61q0 48 -14.5 65.5t-48.5 17.5q-32 0 -49 -17.5
t-17 -65.5q0 -79 64 -79zM146 239q60 0 60 70q0 40 -13 56.5t-45 16.5q-33 0 -48 -17t-15 -55q0 -71 61 -71z" />
    <glyph glyph-name="nine.inferior" unicode="&#x2089;" horiz-adv-x="293" 
d="M142 -6q-107 0 -107 103v8h52v-9q0 -57 51 -57q38 0 52 17.5t15 66.5v64q-29 -26 -72 -26q-56 0 -82 37q-21 28 -21 101q0 48 15 77q28 50 98 50q50 0 83 -25q31 -26 31 -102v-139q0 -50 -4 -78q-12 -88 -111 -88zM139 205q37 0 51.5 21t14.5 72q0 47 -14 65t-48 18
q-31 0 -46 -19t-15 -72q0 -85 57 -85z" />
    <glyph glyph-name="plus.inferior" unicode="&#x208a;" horiz-adv-x="293" 
d="M127 18v114h-115v40h115v115h40v-115h114v-40h-114v-114h-40z" />
    <glyph glyph-name="minus.inferior" unicode="&#x208b;" horiz-adv-x="293" 
d="M26 132v40h242v-40h-242z" />
    <glyph glyph-name="equal.inferior" unicode="&#x208c;" horiz-adv-x="293" 
d="M26 84v39h242v-39h-242zM26 185v39h242v-39h-242z" />
    <glyph glyph-name="parenleft.inferior" unicode="&#x208d;" horiz-adv-x="148" 
d="M73 -80q-52 168 -52 256q0 113 54 270h43q-42 -166 -42 -272q0 -110 42 -254h-45z" />
    <glyph glyph-name="parenright.inferior" unicode="&#x208e;" horiz-adv-x="148" 
d="M75 -80h-45q42 144 42 254q0 106 -42 272h43q54 -157 54 -270q0 -88 -52 -256z" />
    <glyph glyph-name="Euro" unicode="&#x20ac;" 
d="M24 322h50v65h-62l12 54h52v65q0 201 174 201q90 0 130.5 -45.5t40.5 -132.5h-60q0 66 -25.5 94.5t-82.5 28.5q-56 0 -84.5 -32.5t-28.5 -106.5v-72h201l-11 -54h-191v-65h177l-12 -54h-164v-90q0 -137 116 -137q57 0 82 29t25 92h57q0 -177 -166 -177q-179 0 -179 192
v91h-63z" />
    <glyph glyph-name="afii61248" unicode="&#x2105;" horiz-adv-x="754" 
d="M191 390q-105 0 -105 122v50q0 68 20.5 104t85.5 36q49 0 70 -25t21 -75h-50q0 60 -42 60q-34 0 -43 -27t-9 -93q0 -30 1.5 -46.5t6 -33.5t15 -24t27.5 -7q44 0 44 64h50q0 -105 -92 -105zM556 -10q-63 0 -85.5 34t-22.5 100v66q0 53 27.5 83.5t84.5 30.5q108 0 108 -114
v-65q0 -66 -24.5 -100.5t-87.5 -34.5zM559 30q32 0 45.5 20.5t13.5 80.5v40q0 48 -11 70t-46 22t-49 -19.5t-14 -72.5v-56q0 -43 13.5 -64t47.5 -21zM562 730h55l-438 -753h-55z" />
    <glyph glyph-name="afii61289" unicode="&#x2113;" horiz-adv-x="500" 
d="M409 39q-56 -53 -124 -53q-54 0 -87.5 31.5t-33.5 93.5v125l-60 -65l-23 32l83 84v263q0 80 34.5 125.5t86.5 45.5q46 0 75 -33.5t29 -91.5q0 -143 -168 -320v-156q0 -49 22.5 -69.5t54.5 -20.5q46 0 89 40zM341 592q0 39 -16 63.5t-40 24.5q-27 0 -45.5 -31t-18.5 -91
v-230q120 142 120 264z" />
    <glyph glyph-name="afii61352" unicode="&#x2116;" horiz-adv-x="829" 
d="M781 283q0 -1 0.5 -19.5t0 -23.5t-2 -22.5t-4.5 -24t-8.5 -20.5t-14 -20l-20 -14t-28.5 -11t-37 -3q-18 0 -33.5 3t-26.5 7.5t-19.5 13.5t-14 15.5t-9.5 19t-6 19.5t-3 21.5t-1 20.5v20.5v17.5q0 1 -0.5 19t0 23.5l2 22.5t4.5 24t8 20.5t14 20l20.5 14.5t28 11t36.5 3
q18 0 33.5 -3t26.5 -7.5t20 -13.5t14.5 -15.5t9.5 -19t6 -20t3 -21.5t1 -20v-20.5v-17.5zM781 0h-227v48h227v-48zM482 0h-92l-278 621h-2v-621h-59v697h93l277 -619h2v619h59v-697zM732 283q0 23 -0.5 35.5t-4 29.5t-10 25t-19 14.5t-31.5 6.5q-18 0 -30.5 -6.5t-19 -14.5
t-10 -25t-4 -29.5t-0.5 -35.5q0 -24 0.5 -36t4 -29t10 -25.5t19 -14.5t30.5 -6q19 0 31.5 6t19 14.5t10 25.5t4 29t0.5 36z" />
    <glyph glyph-name="published" unicode="&#x2117;" horiz-adv-x="800" 
d="M437 343h-87v-198h-60v441h148q73 0 102 -26.5t29 -85.5q0 -131 -132 -131zM350 538v-147h68q49 0 70 17t21 67q0 37 -17.5 50t-56.5 13h-85zM400 740q156 0 267 -110.5t111 -267.5q0 -156 -111 -266.5t-267 -110.5q-157 0 -267.5 110.5t-110.5 266.5q0 157 110.5 267.5
t267.5 110.5zM400 693q-137 0 -234 -96.5t-97 -233.5t97 -234t234 -97t234 97t97 233q0 137 -97 234t-234 97z" />
    <glyph glyph-name="trademark" unicode="&#x2122;" horiz-adv-x="722" 
d="M677 366h-34v317l-122 -317h-32l-122 317v-317h-34v356h57l116 -301l116 301h55v-356zM295 688h-126v-322h-38v322h-126v34h290v-34z" />
    <glyph glyph-name="Omega" unicode="&#x2126;" horiz-adv-x="556" 
d="M278 685q-40 0 -68.5 -14t-44.5 -35.5t-25 -54t-11.5 -61.5t-2.5 -66v-51q0 -107 26 -162t88 -67v-174h-175v54h114v80q-118 50 -118 235v114q0 116 53.5 186.5t163.5 70.5t163.5 -70.5t53.5 -186.5v-114q0 -185 -118 -235v-80h114v-54h-175v174q62 12 88 67t26 162v51
q0 37 -2.5 66t-11.5 61.5t-25 54t-44.5 35.5t-68.5 14z" />
    <glyph glyph-name="estimated" unicode="&#x212e;" horiz-adv-x="742" 
d="M698 340h-511v-230q75 -75 183 -75q79 0 138 36.5t106 115.5l44 -26q-58 -92 -123.5 -131.5t-164.5 -39.5q-146 0 -236 100t-90 250t90 250t236 100q145 0 235.5 -97.5t92.5 -252.5zM187 386h368v183q-79 76 -186 76q-108 0 -182 -76v-183z" />
    <glyph glyph-name="onethird" unicode="&#x2153;" horiz-adv-x="754" 
d="M133 277v352q-25 -23 -73 -54v56q51 31 79 66h45v-420h-51zM123 -29l437 751h55l-436 -751h-56zM603 -6q-115 0 -115 119h52v-9q0 -66 65 -66q32 0 46 18.5t14 58.5q0 47 -16.5 63.5t-56.5 16.5q-3 0 -10 -1t-12 -1v46h18q39 0 57 17t18 58q0 67 -60 67q-31 0 -44.5 -17
t-13.5 -55v-3h-51v14q0 50 28.5 77.5t79.5 27.5q111 0 111 -108q0 -72 -48 -99q29 -13 40.5 -35.5t11.5 -64.5q0 -124 -114 -124z" />
    <glyph glyph-name="twothirds" unicode="&#x2154;" horiz-adv-x="754" 
d="M30 277v41l148 219q25 38 25 71q0 49 -58 49q-63 0 -63 -64v-10h-51q-1 5 -1 14q0 50 30.5 77.5t86.5 27.5q50 0 79.5 -24.5t29.5 -67.5q0 -48 -40 -107l-125 -180h165v-46h-226zM125 -29l437 751h55l-436 -751h-56zM603 -6q-115 0 -115 119h52v-9q0 -66 65 -66
q32 0 46 18.5t14 58.5q0 47 -16.5 63.5t-56.5 16.5q-3 0 -10 -1t-12 -1v46h18q39 0 57 17t18 58q0 67 -60 67q-31 0 -44.5 -17t-13.5 -55v-3h-51v14q0 50 28.5 77.5t79.5 27.5q111 0 111 -108q0 -72 -48 -99q29 -13 40.5 -35.5t11.5 -64.5q0 -124 -114 -124z" />
    <glyph glyph-name="oneeighth" unicode="&#x215b;" horiz-adv-x="754" 
d="M133 277v352q-25 -23 -73 -54v56q51 31 79 66h45v-420h-51zM120 -29l437 751h55l-436 -751h-56zM600 -6q-57 0 -86 28.5t-29 93.5q0 41 10 64.5t39 39.5q-25 16 -34.5 35.5t-9.5 59.5q0 110 111 110q112 0 112 -106q0 -40 -9 -62t-37 -38q29 -15 39.5 -36.5t10.5 -66.5
q0 -122 -117 -122zM600 35q32 0 48.5 18t16.5 61q0 48 -14.5 65.5t-48.5 17.5q-32 0 -49 -17.5t-17 -65.5q0 -79 64 -79zM601 239q60 0 60 70q0 40 -13 56.5t-45 16.5q-33 0 -48 -17t-15 -55q0 -71 61 -71z" />
    <glyph glyph-name="threeeighths" unicode="&#x215c;" horiz-adv-x="754" 
d="M142 271q-115 0 -115 119h52v-9q0 -66 65 -66q32 0 46 18.5t14 58.5q0 47 -16.5 63.5t-56.5 16.5q-3 0 -10 -1t-12 -1v46h18q39 0 57 17t18 58q0 67 -60 67q-31 0 -44.5 -17t-13.5 -55v-3h-51v14q0 50 28.5 77.5t79.5 27.5q111 0 111 -108q0 -72 -48 -99q29 -13 40.5 -36
t11.5 -64q0 -124 -114 -124zM124 -29l437 751h55l-436 -751h-56zM603 -6q-57 0 -86 28.5t-29 93.5q0 41 10 64.5t39 39.5q-25 16 -34.5 35.5t-9.5 59.5q0 110 111 110q112 0 112 -106q0 -40 -9 -62t-37 -38q29 -15 39.5 -36.5t10.5 -66.5q0 -122 -117 -122zM603 35
q32 0 48.5 18t16.5 61q0 48 -14.5 65.5t-48.5 17.5q-32 0 -49 -17.5t-17 -65.5q0 -79 64 -79zM604 239q60 0 60 70q0 40 -13 56.5t-45 16.5q-33 0 -48 -17t-15 -55q0 -71 61 -71z" />
    <glyph glyph-name="fiveeighths" unicode="&#x215d;" horiz-adv-x="754" 
d="M139 271q-108 0 -108 110v6h52v-9q0 -33 14.5 -48t46.5 -15q36 0 48 23.5t12 89.5q0 43 -14 61t-47 18q-25 0 -41.5 -11.5t-19.5 -30.5h-49l5 232h203v-46h-154l-3 -121q24 20 66 20q54 0 80.5 -29.5t26.5 -104.5q0 -76 -28 -110.5t-90 -34.5zM120 -29l437 751h55
l-436 -751h-56zM598 -6q-57 0 -86 28.5t-29 93.5q0 41 10 64.5t39 39.5q-25 16 -34.5 35.5t-9.5 59.5q0 110 111 110q112 0 112 -106q0 -40 -9 -62t-37 -38q29 -15 39.5 -36.5t10.5 -66.5q0 -122 -117 -122zM598 35q32 0 48.5 18t16.5 61q0 48 -14.5 65.5t-48.5 17.5
q-32 0 -49 -17.5t-17 -65.5q0 -79 64 -79zM599 239q60 0 60 70q0 40 -13 56.5t-45 16.5q-33 0 -48 -17t-15 -55q0 -71 61 -71z" />
    <glyph glyph-name="seveneighths" unicode="&#x215e;" horiz-adv-x="754" 
d="M99 277l134 373h-174v47h228v-41l-133 -379h-55zM113 -29l437 751h55l-436 -751h-56zM601 -6q-57 0 -86 28.5t-29 93.5q0 41 10 64.5t39 39.5q-25 16 -34.5 35.5t-9.5 59.5q0 110 111 110q112 0 112 -106q0 -40 -9 -62t-37 -38q29 -15 39.5 -36.5t10.5 -66.5
q0 -122 -117 -122zM601 35q32 0 48.5 18t16.5 61q0 48 -14.5 65.5t-48.5 17.5q-32 0 -49 -17.5t-17 -65.5q0 -79 64 -79zM602 239q60 0 60 70q0 40 -13 56.5t-45 16.5q-33 0 -48 -17t-15 -55q0 -71 61 -71z" />
    <glyph glyph-name="partialdiff" unicode="&#x2202;" horiz-adv-x="425" 
d="M71 661l-21 48q66 46 133 46q85 0 148.5 -100.5t63.5 -273.5q0 -81 -12.5 -148t-33.5 -111.5t-48.5 -74.5t-57 -43.5t-60.5 -13.5q-68 0 -108.5 54t-40.5 152q0 105 53 175.5t128 70.5q74 0 110 -64l1 21q0 133 -43.5 214.5t-105.5 81.5q-59 0 -106 -34zM190 49
q50 0 87.5 74.5t42.5 180.5q-13 38 -38 59t-55 21q-50 0 -86 -52.5t-36 -132.5q0 -78 24 -114t61 -36z" />
    <glyph glyph-name="Delta" unicode="&#x2206;" horiz-adv-x="560" 
d="M549 0h-538l228 722h78zM461 57l-184 605l-182 -605h366z" />
    <glyph glyph-name="product" unicode="&#x220f;" horiz-adv-x="573" 
d="M522 748v-878h-68v816h-337v-816h-68v878h473z" />
    <glyph glyph-name="summation" unicode="&#x2211;" horiz-adv-x="512" 
d="M509 -130h-499v47l202 388l-189 392v51h460v-60h-373v-4l178 -375l-192 -374v-5h413v-60z" />
    <glyph glyph-name="minus" unicode="&#x2212;" 
d="M424 279v-52h-404v52h404z" />
    <glyph glyph-name="uni2215" unicode="&#x2215;" horiz-adv-x="167" 
d="M-163 -29l437 751h55l-436 -751h-56z" />
    <glyph glyph-name="uni2219" unicode="&#x2219;" horiz-adv-x="222" 
d="M146 260h-75v79h75v-79z" />
    <glyph glyph-name="radical" unicode="&#x221a;" horiz-adv-x="498" 
d="M502 800l-209 -890h-59l-148 407l-70 -27l-16 45l129 51l110 -314q13 -39 20 -76h1q5 44 13 74q9 33 51 215.5l79 348.5l37 166h62z" />
    <glyph glyph-name="infinity" unicode="&#x221e;" horiz-adv-x="722" 
d="M691 251q0 -62 -37 -103t-99 -41q-35 0 -72 18t-60 37t-56 51q-4 -3 -20.5 -17.5l-22 -19.5t-21 -17.5t-23.5 -17l-23 -13t-26 -12t-26 -6.5t-29 -3q-60 0 -97.5 40t-37.5 101q0 60 37 102.5t96 42.5q19 0 39 -5.5t33.5 -12t34 -21.5t29 -22t30.5 -27.5t27 -24.5
q28 28 41 40t40.5 33.5t52.5 30.5t52 9q61 0 99.5 -40.5t38.5 -101.5zM639 248q0 40 -22.5 66t-62.5 26q-19 0 -39 -7.5t-45 -27t-33.5 -27l-34.5 -31.5q2 -1 16.5 -14l18 -16t17.5 -14t20 -14.5l18.5 -11t21.5 -10t21 -5t23 -2.5q38 0 59.5 25t21.5 63zM331 247l-33 27.5
t-41 33t-38.5 21.5t-44.5 11q-36 0 -58.5 -27.5t-22.5 -64.5q0 -40 23 -64t62 -24q61 0 153 87z" />
    <glyph glyph-name="integral" unicode="&#x222b;" horiz-adv-x="314" 
d="M131 90q-4 134 -5 184q-4 198 -4 253q0 231 135 231q23 0 41 -8l-11 -53q-12 4 -28 4q-39 0 -55.5 -39.5t-17.5 -139.5v-27q0 -54 4.5 -164.5t4.5 -176.5q0 -61 -1 -90q-5 -117 -40 -163t-93 -46q-28 0 -44 8q5 30 10 55q17 -5 30 -5q75 0 74 177z" />
    <glyph glyph-name="approxequal" unicode="&#x2248;" 
d="M431 388q-7 -53 -30 -88.5t-64 -35.5q-14 0 -37 6.5t-39 13l-43.5 18.5t-33.5 14q-51 22 -73 22q-47 0 -58 -83h-38q18 126 94 126q29 0 81 -22l82 -34q45 -18 64 -18q26 0 38.5 21t19.5 60h37zM431 228q-7 -53 -30 -88.5t-64 -35.5q-14 0 -37 6.5t-39 13l-43.5 18.5
t-33.5 14q-51 22 -73 22q-47 0 -58 -83h-38q18 126 94 126q29 0 81 -22l82 -34q45 -18 64 -18q26 0 38.5 21t19.5 60h37z" />
    <glyph glyph-name="notequal" unicode="&#x2260;" 
d="M423 148h-238l-64 -120l-37 20l53 100h-117v49h143l64 119h-207v49h234l61 113l37 -20l-50 -93h121v-49h-148l-64 -119h212v-49z" />
    <glyph glyph-name="lessequal" unicode="&#x2264;" 
d="M425 100l-406 160v48l406 161v-48l-347 -137l347 -136v-48zM425 -21h-406v42h406v-42z" />
    <glyph glyph-name="greaterequal" unicode="&#x2265;" 
d="M425 260l-406 -160v48l347 136l-347 137v48l406 -161v-48zM425 -21h-406v42h406v-42z" />
    <glyph glyph-name="lozenge" unicode="&#x25ca;" horiz-adv-x="493" 
d="M439 330l-163 -361h-61l-163 361l163 362h61zM370 328l-116 273q-6 12 -9 26h-2q-1 -4 -4 -11.5t-4 -10.5l-115 -273l104 -244q2 -5 7 -15.5t8.5 -19.5t5.5 -18h3q5 17 7 22z" />
    <glyph glyph-name="f_i" unicode="&#xf001;" 
d="M100 0v457h-81v48h81v85q0 24 3.5 42.5t14.5 42.5t39.5 37.5t71.5 13.5q14 0 34 -4v-50h-45q-20 0 -33 -7.5t-18 -22.5t-6 -25t-1 -26v-86h102v-48h-102v-457h-60zM369 0h-60v505h60v-505zM376 646h-74v76h74v-76z" />
    <glyph glyph-name="f_l" unicode="&#xf002;" 
d="M100 0v457h-81v48h81v85q0 24 3.5 42.5t14.5 42.5t39.5 37.5t71.5 13.5q14 0 34 -4v-50h-45q-20 0 -33 -7.5t-18 -22.5t-6 -25t-1 -26v-86h102v-48h-102v-457h-60zM368 0h-60v722h60v-722z" />
    <glyph glyph-name="uniF8FF" unicode="&#xf8ff;" horiz-adv-x="497" 
d="M270 114h-55v64h55v-64zM263 228h-47v16q0 51 11.5 77t47.5 57q47 46 47 82q0 34 -22 58t-52 24q-69 0 -79 -92l-49 8q7 67 41.5 100t89.5 33q54 0 87.5 -35t33.5 -92q0 -33 -12.5 -57.5t-48.5 -58.5q-35 -31 -41.5 -47t-6.5 -59v-14zM48 48h401v600h-401v-600zM0 697
h497v-697h-497v697z" />
    <glyph glyph-name="grave.cap" horiz-adv-x="278" 
d="M203 777h-50l-143 137h80z" />
    <glyph glyph-name="acute.cap" horiz-adv-x="278" 
d="M75 777l113 137h80l-143 -137h-50z" />
    <glyph glyph-name="circumflex.cap" horiz-adv-x="278" 
d="M139 877l-82 -102h-64l113 139h67l113 -139h-64z" />
    <glyph glyph-name="caron.cap" horiz-adv-x="278" 
d="M140 812l82 102h64l-113 -139h-67l-113 139h64z" />
    <glyph glyph-name="caron.alt" horiz-adv-x="278" 
d="M97 585l30 137h73l-60 -137h-43z" />
    <glyph glyph-name="tilde.cap" horiz-adv-x="278" 
d="M21 812h-38q5 41 26 69q26 33 62 33q8 0 18.5 -3t17.5 -6t20 -9.5t18 -8.5l18 -9t18.5 -9t15.5 -6t16 -3q19 0 30 16t14 38h38q-2 -40 -23 -68q-22 -34 -59 -34q-9 0 -19.5 3t-18 6t-20.5 9.5t-18 8.5l-18 9t-18.5 9t-16 6t-17.5 3q-19 0 -31 -16.5t-15 -37.5z" />
    <glyph glyph-name="dieresis.cap" horiz-adv-x="278" 
d="M28 788v101h64v-101h-64zM186 788v101h64v-101h-64z" />
    <glyph glyph-name="macron.cap" horiz-adv-x="278" 
d="M9 865h260v-48h-260v48z" />
    <glyph glyph-name="breve.cap" horiz-adv-x="278" 
d="M-5 914h39q16 -81 105 -81q85 0 107 81h37q-7 -62 -47 -95.5t-102 -33.5q-60 0 -97 34.5t-42 94.5z" />
    <glyph glyph-name="ring.cap" horiz-adv-x="278" 
d="M139 953q39 0 65.5 -27t26.5 -66t-26.5 -66.5t-65.5 -27.5q-38 0 -65.5 28t-27.5 66t27.5 65.5t65.5 27.5zM139 918q-24 0 -41 -17t-17 -41q0 -23 17.5 -41t40.5 -18t40 18t17 41t-17 40.5t-40 17.5z" />
    <glyph glyph-name="hungarumlaut.cap" horiz-adv-x="278" 
d="M0 777l113 137h80l-143 -137h-50zM130 777l113 137h80l-143 -137h-50z" />
    <glyph glyph-name="dotaccent.cap" horiz-adv-x="278" 
d="M107 788v101h64v-101h-64z" />
    <glyph glyph-name="commaaccent" horiz-adv-x="278" 
d="M87 -165l30 137h73l-60 -137h-43z" />
    <glyph glyph-name="commaaccent.alt" horiz-adv-x="278" 
d="M201 697l-30 -137h-73l60 137h43z" />
    </font>
</defs>
</svg>
