<svg xmlns="http://www.w3.org/2000/svg">
<defs>
<font id="UniversLTCYR-55Roman" horiz-adv-x="556" >
  <font-face 
    font-family="Univers LT CYR 55"
    font-weight="400"
    font-stretch="normal"
    units-per-em="1000"
    panose-1="2 11 6 3 2 2 2 2 2 4"
    ascent="724"
    descent="-276"
    x-height="502"
    cap-height="722"
    bbox="-168 -250 1059 1047"
    underline-thickness="50"
    underline-position="-50"
    unicode-range="U+000D-U+FB04"
  />
<missing-glyph horiz-adv-x="512" 
d="M278 117h-56v67h56v-67zM271 234h-46l-2 17q0 56 13 81q15 28 46 59q30 28 40 45.5t10 37.5q0 36 -22.5 60.5t-53.5 24.5q-71 0 -82 -95l-50 8q6 69 42 103t93 34q55 0 89.5 -36t34.5 -95q0 -34 -13 -60t-50 -60q-37 -33 -43 -52q-6 -20 -6 -72zM50 50h412v617h-412v-617
zM0 718h512v-718h-512v718z" />
    <glyph glyph-name="IJ" unicode="IJ" horiz-adv-x="802" 
d="M88 0v722h100v-722h-100zM285 196h106q2 -58 16 -79q28 -44 93 -44q68 0 100 51q17 29 17 97v501h100v-528q0 -96 -65 -150.5t-159 -54.5q-115 0 -172 75q-36 49 -36 132z" />
    <glyph glyph-name="ij" unicode="ij" horiz-adv-x="537" 
d="M76 617v103h113v-103h-113zM86 0v502h94v-502h-94zM341 616v104h114v-104h-114zM258 -193v67q56 -2 74 14.5t18 75.5v538h94v-549q0 -20 -1 -34.5t-8 -38.5t-19.5 -39t-38 -26.5t-61.5 -11.5q-23 0 -58 4z" />
    <glyph glyph-name="napostrophe" unicode="&#x22;n" horiz-adv-x="611" 
d="M91 0v444l-1 58h94l1 -81q48 91 161 91q17 0 36.5 -2.5t47 -13.5t48 -28t35.5 -50t15 -77v-341h-96v319q0 59 -27 86q-35 34 -89 34q-55 0 -93 -39t-38 -111v-289h-94zM83 722h86l-75 -159h-51z" />
    <glyph glyph-name="f_f" unicode="ff" horiz-adv-x="640" 
d="M339 727v-75q-32 2 -55 2q-27 0 -43.5 -5.5t-23 -18.5t-8 -22t-1.5 -27v-79h97v-68h-97v-434h-93v434h-99v68h99v57q0 52 4 76.5t17 43.5q37 55 126 55q30 0 77 -7zM646 727v-75q-32 2 -55 2q-27 0 -43.5 -5.5t-23 -18.5t-8 -22t-1.5 -27v-79h117v-68h-117v-434h-93v434
h-79v68h79v57q0 52 4 76.5t17 43.5q36 55 126 55q30 0 77 -7z" />
    <glyph glyph-name="fi" unicode="fi" horiz-adv-x="609" 
d="M411 618v102h112v-102h-112zM514 0h-93v502h93v-502zM339 727v-75q-32 2 -55 2q-27 0 -43.5 -5.5t-23 -18.5t-8 -22t-1.5 -27v-79h117v-68h-117v-434h-93v434h-99v68h99v57q0 52 4 76.5t17 43.5q37 55 126 55q30 0 77 -7z" />
    <glyph glyph-name="fl" unicode="fl" horiz-adv-x="607" 
d="M419 0v721h94v-721h-94zM339 727v-75q-32 2 -55 2q-27 0 -43.5 -5.5t-23 -18.5t-8 -22t-1.5 -27v-79h117v-68h-117v-434h-93v434h-99v68h99v57q0 52 4 76.5t17 43.5q37 55 126 55q30 0 77 -7z" />
    <glyph glyph-name="f_f_i" unicode="ffi" horiz-adv-x="916" 
d="M339 727v-75q-32 2 -55 2q-27 0 -43.5 -5.5t-23 -18.5t-8 -22t-1.5 -27v-79h97v-68h-97v-434h-93v434h-99v68h99v57q0 52 4 76.5t17 43.5q37 55 126 55q30 0 77 -7zM646 727v-75q-32 2 -55 2q-27 0 -43.5 -5.5t-23 -18.5t-8 -22t-1.5 -27v-79h117v-68h-117v-434h-93v434
h-79v68h79v57q0 52 4 76.5t17 43.5q36 55 126 55q30 0 77 -7zM718 618v102h112v-102h-112zM821 0h-93v502h93v-502z" />
    <glyph glyph-name="f_f_l" unicode="ffl" horiz-adv-x="914" 
d="M339 727v-75q-32 2 -55 2q-27 0 -43.5 -5.5t-23 -18.5t-8 -22t-1.5 -27v-79h97v-68h-97v-434h-93v434h-99v68h99v57q0 52 4 76.5t17 43.5q37 55 126 55q30 0 77 -7zM646 727v-75q-32 2 -55 2q-27 0 -43.5 -5.5t-23 -18.5t-8 -22t-1.5 -27v-79h117v-68h-117v-434h-93v434
h-79v68h79v57q0 52 4 76.5t17 43.5q36 55 126 55q30 0 77 -7zM726 0v721h94v-721h-94z" />
    <glyph glyph-name=".notdef" horiz-adv-x="512" 
d="M278 117h-56v67h56v-67zM271 234h-46l-2 17q0 56 13 81q15 28 46 59q30 28 40 45.5t10 37.5q0 36 -22.5 60.5t-53.5 24.5q-71 0 -82 -95l-50 8q6 69 42 103t93 34q55 0 89.5 -36t34.5 -95q0 -34 -13 -60t-50 -60q-37 -33 -43 -52q-6 -20 -6 -72zM50 50h412v617h-412v-617
zM0 718h512v-718h-512v718z" />
    <glyph glyph-name=".null" horiz-adv-x="500" 
 />
    <glyph glyph-name="nonmarkingreturn" horiz-adv-x="333" 
 />
    <glyph glyph-name="CR" unicode="&#xd;" horiz-adv-x="0" 
 />
    <glyph glyph-name="space" unicode=" " horiz-adv-x="278" 
 />
    <glyph glyph-name="exclam" unicode="!" horiz-adv-x="389" 
d="M262 721l-22 -556h-71l-19 556h112zM149 0v100h106v-100h-106z" />
    <glyph glyph-name="quotedbl" unicode="&#x22;" horiz-adv-x="400" 
d="M76 692h83l-14 -246h-54zM241 692h83l-15 -246h-54z" />
    <glyph glyph-name="numbersign" unicode="#" 
d="M5 197l1 69h112l28 149h-100v69h113l38 208h81l-39 -208h122l38 208h81l-39 -208h100v-69h-113l-27 -149h99v-69h-112l-37 -197h-80l36 197h-121l-37 -197h-80l36 197h-100zM199 266h121l28 149h-122z" />
    <glyph glyph-name="dollar" unicode="$" 
d="M253 775h51v-81q22 0 40.5 -2t53 -11.5t58.5 -25t43.5 -48.5t20.5 -77h-105q-2 79 -112 83v-209q39 -11 63.5 -19t59.5 -25t54.5 -37t34.5 -52.5t15 -72.5q0 -106 -90 -165q-46 -30 -139 -38v-99h-51v99q-32 1 -51 3t-53 15t-62 38q-35 32 -45.5 65t-10.5 74h102
q-2 -41 26.5 -75t93.5 -35v234q-123 37 -166 77.5t-43 120.5q0 97 85 150q46 28 127 31v82zM252 419v194q-31 -3 -53 -12.5t-33 -20t-17.5 -24t-7.5 -21.5t-1 -16q0 -24 9.5 -41.5t29 -29t34 -17t39.5 -12.5zM303 301v-221q60 1 91.5 32.5t31.5 73.5q0 27 -11 47t-32.5 33.5
t-37.5 20t-42 14.5z" />
    <glyph glyph-name="percent" unicode="%" horiz-adv-x="889" 
d="M222 711q80 0 117.5 -50.5t37.5 -126.5q0 -89 -46 -135t-118 -46q-70 0 -115.5 44t-45.5 131q0 82 44 132.5t126 50.5zM215 411q83 0 83 119q0 121 -83 121q-86 0 -86 -122q0 -118 86 -118zM675 346q76 0 120 -48q41 -46 41 -127q0 -84 -41 -133.5t-120 -49.5
q-46 0 -79.5 15.5t-51 42.5t-25.5 56.5t-8 63.5q0 87 46.5 133.5t117.5 46.5zM674 47q86 0 86 122q0 16 -2.5 32.5t-10 39t-26 36t-45.5 13.5q-86 0 -86 -134q0 -17 2.5 -32.5t10.5 -34.5t26 -30.5t45 -11.5zM251 -39h-66l441 770h66z" />
    <glyph glyph-name="ampersand" unicode="&#x26;" horiz-adv-x="778" 
d="M595 468h97q-1 -106 -19.5 -170.5t-68.5 -130.5l172 -167h-140l-94 89q-108 -106 -250 -106q-113 0 -178 59.5t-65 148.5q0 40 12 74.5t37 63.5t46 47t57 45q-83 77 -83 166q0 72 51 115.5t143 43.5q101 0 150 -45q43 -40 43 -99q0 -37 -14.5 -70t-41.5 -59.5t-43 -39
t-41 -29.5l177 -175q29 49 41 99.5t12 139.5zM301 469q97 66 97 129q0 26 -21 47t-62 21q-39 0 -64.5 -22t-25.5 -52q0 -49 76 -123zM477 149l-212 209q-60 -44 -85.5 -83t-25.5 -81q0 -67 48 -97t105 -30q91 0 170 82z" />
    <glyph glyph-name="quotesingle" unicode="'" horiz-adv-x="278" 
d="M98 692h83l-15 -246h-54z" />
    <glyph glyph-name="parenleft" unicode="(" horiz-adv-x="333" 
d="M257 -123h-65q-35 87 -56.5 145.5t-42 145t-20.5 154.5q0 98 41 233q25 82 71 197h66q-38 -115 -59 -212q-28 -123 -28 -216q0 -68 13 -142.5t28.5 -130.5t51.5 -174z" />
    <glyph glyph-name="parenright" unicode=")" horiz-adv-x="333" 
d="M76 752h65q36 -88 57 -145.5t41.5 -144t20.5 -154.5q0 -98 -41 -233q-27 -86 -71 -198h-66q39 120 59 213q28 121 28 216q0 67 -13 141.5t-28.5 130.5t-51.5 174z" />
    <glyph glyph-name="asterisk" unicode="*" 
d="M480 563v-75l-172 19l102 -138l-65 -40l-67 158l-72 -156l-68 37l106 139l-166 -14v73l169 -22l-102 140l66 36l67 -155l69 156l67 -37l-105 -140z" />
    <glyph glyph-name="plus" unicode="+" horiz-adv-x="584" 
d="M250 0v213h-213v77h213v213h84v-213h213v-77h-213v-213h-84z" />
    <glyph glyph-name="comma" unicode="," horiz-adv-x="278" 
d="M113 120h116l-112 -246h-68z" />
    <glyph glyph-name="hyphen" unicode="-" horiz-adv-x="333" 
d="M42 225v76h251v-76h-251z" />
    <glyph glyph-name="period" unicode="." horiz-adv-x="278" 
d="M81 0v120h111v-120h-111z" />
    <glyph glyph-name="slash" unicode="/" horiz-adv-x="278" 
d="M-9 -16l234 729h65l-233 -729h-66z" />
    <glyph glyph-name="zero" unicode="0" 
d="M44 338q0 28 1 53t6.5 64.5t14.5 71t26.5 66.5t41 58.5t60.5 39t82 15.5q59 0 103 -25t68 -61t38.5 -87t18.5 -92t4 -87q0 -225 -96 -315q-56 -53 -138 -53q-65 0 -112.5 32.5t-72.5 82.5q-45 90 -45 237zM140 343q0 -274 135 -274q136 0 136 276q0 136 -30 208.5
t-104 72.5q-137 0 -137 -283z" />
    <glyph glyph-name="one" unicode="1" 
d="M271 0v583q-66 -56 -161 -100v100q103 54 168 109h89v-692h-96z" />
    <glyph glyph-name="two" unicode="2" 
d="M53 0v91l181 178q68 66 107 119q51 70 51 123q0 16 -4 32.5t-14 36t-34 32t-59 12.5q-31 0 -54 -10.5t-34 -24t-17 -33t-7 -30.5t-1 -23h-105q3 99 64 152q59 50 150 50q90 0 152 -49.5t62 -152.5q0 -27 -3.5 -44.5t-21 -50.5t-53.5 -78q-32 -40 -128 -136l-121 -115h329
v-79h-440z" />
    <glyph glyph-name="three" unicode="3" 
d="M38 178h106q-1 -51 32 -82t95 -31q68 0 103 36t35 87t-28.5 82t-71.5 40q-35 7 -96 5v81q30 -3 59 0.5t59 15t48.5 38t18.5 66.5q0 56 -33.5 82.5t-88.5 26.5q-47 0 -83.5 -25t-42.5 -84h-101q2 49 21 85.5t44 55.5t58 30.5t56 14.5t45 3q107 0 166.5 -55t59.5 -132
q0 -32 -11.5 -62.5t-44 -60t-82.5 -40.5q42 -6 72 -25t44 -38.5t22 -45.5t9 -37.5t1 -21.5q0 -80 -63.5 -142t-176.5 -62q-128 0 -190 72q-38 43 -41 123z" />
    <glyph glyph-name="four" unicode="4" 
d="M340 0v150h-312v119l300 432h108v-470h101v-81h-101v-150h-96zM104 231h239v365z" />
    <glyph glyph-name="five" unicode="5" 
d="M56 164h104q1 -49 36 -73.5t79 -24.5q34 0 60.5 12.5t40.5 30t22.5 41t11 41t2.5 34.5q0 70 -35.5 109.5t-95.5 39.5q-57 0 -93 -36q-20 -20 -32 -58h-91l18 412h389v-81h-303l-13 -224q64 64 146 64q99 0 153 -66t54 -162q0 -104 -68 -171.5t-179 -67.5q-87 0 -144.5 47
t-61.5 133z" />
    <glyph glyph-name="six" unicode="6" 
d="M510 528h-103q-1 55 -32.5 79t-72.5 24q-74 0 -110 -65t-43 -205q12 18 21 28.5t28.5 26.5t47.5 24.5t64 8.5q89 0 149 -58t60 -164q0 -114 -69 -178t-165 -64q-51 0 -97.5 20t-73.5 55q-63 84 -63 255q0 51 5.5 99t22 103t43.5 95t74.5 67t110.5 27q105 0 166 -66
q34 -40 37 -112zM289 61q53 0 93.5 39.5t40.5 117.5q0 23 -4.5 45.5t-16.5 49t-40 43t-68 16.5q-66 0 -102 -45.5t-36 -109.5q0 -68 37.5 -112t95.5 -44z" />
    <glyph glyph-name="seven" unicode="7" 
d="M35 609v83h457v-84l-254 -608h-113l266 609h-356z" />
    <glyph glyph-name="eight" unicode="8" 
d="M190 365q-66 14 -102.5 57t-36.5 97q0 21 5.5 43.5t21 49.5t39.5 47.5t65 34.5t93 14q107 0 168.5 -51.5t61.5 -133.5q0 -55 -36 -99.5t-105 -57.5q19 -5 32 -9.5t38 -18.5t40.5 -31t28 -47.5t12.5 -68.5q0 -81 -59.5 -142t-178.5 -61q-116 0 -179 58q-61 56 -61 139
q0 77 53 127q31 31 100 53zM409 521q0 49 -35 81t-95 32q-57 0 -94 -31t-37 -82q0 -50 36.5 -81t91.5 -31q58 0 95.5 31t37.5 81zM138 194q0 -48 34.5 -87.5t104.5 -39.5q39 0 68 12.5t43 33.5t20.5 41.5t6.5 42.5q0 57 -38 92t-98 35q-63 0 -102 -37t-39 -93z" />
    <glyph glyph-name="nine" unicode="9" 
d="M46 165h105q0 -47 27.5 -74.5t83.5 -27.5q43 0 74 19.5t45 50.5t22.5 69.5t7.5 76.5t-1 71q-46 -87 -155 -87q-88 0 -149.5 57.5t-61.5 161.5q0 111 65.5 167t156.5 56q31 0 61 -7.5t62.5 -24.5t59 -52.5t40.5 -85.5q20 -70 20 -186q0 -24 -0.5 -39.5t-2.5 -47t-6.5 -54
t-13.5 -53.5t-21 -53t-32 -45.5t-44.5 -38.5t-59 -24.5t-75.5 -9.5q-30 0 -57.5 5t-55 17.5t-47.5 32.5t-33.5 52t-14.5 74zM399 480q0 71 -39 110.5t-94 39.5q-59 0 -91.5 -42.5t-32.5 -106.5q0 -66 36.5 -104t94.5 -38t92 39t34 102z" />
    <glyph glyph-name="colon" unicode=":" horiz-adv-x="278" 
d="M83 389v118h111v-118h-111zM83 0v118h111v-118h-111z" />
    <glyph glyph-name="semicolon" unicode=";" horiz-adv-x="278" 
d="M95 387v120h116v-120h-116zM113 120h116l-112 -246h-68z" />
    <glyph glyph-name="less" unicode="&#x3c;" horiz-adv-x="584" 
d="M37 210v82l510 200v-86l-406 -155l406 -154v-87z" />
    <glyph glyph-name="equal" unicode="=" horiz-adv-x="584" 
d="M37 314v77h510v-77h-510zM37 111v78h510v-78h-510z" />
    <glyph glyph-name="greater" unicode="&#x3e;" horiz-adv-x="584" 
d="M547 210l-510 -200v87l406 154l-406 155v86l510 -200v-82z" />
    <glyph glyph-name="question" unicode="?" horiz-adv-x="500" 
d="M74 625v90q63 21 142 21q129 0 187 -62q45 -48 45 -116q0 -38 -15.5 -71t-35 -55t-70.5 -74q-56 -56 -56 -57q-8 -11 -8 -31v-106h-84v106q0 32 7.5 46.5t44.5 54.5q66 69 89.5 103.5t23.5 74.5q0 35 -16 58.5t-43 32t-43 11t-33 2.5q-67 0 -135 -28zM171 0v102h104v-102
h-104z" />
    <glyph glyph-name="at" unicode="@" horiz-adv-x="1015" 
d="M653 549h69l-61 -206q-16 -57 -16 -76q0 -41 44 -41q51 0 95 63t44 156q0 122 -83 187t-204 65q-148 0 -251 -94t-103 -254q0 -146 95.5 -234t245.5 -88q141 0 275 95l25 -33q-72 -52 -143 -79t-160 -27q-169 0 -276.5 102t-107.5 267q0 92 34 167.5t91 123t128 73
t147 25.5q138 0 236 -78.5t98 -222.5q0 -115 -63.5 -189.5t-140.5 -74.5q-33 0 -56.5 18.5t-23.5 51.5q0 14 4 28q-49 -98 -140 -98q-59 0 -96.5 41t-37.5 110q0 87 56.5 162t141.5 75q58 0 90 -33q17 -16 26 -46zM607 436q0 42 -22.5 60.5t-49.5 18.5q-56 0 -94.5 -64.5
t-38.5 -128.5q0 -42 18.5 -69t54.5 -27q33 0 60 26.5t42 63.5t22.5 69t7.5 51z" />
    <glyph glyph-name="A" unicode="A" horiz-adv-x="722" 
d="M9 0l304 722h107l292 -722h-109l-78 188h-335l-78 -188h-103zM362 623l-140 -354h273z" />
    <glyph glyph-name="B" unicode="B" horiz-adv-x="667" 
d="M95 0v722h258q70 0 110 -10.5t72 -42.5q51 -49 51 -129q0 -34 -10 -61.5t-22 -43.5t-32.5 -29.5t-30.5 -18t-27 -10.5q19 -5 32 -10t36.5 -19t38 -31.5t26 -49t11.5 -70.5q0 -106 -87 -164q-23 -15 -53.5 -23t-51 -9t-58.5 -1h-263zM192 640v-223h140q150 0 150 114
q0 31 -10.5 53t-24 32.5t-37 16.5t-37.5 6.5t-37 0.5h-144zM192 331v-250h171q62 0 102 32.5t40 92.5q0 55 -36.5 90t-101.5 35h-175z" />
    <glyph glyph-name="C" unicode="C" horiz-adv-x="667" 
d="M630 527h-107q-2 14 -4 23t-12.5 31t-25.5 35t-45 24.5t-69 11.5q-50 0 -88 -20t-59.5 -50t-35 -71.5t-18 -79t-4.5 -77.5q0 -56 9 -102.5t30.5 -89t63.5 -67t101 -24.5q75 0 117 43q27 29 35 76h110q-11 -100 -89 -150.5t-181 -50.5q-73 0 -129 25t-88 62.5t-52 88.5
t-27 96t-7 92q0 41 6 81t19 84.5t37 81.5t57.5 67.5t84 47.5t112.5 17q42 0 82 -9.5t80 -31t66 -64t31 -100.5z" />
    <glyph glyph-name="D" unicode="D" horiz-adv-x="722" 
d="M88 0v722h209q50 0 78 -2t71.5 -9.5t78.5 -28.5t63 -54q89 -104 89 -273q0 -107 -35.5 -182t-84.5 -114q-33 -28 -80 -41.5t-82 -15.5t-104 -2h-203zM188 639v-557h98q136 0 189 40q95 71 95 229q0 148 -70 225q-33 36 -77.5 49.5t-114.5 13.5h-120z" />
    <glyph glyph-name="E" unicode="E" horiz-adv-x="611" 
d="M76 0v722h453v-85h-353v-225h336v-84h-336v-240h361v-88h-461z" />
    <glyph glyph-name="F" unicode="F" 
d="M95 0v722h430v-85h-328v-225h309v-84h-309v-328h-102z" />
    <glyph glyph-name="G" unicode="G" horiz-adv-x="778" 
d="M686 542h-109q-9 52 -50.5 82.5t-112.5 30.5q-109 0 -163 -61q-77 -86 -77 -232q0 -58 15 -121.5t51 -105.5q62 -71 192 -71q81 0 157 23v214h-165v83h265v-356q-132 -44 -257 -44q-174 0 -262 90q-101 102 -101 275q0 34 5.5 71t20 87t48 97t81.5 79q75 51 201 51
q137 0 213 -77q43 -45 48 -115z" />
    <glyph glyph-name="H" unicode="H" horiz-adv-x="722" 
d="M88 722h100v-310h343v310h100v-722h-100v326h-343v-326h-100v722z" />
    <glyph glyph-name="I" unicode="I" horiz-adv-x="278" 
d="M88 0v722h100v-722h-100z" />
    <glyph glyph-name="J" unicode="J" 
d="M21 196h106q2 -58 16 -79q28 -44 93 -44q68 0 100 51q17 29 17 97v501h100v-528q0 -96 -65 -150.5t-159 -54.5q-115 0 -172 75q-36 49 -36 132z" />
    <glyph glyph-name="K" unicode="K" horiz-adv-x="667" 
d="M93 0v722h99v-316l301 316h137l-323 -323l358 -399h-140l-333 383v-383h-99z" />
    <glyph glyph-name="L" unicode="L" 
d="M93 0v722h99v-633h336v-89h-435z" />
    <glyph glyph-name="M" unicode="M" horiz-adv-x="944" 
d="M90 0v722h177l204 -595l209 595h165v-722h-98v650l-237 -650h-95l-228 646v-646h-97z" />
    <glyph glyph-name="N" unicode="N" horiz-adv-x="778" 
d="M95 0v722h139l355 -597v597h92v-722h-128l-367 613v-613h-91z" />
    <glyph glyph-name="O" unicode="O" horiz-adv-x="778" 
d="M59 356q0 188 93 288q90 97 241 97q153 0 239.5 -96t86.5 -277q0 -77 -16.5 -142t-53.5 -121.5t-104.5 -89t-159.5 -32.5q-89 0 -154 30t-101.5 83t-53.5 117.5t-17 142.5zM164 362q0 -149 64 -228q53 -66 160 -66q105 0 160 66q65 79 65 235q0 288 -219 288
q-53 0 -94 -17t-66 -44t-41.5 -66.5t-22.5 -80t-6 -87.5z" />
    <glyph glyph-name="P" unicode="P" horiz-adv-x="611" 
d="M88 0v722h242q76 0 119.5 -10.5t77.5 -47.5q53 -54 53 -140q0 -84 -57 -141q-31 -31 -79 -46.5t-139 -15.5h-117v-321h-100zM188 641v-236h119q25 0 43 1.5t43.5 8t41.5 19t27.5 36.5t11.5 58q0 32 -11 55t-24.5 34t-37.5 16.5t-37.5 6.5t-35.5 1h-140z" />
    <glyph glyph-name="Q" unicode="Q" horiz-adv-x="778" 
d="M754 79v-79h-120q-74 0 -134 -5q-98 -10 -131 -10q-137 0 -224 94t-87 277q0 185 90 285q89 98 242 98q86 0 149.5 -32t97.5 -86t50 -115.5t16 -130.5q0 -207 -131 -310q67 14 129 14h53zM164 354q0 -50 10 -96.5t32.5 -92.5t67 -74t105.5 -28q49 0 87.5 16t61.5 44
t39 58.5t22.5 67t9 61t2.5 48.5q0 140 -57.5 219t-162.5 79q-57 0 -99 -24.5t-64 -58t-35 -79.5t-16 -77.5t-3 -62.5z" />
    <glyph glyph-name="R" unicode="R" horiz-adv-x="667" 
d="M86 0v722h258q113 0 166 -34q80 -50 80 -147q0 -77 -51 -128q-33 -33 -85 -47q53 -14 78 -43.5t32 -95.5q17 -148 45 -227h-107q-14 42 -33 191q-9 81 -39 108t-119 27h-126v-326h-99zM183 638v-227h158q68 0 95 16q49 28 49 94q0 33 -12 57t-26.5 35t-38 17t-36 7
t-31.5 1h-158z" />
    <glyph glyph-name="S" unicode="S" horiz-adv-x="667" 
d="M56 211h104q1 -17 2.5 -28.5t6.5 -30.5t16.5 -31.5t29.5 -26t48.5 -20t70.5 -6.5q52 0 89 14.5t52.5 37.5t21.5 41t6 36q0 24 -8.5 42t-19.5 28.5t-37 21t-44 15.5t-57 15q-95 23 -132.5 35t-63.5 29q-75 51 -75 142q0 70 41.5 119.5t101.5 70.5t132 21q138 0 203 -71
q39 -42 44 -123h-104q-6 110 -152 110q-75 0 -117.5 -31.5t-42.5 -85.5q0 -46 29.5 -68t100.5 -39q137 -35 170 -45.5t63 -30.5q72 -47 72 -144q0 -99 -75 -162t-210 -63q-160 0 -224 82q-42 54 -42 146z" />
    <glyph glyph-name="T" unicode="T" horiz-adv-x="611" 
d="M362 0h-99v637h-242v85h583v-85h-242v-637z" />
    <glyph glyph-name="U" unicode="U" horiz-adv-x="778" 
d="M93 722h100v-447q0 -85 32 -130q53 -71 165 -71q195 0 195 205v443h97v-445q0 -119 -59 -192q-80 -100 -233 -100q-68 0 -139 25.5t-116 89.5q-42 61 -42 182v440z" />
    <glyph glyph-name="V" unicode="V" horiz-adv-x="667" 
d="M647 722l-266 -722h-110l-257 722h111l205 -617l216 617h101z" />
    <glyph glyph-name="W" unicode="W" horiz-adv-x="1000" 
d="M8 722h107l156 -594l172 594h124l163 -599l164 599h98l-214 -722h-111l-167 617l-179 -617h-108z" />
    <glyph glyph-name="X" unicode="X" horiz-adv-x="722" 
d="M49 722h128l195 -278l195 278h121l-257 -346l270 -376h-126l-215 310l-220 -310h-121l280 378z" />
    <glyph glyph-name="Y" unicode="Y" horiz-adv-x="667" 
d="M289 0v284l-282 438h124l213 -354l216 354h112l-282 -443v-279h-101z" />
    <glyph glyph-name="Z" unicode="Z" horiz-adv-x="611" 
d="M35 0v100l417 534h-406v88h525v-99l-421 -535h428v-88h-543z" />
    <glyph glyph-name="bracketleft" unicode="[" horiz-adv-x="333" 
d="M102 -125v875h173v-53h-94v-769h94v-53h-173z" />
    <glyph glyph-name="backslash" unicode="\" horiz-adv-x="278" 
d="M290 -16h-65l-234 729h66z" />
    <glyph glyph-name="bracketright" unicode="]" horiz-adv-x="333" 
d="M60 -125v53h95v769h-95v53h174v-875h-174z" />
    <glyph glyph-name="asciicircum" unicode="^" horiz-adv-x="584" 
d="M82 271l172 421h76l172 -421h-86l-126 318l-122 -318h-86z" />
    <glyph glyph-name="underscore" unicode="_" horiz-adv-x="500" 
d="M0 -125v50h500v-50h-500z" />
    <glyph glyph-name="grave" unicode="`" horiz-adv-x="278" 
d="M2 740h113l84 -144h-62z" />
    <glyph glyph-name="a" unicode="a" 
d="M479 0h-85q-9 32 -9 75q-49 -91 -155 -91q-84 0 -130.5 41.5t-46.5 106.5q0 96 88 147q59 33 174 33q25 0 68 -3q0 53 -3 74.5t-15 36.5q-25 33 -87 33q-97 0 -101 -85h-94q7 62 35 95q49 54 162 54q59 0 109 -19t69 -55q17 -32 17 -77l-4 -240q0 -68 8 -126zM383 244
q-25 3 -54 3q-181 0 -181 -102q0 -32 24 -59.5t80 -27.5q72 0 107 54q15 24 18.5 48.5t5.5 83.5z" />
    <glyph glyph-name="b" unicode="b" horiz-adv-x="611" 
d="M182 722v-293q49 86 164 86q102 0 159 -64q59 -68 59 -189q0 -120 -48 -183q-29 -42 -76 -64t-100 -22q-65 0 -112 32q-27 19 -49 51l-2 -76h-91l2 90v632h94zM465 256q0 20 -2 40t-10 50t-22.5 51.5t-42 37.5t-64.5 16q-34 0 -60.5 -12t-41 -33.5t-24 -42t-13 -47
t-4.5 -39t-1 -26.5q0 -18 1 -33t8.5 -47t20.5 -53.5t42 -39t68 -17.5q54 0 88.5 33t45.5 74t11 88z" />
    <glyph glyph-name="c" unicode="c" horiz-adv-x="500" 
d="M469 341h-95q-9 105 -100 105q-130 0 -130 -189q0 -199 125 -199q55 0 81 32.5t28 76.5h95q-5 -77 -59 -128.5t-144 -51.5q-106 0 -165 65q-60 70 -60 192q0 75 21 130t56 84.5t72.5 43t78.5 13.5q102 0 154 -62q37 -43 42 -112z" />
    <glyph glyph-name="d" unicode="d" horiz-adv-x="611" 
d="M436 434v287h94v-641q0 -28 4 -80h-94l-2 80q-21 -36 -45 -53q-54 -37 -124 -37q-24 0 -48.5 5t-56 21.5t-55 43t-40 74.5t-16.5 111q0 135 65.5 204.5t161.5 69.5q107 0 156 -85zM439 258q0 91 -38 140q-39 51 -110 51q-28 0 -51 -9.5t-37 -24t-24 -35.5t-15 -38
t-7.5 -39.5t-3 -32.5t-0.5 -22q0 -192 138 -192q42 0 72 18t44 40.5t22 56.5t9 50t1 37z" />
    <glyph glyph-name="e" unicode="e" 
d="M506 234h-361q-2 -82 34 -131.5t110 -49.5q48 0 80 26t38 78h94q-8 -67 -43 -105q-59 -67 -173 -67q-116 0 -174.5 67.5t-58.5 189.5q0 81 21.5 139t77.5 97q52 37 137 37q54 0 94.5 -15t62.5 -39.5t37 -55t18 -62t6 -60t0 -49.5zM149 300h261q0 23 -3.5 44t-14.5 47
t-38 41.5t-68 15.5q-54 0 -95 -36t-42 -112z" />
    <glyph glyph-name="f" unicode="f" horiz-adv-x="333" 
d="M339 727v-75q-32 2 -55 2q-27 0 -43.5 -5.5t-23 -18.5t-8 -22t-1.5 -27v-79h117v-68h-117v-434h-93v434h-99v68h99v57q0 52 4 76.5t17 43.5q36 55 126 55q30 0 77 -7z" />
    <glyph glyph-name="g" unicode="g" horiz-adv-x="611" 
d="M78 -39h100q3 -47 29 -72.5t88 -25.5q32 0 55 7t37.5 23.5t23 33t12 48t4.5 54t1 65.5q-41 -85 -165 -85q-104 0 -154 62q-57 68 -57 185q0 122 63 187.5t160 65.5q46 0 82 -15.5t48 -27.5t28 -33l1 69h91l-2 -91l-1 -314q0 -94 -4.5 -137t-19.5 -71q-47 -90 -209 -90
q-42 0 -75 6t-54.5 14t-37 23t-23.5 26.5t-12.5 31t-6 30.5t-2.5 31zM287 79q72 0 110 50q18 23 26 52t8 92q0 84 -39 125q-41 44 -108 44q-42 0 -71 -19t-41.5 -50t-17.5 -58.5t-5 -56.5q0 -33 6 -61.5t19.5 -56.5t42.5 -44.5t70 -16.5z" />
    <glyph glyph-name="h" unicode="h" horiz-adv-x="611" 
d="M88 0v721h95v-293q23 39 66.5 61t96.5 22q48 0 93 -19t65 -61q17 -34 17 -117v-314h-96v297q0 20 -0.5 33t-6.5 36t-16.5 37t-32 25t-52.5 11q-82 0 -118 -67q-16 -28 -16 -106v-266h-95z" />
    <glyph glyph-name="i" unicode="i" horiz-adv-x="278" 
d="M79 617v103h113v-103h-113zM89 0v502h94v-502h-94z" />
    <glyph glyph-name="j" unicode="j" horiz-adv-x="278" 
d="M82 616v104h114v-104h-114zM-1 -193v67q56 -2 74 14.5t18 75.5v538h94v-549q0 -20 -1 -34.5t-8 -38.5t-19.5 -39t-38 -26.5t-61.5 -11.5q-23 0 -58 4z" />
    <glyph glyph-name="k" unicode="k" horiz-adv-x="500" 
d="M81 0v727h93v-430l188 205h123l-212 -213l225 -289h-123l-201 271v-271h-93z" />
    <glyph glyph-name="l" unicode="l" horiz-adv-x="278" 
d="M90 0v721h94v-721h-94z" />
    <glyph glyph-name="m" unicode="m" horiz-adv-x="944" 
d="M87 0v435l-2 67h95v-73q52 86 159 86q39 0 69 -9t48.5 -25t28 -29t18.5 -31q57 94 169 94q31 0 60 -7.5t58.5 -25.5t47.5 -55.5t18 -89.5v-337h-95v322q0 51 -17 76q-31 44 -96 44q-69 0 -107 -53q-22 -31 -22 -108v-281h-95v332q0 49 -28.5 79.5t-81.5 30.5
q-70 0 -110 -55q-22 -30 -22 -102v-285h-95z" />
    <glyph glyph-name="n" unicode="n" horiz-adv-x="611" 
d="M91 0v444l-1 58h94l1 -81q48 91 161 91q17 0 36.5 -2.5t47 -13.5t48 -28t35.5 -50t15 -77v-341h-96v319q0 59 -27 86q-35 34 -89 34q-55 0 -93 -39t-38 -111v-289h-94z" />
    <glyph glyph-name="o" unicode="o" horiz-adv-x="611" 
d="M51 245q0 50 12.5 95t40.5 86t80 65t122 24q58 0 102.5 -17.5t71 -44.5t43.5 -63.5t23 -69.5t6 -68q0 -117 -65.5 -193t-188.5 -76q-120 0 -183.5 73t-63.5 189zM149 251q0 -84 38 -141t113 -57q62 0 107 49t45 153q0 92 -39.5 141.5t-106.5 49.5q-25 0 -50 -9t-50.5 -29
t-41 -60.5t-15.5 -96.5z" />
    <glyph glyph-name="p" unicode="p" horiz-adv-x="611" 
d="M85 -193v613q0 10 -3 82h95l2 -83q31 52 79 71.5t92 19.5q89 0 150 -64.5t61 -195.5q0 -132 -65.5 -200.5t-163.5 -68.5q-108 0 -154 75v-249h-93zM175 236q0 -186 141 -186q70 0 106 49q41 56 41 157q0 184 -138 184q-150 0 -150 -204z" />
    <glyph glyph-name="q" unicode="q" horiz-adv-x="611" 
d="M434 502h95q-2 -40 -2 -82v-613h-95v249q-19 -29 -41 -43q-46 -32 -113 -32q-98 0 -163.5 70t-65.5 202q0 129 61.5 193t149.5 64q114 0 171 -91zM435 241q0 199 -151 199q-38 0 -66 -16t-41 -36t-20.5 -49.5t-8.5 -45t-1 -34.5q0 -102 41 -160q34 -49 108 -49
q42 0 70.5 15t43 43.5t20 60t5.5 72.5z" />
    <glyph glyph-name="r" unicode="r" horiz-adv-x="389" 
d="M93 0v400q0 47 -5 102h95l2 -97q22 85 120 99q30 4 65 2v-92q-6 2 -18 4q-7 1 -27 1q-77 0 -107 -40t-30 -112v-267h-95z" />
    <glyph glyph-name="s" unicode="s" horiz-adv-x="500" 
d="M43 149h99q-1 -36 24 -63.5t86 -27.5q62 0 88 32q16 21 16 47q0 34 -23 47t-87 28q-41 9 -61.5 15t-50.5 18t-44.5 26t-25.5 37.5t-11 53.5q0 69 54.5 110.5t141.5 41.5q57 0 109 -18.5t72 -59.5q13 -28 13 -73h-96q1 27 -8.5 44.5t-27 25t-31 10t-30.5 2.5
q-12 0 -23 -1.5t-32 -7t-34 -22t-13 -41.5q0 -21 14 -35.5t25.5 -19t31.5 -9.5q110 -26 143.5 -37.5t55.5 -31.5q38 -35 38 -93q0 -40 -19.5 -74.5t-48.5 -52.5q-55 -34 -149 -34q-85 0 -141 39t-55 124z" />
    <glyph glyph-name="t" unicode="t" horiz-adv-x="333" 
d="M11 435v69h89v105l93 30v-135h112v-69h-112v-301q0 -14 1.5 -22t7 -20t20 -18.5t38.5 -6.5q25 0 45 5v-73q-34 -6 -78 -6q-67 0 -97 23.5t-30 83.5v335h-89z" />
    <glyph glyph-name="u" unicode="u" horiz-adv-x="611" 
d="M78 502h96v-323q0 -22 3.5 -38.5t13.5 -34.5t33 -28t57 -10q80 0 118 56q21 30 21 94v284h97v-408q0 -10 3 -94h-98l-2 86q-12 -24 -25.5 -40.5t-49 -33.5t-85.5 -17q-90 0 -136 46.5t-46 123.5v337z" />
    <glyph glyph-name="v" unicode="v" 
d="M222 0l-210 502h105l160 -398l156 398h104l-220 -502h-95z" />
    <glyph glyph-name="w" unicode="w" horiz-adv-x="833" 
d="M12 502h103l121 -400l127 400h123l114 -396l126 396h97l-177 -502h-108l-118 413l-131 -413h-111z" />
    <glyph glyph-name="x" unicode="x" 
d="M335 257l196 -257h-124l-143 201l-142 -201h-110l199 263l-188 239h123l134 -189l140 189h111z" />
    <glyph glyph-name="y" unicode="y" 
d="M537 502l-223 -505l-72 -187h-97l76 192l-209 500h106l157 -396l160 396h102z" />
    <glyph glyph-name="z" unicode="z" horiz-adv-x="444" 
d="M30 0v97l268 334h-254v71h361v-80l-277 -349h277v-73h-375z" />
    <glyph glyph-name="braceleft" unicode="{" horiz-adv-x="334" 
d="M-1 287v51q55 4 92 32q19 14 28 34t10.5 35.5t1.5 47.5v27q0 31 0.5 47t4.5 44t11 44t22 36.5t36.5 32t54 21t75.5 11.5v-51q-35 -3 -59.5 -15.5t-37 -26.5t-18.5 -39.5t-7 -41t-1 -44.5v-26q0 -31 -1 -48t-8 -46t-20 -46t-39.5 -32.5t-64.5 -20.5q38 -5 64.5 -20
t39.5 -32t20 -45.5t8 -46.5t1 -50v-31q0 -34 2.5 -53.5t13 -47t37.5 -42.5t70 -19v-51q-41 3 -72.5 11t-53 19t-36.5 29t-23 34.5t-12.5 41.5t-5.5 45t-1 49v34q0 21 -0.5 32.5t-4 30.5t-12 30.5t-22.5 24t-37.5 20t-55.5 11.5z" />
    <glyph glyph-name="bar" unicode="|" horiz-adv-x="260" 
d="M89 750h83v-1000h-83v1000z" />
    <glyph glyph-name="braceright" unicode="}" horiz-adv-x="334" 
d="M335 338v-51q-55 -4 -92 -32q-19 -14 -28 -34t-10.5 -35.5t-1.5 -47.5v-27q0 -31 -0.5 -47t-4.5 -44t-11 -44t-22 -36.5t-36.5 -32t-54 -21t-75.5 -11.5v51q35 3 59.5 15.5t37 26.5t18.5 39.5t7 41t1 44.5v26q0 25 0.5 39.5t4 39t12 40t22.5 33t38 28t56 14.5
q-27 3 -48.5 12t-35.5 19t-23.5 27t-14.5 30.5t-7.5 35t-3 34.5t-0.5 35v31q0 34 -2.5 53.5t-13 47t-37.5 42.5t-70 19v51q41 -3 72.5 -11t53 -19t36.5 -29t23 -34.5t12.5 -41.5t5.5 -45t1 -49v-34q0 -21 0.5 -32.5t4 -30.5t12 -30.5t22.5 -24t37.5 -20t55.5 -11.5z" />
    <glyph glyph-name="asciitilde" unicode="~" horiz-adv-x="584" 
d="M82 174h-55q10 70 40 107q37 44 92 44q25 0 46 -5.5t99 -30.5q101 -34 126 -34q59 0 73 73h54q-5 -46 -20.5 -78t-37 -46.5t-39.5 -20t-36 -5.5q-43 0 -161 41q-88 30 -108 30q-24 0 -45.5 -18.5t-27.5 -56.5z" />
    <glyph glyph-name="uni00A0" unicode="&#xa0;" horiz-adv-x="278" 
 />
    <glyph glyph-name="exclamdown" unicode="&#xa1;" horiz-adv-x="389" 
d="M134 402v100h106v-100h-106zM148 337h73l17 -557h-111z" />
    <glyph glyph-name="cent" unicode="&#xa2;" 
d="M497 341h-95q-6 47 -28 72l-100 -353q13 -3 22 -3q48 0 78.5 28.5t31.5 81.5h95q-5 -77 -59 -128.5t-146 -51.5q-24 0 -41 3l-39 -136h-49l42 148q-41 15 -70 44t-42.5 65.5t-19 68t-5.5 64.5q0 132 68 204q64 67 162 67q18 0 51 -5l34 120h48l-38 -135q37 -16 67 -53
t33 -101zM230 78l103 362q-18 6 -35 6q-55 0 -90 -44q-36 -45 -36 -142q0 -139 58 -182z" />
    <glyph glyph-name="sterling" unicode="&#xa3;" 
d="M106 347h-74v67h76q-4 104 8 155q3 12 8 26t21 37.5t37.5 41t60.5 31t87 13.5q117 0 178 -66q32 -34 32 -96h-98q-1 43 -30.5 70.5t-79.5 27.5q-64 0 -98 -42q-21 -26 -25.5 -53t-4.5 -103v-42h141v-67h-141v-280h319v-67h-484v68h67v279z" />
    <glyph glyph-name="currency" unicode="&#xa4;" 
d="M40 157l65 65q-40 60 -40 124q0 68 40 125l-65 65l49 49l65 -65q57 39 125 39q60 0 124 -40l64 65l49 -49l-65 -65q40 -53 40 -124q0 -65 -40 -123l65 -66l-49 -49l-65 65q-59 -40 -123 -40q-69 0 -124 40l-66 -65zM278 485q-57 0 -98 -40.5t-41 -98.5q0 -57 40.5 -98
t98.5 -41t98.5 40.5t40.5 98.5t-41 98.5t-98 40.5z" />
    <glyph glyph-name="yen" unicode="&#xa5;" 
d="M44 164v61h183v55h-183v62h154l-198 380h124l158 -354l161 354h113l-196 -380h151v-62h-183v-55h183v-61h-183v-164h-101v164h-183z" />
    <glyph glyph-name="brokenbar" unicode="&#xa6;" horiz-adv-x="260" 
d="M89 675h83v-350h-83v350zM89 175h83v-350h-83v350z" />
    <glyph glyph-name="section" unicode="&#xa7;" 
d="M111 0v86q64 -32 133 -32q32 0 54.5 9.5t31 24t11.5 24.5t3 18q0 21 -13 36.5t-28 23t-38 14.5l-68 21q-20 7 -31 12t-31 18t-30 35t-10 51q0 90 109 130q-94 28 -94 115q0 66 48.5 102.5t131.5 36.5q61 0 119 -17v-78q-72 28 -111 28q-91 0 -91 -66q0 -21 10 -34.5
t20.5 -18.5t31.5 -12l63 -21q19 -6 31.5 -12t31.5 -19t29 -35.5t10 -52.5q0 -98 -102 -128q20 -6 33.5 -12t34 -20.5t32 -38.5t11.5 -57q0 -67 -54.5 -109.5t-152.5 -42.5q-62 0 -125 21zM266 282q85 31 85 88q0 18 -6.5 31t-22 22t-26.5 13.5t-33 11.5q-17 -7 -26.5 -12
t-24.5 -15.5t-22.5 -26t-7.5 -34.5q0 -55 84 -78z" />
    <glyph glyph-name="dieresis" unicode="&#xa8;" horiz-adv-x="278" 
d="M-3 617v102h92v-102h-92zM186 617v102h93v-102h-93z" />
    <glyph glyph-name="copyright" unicode="&#xa9;" horiz-adv-x="822" 
d="M571 462h-64q-10 75 -93 75q-36 0 -62 -17t-37.5 -45.5t-16.5 -56t-5 -58.5q0 -168 121 -168q45 0 69 25q18 20 21 45h66q-6 -59 -52.5 -89t-108.5 -30q-53 0 -91 21.5t-56 56.5t-25.5 68.5t-7.5 69.5q0 38 8.5 74t27.5 72t58.5 58t93.5 22q57 0 103 -28.5t51 -94.5z
M411 741q156 0 267 -110.5t111 -267.5q0 -158 -111.5 -269t-266.5 -111q-154 0 -266 111t-112 269q0 157 112.5 267.5t265.5 110.5zM411 696q-137 0 -235 -98t-98 -235q0 -140 98 -238t235 -98q138 0 235.5 98.5t97.5 237.5q0 136 -97 234.5t-236 98.5z" />
    <glyph glyph-name="ordfeminine" unicode="&#xaa;" horiz-adv-x="334" 
d="M299 431h-55q-6 21 -6 45q-32 -55 -102 -55q-48 0 -80.5 23.5t-32.5 66.5q0 40 27 65t61.5 33.5t77.5 8.5q32 0 48 -2q0 19 -0.5 29t-4 23t-10.5 19t-20 10.5t-32 4.5q-63 0 -67 -50h-61q3 51 43 71q31 18 85 18q95 0 118 -48q10 -22 8 -43l-2 -143q0 -36 5 -76zM237 577
q-18 0 -52 2t-67.5 -13.5t-33.5 -47.5q0 -19 15.5 -35.5t52.5 -16.5q54 0 75 41q8 19 10 70z" />
    <glyph glyph-name="guillemotleft" unicode="&#xab;" 
d="M274 53h-80l-111 196l111 194h79l-97 -194zM470 53h-80l-111 196l111 194h79l-97 -194z" />
    <glyph glyph-name="logicalnot" unicode="&#xac;" horiz-adv-x="584" 
d="M37 314v77h510v-280h-80v203h-430z" />
    <glyph glyph-name="uni00AD" unicode="&#xad;" horiz-adv-x="333" 
d="M42 225v76h251v-76h-251z" />
    <glyph glyph-name="registered" unicode="&#xae;" horiz-adv-x="411" 
d="M136 452v203h72q69 0 69 -51q0 -38 -38 -49q16 -4 22.5 -12t8.5 -27q5 -45 12 -64h-29q-6 18 -10 53q-2 23 -10.5 31t-33.5 8h-35v-92h-28zM164 631v-63h44q40 0 40 31q0 32 -40 32h-44zM205 741q78 0 133.5 -55t55.5 -134t-55.5 -134.5t-133.5 -55.5q-77 0 -133 55.5
t-56 134.5t56 134t133 55zM205 719q-68 0 -117 -49t-49 -118q0 -70 48.5 -119t117.5 -49t118 49t49 119q0 68 -48.5 117.5t-118.5 49.5z" />
    <glyph glyph-name="macron" unicode="&#xaf;" horiz-adv-x="278" 
d="M0 642v53h275v-53h-275z" />
    <glyph glyph-name="degree" unicode="&#xb0;" horiz-adv-x="400" 
d="M200 706q65 0 110.5 -45.5t45.5 -110.5q0 -64 -45.5 -110t-110.5 -46q-64 0 -110 46t-46 110q0 65 45.5 110.5t110.5 45.5zM200 637q-36 0 -61.5 -25.5t-25.5 -61.5t25.5 -61.5t61.5 -25.5t61.5 25.5t25.5 61.5t-25.5 61.5t-61.5 25.5z" />
    <glyph glyph-name="plusminus" unicode="&#xb1;" horiz-adv-x="584" 
d="M250 104v166h-213v77h213v168h84v-168h213v-77h-213v-166h-84zM37 -13v77h510v-77h-510z" />
    <glyph glyph-name="twosuperior" unicode="&#xb2;" horiz-adv-x="360" 
d="M32 284v54l119 107q61 55 81 85.5t20 60.5q0 32 -20 49.5t-53 17.5q-64 0 -70 -72h-73q2 37 17 63t39 37t44 15.5t41 4.5q66 0 105.5 -30.5t39.5 -89.5q0 -46 -50 -103q-34 -39 -85 -83l-78 -69h214v-47h-291z" />
    <glyph glyph-name="threesuperior" unicode="&#xb3;" horiz-adv-x="360" 
d="M17 390h73q0 -33 22.5 -50.5t62.5 -17.5q43 0 65.5 22t22.5 53q0 83 -127 75v49q7 -3 26.5 -0.5t40.5 7t37 21.5t16 44q0 36 -24 51t-55 15q-35 0 -58 -18t-24 -48h-71q2 61 47.5 87t103.5 26q74 0 113 -32.5t39 -79.5q0 -31 -22 -59.5t-73 -37.5q28 -4 49 -15.5
t30.5 -23.5t15 -27.5t6 -22t0.5 -12.5q0 -52 -44 -87.5t-120 -35.5q-145 0 -152 117z" />
    <glyph glyph-name="acute" unicode="&#xb4;" horiz-adv-x="278" 
d="M162 740h104l-121 -144h-65z" />
    <glyph glyph-name="mu" unicode="&#xb5;" horiz-adv-x="611" 
d="M89 -209v711h80v-242q0 -106 23 -146q33 -56 101 -56q72 0 109 63q25 43 25 141v240h81v-502h-74v70q-56 -81 -143 -81q-35 0 -62.5 13t-36.5 22.5t-23 27.5v-261h-80z" />
    <glyph glyph-name="paragraph" unicode="&#xb6;" horiz-adv-x="537" 
d="M526 658h-54v-826h-78v826h-117v-826h-79v432q-56 4 -97 25.5t-63.5 54.5t-32.5 68t-10 74q0 31 7 62t25.5 63t46.5 56t74.5 39.5t105.5 15.5h272v-64z" />
    <glyph glyph-name="periodcentered" unicode="&#xb7;" horiz-adv-x="278" 
d="M81 231v121h111v-121h-111z" />
    <glyph glyph-name="cedilla" unicode="&#xb8;" horiz-adv-x="278" 
d="M22 -194l20 37q26 -14 67 -14q53 0 53 40q0 39 -51 39q-15 0 -36 -8l-15 17l63 88h42l-45 -63q28 5 40 5q40 0 59 -22t19 -49q0 -6 -1 -13t-7.5 -22t-18 -26t-36.5 -20t-59 -9q-48 0 -94 20z" />
    <glyph glyph-name="onesuperior" unicode="&#xb9;" horiz-adv-x="360" 
d="M239 284h-67v350q-47 -35 -105 -61v61q66 31 109 65h63v-415z" />
    <glyph glyph-name="ordmasculine" unicode="&#xba;" horiz-adv-x="367" 
d="M208 740q48 0 82 -16t50.5 -42t23 -50.5t6.5 -50.5q0 -71 -43.5 -116t-119.5 -45q-82 0 -122.5 45.5t-40.5 112.5q0 69 41 115.5t123 46.5zM206 463q40 0 69.5 29.5t29.5 90.5q0 47 -21.5 81t-74.5 34q-50 0 -75.5 -34.5t-25.5 -81.5t23 -83t75 -36z" />
    <glyph glyph-name="guillemotright" unicode="&#xbb;" 
d="M81 443h80l111 -195l-111 -195h-79l97 195zM277 443h79l112 -195l-112 -195h-78l97 195z" />
    <glyph glyph-name="onequarter" unicode="&#xbc;" horiz-adv-x="834" 
d="M204 284h-67v350q-47 -35 -105 -61v61q66 31 109 65h63v-415zM137 -28l430 743h64l-429 -743h-65zM670 0v90h-202v71l194 260h75v-281h56v-50h-56v-90h-67zM515 140h157v218z" />
    <glyph glyph-name="onehalf" unicode="&#xbd;" horiz-adv-x="834" 
d="M197 284h-67v350q-47 -35 -105 -61v61q66 31 109 65h63v-415zM130 -28l430 743h64l-429 -743h-65zM497 0v54l119 107q61 55 81 85.5t20 60.5q0 32 -20 49.5t-53 17.5q-64 0 -70 -72h-73q2 37 17 63t39 37t44 15.5t41 4.5q66 0 105.5 -30.5t39.5 -89.5q0 -46 -50 -103
q-34 -39 -85 -83l-78 -69h214v-47h-291z" />
    <glyph glyph-name="threequarters" unicode="&#xbe;" horiz-adv-x="834" 
d="M22 390h73q0 -33 22.5 -50.5t62.5 -17.5q43 0 65.5 22t22.5 53q0 83 -127 75v49q7 -3 26.5 -0.5t40.5 7t37 21.5t16 44q0 36 -24 51t-55 15q-35 0 -58 -18t-24 -48h-71q2 61 47.5 87t103.5 26q74 0 113 -32.5t39 -79.5q0 -31 -22 -59.5t-73 -37.5q28 -4 49 -15.5
t30.5 -23.5t15 -27.5t6 -22t0.5 -12.5q0 -52 -44 -87.5t-120 -35.5q-145 0 -152 117zM197 -28l430 743h64l-429 -743h-65zM690 0v90h-202v71l194 260h75v-281h56v-50h-56v-90h-67zM535 140h157v218z" />
    <glyph glyph-name="questiondown" unicode="&#xbf;" horiz-adv-x="500" 
d="M438 -123v-90q-75 -21 -142 -21q-128 0 -187 62q-45 48 -45 117q0 54 24.5 91t96.5 108l15.5 16l27.5 28l13 13q8 11 8 31v106h83v-105q0 -31 -7 -46t-45 -55l-65.5 -72.5t-33 -50t-14.5 -56.5q0 -35 16.5 -58.5t43 -32t42.5 -11t33 -2.5q67 0 136 28zM340 502v-102h-104
v102h104z" />
    <glyph glyph-name="Agrave" unicode="&#xc0;" horiz-adv-x="722" 
d="M9 0l304 722h107l292 -722h-109l-78 188h-335l-78 -188h-103zM362 623l-140 -354h273zM224 930h113l84 -144h-62z" />
    <glyph glyph-name="Aacute" unicode="&#xc1;" horiz-adv-x="722" 
d="M9 0l304 722h107l292 -722h-109l-78 188h-335l-78 -188h-103zM362 623l-140 -354h273zM384 930h104l-121 -144h-65z" />
    <glyph glyph-name="Acircumflex" unicode="&#xc2;" horiz-adv-x="722" 
d="M9 0l304 722h107l292 -722h-109l-78 188h-335l-78 -188h-103zM362 623l-140 -354h273zM286 786h-77l106 145h90l104 -145h-86l-66 96z" />
    <glyph glyph-name="Atilde" unicode="&#xc3;" horiz-adv-x="722" 
d="M9 0l304 722h107l292 -722h-109l-78 188h-335l-78 -188h-103zM362 623l-140 -354h273zM262 802h-42q1 43 24 70q22 28 61 28q17 0 77 -17q26 -7 37 -7q37 0 37 37h41q2 -52 -24.5 -76.5t-59.5 -24.5q-21 0 -63 13l-19 5.5t-20 5.5t-11 2q-27 0 -38 -36z" />
    <glyph glyph-name="Adieresis" unicode="&#xc4;" horiz-adv-x="722" 
d="M9 0l304 722h107l292 -722h-109l-78 188h-335l-78 -188h-103zM362 623l-140 -354h273zM219 797v102h92v-102h-92zM408 797v102h93v-102h-93z" />
    <glyph glyph-name="Aring" unicode="&#xc5;" horiz-adv-x="722" 
d="M9 0l304 722h107l292 -722h-109l-78 188h-335l-78 -188h-103zM362 623l-140 -354h273zM263 849q0 41 28.5 69.5t69.5 28.5t69.5 -28.5t28.5 -69.5t-28.5 -69.5t-69.5 -28.5t-69.5 28.5t-28.5 69.5zM303 849q0 -24 17 -41t41 -17t41 17t17 41t-17 41t-41 17t-41 -17
t-17 -41z" />
    <glyph glyph-name="AE" unicode="&#xc6;" horiz-adv-x="1000" 
d="M547 201h-320l-115 -201h-110l421 722h520v-85h-371l38 -223h319v-85h-304l42 -243h287v-86h-373zM273 282h259l-57 366z" />
    <glyph glyph-name="Ccedilla" unicode="&#xc7;" horiz-adv-x="667" 
d="M518 190h110q-10 -95 -80.5 -145t-166.5 -56l-34 -47q25 5 39 5q40 0 59.5 -22t19.5 -49q0 -6 -1 -13t-7.5 -22t-18.5 -26t-37 -20t-59 -9q-48 0 -94 20l20 37q26 -14 67 -14q54 0 54 40q0 39 -51 39q-16 0 -37 -8l-15 17l52 72q-63 3 -113 26.5t-81.5 59t-52 83.5
t-28.5 95.5t-8 99.5q0 50 7.5 98t29.5 100.5t56 91t91.5 64t131.5 25.5q42 0 82 -9.5t80 -31t66 -64t31 -100.5h-107q-2 14 -4 23t-12.5 31t-25.5 35t-45 24.5t-69 11.5q-50 0 -88 -20t-59.5 -50t-35 -71.5t-18 -79t-4.5 -77.5q0 -56 9 -102.5t30.5 -89t63.5 -67t101 -24.5
q75 0 117 43q27 29 35 76z" />
    <glyph glyph-name="Egrave" unicode="&#xc8;" horiz-adv-x="617" 
d="M90 0v722h453v-85h-353v-225h336v-84h-336v-240h361v-88h-461zM183 930h113l84 -144h-62z" />
    <glyph glyph-name="Eacute" unicode="&#xc9;" horiz-adv-x="617" 
d="M90 0v722h453v-85h-353v-225h336v-84h-336v-240h361v-88h-461zM343 930h104l-121 -144h-65z" />
    <glyph glyph-name="Ecircumflex" unicode="&#xca;" horiz-adv-x="617" 
d="M90 0v722h453v-85h-353v-225h336v-84h-336v-240h361v-88h-461zM245 786h-77l106 145h90l104 -145h-86l-66 96z" />
    <glyph glyph-name="Edieresis" unicode="&#xcb;" horiz-adv-x="617" 
d="M90 0v722h453v-85h-353v-225h336v-84h-336v-240h361v-88h-461zM178 797v102h92v-102h-92zM367 797v102h93v-102h-93z" />
    <glyph glyph-name="Igrave" unicode="&#xcc;" horiz-adv-x="278" 
d="M88 0v722h100v-722h-100zM2 930h113l84 -144h-62z" />
    <glyph glyph-name="Iacute" unicode="&#xcd;" horiz-adv-x="278" 
d="M88 0v722h100v-722h-100zM162 930h104l-121 -144h-65z" />
    <glyph glyph-name="Icircumflex" unicode="&#xce;" horiz-adv-x="278" 
d="M88 0v722h100v-722h-100zM64 786h-77l106 145h90l104 -145h-86l-66 96z" />
    <glyph glyph-name="Idieresis" unicode="&#xcf;" horiz-adv-x="278" 
d="M88 0v722h100v-722h-100zM-3 797v102h92v-102h-92zM186 797v102h93v-102h-93z" />
    <glyph glyph-name="Eth" unicode="&#xd0;" horiz-adv-x="722" 
d="M88 0v369h-70v61h70v292h209q50 0 78 -2t71.5 -9.5t78.5 -28.5t63 -54q89 -104 89 -273q0 -107 -35.5 -182t-84.5 -114q-33 -28 -80 -41.5t-82 -15.5t-104 -2h-203zM188 369v-287h98q136 0 189 40q95 71 95 229q0 148 -70 225q-33 36 -77.5 49.5t-114.5 13.5h-120v-209
h192v-61h-192z" />
    <glyph glyph-name="Ntilde" unicode="&#xd1;" horiz-adv-x="766" 
d="M90 0v722h139l355 -597v597h92v-722h-128l-367 613v-613h-91zM285 802h-42q1 43 24 70q22 28 61 28q18 0 77 -17q26 -7 37 -7q37 0 37 37h41q2 -52 -24.5 -76.5t-59.5 -24.5q-21 0 -63 13l-19 5.5t-20 5.5t-11 2q-27 0 -38 -36z" />
    <glyph glyph-name="Ograve" unicode="&#xd2;" horiz-adv-x="778" 
d="M59 356q0 188 93 288q91 97 241 97q152 0 239 -96.5t87 -276.5q0 -77 -16.5 -142t-53.5 -121.5t-104.5 -89t-159.5 -32.5q-89 0 -154 30t-101.5 83.5t-53.5 117.5t-17 142zM164 362q0 -149 64 -228q53 -66 160 -66q104 0 160 66q65 81 65 235q0 288 -219 288
q-230 0 -230 -295zM252 930h113l84 -144h-62z" />
    <glyph glyph-name="Oacute" unicode="&#xd3;" horiz-adv-x="778" 
d="M59 356q0 188 93 288q91 97 241 97q152 0 239 -96.5t87 -276.5q0 -77 -16.5 -142t-53.5 -121.5t-104.5 -89t-159.5 -32.5q-89 0 -154 30t-101.5 83.5t-53.5 117.5t-17 142zM164 362q0 -149 64 -228q53 -66 160 -66q104 0 160 66q65 81 65 235q0 288 -219 288
q-230 0 -230 -295zM412 930h104l-121 -144h-65z" />
    <glyph glyph-name="Ocircumflex" unicode="&#xd4;" horiz-adv-x="778" 
d="M59 356q0 188 93 288q91 97 241 97q152 0 239 -96.5t87 -276.5q0 -77 -16.5 -142t-53.5 -121.5t-104.5 -89t-159.5 -32.5q-89 0 -154 30t-101.5 83.5t-53.5 117.5t-17 142zM164 362q0 -149 64 -228q53 -66 160 -66q104 0 160 66q65 81 65 235q0 288 -219 288
q-230 0 -230 -295zM314 786h-77l106 145h90l104 -145h-86l-66 96z" />
    <glyph glyph-name="Otilde" unicode="&#xd5;" horiz-adv-x="778" 
d="M59 356q0 188 93 288q91 97 241 97q152 0 239 -96.5t87 -276.5q0 -77 -16.5 -142t-53.5 -121.5t-104.5 -89t-159.5 -32.5q-89 0 -154 30t-101.5 83.5t-53.5 117.5t-17 142zM164 362q0 -149 64 -228q53 -66 160 -66q104 0 160 66q65 81 65 235q0 288 -219 288
q-230 0 -230 -295zM290 802h-42q1 43 24 70q22 28 61 28q17 0 77 -17q26 -7 37 -7q37 0 37 37h41q2 -52 -24.5 -76.5t-59.5 -24.5q-21 0 -63 13l-19 5.5t-20 5.5t-11 2q-27 0 -38 -36z" />
    <glyph glyph-name="Odieresis" unicode="&#xd6;" horiz-adv-x="778" 
d="M59 356q0 188 93 288q91 97 241 97q152 0 239 -96.5t87 -276.5q0 -77 -16.5 -142t-53.5 -121.5t-104.5 -89t-159.5 -32.5q-89 0 -154 30t-101.5 83.5t-53.5 117.5t-17 142zM164 362q0 -149 64 -228q53 -66 160 -66q104 0 160 66q65 81 65 235q0 288 -219 288
q-230 0 -230 -295zM247 797v102h92v-102h-92zM436 797v102h93v-102h-93z" />
    <glyph glyph-name="multiply" unicode="&#xd7;" horiz-adv-x="584" 
d="M47 65l186 186l-186 186l57 57l186 -185l186 185l58 -57l-186 -186l185 -186l-57 -57l-186 186l-186 -186z" />
    <glyph glyph-name="Oslash" unicode="&#xd8;" horiz-adv-x="778" 
d="M638 799h62l-86 -136q105 -96 105 -300q0 -53 -8.5 -102t-31 -101t-58.5 -90t-96 -62.5t-137 -24.5q-97 0 -183 44l-74 -115h-63l95 147q-19 19 -31.5 35.5t-32 52t-30 89.5t-10.5 122q0 193 98 293q89 90 234 90q102 0 180 -46zM219 147l304 472q-46 38 -132 38
q-52 0 -92.5 -17t-65.5 -45t-41 -67.5t-22 -80t-6 -86.5q0 -137 55 -214zM559 579l-303 -472q48 -39 133 -39q65 0 111.5 26t69.5 71.5t33 94t10 107.5q0 135 -54 212z" />
    <glyph glyph-name="Ugrave" unicode="&#xd9;" horiz-adv-x="763" 
d="M87 722h100v-447q0 -88 32 -130q52 -71 165 -71q195 0 195 205v443h97v-445q0 -120 -59 -192q-82 -100 -233 -100q-68 0 -139 25.5t-116 89.5q-42 64 -42 182v440zM246 930h113l84 -144h-62z" />
    <glyph glyph-name="Uacute" unicode="&#xda;" horiz-adv-x="763" 
d="M87 722h100v-447q0 -88 32 -130q52 -71 165 -71q195 0 195 205v443h97v-445q0 -120 -59 -192q-82 -100 -233 -100q-68 0 -139 25.5t-116 89.5q-42 64 -42 182v440zM406 930h104l-121 -144h-65z" />
    <glyph glyph-name="Ucircumflex" unicode="&#xdb;" horiz-adv-x="763" 
d="M87 722h100v-447q0 -88 32 -130q52 -71 165 -71q195 0 195 205v443h97v-445q0 -120 -59 -192q-82 -100 -233 -100q-68 0 -139 25.5t-116 89.5q-42 64 -42 182v440zM308 786h-77l106 145h90l104 -145h-86l-66 96z" />
    <glyph glyph-name="Udieresis" unicode="&#xdc;" horiz-adv-x="763" 
d="M87 722h100v-447q0 -88 32 -130q52 -71 165 -71q195 0 195 205v443h97v-445q0 -120 -59 -192q-82 -100 -233 -100q-68 0 -139 25.5t-116 89.5q-42 64 -42 182v440zM241 797v102h92v-102h-92zM430 797v102h93v-102h-93z" />
    <glyph glyph-name="Yacute" unicode="&#xdd;" horiz-adv-x="667" 
d="M289 0v284l-282 438h124l213 -354l216 354h112l-282 -443v-279h-101zM385 930h104l-121 -144h-65z" />
    <glyph glyph-name="Thorn" unicode="&#xde;" horiz-adv-x="611" 
d="M88 719h100v-118h142q81 0 123.5 -12.5t73.5 -45.5q53 -54 53 -140q0 -84 -57 -141q-31 -31 -78.5 -46.5t-139.5 -15.5h-117v-200h-100v719zM188 520v-236h119q25 0 43 1.5t43.5 8t41.5 19t27.5 36.5t11.5 58q0 32 -11 55t-24.5 34t-37.5 16.5t-37.5 6.5t-35.5 1h-140z
" />
    <glyph glyph-name="germandbls" unicode="&#xdf;" horiz-adv-x="667" 
d="M90 0v528q0 30 3 53.5t16.5 54t36.5 50.5t67.5 34.5t105.5 14.5q53 0 98 -12t79.5 -47t34.5 -90q0 -35 -13 -57.5t-41 -43.5q-45 -34 -57 -47.5t-12 -33.5q0 -26 26 -43l87 -57q50 -32 70 -63t20 -75q0 -81 -57 -128t-139 -47q-119 0 -152 80q-12 30 -12 73h92
q-1 -40 21.5 -61.5t59.5 -21.5q49 0 70.5 28.5t21.5 61.5q0 25 -11.5 44.5t-23 29t-33.5 23.5l-60 37q-76 46 -76 106q0 27 13 50t26.5 35t43.5 34q17 12 24.5 19t13.5 20t6 30q0 40 -31 66t-93 26q-71 0 -101 -33.5t-30 -112.5v-525h-94z" />
    <glyph glyph-name="agrave" unicode="&#xe0;" 
d="M479 0h-85q-9 32 -9 75q-49 -91 -155 -91q-84 0 -130.5 41.5t-46.5 106.5q0 97 88 147q60 33 174 33q39 0 68 -3q0 37 -0.5 53t-4.5 32t-13 26q-25 33 -87 33q-33 0 -55.5 -10t-31 -26t-11.5 -27t-3 -22h-94q7 61 35 95q48 54 162 54q59 0 109 -19t69 -55q17 -33 17 -77
l-4 -240q0 -75 8 -126zM383 244q-17 3 -54 3q-181 0 -181 -102q0 -32 24 -59.5t80 -27.5q72 0 107 54q10 16 15 36t6 35t3 61zM141 740h113l84 -144h-62z" />
    <glyph glyph-name="aacute" unicode="&#xe1;" 
d="M479 0h-85q-9 32 -9 75q-49 -91 -155 -91q-84 0 -130.5 41.5t-46.5 106.5q0 97 88 147q60 33 174 33q39 0 68 -3q0 37 -0.5 53t-4.5 32t-13 26q-25 33 -87 33q-33 0 -55.5 -10t-31 -26t-11.5 -27t-3 -22h-94q7 61 35 95q48 54 162 54q59 0 109 -19t69 -55q17 -33 17 -77
l-4 -240q0 -75 8 -126zM383 244q-17 3 -54 3q-181 0 -181 -102q0 -32 24 -59.5t80 -27.5q72 0 107 54q10 16 15 36t6 35t3 61zM301 740h104l-121 -144h-65z" />
    <glyph glyph-name="acircumflex" unicode="&#xe2;" 
d="M479 0h-85q-9 32 -9 75q-49 -91 -155 -91q-84 0 -130.5 41.5t-46.5 106.5q0 97 88 147q60 33 174 33q39 0 68 -3q0 37 -0.5 53t-4.5 32t-13 26q-25 33 -87 33q-33 0 -55.5 -10t-31 -26t-11.5 -27t-3 -22h-94q7 61 35 95q48 54 162 54q59 0 109 -19t69 -55q17 -33 17 -77
l-4 -240q0 -75 8 -126zM383 244q-17 3 -54 3q-181 0 -181 -102q0 -32 24 -59.5t80 -27.5q72 0 107 54q10 16 15 36t6 35t3 61zM203 596h-77l106 145h90l104 -145h-86l-66 96z" />
    <glyph glyph-name="atilde" unicode="&#xe3;" 
d="M479 0h-85q-9 32 -9 75q-49 -91 -155 -91q-84 0 -130.5 41.5t-46.5 106.5q0 97 88 147q60 33 174 33q39 0 68 -3q0 37 -0.5 53t-4.5 32t-13 26q-25 33 -87 33q-33 0 -55.5 -10t-31 -26t-11.5 -27t-3 -22h-94q7 61 35 95q48 54 162 54q59 0 109 -19t69 -55q17 -33 17 -77
l-4 -240q0 -75 8 -126zM383 244q-17 3 -54 3q-181 0 -181 -102q0 -32 24 -59.5t80 -27.5q72 0 107 54q10 16 15 36t6 35t3 61zM179 612h-42q1 43 24 70q22 28 61 28q18 0 77 -17q26 -7 37 -7q37 0 37 37h41q2 -52 -24.5 -76.5t-59.5 -24.5q-21 0 -63 13l-19 5.5t-20 5.5
t-11 2q-27 0 -38 -36z" />
    <glyph glyph-name="adieresis" unicode="&#xe4;" 
d="M479 0h-85q-9 32 -9 75q-49 -91 -155 -91q-84 0 -130.5 41.5t-46.5 106.5q0 97 88 147q60 33 174 33q39 0 68 -3q0 37 -0.5 53t-4.5 32t-13 26q-25 33 -87 33q-33 0 -55.5 -10t-31 -26t-11.5 -27t-3 -22h-94q7 61 35 95q48 54 162 54q59 0 109 -19t69 -55q17 -33 17 -77
l-4 -240q0 -75 8 -126zM383 244q-17 3 -54 3q-181 0 -181 -102q0 -32 24 -59.5t80 -27.5q72 0 107 54q10 16 15 36t6 35t3 61zM156 617v102h92v-102h-92zM345 617v102h93v-102h-93z" />
    <glyph glyph-name="aring" unicode="&#xe5;" 
d="M479 0h-85q-9 32 -9 75q-49 -91 -155 -91q-84 0 -130.5 41.5t-46.5 106.5q0 97 88 147q60 33 174 33q39 0 68 -3q0 37 -0.5 53t-4.5 32t-13 26q-25 33 -87 33q-33 0 -55.5 -10t-31 -26t-11.5 -27t-3 -22h-94q7 61 35 95q48 54 162 54q59 0 109 -19t69 -55q17 -33 17 -77
l-4 -240q0 -75 8 -126zM383 244q-17 3 -54 3q-181 0 -181 -102q0 -32 24 -59.5t80 -27.5q72 0 107 54q10 16 15 36t6 35t3 61zM180 669q0 41 28.5 69.5t69.5 28.5t69.5 -28.5t28.5 -69.5t-28.5 -69.5t-69.5 -28.5t-69.5 28.5t-28.5 69.5zM220 669q0 -24 17 -41t41 -17t41 17
t17 41t-17 41t-41 17t-41 -17t-17 -41z" />
    <glyph glyph-name="ae" unicode="&#xe6;" horiz-adv-x="889" 
d="M734 155h96q-7 -52 -30 -88t-55 -52.5t-58.5 -22.5t-53.5 -6q-17 0 -33.5 2.5t-49.5 12t-61.5 36t-44.5 67.5q-49 -117 -195 -117q-103 0 -151 47t-48 110q0 56 38.5 100t113.5 56q53 8 132 8q11 0 34 -0.5t32 -0.5q0 21 -1.5 36t-8 36.5t-18.5 34.5t-36 23t-57 10
q-103 0 -108 -78h-93q7 76 59 110q53 35 137 35q146 0 179 -104q16 36 43 60t56.5 32.5t44.5 10.5t29 2q50 0 102 -24t80 -82q25 -51 25 -172h-347q3 -80 24 -116q18 -33 48.5 -50t64.5 -17q56 0 83 31.5t28 69.5zM488 304h248q0 49 -13 77q-27 64 -102 64q-68 0 -107 -54
q-21 -29 -26 -87zM400 241q-97 0 -119 -1q-139 -10 -139 -98q0 -45 34.5 -66.5t79.5 -21.5q79 0 119 64q25 39 25 123z" />
    <glyph glyph-name="ccedilla" unicode="&#xe7;" horiz-adv-x="500" 
d="M378 167h95q-4 -73 -53.5 -123.5t-133.5 -55.5l-33 -46q25 5 39 5q40 0 59.5 -22t19.5 -49q0 -6 -1 -13t-7.5 -22t-18 -26t-37 -20t-59.5 -9q-49 0 -93 20l19 37q28 -14 67 -14q54 0 54 40q0 39 -51 39q-15 0 -36 -8l-15 17l51 71q-56 6 -96.5 29.5t-62 59.5t-31 76
t-9.5 87q0 79 22 136t58 85.5t72.5 41t75.5 12.5q102 0 154 -62q37 -43 42 -112h-95q-9 105 -100 105q-130 0 -130 -189q0 -199 125 -199q55 0 81 32.5t28 76.5z" />
    <glyph glyph-name="egrave" unicode="&#xe8;" 
d="M506 234h-361q-2 -82 34 -131.5t110 -49.5q48 0 80 26t38 78h94q-8 -67 -43 -105q-59 -67 -173 -67q-117 0 -175 67.5t-58 189.5q0 81 21.5 139t77.5 97q51 37 137 37q40 0 72.5 -7.5t54.5 -23.5t38.5 -32t26 -41t15.5 -43t8 -46.5t2.5 -41.5t0.5 -37v-9zM149 300h261
q0 148 -124 148q-54 0 -94.5 -36t-42.5 -112zM141 740h113l84 -144h-62z" />
    <glyph glyph-name="eacute" unicode="&#xe9;" 
d="M506 234h-361q-2 -82 34 -131.5t110 -49.5q48 0 80 26t38 78h94q-8 -67 -43 -105q-59 -67 -173 -67q-117 0 -175 67.5t-58 189.5q0 81 21.5 139t77.5 97q51 37 137 37q40 0 72.5 -7.5t54.5 -23.5t38.5 -32t26 -41t15.5 -43t8 -46.5t2.5 -41.5t0.5 -37v-9zM149 300h261
q0 148 -124 148q-54 0 -94.5 -36t-42.5 -112zM301 740h104l-121 -144h-65z" />
    <glyph glyph-name="ecircumflex" unicode="&#xea;" 
d="M506 234h-361q-2 -82 34 -131.5t110 -49.5q48 0 80 26t38 78h94q-8 -67 -43 -105q-59 -67 -173 -67q-117 0 -175 67.5t-58 189.5q0 81 21.5 139t77.5 97q51 37 137 37q40 0 72.5 -7.5t54.5 -23.5t38.5 -32t26 -41t15.5 -43t8 -46.5t2.5 -41.5t0.5 -37v-9zM149 300h261
q0 148 -124 148q-54 0 -94.5 -36t-42.5 -112zM203 596h-77l106 145h90l104 -145h-86l-66 96z" />
    <glyph glyph-name="edieresis" unicode="&#xeb;" 
d="M506 234h-361q-2 -82 34 -131.5t110 -49.5q48 0 80 26t38 78h94q-8 -67 -43 -105q-59 -67 -173 -67q-117 0 -175 67.5t-58 189.5q0 81 21.5 139t77.5 97q51 37 137 37q40 0 72.5 -7.5t54.5 -23.5t38.5 -32t26 -41t15.5 -43t8 -46.5t2.5 -41.5t0.5 -37v-9zM149 300h261
q0 148 -124 148q-54 0 -94.5 -36t-42.5 -112zM136 617v102h92v-102h-92zM325 617v102h93v-102h-93z" />
    <glyph glyph-name="igrave" unicode="&#xec;" horiz-adv-x="278" 
d="M2 740h113l84 -144h-62zM93 0v502h94v-502h-94z" />
    <glyph glyph-name="iacute" unicode="&#xed;" horiz-adv-x="278" 
d="M162 740h104l-121 -144h-65zM93 0v502h94v-502h-94z" />
    <glyph glyph-name="icircumflex" unicode="&#xee;" horiz-adv-x="278" 
d="M64 596h-77l106 145h90l104 -145h-86l-66 96zM93 0v502h94v-502h-94z" />
    <glyph glyph-name="idieresis" unicode="&#xef;" horiz-adv-x="278" 
d="M-3 617v102h92v-102h-92zM186 617v102h93v-102h-93zM93 0v502h94v-502h-94z" />
    <glyph glyph-name="eth" unicode="&#xf0;" horiz-adv-x="611" 
d="M124 598l86 52q-54 34 -84 49l62 59q33 -17 101 -61l99 58l36 -36l-90 -52q34 -26 55 -43.5t57 -57t57 -77.5t38 -96t17 -122q0 -132 -67 -210t-189 -78q-110 0 -179 67t-69 194q0 69 21.5 121.5t56.5 82t74.5 44t81.5 14.5t76 -14t46.5 -26t28.5 -31q-52 93 -183 185
l-96 -57zM307 54q26 0 50.5 9.5t48 30.5t38 61.5t14.5 95.5q0 91 -39.5 141.5t-108.5 50.5q-70 0 -112.5 -50t-42.5 -144q0 -84 39 -139.5t113 -55.5z" />
    <glyph glyph-name="ntilde" unicode="&#xf1;" horiz-adv-x="611" 
d="M91 0v444l-1 58h94l1 -81q45 91 161 91q18 0 37 -2.5t46.5 -13t48 -28t35.5 -50.5t15 -77v-341h-96v319q0 59 -27 86q-35 34 -89 34q-55 0 -93 -39t-38 -111v-289h-94zM207 612h-42q1 43 24 70q22 28 61 28q18 0 77 -17q26 -7 37 -7q37 0 37 37h41q2 -52 -24.5 -76.5
t-59.5 -24.5q-21 0 -63 13l-19 5.5t-20 5.5t-11 2q-27 0 -38 -36z" />
    <glyph glyph-name="ograve" unicode="&#xf2;" horiz-adv-x="611" 
d="M51 245q0 50 12.5 95t40.5 85.5t80 65t122 24.5q58 0 102.5 -17.5t71 -44.5t43.5 -63.5t23 -70t6 -67.5q0 -117 -65.5 -193t-188.5 -76q-120 0 -183.5 73t-63.5 189zM149 251q0 -84 38 -141t113 -57q62 0 107 49t45 153q0 92 -39.5 141.5t-106.5 49.5q-25 0 -50 -9
t-50.5 -29t-41 -60.5t-15.5 -96.5zM169 740h113l84 -144h-62z" />
    <glyph glyph-name="oacute" unicode="&#xf3;" horiz-adv-x="611" 
d="M51 245q0 50 12.5 95t40.5 85.5t80 65t122 24.5q58 0 102.5 -17.5t71 -44.5t43.5 -63.5t23 -70t6 -67.5q0 -117 -65.5 -193t-188.5 -76q-120 0 -183.5 73t-63.5 189zM149 251q0 -84 38 -141t113 -57q62 0 107 49t45 153q0 92 -39.5 141.5t-106.5 49.5q-25 0 -50 -9
t-50.5 -29t-41 -60.5t-15.5 -96.5zM329 740h104l-121 -144h-65z" />
    <glyph glyph-name="ocircumflex" unicode="&#xf4;" horiz-adv-x="611" 
d="M51 245q0 50 12.5 95t40.5 85.5t80 65t122 24.5q58 0 102.5 -17.5t71 -44.5t43.5 -63.5t23 -70t6 -67.5q0 -117 -65.5 -193t-188.5 -76q-120 0 -183.5 73t-63.5 189zM149 251q0 -84 38 -141t113 -57q62 0 107 49t45 153q0 92 -39.5 141.5t-106.5 49.5q-25 0 -50 -9
t-50.5 -29t-41 -60.5t-15.5 -96.5zM231 596h-77l106 145h90l104 -145h-86l-66 96z" />
    <glyph glyph-name="otilde" unicode="&#xf5;" horiz-adv-x="611" 
d="M51 245q0 50 12.5 95t40.5 85.5t80 65t122 24.5q58 0 102.5 -17.5t71 -44.5t43.5 -63.5t23 -70t6 -67.5q0 -117 -65.5 -193t-188.5 -76q-120 0 -183.5 73t-63.5 189zM149 251q0 -84 38 -141t113 -57q62 0 107 49t45 153q0 92 -39.5 141.5t-106.5 49.5q-25 0 -50 -9
t-50.5 -29t-41 -60.5t-15.5 -96.5zM207 612h-42q1 43 24 70q22 28 61 28q18 0 77 -17q26 -7 37 -7q37 0 37 37h41q2 -52 -24.5 -76.5t-59.5 -24.5q-21 0 -63 13l-19 5.5t-20 5.5t-11 2q-27 0 -38 -36z" />
    <glyph glyph-name="odieresis" unicode="&#xf6;" horiz-adv-x="611" 
d="M51 245q0 50 12.5 95t40.5 85.5t80 65t122 24.5q58 0 102.5 -17.5t71 -44.5t43.5 -63.5t23 -70t6 -67.5q0 -117 -65.5 -193t-188.5 -76q-120 0 -183.5 73t-63.5 189zM149 251q0 -84 38 -141t113 -57q62 0 107 49t45 153q0 92 -39.5 141.5t-106.5 49.5q-25 0 -50 -9
t-50.5 -29t-41 -60.5t-15.5 -96.5zM164 617v102h92v-102h-92zM353 617v102h93v-102h-93z" />
    <glyph glyph-name="divide" unicode="&#xf7;" horiz-adv-x="584" 
d="M37 212v78h510v-78h-510zM242 10v119h100v-119h-100zM242 373v119h100v-119h-100z" />
    <glyph glyph-name="oslash" unicode="&#xf8;" horiz-adv-x="611" 
d="M477 597h60l-77 -129q92 -72 92 -217q0 -116 -66 -192t-188 -76q-67 0 -113 22l-65 -109h-59l80 135q-90 76 -90 217q0 116 64.5 191.5t183.5 75.5q61 0 117 -21zM187 109l190 319q-36 18 -74 18q-76 0 -115 -57.5t-39 -136.5q0 -89 38 -143zM415 393l-190 -320
q37 -20 75 -20q64 0 108 50.5t44 146.5q0 92 -37 143z" />
    <glyph glyph-name="ugrave" unicode="&#xf9;" horiz-adv-x="611" 
d="M78 502h96v-323q0 -22 3.5 -38.5t13.5 -34.5t33 -28t57 -10q80 0 118 56q21 31 21 94v284h97v-408q0 -3 1.5 -40.5t1.5 -53.5h-98l-2 86q-10 -18 -18.5 -29.5t-27 -28t-47.5 -25t-67 -8.5q-90 0 -136 46t-46 124v337zM169 740h113l84 -144h-62z" />
    <glyph glyph-name="uacute" unicode="&#xfa;" horiz-adv-x="611" 
d="M78 502h96v-323q0 -22 3.5 -38.5t13.5 -34.5t33 -28t57 -10q80 0 118 56q21 31 21 94v284h97v-408q0 -3 1.5 -40.5t1.5 -53.5h-98l-2 86q-10 -18 -18.5 -29.5t-27 -28t-47.5 -25t-67 -8.5q-90 0 -136 46t-46 124v337zM329 740h104l-121 -144h-65z" />
    <glyph glyph-name="ucircumflex" unicode="&#xfb;" horiz-adv-x="611" 
d="M78 502h96v-323q0 -22 3.5 -38.5t13.5 -34.5t33 -28t57 -10q80 0 118 56q21 31 21 94v284h97v-408q0 -3 1.5 -40.5t1.5 -53.5h-98l-2 86q-10 -18 -18.5 -29.5t-27 -28t-47.5 -25t-67 -8.5q-90 0 -136 46t-46 124v337zM231 596h-77l106 145h90l104 -145h-86l-66 96z" />
    <glyph glyph-name="udieresis" unicode="&#xfc;" horiz-adv-x="611" 
d="M78 502h96v-323q0 -22 3.5 -38.5t13.5 -34.5t33 -28t57 -10q80 0 118 56q21 31 21 94v284h97v-408q0 -3 1.5 -40.5t1.5 -53.5h-98l-2 86q-10 -18 -18.5 -29.5t-27 -28t-47.5 -25t-67 -8.5q-90 0 -136 46t-46 124v337zM164 617v102h92v-102h-92zM353 617v102h93v-102h-93z
" />
    <glyph glyph-name="yacute" unicode="&#xfd;" 
d="M537 502l-223 -505l-72 -187h-97l76 192l-209 500h106l157 -396l160 396h102zM301 740h104l-121 -144h-65z" />
    <glyph glyph-name="thorn" unicode="&#xfe;" horiz-adv-x="611" 
d="M85 -193v914h94v-302q31 52 79 71.5t92 19.5q89 0 150 -64.5t61 -195.5q0 -132 -65.5 -200.5t-163.5 -68.5q-108 0 -154 75v-249h-93zM175 236q0 -186 141 -186q70 0 106 49q41 56 41 157q0 184 -138 184q-150 0 -150 -204z" />
    <glyph glyph-name="ydieresis" unicode="&#xff;" 
d="M537 502l-223 -505l-72 -187h-97l76 192l-209 500h106l157 -396l160 396h102zM136 617v102h92v-102h-92zM325 617v102h93v-102h-93z" />
    <glyph glyph-name="Amacron" unicode="&#x100;" horiz-adv-x="722" 
d="M9 0l304 722h107l292 -722h-109l-78 188h-335l-78 -188h-103zM362 623l-140 -354h273zM231 832v53h275v-53h-275z" />
    <glyph glyph-name="amacron" unicode="&#x101;" 
d="M479 0h-85q-9 32 -9 75q-49 -91 -155 -91q-84 0 -130.5 41.5t-46.5 106.5q0 96 88 147q59 33 174 33q25 0 68 -3q0 53 -3 74.5t-15 36.5q-25 33 -87 33q-97 0 -101 -85h-94q7 62 35 95q49 54 162 54q59 0 109 -19t69 -55q17 -32 17 -77l-4 -240q0 -68 8 -126zM383 244
q-25 3 -54 3q-181 0 -181 -102q0 -32 24 -59.5t80 -27.5q72 0 107 54q15 24 18.5 48.5t5.5 83.5zM151 642v53h275v-53h-275z" />
    <glyph glyph-name="Abreve" unicode="&#x102;" horiz-adv-x="722" 
d="M9 0l304 722h107l292 -722h-109l-78 188h-335l-78 -188h-103zM362 623l-140 -354h273zM227 941h47q5 -94 88 -94q29 0 49.5 11.5t28.5 29t11 30t3 23.5h47q2 -77 -33.5 -117t-105.5 -40q-135 0 -135 157z" />
    <glyph glyph-name="abreve" unicode="&#x103;" 
d="M479 0h-85q-9 32 -9 75q-49 -91 -155 -91q-84 0 -130.5 41.5t-46.5 106.5q0 96 88 147q59 33 174 33q25 0 68 -3q0 53 -3 74.5t-15 36.5q-25 33 -87 33q-97 0 -101 -85h-94q7 62 35 95q49 54 162 54q59 0 109 -19t69 -55q17 -32 17 -77l-4 -240q0 -68 8 -126zM383 244
q-25 3 -54 3q-181 0 -181 -102q0 -32 24 -59.5t80 -27.5q72 0 107 54q15 24 18.5 48.5t5.5 83.5zM151 751h47q5 -94 88 -94q29 0 49.5 11.5t28.5 29t11 30t3 23.5h47q2 -77 -33.5 -117t-105.5 -40q-135 0 -135 157z" />
    <glyph glyph-name="Aogonek" unicode="&#x104;" horiz-adv-x="722" 
d="M673 -132v-41q-50 -25 -94 -25q-49 0 -71.5 22.5t-22.5 51.5q0 71 118 124l-78 188h-335l-78 -188h-103l304 722h107l292 -722h-68q-28 -18 -40 -27.5t-26 -28t-14 -38.5q0 -50 64 -50q26 0 45 12zM362 623l-140 -354h273z" />
    <glyph glyph-name="aogonek" unicode="&#x105;" 
d="M485 -132v-41q-50 -25 -94 -25q-49 0 -71.5 22.5t-22.5 51.5q0 71 118 124h-21q-9 32 -9 75q-49 -91 -155 -91q-84 0 -130.5 41.5t-46.5 106.5q0 97 88 147q60 33 174 33q39 0 68 -3q0 37 -0.5 53t-4.5 32t-13 26q-25 33 -87 33q-33 0 -55.5 -10t-31 -26t-11.5 -27
t-3 -22h-94q7 61 35 95q48 54 162 54q59 0 109 -19t69 -55q17 -33 17 -77l-4 -240q0 -75 8 -126h-23q-28 -18 -40 -27.5t-26 -28t-14 -38.5q0 -50 64 -50q26 0 45 12zM383 244q-17 3 -54 3q-181 0 -181 -102q0 -32 24 -59.5t80 -27.5q72 0 107 54q10 16 15 36t6 35t3 61z
" />
    <glyph glyph-name="Cacute" unicode="&#x106;" horiz-adv-x="667" 
d="M630 527h-107q-2 14 -4 23t-12.5 31t-25.5 35t-45 24.5t-69 11.5q-50 0 -88 -20t-59.5 -50t-35 -71.5t-18 -79t-4.5 -77.5q0 -56 9 -102.5t30.5 -89t63.5 -67t101 -24.5q75 0 117 43q27 29 35 76h110q-11 -100 -89 -150.5t-181 -50.5q-73 0 -129 25t-88 62.5t-52 88.5
t-27 96t-7 92q0 41 6 81t19 84.5t37 81.5t57.5 67.5t84 47.5t112.5 17q42 0 82 -9.5t80 -31t66 -64t31 -100.5zM398 930h104l-121 -144h-65z" />
    <glyph glyph-name="cacute" unicode="&#x107;" horiz-adv-x="500" 
d="M469 341h-95q-9 105 -100 105q-130 0 -130 -189q0 -199 125 -199q55 0 81 32.5t28 76.5h95q-5 -77 -59 -128.5t-144 -51.5q-106 0 -165 65q-60 70 -60 192q0 75 21 130t56 84.5t72.5 43t78.5 13.5q102 0 154 -62q37 -43 42 -112zM307 740h104l-121 -144h-65z" />
    <glyph glyph-name="Ccircumflex" unicode="&#x108;" horiz-adv-x="667" 
d="M630 527h-107q-2 14 -4 23t-12.5 31t-25.5 35t-45 24.5t-69 11.5q-50 0 -88 -20t-59.5 -50t-35 -71.5t-18 -79t-4.5 -77.5q0 -56 9 -102.5t30.5 -89t63.5 -67t101 -24.5q75 0 117 43q27 29 35 76h110q-11 -100 -89 -150.5t-181 -50.5q-73 0 -129 25t-88 62.5t-52 88.5
t-27 96t-7 92q0 41 6 81t19 84.5t37 81.5t57.5 67.5t84 47.5t112.5 17q42 0 82 -9.5t80 -31t66 -64t31 -100.5zM295 786h-77l106 145h90l104 -145h-86l-66 96z" />
    <glyph glyph-name="ccircumflex" unicode="&#x109;" horiz-adv-x="500" 
d="M469 341h-95q-9 105 -100 105q-130 0 -130 -189q0 -199 125 -199q55 0 81 32.5t28 76.5h95q-5 -77 -59 -128.5t-144 -51.5q-106 0 -165 65q-60 70 -60 192q0 75 21 130t56 84.5t72.5 43t78.5 13.5q102 0 154 -62q37 -43 42 -112zM199 596h-77l106 145h90l104 -145h-86
l-66 96z" />
    <glyph glyph-name="Cdotaccent" unicode="&#x10a;" horiz-adv-x="667" 
d="M630 527h-107q-2 14 -4 23t-12.5 31t-25.5 35t-45 24.5t-69 11.5q-50 0 -88 -20t-59.5 -50t-35 -71.5t-18 -79t-4.5 -77.5q0 -56 9 -102.5t30.5 -89t63.5 -67t101 -24.5q75 0 117 43q27 29 35 76h110q-11 -100 -89 -150.5t-181 -50.5q-73 0 -129 25t-88 62.5t-52 88.5
t-27 96t-7 92q0 41 6 81t19 84.5t37 81.5t57.5 67.5t84 47.5t112.5 17q42 0 82 -9.5t80 -31t66 -64t31 -100.5zM324 807v102h92v-102h-92z" />
    <glyph glyph-name="cdotaccent" unicode="&#x10b;" horiz-adv-x="500" 
d="M469 341h-95q-9 105 -100 105q-130 0 -130 -189q0 -199 125 -199q55 0 81 32.5t28 76.5h95q-5 -77 -59 -128.5t-144 -51.5q-106 0 -165 65q-60 70 -60 192q0 75 21 130t56 84.5t72.5 43t78.5 13.5q102 0 154 -62q37 -43 42 -112zM235 617v102h92v-102h-92z" />
    <glyph glyph-name="Ccaron" unicode="&#x10c;" horiz-adv-x="667" 
d="M630 527h-107q-2 14 -4 23t-12.5 31t-25.5 35t-45 24.5t-69 11.5q-50 0 -88 -20t-59.5 -50t-35 -71.5t-18 -79t-4.5 -77.5q0 -56 9 -102.5t30.5 -89t63.5 -67t101 -24.5q75 0 117 43q27 29 35 76h110q-11 -100 -89 -150.5t-181 -50.5q-73 0 -129 25t-88 62.5t-52 88.5
t-27 96t-7 92q0 41 6 81t19 84.5t37 81.5t57.5 67.5t84 47.5t112.5 17q42 0 82 -9.5t80 -31t66 -64t31 -100.5zM318 786l-104 143h86l67 -96l69 96h79l-104 -143h-93z" />
    <glyph glyph-name="ccaron" unicode="&#x10d;" horiz-adv-x="500" 
d="M469 341h-95q-9 105 -100 105q-130 0 -130 -189q0 -199 125 -199q55 0 81 32.5t28 76.5h95q-5 -77 -59 -128.5t-144 -51.5q-106 0 -165 65q-60 70 -60 192q0 75 21 130t56 84.5t72.5 43t78.5 13.5q102 0 154 -62q37 -43 42 -112zM231 596l-104 143h86l67 -96l69 96h79
l-104 -143h-93z" />
    <glyph glyph-name="Dcaron" unicode="&#x10e;" horiz-adv-x="722" 
d="M88 0v722h209q50 0 78 -2t71.5 -9.5t78.5 -28.5t63 -54q89 -104 89 -273q0 -107 -35.5 -182t-84.5 -114q-33 -28 -80 -41.5t-82 -15.5t-104 -2h-203zM188 639v-557h98q136 0 189 40q95 71 95 229q0 148 -70 225q-33 36 -77.5 49.5t-114.5 13.5h-120zM273 786l-104 143h86
l67 -96l69 96h79l-104 -143h-93z" />
    <glyph glyph-name="dcaron" unicode="&#x10f;" horiz-adv-x="611" 
d="M436 434v287h94v-641q0 -28 4 -80h-94l-2 80q-21 -36 -45 -53q-54 -37 -124 -37q-24 0 -48.5 5t-56 21.5t-55 43t-40 74.5t-16.5 111q0 135 65.5 204.5t161.5 69.5q107 0 156 -85zM439 258q0 91 -38 140q-39 51 -110 51q-28 0 -51 -9.5t-37 -24t-24 -35.5t-15 -38
t-7.5 -39.5t-3 -32.5t-0.5 -22q0 -192 138 -192q42 0 72 18t44 40.5t22 56.5t9 50t1 37zM632 722h86l-75 -159h-51z" />
    <glyph glyph-name="Dcroat" unicode="&#x110;" horiz-adv-x="722" 
d="M88 0v369h-70v61h70v292h209q49 0 77.5 -2t72 -10t78.5 -28.5t63 -53.5q89 -106 89 -273q0 -106 -35.5 -182.5t-84.5 -113.5q-34 -28 -80.5 -41.5t-81.5 -15.5t-104 -2h-203zM188 369v-287h98q136 0 189 40q95 72 95 229q0 147 -70 225q-34 36 -78 49.5t-114 13.5h-120
v-209h192v-61h-192z" />
    <glyph glyph-name="dcroat" unicode="&#x111;" horiz-adv-x="611" 
d="M316 581v43h120v97h94v-97h61v-43h-61v-501q0 -45 4 -80h-94l-2 80q-18 -34 -45 -53q-54 -37 -124 -37q-24 0 -48.5 5t-56 21.5t-55 43t-40 74.5t-16.5 111q0 135 65.5 204.5t161.5 69.5q102 0 154 -81q1 -3 2 -4v147h-120zM439 258q0 91 -38 140q-38 51 -110 51
q-28 0 -51 -9.5t-37 -24t-24 -35.5t-15 -38t-7.5 -39.5t-3 -32.5t-0.5 -22q0 -192 138 -192q42 0 72 18t44 40.5t22 56.5t9 50t1 37z" />
    <glyph glyph-name="Emacron" unicode="&#x112;" horiz-adv-x="617" 
d="M76 0v722h453v-85h-353v-225h336v-84h-336v-240h361v-88h-461zM181 832v53h275v-53h-275z" />
    <glyph glyph-name="emacron" unicode="&#x113;" 
d="M506 234h-361q-2 -82 34 -131.5t110 -49.5q48 0 80 26t38 78h94q-8 -67 -43 -105q-59 -67 -173 -67q-116 0 -174.5 67.5t-58.5 189.5q0 81 21.5 139t77.5 97q52 37 137 37q54 0 94.5 -15t62.5 -39.5t37 -55t18 -62t6 -60t0 -49.5zM149 300h261q0 23 -3.5 44t-14.5 47
t-38 41.5t-68 15.5q-54 0 -95 -36t-42 -112zM151 642v53h275v-53h-275z" />
    <glyph glyph-name="Ebreve" unicode="&#x114;" horiz-adv-x="617" 
d="M76 0v722h453v-85h-353v-225h336v-84h-336v-240h361v-88h-461zM183 941h47q5 -94 88 -94q29 0 49.5 11.5t28.5 29t11 30t3 23.5h47q2 -77 -33.5 -117t-105.5 -40q-135 0 -135 157z" />
    <glyph glyph-name="ebreve" unicode="&#x115;" 
d="M506 234h-361q-2 -82 34 -131.5t110 -49.5q48 0 80 26t38 78h94q-8 -67 -43 -105q-59 -67 -173 -67q-116 0 -174.5 67.5t-58.5 189.5q0 81 21.5 139t77.5 97q52 37 137 37q54 0 94.5 -15t62.5 -39.5t37 -55t18 -62t6 -60t0 -49.5zM149 300h261q0 23 -3.5 44t-14.5 47
t-38 41.5t-68 15.5q-54 0 -95 -36t-42 -112zM147 751h47q5 -94 88 -94q29 0 49.5 11.5t28.5 29t11 30t3 23.5h47q2 -77 -33.5 -117t-105.5 -40q-135 0 -135 157z" />
    <glyph glyph-name="Edotaccent" unicode="&#x116;" horiz-adv-x="617" 
d="M76 0v722h453v-85h-353v-225h336v-84h-336v-240h361v-88h-461zM282 807v102h92v-102h-92z" />
    <glyph glyph-name="edotaccent" unicode="&#x117;" 
d="M506 234h-361q-2 -82 34 -131.5t110 -49.5q48 0 80 26t38 78h94q-8 -67 -43 -105q-59 -67 -173 -67q-116 0 -174.5 67.5t-58.5 189.5q0 81 21.5 139t77.5 97q52 37 137 37q54 0 94.5 -15t62.5 -39.5t37 -55t18 -62t6 -60t0 -49.5zM149 300h261q0 23 -3.5 44t-14.5 47
t-38 41.5t-68 15.5q-54 0 -95 -36t-42 -112zM248 617v102h92v-102h-92z" />
    <glyph glyph-name="Eogonek" unicode="&#x118;" horiz-adv-x="617" 
d="M90 0v722h453v-85h-353v-225h336v-84h-336v-240h361v-88h-27q-28 -18 -40 -27.5t-26 -28t-14 -38.5q0 -50 64 -50q26 0 45 12v-41q-50 -25 -94 -25q-49 0 -71.5 22.5t-22.5 51.5q0 71 118 124h-393z" />
    <glyph glyph-name="eogonek" unicode="&#x119;" 
d="M396 -132v-41q-50 -25 -94 -25q-49 0 -71.5 22.5t-22.5 51.5q0 62 88 109h-11q-117 0 -175 67.5t-58 189.5q0 81 21.5 139t77.5 97q51 37 137 37q40 0 72.5 -7.5t54.5 -23.5t38.5 -32t26 -41t15.5 -43t8 -46.5t2.5 -41.5t0.5 -37v-9h-361q-2 -82 34 -131.5t110 -49.5
q48 0 80 26t38 78h94q-8 -67 -43 -105q-36 -43 -101 -58q-23 -16 -35 -26t-23.5 -27t-11.5 -35q0 -50 64 -50q26 0 45 12zM149 300h261q0 148 -124 148q-54 0 -94.5 -36t-42.5 -112z" />
    <glyph glyph-name="Ecaron" unicode="&#x11a;" horiz-adv-x="617" 
d="M76 0v722h453v-85h-353v-225h336v-84h-336v-240h361v-88h-461zM276 786l-104 143h86l67 -96l69 96h79l-104 -143h-93z" />
    <glyph glyph-name="ecaron" unicode="&#x11b;" 
d="M506 234h-361q-2 -82 34 -131.5t110 -49.5q48 0 80 26t38 78h94q-8 -67 -43 -105q-59 -67 -173 -67q-116 0 -174.5 67.5t-58.5 189.5q0 81 21.5 139t77.5 97q52 37 137 37q54 0 94.5 -15t62.5 -39.5t37 -55t18 -62t6 -60t0 -49.5zM149 300h261q0 23 -3.5 44t-14.5 47
t-38 41.5t-68 15.5q-54 0 -95 -36t-42 -112zM245 596l-104 143h86l67 -96l69 96h79l-104 -143h-93z" />
    <glyph glyph-name="Gcircumflex" unicode="&#x11c;" horiz-adv-x="778" 
d="M686 542h-109q-9 52 -50.5 82.5t-112.5 30.5q-109 0 -163 -61q-77 -86 -77 -232q0 -58 15 -121.5t51 -105.5q62 -71 192 -71q81 0 157 23v214h-165v83h265v-356q-132 -44 -257 -44q-174 0 -262 90q-101 102 -101 275q0 34 5.5 71t20 87t48 97t81.5 79q75 51 201 51
q137 0 213 -77q43 -45 48 -115zM338 786h-77l106 145h90l104 -145h-86l-66 96z" />
    <glyph glyph-name="gcircumflex" unicode="&#x11d;" horiz-adv-x="611" 
d="M78 -39h100q3 -47 29 -72.5t88 -25.5q32 0 55 7t37.5 23.5t23 33t12 48t4.5 54t1 65.5q-41 -85 -165 -85q-104 0 -154 62q-57 68 -57 185q0 122 63 187.5t160 65.5q46 0 82 -15.5t48 -27.5t28 -33l1 69h91l-2 -91l-1 -314q0 -94 -4.5 -137t-19.5 -71q-47 -90 -209 -90
q-42 0 -75 6t-54.5 14t-37 23t-23.5 26.5t-12.5 31t-6 30.5t-2.5 31zM287 79q72 0 110 50q18 23 26 52t8 92q0 84 -39 125q-41 44 -108 44q-42 0 -71 -19t-41.5 -50t-17.5 -58.5t-5 -56.5q0 -33 6 -61.5t19.5 -56.5t42.5 -44.5t70 -16.5zM238 596h-77l106 145h90l104 -145
h-86l-66 96z" />
    <glyph glyph-name="Gbreve" unicode="&#x11e;" horiz-adv-x="778" 
d="M686 542h-109q-9 52 -50.5 82.5t-112.5 30.5q-109 0 -163 -61q-77 -86 -77 -232q0 -58 15 -121.5t51 -105.5q62 -71 192 -71q81 0 157 23v214h-165v83h265v-356q-132 -44 -257 -44q-174 0 -262 90q-101 102 -101 275q0 34 5.5 71t20 87t48 97t81.5 79q75 51 201 51
q137 0 213 -77q43 -45 48 -115zM267 941h47q5 -94 88 -94q29 0 49.5 11.5t28.5 29t11 30t3 23.5h47q2 -77 -33.5 -117t-105.5 -40q-135 0 -135 157z" />
    <glyph glyph-name="gbreve" unicode="&#x11f;" horiz-adv-x="611" 
d="M78 -39h100q3 -47 29 -72.5t88 -25.5q32 0 55 7t37.5 23.5t23 33t12 48t4.5 54t1 65.5q-41 -85 -165 -85q-104 0 -154 62q-57 68 -57 185q0 122 63 187.5t160 65.5q46 0 82 -15.5t48 -27.5t28 -33l1 69h91l-2 -91l-1 -314q0 -94 -4.5 -137t-19.5 -71q-47 -90 -209 -90
q-42 0 -75 6t-54.5 14t-37 23t-23.5 26.5t-12.5 31t-6 30.5t-2.5 31zM287 79q72 0 110 50q18 23 26 52t8 92q0 84 -39 125q-41 44 -108 44q-42 0 -71 -19t-41.5 -50t-17.5 -58.5t-5 -56.5q0 -33 6 -61.5t19.5 -56.5t42.5 -44.5t70 -16.5zM161 751h47q5 -94 88 -94
q29 0 49.5 11.5t28.5 29t11 30t3 23.5h47q2 -77 -33.5 -117t-105.5 -40q-135 0 -135 157z" />
    <glyph glyph-name="Gdotaccent" unicode="&#x120;" horiz-adv-x="778" 
d="M686 542h-109q-9 52 -50.5 82.5t-112.5 30.5q-109 0 -163 -61q-77 -86 -77 -232q0 -58 15 -121.5t51 -105.5q62 -71 192 -71q81 0 157 23v214h-165v83h265v-356q-132 -44 -257 -44q-174 0 -262 90q-101 102 -101 275q0 34 5.5 71t20 87t48 97t81.5 79q75 51 201 51
q137 0 213 -77q43 -45 48 -115zM367 807v102h92v-102h-92z" />
    <glyph glyph-name="gdotaccent" unicode="&#x121;" horiz-adv-x="611" 
d="M78 -39h100q3 -47 29 -72.5t88 -25.5q32 0 55 7t37.5 23.5t23 33t12 48t4.5 54t1 65.5q-41 -85 -165 -85q-104 0 -154 62q-57 68 -57 185q0 122 63 187.5t160 65.5q46 0 82 -15.5t48 -27.5t28 -33l1 69h91l-2 -91l-1 -314q0 -94 -4.5 -137t-19.5 -71q-47 -90 -209 -90
q-42 0 -75 6t-54.5 14t-37 23t-23.5 26.5t-12.5 31t-6 30.5t-2.5 31zM287 79q72 0 110 50q18 23 26 52t8 92q0 84 -39 125q-41 44 -108 44q-42 0 -71 -19t-41.5 -50t-17.5 -58.5t-5 -56.5q0 -33 6 -61.5t19.5 -56.5t42.5 -44.5t70 -16.5zM252 617v102h92v-102h-92z" />
    <glyph glyph-name="Gcommaaccent" unicode="&#x122;" horiz-adv-x="778" 
d="M686 542h-109q-9 52 -50.5 82.5t-112.5 30.5q-109 0 -163 -61q-77 -86 -77 -232q0 -58 15 -121.5t51 -105.5q62 -71 192 -71q81 0 157 23v214h-165v83h265v-356q-132 -44 -257 -44q-174 0 -262 90q-101 102 -101 275q0 34 5.5 71t20 87t48 97t81.5 79q75 51 201 51
q137 0 213 -77q43 -45 48 -115zM380 -66h87l-83 -176h-50z" />
    <glyph glyph-name="gcommaaccent" unicode="&#x123;" horiz-adv-x="611" 
d="M78 -39h100q3 -47 29 -72.5t88 -25.5q32 0 55 7t37.5 23.5t23 33t12 48t4.5 54t1 65.5q-41 -85 -165 -85q-104 0 -154 62q-57 68 -57 185q0 122 63 187.5t160 65.5q46 0 82 -15.5t48 -27.5t28 -33l1 69h91l-2 -91l-1 -314q0 -94 -4.5 -137t-19.5 -71q-47 -90 -209 -90
q-42 0 -75 6t-54.5 14t-37 23t-23.5 26.5t-12.5 31t-6 30.5t-2.5 31zM287 79q72 0 110 50q18 23 26 52t8 92q0 84 -39 125q-41 44 -108 44q-42 0 -71 -19t-41.5 -50t-17.5 -58.5t-5 -56.5q0 -33 6 -61.5t19.5 -56.5t42.5 -44.5t70 -16.5zM321 596h-87l83 176h50z" />
    <glyph glyph-name="Hcircumflex" unicode="&#x124;" horiz-adv-x="722" 
d="M88 722h100v-310h343v310h100v-722h-100v326h-343v-326h-100v722zM289 786h-77l106 145h90l104 -145h-86l-66 96z" />
    <glyph glyph-name="hcircumflex" unicode="&#x125;" horiz-adv-x="611" 
d="M88 0v721h95v-293q23 39 66.5 61t96.5 22q48 0 93 -19t65 -61q17 -34 17 -117v-314h-96v297q0 20 -0.5 33t-6.5 36t-16.5 37t-32 25t-52.5 11q-82 0 -118 -67q-16 -28 -16 -106v-266h-95zM94 761h-77l106 145h90l104 -145h-86l-66 96z" />
    <glyph glyph-name="Hbar" unicode="&#x126;" horiz-adv-x="722" 
d="M88 722h100v-127h343v127h100v-722h-100v326h-343v-326h-100v722zM188 412h343v117h-343v-117z" />
    <glyph glyph-name="hbar" unicode="&#x127;" horiz-adv-x="611" 
d="M14 581v43h74v97h95v-97h106v-43h-106v-153q23 39 66 61t97 22q48 0 93 -19t65 -61q17 -34 17 -117v-314h-96v297q0 20 -0.5 32.5t-6.5 35.5t-16.5 37t-32 25.5t-52.5 11.5q-82 0 -118 -67q-16 -28 -16 -106v-266h-95v581h-74z" />
    <glyph glyph-name="Itilde" unicode="&#x128;" horiz-adv-x="278" 
d="M88 0v722h100v-722h-100zM42 802h-42q1 43 24 70q22 28 61 28q18 0 77 -17q26 -7 37 -7q37 0 37 37h41q2 -52 -24.5 -76.5t-59.5 -24.5q-21 0 -63 13l-19 5.5t-20 5.5t-11 2q-27 0 -38 -36z" />
    <glyph glyph-name="itilde" unicode="&#x129;" horiz-adv-x="278" 
d="M93 0v502h90v-502h-90zM42 612h-42q2 43 24 70q23 28 61 28q15 0 77 -17q26 -7 37 -7q37 0 37 37h41q1 -52 -25 -76.5t-59 -24.5q-21 0 -63 13q-8 2 -20 5.5t-19.5 5.5t-10.5 2q-27 0 -38 -36z" />
    <glyph glyph-name="Imacron" unicode="&#x12a;" horiz-adv-x="278" 
d="M88 0v722h100v-722h-100zM0 832v53h275v-53h-275z" />
    <glyph glyph-name="imacron" unicode="&#x12b;" horiz-adv-x="278" 
d="M22 642v53h235v-53h-235zM93 0v502h94v-502h-94z" />
    <glyph glyph-name="Ibreve" unicode="&#x12c;" horiz-adv-x="278" 
d="M88 0v722h100v-722h-100zM1 941h47q5 -94 88 -94q29 0 49.5 11.5t28.5 29t11 30t3 23.5h47q2 -77 -33.5 -117t-105.5 -40q-135 0 -135 157z" />
    <glyph glyph-name="ibreve" unicode="&#x12d;" horiz-adv-x="278" 
d="M93 0v502h90v-502h-90zM1 751h47q5 -94 88 -94q29 0 49.5 11.5t28.5 29t11 30t3 23.5h47q2 -77 -33.5 -117t-105.5 -40q-135 0 -135 157z" />
    <glyph glyph-name="Iogonek" unicode="&#x12e;" horiz-adv-x="278" 
d="M88 0v722h100v-722h-29q-28 -18 -40 -27.5t-26 -28t-14 -38.5q0 -50 64 -50q26 0 45 12v-41q-50 -25 -94 -25q-49 0 -71.5 22.5t-22.5 51.5q0 71 118 124h-30z" />
    <glyph glyph-name="iogonek" unicode="&#x12f;" horiz-adv-x="278" 
d="M93 0v502h94v-502h-10q-28 -18 -40 -27.5t-26 -28t-14 -38.5q0 -50 64 -50q26 0 45 12v-41q-50 -25 -94 -25q-49 0 -71.5 22.5t-22.5 51.5q0 71 118 124h-43zM83 617v103h113v-103h-113z" />
    <glyph glyph-name="Idotaccent" unicode="&#x130;" horiz-adv-x="278" 
d="M88 0v722h100v-722h-100zM94 807v102h92v-102h-92z" />
    <glyph glyph-name="dotlessi" unicode="&#x131;" horiz-adv-x="278" 
d="M93 0v502h90v-502h-90z" />
    <glyph glyph-name="Jcircumflex" unicode="&#x134;" horiz-adv-x="538" 
d="M21 196h106q2 -58 16 -79q28 -44 93 -44q68 0 100 51q17 29 17 97v501h100v-528q0 -96 -65 -150.5t-159 -54.5q-115 0 -172 75q-36 49 -36 132zM332 786h-77l106 145h90l104 -145h-86l-66 96z" />
    <glyph glyph-name="jcircumflex" unicode="&#x135;" horiz-adv-x="278" 
d="M-1 -193v67q56 -2 74 14.5t18 75.5v538h94v-549q0 -16 -1 -28t-4.5 -31.5t-12 -33.5t-21.5 -28t-36 -21.5t-53 -7.5q-22 0 -58 4zM65 596h-77l106 145h90l104 -145h-86l-66 96z" />
    <glyph glyph-name="Kcommaaccent" unicode="&#x136;" horiz-adv-x="667" 
d="M93 0v722h99v-316l301 316h137l-323 -323l358 -399h-140l-333 383v-383h-99zM302 -66h87l-83 -176h-50z" />
    <glyph glyph-name="kcommaaccent" unicode="&#x137;" horiz-adv-x="500" 
d="M81 0v727h93v-430l188 205h123l-212 -213l225 -289h-123l-201 271v-271h-93zM229 -66h87l-83 -176h-50z" />
    <glyph glyph-name="kgreenlandic" unicode="&#x138;" horiz-adv-x="500" 
d="M81 0v502h93v-205l188 205h123l-212 -213l225 -289h-123l-201 271v-271h-93z" />
    <glyph glyph-name="Lacute" unicode="&#x139;" 
d="M93 0v722h99v-633h336v-89h-435zM191 930h104l-121 -144h-65z" />
    <glyph glyph-name="lacute" unicode="&#x13a;" horiz-adv-x="278" 
d="M90 0v721h94v-721h-94zM174 918h104l-121 -144h-65z" />
    <glyph glyph-name="Lcommaaccent" unicode="&#x13b;" 
d="M93 0v722h99v-633h336v-89h-435zM269 -66h87l-83 -176h-50z" />
    <glyph glyph-name="lcommaaccent" unicode="&#x13c;" horiz-adv-x="278" 
d="M90 0v721h94v-721h-94zM100 -66h87l-83 -176h-50z" />
    <glyph glyph-name="Lcaron" unicode="&#x13d;" 
d="M93 0v722h99v-633h336v-89h-435zM392 722h86l-75 -159h-51z" />
    <glyph glyph-name="lcaron" unicode="&#x13e;" horiz-adv-x="278" 
d="M90 0v721h94v-721h-94zM293 722h86l-75 -159h-51z" />
    <glyph glyph-name="Ldot" unicode="&#x13f;" 
d="M93 0v722h99v-633h336v-89h-435zM373 367v102h92v-102h-92z" />
    <glyph glyph-name="ldot" unicode="&#x140;" horiz-adv-x="389" 
d="M90 0v721h94v-721h-94zM284 340v102h92v-102h-92z" />
    <glyph glyph-name="Lslash" unicode="&#x141;" 
d="M93 0v304l-74 -46v74l74 45v345h99v-283l193 120v-73l-193 -120v-277h336v-89h-435z" />
    <glyph glyph-name="lslash" unicode="&#x142;" horiz-adv-x="278" 
d="M90 0v299l-66 -41v72l66 41v350h94v-292l66 41v-72l-66 -41v-357h-94z" />
    <glyph glyph-name="Nacute" unicode="&#x143;" horiz-adv-x="766" 
d="M95 0v722h139l355 -597v597h92v-722h-128l-367 613v-613h-91zM438 930h104l-121 -144h-65z" />
    <glyph glyph-name="nacute" unicode="&#x144;" horiz-adv-x="611" 
d="M91 0v444l-1 58h94l1 -81q48 91 161 91q17 0 36.5 -2.5t47 -13.5t48 -28t35.5 -50t15 -77v-341h-96v319q0 59 -27 86q-35 34 -89 34q-55 0 -93 -39t-38 -111v-289h-94zM354 740h104l-121 -144h-65z" />
    <glyph glyph-name="Ncommaaccent" unicode="&#x145;" horiz-adv-x="766" 
d="M95 0v722h139l355 -597v597h92v-722h-128l-367 613v-613h-91zM341 -66h87l-83 -176h-50z" />
    <glyph glyph-name="ncommaaccent" unicode="&#x146;" horiz-adv-x="611" 
d="M91 0v444l-1 58h94l1 -81q48 91 161 91q17 0 36.5 -2.5t47 -13.5t48 -28t35.5 -50t15 -77v-341h-96v319q0 59 -27 86q-35 34 -89 34q-55 0 -93 -39t-38 -111v-289h-94zM274 -66h87l-83 -176h-50z" />
    <glyph glyph-name="Ncaron" unicode="&#x147;" horiz-adv-x="766" 
d="M95 0v722h139l355 -597v597h92v-722h-128l-367 613v-613h-91zM339 786l-104 143h86l67 -96l69 96h79l-104 -143h-93z" />
    <glyph glyph-name="ncaron" unicode="&#x148;" horiz-adv-x="611" 
d="M91 0v444l-1 58h94l1 -81q48 91 161 91q17 0 36.5 -2.5t47 -13.5t48 -28t35.5 -50t15 -77v-341h-96v319q0 59 -27 86q-35 34 -89 34q-55 0 -93 -39t-38 -111v-289h-94zM267 596l-104 143h86l67 -96l69 96h79l-104 -143h-93z" />
    <glyph glyph-name="Eng" unicode="&#x14a;" horiz-adv-x="780" 
d="M497 -193v67q56 -2 73.5 14t18.5 74l-403 649v-611h-91v722h139l355 -587v587h94v-769q0 -20 -1 -34.5t-8 -38.5t-19.5 -39t-38 -26.5t-61.5 -11.5q-23 0 -58 4z" />
    <glyph glyph-name="eng" unicode="&#x14b;" horiz-adv-x="611" 
d="M320 -193v67q71 -2 91.5 14t20.5 76v355q0 59 -27 86q-35 34 -89 34q-55 0 -93 -39t-38 -111v-289h-94v444l-1 58h94l1 -81q48 91 161 91q17 0 36.5 -2.5t47 -13.5t48 -28t35.5 -50t15 -77v-388q0 -150 -130 -150q-34 0 -78 4z" />
    <glyph glyph-name="Omacron" unicode="&#x14c;" horiz-adv-x="778" 
d="M59 356q0 188 93 288q90 97 241 97q153 0 239.5 -96t86.5 -277q0 -77 -16.5 -142t-53.5 -121.5t-104.5 -89t-159.5 -32.5q-89 0 -154 30t-101.5 83t-53.5 117.5t-17 142.5zM164 362q0 -149 64 -228q53 -66 160 -66q105 0 160 66q65 79 65 235q0 288 -219 288
q-53 0 -94 -17t-66 -44t-41.5 -66.5t-22.5 -80t-6 -87.5zM252 832v53h275v-53h-275z" />
    <glyph glyph-name="omacron" unicode="&#x14d;" horiz-adv-x="611" 
d="M85 245q0 50 12.5 95t40.5 86t80 65t122 24q58 0 102.5 -17.5t71 -44.5t43.5 -63.5t23 -69.5t6 -68q0 -117 -65.5 -193t-188.5 -76q-120 0 -183.5 73t-63.5 189zM183 251q0 -84 38 -141t113 -57q62 0 107 49t45 153q0 92 -39.5 141.5t-106.5 49.5q-25 0 -50 -9t-50.5 -29
t-41 -60.5t-15.5 -96.5zM165 642v53h275v-53h-275z" />
    <glyph glyph-name="Obreve" unicode="&#x14e;" horiz-adv-x="778" 
d="M59 356q0 188 93 288q90 97 241 97q153 0 239.5 -96t86.5 -277q0 -77 -16.5 -142t-53.5 -121.5t-104.5 -89t-159.5 -32.5q-89 0 -154 30t-101.5 83t-53.5 117.5t-17 142.5zM164 362q0 -149 64 -228q53 -66 160 -66q105 0 160 66q65 79 65 235q0 288 -219 288
q-53 0 -94 -17t-66 -44t-41.5 -66.5t-22.5 -80t-6 -87.5zM251 941h47q5 -94 88 -94q29 0 49.5 11.5t28.5 29t11 30t3 23.5h47q2 -77 -33.5 -117t-105.5 -40q-135 0 -135 157z" />
    <glyph glyph-name="obreve" unicode="&#x14f;" horiz-adv-x="611" 
d="M85 245q0 50 12.5 95t40.5 86t80 65t122 24q58 0 102.5 -17.5t71 -44.5t43.5 -63.5t23 -69.5t6 -68q0 -117 -65.5 -193t-188.5 -76q-120 0 -183.5 73t-63.5 189zM183 251q0 -84 38 -141t113 -57q62 0 107 49t45 153q0 92 -39.5 141.5t-106.5 49.5q-25 0 -50 -9t-50.5 -29
t-41 -60.5t-15.5 -96.5zM165 751h47q5 -94 88 -94q29 0 49.5 11.5t28.5 29t11 30t3 23.5h47q2 -77 -33.5 -117t-105.5 -40q-135 0 -135 157z" />
    <glyph glyph-name="Ohungarumlaut" unicode="&#x150;" horiz-adv-x="778" 
d="M59 356q0 188 93 288q90 97 241 97q153 0 239.5 -96t86.5 -277q0 -77 -16.5 -142t-53.5 -121.5t-104.5 -89t-159.5 -32.5q-89 0 -154 30t-101.5 83t-53.5 117.5t-17 142.5zM164 362q0 -149 64 -228q53 -66 160 -66q105 0 160 66q65 79 65 235q0 288 -219 288
q-53 0 -94 -17t-66 -44t-41.5 -66.5t-22.5 -80t-6 -87.5zM471 930l-121 -144h-65l82 144h104zM630 930l-121 -144h-65l82 144h104z" />
    <glyph glyph-name="ohungarumlaut" unicode="&#x151;" horiz-adv-x="611" 
d="M85 245q0 50 12.5 95t40.5 86t80 65t122 24q58 0 102.5 -17.5t71 -44.5t43.5 -63.5t23 -69.5t6 -68q0 -117 -65.5 -193t-188.5 -76q-120 0 -183.5 73t-63.5 189zM183 251q0 -84 38 -141t113 -57q62 0 107 49t45 153q0 92 -39.5 141.5t-106.5 49.5q-25 0 -50 -9t-50.5 -29
t-41 -60.5t-15.5 -96.5zM383 740l-121 -144h-65l82 144h104zM542 740l-121 -144h-65l82 144h104z" />
    <glyph glyph-name="OE" unicode="&#x152;" horiz-adv-x="1000" 
d="M947 86v-86h-579q-137 0 -230.5 94t-93.5 270q0 218 151 314q73 47 198 47q2 0 18.5 -0.5t27.5 -0.5q38 -2 45 -2h460v-83h-340v-227h324v-83h-324v-243h343zM503 85v556q-85 5 -110 5q-114 0 -176 -68q-69 -74 -69 -213q0 -131 61 -208q58 -74 200 -74q45 0 94 2z" />
    <glyph glyph-name="oe" unicode="&#x153;" horiz-adv-x="944" 
d="M795 155h92q-6 -51 -29 -87t-55.5 -53t-60.5 -24t-56 -7q-80 0 -138 47q-31 26 -53 73q-22 -44 -46 -66q-58 -53 -150 -53q-65 0 -115 24t-77.5 63.5t-41 83.5t-13.5 90q0 111 67.5 188t184.5 77q47 0 83 -13t58 -36.5t31.5 -38t19.5 -35.5q14 42 41 70t59 39t51.5 14
t38.5 3q84 0 135.5 -45t64.5 -110q11 -50 9 -125h-350q0 -77 23 -116q17 -30 48.5 -47t65.5 -17q46 0 77 28t36 73zM548 303h249q0 57 -16 88q-28 56 -99 56t-109 -54q-22 -33 -25 -90zM154 254q0 -96 42 -152q38 -49 109 -49q41 0 71 18t46 48.5t23.5 62.5t7.5 67
q0 81 -35.5 137t-111.5 56q-42 0 -73.5 -17.5t-47.5 -46.5t-23.5 -59.5t-7.5 -64.5z" />
    <glyph glyph-name="Racute" unicode="&#x154;" horiz-adv-x="667" 
d="M86 0v722h258q113 0 166 -34q80 -50 80 -147q0 -77 -51 -128q-33 -33 -85 -47q53 -14 78 -43.5t32 -95.5q17 -148 45 -227h-107q-14 42 -33 191q-9 81 -39 108t-119 27h-126v-326h-99zM183 638v-227h158q68 0 95 16q49 28 49 94q0 33 -12 57t-26.5 35t-38 17t-36 7
t-31.5 1h-158zM352 930h104l-121 -144h-65z" />
    <glyph glyph-name="racute" unicode="&#x155;" horiz-adv-x="389" 
d="M93 0v400q0 47 -5 102h95l2 -97q22 85 120 99q30 4 65 2v-92q-6 2 -18 4q-7 1 -27 1q-77 0 -107 -40t-30 -112v-267h-95zM196 740h104l-121 -144h-65z" />
    <glyph glyph-name="Rcommaaccent" unicode="&#x156;" horiz-adv-x="667" 
d="M86 0v722h258q113 0 166 -34q80 -50 80 -147q0 -77 -51 -128q-33 -33 -85 -47q53 -14 78 -43.5t32 -95.5q17 -148 45 -227h-107q-14 42 -33 191q-9 81 -39 108t-119 27h-126v-326h-99zM183 638v-227h158q68 0 95 16q49 28 49 94q0 33 -12 57t-26.5 35t-38 17t-36 7
t-31.5 1h-158zM279 -66h87l-83 -176h-50z" />
    <glyph glyph-name="rcommaaccent" unicode="&#x157;" horiz-adv-x="389" 
d="M93 0v400q0 47 -5 102h95l2 -97q22 85 120 99q30 4 65 2v-92q-6 2 -18 4q-7 1 -27 1q-77 0 -107 -40t-30 -112v-267h-95zM109 -66h87l-83 -176h-50z" />
    <glyph glyph-name="Rcaron" unicode="&#x158;" horiz-adv-x="667" 
d="M86 0v722h258q113 0 166 -34q80 -50 80 -147q0 -77 -51 -128q-33 -33 -85 -47q53 -14 78 -43.5t32 -95.5q17 -148 45 -227h-107q-14 42 -33 191q-9 81 -39 108t-119 27h-126v-326h-99zM183 638v-227h158q68 0 95 16q49 28 49 94q0 33 -12 57t-26.5 35t-38 17t-36 7
t-31.5 1h-158zM280 786l-104 143h86l67 -96l69 96h79l-104 -143h-93z" />
    <glyph glyph-name="rcaron" unicode="&#x159;" horiz-adv-x="389" 
d="M93 0v400q0 47 -5 102h95l2 -97q22 85 120 99q30 4 65 2v-92q-6 2 -18 4q-7 1 -27 1q-77 0 -107 -40t-30 -112v-267h-95zM143 596l-104 143h86l67 -96l69 96h79l-104 -143h-93z" />
    <glyph glyph-name="Sacute" unicode="&#x15a;" horiz-adv-x="667" 
d="M56 211h104q1 -17 2.5 -28.5t6.5 -30.5t16.5 -31.5t29.5 -26t48.5 -20t70.5 -6.5q52 0 89 14.5t52.5 37.5t21.5 41t6 36q0 24 -8.5 42t-19.5 28.5t-37 21t-44 15.5t-57 15q-95 23 -132.5 35t-63.5 29q-75 51 -75 142q0 70 41.5 119.5t101.5 70.5t132 21q138 0 203 -71
q39 -42 44 -123h-104q-6 110 -152 110q-75 0 -117.5 -31.5t-42.5 -85.5q0 -46 29.5 -68t100.5 -39q137 -35 170 -45.5t63 -30.5q72 -47 72 -144q0 -99 -75 -162t-210 -63q-160 0 -224 82q-42 54 -42 146zM370 930h104l-121 -144h-65z" />
    <glyph glyph-name="sacute" unicode="&#x15b;" horiz-adv-x="500" 
d="M43 149h99q-1 -36 24 -63.5t86 -27.5q62 0 88 32q16 21 16 47q0 34 -23 47t-87 28q-41 9 -61.5 15t-50.5 18t-44.5 26t-25.5 37.5t-11 53.5q0 69 54.5 110.5t141.5 41.5q57 0 109 -18.5t72 -59.5q13 -28 13 -73h-96q1 27 -8.5 44.5t-27 25t-31 10t-30.5 2.5
q-12 0 -23 -1.5t-32 -7t-34 -22t-13 -41.5q0 -21 14 -35.5t25.5 -19t31.5 -9.5q110 -26 143.5 -37.5t55.5 -31.5q38 -35 38 -93q0 -40 -19.5 -74.5t-48.5 -52.5q-55 -34 -149 -34q-85 0 -141 39t-55 124zM287 740h104l-121 -144h-65z" />
    <glyph glyph-name="Scircumflex" unicode="&#x15c;" horiz-adv-x="667" 
d="M56 211h104q1 -17 2.5 -28.5t6.5 -30.5t16.5 -31.5t29.5 -26t48.5 -20t70.5 -6.5q52 0 89 14.5t52.5 37.5t21.5 41t6 36q0 24 -8.5 42t-19.5 28.5t-37 21t-44 15.5t-57 15q-95 23 -132.5 35t-63.5 29q-75 51 -75 142q0 70 41.5 119.5t101.5 70.5t132 21q138 0 203 -71
q39 -42 44 -123h-104q-6 110 -152 110q-75 0 -117.5 -31.5t-42.5 -85.5q0 -46 29.5 -68t100.5 -39q137 -35 170 -45.5t63 -30.5q72 -47 72 -144q0 -99 -75 -162t-210 -63q-160 0 -224 82q-42 54 -42 146zM259 786h-77l106 145h90l104 -145h-86l-66 96z" />
    <glyph glyph-name="scircumflex" unicode="&#x15d;" horiz-adv-x="500" 
d="M43 149h99q-1 -36 24 -63.5t86 -27.5q62 0 88 32q16 21 16 47q0 34 -23 47t-87 28q-41 9 -61.5 15t-50.5 18t-44.5 26t-25.5 37.5t-11 53.5q0 69 54.5 110.5t141.5 41.5q57 0 109 -18.5t72 -59.5q13 -28 13 -73h-96q1 27 -8.5 44.5t-27 25t-31 10t-30.5 2.5
q-12 0 -23 -1.5t-32 -7t-34 -22t-13 -41.5q0 -21 14 -35.5t25.5 -19t31.5 -9.5q110 -26 143.5 -37.5t55.5 -31.5q38 -35 38 -93q0 -40 -19.5 -74.5t-48.5 -52.5q-55 -34 -149 -34q-85 0 -141 39t-55 124zM186 596h-77l106 145h90l104 -145h-86l-66 96z" />
    <glyph glyph-name="Scedilla" unicode="&#x15e;" horiz-adv-x="667" 
d="M221 -194l20 37q22 -14 67 -14q53 0 53 40q0 39 -51 39q-15 0 -36 -8l-15 17l47 66q-152 8 -208 82q-42 56 -42 146h104q1 -22 3 -35t12 -36t27 -36.5t51 -24.5t81 -11q52 0 88.5 14.5t52.5 37t22 41.5t6 36q0 23 -8.5 41t-20 29.5t-36 21.5t-44.5 15.5t-57 14.5
q-92 23 -131 35t-65 29q-75 51 -75 142q0 70 41.5 119.5t101.5 70.5t132 21q138 0 203 -71q6 -7 11.5 -15t9.5 -16t7.5 -14t5.5 -15t3.5 -14t2.5 -14t1.5 -12t1.5 -12.5t1 -10.5h-104q-6 110 -152 110q-75 0 -117.5 -31.5t-42.5 -85.5q0 -46 29.5 -68t100.5 -39
q175 -46 201 -59q14 -6 32 -17q72 -49 72 -144q0 -94 -68 -156t-191 -68l-29 -42q18 5 40 5q40 0 59 -22t19 -49q0 -6 -1 -13t-7.5 -22t-18 -26t-36.5 -20t-59 -9q-52 0 -94 20z" />
    <glyph glyph-name="scedilla" unicode="&#x15f;" horiz-adv-x="500" 
d="M142 -194l20 37q22 -14 67 -14q53 0 53 40q0 39 -51 39q-15 0 -36 -8l-15 17l49 69q-82 2 -134 41.5t-52 121.5h99q0 -36 24.5 -63.5t85.5 -27.5q62 0 88 32q16 20 16 47q0 34 -23.5 48t-86.5 27q-40 9 -61.5 15t-51 18t-44 26t-25.5 37.5t-11 53.5q0 69 54.5 110.5
t141.5 41.5q56 0 108.5 -19t72.5 -59q13 -28 13 -73h-96q1 27 -8.5 44.5t-26.5 25t-31 10t-31 2.5q-11 0 -22.5 -1.5t-32.5 -7t-34 -22t-13 -41.5q0 -8 1.5 -14.5t5 -11.5t6 -9.5t8.5 -8t9.5 -6t11 -5t10 -3.5t10.5 -3.5t9 -2.5q106 -24 142 -36.5t57 -32.5q38 -37 38 -93
q0 -40 -19.5 -74.5t-48.5 -52.5q-47 -28 -116 -33l-32 -45q18 5 40 5q40 0 59 -22t19 -49q0 -6 -1 -13t-7.5 -22t-18 -26t-36.5 -20t-59 -9q-52 0 -94 20z" />
    <glyph glyph-name="Scaron" unicode="&#x160;" horiz-adv-x="667" 
d="M56 211h104q1 -17 2.5 -28.5t6.5 -30.5t16.5 -31.5t29.5 -26t48.5 -20t70.5 -6.5q52 0 89 14.5t52.5 37.5t21.5 41t6 36q0 24 -8.5 42t-19.5 28.5t-37 21t-44 15.5t-57 15q-95 23 -132.5 35t-63.5 29q-75 51 -75 142q0 70 41.5 119.5t101.5 70.5t132 21q138 0 203 -71
q39 -42 44 -123h-104q-6 110 -152 110q-75 0 -117.5 -31.5t-42.5 -85.5q0 -46 29.5 -68t100.5 -39q137 -35 170 -45.5t63 -30.5q72 -47 72 -144q0 -99 -75 -162t-210 -63q-160 0 -224 82q-42 54 -42 146zM285 786l-104 143h86l67 -96l69 96h79l-104 -143h-93z" />
    <glyph glyph-name="scaron" unicode="&#x161;" horiz-adv-x="500" 
d="M43 149h99q0 -36 24.5 -63.5t85.5 -27.5q62 0 88 32q16 20 16 47q0 34 -23.5 48t-86.5 27q-40 9 -61.5 15t-51 18t-44 26t-25.5 37.5t-11 53.5q0 69 54.5 110.5t141.5 41.5q56 0 108.5 -19t72.5 -59q13 -28 13 -73h-96q1 27 -8.5 44.5t-26.5 25t-31 10t-31 2.5
q-11 0 -22.5 -1.5t-32.5 -7t-34 -22t-13 -41.5q0 -8 1.5 -14.5t5 -11.5t6 -9.5t8.5 -8t9.5 -6t11 -5t10 -3.5t10.5 -3.5t9 -2.5q106 -24 142 -36.5t57 -32.5q38 -37 38 -93q0 -40 -19.5 -74.5t-48.5 -52.5q-55 -34 -149 -34q-85 0 -140.5 39t-55.5 124zM201 596l-104 143h86
l67 -96l69 96h79l-104 -143h-93z" />
    <glyph glyph-name="Tcommaaccent" unicode="&#x162;" horiz-adv-x="607" 
d="M362 0h-99v637h-242v85h583v-85h-242v-637zM263 -66h87l-83 -176h-50z" />
    <glyph glyph-name="tcommaaccent" unicode="&#x163;" horiz-adv-x="333" 
d="M36 435v69h89v105l93 30v-135h112v-69h-112v-301q0 -14 1.5 -22t7 -20t20 -18.5t38.5 -6.5q25 0 45 5v-73q-34 -6 -78 -6q-67 0 -97 23.5t-30 83.5v335h-89zM142 -66h87l-83 -176h-50z" />
    <glyph glyph-name="Tcaron" unicode="&#x164;" horiz-adv-x="607" 
d="M362 0h-99v637h-242v85h583v-85h-242v-637zM257 786l-104 143h86l67 -96l69 96h79l-104 -143h-93z" />
    <glyph glyph-name="tcaron" unicode="&#x165;" horiz-adv-x="333" 
d="M36 435v69h89v105l93 30v-135h112v-69h-112v-301q0 -14 1.5 -22t7 -20t20 -18.5t38.5 -6.5q25 0 45 5v-73q-34 -6 -78 -6q-67 0 -97 23.5t-30 83.5v335h-89zM312 722h86l-75 -159h-51z" />
    <glyph glyph-name="Tbar" unicode="&#x166;" horiz-adv-x="607" 
d="M138 422v49h116v166h-242v85h583v-85h-242v-166h116v-49h-116v-422h-99v422h-116z" />
    <glyph glyph-name="tbar" unicode="&#x167;" horiz-adv-x="333" 
d="M11 435v69h89v105l93 30v-135h112v-69h-112v-114h103v-43h-103v-144q0 -14 1.5 -22t7 -20t20 -18.5t38.5 -6.5q32 0 45 5v-73q-34 -6 -78 -6q-68 0 -97.5 23.5t-29.5 83.5v178h-79v43h79v114h-89z" />
    <glyph glyph-name="Utilde" unicode="&#x168;" horiz-adv-x="763" 
d="M93 722h100v-447q0 -85 32 -130q53 -71 165 -71q195 0 195 205v443h97v-445q0 -119 -59 -192q-80 -100 -233 -100q-68 0 -139 25.5t-116 89.5q-42 61 -42 182v440zM303 802h-42q1 43 24 70q22 28 61 28q18 0 77 -17q26 -7 37 -7q37 0 37 37h41q2 -52 -24.5 -76.5
t-59.5 -24.5q-21 0 -63 13l-19 5.5t-20 5.5t-11 2q-27 0 -38 -36z" />
    <glyph glyph-name="utilde" unicode="&#x169;" horiz-adv-x="611" 
d="M78 502h96v-323q0 -22 3.5 -38.5t13.5 -34.5t33 -28t57 -10q80 0 118 56q21 30 21 94v284h97v-408q0 -10 3 -94h-98l-2 86q-12 -24 -25.5 -40.5t-49 -33.5t-85.5 -17q-90 0 -136 46.5t-46 123.5v337zM204 612h-42q2 43 24 70q23 28 61 28q15 0 77 -17q26 -7 37 -7
q37 0 37 37h41q1 -52 -25 -76.5t-59 -24.5q-21 0 -63 13q-8 2 -20 5.5t-19.5 5.5t-10.5 2q-27 0 -38 -36z" />
    <glyph glyph-name="Umacron" unicode="&#x16a;" horiz-adv-x="763" 
d="M93 722h100v-447q0 -85 32 -130q53 -71 165 -71q195 0 195 205v443h97v-445q0 -119 -59 -192q-80 -100 -233 -100q-68 0 -139 25.5t-116 89.5q-42 61 -42 182v440zM257 832v53h275v-53h-275z" />
    <glyph glyph-name="umacron" unicode="&#x16b;" horiz-adv-x="611" 
d="M78 502h96v-323q0 -22 3.5 -38.5t13.5 -34.5t33 -28t57 -10q80 0 118 56q21 30 21 94v284h97v-408q0 -10 3 -94h-98l-2 86q-12 -24 -25.5 -40.5t-49 -33.5t-85.5 -17q-90 0 -136 46.5t-46 123.5v337zM161 642v53h275v-53h-275z" />
    <glyph glyph-name="Ubreve" unicode="&#x16c;" horiz-adv-x="763" 
d="M93 722h100v-447q0 -85 32 -130q53 -71 165 -71q195 0 195 205v443h97v-445q0 -119 -59 -192q-80 -100 -233 -100q-68 0 -139 25.5t-116 89.5q-42 61 -42 182v440zM259 941h47q5 -94 88 -94q29 0 49.5 11.5t28.5 29t11 30t3 23.5h47q2 -77 -33.5 -117t-105.5 -40
q-135 0 -135 157z" />
    <glyph glyph-name="ubreve" unicode="&#x16d;" horiz-adv-x="611" 
d="M78 502h96v-323q0 -22 3.5 -38.5t13.5 -34.5t33 -28t57 -10q80 0 118 56q21 30 21 94v284h97v-408q0 -10 3 -94h-98l-2 86q-12 -24 -25.5 -40.5t-49 -33.5t-85.5 -17q-90 0 -136 46.5t-46 123.5v337zM163 751h47q5 -94 88 -94q29 0 49.5 11.5t28.5 29t11 30t3 23.5h47
q2 -77 -33.5 -117t-105.5 -40q-135 0 -135 157z" />
    <glyph glyph-name="Uring" unicode="&#x16e;" horiz-adv-x="763" 
d="M93 722h100v-447q0 -85 32 -130q53 -71 165 -71q195 0 195 205v443h97v-445q0 -119 -59 -192q-80 -100 -233 -100q-68 0 -139 25.5t-116 89.5q-42 61 -42 182v440zM286 859q0 41 28.5 69.5t69.5 28.5t69.5 -28.5t28.5 -69.5t-28.5 -69.5t-69.5 -28.5t-69.5 28.5
t-28.5 69.5zM326 859q0 -24 17 -41t41 -17t41 17t17 41t-17 41t-41 17t-41 -17t-17 -41z" />
    <glyph glyph-name="uring" unicode="&#x16f;" horiz-adv-x="611" 
d="M78 502h96v-323q0 -22 3.5 -38.5t13.5 -34.5t33 -28t57 -10q80 0 118 56q21 30 21 94v284h97v-408q0 -10 3 -94h-98l-2 86q-12 -24 -25.5 -40.5t-49 -33.5t-85.5 -17q-90 0 -136 46.5t-46 123.5v337zM208 669q0 41 28.5 69.5t69.5 28.5t69.5 -28.5t28.5 -69.5
t-28.5 -69.5t-69.5 -28.5t-69.5 28.5t-28.5 69.5zM248 669q0 -24 17 -41t41 -17t41 17t17 41t-17 41t-41 17t-41 -17t-17 -41z" />
    <glyph glyph-name="Uhungarumlaut" unicode="&#x170;" horiz-adv-x="763" 
d="M93 722h100v-447q0 -85 32 -130q53 -71 165 -71q195 0 195 205v443h97v-445q0 -119 -59 -192q-80 -100 -233 -100q-68 0 -139 25.5t-116 89.5q-42 61 -42 182v440zM452 930l-121 -144h-65l82 144h104zM611 930l-121 -144h-65l82 144h104z" />
    <glyph glyph-name="uhungarumlaut" unicode="&#x171;" horiz-adv-x="611" 
d="M78 502h96v-323q0 -22 3.5 -38.5t13.5 -34.5t33 -28t57 -10q80 0 118 56q21 30 21 94v284h97v-408q0 -10 3 -94h-98l-2 86q-12 -24 -25.5 -40.5t-49 -33.5t-85.5 -17q-90 0 -136 46.5t-46 123.5v337zM372 740l-121 -144h-65l82 144h104zM531 740l-121 -144h-65l82 144
h104z" />
    <glyph glyph-name="Uogonek" unicode="&#x172;" horiz-adv-x="763" 
d="M487 -132v-41q-50 -25 -94 -25q-49 0 -71.5 22.5t-22.5 51.5q0 62 88 109h-3q-68 0 -139 25.5t-116 89.5q-42 64 -42 182v440h100v-447q0 -88 32 -130q52 -71 165 -71q195 0 195 205v443h97v-445q0 -120 -59 -192q-63 -79 -174 -95q-65 -43 -65 -84q0 -50 64 -50
q26 0 45 12z" />
    <glyph glyph-name="uogonek" unicode="&#x173;" horiz-adv-x="611" 
d="M508 -132v-41q-50 -25 -94 -25q-49 0 -71.5 22.5t-22.5 51.5q0 71 118 124h-16l-2 86q-10 -18 -18.5 -29.5t-27 -28t-47.5 -25t-67 -8.5q-90 0 -136 46t-46 124v337h96v-323q0 -22 3.5 -38.5t13.5 -34.5t33 -28t57 -10q80 0 118 56q21 31 21 94v284h97v-408
q0 -3 1.5 -40.5t1.5 -53.5h-41q-28 -18 -40 -27.5t-26 -28t-14 -38.5q0 -50 64 -50q26 0 45 12z" />
    <glyph glyph-name="Wcircumflex" unicode="&#x174;" horiz-adv-x="1000" 
d="M8 722h107l156 -594l172 594h124l163 -599l164 599h98l-214 -722h-111l-167 617l-179 -617h-108zM434 786h-77l106 145h90l104 -145h-86l-66 96z" />
    <glyph glyph-name="wcircumflex" unicode="&#x175;" horiz-adv-x="833" 
d="M12 502h103l121 -400l127 400h123l114 -396l126 396h97l-177 -502h-108l-118 413l-131 -413h-111zM350 596h-77l106 145h90l104 -145h-86l-66 96z" />
    <glyph glyph-name="Ycircumflex" unicode="&#x176;" horiz-adv-x="667" 
d="M289 0v284l-282 438h124l213 -354l216 354h112l-282 -443v-279h-101zM287 786h-77l106 145h90l104 -145h-86l-66 96z" />
    <glyph glyph-name="ycircumflex" unicode="&#x177;" 
d="M537 502l-223 -505l-72 -187h-97l76 192l-209 500h106l157 -396l160 396h102zM218 596h-77l106 145h90l104 -145h-86l-66 96z" />
    <glyph glyph-name="Ydieresis" unicode="&#x178;" horiz-adv-x="667" 
d="M289 0v284l-282 438h124l213 -354l216 354h112l-282 -443v-279h-101zM212 797v102h92v-102h-92zM401 797v102h93v-102h-93z" />
    <glyph glyph-name="Zacute" unicode="&#x179;" horiz-adv-x="611" 
d="M35 0v100l417 534h-406v88h525v-99l-421 -535h428v-88h-543zM351 930h104l-121 -144h-65z" />
    <glyph glyph-name="zacute" unicode="&#x17a;" horiz-adv-x="444" 
d="M30 0v97l268 334h-254v71h361v-80l-277 -349h277v-73h-375zM271 740h104l-121 -144h-65z" />
    <glyph glyph-name="Zdotaccent" unicode="&#x17b;" horiz-adv-x="611" 
d="M35 0v100l417 534h-406v88h525v-99l-421 -535h428v-88h-543zM278 807v102h92v-102h-92z" />
    <glyph glyph-name="zdotaccent" unicode="&#x17c;" horiz-adv-x="444" 
d="M30 0v97l268 334h-254v71h361v-80l-277 -349h277v-73h-375zM187 617v102h92v-102h-92z" />
    <glyph glyph-name="Zcaron" unicode="&#x17d;" horiz-adv-x="611" 
d="M35 0v100l417 534h-406v88h525v-99l-421 -535h428v-88h-543zM257 786l-104 143h86l67 -96l69 96h79l-104 -143h-93z" />
    <glyph glyph-name="zcaron" unicode="&#x17e;" horiz-adv-x="444" 
d="M30 0v97l268 334h-254v71h361v-80l-277 -349h277v-73h-375zM173 596l-104 143h86l67 -96l69 96h79l-104 -143h-93z" />
    <glyph glyph-name="florin" unicode="&#x192;" 
d="M137 417h91l23 110q18 89 52 119q43 38 114 38q21 0 54 -6l-11 -70q-27 3 -35 3q-71 0 -87 -86l-23 -108h105l-14 -67h-103l-61 -325l-12 -60.5t-12.5 -49.5t-17.5 -43t-24 -31.5t-34.5 -24t-46 -11t-61.5 -2.5l12 72q10 -2 16 -2q40 0 57 29q11 18 38 147l58 301h-90z
" />
    <glyph glyph-name="Aringacute" unicode="&#x1fa;" horiz-adv-x="722" 
d="M269 785q0 41 28.5 69.5t69.5 28.5t69.5 -28.5t28.5 -69.5q0 -50 -39 -79l286 -706h-109l-78 188h-335l-78 -188h-103l297 707q-37 29 -37 78zM362 623l-140 -354h273zM413 1047h104l-121 -144h-65zM309 785q0 -24 17 -41t41 -17t41 17t17 41t-17 41t-41 17t-41 -17
t-17 -41z" />
    <glyph glyph-name="aringacute" unicode="&#x1fb;" 
d="M479 0h-85q-9 32 -9 75q-49 -91 -155 -91q-84 0 -130.5 41.5t-46.5 106.5q0 96 88 147q59 33 174 33q25 0 68 -3q0 53 -3 74.5t-15 36.5q-25 33 -87 33q-97 0 -101 -85h-94q7 62 35 95q49 54 162 54q59 0 109 -19t69 -55q17 -32 17 -77l-4 -240q0 -68 8 -126zM383 244
q-25 3 -54 3q-181 0 -181 -102q0 -32 24 -59.5t80 -27.5q72 0 107 54q15 24 18.5 48.5t5.5 83.5zM180 669q0 41 28.5 69.5t69.5 28.5t69.5 -28.5t28.5 -69.5t-28.5 -69.5t-69.5 -28.5t-69.5 28.5t-28.5 69.5zM220 669q0 -24 17 -41t41 -17t41 17t17 41t-17 41t-41 17
t-41 -17t-17 -41zM337 950h104l-121 -144h-65z" />
    <glyph glyph-name="AEacute" unicode="&#x1fc;" horiz-adv-x="1000" 
d="M547 201h-320l-115 -201h-110l421 722h520v-85h-371l38 -223h319v-85h-304l42 -243h287v-86h-373zM273 282h259l-57 366zM699 930h104l-121 -144h-65z" />
    <glyph glyph-name="aeacute" unicode="&#x1fd;" horiz-adv-x="889" 
d="M734 155h96q-7 -52 -30 -88t-55 -52.5t-58.5 -22.5t-53.5 -6q-17 0 -33.5 2.5t-49.5 12t-61.5 36t-44.5 67.5q-49 -117 -195 -117q-103 0 -151 47t-48 110q0 56 38.5 100t113.5 56q53 8 132 8q11 0 34 -0.5t32 -0.5q0 21 -1.5 36t-8 36.5t-18.5 34.5t-36 23t-57 10
q-103 0 -108 -78h-93q7 76 59 110q53 35 137 35q146 0 179 -104q16 36 43 60t56.5 32.5t44.5 10.5t29 2q50 0 102 -24t80 -82q25 -51 25 -172h-347q3 -80 24 -116q18 -33 48.5 -50t64.5 -17q56 0 83 31.5t28 69.5zM488 304h248q0 49 -13 77q-27 64 -102 64q-68 0 -107 -54
q-21 -29 -26 -87zM400 241q-97 0 -119 -1q-139 -10 -139 -98q0 -45 34.5 -66.5t79.5 -21.5q79 0 119 64q25 39 25 123zM503 740h104l-121 -144h-65z" />
    <glyph glyph-name="Oslashacute" unicode="&#x1fe;" horiz-adv-x="778" 
d="M638 799h62l-86 -136q105 -96 105 -300q0 -53 -8.5 -102t-31 -101t-58.5 -90t-96 -62.5t-137 -24.5q-97 0 -183 44l-74 -115h-63l95 147q-19 19 -31.5 35.5t-32 52t-30 89.5t-10.5 122q0 193 98 293q89 90 234 90q102 0 180 -46zM219 147l304 472q-46 38 -132 38
q-52 0 -92.5 -17t-65.5 -45t-41 -67.5t-22 -80t-6 -86.5q0 -137 55 -214zM559 579l-303 -472q48 -39 133 -39q65 0 111.5 26t69.5 71.5t33 94t10 107.5q0 135 -54 212zM412 930h104l-121 -144h-65z" />
    <glyph glyph-name="oslashacute" unicode="&#x1ff;" horiz-adv-x="611" 
d="M477 597h60l-77 -129q92 -72 92 -217q0 -116 -66 -192t-188 -76q-67 0 -113 22l-65 -109h-59l80 135q-90 76 -90 217q0 116 64.5 191.5t183.5 75.5q61 0 117 -21zM187 109l190 319q-36 18 -74 18q-76 0 -115 -57.5t-39 -136.5q0 -89 38 -143zM415 393l-190 -320
q37 -20 75 -20q64 0 108 50.5t44 146.5q0 92 -37 143zM329 740h104l-121 -144h-65z" />
    <glyph glyph-name="Scommaaccent" unicode="&#x218;" horiz-adv-x="667" 
d="M56 211h104q1 -17 2.5 -28.5t6.5 -30.5t16.5 -31.5t29.5 -26t48.5 -20t70.5 -6.5q52 0 89 14.5t52.5 37.5t21.5 41t6 36q0 24 -8.5 42t-19.5 28.5t-37 21t-44 15.5t-57 15q-95 23 -132.5 35t-63.5 29q-75 51 -75 142q0 70 41.5 119.5t101.5 70.5t132 21q138 0 203 -71
q39 -42 44 -123h-104q-6 110 -152 110q-75 0 -117.5 -31.5t-42.5 -85.5q0 -46 29.5 -68t100.5 -39q137 -35 170 -45.5t63 -30.5q72 -47 72 -144q0 -99 -75 -162t-210 -63q-160 0 -224 82q-42 54 -42 146zM297 -66h87l-83 -176h-50z" />
    <glyph glyph-name="scommaaccent" unicode="&#x219;" horiz-adv-x="500" 
d="M43 149h99q-1 -36 24 -63.5t86 -27.5q62 0 88 32q16 21 16 47q0 34 -23 47t-87 28q-41 9 -61.5 15t-50.5 18t-44.5 26t-25.5 37.5t-11 53.5q0 69 54.5 110.5t141.5 41.5q57 0 109 -18.5t72 -59.5q13 -28 13 -73h-96q1 27 -8.5 44.5t-27 25t-31 10t-30.5 2.5
q-12 0 -23 -1.5t-32 -7t-34 -22t-13 -41.5q0 -21 14 -35.5t25.5 -19t31.5 -9.5q110 -26 143.5 -37.5t55.5 -31.5q38 -35 38 -93q0 -40 -19.5 -74.5t-48.5 -52.5q-55 -34 -149 -34q-85 0 -141 39t-55 124zM214 -66h87l-83 -176h-50z" />
    <glyph glyph-name="uni021A" unicode="&#x21a;" horiz-adv-x="607" 
d="M362 0h-99v637h-242v85h583v-85h-242v-637zM263 -66h87l-83 -176h-50z" />
    <glyph glyph-name="uni021B" unicode="&#x21b;" horiz-adv-x="333" 
d="M36 435v69h89v105l93 30v-135h112v-69h-112v-301q0 -14 1.5 -22t7 -20t20 -18.5t38.5 -6.5q25 0 45 5v-73q-34 -6 -78 -6q-67 0 -97 23.5t-30 83.5v335h-89zM142 -66h87l-83 -176h-50z" />
    <glyph glyph-name="dotlessj" unicode="&#x237;" horiz-adv-x="278" 
d="M-1 -193v67q56 -2 74 14.5t18 75.5v538h94v-549q0 -16 -1 -28t-4.5 -31.5t-12 -33.5t-21.5 -28t-36 -21.5t-53 -7.5q-22 0 -58 4z" />
    <glyph glyph-name="circumflex" unicode="&#x2c6;" horiz-adv-x="278" 
d="M64 596h-77l106 145h90l104 -145h-86l-66 96z" />
    <glyph glyph-name="caron" unicode="&#x2c7;" horiz-adv-x="278" 
d="M90 596l-104 143h86l67 -96l69 96h79l-104 -143h-93z" />
    <glyph glyph-name="uni02C9" unicode="&#x2c9;" horiz-adv-x="278" 
d="M0 642v53h275v-53h-275z" />
    <glyph glyph-name="breve" unicode="&#x2d8;" horiz-adv-x="278" 
d="M2 751h47q5 -94 88 -94q29 0 49.5 11.5t28.5 29t11 30t3 23.5h47q2 -77 -33.5 -117t-105.5 -40q-135 0 -135 157z" />
    <glyph glyph-name="dotaccent" unicode="&#x2d9;" horiz-adv-x="278" 
d="M93 617v102h92v-102h-92z" />
    <glyph glyph-name="ring" unicode="&#x2da;" horiz-adv-x="278" 
d="M41 669q0 41 28.5 69.5t69.5 28.5t69.5 -28.5t28.5 -69.5t-28.5 -69.5t-69.5 -28.5t-69.5 28.5t-28.5 69.5zM81 669q0 -24 17 -41t41 -17t41 17t17 41t-17 41t-41 17t-41 -17t-17 -41z" />
    <glyph glyph-name="ogonek" unicode="&#x2db;" horiz-adv-x="278" 
d="M233 -132v-41q-50 -25 -94 -25q-49 0 -71.5 22.5t-22.5 51.5q0 73 121 125h40l-31 -21.5t-23.5 -19.5t-21.5 -26.5t-6 -27.5q0 -50 64 -50q26 0 45 12z" />
    <glyph glyph-name="tilde" unicode="&#x2dc;" horiz-adv-x="278" 
d="M40 612h-42q2 43 24 70q23 28 61 28q15 0 77 -17q26 -7 37 -7q37 0 37 37h41q1 -52 -25 -76.5t-59 -24.5q-21 0 -63 13q-8 2 -20 5.5t-19.5 5.5t-10.5 2q-27 0 -38 -36z" />
    <glyph glyph-name="hungarumlaut" unicode="&#x2dd;" horiz-adv-x="400" 
d="M192 740l-121 -144h-65l82 144h104zM351 740l-121 -144h-65l82 144h104z" />
    <glyph glyph-name="uni0394" unicode="&#x394;" horiz-adv-x="678" 
d="M667 0h-656l276 712h95zM540 83l-207 530l-199 -530h406z" />
    <glyph glyph-name="uni03A9" unicode="&#x3a9;" horiz-adv-x="752" 
d="M693 0h-264v185q82 15 126.5 76t44.5 145q0 99 -65 165.5t-164 66.5t-165 -67t-66 -166q0 -85 43.5 -144t125.5 -76v-185h-263v77h190v62q-90 26 -140 100.5t-50 170.5q0 134 94.5 222.5t229.5 88.5q136 0 229.5 -87.5t93.5 -221.5q0 -99 -49.5 -173t-140.5 -100v-62h190
v-77z" />
    <glyph glyph-name="uni03BC" unicode="&#x3bc;" horiz-adv-x="611" 
d="M89 -209v711h80v-242q0 -105 23 -146q32 -56 101 -56q72 0 109 63q25 44 25 141v240h81v-502h-74v70q-15 -21 -26.5 -34.5t-44 -30t-72.5 -16.5q-35 0 -62.5 13t-36.5 22.5t-23 27.5v-261h-80z" />
    <glyph glyph-name="pi" unicode="&#x3c0;" horiz-adv-x="578" 
d="M545 77v-65q-40 -19 -74 -19q-24 0 -41 7t-25.5 16.5t-13 28.5t-5.5 33t-1 40v306h-205v-424h-79v424h-70v78h511v-78h-78v-301q0 -18 1.5 -28t10.5 -19t26 -9q22 0 43 10z" />
    <glyph glyph-name="uni0400" unicode="&#x400;" horiz-adv-x="611" 
d="M91 0v722h453v-85h-353v-225h336v-84h-336v-240h361v-88h-461zM184 930h113l84 -144h-62z" />
    <glyph glyph-name="afii10023" unicode="&#x401;" horiz-adv-x="611" 
d="M444 840h-91v102h91v-102zM256 840h-91v102h91v-102zM91 0v722h453v-85h-353v-225h336v-84h-336v-240h361v-88h-461z" />
    <glyph glyph-name="afii10051" unicode="&#x402;" horiz-adv-x="795" 
d="M756 216q0 -81 -44.5 -147t-118.5 -98q-49 -20 -130 -25v91q87 4 137.5 56t50.5 136q0 75 -43 114.5t-126 39.5q-69 0 -126 -20v-363h-100v637h-242v85h584v-85h-242v-188q68 20 133 20q134 0 203 -69q64 -64 64 -184z" />
    <glyph glyph-name="afii10052" unicode="&#x403;" horiz-adv-x="540" 
d="M344 942h104l-121 -144h-65zM179 0h-100v722h428v-85h-328v-637z" />
    <glyph glyph-name="afii10053" unicode="&#x404;" horiz-adv-x="667" 
d="M629 527h-107q-5 37 -18 59q-38 66 -138 66q-89 0 -142 -62t-63 -178h302v-84h-304q11 -257 207 -257q130 0 151 119h110q-5 -52 -28 -88q-33 -53 -97.5 -83t-144.5 -30q-143 0 -223 96t-80 268q0 79 18.5 146.5t56 120t100 82.5t144.5 30q71 0 133 -27t95 -81
q23 -37 28 -97z" />
    <glyph glyph-name="afii10054" unicode="&#x405;" horiz-adv-x="667" 
d="M56 213h104q1 -41 13 -68q31 -75 162 -75q69 0 118.5 31.5t49.5 96.5q0 17 -5 31t-10.5 24t-19.5 19.5l-21 14.5t-27 11.5t-26.5 8l-30 7t-26.5 6.5q-120 29 -163 47q-52 22 -80 63.5t-28 96.5q0 95 75.5 152.5t199.5 57.5q167 0 224 -101q21 -36 23 -93h-104
q-6 110 -152 110q-75 0 -117.5 -31t-42.5 -86q0 -22 8 -39t18.5 -27t31 -19t34 -12.5t38.5 -9.5q3 0 12.5 -2.5l31.5 -8.5l42 -11q43 -11 67.5 -18.5t57.5 -23t50.5 -34.5t30.5 -50.5t13 -72.5q0 -102 -77.5 -162.5t-207.5 -60.5q-83 0 -151 28.5t-97 93.5q-18 41 -18 106z
" />
    <glyph glyph-name="afii10055" unicode="&#x406;" horiz-adv-x="278" 
d="M88 0v722h100v-722h-100z" />
    <glyph glyph-name="afii10056" unicode="&#x407;" horiz-adv-x="278" 
d="M277 840h-91v102h91v-102zM89 840h-91v102h91v-102zM88 0v722h100v-722h-100z" />
    <glyph glyph-name="afii10057" unicode="&#x408;" 
d="M21 192h106q1 -42 7 -61q8 -28 36.5 -45t65.5 -17q39 0 68.5 19t40.5 55q8 27 8 74v505h100v-532q0 -91 -62 -148t-162 -57q-60 0 -113 26.5t-75 76.5q-19 43 -20 104z" />
    <glyph glyph-name="afii10058" unicode="&#x409;" horiz-adv-x="1053" 
d="M1026 209q0 -73 -34 -123.5t-97 -71.5q-44 -14 -124 -14h-258v637h-248v-243q0 -148 -17.5 -232.5t-64.5 -131.5q-37 -37 -115 -37q-32 0 -53 9v86q13 -6 38 -6q36 0 59.5 26t34.5 78t14.5 103.5t3.5 128.5v304h448v-304h164q122 0 185.5 -53t63.5 -156zM921 209
q0 59 -37 91t-104 32h-167v-246h167q67 0 104 32t37 91z" />
    <glyph glyph-name="afii10059" unicode="&#x40a;" horiz-adv-x="1053" 
d="M513 0v332h-323v-332h-100v722h100v-304h323v304h100v-304h164q122 0 185.5 -53t63.5 -156q0 -73 -34 -123.5t-97 -71.5q-44 -14 -124 -14h-258zM613 332v-246h167q67 0 104 32t37 91t-37 91t-104 32h-167z" />
    <glyph glyph-name="afii10060" unicode="&#x40b;" horiz-adv-x="799" 
d="M598 637h-242v-184q72 16 129 16q154 0 214 -57q33 -32 45 -81t12 -143v-188h-100v212q0 101 -45 139q-22 18 -49 25.5t-77 7.5q-22 0 -68 -6.5t-61 -10.5v-367h-100v637h-242v85h584v-85z" />
    <glyph glyph-name="afii10061" unicode="&#x40c;" horiz-adv-x="667" 
d="M404 942h104l-121 -144h-65zM93 0v722h99v-316l301 316h137l-323 -323l358 -399h-140l-333 383v-383h-99z" />
    <glyph glyph-name="uni040D" unicode="&#x40d;" horiz-adv-x="722" 
d="M196 0h-106v722h100v-560h3l334 560h106v-722h-100v561h-3zM208 930h113l84 -144h-62z" />
    <glyph glyph-name="afii10062" unicode="&#x40e;" horiz-adv-x="667" 
d="M284 188l-256 534h111l195 -428h2l197 428h113l-358 -722h-110zM251 937q15 -71 91 -71q75 0 94 71h49q-4 -66 -41.5 -102t-102.5 -36q-63 0 -98.5 36t-39.5 102h48z" />
    <glyph glyph-name="afii10145" unicode="&#x40f;" horiz-adv-x="722" 
d="M317 0h-227v722h100v-636h343v636h100v-722h-216v-161h-100v161z" />
    <glyph glyph-name="afii10017" unicode="&#x410;" horiz-adv-x="722" 
d="M9 0l304 722h107l292 -722h-109l-78 188h-335l-78 -188h-103zM222 269h273l-133 354z" />
    <glyph glyph-name="afii10018" unicode="&#x411;" horiz-adv-x="667" 
d="M195 418h164q122 0 185.5 -53t63.5 -156q0 -149 -131 -195q-41 -14 -124 -14h-258v722h448v-85h-348v-219zM195 332v-246h167q67 0 104 32t37 91t-37 91t-104 32h-167z" />
    <glyph glyph-name="afii10019" unicode="&#x412;" horiz-adv-x="667" 
d="M95 0v722h258q71 0 112 -11q55 -16 88 -62.5t33 -108.5q0 -125 -122 -163q65 -14 104.5 -61t39.5 -119q0 -82 -54 -136q-37 -37 -78.5 -49t-107.5 -12h-273zM192 417h140q48 0 74 8q76 24 76 106q0 77 -59 99q-29 10 -87 10h-144v-223zM192 81h171q65 0 103.5 34t38.5 91
t-37.5 91t-100.5 34h-175v-250z" />
    <glyph glyph-name="afii10020" unicode="&#x413;" horiz-adv-x="520" 
d="M179 0h-100v722h428v-85h-328v-637z" />
    <glyph glyph-name="afii10021" unicode="&#x414;" horiz-adv-x="722" 
d="M705 -161h-100v161h-494v-161h-100v247h56q57 70 90 172q7 22 12.5 47.5t9 44.5t6 51.5t4 46.5t2 52t0.5 46.5v51.5v46v78h435v-636h79v-247zM526 86v551h-241v-58v-60.5t-0.5 -54.5t-3 -59l-6 -53t-9.5 -57.5t-14 -53.5q-28 -93 -73 -155h347z" />
    <glyph glyph-name="afii10022" unicode="&#x415;" horiz-adv-x="611" 
d="M91 0v722h453v-85h-353v-225h336v-84h-336v-240h361v-88h-461z" />
    <glyph glyph-name="afii10024" unicode="&#x416;" horiz-adv-x="1050" 
d="M1049 0h-141l-333 383v-383h-100v383l-333 -383h-141l359 399l-323 323h137l301 -313v313h100v-313l301 313h137l-323 -323z" />
    <glyph glyph-name="afii10025" unicode="&#x417;" horiz-adv-x="667" 
d="M608 193q0 -95 -75.5 -151.5t-202.5 -56.5q-200 0 -253 132q-13 33 -14 88h105q3 -34 11 -52q17 -39 59 -60.5t99 -21.5q74 0 119.5 34t45.5 90q0 64 -45.5 99t-127.5 35h-21q-3 0 -8.5 -0.5t-8.5 -0.5v89h28q82 0 127.5 32t45.5 91q0 53 -40 82t-113 29q-81 0 -126 -40
q-24 -22 -30 -69h-105q5 50 15 76.5t35 50.5q68 68 210 68q118 0 189 -54t71 -144q0 -62 -38 -104t-109 -59v-2q74 -10 115.5 -58t41.5 -123z" />
    <glyph glyph-name="afii10026" unicode="&#x418;" horiz-adv-x="722" 
d="M196 0h-106v722h100v-560h3l334 560h106v-722h-100v561h-3z" />
    <glyph glyph-name="afii10027" unicode="&#x419;" horiz-adv-x="722" 
d="M282 937q15 -71 91 -71q75 0 94 71h49q-4 -66 -41.5 -102t-102.5 -36q-63 0 -98.5 36t-39.5 102h48zM196 0h-106v722h100v-560h3l334 560h106v-722h-100v561h-3z" />
    <glyph glyph-name="afii10028" unicode="&#x41a;" horiz-adv-x="667" 
d="M93 0v722h99v-316l301 316h137l-323 -323l358 -399h-140l-333 383v-383h-99z" />
    <glyph glyph-name="afii10029" unicode="&#x41b;" horiz-adv-x="722" 
d="M265 637v-243q0 -151 -17.5 -234t-64.5 -130q-37 -37 -115 -37q-32 0 -53 9v86q13 -6 38 -6q36 0 59.5 26t34.5 78t14.5 103.5t3.5 128.5v304h468v-722h-100v637h-268z" />
    <glyph glyph-name="afii10030" unicode="&#x41c;" horiz-adv-x="944" 
d="M90 0v722h177l204 -595l209 595h165v-722h-98v650l-237 -650h-95l-228 646v-646h-97z" />
    <glyph glyph-name="afii10031" unicode="&#x41d;" horiz-adv-x="722" 
d="M90 722h100v-310h343v310h100v-722h-100v326h-343v-326h-100v722z" />
    <glyph glyph-name="afii10032" unicode="&#x41e;" horiz-adv-x="778" 
d="M59 356q0 181 88 281t246 100q156 0 241 -96.5t85 -273.5q0 -174 -83 -278t-254 -104q-156 0 -239.5 96t-83.5 275zM164 362q0 -144 57 -218t167 -74q111 0 168 75.5t57 223.5q0 284 -219 284q-230 0 -230 -291z" />
    <glyph glyph-name="afii10033" unicode="&#x41f;" horiz-adv-x="722" 
d="M190 0h-100v722h543v-722h-100v637h-343v-637z" />
    <glyph glyph-name="afii10034" unicode="&#x420;" horiz-adv-x="611" 
d="M88 0v722h242q76 0 116 -10q60 -14 97 -65.5t37 -121.5q0 -87 -57 -142q-35 -34 -84 -48t-134 -14h-117v-321h-100zM188 405h119q64 0 99 13q68 26 68 110q0 53 -26 80q-29 33 -120 33h-140v-236z" />
    <glyph glyph-name="afii10035" unicode="&#x421;" horiz-adv-x="667" 
d="M630 527h-107q-5 37 -18 59q-38 66 -138 66q-99 0 -152 -77t-53 -221q0 -140 52 -211.5t153 -71.5q130 0 151 119h110q-5 -52 -28 -88q-33 -53 -97.5 -83t-144.5 -30q-142 0 -221.5 96t-79.5 268q0 80 18.5 146.5t55.5 119.5t99 83t144 30q108 0 178 -54q39 -31 56 -65
t22 -86z" />
    <glyph glyph-name="afii10036" unicode="&#x422;" horiz-adv-x="611" 
d="M355 0h-99v637h-242v85h583v-85h-242v-637z" />
    <glyph glyph-name="afii10037" unicode="&#x423;" horiz-adv-x="667" 
d="M284 188l-256 534h111l195 -428h2l197 428h113l-358 -722h-110z" />
    <glyph glyph-name="afii10038" unicode="&#x424;" horiz-adv-x="820" 
d="M765 372q0 -139 -77 -218.5t-228 -79.5v-74h-100v74q-151 0 -228 79.5t-77 218.5q0 142 83.5 215t221.5 73v62h100v-62q138 0 221.5 -73t83.5 -215zM660 373q0 212 -200 212v-432q98 0 149 60t51 160zM360 153v432q-200 0 -200 -212q0 -100 51 -160t149 -60z" />
    <glyph glyph-name="afii10039" unicode="&#x425;" horiz-adv-x="722" 
d="M49 722h128l195 -278l195 278h121l-257 -346l270 -376h-126l-215 310l-220 -310h-121l280 378z" />
    <glyph glyph-name="afii10040" unicode="&#x426;" horiz-adv-x="722" 
d="M705 -161h-100v161h-515v722h100v-636h343v636h100v-636h72v-247z" />
    <glyph glyph-name="afii10041" unicode="&#x427;" horiz-adv-x="667" 
d="M478 327q-72 -23 -168 -23q-129 0 -182 63t-53 216v139h100v-134q0 -113 31.5 -155.5t114.5 -42.5q91 0 157 22v310h100v-722h-100v327z" />
    <glyph glyph-name="afii10042" unicode="&#x428;" horiz-adv-x="1075" 
d="M90 0v722h100v-636h298v636h100v-636h298v636h100v-722h-896z" />
    <glyph glyph-name="afii10043" unicode="&#x429;" horiz-adv-x="1075" 
d="M1058 -161h-100v161h-868v722h100v-636h298v636h100v-636h298v636h100v-636h72v-247z" />
    <glyph glyph-name="afii10044" unicode="&#x42a;" horiz-adv-x="767" 
d="M215 637h-201v85h301v-304h164q122 0 185.5 -53t63.5 -156q0 -149 -131 -195q-41 -14 -124 -14h-258v637zM315 86h167q67 0 104 32t37 91t-37 91t-104 32h-167v-246z" />
    <glyph glyph-name="afii10045" unicode="&#x42b;" horiz-adv-x="900" 
d="M195 418h164q122 0 185.5 -53t63.5 -156q0 -149 -131 -195q-41 -14 -124 -14h-258v722h100v-304zM711 722h100v-722h-100v722zM195 332v-246h167q67 0 104 32t37 91t-37 91t-104 32h-167z" />
    <glyph glyph-name="afii10046" unicode="&#x42c;" horiz-adv-x="650" 
d="M195 418h164q122 0 185.5 -53t63.5 -156q0 -149 -131 -195q-41 -14 -124 -14h-258v722h100v-304zM195 332v-246h167q67 0 104 32t37 91t-37 91t-104 32h-167z" />
    <glyph glyph-name="afii10047" unicode="&#x42d;" horiz-adv-x="667" 
d="M614 353q0 -172 -80 -268t-223 -96q-80 0 -144.5 30t-97.5 83q-23 36 -28 88h110q21 -119 151 -119q196 0 207 257h-304v84h302q-10 116 -63 178t-142 62q-100 0 -138 -66q-13 -22 -18 -59h-107q5 60 28 97q33 54 95 81t133 27q82 0 144.5 -30t100 -82.5t56 -120
t18.5 -146.5z" />
    <glyph glyph-name="afii10048" unicode="&#x42e;" horiz-adv-x="1028" 
d="M311 412q13 156 100 240.5t232 84.5q156 0 241 -96.5t85 -273.5q0 -150 -63 -251q-82 -131 -274 -131q-150 0 -233 88.5t-89 254.5h-120v-328h-100v722h100v-310h121zM414 362q0 -144 57 -218t167 -74q111 0 168 75.5t57 223.5q0 284 -219 284q-230 0 -230 -291z" />
    <glyph glyph-name="afii10049" unicode="&#x42f;" horiz-adv-x="667" 
d="M584 0h-100v328h-140q-46 0 -68 -7.5t-40 -27.5q-10 -11 -17 -25.5t-11.5 -34.5t-6 -32t-4 -37t-3.5 -31q-8 -67 -26 -133h-107q14 39 18 52q9 34 21 121l6 44q9 65 26 95q21 36 84 53v2q-48 14 -73 35q-63 52 -63 140q0 87 63.5 133.5t182.5 46.5h258v-722zM486 412v225
h-165q-136 0 -136 -115q0 -110 136 -110h165z" />
    <glyph glyph-name="afii10065" unicode="&#x430;" 
d="M479 -1h-85q-9 22 -9 63v12q-50 -91 -156 -91q-79 0 -127.5 40.5t-48.5 107.5q0 74 55 123q64 57 207 57q45 0 60 -2l8 -1v22q0 66 -18 89q-23 33 -87 33q-96 0 -101 -85h-94q4 42 18 70q19 38 65.5 58.5t112.5 20.5q54 0 105 -17.5t74 -56.5q17 -29 17 -77l-4 -240
q-1 -49 8 -126zM383 243l-7 1q-17 2 -47 2q-37 0 -75 -6q-50 -8 -78 -33.5t-28 -62.5q0 -40 28.5 -63.5t75.5 -23.5q40 0 72.5 19.5t45.5 55.5q9 23 12 85z" />
    <glyph glyph-name="afii10066" unicode="&#x431;" horiz-adv-x="611" 
d="M153 253q0 -85 37 -142.5t115 -57.5q74 0 112.5 58.5t38.5 139.5q0 88 -35.5 141.5t-115.5 53.5q-76 0 -114 -56t-38 -137zM55 279q0 217 66 308q33 46 75.5 66.5t103.5 32.5q11 2 30.5 5l33 5t28 5.5t23.5 8.5t11 12h105q-9 -44 -38 -72t-96 -37q-6 -1 -38.5 -4.5
t-50.5 -7t-46 -10t-48.5 -18.5t-34.5 -28q-33 -37 -54 -144l2 -1q29 56 80.5 85t113.5 29q112 0 173 -74.5t61 -188.5q0 -117 -65.5 -192t-184.5 -75q-131 0 -190.5 80.5t-59.5 214.5z" />
    <glyph glyph-name="afii10067" unicode="&#x432;" 
d="M390 267q49 -10 80.5 -43t31.5 -76q0 -66 -47 -107t-123 -41h-254v502h228q79 0 124.5 -33t45.5 -95q0 -37 -24.5 -67t-61.5 -38v-2zM171 290h119q90 0 90 73q0 70 -84 70h-125v-143zM171 69h137q44 0 69 21t25 58q0 77 -100 77h-131v-156z" />
    <glyph glyph-name="afii10068" unicode="&#x433;" horiz-adv-x="444" 
d="M182 431v-431h-95v502h331v-71h-236z" />
    <glyph glyph-name="afii10069" unicode="&#x434;" horiz-adv-x="611" 
d="M584 -141h-90v141h-384v-141h-90v214h51q33 45 48 85q31 88 31 267v77h370v-429h64v-214zM425 73v358h-183q-2 -160 -22 -249q-16 -72 -45 -109h250z" />
    <glyph glyph-name="afii10070" unicode="&#x435;" 
d="M504 234h-361v-16q0 -76 38.5 -120.5t105.5 -44.5q50 0 80.5 27t37.5 77h94q-5 -43 -19 -71q-25 -48 -76.5 -74.5t-120.5 -26.5q-115 0 -174 66.5t-59 195.5q0 124 59.5 196t179.5 72q105 0 160.5 -62.5t55.5 -181.5q0 -22 -1 -37zM408 300v9q0 66 -32.5 102.5
t-91.5 36.5q-62 0 -99 -40t-38 -108h261z" />
    <glyph glyph-name="afii10072" unicode="&#x436;" horiz-adv-x="765" 
d="M753 0h-123l-199 248l-2 -1v-247h-95v247l-2 1l-199 -248h-123l226 265l-213 237h123l186 -230l2 1v229h95v-229l2 -1l186 230h123l-214 -237z" />
    <glyph glyph-name="afii10073" unicode="&#x437;" horiz-adv-x="500" 
d="M447 144q0 -74 -56 -117.5t-152 -43.5q-140 0 -182 87q-11 22 -15 63h100q16 -80 101 -80q48 0 77.5 24.5t29.5 61.5q0 38 -30 61t-82 23h-40v72h32q52 0 81 21.5t29 59.5q0 70 -89 70q-47 0 -69.5 -18t-30.5 -61h-99q3 71 55 109.5t145 38.5q88 0 136.5 -36t48.5 -101
q0 -89 -98 -110v-2q51 -7 79.5 -39t28.5 -83z" />
    <glyph glyph-name="afii10074" unicode="&#x438;" horiz-adv-x="611" 
d="M192 0h-105v502h92v-376h3l237 376h105v-502h-92v377h-3z" />
    <glyph glyph-name="afii10075" unicode="&#x439;" horiz-adv-x="611" 
d="M214 722q15 -71 91 -71q75 0 94 71h49q-4 -66 -41.5 -102t-102.5 -36q-63 0 -98.5 36t-39.5 102h48zM192 0h-105v502h92v-376h3l237 376h105v-502h-92v377h-3z" />
    <glyph glyph-name="afii10076" unicode="&#x43a;" horiz-adv-x="500" 
d="M174 0h-95v502h95v-230h2l186 230h123l-215 -237l228 -265h-123l-199 248h-2v-248z" />
    <glyph glyph-name="afii10077" unicode="&#x43b;" horiz-adv-x="587" 
d="M23 75q15 -6 34 -6q49 0 67.5 65.5t18.5 237.5v130h357v-502h-95v431h-167v-104q0 -109 -16 -189.5t-44 -108.5q-36 -36 -102 -36q-30 0 -53 7v75z" />
    <glyph glyph-name="afii10078" unicode="&#x43c;" horiz-adv-x="731" 
d="M644 0h-91v405h-2l-146 -405h-79l-146 405h-2v-405h-91v502h143l135 -386h1l135 386h143v-502z" />
    <glyph glyph-name="afii10079" unicode="&#x43d;" horiz-adv-x="611" 
d="M182 225v-225h-95v502h95v-207h247v207h95v-502h-95v225h-247z" />
    <glyph glyph-name="afii10080" unicode="&#x43e;" horiz-adv-x="611" 
d="M54 245q0 123 66.5 196.5t188.5 73.5q118 0 182 -71t64 -192q0 -124 -69 -196.5t-185 -72.5q-115 0 -181 70t-66 192zM152 256q0 -95 40 -149t111 -54q75 0 113.5 58.5t38.5 143.5q0 90 -38.5 140.5t-107.5 50.5q-71 0 -114 -52t-43 -138z" />
    <glyph glyph-name="afii10081" unicode="&#x43f;" horiz-adv-x="611" 
d="M182 431v-431h-95v502h437v-502h-95v431h-247z" />
    <glyph glyph-name="afii10082" unicode="&#x440;" horiz-adv-x="611" 
d="M85 -193v613q0 42 -3 82h95l2 -81q26 44 70.5 67.5t100.5 23.5q97 1 154 -69t57 -191q0 -124 -61.5 -196.5t-167.5 -72.5q-107 0 -154 75v-251h-93zM175 241q0 -189 141 -189q71 0 109 53t38 153q0 184 -138 184q-74 0 -112 -51t-38 -150z" />
    <glyph glyph-name="afii10083" unicode="&#x441;" horiz-adv-x="500" 
d="M463 341h-95q-9 105 -100 105q-38 0 -65 -17t-40.5 -46.5t-19 -60.5t-5.5 -67q0 -197 125 -197q49 0 78 29.5t31 79.5h95q-4 -81 -60.5 -130.5t-142.5 -49.5q-108 0 -166.5 67t-58.5 190q0 130 63 200q63 71 165 71q85 0 137.5 -45t58.5 -129z" />
    <glyph glyph-name="afii10084" unicode="&#x442;" horiz-adv-x="487" 
d="M473 502v-71h-182v-431h-95v431h-182v71h459z" />
    <glyph glyph-name="afii10085" unicode="&#x443;" 
d="M540 502l-223 -505l-72 -187h-97l76 192l-209 500h106l157 -396l160 396h102z" />
    <glyph glyph-name="afii10086" unicode="&#x444;" horiz-adv-x="804" 
d="M452 479q28 38 93 38q91 0 149.5 -76.5t58.5 -196.5q0 -118 -56 -188.5t-151 -70.5q-54 0 -94 35v-212h-95v212q-38 -35 -94 -35q-95 0 -151 70.5t-56 188.5q0 119 58.5 196t149.5 77q63 0 93 -38v243h95v-243zM452 80q30 -29 75 -29q126 0 126 200q0 197 -127 197
q-48 0 -74 -30v-338zM357 80v338q-26 30 -75 30q-126 0 -126 -197q0 -200 126 -200q45 0 75 29z" />
    <glyph glyph-name="afii10087" unicode="&#x445;" 
d="M342 257l196 -257h-124l-143 201l-142 -201h-110l199 263l-188 239h123l134 -189l140 189h111z" />
    <glyph glyph-name="afii10088" unicode="&#x446;" horiz-adv-x="620" 
d="M598 -141h-90v141h-421v502h95v-429h247v429h95v-429h74v-214z" />
    <glyph glyph-name="afii10089" unicode="&#x447;" 
d="M382 284v218h95v-502h-95v215q-53 -23 -142 -23q-86 0 -132 43.5t-46 123.5v143h95v-121q0 -115 113 -115q72 0 112 18z" />
    <glyph glyph-name="afii10090" unicode="&#x448;" horiz-adv-x="855" 
d="M770 0h-683v502h95v-429h199v429h95v-429h199v429h95v-502z" />
    <glyph glyph-name="afii10091" unicode="&#x449;" horiz-adv-x="866" 
d="M844 -141h-90v141h-667v502h95v-429h199v429h95v-429h199v429h95v-429h74v-214z" />
    <glyph glyph-name="afii10092" unicode="&#x44a;" horiz-adv-x="656" 
d="M285 325h140q84 0 134 -44t50 -119q0 -76 -46 -119t-129 -43h-244v432h-171v70h266v-177zM285 70h125q46 0 72.5 25t26.5 68q0 92 -105 92h-119v-185z" />
    <glyph glyph-name="afii10093" unicode="&#x44b;" horiz-adv-x="758" 
d="M86 0v502h95v-177h125q84 0 134 -44t50 -119t-46.5 -118.5t-128.5 -43.5h-229zM576 502h95v-502h-95v502zM181 70h110q46 0 72.5 25t26.5 68q0 92 -105 92h-104v-185z" />
    <glyph glyph-name="afii10094" unicode="&#x44c;" 
d="M90 0v502h95v-177h140q84 0 134 -44t50 -119t-46.5 -118.5t-128.5 -43.5h-244zM185 70h125q46 0 72.5 25t26.5 68q0 92 -105 92h-119v-185z" />
    <glyph glyph-name="afii10095" unicode="&#x44d;" horiz-adv-x="500" 
d="M462 244q0 -123 -58.5 -190t-166.5 -67q-86 0 -142.5 49.5t-60.5 130.5h95q1 -50 30.5 -79.5t78.5 -29.5q114 0 124 164h-183v66h183q-4 73 -36 115q-32 43 -93 43q-32 0 -56.5 -15.5t-34.5 -42.5q-7 -19 -9 -47h-95q4 50 24 86q50 88 172 88q102 0 165 -71
q63 -70 63 -200z" />
    <glyph glyph-name="afii10096" unicode="&#x44e;" horiz-adv-x="811" 
d="M257 225h-75v-225h-95v502h95v-207h78q13 105 79 162.5t173 57.5q118 0 182 -71t64 -192q0 -124 -69 -196.5t-185 -72.5q-110 0 -175.5 64.5t-71.5 177.5zM658 255q0 90 -38.5 140.5t-107.5 50.5q-71 0 -114 -52t-43 -138q0 -95 40 -149t111 -54q76 0 114 57t38 145z" />
    <glyph glyph-name="afii10097" unicode="&#x44f;" 
d="M153 236q-34 10 -52 24q-43 35 -43 101q0 64 46.5 102.5t123.5 38.5h246v-502h-95v210h-131q-50 0 -67 -20q-17 -18 -21 -76q-3 -29 -4 -37q-7 -48 -14 -77h-99q15 36 25 112l2 15q6 45 18 64q20 31 65 44v1zM379 277v155h-127q-44 0 -69 -20.5t-25 -57.5q0 -77 100 -77
h121z" />
    <glyph glyph-name="uni0450" unicode="&#x450;" 
d="M504 234h-361v-16q0 -76 38.5 -120.5t105.5 -44.5q50 0 80.5 27t37.5 77h94q-5 -43 -19 -71q-25 -48 -76.5 -74.5t-120.5 -26.5q-115 0 -174 66.5t-59 195.5q0 124 59.5 196t179.5 72q105 0 160.5 -62.5t55.5 -181.5q0 -22 -1 -37zM408 300v9q0 66 -32.5 102.5
t-91.5 36.5q-62 0 -99 -40t-38 -108h261zM141 740h113l84 -144h-62z" />
    <glyph glyph-name="afii10071" unicode="&#x451;" 
d="M416 620h-91v102h91v-102zM228 620h-91v102h91v-102zM504 234h-361v-16q0 -76 38.5 -120.5t105.5 -44.5q50 0 80.5 27t37.5 77h94q-5 -43 -19 -71q-25 -48 -76.5 -74.5t-120.5 -26.5q-115 0 -174 66.5t-59 195.5q0 124 59.5 196t179.5 72q105 0 160.5 -62.5t55.5 -181.5
q0 -22 -1 -37zM408 300v9q0 66 -32.5 102.5t-91.5 36.5q-62 0 -99 -40t-38 -108h261z" />
    <glyph glyph-name="afii10099" unicode="&#x452;" horiz-adv-x="598" 
d="M522 65q0 -125 -59 -195.5t-165 -70.5h-16v68q67 0 106 53.5t39 144.5v53q0 147 -106 147q-62 0 -99 -41.5t-37 -110.5v-113h-95v432h-81v70h81v220h95v-220h213v-70h-213v-176h2q30 44 68.5 63t94.5 19q82 0 127 -46t45 -131v-96z" />
    <glyph glyph-name="afii10100" unicode="&#x453;" horiz-adv-x="449" 
d="M185 432v-432h-95v502h322v-70h-227zM262 722h104l-121 -144h-65z" />
    <glyph glyph-name="afii10101" unicode="&#x454;" horiz-adv-x="500" 
d="M472 167q-4 -81 -60.5 -130.5t-142.5 -49.5q-108 0 -166.5 67t-58.5 190q0 117 57.5 194t170.5 77q81 0 133 -41q56 -45 63 -133h-95q-2 28 -9 47q-10 27 -34.5 42.5t-56.5 15.5q-64 0 -94.5 -45t-34.5 -113h183v-66h-183q10 -164 124 -164q49 0 78.5 29.5t30.5 79.5h95z
" />
    <glyph glyph-name="afii10102" unicode="&#x455;" horiz-adv-x="500" 
d="M43 149h99q0 -24 8 -40q25 -51 105 -51q47 0 74 21t27 58q0 14 -6 25.5t-12 18t-21 12.5t-22 8t-26.5 6t-22.5 5t-9 2l-52 12.5t-47.5 16.5t-45 26t-27.5 38t-12 55q0 68 54 110t142 42q86 0 141 -35q53 -33 53 -113v-3h-96v7q0 75 -97 75q-49 0 -75.5 -19t-26.5 -53
q0 -36 34 -52q15 -7 114 -30q37 -9 60 -17t49 -24t38.5 -41.5t12.5 -61.5q0 -85 -63.5 -123t-153.5 -38q-92 0 -144 41.5t-52 116.5v5z" />
    <glyph glyph-name="afii10103" unicode="&#x456;" horiz-adv-x="278" 
d="M82 619v103h113v-103h-113zM92 0v502h94v-502h-94z" />
    <glyph glyph-name="afii10104" unicode="&#x457;" horiz-adv-x="278" 
d="M277 620h-91v102h91v-102zM89 620h-91v102h91v-102zM89 0v502h94v-502h-94z" />
    <glyph glyph-name="afii10105" unicode="&#x458;" horiz-adv-x="278" 
d="M82 618v104h114v-104h-114zM-1 -193v67q11 -1 19 -1q38 0 54 15q19 15 19 76v538h94v-549q0 -77 -30.5 -113.5t-95.5 -36.5q-13 0 -21 1q-30 2 -39 3z" />
    <glyph glyph-name="afii10106" unicode="&#x459;" horiz-adv-x="819" 
d="M791 148q0 -71 -45.5 -109.5t-129.5 -38.5h-224v431h-154v-104q0 -109 -16 -189.5t-44 -108.5q-36 -36 -102 -36q-30 0 -53 7v75q15 -6 34 -6q49 0 67.5 65.5t18.5 237.5v130h344v-207h120q88 0 136 -38.5t48 -108.5zM691 151q0 74 -105 74h-99v-155h105q47 0 73 21.5
t26 59.5z" />
    <glyph glyph-name="afii10107" unicode="&#x45a;" horiz-adv-x="837" 
d="M808 148q0 -71 -45.5 -109.5t-129.5 -38.5h-224v225h-227v-225h-95v502h95v-207h227v207h95v-207h120q88 0 136 -38.5t48 -108.5zM708 151q0 74 -105 74h-99v-155h105q47 0 73 21.5t26 59.5z" />
    <glyph glyph-name="afii10108" unicode="&#x45b;" horiz-adv-x="611" 
d="M398 502v-70h-213v-176h2q32 44 69.5 63t93.5 19q82 0 127 -46t45 -131v-161h-95v118q0 147 -106 147q-81 0 -117 -66q-5 -8 -8 -16.5t-5 -18t-3.5 -15.5t-2 -18t-0.5 -16v-18.5v-17.5v-79h-95v432h-81v70h81v220h95v-220h213z" />
    <glyph glyph-name="afii10109" unicode="&#x45c;" horiz-adv-x="500" 
d="M312 722h104l-121 -144h-65zM174 0h-95v502h95v-230h2l186 230h123l-215 -237l228 -265h-123l-199 248h-2v-248z" />
    <glyph glyph-name="uni045D" unicode="&#x45d;" horiz-adv-x="611" 
d="M192 0h-105v502h92v-376h3l237 376h105v-502h-92v377h-3zM157 740h113l84 -144h-62z" />
    <glyph glyph-name="afii10110" unicode="&#x45e;" 
d="M193 722q15 -71 91 -71q75 0 94 71h49q-4 -66 -41.5 -102t-102.5 -36q-63 0 -98.5 36t-39.5 102h48zM537 502l-223 -505l-72 -187h-97l76 192l-209 500h106l157 -396l160 396h102z" />
    <glyph glyph-name="afii10193" unicode="&#x45f;" horiz-adv-x="611" 
d="M527 0h-168v-141h-95v141h-174v502h95v-429h247v429h95v-502z" />
    <glyph glyph-name="afii10146" unicode="&#x462;" horiz-adv-x="677" 
d="M225 418h164q122 0 185.5 -53t63.5 -156q0 -149 -131 -195q-41 -14 -124 -14h-258v526h-125v85h125v111h100v-111h288v-85h-288v-108zM225 332v-246h167q67 0 104 32t37 91t-37 91t-104 32h-167z" />
    <glyph glyph-name="afii10194" unicode="&#x463;" horiz-adv-x="566" 
d="M405 435h-210v-110h140q84 0 134 -44t50 -119t-46.5 -118.5t-128.5 -43.5h-244v435h-89v69h89v218h95v-218h210v-69zM195 70h125q46 0 72.5 25t26.5 68q0 92 -105 92h-119v-185z" />
    <glyph glyph-name="afii10147" unicode="&#x472;" horiz-adv-x="778" 
d="M59 356q0 181 88 281t246 100q156 0 241 -96.5t85 -273.5q0 -174 -83 -278t-254 -104q-156 0 -239.5 96t-83.5 275zM388 70q205 0 223 252h-446q17 -252 223 -252zM394 653q-211 0 -229 -246h447q-15 246 -218 246z" />
    <glyph glyph-name="afii10195" unicode="&#x473;" horiz-adv-x="611" 
d="M54 245q0 123 66.5 196.5t188.5 73.5q118 0 182 -71t64 -192q0 -124 -69 -196.5t-185 -72.5q-115 0 -181 70t-66 192zM303 53q67 0 105 47.5t45 120.5h-300q8 -80 47 -124t103 -44zM309 446q-63 0 -105 -42t-50 -114h299q-7 74 -45 115t-99 41z" />
    <glyph glyph-name="afii10148" unicode="&#x474;" horiz-adv-x="706" 
d="M701 641h-12q-56 0 -85 -26.5t-54 -103.5l-169 -511h-110l-257 722h111l205 -617l136 441q30 94 80.5 140t142.5 46h12v-91z" />
    <glyph glyph-name="afii10196" unicode="&#x475;" horiz-adv-x="565" 
d="M222 0l-210 502h105l160 -398l93 275q44 133 180 133h9v-77h-9q-41 0 -63 -18t-40 -68l-125 -349h-100z" />
    <glyph glyph-name="afii10050" unicode="&#x490;" horiz-adv-x="520" 
d="M507 846v-209h-328v-637h-100v722h328v124h100z" />
    <glyph glyph-name="afii10098" unicode="&#x491;" horiz-adv-x="444" 
d="M425 623v-192h-240v-431h-95v502h240v121h95z" />
    <glyph glyph-name="Wgrave" unicode="&#x1e80;" horiz-adv-x="1000" 
d="M8 722h107l156 -594l172 594h124l163 -599l164 599h98l-214 -722h-111l-167 617l-179 -617h-108zM338 930h113l84 -144h-62z" />
    <glyph glyph-name="wgrave" unicode="&#x1e81;" horiz-adv-x="833" 
d="M12 502h103l121 -400l127 400h123l114 -396l126 396h97l-177 -502h-108l-118 413l-131 -413h-111zM252 740h113l84 -144h-62z" />
    <glyph glyph-name="Wacute" unicode="&#x1e82;" horiz-adv-x="1000" 
d="M8 722h107l156 -594l172 594h124l163 -599l164 599h98l-214 -722h-111l-167 617l-179 -617h-108zM560 930h104l-121 -144h-65z" />
    <glyph glyph-name="wacute" unicode="&#x1e83;" horiz-adv-x="833" 
d="M12 502h103l121 -400l127 400h123l114 -396l126 396h97l-177 -502h-108l-118 413l-131 -413h-111zM479 740h104l-121 -144h-65z" />
    <glyph glyph-name="Wdieresis" unicode="&#x1e84;" horiz-adv-x="1000" 
d="M8 722h107l156 -594l172 594h124l163 -599l164 599h98l-214 -722h-111l-167 617l-179 -617h-108zM369 807v102h92v-102h-92zM558 807v102h93v-102h-93z" />
    <glyph glyph-name="wdieresis" unicode="&#x1e85;" horiz-adv-x="833" 
d="M12 502h103l121 -400l127 400h123l114 -396l126 396h97l-177 -502h-108l-118 413l-131 -413h-111zM284 616v102h92v-102h-92zM473 616v102h93v-102h-93z" />
    <glyph glyph-name="Ygrave" unicode="&#x1ef2;" horiz-adv-x="667" 
d="M289 0v284l-282 438h124l213 -354l216 354h112l-282 -443v-279h-101zM185 930h113l84 -144h-62z" />
    <glyph glyph-name="ygrave" unicode="&#x1ef3;" 
d="M537 502l-223 -505l-72 -187h-97l76 192l-209 500h106l157 -396l160 396h102zM136 740h113l84 -144h-62z" />
    <glyph glyph-name="uni2010" unicode="&#x2010;" horiz-adv-x="333" 
d="M42 225v76h251v-76h-251z" />
    <glyph glyph-name="endash" unicode="&#x2013;" horiz-adv-x="500" 
d="M0 231v72h500v-72h-500z" />
    <glyph glyph-name="emdash" unicode="&#x2014;" horiz-adv-x="1000" 
d="M130 231v72h740v-72h-740z" />
    <glyph glyph-name="quoteleft" unicode="&#x2018;" horiz-adv-x="278" 
d="M161 476h-115l115 246h67z" />
    <glyph glyph-name="quoteright" unicode="&#x2019;" horiz-adv-x="278" 
d="M112 722h115l-112 -246h-68z" />
    <glyph glyph-name="quotesinglbase" unicode="&#x201a;" horiz-adv-x="278" 
d="M111 100h115l-110 -235h-67z" />
    <glyph glyph-name="quotedblleft" unicode="&#x201c;" 
d="M202 476h-115l115 246h67zM389 476h-115l115 246h67z" />
    <glyph glyph-name="quotedblright" unicode="&#x201d;" 
d="M164 722h115l-115 -246h-67zM352 722h114l-114 -246h-67z" />
    <glyph glyph-name="quotedblbase" unicode="&#x201e;" 
d="M164 100h115l-110 -235h-67zM351 100h114l-110 -235h-67z" />
    <glyph glyph-name="dagger" unicode="&#x2020;" 
d="M480 553v-74h-167v-479h-79v479h-170v74h170v169h79v-169h167z" />
    <glyph glyph-name="daggerdbl" unicode="&#x2021;" 
d="M235 556v166h80v-166h170v-75h-170v-238h170v-74h-170v-169h-80v169h-170v74h170v238h-170v75h170z" />
    <glyph glyph-name="bullet" unicode="&#x2022;" horiz-adv-x="350" 
d="M178 542q74 0 127 -53t53 -128q0 -74 -52.5 -127t-127.5 -53t-128 53t-53 127q0 75 53 128t128 53z" />
    <glyph glyph-name="ellipsis" unicode="&#x2026;" horiz-adv-x="1000" 
d="M126 0v120h111v-120h-111zM445 0v120h111v-120h-111zM764 0v120h111v-120h-111z" />
    <glyph glyph-name="perthousand" unicode="&#x2030;" horiz-adv-x="1000" 
d="M301 545q0 -76 -35 -125.5t-114 -49.5q-72 0 -107.5 43.5t-35.5 120.5q0 14 1 25t4.5 34.5t13 41.5t24.5 37t42 29.5t62 10.5q73 0 109 -44.5t36 -122.5zM155 427q72 0 72 117q0 112 -71 112q-74 0 -74 -118q0 -111 73 -111zM638 163q0 -76 -35 -125.5t-114 -49.5
q-72 0 -107.5 43.5t-35.5 120.5q0 13 1 24t4.5 35t13 42t24.5 37t42 29.5t62 10.5q73 0 109 -45t36 -122zM492 45q72 0 72 117q0 112 -72 112q-74 0 -74 -118q0 -111 74 -111zM985 163q0 -76 -35 -125.5t-114 -49.5q-72 0 -107.5 43.5t-35.5 120.5q0 13 1 24t4.5 35t13 42
t24.5 37t42 29.5t62 10.5q73 0 109 -44.5t36 -122.5zM839 45q72 0 72 117q0 112 -71 112q-74 0 -74 -118q0 -111 73 -111zM519 731h63l-472 -768h-62z" />
    <glyph glyph-name="guilsinglleft" unicode="&#x2039;" horiz-adv-x="278" 
d="M240 53h-80l-111 196l111 194h78l-97 -194z" />
    <glyph glyph-name="guilsinglright" unicode="&#x203a;" horiz-adv-x="278" 
d="M29 443h80l111 -195l-111 -195h-79l97 195z" />
    <glyph glyph-name="interrobang" unicode="&#x203d;" horiz-adv-x="505" 
d="M262 561l-5 -173q50 54 71 89t21 72q0 104 -140 104q-67 0 -135 -28v90q63 21 142 21q65 0 116 -16t86 -57.5t35 -104.5q0 -38 -16.5 -71.5t-36.5 -55t-73 -73.5q-39 -37 -51.5 -56t-12.5 -45v-93h-84l-9 397h92zM171 0v102h104v-102h-104z" />
    <glyph glyph-name="fraction" unicode="&#x2044;" horiz-adv-x="167" 
d="M-168 -28l430 743h64l-429 -743h-65z" />
    <glyph glyph-name="zero.superior" unicode="&#x2070;" horiz-adv-x="360" 
d="M18 491q0 39 7 74t24 69t50.5 54t80.5 20t80.5 -20t50 -54t23.5 -68.5t7 -74.5q0 -53 -13 -98.5t-51.5 -81t-98.5 -35.5q-37 0 -66 13.5t-46.5 35t-28.5 50.5t-15 57t-4 59zM85 490q0 -165 94 -165q95 0 95 166q0 169 -94 169q-95 0 -95 -170z" />
    <glyph glyph-name="four.superior" unicode="&#x2074;" horiz-adv-x="360" 
d="M218 284v90h-202v71l194 260h75v-281h56v-50h-56v-90h-67zM63 424h157v218z" />
    <glyph glyph-name="five.superior" unicode="&#x2075;" horiz-adv-x="360" 
d="M30 382h71q4 -29 25.5 -43.5t48.5 -14.5q34 0 55 19.5t26.5 38.5t5.5 37q0 41 -23 65t-60 24q-27 0 -49.5 -15t-30.5 -41h-63l11 247h253v-48h-194l-7 -135q31 39 92 39q68 0 103 -39.5t35 -97.5q0 -63 -43.5 -103.5t-118.5 -40.5q-60 0 -95.5 28t-41.5 80z" />
    <glyph glyph-name="six.superior" unicode="&#x2076;" horiz-adv-x="360" 
d="M335 601h-71q-1 33 -23 47.5t-50 14.5q-95 0 -104 -162q30 52 109 52q64 0 104.5 -34.5t40.5 -98.5q0 -69 -45 -107t-115 -38q-60 0 -97 30t-49.5 71.5t-12.5 96.5q0 235 172 235q66 0 102.5 -27.5t38.5 -79.5zM183 321q38 0 64.5 23t26.5 71q0 19 -5 37.5t-26.5 36.5
t-56.5 18q-46 0 -69 -27t-23 -66q0 -41 24.5 -67t64.5 -26z" />
    <glyph glyph-name="seven.superior" unicode="&#x2077;" horiz-adv-x="360" 
d="M20 648v51h304v-51l-166 -364h-74l174 364h-238z" />
    <glyph glyph-name="eight.superior" unicode="&#x2078;" horiz-adv-x="360" 
d="M118 503q-45 9 -68.5 34.5t-23.5 57.5q0 51 38.5 82.5t114.5 31.5t117 -31t41 -80q0 -33 -24 -60t-71 -34q101 -17 101 -105q0 -49 -41 -85.5t-122 -36.5q-80 0 -121.5 35.5t-41.5 82.5q0 92 101 108zM269 597q0 29 -23 48t-65 19q-39 0 -63.5 -18t-24.5 -49t24 -49.5
t63 -18.5q40 0 64.5 18.5t24.5 49.5zM87 400q0 -29 22.5 -52.5t70.5 -23.5q50 0 71.5 24t21.5 54q0 76 -92 76q-44 0 -69 -22t-25 -56z" />
    <glyph glyph-name="nine.superior" unicode="&#x2079;" horiz-adv-x="360" 
d="M17 383h73q0 -61 71 -61q103 0 95 172q-30 -52 -99 -52q-62 0 -102 34t-40 97q0 68 41.5 101t107.5 33q90 0 125 -57t35 -157q0 -25 -2 -47t-11.5 -56t-26 -57.5t-50 -41t-78.5 -17.5q-136 0 -139 109zM249 572q0 43 -25 66.5t-60 23.5q-36 0 -58 -25.5t-22 -63.5
q0 -39 24 -62.5t60 -23.5q35 0 58 24t23 61z" />
    <glyph glyph-name="plus.superior" unicode="&#x207a;" horiz-adv-x="360" 
d="M153 284v128h-126v46h126v128h54v-128h126v-46h-126v-128h-54z" />
    <glyph glyph-name="minus.superior" unicode="&#x207b;" horiz-adv-x="360" 
d="M27 411v47h306v-47h-306z" />
    <glyph glyph-name="equal.superior" unicode="&#x207c;" horiz-adv-x="360" 
d="M27 472v47h306v-47h-306zM27 351v46h306v-46h-306z" />
    <glyph glyph-name="parenleft.superior" unicode="&#x207d;" horiz-adv-x="230" 
d="M200 210h-44q-91 116 -91 267q0 141 87 258h45q-73 -109 -73 -257q0 -74 14 -131.5t62 -136.5z" />
    <glyph glyph-name="parenright.superior" unicode="&#x207e;" horiz-adv-x="230" 
d="M30 735h44q91 -116 91 -267q0 -141 -87 -258h-45q73 110 73 257q0 74 -14 131.5t-62 136.5z" />
    <glyph glyph-name="n.superior" unicode="&#x207f;" horiz-adv-x="360" 
d="M45 284v266l-1 35h60l1 -48l3 4l3 6t4.5 7t6 7.5t7.5 7t10 7l12 6t14 5t17 3t20 1.5q42 0 77.5 -25.5t35.5 -86.5v-195h-62v191q0 37 -16 53q-19 19 -53 19q-33 0 -56 -26t-23 -84v-153h-60z" />
    <glyph glyph-name="zero.inferior" unicode="&#x2080;" horiz-adv-x="360" 
d="M18 207q0 39 7 74t24 69t50.5 54t80.5 20t80.5 -20t50 -54t23.5 -68.5t7 -74.5q0 -53 -13 -98.5t-51.5 -81t-98.5 -35.5q-37 0 -66 13.5t-46.5 35t-28.5 50.5t-15 57t-4 59zM85 206q0 -165 94 -165q95 0 95 166q0 169 -94 169q-95 0 -95 -170z" />
    <glyph glyph-name="one.inferior" unicode="&#x2081;" horiz-adv-x="360" 
d="M239 0h-67v350q-47 -35 -105 -61v61q66 31 109 65h63v-415z" />
    <glyph glyph-name="two.inferior" unicode="&#x2082;" horiz-adv-x="360" 
d="M32 0v54l119 107q61 55 81 85.5t20 60.5q0 32 -20 49.5t-53 17.5q-64 0 -70 -72h-73q2 37 17 63t39 37t44 15.5t41 4.5q66 0 105.5 -30.5t39.5 -89.5q0 -46 -50 -103q-34 -39 -85 -83l-78 -69h214v-47h-291z" />
    <glyph glyph-name="three.inferior" unicode="&#x2083;" horiz-adv-x="360" 
d="M17 106h73q0 -33 22.5 -50.5t62.5 -17.5q43 0 65.5 22t22.5 53q0 83 -127 75v49q7 -3 26.5 -0.5t40.5 7t37 21.5t16 44q0 36 -24 51t-55 15q-35 0 -58 -18t-24 -48h-71q2 61 47.5 87t103.5 26q74 0 113 -32.5t39 -79.5q0 -31 -22 -59.5t-73 -37.5q28 -4 49 -15.5
t30.5 -23.5t15 -27.5t6 -22t0.5 -12.5q0 -52 -44 -87.5t-120 -35.5q-145 0 -152 117z" />
    <glyph glyph-name="four.inferior" unicode="&#x2084;" horiz-adv-x="360" 
d="M218 0v90h-202v71l194 260h75v-281h56v-50h-56v-90h-67zM63 140h157v218z" />
    <glyph glyph-name="five.inferior" unicode="&#x2085;" horiz-adv-x="360" 
d="M30 98h71q4 -29 25.5 -43.5t48.5 -14.5q34 0 55 19.5t26.5 38.5t5.5 37q0 41 -23 65t-60 24q-27 0 -49.5 -15t-30.5 -41h-63l11 247h253v-48h-194l-7 -135q31 39 92 39q68 0 103 -39.5t35 -97.5q0 -63 -43.5 -103.5t-118.5 -40.5q-60 0 -95.5 28t-41.5 80z" />
    <glyph glyph-name="six.inferior" unicode="&#x2086;" horiz-adv-x="360" 
d="M335 317h-71q-1 33 -23 47.5t-50 14.5q-95 0 -104 -162q30 52 109 52q64 0 104.5 -34.5t40.5 -98.5q0 -69 -45 -107t-115 -38q-60 0 -97 30t-49.5 71.5t-12.5 96.5q0 235 172 235q66 0 102.5 -27.5t38.5 -79.5zM183 37q38 0 64.5 23t26.5 71q0 19 -5 37.5t-26.5 36.5
t-56.5 18q-46 0 -69 -27t-23 -66q0 -41 24.5 -67t64.5 -26z" />
    <glyph glyph-name="seven.inferior" unicode="&#x2087;" horiz-adv-x="360" 
d="M20 364v51h304v-51l-166 -364h-74l174 364h-238z" />
    <glyph glyph-name="eight.inferior" unicode="&#x2088;" horiz-adv-x="360" 
d="M118 219q-45 9 -68.5 34.5t-23.5 57.5q0 51 38.5 82.5t114.5 31.5t117 -31t41 -80q0 -33 -24 -60t-71 -34q101 -17 101 -105q0 -49 -41 -85.5t-122 -36.5q-80 0 -121.5 35.5t-41.5 82.5q0 92 101 108zM269 313q0 29 -23 48t-65 19q-39 0 -63.5 -18t-24.5 -49t24 -49.5
t63 -18.5q40 0 64.5 18.5t24.5 49.5zM87 116q0 -29 22.5 -52.5t70.5 -23.5q50 0 71.5 24t21.5 54q0 76 -92 76q-44 0 -69 -22t-25 -56z" />
    <glyph glyph-name="nine.inferior" unicode="&#x2089;" horiz-adv-x="360" 
d="M17 99h73q0 -61 71 -61q103 0 95 172q-30 -52 -99 -52q-62 0 -102 34t-40 97q0 68 41.5 101t107.5 33q90 0 125 -57t35 -157q0 -25 -2 -47t-11.5 -56t-26 -57.5t-50 -41t-78.5 -17.5q-136 0 -139 109zM249 288q0 43 -25 66.5t-60 23.5q-36 0 -58 -25.5t-22 -63.5
q0 -39 24 -62.5t60 -23.5q35 0 58 24t23 61z" />
    <glyph glyph-name="plus.inferior" unicode="&#x208a;" horiz-adv-x="360" 
d="M153 0v128h-126v46h126v128h54v-128h126v-46h-126v-128h-54z" />
    <glyph glyph-name="minus.inferior" unicode="&#x208b;" horiz-adv-x="360" 
d="M27 127v47h306v-47h-306z" />
    <glyph glyph-name="equal.inferior" unicode="&#x208c;" horiz-adv-x="360" 
d="M27 188v47h306v-47h-306zM27 67v46h306v-46h-306z" />
    <glyph glyph-name="parenleft.inferior" unicode="&#x208d;" horiz-adv-x="230" 
d="M200 -74h-44q-91 116 -91 267q0 141 87 258h45q-73 -109 -73 -257q0 -74 14 -131.5t62 -136.5z" />
    <glyph glyph-name="parenright.inferior" unicode="&#x208e;" horiz-adv-x="230" 
d="M30 451h44q91 -116 91 -267q0 -141 -87 -258h-45q73 109 73 257q0 74 -14 131.5t-62 136.5z" />
    <glyph glyph-name="Euro" unicode="&#x20ac;" 
d="M36 321h46v25q0 21 2 45h-60l14 56h52q12 112 84.5 184.5t185.5 72.5q125 0 169 -58l-27 -88q-41 66 -143 66q-77 0 -120 -49t-54 -128h303l-14 -56h-295q-3 -36 -3 -45v-25h279l-14 -56h-261q9 -87 51 -143.5t119 -56.5q97 0 152 55v-93q-52 -42 -156 -42
q-118 0 -182 76.5t-77 203.5h-65z" />
    <glyph glyph-name="afii61248" unicode="&#x2105;" horiz-adv-x="889" 
d="M251 -39h-66l441 770h66zM676 347q81 0 121.5 -52.5t40.5 -128.5q0 -75 -41 -126t-123 -51q-80 0 -120.5 50.5t-40.5 125.5t41 128.5t122 53.5zM676 47q83 0 83 119q0 121 -83 121q-33 0 -53.5 -21.5t-26.5 -46.5t-6 -54t6 -53t26.5 -44.5t53.5 -20.5zM129 535
q0 -53 22.5 -87.5t70.5 -34.5q35 0 52 18t21 41h75q-4 -55 -45 -87t-103 -32q-33 0 -61 8t-54 27t-41 56t-15 89q0 53 15 90t41.5 55.5t54 26t60.5 7.5q62 0 103 -32t45 -87h-75q-4 23 -21 41t-52 18q-93 0 -93 -117z" />
    <glyph glyph-name="afii61289" unicode="&#x2113;" horiz-adv-x="500" 
d="M396 91l32 -47q-64 -58 -143 -58q-64 0 -101 35t-37 99v91l-58 -57h-2l-33 48l92 85v253q0 83 41 132t104 49q55 0 88.5 -36.5t33.5 -98.5q0 -143 -177 -314v-138q0 -44 20.5 -62.5t49.5 -18.5q42 0 88 38h2zM339 580q0 35 -14 57.5t-35 22.5q-23 0 -38.5 -27t-15.5 -78
v-205q103 120 103 230z" />
    <glyph glyph-name="afii61352" unicode="&#x2116;" horiz-adv-x="1120" 
d="M894 459q78 0 121.5 -42t43.5 -117t-43 -117.5t-119 -42.5t-119.5 42.5t-43.5 117.5q0 73 43.5 116t116.5 43zM1057 63v-63h-311v63h311zM812 302q0 -106 85 -106q83 0 83 107q0 48 -21.5 74t-61.5 26q-41 0 -63 -26t-22 -75zM95 0v692h139l315 -567v567h92v-692h-128
l-327 583v-583h-91z" />
    <glyph glyph-name="published" unicode="&#x2117;" horiz-adv-x="822" 
d="M411 741q156 0 267 -110.5t111 -267.5q0 -158 -111.5 -269t-266.5 -111q-154 0 -266 111t-112 269q0 157 112.5 267.5t265.5 110.5zM411 696q-137 0 -235 -98t-98 -235q0 -140 98 -238t235 -98q138 0 235.5 98.5t97.5 237.5q0 136 -97 234.5t-236 98.5zM302 164v407h136
q43 0 68 -6t44 -27q30 -31 30 -78q0 -48 -33 -80q-33 -35 -123 -35h-65v-181h-57zM359 525v-133h66q18 0 31 2t29.5 8t25.5 21t9 39q0 22 -8 36t-23.5 19.5t-25.5 6.5t-26 1h-78z" />
    <glyph glyph-name="trademark" unicode="&#x2122;" horiz-adv-x="1000" 
d="M409 361v361h83l97 -297l99 297h78v-361h-46v324l-112 -324h-45l-108 324v-324h-46zM239 361h-44v318h-102v43h251v-43h-105v-318z" />
    <glyph glyph-name="Omega" unicode="&#x2126;" horiz-adv-x="752" 
d="M693 0h-264v185q82 15 126.5 76t44.5 145q0 99 -65 165.5t-164 66.5t-165 -67t-66 -166q0 -85 43.5 -144t125.5 -76v-185h-263v77h190v62q-90 26 -140 100.5t-50 170.5q0 134 94.5 222.5t229.5 88.5q136 0 229.5 -87.5t93.5 -221.5q0 -99 -49.5 -173t-140.5 -100v-62h190
v-77z" />
    <glyph glyph-name="estimated" unicode="&#x212e;" horiz-adv-x="600" 
d="M157 295h291v145q-63 60 -147 60t-144 -60v-145zM561 259h-404v-181q59 -59 145 -59q63 0 109 28.5t84 91.5l35 -21q-46 -73 -98 -104t-130 -31q-115 0 -186.5 79t-71.5 197q0 119 71 197.5t187 78.5q115 0 187 -77t72 -199z" />
    <glyph glyph-name="onethird" unicode="&#x2153;" horiz-adv-x="834" 
d="M192 284h-67v350q-47 -35 -105 -61v61q66 31 109 65h63v-415zM125 -28l430 743h64l-429 -743h-65zM477 106h73q0 -33 22.5 -50.5t62.5 -17.5q43 0 65.5 22t22.5 53q0 83 -127 75v49q7 -3 26.5 -0.5t40.5 7t37 21.5t16 44q0 36 -24 51t-55 15q-35 0 -58 -18t-24 -48h-71
q2 61 47.5 87t103.5 26q74 0 113 -32.5t39 -79.5q0 -31 -22 -59.5t-73 -37.5q28 -4 49 -15.5t30.5 -23.5t15 -27.5t6 -22t0.5 -12.5q0 -52 -44 -87.5t-120 -35.5q-145 0 -152 117z" />
    <glyph glyph-name="twothirds" unicode="&#x2154;" horiz-adv-x="834" 
d="M23 284v54l119 107q61 55 81 85.5t20 60.5q0 32 -20 49.5t-53 17.5q-64 0 -70 -72h-73q2 37 17 63t39 37t44 15.5t41 4.5q66 0 105.5 -30.5t39.5 -89.5q0 -46 -50 -103q-34 -39 -85 -83l-78 -69h214v-47h-291zM163 -28l430 743h64l-429 -743h-65zM485 106h73
q0 -33 22.5 -50.5t62.5 -17.5q43 0 65.5 22t22.5 53q0 83 -127 75v49q7 -3 26.5 -0.5t40.5 7t37 21.5t16 44q0 36 -24 51t-55 15q-35 0 -58 -18t-24 -48h-71q2 61 47.5 87t103.5 26q74 0 113 -32.5t39 -79.5q0 -31 -22 -59.5t-73 -37.5q28 -4 49 -15.5t30.5 -23.5t15 -27.5
t6 -22t0.5 -12.5q0 -52 -44 -87.5t-120 -35.5q-145 0 -152 117z" />
    <glyph glyph-name="oneeighth" unicode="&#x215b;" horiz-adv-x="834" 
d="M189 284h-67v350q-47 -35 -105 -61v61q66 31 109 65h63v-415zM122 -28l430 743h64l-429 -743h-65zM585 219q-45 9 -68.5 34.5t-23.5 57.5q0 51 38.5 82.5t114.5 31.5t117 -31t41 -80q0 -33 -24 -60t-71 -34q101 -17 101 -105q0 -49 -41 -85.5t-122 -36.5
q-80 0 -121.5 35.5t-41.5 82.5q0 92 101 108zM736 313q0 29 -23 48t-65 19q-39 0 -63.5 -18t-24.5 -49t24 -49.5t63 -18.5q40 0 64.5 18.5t24.5 49.5zM554 116q0 -29 22.5 -52.5t70.5 -23.5q50 0 71.5 24t21.5 54q0 76 -92 76q-44 0 -69 -22t-25 -56z" />
    <glyph glyph-name="threeeighths" unicode="&#x215c;" horiz-adv-x="834" 
d="M11 390h73q0 -33 22.5 -50.5t62.5 -17.5q43 0 65.5 22t22.5 53q0 83 -127 75v49q7 -3 26.5 -0.5t40.5 7t37 21.5t16 44q0 36 -24 51t-55 15q-35 0 -58 -18t-24 -48h-71q2 61 47.5 87t103.5 26q74 0 113 -32.5t39 -79.5q0 -31 -22 -59.5t-73 -37.5q28 -4 49 -15.5
t30.5 -23.5t15 -27.5t6 -22t0.5 -12.5q0 -52 -44 -87.5t-120 -35.5q-145 0 -152 117zM166 -28l430 743h64l-429 -743h-65zM599 219q-45 9 -68.5 34.5t-23.5 57.5q0 51 38.5 82.5t114.5 31.5t117 -31t41 -80q0 -33 -24 -60t-71 -34q101 -17 101 -105q0 -49 -41 -85.5
t-122 -36.5q-80 0 -121.5 35.5t-41.5 82.5q0 92 101 108zM750 313q0 29 -23 48t-65 19q-39 0 -63.5 -18t-24.5 -49t24 -49.5t63 -18.5q40 0 64.5 18.5t24.5 49.5zM568 116q0 -29 22.5 -52.5t70.5 -23.5q50 0 71.5 24t21.5 54q0 76 -92 76q-44 0 -69 -22t-25 -56z" />
    <glyph glyph-name="fiveeighths" unicode="&#x215d;" horiz-adv-x="834" 
d="M27 382h71q4 -29 25.5 -43.5t48.5 -14.5q34 0 55 19.5t26.5 38.5t5.5 37q0 41 -23 65t-60 24q-27 0 -49.5 -15t-30.5 -41h-63l11 247h253v-48h-194l-7 -135q31 39 92 39q68 0 103 -39.5t35 -97.5q0 -63 -43.5 -103.5t-118.5 -40.5q-60 0 -95.5 28t-41.5 80zM159 -28
l430 743h64l-429 -743h-65zM592 219q-45 9 -68.5 34.5t-23.5 57.5q0 51 38.5 82.5t114.5 31.5t117 -31t41 -80q0 -33 -24 -60t-71 -34q101 -17 101 -105q0 -49 -41 -85.5t-122 -36.5q-80 0 -121.5 35.5t-41.5 82.5q0 92 101 108zM743 313q0 29 -23 48t-65 19
q-39 0 -63.5 -18t-24.5 -49t24 -49.5t63 -18.5q40 0 64.5 18.5t24.5 49.5zM561 116q0 -29 22.5 -52.5t70.5 -23.5q50 0 71.5 24t21.5 54q0 76 -92 76q-44 0 -69 -22t-25 -56z" />
    <glyph glyph-name="seveneighths" unicode="&#x215e;" horiz-adv-x="834" 
d="M28 648v51h304v-51l-166 -364h-74l174 364h-238zM120 -28l430 743h64l-429 -743h-65zM583 219q-45 9 -68.5 34.5t-23.5 57.5q0 51 38.5 82.5t114.5 31.5t117 -31t41 -80q0 -33 -24 -60t-71 -34q101 -17 101 -105q0 -49 -41 -85.5t-122 -36.5q-80 0 -121.5 35.5
t-41.5 82.5q0 92 101 108zM734 313q0 29 -23 48t-65 19q-39 0 -63.5 -18t-24.5 -49t24 -49.5t63 -18.5q40 0 64.5 18.5t24.5 49.5zM552 116q0 -29 22.5 -52.5t70.5 -23.5q50 0 71.5 24t21.5 54q0 76 -92 76q-44 0 -69 -22t-25 -56z" />
    <glyph glyph-name="partialdiff" unicode="&#x2202;" horiz-adv-x="523" 
d="M481 360q0 -52 -5.5 -99.5t-21 -99t-41 -88.5t-69.5 -61t-101 -24q-94 0 -151 65t-57 160q0 93 55.5 154.5t147.5 61.5q89 0 156 -70q0 6 0.5 19.5t0.5 21.5q0 43 -8 84t-26 80t-52.5 63t-80.5 24q-57 0 -116 -47l-47 55q78 62 159 62q71 0 123.5 -32.5t80.5 -87
t40.5 -114.5t12.5 -127zM391 271q-50 90 -142 90q-63 0 -97 -44t-34 -108q0 -62 33 -108.5t94 -46.5q50 0 84 38t47 84t15 95z" />
    <glyph glyph-name="Delta" unicode="&#x2206;" horiz-adv-x="678" 
d="M667 0h-656l276 712h95zM540 83l-207 530l-199 -530h406z" />
    <glyph glyph-name="product" unicode="&#x220f;" horiz-adv-x="726" 
d="M660 -214h-90v917h-413v-917h-91v1000h594v-1000z" />
    <glyph glyph-name="summation" unicode="&#x2211;" horiz-adv-x="626" 
d="M601 -214h-576v72l316 433l-303 422v73h551v-83h-432l292 -412l-311 -423h463v-82z" />
    <glyph glyph-name="minus" unicode="&#x2212;" horiz-adv-x="584" 
d="M37 212v78h510v-78h-510z" />
    <glyph glyph-name="uni2215" unicode="&#x2215;" horiz-adv-x="167" 
d="M-168 -28l430 743h64l-429 -743h-65z" />
    <glyph glyph-name="uni2219" unicode="&#x2219;" horiz-adv-x="278" 
d="M81 231v121h111v-121h-111z" />
    <glyph glyph-name="radical" unicode="&#x221a;" horiz-adv-x="515" 
d="M526 786l-211 -1000h-86l-158 328l-48 -23l-33 70l124 58l144 -302l178 869h90z" />
    <glyph glyph-name="infinity" unicode="&#x221e;" horiz-adv-x="778" 
d="M681 260q0 38 -22 63.5t-60 25.5q-25 0 -55 -17.5t-46 -32t-42 -40.5q31 -29 44.5 -40.5t44 -27.5t57.5 -16q37 0 58 24t21 61zM361 259l-44.5 40.5t-47 31.5t-55.5 17q-35 0 -56.5 -25.5t-21.5 -62.5q0 -39 22 -62t60 -23q59 0 143 84zM754 263q0 -75 -43.5 -124.5
t-117.5 -49.5q-54 0 -96 27.5t-89 79.5q-35 -37 -54.5 -54.5t-54.5 -34.5t-74 -17q-75 0 -119.5 48t-44.5 124q0 73 43.5 122t116.5 49q56 0 97.5 -29t89.5 -85q44 54 87.5 84.5t98.5 30.5q72 0 116 -49t44 -122z" />
    <glyph glyph-name="integral" unicode="&#x222b;" horiz-adv-x="574" 
d="M442 723q0 -19 -12.5 -30.5t-31.5 -11.5q-17 0 -27.5 8.5t-13.5 19t-8.5 19t-13.5 8.5q-26 0 -26 -86q0 -20 1 -49t1 -37v-568q0 -209 -132 -209q-32 0 -57.5 14.5t-25.5 45.5q0 17 12.5 29t29.5 12q16 0 26 -8.5t13.5 -18.5t9 -18.5t12.5 -8.5q25 0 25 59q0 18 -0.5 58
t-0.5 49v574q0 28 1.5 50t5.5 48t13.5 45t23 35.5t36 25t51.5 8.5t58.5 -16.5t29.5 -46.5z" />
    <glyph glyph-name="approxequal" unicode="&#x2248;" horiz-adv-x="584" 
d="M489 440h55q-7 -67 -38.5 -111t-91.5 -44q-44 0 -133 36q-9 3 -27 10t-27 10l-22.5 7.5t-23.5 6t-19 1.5q-27 0 -45 -22t-22 -52h-56q7 66 38.5 111t90.5 45q48 0 129 -35q93 -35 125 -35q54 0 67 72zM489 240h55q-7 -67 -38.5 -111t-91.5 -44q-44 0 -133 36q-9 3 -27 10
t-27 10l-22.5 7.5t-23.5 6t-19 1.5q-27 0 -45 -22t-22 -52h-56q7 66 38.5 111t90.5 45q48 0 129 -35q93 -35 125 -35q54 0 67 72z" />
    <glyph glyph-name="notequal" unicode="&#x2260;" horiz-adv-x="584" 
d="M535 108h-271l-73 -149l-70 38l55 111h-127v84h168l60 123h-228v84h270l73 149l70 -37l-56 -112h129v-84h-170l-60 -123h230v-84z" />
    <glyph glyph-name="lessequal" unicode="&#x2264;" horiz-adv-x="584" 
d="M535 130l-487 179v86l487 183v-89l-378 -137l378 -134v-88zM535 8h-487v84h487v-84z" />
    <glyph glyph-name="greaterequal" unicode="&#x2265;" horiz-adv-x="584" 
d="M535 309l-487 -179v88l377 134l-377 137v89l487 -183v-86zM535 8h-487v84h487v-84z" />
    <glyph glyph-name="lozenge" unicode="&#x25ca;" horiz-adv-x="593" 
d="M511 356l-174 -391h-82l-173 391l173 391h82zM424 356l-128 305l-127 -305l127 -305z" />
    <glyph glyph-name="f_i" unicode="&#xf001;" horiz-adv-x="611" 
d="M411 618v102h112v-102h-112zM514 0h-93v502h93v-502zM339 727v-75q-32 2 -55 2q-27 0 -43.5 -5.5t-23 -18.5t-8 -22t-1.5 -27v-79h117v-68h-117v-434h-93v434h-99v68h99v57q0 52 4 76.5t17 43.5q37 55 126 55q30 0 77 -7z" />
    <glyph glyph-name="f_l" unicode="&#xf002;" horiz-adv-x="611" 
d="M419 0v721h94v-721h-94zM339 727v-75q-32 2 -55 2q-27 0 -43.5 -5.5t-23 -18.5t-8 -22t-1.5 -27v-79h117v-68h-117v-434h-93v434h-99v68h99v57q0 52 4 76.5t17 43.5q37 55 126 55q30 0 77 -7z" />
    <glyph glyph-name="uniF8FF" unicode="&#xf8ff;" horiz-adv-x="512" 
d="M278 117h-56v67h56v-67zM271 234h-46l-2 17q0 56 13 81q15 28 46 59q30 28 40 45.5t10 37.5q0 36 -22.5 60.5t-53.5 24.5q-71 0 -82 -95l-50 8q6 69 42 103t93 34q55 0 89.5 -36t34.5 -95q0 -34 -13 -60t-50 -60q-37 -33 -43 -52q-6 -20 -6 -72zM50 50h412v617h-412v-617
zM0 718h512v-718h-512v718z" />
    <glyph glyph-name="grave.cap" horiz-adv-x="278" 
d="M2 930h113l84 -144h-62z" />
    <glyph glyph-name="acute.cap" horiz-adv-x="278" 
d="M162 930h104l-121 -144h-65z" />
    <glyph glyph-name="circumflex.cap" horiz-adv-x="278" 
d="M64 786h-77l106 145h90l104 -145h-86l-66 96z" />
    <glyph glyph-name="caron.cap" horiz-adv-x="278" 
d="M90 786l-104 143h86l67 -96l69 96h79l-104 -143h-93z" />
    <glyph glyph-name="caron.alt" horiz-adv-x="278" 
d="M128 722h86l-75 -159h-51z" />
    <glyph glyph-name="tilde.cap" horiz-adv-x="278" 
d="M40 802h-42q1 43 24 70q22 28 61 28q17 0 77 -17q26 -7 37 -7q37 0 37 37h41q2 -52 -24.5 -76.5t-59.5 -24.5q-21 0 -63 13l-19 5.5t-20 5.5t-11 2q-27 0 -38 -36z" />
    <glyph glyph-name="dieresis.cap" horiz-adv-x="278" 
d="M-3 807v102h92v-102h-92zM186 807v102h93v-102h-93z" />
    <glyph glyph-name="macron.cap" horiz-adv-x="278" 
d="M0 832v53h275v-53h-275z" />
    <glyph glyph-name="breve.cap" horiz-adv-x="278" 
d="M2 941h47q5 -94 88 -94q29 0 49.5 11.5t28.5 29t11 30t3 23.5h47q2 -77 -33.5 -117t-105.5 -40q-135 0 -135 157z" />
    <glyph glyph-name="ring.cap" horiz-adv-x="278" 
d="M41 859q0 41 28.5 69.5t69.5 28.5t69.5 -28.5t28.5 -69.5t-28.5 -69.5t-69.5 -28.5t-69.5 28.5t-28.5 69.5zM81 859q0 -24 17 -41t41 -17t41 17t17 41t-17 41t-41 17t-41 -17t-17 -41z" />
    <glyph glyph-name="hungarumlaut.cap" horiz-adv-x="400" 
d="M192 930l-121 -144h-65l82 144h104zM351 930l-121 -144h-65l82 144h104z" />
    <glyph glyph-name="dotaccent.cap" horiz-adv-x="278" 
d="M93 807v102h92v-102h-92z" />
    <glyph glyph-name="commaaccent" horiz-adv-x="278" 
d="M109 -66h87l-83 -176h-50z" />
    <glyph glyph-name="commaaccent.alt" horiz-adv-x="278" 
d="M159 596h-87l83 176h50z" />
    </font>
</defs>
</svg>
